<svg width="257" height="116" viewBox="0 0 257 116" fill="none" xmlns="http://www.w3.org/2000/svg">
  <path d="M0 115.141H257V0.000213623H0V115.141Z" fill="#CC0000"/>
  <path d="M251.022 109.151H5.97488V5.972H251.022V109.151ZM4.2262 4.22019V110.918H252.78V4.22019" fill="white"/>
  <path
    d="M46.0135 44.3961C46.001 48.2032 44.1929 52.1573 37.7456 52.1667C33.6288 52.1448 32.2618 50.9091 32.2368 47.2022V36.8164H37.4515C43.1606 36.8196 46.0104 40.6579 46.0135 44.3961ZM37.5016 35.6778H32.2368V23.7185C33.4756 23.6685 35.4182 23.5778 36.4662 23.5778C42.4849 23.5871 44.4744 26.6684 44.4869 30.0688C44.4744 33.8571 42.2065 35.6621 37.5016 35.6778ZM43.6329 35.9906C46.8644 35.3211 49.1199 32.7247 49.123 29.9218C49.1261 27.5287 48.1126 25.8113 46.0761 24.3723C44.2648 23.0679 40.464 22.4391 36.1221 22.4359C35.1836 22.4359 31.4453 22.486 28.7332 22.583C27.3067 22.633 23.9094 22.8301 22.533 22.8802H22.4329V24.0188H24.2598C27.6633 24.047 27.9167 25.389 27.948 28.1982V48.6286C27.9167 51.71 27.2535 52.5327 23.2243 52.564H21.9918V53.7026H40.1105C48.0907 53.6933 50.8341 48.1782 50.8466 44.246C50.8466 40.4108 48.1689 37.3952 43.6329 35.9906Z"
    fill="white"/>
  <path
    d="M74.1614 23.577C82.226 23.5802 87.985 29.9649 87.9913 39.0774C87.985 46.0377 84.178 53.0419 76.2291 53.0575C68.3616 53.0544 62.1552 46.6133 62.1521 37.4539C62.1552 31.5759 65.5744 23.5895 74.1614 23.577ZM75.4408 22.1412C64.9112 22.1599 57.3377 29.1296 57.319 38.9805C57.3221 48.2525 65.5056 54.4746 75.1937 54.4902C84.7942 54.4715 92.8025 47.458 92.8213 37.4539C92.8182 28.5259 84.788 22.1568 75.4408 22.1412Z"
    fill="white"/>
  <path
    d="M101.333 53.7034H101.389L101.418 53.6596C101.599 53.3843 101.915 53.1622 102.319 53.1622C102.95 53.1559 106.432 54.4917 109.16 54.4917C114.957 54.4823 119.302 50.8661 119.302 45.9735C119.258 36.8015 103.432 34.9058 103.504 28.0519C103.504 25.3585 105.7 23.5316 108.916 23.5253C112.263 23.5253 115.379 25.762 116.746 29.2719L116.771 29.3344H117.791L116.931 22.8809H115.998L115.97 22.9184C115.673 23.3032 115.542 23.3658 115.166 23.3752C113.505 23.3814 112.626 22.1426 108.472 22.1426C103.41 22.1489 99.6095 25.2271 99.6064 29.3814C99.6565 38.1123 115.476 40.2958 115.407 47.253C115.404 51.0694 111.982 52.9526 108.716 52.9589C104.921 52.9557 101.521 50.4375 100.495 46.0955L100.476 46.0173H99.3436L100.407 53.7034"
    fill="white"/>
  <path
    d="M125.443 30.3165L125.458 30.232C126.206 25.8963 127.044 24.8608 128.95 24.8546H137.411V49.0733C137.386 51.7042 136.611 52.5363 133.623 52.5644H131.702V53.7031H147.412V52.5644H145.492C142.504 52.5363 141.728 51.7042 141.703 49.0733V24.8546H150.165C152.07 24.8608 152.909 25.8963 153.659 30.232L153.672 30.3165H154.757L153.95 22.1424H152.834L152.821 22.2237C152.752 22.718 152.086 22.8806 151.398 22.8775H127.72C127.385 22.8775 127.048 22.8306 126.769 22.7367C126.497 22.6429 126.337 22.4802 126.294 22.2237L126.278 22.1424H125.164L124.357 30.3165H125.355"
    fill="white"/>
  <path
    d="M177.13 53.0558C169.263 53.0558 163.06 46.6148 163.056 37.4553C163.06 31.5774 166.479 23.591 175.063 23.5754C183.127 23.5785 188.886 29.9632 188.892 39.0789C188.886 46.0392 185.082 53.0433 177.13 53.0558ZM176.345 22.1395C165.809 22.1583 158.242 29.128 158.223 38.9819C158.226 48.254 166.407 54.4729 176.098 54.4917C185.695 54.4729 193.707 47.4563 193.726 37.4553C193.722 28.5274 185.692 22.1583 176.345 22.1395Z"
    fill="white"/>
  <path
    d="M210.212 52.6676V52.5644H210.112C205.929 52.53 205.272 51.9106 205.241 48.3851V27.5197L230.596 54.0503H232.022V26.478C232.041 24.6105 232.698 24.0474 236.398 24.0224H236.499V22.8806H224.777V24.0161L224.877 24.0193C228.825 24.1506 229.573 24.5917 229.601 27.5635V46.8992L206.558 22.8806H198.688V24.0161L198.785 24.0193C200.471 24.0693 201.716 24.4478 202.82 25.2017V49.3705C202.801 51.5946 201.922 52.5425 198.888 52.5644H198.591V53.7031H210.212"
    fill="white"/>
  <path
    d="M39.2882 71.13V71.9465L39.3852 71.9558C42.0692 72.1154 42.4414 72.5346 42.4758 75.6597V83.2394C42.4665 88.7107 38.8158 90.1809 35.1589 90.1934C30.3539 90.1841 27.8576 87.6189 27.8482 83.2707V74.2301C27.8701 72.3782 28.5364 71.9809 30.3133 71.9558H30.7074V71.13H22.1423V71.9527L22.2456 71.9558C24.4572 72.0184 24.9108 72.2374 24.9421 74.2926V83.79C24.9515 88.4917 28.1923 92.0798 34.4457 92.0923C41.553 92.0798 44.1682 87.7065 44.1745 83.6273V74.8463C44.1995 72.788 44.8877 72.0059 47.0368 71.9558L47.1369 71.9527V71.13H47.0337"
    fill="white"/>
  <path
    d="M67.5765 71.8527V71.9497L67.6766 71.9528C70.2855 72.0529 70.736 72.3094 70.7641 74.2583V86.9496L55.5891 71.1332H50.3336V71.9497L50.4337 71.9528C51.5349 71.9841 52.3451 72.2312 53.0677 72.7192V88.6701C53.0489 90.131 52.5015 90.7254 50.4994 90.7473H50.2679V91.57H58.0197V90.7473H57.9196C55.1542 90.7128 54.7663 90.3437 54.7351 88.0194V74.3178L71.4398 91.7983H72.4315V73.5451C72.4534 72.3282 72.8413 71.981 75.2907 71.956H75.3908V71.1301H67.5765"
    fill="white"/>
  <path
    d="M79.8267 71.8524V71.9462L79.9236 71.9525C81.7349 72.0745 82.2417 72.4655 82.2667 74.1954V88.0535C82.2354 90.2245 81.9194 90.6218 79.9236 90.7469L79.8267 90.7532V91.5728H87.935V90.7469H87.8318C85.6076 90.7187 85.201 90.1807 85.1728 88.2819V74.4863C85.201 72.331 85.7953 71.9838 87.8318 71.9525H87.935V71.1297H79.8267"
    fill="white"/>
  <path
    d="M105.324 71.8523V71.9556H105.425C107.646 71.9649 108.346 72.3341 108.349 73.2194C108.349 73.6448 108.159 74.2923 107.802 75.1964L102.756 88.3913L96.9971 74.0609C96.8657 73.7418 96.8 73.4696 96.8 73.2413C96.7844 72.4404 97.6384 72.0087 99.9939 71.9524H100.094V71.1297H90.944V71.9524H91.0472C93.0117 71.9712 93.3058 72.3779 94.141 74.4269L101.223 92.0889H102.991L109.716 74.6865C110.505 72.6844 111.321 71.9618 112.973 71.9524H113.076V71.1297H105.324"
    fill="white"/>
  <path
    d="M131.846 86.5207L131.824 86.5957C130.995 89.3892 130.388 90.1807 128.152 90.1932L123.14 90.1963C121.948 90.1682 121.51 89.9774 121.485 88.5071V81.6813H126.881C128.195 81.7063 128.702 81.8627 128.99 84.162L128.999 84.2496H129.813V77.868H128.999L128.99 77.9587C128.812 79.8387 128.33 80.2892 127.207 80.3049H121.485V72.5093H128.245C129.365 72.5187 130.116 73.0129 130.554 75.772L130.567 75.8596H131.349L131.076 71.1297H115.263V71.9556H116.083C118.232 71.9806 118.554 72.6438 118.579 74.4582V88.1817C118.551 90.1181 118.213 90.7187 115.623 90.75H114.613V91.5728H132.081L132.622 86.5207H131.924"
    fill="white"/>
  <path
    d="M163.835 74.5867C163.838 72.8286 165.262 71.6336 167.373 71.6305C169.569 71.6305 171.618 73.0945 172.519 75.4032L172.541 75.4689H173.283L172.701 71.13H172.041L172.009 71.1738C171.812 71.424 171.747 71.4491 171.506 71.4585C170.43 71.4678 169.832 70.6451 167.082 70.6451C163.726 70.6482 161.192 72.6941 161.189 75.4657C161.239 81.2717 171.7 82.7232 171.631 87.2748C171.628 89.768 169.394 91.0037 167.245 91.0068C164.752 91.0068 162.521 89.352 161.846 86.5021L161.827 86.4239H161.014L161.724 91.573H162.418L162.45 91.5261C162.565 91.354 162.762 91.2133 163.016 91.2133C163.413 91.2039 165.728 92.0892 167.536 92.0923C171.384 92.0829 174.274 89.6835 174.274 86.4271C174.227 80.3333 163.763 79.0663 163.835 74.5867Z"
    fill="white"/>
  <path
    d="M179.965 71.8524V71.9493L180.062 71.9525C181.87 72.0745 182.38 72.4686 182.405 74.1954V88.0535C182.374 90.2245 182.061 90.6218 180.062 90.7469L179.965 90.7532V91.5728H188.074V90.7469H187.974C185.746 90.7187 185.337 90.1807 185.308 88.2819V74.4863C185.337 72.331 185.931 71.9838 187.974 71.9525H188.074V71.1297H179.965"
    fill="white"/>
  <path
    d="M211.087 70.6458H211L210.984 70.7303C210.953 71.0244 210.534 71.1339 210.08 71.1307H194.429C194.214 71.1307 193.992 71.1026 193.813 71.04C193.641 70.9837 193.55 70.8836 193.522 70.7303L193.51 70.6458H192.712L192.171 76.1171H192.956L192.972 76.0358C193.472 73.1641 194.007 72.5134 195.246 72.5103H200.802V88.4768C200.777 90.2067 200.301 90.7229 198.334 90.7479L197.029 90.751V91.5737H207.484V90.751H206.176C204.208 90.7229 203.733 90.2067 203.708 88.4768V72.5071L209.267 72.5103C210.502 72.5134 211.034 73.1641 211.538 76.0358L211.553 76.1171H212.339L211.797 70.6458"
    fill="white"/>
  <path
    d="M228.949 71.1299V71.9527H229.053C230.473 71.9589 231.102 72.2092 231.102 72.8317C231.105 73.1414 230.951 73.5762 230.623 74.1393L226.115 81.8066L221.001 73.9078C220.65 73.376 220.463 72.96 220.466 72.6816C220.466 72.2186 221.004 71.9527 222.64 71.9527H222.743V71.1268H213.887V71.9495L213.987 71.9527C216.083 72.0278 216.752 72.4313 218.36 74.9308L224.132 83.9494V88.5042C224.11 90.0745 223.625 90.7221 221.632 90.7471H220.913V91.5698H230.063V90.7471H229.541C227.576 90.7221 227.06 90.1402 227.038 88.4385L227.035 83.5615L232.425 74.4709C233.332 72.9568 234.224 72.1185 236.41 71.9527L236.504 71.9464V71.1299"
    fill="white"/>
  <path
    d="M150.304 76.9898C150.291 80.825 148.017 82.2827 144.447 82.2952C144.141 82.2952 143.881 82.3015 143.631 82.3015C143.284 82.3015 142.952 82.2921 142.539 82.2452V71.8031C143.071 71.75 143.471 71.75 144.056 71.75C149.012 71.7656 150.285 74.0117 150.304 76.9898ZM154.927 88.6737C154.927 88.6768 150.795 83.4151 150.135 82.5768C149.925 82.3296 149.781 82.1638 149.659 82.0606C152.062 81.1597 153.554 79.3203 153.554 76.7958C153.544 73.4236 150.782 70.9335 144.77 70.9272C142.664 70.9272 142.011 70.9616 140.684 71.0242C139.355 71.0899 137.378 71.2182 136.608 71.2182H136.505V72.0378H137.321C139.176 72.0659 139.621 72.5351 139.649 74.5278L139.646 88.1638C139.621 90.3129 139.051 90.7227 137.159 90.7508H136.505V91.5673H145.877V90.7508H145.026C143.227 90.7227 142.561 90.3317 142.539 88.4266L142.555 83.0554C143.027 83.0867 143.459 83.118 144.125 83.1148C145.004 83.1148 145.868 83.0429 146.559 82.9209L146.572 82.8708V82.9178C146.872 82.8646 148.042 84.5444 149.256 86.0773L151.161 88.4266C153.738 91.3577 154.517 91.9239 158.919 91.9114C158.959 91.9114 159 91.9146 159.044 91.9146H159.144V91.1419L159.059 91.1262C157.076 90.7884 156.369 90.3942 154.927 88.6737Z"
    fill="white"/>
</svg>
