<svg clip-rule="evenodd" fill-rule="evenodd" stroke-linejoin="round" stroke-miterlimit="2" viewBox="0 0 163 61"
     xmlns="http://www.w3.org/2000/svg">
  <g transform="matrix(.977406 0 0 .989417 -13.4165 -65.0824)">
    <path d="m13.727 65.778h166.425v61.435h-166.425z" fill="none"/>
    <path
      d="m24.323 81.528h3.788c3.474 0 5.206 1.686 5.206 4.952 0 3.002-1.786 4.53-5.259 4.53h-3.735zm5.63 11.595c4.991 0 7.882-2.325 7.882-6.38 0-3.951-2.891-6.324-7.934-6.483 3.836 0 6.618-2.256 6.618-5.389 0-3.655-2.834-6.03-7.302-6.03h-12.855v1.956h3.947v20.371h-3.947v1.956zm-5.63-22.169h3.735c2.578 0 3.946 1.462 3.946 4.073 0 2.663-1.684 4.386-4.314 4.386h-3.368zm30.79-.548c4.428 0 8.012 4.671 8.012 10.549 0 5.931-3.532 10.603-8.012 10.603-4.427 0-7.959-4.724-7.959-10.654.001-5.827 3.532-10.498 7.959-10.498zm.054 23.37c6.641 0 12.42-5.997 12.42-12.873 0-6.772-5.779-12.716-12.42-12.716-6.747 0-12.527 5.893-12.527 12.716 0 6.928 5.78 12.873 12.527 12.873zm20.144-.369h-1.946v-6.575h1.946v2.731c2.098 1.26 3.566 1.733 5.347 1.733 2.621 0 4.508-1.47 4.508-3.518 0-1.996-1.415-3.362-5.766-5.567-4.615-2.311-6.196-4.15-6.196-7.247 0-3.782 3.314-6.788 7.507-6.788 1.73 0 3.249.371 4.769 1.216v-1.322h1.948v6.316h-1.948v-2.626c-2.044-1.103-2.987-1.366-4.403-1.366-2.464 0-4.088 1.366-4.088 3.519 0 1.365.576 2.1 2.358 3.151 1.363.788 2.621 1.524 3.721 2.154 4.516 2.521 5.779 4.202 5.779 7.615 0 3.939-3.263 6.945-7.613 6.945-1.992 0-3.879-.581-5.925-1.744v1.373zm37.575-.284h-12.962v-1.956h4.468v-20.212h-7.674v2.94h-1.894v-6.107h1.894v1.052h19.382v-1.052h1.948v6.107h-1.948v-2.94h-7.694v20.212h4.48zm20.585-22.717c4.428 0 8.012 4.671 8.012 10.549 0 5.931-3.53 10.603-8.012 10.603-4.426 0-7.959-4.724-7.959-10.654 0-5.827 3.533-10.498 7.959-10.498zm.053 23.37c6.643 0 12.422-5.997 12.422-12.873 0-6.772-5.779-12.716-12.422-12.716-6.746 0-12.525 5.893-12.525 12.716 0 6.928 5.779 12.873 12.525 12.873zm40.166-.232h-1.578l-15.231-17.864v15.487h3.991v1.956h-10.568v-1.956h3.947v-18.847l-1.054-1.365h-3.683v-2.115h6.789l14.757 17.129v-15.014h-3.993v-2.115h10.57v2.115h-3.947zm-136.768 32.182c-2.454 1.08-4.245 1.487-7.113 1.487-6.765 0-11.656-4.586-11.656-10.916 0-6.466 4.89-11.006 11.88-11.006 1.97 0 3.226.36 5.284 1.352v-1.397h1.604v5.348h-1.604v-1.528c-1.925-1.391-3.358-1.885-5.375-1.885-4.57 0-7.93 3.726-7.93 8.755 0 5.344 3.674 9.383 8.558 9.383 1.523 0 2.599-.359 4.703-1.481l.044-2.29h1.604v4.178zm14.837-18.47c3.767 0 6.817 3.989 6.817 9.009 0 5.066-3.006 9.056-6.817 9.056-3.767 0-6.773-4.035-6.773-9.1 0-4.976 3.006-8.965 6.773-8.965zm.044 19.956c5.651 0 10.587-5.119 10.587-10.991 0-5.783-4.936-10.856-10.587-10.856-5.741 0-10.675 5.028-10.675 10.856 0 5.917 4.935 10.991 10.675 10.991zm31.232-.593h-15.954v-1.668h3.366v-17.249h-3.366v-1.802h10.16v1.802h-3.384v17.115h7.575v-2.733h1.603zm21.18 0h-15.954v-1.668h3.366v-17.249h-3.366v-1.802h10.159v1.802h-3.383v17.115h7.574v-2.733h1.604zm21.283 0h-16.056v-1.668h3.365v-17.385h-3.365v-1.666h14.082v-.898h1.66v5.031h-1.615v-2.331h-7.353v7.493h5.75v-2.154l1.647-.046v6.235h-1.647v-2.234h-5.75v7.821h7.623v-2.369h1.659zm25.278-.893c-3.17 1.125-5.056 1.487-7.611 1.487-6.772 0-11.663-4.569-11.663-10.891 0-6.257 5.024-10.985 11.572-10.985 1.75 0 3.094.271 5.652 1.126v-1.216h1.649v5.357h-1.649v-2.07c-2.019-1.036-3.409-1.441-5.158-1.441-4.709 0-8.207 3.781-8.207 8.822 0 5.569 3.768 9.497 9.105 9.497.897 0 1.524-.089 2.958-.446v-5.178h-3.409v-1.667h10.171v1.667h-3.411v5.938zm23.5.893h-16.058v-1.668h3.365v-17.385h-3.365v-1.666h14.082v-.898h1.662v5.031h-1.617v-2.331h-7.351v7.493h5.747v-2.154l1.649-.046v6.235h-1.649v-2.234h-5.747v7.821h7.621v-2.369h1.661z"
      fill="#977852" transform="matrix(1.02312 0 0 1.0107 -2.272 -2.20973)"/>
  </g>
</svg>
