<svg width="179" height="16" viewBox="0 0 179 16" fill="none" xmlns="http://www.w3.org/2000/svg">
  <path
    d="M9.12381 0.412354H8.83115C8.81615 0.752844 8.63511 0.900101 8.29556 0.900101C7.61364 0.900101 6.51058 0.0727997 5.34091 0.0727997C2.01293 0.0727997 0 3.35107 0 6.23914C0 9.14596 1.91631 12.0181 5.12891 12.0181C7.07805 12.0181 7.80871 11.0941 8.32742 11.0941C8.66885 11.0941 8.86396 11.5172 8.92868 11.7592H9.17258V7.78117H8.92868L8.83121 8.33365C8.60328 9.64965 7.38671 11.7263 5.29312 11.7263C3.44153 11.7263 2.72864 9.9892 2.72864 6.04402C2.72864 1.90656 3.70134 0.363571 5.34094 0.363571C7.19159 0.363571 8.57139 2.5866 8.83121 4.24403H9.12387L9.12381 0.412354Z"
    fill="#AB1727"/>
  <path
    d="M17.976 10.381H17.688C17.688 10.7984 17.5117 11.2787 17.1271 11.2787C16.8392 11.2787 16.7604 10.9748 16.7604 10.4786V6.79414C16.7604 4.96882 15.0458 4.51953 13.3968 4.51953C11.7956 4.51953 10.626 5.30557 10.626 6.20135C10.626 6.76321 10.9458 7.24251 11.6662 7.24251C12.2749 7.24251 12.6436 6.84293 12.6436 6.28107C12.6436 5.5138 11.8444 5.5607 11.8266 5.28868C11.8125 4.936 12.7402 4.80937 13.2852 4.80937C14.4848 4.80937 14.6462 5.39937 14.6462 6.36174V7.70589L13.076 7.83438C11.6202 7.94694 10.0341 8.33152 10.0341 9.99644C10.0341 11.3903 11.2825 11.9521 12.516 11.9521C13.1398 11.9521 14.2447 11.7102 14.6621 10.9429C14.9501 11.6145 15.5429 11.9521 16.2623 11.9521C17.3035 11.9521 17.976 11.3265 17.976 10.381ZM14.6462 9.85387C14.6143 10.7027 14.1321 11.47 13.3808 11.47C12.2918 11.47 12.2449 10.4786 12.2449 9.64565C12.2449 8.79489 12.3396 8.2349 13.3808 8.12328L14.6462 7.99478V9.85387Z"
    fill="#AB1727"/>
  <path
    d="M18.0663 11.7588H22.8556V11.4699H21.382V7.38309C21.382 6.15057 21.7666 5.28574 22.7759 4.83644H22.8397C22.5676 5.12441 22.4551 5.37954 22.4551 5.78006C22.4551 6.4057 22.9194 6.82216 23.5441 6.82216C24.3133 6.82216 24.7616 6.26406 24.7616 5.65343C24.7616 4.88334 24.2485 4.41904 23.4963 4.41904C22.4711 4.41904 21.686 5.12441 21.3821 5.92545H21.3502V4.29147C21.0134 4.707 19.8288 4.707 19.1722 4.707H18.0663V4.99402H19.1722V11.4699H18.0663V11.7588Z"
    fill="#AB1727"/>
  <path
    d="M25.0118 11.7588H29.2703V11.4699H28.3258V7.07918C28.3258 6.26407 29.1268 5.09251 30.0226 5.09251C30.4869 5.09251 30.9691 5.28574 30.9691 6.4057V11.4699H30.0554V11.7588H34.282V11.4699H33.1771V6.99944C33.1771 5.26886 32.4407 4.51566 30.9193 4.51566C29.8481 4.51566 28.7901 5.07563 28.3577 6.00424H28.3257V4.29147C27.989 4.707 26.8062 4.707 26.1487 4.707H25.0118V4.99402H26.1168V11.4699H25.0118V11.7588Z"
    fill="#AB1727"/>
  <path
    d="M36.6154 7.88409H41.0361C41.0202 6.15444 39.4181 4.48951 37.7363 4.51953C35.8481 4.51953 34.2123 6.15445 34.2123 8.31557C34.2123 10.3979 35.7337 11.9521 37.785 11.9521C39.7548 11.9521 40.7322 10.7337 41.084 9.14757H40.796C40.4443 10.638 39.5147 11.5666 38.2653 11.5666C36.7758 11.5666 36.6154 10.3172 36.6154 9.22916V7.88409ZM36.6154 7.59425V6.21822C36.6154 5.14423 37.0807 4.80937 37.6247 4.80937C38.392 4.80937 38.6339 5.33651 38.6339 6.21822V7.59425H36.6154Z"
    fill="#AB1727"/>
  <path
    d="M48.9882 5.24139C48.9882 4.67953 48.3804 4.39252 47.8992 4.39252C47.3721 4.39252 46.9716 4.74519 46.6658 5.09694C46.2005 4.76114 45.5617 4.51915 44.665 4.51915C43.32 4.51915 41.8773 5.39992 41.8773 6.85849C41.8773 7.73832 42.3585 8.42679 43.2074 8.81137V8.84227C42.5827 8.92197 41.6053 9.35535 41.6053 10.6845C41.6053 11.4836 41.9739 12.0933 42.6465 12.2866V12.3175C42.0058 12.4919 41.2695 13.1326 41.2695 13.9017C41.2695 15.0864 42.6634 16 44.4409 16C46.6658 16 48.1243 14.4945 48.1243 12.5416C48.1243 10.9874 47.3552 10.2839 45.7859 10.3158H43.1268C42.7263 10.3158 42.1822 10.2998 42.1822 9.86839C42.1822 9.46693 42.8716 9.03545 43.4794 9.03545C43.6558 9.03545 43.8312 9.08324 44.0085 9.13014C44.1998 9.19484 44.408 9.22775 44.665 9.22775C46.042 9.22775 47.5146 8.44171 47.5146 6.92123C47.5146 6.40909 47.2754 5.68965 46.8271 5.30508C47.115 5.01712 47.2595 4.6635 47.8842 4.5847V4.61661C47.5475 4.79201 47.4518 5.00023 47.4518 5.32196C47.4518 5.68965 47.7079 6.05829 48.1872 6.05829C48.7012 6.05829 48.9882 5.67286 48.9882 5.24139ZM42.9035 12.3334H45.4173C47.0184 12.3334 47.5475 12.4769 47.5475 13.4543C47.5475 14.623 46.1067 15.7111 44.4887 15.7111C43.047 15.7111 42.2638 14.7347 42.23 13.9674C42.23 13.262 42.4702 12.7977 42.9035 12.3334ZM45.6902 6.8584C45.6733 8.82723 45.2569 8.93884 44.681 8.93884C44.0403 8.93884 43.7036 8.73061 43.7036 6.80867C43.7036 5.51331 43.848 4.80888 44.681 4.80888C45.4332 4.80888 45.6734 5.01713 45.6902 6.8584Z"
    fill="#AB1727"/>
  <path
    d="M49.2383 11.7588H53.6619V11.4699H52.556V4.29147C52.2192 4.707 51.0327 4.707 50.377 4.707H49.2383V4.99402H50.3433V11.4699H49.2383V11.7588Z"
    fill="#AB1727"/>
  <path
    d="M50.3064 2.22969C50.3064 2.86471 50.8138 3.37402 51.4498 3.37402C52.0857 3.37402 52.5932 2.86471 52.5932 2.22969C52.5932 1.59467 52.0857 1.08722 51.4498 1.08722C50.8138 1.08722 50.3064 1.59467 50.3064 2.22969Z"
    fill="#AB1727"/>
  <path
    d="M56.064 7.88409H60.4828C60.4687 6.15444 58.8658 4.48951 57.184 4.51953C55.2948 4.51953 53.6599 6.15445 53.6599 8.31557C53.6599 10.3979 55.1842 11.9521 57.2318 11.9521C59.2025 11.9521 60.1808 10.7337 60.5316 9.14757H60.2437C59.8919 10.638 58.9633 11.5666 57.713 11.5666C56.2244 11.5666 56.064 10.3172 56.064 9.22916V7.88409ZM56.064 7.59425V6.21822C56.064 5.14423 56.5283 4.80937 57.0732 4.80937C57.8415 4.80937 58.0816 5.33651 58.0816 6.21822V7.59425H56.064Z"
    fill="#AB1727"/>
  <path
    d="M63.2872 11.7588H66.3928V11.4708H66.1686C65.3038 11.4708 64.968 11.2467 64.968 9.94942V0.872513H65.0009L68.8259 11.7588H69.2593L72.9887 1.0648H73.0206V11.4708H71.6427V11.7588H76.7182V11.4708H75.5176V0.775909H76.7182V0.48793H72.8602L70.1541 8.22165H70.1223L67.4649 0.48793H63.3669V0.775909H64.5825V10.0948C64.5825 10.7833 64.423 11.4708 63.3509 11.4708H63.2871L63.2872 11.7588Z"
    fill="#AB1727"/>
  <path
    d="M78.9604 7.88409H83.3802C83.3652 6.15444 81.7631 4.48951 80.0813 4.51953C78.1922 4.51953 76.5573 6.15445 76.5573 8.31557C76.5573 10.3979 78.0796 11.9521 80.131 11.9521C82.0989 11.9521 83.0781 10.7337 83.429 9.14757H83.141C82.7902 10.638 81.8606 11.5666 80.6103 11.5666C79.1198 11.5666 78.9604 10.3172 78.9604 9.22916V7.88409ZM78.9604 7.59425V6.21822C78.9604 5.14423 79.4247 4.80937 79.9697 4.80937C80.7388 4.80937 80.9789 5.33651 80.9789 6.21822V7.59425H78.9604Z"
    fill="#AB1727"/>
  <path
    d="M83.4227 11.7588H87.8463V11.4708H86.7404V0.000183105C86.4515 0.480433 85.5698 0.480438 84.432 0.480438H83.4227V0.769333H84.5295V11.4708H83.4227V11.7588Z"
    fill="#AB1727"/>
  <path
    d="M88.1268 11.7588H92.5504V11.4708H91.4454V0.000183105C91.1556 0.480433 90.2749 0.480438 89.1371 0.480438H88.1268V0.769333H89.2318V11.4708H88.1268V11.7588Z"
    fill="#AB1727"/>
  <path
    d="M99.9908 8.23489C99.9908 6.04187 98.294 4.51953 96.1797 4.51953C94.0665 4.51953 92.3678 6.04187 92.3678 8.23489C92.3678 10.4298 94.0665 11.9521 96.1797 11.9521C98.294 11.9521 99.9908 10.4298 99.9908 8.23489ZM97.492 9.96455C97.492 11.1671 96.9967 11.6623 96.1797 11.6623C95.3637 11.6623 94.8666 11.1671 94.8666 9.96455V6.50525C94.8666 5.30556 95.3637 4.80937 96.1797 4.80937C96.9967 4.80937 97.492 5.30556 97.492 6.50525V9.96455Z"
    fill="#AB1727"/>
  <path
    d="M100 11.7588H104.26V11.4699H103.316V7.07918C103.316 6.26407 104.117 5.09251 105.014 5.09251C105.477 5.09251 105.959 5.28574 105.959 6.4057V11.4699H105.044V11.7588H109.273V11.4699H108.167V6.99944C108.167 5.26886 107.431 4.51566 105.91 4.51566C104.838 4.51566 103.781 5.07563 103.347 6.00424H103.316V4.29147C102.981 4.707 101.795 4.707 101.138 4.707H100.001V4.99402H101.106V11.4699H100.001L100 11.7588Z"
    fill="#AB1727"/>
  <path
    d="M111.504 0.775726H112.753V8.02917C112.753 10.5102 114.464 12.0156 117.075 12.0156C120.021 12.0156 121.301 10.4614 121.301 8.10703V2.12079C121.301 1.19218 121.557 0.775726 122.134 0.775726H122.55V0.487747H119.381V0.775726H119.845C120.662 0.775726 120.918 1.19218 120.918 2.12079V8.20551C120.918 10.3807 119.604 11.4378 118.051 11.4378C115.713 11.4378 115.25 9.8695 115.25 7.82094V0.775726H116.546V0.487747H111.504V0.775726Z"
    fill="#AB1727"/>
  <path
    d="M121.927 11.7588H126.186V11.4699H125.242V7.07918C125.242 6.26407 126.04 5.09251 126.937 5.09251C127.403 5.09251 127.883 5.28574 127.883 6.4057V11.4699H126.971V11.7588H131.198V11.4699H130.094V6.99944C130.094 5.26886 129.356 4.51566 127.836 4.51566C126.764 4.51566 125.706 5.07563 125.274 6.00424H125.242V4.29147C124.905 4.707 123.721 4.707 123.062 4.707H121.927V4.99402H123.03V11.4699H121.927V11.7588Z"
    fill="#AB1727"/>
  <path
    d="M131.431 11.7588H135.855V11.4699H134.75V4.29147C134.412 4.707 133.228 4.707 132.569 4.707H131.431V4.99402H132.539V11.4699H131.431V11.7588Z"
    fill="#AB1727"/>
  <path
    d="M132.499 2.22969C132.499 2.86471 133.009 3.37402 133.645 3.37402C134.279 3.37402 134.786 2.86471 134.786 2.22969C134.786 1.59467 134.279 1.08722 133.645 1.08722C133.009 1.08722 132.499 1.59467 132.499 2.22969Z"
    fill="#AB1727"/>
  <path
    d="M139.099 11.9521H139.532L141.901 6.34579C142.302 5.44907 142.637 5.01667 143.006 5.00072H143.151V4.71181H140.653V5.00072H140.958C141.422 5.00072 141.694 5.17612 141.694 5.59258C141.694 5.85052 141.614 6.20134 141.422 6.6497L140.333 9.21228L138.459 5.00072H139.42V4.71181H135.401V5.00072H136.089L139.099 11.9521Z"
    fill="#AB1727"/>
  <path
    d="M144.908 7.88409H149.328C149.313 6.15444 147.711 4.48951 146.03 4.51953C144.139 4.51953 142.505 6.15445 142.505 8.31557C142.505 10.3979 144.028 11.9521 146.079 11.9521C148.048 11.9521 149.024 10.7337 149.377 9.14757H149.091C148.736 10.638 147.809 11.5666 146.559 11.5666C145.069 11.5666 145.018 10.3172 145.018 9.22916L144.908 7.88409ZM144.908 7.59425V6.21822C144.908 5.14423 145.373 4.80937 145.918 4.80937C146.686 4.80937 146.925 5.33651 146.925 6.21822V7.59425H144.908Z"
    fill="#AB1727"/>
  <path
    d="M149.366 11.7588H154.154V11.4699H152.682V7.38309C152.682 6.15057 153.066 5.28574 154.075 4.83644H154.139C153.867 5.12441 153.755 5.37954 153.755 5.78006C153.755 6.4057 154.218 6.82216 154.844 6.82216C155.613 6.82216 156.061 6.26406 156.061 5.65343C156.061 4.88334 155.549 4.41904 154.795 4.41904C153.771 4.41904 152.985 5.12441 152.682 5.92545H152.65V4.29147C152.313 4.707 151.128 4.707 150.472 4.707H149.366V4.99402H150.472V11.4699H149.366V11.7588Z"
    fill="#AB1727"/>
  <path
    d="M156.409 11.9521H156.698C156.779 11.6942 157.035 11.5666 157.355 11.5666C157.771 11.5666 158.267 11.9521 159.165 11.9521C160.687 11.9521 161.727 10.638 161.727 9.32484C161.727 7.37101 160.383 7.22656 158.668 6.98643C157.771 6.85793 157.211 6.71349 157.211 6.00812C157.211 5.25586 157.868 4.80937 158.732 4.80937C159.933 4.80937 160.575 5.75299 160.976 6.79416H161.231L161.135 4.51953H160.894C160.894 4.71181 160.704 4.87221 160.398 4.87221C159.885 4.87221 159.469 4.51953 158.732 4.51953C157.131 4.51953 156.347 5.88243 156.347 6.90671C156.347 8.9731 157.915 9.14756 159.132 9.29201C160.287 9.43739 160.767 9.54808 160.767 10.2853C160.767 11.1351 160.063 11.6623 159.197 11.6623C157.98 11.6623 156.987 10.4298 156.698 9.26105H156.409V11.9521Z"
    fill="#AB1727"/>
  <path
    d="M162.01 11.7588H166.432V11.4699H165.328V4.29147C164.991 4.707 163.806 4.707 163.149 4.707H162.01V4.99402H163.117V11.4699H162.01V11.7588Z"
    fill="#AB1727"/>
  <path
    d="M163.08 2.22969C163.08 2.86471 163.586 3.37402 164.222 3.37402C164.859 3.37402 165.366 2.86471 165.366 2.22969C165.366 1.59467 164.859 1.08722 164.222 1.08722C163.586 1.08722 163.08 1.59467 163.08 2.22969Z"
    fill="#AB1727"/>
  <path
    d="M167.067 5.00117V10.1254C167.067 11.6468 168.38 11.9517 168.828 11.9517C169.806 11.9517 170.462 11.5511 170.959 10.7182L170.752 10.6057C170.559 10.8936 170.301 11.2791 169.901 11.2791C169.486 11.2791 169.277 10.9743 169.277 10.4471V5.00117H170.752V4.71416H169.277V1.2708H168.989C168.989 2.96856 167.835 4.71416 166.217 4.71416V5.00117H167.067Z"
    fill="#AB1727"/>
  <path
    d="M170.698 5.00035H171.369L174.443 12.1244L174.348 12.7641C174.284 13.2293 173.963 15.0556 173.435 15.2141V15.1672C173.498 14.9421 173.515 14.7676 173.515 14.6232C173.515 14.0782 173.132 13.6617 172.457 13.6617C171.754 13.6617 171.402 14.1429 171.402 14.7507C171.402 15.4073 172.011 15.8726 172.713 15.8726C173.98 15.8726 174.3 14.4778 174.443 13.8062L174.876 11.8533L175.709 9.7719L177.294 6.20003C177.647 5.38586 177.966 5.00035 178.319 5.00035H178.447V4.71146H175.95V5.00035H176.286C176.797 5.00035 177.023 5.28925 177.023 5.56126C177.023 5.87924 176.813 6.40919 176.558 7.01701L175.63 9.21097L173.756 5.00035H174.813V4.71146H170.698L170.698 5.00035Z"
    fill="#AB1727"/>
</svg>
