<svg width="337" height="210" viewBox="0 0 337 210" fill="none" xmlns="http://www.w3.org/2000/svg">
<path d="M0 12C0 5.37258 5.37258 0 12 0H325C331.627 0 337 5.37258 337 12V198C337 204.627 331.627 210 325 210H12C5.37258 210 0 204.627 0 198V12Z" fill="white"/>
<g clip-path="url(#clip0_353_2928)">
<mask id="mask0_353_2928" style="mask-type:luminance" maskUnits="userSpaceOnUse" x="23" y="83" width="290" height="44">
<path d="M312.596 83.5H23.5V126.5H312.596V83.5Z" fill="white"/>
</mask>
<g mask="url(#mask0_353_2928)">
<path d="M62.338 105.355C60.2875 103.557 59.7432 101.217 59.7432 99.1899C59.7432 97.7685 60.1826 95.303 62.1913 93.4639C63.6978 92.0845 65.686 91.2485 68.8038 91.2485C70.1014 91.2485 70.8755 91.332 71.8381 91.4579C72.6331 91.5622 73.3029 91.75 73.9305 91.813C74.161 91.8338 74.2443 91.9382 74.2443 92.0637C74.2443 92.2307 74.1816 92.4815 74.14 93.2132C74.098 93.9029 74.1186 95.052 74.0773 95.47C74.0561 95.7833 74.0146 95.9507 73.8259 95.9507C73.6586 95.9507 73.6166 95.7833 73.6166 95.4909C73.5958 94.8428 73.3238 94.1116 72.8008 93.5683C72.1101 92.8368 70.4778 92.2727 68.5528 92.2727C66.7323 92.2727 65.5394 92.7322 64.6185 93.5683C63.0911 94.9684 62.6932 96.9539 62.6932 98.9811C62.6932 103.954 66.4808 106.421 69.2849 106.421C71.1474 106.421 72.2774 106.211 73.1146 105.25C73.4702 104.854 73.7422 104.248 73.8259 103.871C73.8888 103.537 73.9304 103.453 74.098 103.453C74.2442 103.453 74.2866 103.6 74.2866 103.766C74.2866 104.017 74.0354 105.835 73.8259 106.546C73.7213 106.901 73.6375 107.005 73.2817 107.152C72.4447 107.486 70.8546 107.633 69.5153 107.633C66.6486 107.633 64.242 107.006 62.338 105.355Z" fill="#093552" stroke="#093552" stroke-width="0.12804"/>
<path d="M76.9229 100.721C76.9229 97.7305 78.9014 93.8665 84.1542 93.8665C88.5139 93.8665 91.2277 96.4017 91.2277 100.406C91.2277 104.41 88.4262 107.575 83.9791 107.575C78.9541 107.575 76.9229 103.816 76.9229 100.721ZM88.7766 101.053C88.7766 97.1361 86.5181 94.7058 83.6465 94.7058C81.633 94.7058 79.3393 95.8252 79.3393 100.179C79.3393 103.816 81.3533 106.701 84.7146 106.701C85.9401 106.701 88.7766 106.106 88.7766 101.053Z" fill="#093552" stroke="#093552" stroke-width="0.12804"/>
<path d="M97.4991 102.26C97.4991 104.498 97.4991 105.704 97.8672 106.019C98.1647 106.281 98.6198 106.404 99.9857 106.404C100.914 106.404 101.596 106.387 102.034 105.914C102.244 105.687 102.454 105.198 102.489 104.865C102.507 104.708 102.542 104.602 102.682 104.602C102.805 104.602 102.822 104.689 102.822 104.9C102.822 105.092 102.699 106.404 102.559 106.911C102.454 107.295 102.367 107.383 101.456 107.383C98.9352 107.383 97.7796 107.278 96.3616 107.278C95.9586 107.278 94.8555 107.331 94.155 107.331C93.9275 107.331 93.805 107.278 93.805 107.156C93.805 107.068 93.875 107.016 94.0854 107.016C94.3476 107.016 94.5577 106.981 94.7151 106.946C95.0655 106.876 95.1531 106.492 95.2233 105.985C95.3106 105.25 95.3106 103.869 95.3106 102.26V99.1825C95.3106 96.5244 95.3106 96.0346 95.2755 95.4756C95.2408 94.8805 95.1008 94.6011 94.5229 94.4786C94.3826 94.4436 94.1729 94.4261 93.9451 94.4261C93.7527 94.4261 93.6475 94.3911 93.6475 94.2689C93.6475 94.1466 93.77 94.1116 94.0329 94.1116C94.8555 94.1116 95.9586 94.164 96.4312 94.164C96.8515 94.164 98.1298 94.1116 98.8125 94.1116C99.0575 94.1116 99.1803 94.1466 99.1803 94.2689C99.1803 94.3911 99.0753 94.4261 98.8652 94.4261C98.6726 94.4261 98.3922 94.4436 98.1826 94.4786C97.7096 94.566 97.5696 94.8632 97.5347 95.4756C97.4993 96.0345 97.4993 96.5244 97.4993 99.1825L97.4991 102.26Z" fill="#093552" stroke="#093552" stroke-width="0.12804"/>
<path d="M106.196 99.1826C106.196 96.5245 106.196 96.0348 106.161 95.4758C106.126 94.8806 105.986 94.6013 105.408 94.4788C105.268 94.4438 104.97 94.4262 104.725 94.4262C104.533 94.4262 104.428 94.3912 104.428 94.2691C104.428 94.1467 104.55 94.1117 104.813 94.1117C105.741 94.1117 106.844 94.1641 107.369 94.1641C107.789 94.1641 108.892 94.1117 109.522 94.1117C109.785 94.1117 109.908 94.1467 109.908 94.2691C109.908 94.3912 109.803 94.4262 109.628 94.4262C109.435 94.4262 109.33 94.4438 109.12 94.4788C108.647 94.5661 108.507 94.8634 108.472 95.4758C108.437 96.0346 108.437 96.5245 108.437 99.1826V101.63C108.437 104.166 108.945 105.232 109.802 105.931C110.59 106.579 111.396 106.648 111.991 106.648C112.762 106.648 113.707 106.404 114.407 105.704C115.37 104.743 115.423 103.169 115.423 101.368V99.1825C115.423 96.5244 115.423 96.0346 115.388 95.4756C115.353 94.8805 115.213 94.6011 114.635 94.4786C114.495 94.4436 114.197 94.4261 114.005 94.4261C113.812 94.4261 113.707 94.3911 113.707 94.2689C113.707 94.1466 113.83 94.1116 114.075 94.1116C114.968 94.1116 116.071 94.164 116.088 94.164C116.298 94.164 117.402 94.1116 118.084 94.1116C118.33 94.1116 118.452 94.1466 118.452 94.2689C118.452 94.3911 118.347 94.4261 118.137 94.4261C117.944 94.4261 117.839 94.4436 117.629 94.4786C117.156 94.566 117.016 94.8632 116.981 95.4756C116.946 96.0345 116.946 96.5244 116.946 99.1825V101.054C116.946 102.994 116.753 105.057 115.283 106.317C114.04 107.383 112.779 107.575 111.641 107.575C110.713 107.575 109.032 107.523 107.754 106.369C106.861 105.564 106.196 104.271 106.196 101.735L106.196 99.1826Z" fill="#093552" stroke="#093552" stroke-width="0.12804"/>
<path d="M122.656 94.1817C122.708 93.8845 122.813 93.7268 122.953 93.7268C123.093 93.7268 123.199 93.8145 123.426 94.2693L128.206 104.131L132.968 94.1469C133.091 93.8671 133.196 93.727 133.354 93.727C133.511 93.727 133.616 93.9022 133.668 94.2694L135.262 105.075C135.42 106.177 135.594 106.684 136.12 106.842C136.627 106.999 136.978 107.017 137.205 107.017C137.363 107.017 137.486 107.034 137.486 107.139C137.486 107.278 137.276 107.331 137.03 107.331C136.593 107.331 134.176 107.278 133.476 107.226C133.073 107.191 132.968 107.139 132.968 107.034C132.968 106.946 133.039 106.893 133.161 106.842C133.266 106.806 133.318 106.579 133.248 106.089L132.198 98.3954H132.128L128.311 106.334C127.908 107.156 127.821 107.313 127.663 107.313C127.506 107.313 127.331 106.964 127.05 106.439C126.63 105.635 125.247 102.959 125.037 102.47C124.88 102.103 123.829 99.9001 123.216 98.5884H123.146L122.236 105.548C122.201 105.862 122.183 106.089 122.183 106.369C122.183 106.702 122.411 106.859 122.708 106.929C123.024 106.999 123.269 107.017 123.444 107.017C123.584 107.017 123.706 107.051 123.706 107.139C123.706 107.296 123.549 107.331 123.286 107.331C122.551 107.331 121.763 107.278 121.448 107.278C121.115 107.278 120.275 107.331 119.714 107.331C119.539 107.331 119.399 107.296 119.399 107.139C119.399 107.051 119.504 107.017 119.68 107.017C119.82 107.017 119.942 107.017 120.205 106.964C120.695 106.859 120.835 106.176 120.923 105.583L122.656 94.1817Z" fill="#093552" stroke="#093552" stroke-width="0.12804"/>
<path d="M141.337 99.1825C141.337 96.5244 141.337 96.0346 141.302 95.4756C141.267 94.8805 141.127 94.6011 140.549 94.4786C140.409 94.4436 140.111 94.4261 139.866 94.4261C139.674 94.4261 139.568 94.3911 139.568 94.2689C139.568 94.1466 139.691 94.1116 139.953 94.1116C140.881 94.1116 141.984 94.164 142.334 94.164C143.192 94.164 143.875 94.1116 144.471 94.1116C147.639 94.1116 148.2 95.8075 148.2 96.7343C148.2 98.1682 147.377 99.0248 146.414 99.7944C147.85 100.284 149.6 101.525 149.6 103.571C149.6 105.442 148.147 107.383 144.926 107.383C144.506 107.383 142.912 107.278 142.387 107.278C141.984 107.278 140.881 107.331 140.181 107.331C139.953 107.331 139.831 107.278 139.831 107.156C139.831 107.068 139.901 107.016 140.111 107.016C140.374 107.016 140.584 106.981 140.741 106.946C141.091 106.876 141.179 106.491 141.249 105.984C141.336 105.25 141.336 103.869 141.336 102.26L141.337 99.1825ZM143.438 99.4797C143.438 99.6192 143.49 99.6544 143.56 99.6718C143.718 99.7064 143.981 99.7243 144.383 99.7243C144.961 99.7243 145.346 99.6544 145.644 99.3922C146.099 99.0248 146.362 98.3949 146.362 97.5388C146.362 96.3671 145.679 94.8286 144.173 94.8286C143.928 94.8286 143.77 94.8286 143.595 94.8636C143.473 94.8985 143.438 94.9683 143.438 95.161L143.438 99.4797ZM145.749 100.879C145.382 100.616 144.979 100.494 144.296 100.459C143.981 100.441 143.806 100.441 143.543 100.441C143.473 100.441 143.438 100.476 143.438 100.564V104.708C143.438 105.862 143.49 106.159 144.051 106.387C144.523 106.579 144.926 106.596 145.329 106.596C146.117 106.596 147.447 106.176 147.447 104.358C147.448 103.274 147.08 101.805 145.749 100.879Z" fill="#093552" stroke="#093552" stroke-width="0.12804"/>
<path d="M153.487 99.1825C153.487 96.5244 153.487 96.0346 153.452 95.4756C153.418 94.8805 153.243 94.5834 152.857 94.496C152.664 94.4436 152.438 94.4261 152.227 94.4261C152.051 94.4261 151.946 94.3911 151.946 94.2512C151.946 94.1466 152.087 94.1116 152.367 94.1116C153.032 94.1116 154.136 94.164 154.642 94.164C155.081 94.164 156.114 94.1116 156.78 94.1116C157.007 94.1116 157.147 94.1466 157.147 94.2512C157.147 94.3911 157.042 94.4261 156.866 94.4261C156.691 94.4261 156.552 94.4436 156.342 94.4786C155.868 94.566 155.729 94.8632 155.693 95.4756C155.658 96.0345 155.658 96.5244 155.658 99.1825V102.26C155.658 103.956 155.658 105.337 155.729 106.089C155.781 106.561 155.904 106.876 156.429 106.945C156.674 106.981 157.06 107.016 157.322 107.016C157.515 107.016 157.602 107.068 157.602 107.156C157.602 107.278 157.463 107.33 157.269 107.33C156.114 107.33 155.011 107.278 154.537 107.278C154.136 107.278 153.032 107.33 152.331 107.33C152.105 107.33 151.982 107.278 151.982 107.156C151.982 107.068 152.051 107.016 152.262 107.016C152.525 107.016 152.734 106.981 152.892 106.945C153.242 106.876 153.348 106.578 153.4 106.071C153.487 105.337 153.487 103.956 153.487 102.259V99.1825Z" fill="#093552" stroke="#093552" stroke-width="0.12804"/>
<path d="M164.142 102.766C164.054 102.766 164.018 102.801 163.984 102.906L163.038 105.407C162.863 105.844 162.775 106.263 162.775 106.473C162.775 106.788 162.933 107.016 163.476 107.016H163.74C163.949 107.016 164.001 107.05 164.001 107.156C164.001 107.295 163.897 107.33 163.704 107.33C163.143 107.33 162.391 107.277 161.848 107.277C161.655 107.277 160.693 107.33 159.782 107.33C159.554 107.33 159.449 107.295 159.449 107.156C159.449 107.05 159.519 107.016 159.659 107.016C159.818 107.016 160.062 106.998 160.201 106.98C161.008 106.875 161.34 106.281 161.691 105.407L166.085 94.4257C166.295 93.9187 166.4 93.7261 166.575 93.7261C166.733 93.7261 166.837 93.8837 167.013 94.2859C167.432 95.2476 170.235 102.382 171.356 105.039C172.021 106.614 172.528 106.858 172.897 106.945C173.159 106.998 173.421 107.016 173.631 107.016C173.771 107.016 173.859 107.033 173.859 107.156C173.859 107.295 173.701 107.33 173.054 107.33C172.423 107.33 171.145 107.33 169.744 107.295C169.428 107.277 169.219 107.277 169.219 107.156C169.219 107.05 169.29 107.016 169.465 106.998C169.588 106.963 169.709 106.805 169.622 106.595L168.221 102.889C168.186 102.801 168.133 102.766 168.047 102.766L164.142 102.766ZM167.714 101.893C167.801 101.893 167.819 101.839 167.801 101.787L166.226 97.4682C166.208 97.3987 166.19 97.3109 166.138 97.3109C166.085 97.3109 166.05 97.3987 166.033 97.4682L164.422 101.77C164.403 101.839 164.422 101.893 164.492 101.893H167.714Z" fill="#093552" stroke="#093552" stroke-width="0.12804"/>
<path d="M182.9 97.6027C182.9 94.4257 182.9 93.8405 182.858 93.1722C182.816 92.4615 182.649 92.127 181.959 91.9808C181.79 91.939 181.436 91.9182 181.142 91.9182C180.912 91.9182 180.786 91.8764 180.786 91.73C180.786 91.5841 180.933 91.5417 181.246 91.5417C182.355 91.5417 183.675 91.6047 184.303 91.6047C184.804 91.6047 186.123 91.5417 186.876 91.5417C187.189 91.5417 187.337 91.5839 187.337 91.73C187.337 91.8764 187.21 91.9182 187.002 91.9182C186.771 91.9182 186.646 91.939 186.395 91.9808C185.829 92.0852 185.662 92.4405 185.62 93.1722C185.578 93.8405 185.578 94.4258 185.578 97.6027V100.528C185.578 103.558 186.185 104.833 187.21 105.669C188.153 106.443 189.115 106.526 189.827 106.526C190.747 106.526 191.877 106.234 192.714 105.398C193.865 104.248 193.927 102.367 193.927 100.215V97.6027C193.927 94.4257 193.927 93.8405 193.886 93.1722C193.845 92.4615 193.677 92.127 192.985 91.9808C192.818 91.939 192.462 91.9182 192.233 91.9182C192.002 91.9182 191.877 91.8764 191.877 91.73C191.877 91.5841 192.023 91.5417 192.316 91.5417C193.384 91.5417 194.702 91.6047 194.723 91.6047C194.975 91.6047 196.292 91.5417 197.108 91.5417C197.401 91.5417 197.547 91.5839 197.547 91.73C197.547 91.8764 197.423 91.9182 197.17 91.9182C196.941 91.9182 196.815 91.939 196.564 91.9808C195.999 92.0852 195.832 92.4405 195.79 93.1722C195.748 93.8405 195.748 94.4258 195.748 97.6027V99.8389C195.748 102.158 195.518 104.624 193.76 106.129C192.275 107.404 190.768 107.633 189.408 107.633C188.298 107.633 186.29 107.57 184.763 106.191C183.695 105.23 182.9 103.684 182.9 100.653V97.6027Z" fill="#093552" stroke="#093552" stroke-width="0.12804"/>
<path d="M201.828 104.952C201.863 106.316 202.09 106.77 202.441 106.893C202.738 106.998 203.07 107.016 203.351 107.016C203.544 107.016 203.649 107.05 203.649 107.156C203.649 107.295 203.492 107.33 203.246 107.33C202.108 107.33 201.407 107.278 201.075 107.278C200.917 107.278 200.094 107.33 199.184 107.33C198.957 107.33 198.8 107.313 198.8 107.156C198.8 107.05 198.904 107.016 199.078 107.016C199.306 107.016 199.622 106.998 199.867 106.928C200.322 106.788 200.392 106.281 200.409 104.76L200.568 94.4085C200.568 94.0588 200.62 93.814 200.794 93.814C200.988 93.814 201.145 94.0414 201.443 94.3564C201.653 94.5832 204.314 97.4336 206.87 99.9689C208.061 101.158 210.424 103.676 210.721 103.955H210.809L210.635 96.1046C210.618 95.0383 210.459 94.7059 210.04 94.531C209.777 94.426 209.356 94.426 209.112 94.426C208.9 94.426 208.831 94.3735 208.831 94.2689C208.831 94.1288 209.023 94.1116 209.285 94.1116C210.197 94.1116 211.037 94.1639 211.405 94.1639C211.598 94.1639 212.263 94.1116 213.121 94.1116C213.348 94.1116 213.523 94.1288 213.523 94.2689C213.523 94.3735 213.418 94.426 213.209 94.426C213.033 94.426 212.893 94.426 212.683 94.4786C212.193 94.6183 212.052 94.9856 212.035 95.9648L211.842 106.998C211.842 107.383 211.773 107.54 211.616 107.54C211.423 107.54 211.212 107.348 211.019 107.156C209.917 106.106 207.676 103.816 205.855 102.015C203.946 100.126 202.002 97.9407 201.687 97.6085H201.635L201.828 104.952Z" fill="#093552" stroke="#093552" stroke-width="0.12804"/>
<path d="M217.99 99.1825C217.99 96.5244 217.99 96.0346 217.956 95.4756C217.921 94.8805 217.745 94.5834 217.361 94.496C217.169 94.4436 216.939 94.4261 216.73 94.4261C216.556 94.4261 216.449 94.3911 216.449 94.2512C216.449 94.1466 216.591 94.1116 216.871 94.1116C217.536 94.1116 218.639 94.164 219.147 94.164C219.585 94.164 220.617 94.1116 221.283 94.1116C221.511 94.1116 221.65 94.1466 221.65 94.2512C221.65 94.3911 221.545 94.4261 221.37 94.4261C221.196 94.4261 221.055 94.4436 220.845 94.4786C220.372 94.566 220.232 94.8632 220.196 95.4756C220.161 96.0345 220.161 96.5244 220.161 99.1825V102.26C220.161 103.956 220.161 105.337 220.232 106.089C220.284 106.561 220.407 106.876 220.932 106.945C221.178 106.981 221.563 107.016 221.825 107.016C222.017 107.016 222.105 107.068 222.105 107.156C222.105 107.278 221.966 107.33 221.773 107.33C220.617 107.33 219.514 107.278 219.041 107.278C218.639 107.278 217.536 107.33 216.835 107.33C216.609 107.33 216.485 107.278 216.485 107.156C216.485 107.068 216.556 107.016 216.766 107.016C217.028 107.016 217.238 106.981 217.396 106.945C217.745 106.876 217.85 106.578 217.904 106.071C217.99 105.337 217.99 103.956 217.99 102.259V99.1825Z" fill="#093552" stroke="#093552" stroke-width="0.12804"/>
<path d="M225.68 95.8254C225.277 94.8636 224.98 94.6711 224.349 94.4962C224.085 94.4262 223.806 94.4262 223.666 94.4262C223.508 94.4262 223.456 94.3737 223.456 94.2691C223.456 94.129 223.649 94.1117 223.912 94.1117C224.839 94.1117 225.837 94.1641 226.45 94.1641C226.888 94.1641 227.728 94.1117 228.603 94.1117C228.814 94.1117 229.007 94.1467 229.007 94.2691C229.007 94.3912 228.901 94.4262 228.743 94.4262C228.463 94.4262 228.2 94.4438 228.061 94.5486C227.938 94.6363 227.886 94.7586 227.886 94.916C227.886 95.1432 228.044 95.6328 228.289 96.2624L231.3 104.2H231.37C232.122 102.277 234.399 96.647 234.819 95.4929C234.907 95.2656 234.976 95.0033 234.976 94.846C234.976 94.7061 234.907 94.5661 234.75 94.5138C234.539 94.4436 234.276 94.4261 234.049 94.4261C233.89 94.4261 233.752 94.4087 233.752 94.2863C233.752 94.1466 233.909 94.1116 234.242 94.1116C235.117 94.1116 235.851 94.164 236.079 94.164C236.377 94.164 237.2 94.1116 237.724 94.1116C237.952 94.1116 238.093 94.1466 238.093 94.2689C238.093 94.3911 237.988 94.4261 237.813 94.4261C237.638 94.4261 237.27 94.4261 236.954 94.6359C236.726 94.7931 236.464 95.0907 235.992 96.2096C235.309 97.8536 234.836 98.7969 233.89 100.948C232.77 103.501 231.947 105.407 231.562 106.281C231.107 107.295 231.002 107.575 230.757 107.575C230.529 107.575 230.424 107.33 230.092 106.508L225.68 95.8254Z" fill="#093552" stroke="#093552" stroke-width="0.12804"/>
<path d="M240.868 99.1825C240.868 96.5243 240.868 96.0347 240.834 95.4757C240.799 94.8805 240.659 94.6011 240.081 94.4786C239.941 94.4437 239.643 94.4261 239.397 94.4261C239.206 94.4261 239.101 94.3911 239.101 94.2689C239.101 94.1466 239.223 94.1116 239.486 94.1116C240.413 94.1116 241.517 94.164 242.007 94.164C242.568 94.164 246.052 94.164 246.384 94.1466C246.717 94.1116 246.996 94.0764 247.137 94.0416C247.224 94.0239 247.329 93.9717 247.417 93.9717C247.504 93.9717 247.522 94.0416 247.522 94.1288C247.522 94.2512 247.435 94.4612 247.383 95.2658C247.364 95.4402 247.329 96.2099 247.294 96.4196C247.276 96.507 247.242 96.6121 247.121 96.6121C246.996 96.6121 246.962 96.5246 246.962 96.367C246.962 96.2447 246.945 95.9473 246.857 95.7374C246.734 95.4231 246.558 95.2131 245.683 95.1081C245.386 95.0733 243.547 95.0385 243.197 95.0385C243.11 95.0385 243.074 95.0909 243.074 95.2132V99.6373C243.074 99.7598 243.092 99.8294 243.197 99.8294C243.582 99.8294 245.597 99.8294 245.999 99.7946C246.419 99.7598 246.681 99.7063 246.839 99.5322C246.962 99.3923 247.032 99.3045 247.121 99.3045C247.189 99.3045 247.242 99.3401 247.242 99.4447C247.242 99.5492 247.155 99.8293 247.103 100.721C247.067 101.071 247.032 101.77 247.032 101.893C247.032 102.032 247.032 102.224 246.875 102.224C246.752 102.224 246.717 102.155 246.717 102.067C246.699 101.893 246.699 101.665 246.647 101.437C246.56 101.088 246.315 100.826 245.665 100.756C245.335 100.721 243.6 100.704 243.18 100.704C243.092 100.704 243.074 100.773 243.074 100.878V102.259C243.074 102.854 243.058 104.463 243.074 104.97C243.11 106.176 243.39 106.439 245.175 106.439C245.631 106.439 246.367 106.439 246.823 106.228C247.276 106.019 247.487 105.652 247.611 104.935C247.645 104.743 247.68 104.672 247.802 104.672C247.942 104.672 247.942 104.812 247.942 104.987C247.942 105.389 247.802 106.578 247.714 106.928C247.593 107.383 247.435 107.383 246.77 107.383C244.126 107.383 242.953 107.278 241.92 107.278C241.517 107.278 240.414 107.33 239.714 107.33C239.486 107.33 239.364 107.278 239.364 107.156C239.364 107.068 239.434 107.016 239.644 107.016C239.906 107.016 240.116 106.981 240.273 106.946C240.624 106.876 240.711 106.491 240.781 105.984C240.87 105.25 240.87 103.868 240.87 102.26V99.1825H240.868Z" fill="#093552" stroke="#093552" stroke-width="0.12804"/>
<path d="M252.897 99.1825C252.897 96.5244 252.897 96.0346 252.861 95.4756C252.827 94.8805 252.688 94.6011 252.109 94.4786C251.97 94.4436 251.672 94.4261 251.427 94.4261C251.234 94.4261 251.129 94.3911 251.129 94.2689C251.129 94.1466 251.252 94.1116 251.515 94.1116C252.442 94.1116 253.545 94.164 253.914 94.164C254.509 94.164 255.839 94.1116 256.382 94.1116C257.485 94.1116 258.658 94.2165 259.603 94.8634C260.094 95.1955 260.794 96.0874 260.794 97.2588C260.794 98.5528 260.251 99.7415 258.483 101.176C260.04 103.134 261.249 104.69 262.282 105.774C263.263 106.789 263.98 106.911 264.243 106.964C264.436 106.998 264.593 107.016 264.734 107.016C264.873 107.016 264.944 107.069 264.944 107.156C264.944 107.296 264.821 107.331 264.611 107.331H262.948C261.967 107.331 261.53 107.243 261.074 106.998C260.322 106.596 259.657 105.775 258.675 104.428C257.975 103.466 257.17 102.277 256.943 102.015C256.854 101.91 256.749 101.893 256.628 101.893L255.104 101.857C255.017 101.857 254.963 101.893 254.963 101.998V102.242C254.963 103.869 254.963 105.25 255.051 105.985C255.104 106.492 255.208 106.876 255.733 106.946C255.997 106.981 256.382 107.016 256.592 107.016C256.731 107.016 256.801 107.069 256.801 107.156C256.801 107.278 256.678 107.331 256.451 107.331C255.437 107.331 254.14 107.278 253.878 107.278C253.545 107.278 252.442 107.331 251.742 107.331C251.515 107.331 251.392 107.278 251.392 107.156C251.392 107.068 251.462 107.016 251.672 107.016C251.934 107.016 252.145 106.981 252.303 106.946C252.652 106.876 252.74 106.492 252.811 105.985C252.898 105.25 252.898 103.869 252.898 102.26V99.1825H252.897ZM254.963 100.564C254.963 100.756 254.999 100.826 255.121 100.879C255.489 101.001 256.015 101.054 256.451 101.054C257.152 101.054 257.38 100.983 257.695 100.756C258.219 100.371 258.727 99.5671 258.727 98.1329C258.727 95.65 257.082 94.9334 256.05 94.9334C255.611 94.9334 255.297 94.9508 255.121 95.0035C254.998 95.0385 254.963 95.1081 254.963 95.2482V100.564Z" fill="#093552" stroke="#093552" stroke-width="0.12804"/>
<path d="M266.223 107.121C265.944 106.999 265.892 106.911 265.892 106.527C265.892 105.564 265.961 104.516 265.979 104.236C265.997 103.973 266.05 103.782 266.189 103.782C266.347 103.782 266.365 103.938 266.365 104.079C266.365 104.306 266.435 104.673 266.522 104.97C266.907 106.264 267.941 106.736 269.025 106.736C270.601 106.736 271.371 105.67 271.371 104.744C271.371 103.886 271.109 103.065 269.655 101.946L268.85 101.316C266.925 99.8125 266.259 98.5882 266.259 97.1716C266.259 95.2485 267.87 93.8672 270.304 93.8672C271.441 93.8672 272.177 94.0419 272.633 94.1643C272.79 94.1992 272.877 94.2516 272.877 94.374C272.877 94.6014 272.807 95.1084 272.807 96.4724C272.807 96.8569 272.755 96.9971 272.615 96.9971C272.492 96.9971 272.44 96.8924 272.44 96.6823C272.44 96.5249 272.353 95.9829 271.985 95.5281C271.722 95.1959 271.214 94.6714 270.076 94.6714C268.78 94.6714 267.993 95.4235 267.993 96.4724C267.993 97.2765 268.395 97.8884 269.849 98.9902L270.339 99.3577C272.44 100.983 273.21 102.155 273.21 103.816C273.21 104.831 272.825 106.037 271.564 106.859C270.689 107.418 269.708 107.575 268.78 107.575C267.765 107.575 266.977 107.453 266.223 107.121Z" fill="#093552" stroke="#093552" stroke-width="0.12804"/>
<path d="M278.151 99.1825C278.151 96.5244 278.151 96.0346 278.114 95.4756C278.08 94.8805 277.905 94.5834 277.519 94.496C277.326 94.4436 277.099 94.4261 276.889 94.4261C276.713 94.4261 276.609 94.3911 276.609 94.2512C276.609 94.1466 276.749 94.1116 277.03 94.1116C277.695 94.1116 278.798 94.164 279.304 94.164C279.742 94.164 280.776 94.1116 281.441 94.1116C281.669 94.1116 281.809 94.1466 281.809 94.2512C281.809 94.3911 281.704 94.4261 281.528 94.4261C281.353 94.4261 281.213 94.4436 281.004 94.4786C280.531 94.566 280.391 94.8632 280.355 95.4756C280.32 96.0345 280.32 96.5244 280.32 99.1825V102.26C280.32 103.956 280.32 105.337 280.391 106.089C280.444 106.561 280.566 106.876 281.091 106.945C281.335 106.981 281.722 107.016 281.985 107.016C282.176 107.016 282.264 107.068 282.264 107.156C282.264 107.278 282.124 107.33 281.932 107.33C280.776 107.33 279.673 107.278 279.2 107.278C278.798 107.278 277.695 107.33 276.994 107.33C276.766 107.33 276.645 107.278 276.645 107.156C276.645 107.068 276.713 107.016 276.925 107.016C277.187 107.016 277.397 106.981 277.554 106.945C277.905 106.876 278.01 106.578 278.063 106.071C278.151 105.337 278.151 103.956 278.151 102.259V99.1825Z" fill="#093552" stroke="#093552" stroke-width="0.12804"/>
<path d="M290.11 95.0911L287.502 95.1611C286.486 95.1959 286.066 95.2831 285.803 95.6682C285.629 95.9305 285.541 96.14 285.506 96.2802C285.47 96.4199 285.418 96.49 285.312 96.49C285.19 96.49 285.156 96.4025 285.156 96.2102C285.156 95.9305 285.488 94.3393 285.524 94.1992C285.577 93.972 285.629 93.8672 285.732 93.8672C285.873 93.8672 286.048 94.0419 286.486 94.0769C286.994 94.1293 287.66 94.1643 288.237 94.1643H295.171C296.29 94.1643 296.711 93.9894 296.851 93.9894C296.974 93.9894 296.991 94.0945 296.991 94.3571C296.991 94.7238 296.939 95.9305 296.939 96.3853C296.921 96.5598 296.887 96.6649 296.782 96.6649C296.642 96.6649 296.606 96.5775 296.588 96.3153L296.571 96.1228C296.536 95.6684 296.064 95.1785 294.505 95.1435L292.299 95.0913V102.26C292.299 103.869 292.299 105.251 292.386 106.002C292.439 106.492 292.544 106.876 293.069 106.946C293.314 106.981 293.699 107.017 293.963 107.017C294.155 107.017 294.242 107.069 294.242 107.157C294.242 107.279 294.102 107.331 293.911 107.331C292.753 107.331 291.651 107.278 291.161 107.278C290.757 107.278 289.656 107.331 288.955 107.331C288.727 107.331 288.605 107.278 288.605 107.157C288.605 107.069 288.676 107.017 288.884 107.017C289.147 107.017 289.358 106.981 289.515 106.946C289.865 106.876 289.97 106.492 290.023 105.985C290.11 105.251 290.11 103.869 290.11 102.26V95.0911Z" fill="#093552" stroke="#093552" stroke-width="0.12804"/>
<path d="M304.633 102.802C304.633 101.858 304.458 101.474 304.232 100.967C304.109 100.687 301.762 96.8402 301.149 95.9308C300.712 95.2836 300.274 94.8468 299.941 94.6547C299.715 94.532 299.417 94.427 299.207 94.427C299.066 94.427 298.943 94.392 298.943 94.2699C298.943 94.1648 299.066 94.1125 299.276 94.1125C299.59 94.1125 300.905 94.1649 301.482 94.1649C301.85 94.1649 302.568 94.1125 303.357 94.1125C303.531 94.1125 303.619 94.1649 303.619 94.2699C303.619 94.3745 303.496 94.392 303.234 94.462C303.076 94.497 302.988 94.6369 302.988 94.7767C302.988 94.9167 303.076 95.1266 303.198 95.3713C303.444 95.896 305.894 100.11 306.176 100.6C306.35 100.18 308.556 96.3332 308.801 95.7909C308.977 95.4061 309.046 95.1089 309.046 94.8814C309.046 94.707 308.977 94.5147 308.679 94.4446C308.521 94.4096 308.364 94.3745 308.364 94.2699C308.364 94.1475 308.451 94.1125 308.662 94.1125C309.239 94.1125 309.8 94.1649 310.307 94.1649C310.693 94.1649 311.848 94.1125 312.181 94.1125C312.372 94.1125 312.496 94.1475 312.496 94.2521C312.496 94.3745 312.356 94.427 312.164 94.427C311.988 94.427 311.655 94.497 311.393 94.6369C311.025 94.8118 310.832 95.0215 310.448 95.4937C309.87 96.193 307.418 100.302 307.104 101.054C306.84 101.684 306.84 102.225 306.84 102.803V104.237C306.84 104.516 306.84 105.251 306.894 105.985C306.928 106.492 307.086 106.877 307.612 106.946C307.856 106.982 308.242 107.017 308.487 107.017C308.679 107.017 308.767 107.069 308.767 107.157C308.767 107.279 308.627 107.331 308.399 107.331C307.296 107.331 306.193 107.279 305.72 107.279C305.283 107.279 304.179 107.331 303.531 107.331C303.286 107.331 303.146 107.296 303.146 107.157C303.146 107.069 303.234 107.017 303.426 107.017C303.672 107.017 303.881 106.982 304.039 106.946C304.39 106.877 304.547 106.492 304.583 105.985C304.634 105.251 304.634 104.516 304.634 104.237L304.633 102.802Z" fill="#093552" stroke="#093552" stroke-width="0.12804"/>
<path d="M62.0987 120.869C62.0987 119.124 62.0987 118.802 62.0757 118.434C62.0528 118.044 61.9377 117.848 61.6849 117.791C61.5584 117.757 61.4088 117.745 61.2709 117.745C61.1559 117.745 61.0869 117.722 61.0869 117.63C61.0869 117.562 61.179 117.538 61.3629 117.538C61.8001 117.538 62.524 117.573 62.8577 117.573C63.1454 117.573 63.8238 117.538 64.2603 117.538C64.41 117.538 64.5021 117.562 64.5021 117.63C64.5021 117.722 64.4331 117.745 64.3182 117.745C64.2035 117.745 64.1111 117.756 63.9731 117.78C63.6626 117.837 63.5707 118.032 63.5479 118.434C63.5248 118.801 63.5248 119.123 63.5248 120.869V122.89C63.5248 124.003 63.5248 124.911 63.5707 125.405C63.6051 125.714 63.6855 125.922 64.0305 125.967C64.1914 125.99 64.4445 126.013 64.6167 126.013C64.7432 126.013 64.8009 126.048 64.8009 126.105C64.8009 126.185 64.7086 126.22 64.5822 126.22C63.8238 126.22 63.0989 126.185 62.7887 126.185C62.5242 126.185 61.8001 126.22 61.3398 126.22C61.1902 126.22 61.1102 126.185 61.1102 126.105C61.1102 126.048 61.1559 126.013 61.2943 126.013C61.4664 126.013 61.6045 125.99 61.7079 125.967C61.9379 125.922 62.0071 125.726 62.0415 125.392C62.0991 124.911 62.0991 124.003 62.0991 122.89L62.0987 120.869Z" fill="#093552" stroke="#093552" stroke-width="0.12804"/>
<path d="M68.5272 124.657C68.5501 125.553 68.6998 125.851 68.9298 125.932C69.1249 126.001 69.3434 126.012 69.5274 126.012C69.6539 126.012 69.7229 126.035 69.7229 126.104C69.7229 126.196 69.6196 126.219 69.4589 126.219C68.7112 126.219 68.2514 126.185 68.0329 126.185C67.9293 126.185 67.3891 126.219 66.7909 126.219C66.6414 126.219 66.5381 126.208 66.5381 126.104C66.5381 126.035 66.6071 126.012 66.7218 126.012C66.8715 126.012 67.0788 126.001 67.2398 125.955C67.5386 125.863 67.5846 125.53 67.596 124.531L67.6996 117.733C67.6996 117.503 67.734 117.342 67.849 117.342C67.9753 117.342 68.0789 117.492 68.2743 117.698C68.4123 117.848 70.1603 119.72 71.8386 121.385C72.6206 122.165 74.1729 123.819 74.3683 124.003H74.4258L74.3108 118.847C74.2996 118.146 74.196 117.928 73.92 117.814C73.7474 117.745 73.4714 117.745 73.3108 117.745C73.1724 117.745 73.1265 117.711 73.1265 117.642C73.1265 117.55 73.253 117.538 73.4255 117.538C74.0236 117.538 74.5753 117.573 74.8169 117.573C74.9435 117.573 75.3804 117.538 75.9438 117.538C76.0934 117.538 76.2083 117.55 76.2083 117.642C76.2083 117.711 76.1392 117.745 76.0011 117.745C75.8861 117.745 75.7943 117.745 75.656 117.779C75.3342 117.871 75.2421 118.112 75.2304 118.755L75.1041 126.001C75.1041 126.253 75.0581 126.357 74.9547 126.357C74.828 126.357 74.6905 126.231 74.5639 126.104C73.8394 125.415 72.3676 123.911 71.1718 122.729C69.9187 121.488 68.642 120.053 68.4352 119.835H68.4005L68.5272 124.657Z" fill="#093552" stroke="#093552" stroke-width="0.12804"/>
<path d="M84.9229 118.182L83.2096 118.227C82.5429 118.25 82.2668 118.307 82.0946 118.56C81.9796 118.732 81.922 118.87 81.899 118.962C81.8761 119.054 81.8416 119.1 81.7724 119.1C81.6921 119.1 81.6689 119.042 81.6689 118.917C81.6689 118.733 81.8873 117.687 81.9106 117.595C81.9453 117.446 81.9796 117.378 82.0487 117.378C82.1407 117.378 82.2555 117.492 82.543 117.515C82.8766 117.55 83.3135 117.573 83.6927 117.573H88.246C88.6139 117.573 88.8669 117.538 89.0394 117.515C89.2122 117.48 89.3038 117.458 89.3498 117.458C89.4304 117.458 89.4418 117.527 89.4418 117.698C89.4418 117.94 89.4074 118.733 89.4074 119.031C89.3961 119.145 89.3728 119.215 89.3039 119.215C89.2122 119.215 89.1892 119.158 89.1775 118.985L89.1659 118.859C89.1432 118.561 88.8325 118.238 87.8095 118.215L86.3606 118.182V122.89C86.3606 123.946 86.3606 124.852 86.418 125.347C86.4527 125.669 86.5213 125.921 86.8665 125.967C87.0275 125.99 87.2805 126.013 87.4525 126.013C87.5795 126.013 87.6369 126.047 87.6369 126.105C87.6369 126.185 87.5448 126.219 87.4184 126.219C86.6596 126.219 85.9351 126.185 85.6132 126.185C85.3488 126.185 84.6243 126.219 84.1645 126.219C84.0148 126.219 83.9344 126.185 83.9344 126.105C83.9344 126.047 83.9803 126.013 84.1184 126.013C84.2907 126.013 84.4289 125.99 84.5323 125.967C84.7623 125.921 84.8316 125.669 84.8659 125.335C84.9233 124.852 84.9233 123.946 84.9233 122.89L84.9229 118.182Z" fill="#093552" stroke="#093552" stroke-width="0.12804"/>
<path d="M98.0408 121.19C98.0753 121.19 98.1098 121.167 98.1098 121.109V120.869C98.1098 119.123 98.1098 118.801 98.0869 118.434C98.0637 118.043 97.9721 117.86 97.5926 117.78C97.5007 117.756 97.3053 117.745 97.1443 117.745C97.0177 117.745 96.9488 117.722 96.9488 117.642C96.9488 117.562 97.0291 117.538 97.1903 117.538C97.8113 117.538 98.5354 117.573 98.8459 117.573C99.122 117.573 99.8465 117.538 100.295 117.538C100.455 117.538 100.536 117.562 100.536 117.642C100.536 117.722 100.467 117.745 100.329 117.745C100.237 117.745 100.133 117.756 99.9959 117.78C99.6853 117.837 99.5932 118.032 99.5706 118.434C99.5474 118.801 99.5474 119.123 99.5474 120.869V122.89C99.5474 123.946 99.5474 124.853 99.6046 125.347C99.6393 125.669 99.7082 125.922 100.053 125.967C100.214 125.99 100.467 126.013 100.64 126.013C100.766 126.013 100.824 126.047 100.824 126.105C100.824 126.185 100.731 126.22 100.594 126.22C99.8465 126.22 99.122 126.185 98.8 126.185C98.5354 126.185 97.8113 126.22 97.3625 126.22C97.2015 126.22 97.1213 126.185 97.1213 126.105C97.1213 126.047 97.167 126.013 97.305 126.013C97.4775 126.013 97.6154 125.99 97.7189 125.967C97.9491 125.922 98.0063 125.669 98.0524 125.336C98.1097 124.853 98.1097 123.946 98.1097 122.89V121.879C98.1097 121.833 98.0751 121.81 98.0406 121.81H93.6483C93.614 121.81 93.5795 121.822 93.5795 121.879V122.89C93.5795 123.946 93.5795 124.853 93.6371 125.347C93.6714 125.669 93.7404 125.922 94.0855 125.967C94.2465 125.99 94.4992 126.013 94.6717 126.013C94.7982 126.013 94.8558 126.047 94.8558 126.105C94.8558 126.185 94.764 126.22 94.6256 126.22C93.8783 126.22 93.154 126.185 92.8319 126.185C92.5677 126.185 91.843 126.22 91.3832 126.22C91.2337 126.22 91.1531 126.185 91.1531 126.105C91.1531 126.047 91.1992 126.013 91.3371 126.013C91.5097 126.013 91.6477 125.99 91.7511 125.967C91.9813 125.922 92.0387 125.669 92.0846 125.336C92.1424 124.853 92.1424 123.946 92.1424 122.89V120.869C92.1424 119.123 92.1424 118.801 92.1191 118.434C92.0963 118.043 92.0041 117.86 91.6243 117.78C91.5327 117.756 91.337 117.745 91.176 117.745C91.0497 117.745 90.9805 117.722 90.9805 117.642C90.9805 117.562 91.0611 117.538 91.222 117.538C91.8429 117.538 92.5675 117.573 92.8775 117.573C93.1537 117.573 93.8779 117.538 94.3266 117.538C94.4876 117.538 94.5681 117.562 94.5681 117.642C94.5681 117.722 94.4988 117.745 94.3613 117.745C94.2692 117.745 94.1657 117.756 94.0275 117.78C93.7171 117.837 93.6253 118.032 93.6021 118.434C93.5793 118.801 93.5793 119.123 93.5793 120.869V121.109C93.5793 121.167 93.614 121.19 93.6481 121.19H98.0408Z" fill="#093552" stroke="#093552" stroke-width="0.12804"/>
<path d="M103.905 120.869C103.905 119.124 103.905 118.802 103.882 118.434C103.858 118.044 103.766 117.861 103.387 117.78C103.295 117.757 103.1 117.746 102.939 117.746C102.812 117.746 102.743 117.722 102.743 117.642C102.743 117.562 102.824 117.539 102.996 117.539C103.605 117.539 104.33 117.574 104.652 117.574C105.02 117.574 107.308 117.574 107.526 117.562C107.745 117.539 107.929 117.516 108.02 117.493C108.078 117.481 108.147 117.447 108.205 117.447C108.262 117.447 108.274 117.493 108.274 117.55C108.274 117.631 108.216 117.768 108.182 118.297C108.17 118.412 108.147 118.918 108.124 119.055C108.113 119.112 108.09 119.181 108.009 119.181C107.929 119.181 107.906 119.123 107.906 119.02C107.906 118.94 107.894 118.744 107.837 118.607C107.756 118.4 107.641 118.263 107.067 118.193C106.871 118.17 105.664 118.147 105.434 118.147C105.376 118.147 105.353 118.182 105.353 118.263V121.167C105.353 121.247 105.365 121.293 105.434 121.293C105.687 121.293 107.009 121.293 107.273 121.271C107.549 121.247 107.722 121.213 107.825 121.098C107.906 121.007 107.952 120.948 108.01 120.948C108.055 120.948 108.09 120.973 108.09 121.041C108.09 121.11 108.032 121.293 107.998 121.879C107.975 122.109 107.952 122.568 107.952 122.648C107.952 122.74 107.952 122.867 107.848 122.867C107.768 122.867 107.745 122.82 107.745 122.763C107.734 122.648 107.734 122.499 107.699 122.35C107.642 122.12 107.481 121.948 107.055 121.902C106.836 121.879 105.698 121.868 105.422 121.868C105.365 121.868 105.353 121.914 105.353 121.982V122.89C105.353 123.28 105.342 124.337 105.353 124.67C105.376 125.462 105.56 125.634 106.733 125.634C107.032 125.634 107.515 125.634 107.814 125.496C108.113 125.358 108.251 125.117 108.331 124.646C108.354 124.52 108.377 124.474 108.458 124.474C108.55 124.474 108.55 124.566 108.55 124.681C108.55 124.945 108.458 125.726 108.4 125.956C108.32 126.254 108.216 126.254 107.779 126.254C106.043 126.254 105.273 126.185 104.594 126.185C104.33 126.185 103.605 126.22 103.145 126.22C102.996 126.22 102.916 126.185 102.916 126.105C102.916 126.047 102.961 126.013 103.1 126.013C103.272 126.013 103.41 125.99 103.513 125.967C103.743 125.921 103.801 125.669 103.847 125.336C103.904 124.853 103.904 123.946 103.904 122.89L103.905 120.869Z" fill="#093552" stroke="#093552" stroke-width="0.12804"/>
<path d="M115.966 125.128C114.839 124.14 114.54 122.854 114.54 121.74C114.54 120.96 114.781 119.605 115.885 118.594C116.713 117.836 117.805 117.377 119.519 117.377C120.232 117.377 120.657 117.423 121.186 117.492C121.623 117.549 121.991 117.652 122.336 117.687C122.462 117.698 122.508 117.756 122.508 117.826C122.508 117.917 122.473 118.055 122.451 118.456C122.428 118.836 122.439 119.467 122.417 119.697C122.405 119.869 122.382 119.961 122.278 119.961C122.187 119.961 122.164 119.869 122.164 119.709C122.152 119.352 122.003 118.951 121.715 118.652C121.336 118.25 120.439 117.94 119.381 117.94C118.381 117.94 117.725 118.193 117.219 118.652C116.38 119.421 116.162 120.512 116.162 121.627C116.162 124.359 118.243 125.714 119.784 125.714C120.807 125.714 121.428 125.599 121.888 125.071C122.083 124.852 122.233 124.52 122.278 124.313C122.313 124.13 122.336 124.084 122.428 124.084C122.509 124.084 122.531 124.164 122.531 124.256C122.531 124.393 122.393 125.392 122.278 125.783C122.221 125.978 122.175 126.035 121.98 126.116C121.52 126.299 120.645 126.38 119.91 126.38C118.334 126.38 117.012 126.035 115.966 125.128Z" fill="#093552" stroke="#093552" stroke-width="0.12804"/>
<path d="M125.578 120.869C125.578 119.124 125.578 118.802 125.555 118.434C125.532 118.044 125.417 117.848 125.164 117.791C125.038 117.757 124.888 117.745 124.75 117.745C124.635 117.745 124.566 117.722 124.566 117.63C124.566 117.562 124.658 117.538 124.842 117.538C125.279 117.538 126.003 117.573 126.337 117.573C126.624 117.573 127.303 117.538 127.74 117.538C127.889 117.538 127.981 117.562 127.981 117.63C127.981 117.722 127.912 117.745 127.797 117.745C127.682 117.745 127.59 117.756 127.452 117.78C127.142 117.837 127.05 118.032 127.027 118.434C127.004 118.801 127.004 119.123 127.004 120.869V122.89C127.004 124.003 127.004 124.911 127.05 125.405C127.084 125.714 127.165 125.922 127.51 125.967C127.671 125.99 127.924 126.013 128.096 126.013C128.223 126.013 128.28 126.048 128.28 126.105C128.28 126.185 128.188 126.22 128.062 126.22C127.303 126.22 126.578 126.185 126.268 126.185C126.003 126.185 125.279 126.22 124.819 126.22C124.67 126.22 124.589 126.185 124.589 126.105C124.589 126.048 124.635 126.013 124.773 126.013C124.945 126.013 125.084 125.99 125.187 125.967C125.417 125.922 125.486 125.726 125.52 125.392C125.578 124.911 125.578 124.003 125.578 122.89V120.869Z" fill="#093552" stroke="#093552" stroke-width="0.12804"/>
<path d="M132.892 118.182L131.178 118.227C130.512 118.25 130.236 118.307 130.063 118.56C129.948 118.732 129.89 118.87 129.868 118.962C129.844 119.054 129.81 119.1 129.741 119.1C129.66 119.1 129.638 119.042 129.638 118.917C129.638 118.733 129.856 117.687 129.879 117.595C129.914 117.446 129.948 117.378 130.017 117.378C130.109 117.378 130.224 117.492 130.512 117.515C130.845 117.55 131.282 117.573 131.661 117.573H136.214C136.583 117.573 136.835 117.538 137.008 117.515C137.18 117.48 137.273 117.458 137.319 117.458C137.399 117.458 137.411 117.527 137.411 117.698C137.411 117.94 137.376 118.733 137.376 119.031C137.364 119.145 137.341 119.215 137.273 119.215C137.18 119.215 137.158 119.158 137.146 118.985L137.135 118.859C137.112 118.561 136.801 118.238 135.778 118.215L134.329 118.182V122.89C134.329 123.946 134.329 124.852 134.386 125.347C134.421 125.669 134.49 125.921 134.835 125.967C134.996 125.99 135.249 126.013 135.421 126.013C135.548 126.013 135.605 126.047 135.605 126.105C135.605 126.185 135.513 126.219 135.387 126.219C134.628 126.219 133.903 126.185 133.581 126.185C133.317 126.185 132.593 126.219 132.133 126.219C131.983 126.219 131.903 126.185 131.903 126.105C131.903 126.047 131.949 126.013 132.086 126.013C132.259 126.013 132.397 125.99 132.501 125.967C132.731 125.921 132.799 125.669 132.834 125.335C132.892 124.852 132.892 123.946 132.892 122.89L132.892 118.182Z" fill="#093552" stroke="#093552" stroke-width="0.12804"/>
<path d="M141.455 123.244C141.455 122.624 141.34 122.372 141.191 122.038C141.11 121.855 139.569 119.329 139.167 118.732C138.879 118.307 138.592 118.02 138.374 117.893C138.224 117.813 138.028 117.744 137.891 117.744C137.799 117.744 137.718 117.721 137.718 117.641C137.718 117.572 137.799 117.537 137.937 117.537C138.143 117.537 139.006 117.572 139.385 117.572C139.627 117.572 140.098 117.537 140.616 117.537C140.73 117.537 140.788 117.572 140.788 117.641C140.788 117.71 140.708 117.721 140.535 117.767C140.431 117.79 140.374 117.882 140.374 117.974C140.374 118.066 140.431 118.203 140.512 118.364C140.673 118.709 142.283 121.476 142.467 121.797C142.582 121.522 144.03 118.996 144.191 118.64C144.307 118.387 144.352 118.192 144.352 118.042C144.352 117.928 144.307 117.801 144.111 117.755C144.008 117.732 143.905 117.71 143.905 117.641C143.905 117.561 143.962 117.537 144.1 117.537C144.479 117.537 144.847 117.572 145.181 117.572C145.434 117.572 146.192 117.537 146.411 117.537C146.537 117.537 146.618 117.561 146.618 117.629C146.618 117.71 146.526 117.744 146.4 117.744C146.284 117.744 146.066 117.79 145.893 117.882C145.652 117.996 145.526 118.135 145.272 118.444C144.893 118.903 143.284 121.603 143.077 122.096C142.904 122.51 142.904 122.866 142.904 123.244V124.186C142.904 124.37 142.904 124.852 142.939 125.334C142.962 125.668 143.065 125.921 143.41 125.966C143.571 125.989 143.824 126.012 143.985 126.012C144.111 126.012 144.169 126.046 144.169 126.104C144.169 126.184 144.077 126.218 143.927 126.218C143.203 126.218 142.478 126.184 142.168 126.184C141.881 126.184 141.156 126.218 140.731 126.218C140.57 126.218 140.478 126.195 140.478 126.104C140.478 126.046 140.535 126.012 140.662 126.012C140.822 126.012 140.961 125.989 141.064 125.966C141.294 125.92 141.398 125.668 141.421 125.334C141.455 124.852 141.455 124.37 141.455 124.186L141.455 123.244Z" fill="#093552" stroke="#093552" stroke-width="0.12804"/>
<path d="M151.24 121.879C151.24 119.916 152.54 117.378 155.989 117.378C158.851 117.378 160.634 119.043 160.634 121.672C160.634 124.302 158.794 126.38 155.874 126.38C152.574 126.38 151.24 123.912 151.24 121.879ZM159.025 122.097C159.025 119.525 157.54 117.929 155.655 117.929C154.333 117.929 152.827 118.664 152.827 121.523C152.827 123.912 154.149 125.806 156.358 125.806C157.162 125.806 159.025 125.416 159.025 122.097Z" fill="#093552" stroke="#093552" stroke-width="0.12804"/>
<path d="M165.075 122.889C165.075 123.992 165.075 124.852 165.133 125.335C165.167 125.668 165.236 125.921 165.581 125.966C165.742 125.99 165.994 126.012 166.156 126.012C166.306 126.012 166.353 126.047 166.353 126.104C166.353 126.185 166.272 126.219 166.098 126.219C165.375 126.219 164.651 126.185 164.35 126.185C164.052 126.185 163.327 126.219 162.89 126.219C162.73 126.219 162.65 126.196 162.65 126.104C162.65 126.047 162.695 126.012 162.822 126.012C162.994 126.012 163.132 125.99 163.236 125.966C163.465 125.921 163.524 125.668 163.569 125.335C163.627 124.852 163.627 123.992 163.627 122.889V120.868C163.627 119.123 163.627 118.801 163.605 118.433C163.581 118.043 163.488 117.86 163.109 117.779C163.017 117.756 162.822 117.745 162.661 117.745C162.546 117.745 162.465 117.722 162.465 117.652C162.465 117.561 162.557 117.538 162.73 117.538C163.327 117.538 164.052 117.573 164.385 117.573C164.822 117.573 167.157 117.573 167.42 117.561C167.639 117.55 167.777 117.55 167.893 117.515C167.961 117.492 168.018 117.446 168.076 117.446C168.122 117.446 168.157 117.492 168.157 117.549C168.157 117.63 168.099 117.767 168.063 118.066C168.053 118.181 168.031 118.859 168.007 118.996C167.996 119.087 167.972 119.157 167.893 119.157C167.811 119.157 167.789 119.099 167.777 118.973C167.777 118.881 167.777 118.698 167.709 118.536C167.628 118.376 167.386 118.203 166.949 118.192L165.179 118.157C165.109 118.157 165.075 118.192 165.075 118.318V121.189C165.075 121.258 165.086 121.292 165.156 121.292L166.627 121.281C166.822 121.281 166.983 121.281 167.144 121.27C167.363 121.258 167.524 121.212 167.639 121.063C167.696 120.994 167.72 120.947 167.789 120.947C167.834 120.947 167.857 120.982 167.857 121.051C167.857 121.12 167.799 121.407 167.766 121.763C167.742 121.993 167.719 122.521 167.719 122.601C167.719 122.705 167.719 122.819 167.605 122.819C167.535 122.819 167.513 122.739 167.513 122.659C167.513 122.578 167.49 122.441 167.444 122.303C167.386 122.142 167.214 121.936 166.857 121.889C166.57 121.855 165.351 121.855 165.156 121.855C165.099 121.855 165.075 121.878 165.075 121.959V122.889Z" fill="#093552" stroke="#093552" stroke-width="0.12804"/>
<path d="M176.044 124.657C176.067 125.553 176.216 125.851 176.447 125.932C176.642 126.001 176.86 126.012 177.045 126.012C177.171 126.012 177.24 126.035 177.24 126.104C177.24 126.196 177.137 126.219 176.976 126.219C176.229 126.219 175.769 126.185 175.55 126.185C175.446 126.185 174.906 126.219 174.308 126.219C174.159 126.219 174.055 126.208 174.055 126.104C174.055 126.035 174.124 126.012 174.24 126.012C174.389 126.012 174.595 126.001 174.756 125.955C175.055 125.863 175.101 125.53 175.113 124.531L175.217 117.733C175.217 117.503 175.25 117.342 175.367 117.342C175.492 117.342 175.596 117.492 175.791 117.698C175.93 117.848 177.678 119.72 179.356 121.385C180.137 122.165 181.69 123.819 181.885 124.003H181.942L181.829 118.847C181.816 118.146 181.712 117.928 181.438 117.814C181.264 117.745 180.988 117.745 180.829 117.745C180.689 117.745 180.644 117.711 180.644 117.642C180.644 117.55 180.77 117.538 180.942 117.538C181.54 117.538 182.092 117.573 182.333 117.573C182.46 117.573 182.897 117.538 183.46 117.538C183.609 117.538 183.725 117.55 183.725 117.642C183.725 117.711 183.656 117.745 183.518 117.745C183.403 117.745 183.311 117.745 183.174 117.779C182.851 117.871 182.76 118.112 182.748 118.755L182.62 126.001C182.62 126.253 182.575 126.357 182.471 126.357C182.346 126.357 182.208 126.231 182.081 126.104C181.357 125.415 179.885 123.911 178.69 122.729C177.436 121.488 176.159 120.053 175.953 119.835H175.918L176.044 124.657Z" fill="#093552" stroke="#093552" stroke-width="0.12804"/>
<path d="M186.875 120.869C186.875 119.124 186.875 118.802 186.851 118.434C186.829 118.044 186.737 117.861 186.357 117.78C186.265 117.757 186.07 117.746 185.909 117.746C185.783 117.746 185.713 117.722 185.713 117.642C185.713 117.562 185.794 117.539 185.966 117.539C186.575 117.539 187.301 117.574 187.621 117.574C187.99 117.574 190.278 117.574 190.497 117.562C190.715 117.539 190.899 117.516 190.991 117.493C191.049 117.481 191.118 117.447 191.175 117.447C191.233 117.447 191.244 117.493 191.244 117.55C191.244 117.631 191.187 117.768 191.153 118.297C191.141 118.412 191.118 118.918 191.094 119.055C191.082 119.112 191.06 119.181 190.98 119.181C190.899 119.181 190.876 119.123 190.876 119.02C190.876 118.94 190.865 118.744 190.808 118.607C190.726 118.4 190.611 118.263 190.036 118.193C189.841 118.17 188.634 118.147 188.404 118.147C188.347 118.147 188.323 118.182 188.323 118.263V121.167C188.323 121.247 188.334 121.293 188.404 121.293C188.656 121.293 189.979 121.293 190.244 121.271C190.519 121.247 190.692 121.213 190.796 121.098C190.875 121.007 190.922 120.948 190.98 120.948C191.025 120.948 191.06 120.973 191.06 121.041C191.06 121.11 191.001 121.293 190.968 121.879C190.946 122.109 190.922 122.568 190.922 122.648C190.922 122.74 190.921 122.867 190.819 122.867C190.738 122.867 190.715 122.82 190.715 122.763C190.704 122.648 190.704 122.499 190.668 122.35C190.611 122.12 190.45 121.948 190.025 121.902C189.807 121.879 188.669 121.868 188.391 121.868C188.334 121.868 188.323 121.914 188.323 121.982V122.89C188.323 123.28 188.311 124.337 188.323 124.67C188.347 125.462 188.531 125.634 189.703 125.634C190.001 125.634 190.485 125.634 190.783 125.496C191.082 125.358 191.22 125.117 191.301 124.646C191.323 124.52 191.347 124.474 191.428 124.474C191.519 124.474 191.519 124.566 191.519 124.681C191.519 124.945 191.428 125.726 191.37 125.956C191.29 126.254 191.186 126.254 190.749 126.254C189.012 126.254 188.242 126.185 187.564 126.185C187.3 126.185 186.575 126.22 186.116 126.22C185.966 126.22 185.885 126.185 185.885 126.105C185.885 126.047 185.931 126.013 186.069 126.013C186.241 126.013 186.38 125.99 186.483 125.967C186.713 125.921 186.77 125.669 186.816 125.336C186.874 124.853 186.874 123.946 186.874 122.89L186.875 120.869Z" fill="#093552" stroke="#093552" stroke-width="0.12804"/>
<path d="M193.704 118.663C193.567 118.238 193.44 117.963 193.278 117.847C193.153 117.767 192.922 117.744 192.818 117.744C192.703 117.744 192.635 117.732 192.635 117.641C192.635 117.561 192.726 117.537 192.888 117.537C193.486 117.537 194.118 117.572 194.222 117.572C194.325 117.572 194.831 117.537 195.498 117.537C195.659 117.537 195.739 117.572 195.739 117.641C195.739 117.732 195.647 117.744 195.532 117.744C195.441 117.744 195.326 117.744 195.245 117.79C195.142 117.836 195.118 117.917 195.118 118.042C195.118 118.192 195.233 118.583 195.371 119.099C195.566 119.857 196.637 123.336 196.843 123.98H196.877L199.108 117.996C199.235 117.675 199.305 117.584 199.396 117.584C199.523 117.584 199.58 117.756 199.729 118.123L202.12 123.899H202.155C202.363 123.129 203.282 120.098 203.685 118.755C203.765 118.491 203.799 118.25 203.799 118.089C203.799 117.906 203.697 117.744 203.248 117.744C203.133 117.744 203.052 117.71 203.052 117.641C203.052 117.561 203.143 117.537 203.317 117.537C203.926 117.537 204.41 117.572 204.512 117.572C204.593 117.572 205.087 117.537 205.467 117.537C205.594 117.537 205.673 117.561 205.673 117.63C205.673 117.71 205.615 117.745 205.513 117.745C205.397 117.745 205.238 117.756 205.111 117.802C204.834 117.906 204.708 118.365 204.467 119.019C203.937 120.466 202.73 124.118 202.167 125.84C202.04 126.241 201.983 126.38 201.834 126.38C201.718 126.38 201.65 126.241 201.477 125.817L199.086 120.064H199.063C198.844 120.649 197.314 124.715 196.82 125.771C196.602 126.241 196.545 126.38 196.406 126.38C196.291 126.38 196.234 126.253 196.143 125.955L193.704 118.663Z" fill="#093552" stroke="#093552" stroke-width="0.12804"/>
<path d="M213.121 123.244C213.121 122.624 213.005 122.372 212.856 122.038C212.775 121.855 211.234 119.329 210.832 118.732C210.545 118.307 210.258 118.02 210.039 117.893C209.889 117.813 209.694 117.744 209.556 117.744C209.464 117.744 209.383 117.721 209.383 117.641C209.383 117.572 209.464 117.537 209.602 117.537C209.808 117.537 210.672 117.572 211.051 117.572C211.293 117.572 211.764 117.537 212.282 117.537C212.396 117.537 212.454 117.572 212.454 117.641C212.454 117.71 212.373 117.721 212.2 117.767C212.097 117.79 212.04 117.882 212.04 117.974C212.04 118.066 212.097 118.203 212.178 118.364C212.339 118.709 213.949 121.476 214.132 121.797C214.247 121.522 215.697 118.996 215.857 118.64C215.972 118.387 216.019 118.192 216.019 118.042C216.019 117.928 215.972 117.801 215.777 117.755C215.673 117.732 215.569 117.71 215.569 117.641C215.569 117.561 215.627 117.537 215.765 117.537C216.145 117.537 216.512 117.572 216.846 117.572C217.099 117.572 217.857 117.537 218.076 117.537C218.202 117.537 218.283 117.561 218.283 117.629C218.283 117.71 218.192 117.744 218.065 117.744C217.95 117.744 217.732 117.79 217.559 117.882C217.317 117.996 217.191 118.135 216.938 118.444C216.558 118.903 214.95 121.603 214.742 122.096C214.57 122.51 214.57 122.866 214.57 123.244V124.186C214.57 124.37 214.57 124.852 214.604 125.334C214.627 125.668 214.731 125.921 215.075 125.966C215.236 125.989 215.489 126.012 215.65 126.012C215.777 126.012 215.834 126.046 215.834 126.104C215.834 126.184 215.743 126.218 215.593 126.218C214.867 126.218 214.144 126.184 213.834 126.184C213.545 126.184 212.822 126.218 212.397 126.218C212.236 126.218 212.144 126.195 212.144 126.104C212.144 126.046 212.2 126.012 212.327 126.012C212.488 126.012 212.626 125.989 212.73 125.966C212.96 125.92 213.063 125.668 213.086 125.334C213.121 124.852 213.121 124.37 213.121 124.186V123.244Z" fill="#093552" stroke="#093552" stroke-width="0.12804"/>
<path d="M218.64 121.879C218.64 119.916 219.939 117.378 223.387 117.378C226.252 117.378 228.032 119.043 228.032 121.672C228.032 124.302 226.194 126.38 223.273 126.38C219.973 126.38 218.64 123.912 218.64 121.879ZM226.424 122.097C226.424 119.525 224.941 117.929 223.054 117.929C221.732 117.929 220.226 118.664 220.226 121.523C220.226 123.912 221.549 125.806 223.756 125.806C224.561 125.806 226.424 125.416 226.424 122.097Z" fill="#093552" stroke="#093552" stroke-width="0.12804"/>
<path d="M231.028 120.869C231.028 119.124 231.028 118.802 231.004 118.434C230.981 118.044 230.888 117.861 230.509 117.78C230.417 117.757 230.222 117.746 230.06 117.746C229.934 117.746 229.865 117.722 229.865 117.642C229.865 117.562 229.945 117.539 230.119 117.539C230.728 117.539 231.452 117.574 231.694 117.574C232.084 117.574 232.958 117.539 233.315 117.539C234.039 117.539 234.809 117.608 235.43 118.032C235.753 118.251 236.211 118.837 236.211 119.606C236.211 120.456 235.855 121.237 234.695 122.178C235.717 123.464 236.511 124.486 237.19 125.197C237.833 125.864 238.304 125.944 238.478 125.979C238.603 126.002 238.707 126.013 238.8 126.013C238.892 126.013 238.938 126.048 238.938 126.105C238.938 126.196 238.856 126.22 238.718 126.22H237.626C236.982 126.22 236.695 126.162 236.396 126.002C235.902 125.738 235.465 125.197 234.821 124.314C234.361 123.683 233.832 122.901 233.683 122.729C233.625 122.661 233.557 122.648 233.476 122.648L232.475 122.626C232.418 122.626 232.384 122.648 232.384 122.718V122.878C232.384 123.946 232.384 124.853 232.441 125.336C232.475 125.669 232.544 125.922 232.889 125.967C233.062 125.99 233.315 126.013 233.453 126.013C233.545 126.013 233.591 126.048 233.591 126.105C233.591 126.185 233.509 126.22 233.36 126.22C232.693 126.22 231.842 126.185 231.671 126.185C231.452 126.185 230.728 126.22 230.268 126.22C230.119 126.22 230.037 126.185 230.037 126.105C230.037 126.048 230.084 126.013 230.222 126.013C230.393 126.013 230.531 125.99 230.636 125.967C230.866 125.922 230.923 125.669 230.968 125.336C231.027 124.853 231.026 123.946 231.026 122.89V120.869H231.028ZM232.384 121.776C232.384 121.903 232.407 121.948 232.487 121.983C232.728 122.063 233.074 122.097 233.36 122.097C233.821 122.097 233.971 122.051 234.177 121.903C234.522 121.649 234.855 121.122 234.855 120.18C234.855 118.549 233.775 118.078 233.096 118.078C232.81 118.078 232.602 118.09 232.487 118.124C232.407 118.147 232.384 118.193 232.384 118.285V121.776Z" fill="#093552" stroke="#093552" stroke-width="0.12804"/>
<path d="M241.689 121.374H241.746C242.138 120.948 243.816 119.238 244.15 118.847C244.472 118.469 244.725 118.182 244.725 117.986C244.725 117.86 244.679 117.78 244.564 117.756C244.46 117.733 244.413 117.711 244.413 117.642C244.413 117.561 244.472 117.538 244.598 117.538C244.839 117.538 245.472 117.573 245.782 117.573C246.139 117.573 246.771 117.538 247.127 117.538C247.242 117.538 247.324 117.562 247.324 117.642C247.324 117.722 247.265 117.745 247.15 117.745C246.989 117.745 246.702 117.791 246.484 117.871C246.127 118.009 245.737 118.25 245.242 118.733C244.886 119.077 243.15 120.799 242.758 121.213C243.172 121.752 245.426 124.175 245.875 124.6C246.38 125.083 246.898 125.599 247.519 125.84C247.863 125.978 248.093 126.013 248.232 126.013C248.311 126.013 248.381 126.036 248.381 126.105C248.381 126.185 248.323 126.22 248.105 126.22H247.104C246.76 126.22 246.554 126.22 246.312 126.196C245.691 126.139 245.38 125.886 244.886 125.45C244.38 125.002 242.115 122.349 241.873 122.017L241.746 121.845H241.689V122.89C241.689 123.946 241.689 124.853 241.724 125.347C241.746 125.669 241.85 125.921 242.138 125.967C242.299 125.99 242.552 126.013 242.701 126.013C242.794 126.013 242.849 126.047 242.849 126.105C242.849 126.185 242.758 126.22 242.632 126.22C241.988 126.22 241.264 126.185 240.976 126.185C240.712 126.185 239.987 126.22 239.528 126.22C239.378 126.22 239.297 126.185 239.297 126.105C239.297 126.047 239.343 126.013 239.481 126.013C239.654 126.013 239.792 125.99 239.895 125.967C240.125 125.921 240.182 125.669 240.228 125.336C240.286 124.853 240.286 123.946 240.286 122.89V120.869C240.286 119.123 240.286 118.801 240.263 118.433C240.241 118.043 240.148 117.86 239.768 117.779C239.677 117.756 239.481 117.745 239.32 117.745C239.193 117.745 239.125 117.722 239.125 117.642C239.125 117.561 239.205 117.538 239.377 117.538C239.987 117.538 240.712 117.573 240.988 117.573C241.263 117.573 241.988 117.538 242.38 117.538C242.539 117.538 242.62 117.562 242.62 117.642C242.62 117.722 242.552 117.745 242.459 117.745C242.345 117.745 242.276 117.756 242.136 117.779C241.827 117.837 241.735 118.032 241.712 118.433C241.689 118.801 241.689 119.123 241.689 120.869V121.374Z" fill="#093552" stroke="#093552" stroke-width="0.12804"/>
<path d="M37.6122 104.514L27.0513 104.513C27.1049 103.562 26.8071 102.456 26.4685 101.633C25.3953 99.0253 23.1856 96.6646 23.7142 93.5932C24.0079 91.8869 25.3878 90.6986 27.0762 90.5634C30.0945 90.321 32.6986 91.9331 35.6259 92.4495C35.86 92.4906 36.1752 91.9925 36.4595 91.7082C35.1019 90.6863 35.2866 88.683 36.8582 87.8179C36.9665 87.6937 36.9268 86.54 36.865 86.4882C36.737 86.3815 35.7344 86.5733 35.5921 86.4498C35.4501 86.3261 35.478 85.1246 35.5692 85.0094C35.6604 84.8946 36.7906 85.0178 36.854 84.9407C36.9176 84.863 36.8221 83.7822 36.9288 83.6971C37.0357 83.6119 37.6122 83.6333 37.6122 83.6333H37.3747C37.3747 83.6333 37.9502 83.6118 38.0571 83.6971C38.1636 83.7824 38.0683 84.863 38.1324 84.9407C38.1961 85.0178 39.3261 84.8946 39.4171 85.0094C39.5082 85.1248 39.5367 86.3262 39.3944 86.4498C39.2523 86.5731 38.2497 86.3815 38.1216 86.4882C38.0593 86.54 38.02 87.6937 38.1281 87.8179C39.7003 88.6829 39.8848 90.6863 38.5268 91.7082C38.8111 91.9925 39.1259 92.4904 39.3604 92.4495C42.2881 91.9331 44.8918 90.3208 47.9096 90.5634C49.5986 90.6986 50.9785 91.8869 51.2721 93.5932C51.8008 96.6646 49.5912 99.0252 48.5185 101.633C48.1796 102.456 47.8816 103.562 47.9352 104.513L37.3747 104.514M43.2277 98.1531C43.2277 98.1531 44.4363 97.9721 44.5244 98.1447C44.613 98.3175 44.1163 99.3363 44.201 99.5099C44.286 99.6838 45.8868 99.3576 45.9148 99.5374C45.9432 99.7175 45.8227 100.615 45.6696 100.747C45.516 100.88 44.0218 100.889 44.0218 100.889C43.7105 101.126 43.6295 101.607 43.6276 102.099C43.6254 102.724 44.1119 103.046 44.8881 102.83C46.3351 102.426 48.1283 99.2909 49.1926 97.121C49.975 95.5253 50.447 92.9153 48.3936 92.1335C47.1414 91.6569 45.8278 91.927 44.4813 92.3259C43.0701 92.7443 41.2086 93.3105 40.1116 93.9906C39.8425 94.1574 40.432 94.0244 39.4587 96.1789C39.0063 97.1812 38.5521 99.3156 38.7418 100.394C39.0127 101.935 39.8704 102.915 40.5842 102.919C41.0524 102.921 41.4282 102.745 41.7693 102.447C42.2393 102.036 42.623 101.36 42.4998 100.961C42.3955 100.826 41.1292 101.019 41.0391 100.893C40.9495 100.768 41.1931 99.783 41.337 99.6554C41.4796 99.5283 42.6228 99.698 42.776 99.573C42.9289 99.4489 43.0706 98.2278 43.2277 98.1531ZM31.7588 98.1531C31.9155 98.2278 32.0572 99.4489 32.2106 99.5731C32.3637 99.698 33.5064 99.5284 33.6498 99.6555C33.7931 99.7832 34.0371 100.768 33.9472 100.894C33.857 101.019 32.5908 100.827 32.4864 100.961C32.3635 101.36 32.7468 102.036 33.2168 102.447C33.5583 102.745 33.9335 102.922 34.402 102.92C35.1157 102.915 35.9735 101.935 36.2447 100.394C36.4341 99.3158 35.9801 97.1814 35.5273 96.179C34.5545 94.0246 35.1437 94.1574 34.8748 93.9908C33.7776 93.3105 31.9164 92.7445 30.5052 92.3261C29.1585 91.9272 27.8449 91.657 26.5931 92.1336C24.5393 92.9155 25.0116 95.5253 25.7934 97.1211C26.8581 99.2909 28.6516 102.426 30.0986 102.83C30.8746 103.046 31.3611 102.724 31.3587 102.099C31.3571 101.607 31.2758 101.126 30.9648 100.89C30.9648 100.89 29.4703 100.88 29.3169 100.747C29.1636 100.615 29.0435 99.7176 29.0714 99.5377C29.0996 99.3578 30.7009 99.6839 30.7853 99.51C30.8704 99.3363 30.3737 98.3176 30.4622 98.145C30.5498 97.9722 31.7588 98.1531 31.7588 98.1531Z" fill="#093552"/>
<path d="M37.612 105.94H26.8164V107.751H37.612" fill="#093552"/>
<path d="M37.375 105.94H48.1707V107.751H37.375" fill="#093552"/>
</g>
</g>
<defs>
<clipPath id="clip0_353_2928">
<rect width="290" height="43" fill="white" transform="translate(23.5 83.5)"/>
</clipPath>
</defs>
</svg>
