<svg width="337" height="210" viewBox="0 0 337 210" fill="none" xmlns="http://www.w3.org/2000/svg">
<path d="M0 12C0 5.37258 5.37258 0 12 0H325C331.627 0 337 5.37258 337 12V198C337 204.627 331.627 210 325 210H12C5.37258 210 0 204.627 0 198V12Z" fill="white"/>
<path d="M129.737 88.7776C129.662 88.7776 129.551 88.8101 129.411 88.8738C129.38 88.8908 129.343 88.9021 129.313 88.917C128.341 89.3632 126.673 89.733 124.29 90.0326V90.9523C125.63 90.9523 126.382 90.9907 126.546 91.0651C126.664 91.1076 126.753 91.1856 126.805 91.2876C126.885 91.4406 126.945 92.1511 126.99 93.4325C127.055 95.328 127.085 97.1709 127.085 98.9474V105.588C127.029 108.505 126.997 110.036 126.99 110.176C126.964 110.72 126.895 111.102 126.775 111.312C126.641 111.529 126.419 111.67 125.937 111.694L124.388 111.711V112.607V112.634C127.213 112.542 128.346 112.534 128.589 112.534C130.641 112.56 132.066 112.61 132.484 112.634V111.711C131.349 111.692 130.742 111.672 130.666 111.661C130.492 111.621 130.362 111.564 130.276 111.498C129.963 111.245 129.897 110.819 129.882 110.077C129.873 109.856 129.836 108.357 129.785 105.582L129.822 94.7774C129.822 94.7774 129.969 89.2294 129.98 89.0466C129.98 88.9637 129.958 88.8985 129.916 88.8475C129.875 88.7986 129.81 88.7776 129.737 88.7776ZM139.577 88.7776C139.392 88.8095 139.086 88.952 138.692 89.103C137.688 89.4685 136.173 89.7776 134.13 90.0326V90.9523C135.471 90.9523 136.224 90.9908 136.386 91.0652C136.507 91.1077 136.591 91.1857 136.645 91.2876C136.723 91.4406 136.785 92.1512 136.83 93.4326C136.895 95.328 136.928 97.171 136.928 98.9474V105.588C136.87 108.506 136.839 110.036 136.83 110.177C136.807 110.721 136.735 111.102 136.615 111.312C136.483 111.529 136.256 111.671 135.773 111.694L134.228 111.711V112.594V112.634C136.846 112.545 138.026 112.534 138.429 112.534C140.179 112.554 141.562 112.6 142.324 112.634V111.711C141.191 111.692 140.582 111.672 140.507 111.661C140.33 111.621 140.202 111.564 140.116 111.499C139.802 111.246 139.739 110.819 139.722 110.077C139.711 109.856 139.681 108.357 139.625 105.582L139.662 94.7778C139.662 94.7778 139.807 89.2297 139.82 89.047C139.82 88.9641 139.8 88.8989 139.756 88.8479C139.713 88.799 139.655 88.7776 139.577 88.7776ZM51.4971 89.415C47.5241 89.4894 44.3709 90.5953 42.0439 92.7585C39.6373 94.9982 38.4316 97.8142 38.4316 101.218C38.4316 103.906 39.1617 106.137 40.5256 108.058C41.8851 109.975 44.0547 111.612 46.9354 112.441C48.3746 112.857 49.9201 113.065 51.6114 113.065C53.0399 113.065 54.3595 112.921 55.5704 112.64C56.7834 112.355 58.0201 111.896 59.287 111.265L59.92 109.771L59.6438 109.436C58.7886 110.035 57.9291 110.477 57.065 110.757C55.6818 111.208 54.1351 111.398 52.5472 111.355C49.4468 111.279 46.9326 110.305 45.0129 108.42C43.0135 106.448 42.0133 103.852 42.0133 100.618C42.0241 98.773 42.2898 97.2397 42.8112 96.0157C43.3304 94.796 44.0022 93.7879 44.821 92.9911C46.411 91.4462 48.3868 90.7522 51.3385 90.6736C51.4204 90.6693 51.4956 90.6672 51.5775 90.6672C55.7014 90.6672 57.8214 91.6761 58.0412 93.7649L58.0541 95.6475H58.1854H59.0371C59.1017 94.4533 59.2203 93.4019 59.3906 92.4967C59.507 91.9314 59.6864 91.3533 59.9191 90.7668C59.6499 90.7137 58.9127 90.5268 57.704 90.2123C56.4997 89.8978 55.4741 89.6896 54.6338 89.5749C53.6793 89.4474 52.6023 89.4023 51.4971 89.415ZM149.59 89.8865V89.9331V90.9059C150.841 90.9229 151.6 90.9839 151.865 91.0753C152.137 91.1624 152.33 91.3042 152.451 91.487C152.574 91.6719 152.648 92.2751 152.68 93.2866C152.747 94.6742 152.781 96.0885 152.781 97.5399V104.605C152.781 106.666 152.932 108.129 153.235 109.005C153.472 109.668 153.911 110.311 154.549 110.95C155.826 112.217 158.331 113.065 161.679 113.065C164.536 113.065 166.972 112.369 168.466 111.179C169.463 110.38 170.146 109.456 170.519 108.41C170.892 107.367 171.078 105.528 171.078 102.895V97.5399C171.112 94.7265 171.159 93.2146 171.226 92.9979C171.256 92.1776 171.338 91.6588 171.465 91.4506C171.573 91.2849 171.756 91.1626 172.028 91.0754C172.299 90.9841 173.058 90.9231 174.317 90.9061V89.8868C171.777 89.9675 170.119 89.9862 169.671 89.9797C168.874 89.969 167.791 89.9378 166.419 89.8868V89.9333V90.9061C167.664 90.9231 168.428 90.9841 168.702 91.0755C168.977 91.1626 169.176 91.3002 169.294 91.4872C169.415 91.6721 169.488 92.272 169.509 93.2835C169.576 94.6689 169.611 96.0897 169.611 97.5368V102.454C169.611 105.248 169.415 107.021 168.954 108.062C168.489 109.107 167.662 109.965 165.783 110.546C164.843 110.839 163.77 110.987 162.561 110.987C160.477 110.987 158.731 110.513 157.734 109.789C157.085 109.311 156.616 108.704 156.316 107.973C156.019 107.242 155.869 105.732 155.869 103.444V97.5371C155.918 94.7258 155.951 93.213 155.966 92.9984C155.998 92.1803 156.082 91.6603 156.222 91.4478C156.315 91.2864 156.502 91.1631 156.777 91.076C157.053 90.9846 157.815 90.9236 159.06 90.9066V89.8873C156.683 89.9638 154.23 89.9868 153.68 89.9802C152.4 89.9738 151.042 89.9416 149.59 89.8865ZM265.27 90.0791C264.758 90.0791 264.334 90.2563 263.98 90.607C263.624 90.9576 263.446 91.3814 263.446 91.8786C263.446 92.3674 263.624 92.7864 263.98 93.137C264.687 93.834 265.826 93.8425 266.538 93.137C266.897 92.7864 267.074 92.3674 267.074 91.8786C267.074 91.3814 266.9 90.9576 266.549 90.607C266.2 90.2564 265.775 90.0791 265.27 90.0791ZM197.651 90.0833C197.147 90.0833 196.72 90.2574 196.362 90.6079C196.006 90.9586 195.83 91.3823 195.83 91.8796C195.83 92.3683 196.007 92.7873 196.362 93.1379C196.717 93.4885 197.149 93.6659 197.651 93.6659C198.147 93.6659 198.571 93.4886 198.924 93.1379C199.279 92.7873 199.459 92.3683 199.459 91.8796C199.459 91.3823 199.285 90.9586 198.934 90.6079C198.587 90.2573 198.158 90.0833 197.651 90.0833ZM275.503 92.2117C274.812 92.6494 273.909 93.0601 272.797 93.4468V98.311C272.178 98.6106 271.342 98.95 270.293 99.3303V99.9313V100.001C271.93 99.9139 272.797 99.9047 272.797 99.9047C272.797 99.9047 272.795 106.813 272.775 107.176C272.735 108.045 272.709 108.849 272.697 109.58C272.752 110.343 272.88 110.902 273.073 111.257C273.464 111.968 274.038 112.421 274.714 112.678C275.053 112.805 275.514 112.873 276.077 112.873C276.998 112.873 277.627 112.8 278.444 112.505C278.914 112.078 279.407 111.669 279.911 111.273L279.716 110.652C279.369 110.773 279.082 110.848 278.83 110.895C278.778 110.905 278.713 110.926 278.664 110.928C278.387 110.968 278.027 110.988 277.58 110.988C277.515 110.981 277.458 110.966 277.396 110.958C276.362 110.8 276.026 110.542 275.736 110.104C275.586 109.871 275.483 109.599 275.427 109.284C275.372 108.97 275.364 108.01 275.396 106.399L275.495 99.8082C278.177 99.7933 279.113 99.8018 279.766 99.8082L280.105 98.4104L279.992 98.3107C277.71 98.4106 276.958 98.4212 276.436 98.417C276.186 98.4127 275.882 98.4085 275.495 98.4042C275.636 95.3762 275.767 93.4189 275.888 92.5307L275.503 92.2117ZM70.3429 97.0991C67.9363 97.0991 65.9651 97.8508 64.4247 99.3702C62.8883 100.885 62.1185 102.839 62.1185 105.234C62.1185 106.564 62.3671 107.81 62.8627 108.979C63.4228 110.305 64.4667 111.651 66.2056 112.489C67.076 112.907 68.133 113.116 69.387 113.116C70.9921 113.116 72.4693 112.748 73.8074 112.017C75.1453 111.284 76.1778 110.269 76.9146 108.979C77.6472 107.679 78.0154 106.249 78.0154 104.689C78.0154 102.452 77.302 100.631 75.8777 99.2175C74.4536 97.8086 72.6073 97.0991 70.3429 97.0991ZM117.498 97.0991C115.735 97.0991 114.289 97.6489 112.761 98.6795C112.1 99.1257 111.614 99.5182 111.3 99.8582C110.867 100.33 110.481 101.061 110.138 102.049C109.8 103.04 109.63 104.149 109.63 105.38C109.63 108.527 110.984 110.96 113.289 112.133C114.444 112.722 115.739 113.019 117.161 113.019C118.609 113.019 119.95 112.666 120.965 112.209C121.31 112.061 121.858 111.749 122.601 111.286L123.123 110.138L122.86 109.862C121.897 110.453 121.087 110.835 120.436 111.054C118.808 111.587 117.161 111.454 115.646 110.695C113.838 109.788 112.764 107.923 112.721 104.842H117.922C119.09 104.842 120.258 104.797 121.423 104.712C122.041 104.674 122.736 104.573 123.514 104.427C123.578 104 123.611 103.634 123.611 103.334C123.611 100.965 122.741 99.0079 120.78 97.9157C119.804 97.3717 118.708 97.0991 117.498 97.0991ZM226.768 97.0991C225.015 97.0991 223.563 97.6489 222.031 98.6795C221.373 99.1257 220.883 99.5182 220.571 99.8582C220.137 100.33 219.751 101.061 219.413 102.049C219.07 103.04 218.901 104.149 218.901 105.38C218.901 108.527 220.254 110.96 222.56 112.133C223.717 112.722 224.999 113.019 226.432 113.019C227.878 113.019 229.222 112.666 230.236 112.209C230.581 112.061 231.127 111.749 231.872 111.286L232.394 110.138L232.13 109.862C231.163 110.442 230.358 110.835 229.707 111.054C228.086 111.583 226.444 111.458 224.92 110.695C223.114 109.788 222.033 107.923 221.988 104.842H227.192C228.357 104.842 229.527 104.797 230.693 104.712C231.31 104.674 232.006 104.573 232.783 104.427C232.849 104 232.882 103.634 232.882 103.334C232.882 100.965 232.011 99.0079 230.05 97.9157C229.074 97.3717 227.981 97.0991 226.768 97.0991ZM253.238 97.1182C252.282 97.1734 251.384 97.3777 250.56 97.7623C248.638 98.6463 247.778 100.127 247.778 101.803C247.778 102.955 248.233 103.977 248.946 104.612C249.302 104.933 249.779 105.206 250.384 105.429C250.786 105.567 251.67 105.789 253.04 106.099C254.409 106.408 255.3 106.659 255.717 106.85C256.55 107.232 257.003 107.938 257.003 108.829C257.003 109.83 256.646 110.616 255.943 111.189C255.236 111.765 254.333 112.049 253.232 112.049C252.778 112.045 252.232 112.03 251.734 111.986C251.072 111.901 250.42 111.643 249.879 111.163C249.338 110.68 249.114 109.942 249.003 109.217C248.95 108.854 248.917 108.363 248.907 107.743H247.978C247.957 109.126 247.931 110.038 247.9 110.475C247.807 111.357 247.693 111.918 247.681 112.086C247.681 112.16 247.705 112.209 247.748 112.245C247.812 112.311 248.266 112.425 249.115 112.59C250.649 112.877 251.884 113.019 252.801 113.019C254.812 113.019 256.413 112.485 257.611 111.418C258.809 110.347 259.409 109.096 259.409 107.66C259.409 106.217 258.725 105.154 257.706 104.665C257.196 104.425 256.262 104.133 254.909 103.788L252.232 103.138C251.222 102.838 250.715 102.505 250.384 101.906C250.219 101.61 250.134 101.255 250.134 100.837C250.134 100.095 250.422 99.451 250.996 98.8943C251.57 98.3439 252.342 98.0642 253.273 98.0642C255.264 98.0642 256.331 98.9414 256.686 99.5152C256.805 99.7043 256.896 99.9237 256.965 100.166C257.036 100.41 257.096 100.921 257.151 101.697H257.289H258.08C258.11 100.464 258.16 99.2563 258.228 98.0642C257.67 97.7901 256.944 97.5606 256.05 97.3736C254.953 97.1483 254.061 97.0863 253.238 97.1182ZM101.457 97.1945C100.626 97.1796 99.7445 97.3337 98.8042 97.6726L95.7843 100.223C95.8231 98.7648 95.8778 97.7593 95.8821 97.6063C95.8821 97.5 95.8605 97.4216 95.8179 97.3705C95.7771 97.3195 95.7116 97.2942 95.6361 97.2942C95.5608 97.2942 95.4162 97.345 95.1985 97.447C95.1855 97.4534 95.1731 97.4619 95.1579 97.4662C94.1432 97.9294 92.555 98.3094 90.3876 98.5984V99.5181H90.5121C91.654 99.5117 92.3111 99.533 92.4749 99.5878C92.645 99.6473 92.7639 99.7365 92.8349 99.8534C92.9039 99.9703 92.9542 100.344 92.9864 100.969C93.0511 101.944 93.0875 102.858 93.0875 103.708C93.0875 103.708 93.0189 108.518 92.9864 110.179C92.9542 110.723 92.878 111.099 92.7575 111.312C92.6283 111.528 92.3963 111.673 91.9395 111.697L90.3875 111.709V112.606V112.632C93.4792 112.545 94.566 112.533 94.8547 112.533C96.7229 112.554 98.0039 112.607 98.4671 112.632V111.709C97.3381 111.69 96.7463 111.67 96.6796 111.66C96.3176 111.579 96.1644 111.438 96.0803 111.245C95.9682 111 95.9031 110.609 95.8815 110.076C95.8471 108.353 95.784 103.638 95.784 103.638C95.784 102.463 95.9284 101.625 96.2149 101.128C96.5016 100.633 96.9802 100.191 97.6525 99.8066C98.3225 99.4199 99.0688 99.2256 99.8812 99.2256C101.725 99.2256 103.122 100.187 103.49 101.62C103.619 102.144 103.682 103.242 103.682 104.923V107.623C103.682 108.317 103.619 109.977 103.49 112.6C103.49 112.61 103.486 112.622 103.486 112.633C105.472 112.546 106.201 112.533 106.438 112.533C107.604 112.55 108.561 112.605 109.03 112.633V111.71L107.337 111.66C106.869 111.598 106.677 111.402 106.576 110.767C106.509 110.263 106.478 109.318 106.478 107.928V105.096C106.478 102.892 106.44 101.554 106.367 101.072C106.107 99.4546 105.375 98.4283 103.809 97.7249C103.067 97.3903 102.287 97.2088 101.457 97.1945ZM184.414 97.1945C183.582 97.1817 182.704 97.339 181.778 97.6726L178.761 100.223C178.798 98.7903 178.855 97.7593 178.859 97.6063C178.859 97.5 178.835 97.4216 178.792 97.3705C178.751 97.3195 178.691 97.2942 178.613 97.2942C178.54 97.2942 178.397 97.3416 178.186 97.4436C178.186 97.4436 178.179 97.4479 178.173 97.4479C177.16 97.9196 175.557 98.3089 173.366 98.6V99.5197H173.507C174.634 99.5133 175.284 99.5346 175.45 99.5894C175.62 99.6489 175.742 99.7381 175.813 99.855C175.882 99.9719 175.931 100.346 175.961 100.971C176.026 101.946 176.062 102.86 176.062 103.71C176.062 103.71 175.994 108.519 175.961 110.181C175.931 110.725 175.857 111.101 175.736 111.313C175.607 111.53 175.377 111.675 174.918 111.698L173.366 111.711V112.611V112.634C176.477 112.547 177.558 112.534 177.837 112.534C179.739 112.56 181.024 112.613 181.442 112.634V111.711C180.313 111.692 179.715 111.672 179.654 111.661C179.286 111.581 179.141 111.44 179.055 111.246C178.945 111.002 178.881 110.611 178.86 110.077C178.828 108.354 178.762 103.64 178.762 103.64C178.762 102.465 178.903 101.627 179.19 101.13C179.476 100.634 179.959 100.193 180.631 99.8081C181.303 99.4256 182.035 99.2271 182.856 99.2271C184.698 99.2271 186.094 100.189 186.465 101.621C186.592 102.146 186.66 103.244 186.66 104.925V107.624C186.66 108.319 186.592 109.978 186.465 112.605C186.465 112.611 186.467 112.624 186.465 112.634C188.479 112.547 189.2 112.535 189.417 112.535C190.622 112.556 191.584 112.607 192.006 112.634V111.711L190.313 111.662C189.847 111.6 189.66 111.408 189.552 110.769C189.487 110.265 189.454 109.319 189.454 107.93V105.098C189.454 102.894 189.415 101.556 189.34 101.073C189.084 99.4564 188.351 98.43 186.785 97.7267C186.034 97.3888 185.246 97.2067 184.414 97.1945ZM198.954 97.1945C197.523 97.8638 195.766 98.3121 193.672 98.5458V99.4688C194.958 99.4688 195.683 99.512 195.853 99.5885C196.023 99.6692 196.14 99.7876 196.206 99.947C196.314 100.245 196.368 101.191 196.368 102.776V105.588C196.303 108.51 196.27 110.035 196.27 110.18C196.236 110.724 196.16 111.102 196.042 111.312C195.912 111.529 195.681 111.67 195.22 111.694L193.672 111.711V112.604V112.634C196.515 112.545 197.592 112.534 197.947 112.534C199.744 112.555 201.266 112.606 201.913 112.634V111.711C200.769 111.692 200.162 111.672 200.095 111.661C199.92 111.621 199.795 111.564 199.704 111.498C199.405 111.258 199.328 110.83 199.31 110.077C199.302 109.856 199.267 108.357 199.213 105.582V102.67C199.213 101.461 199.246 99.7222 199.31 97.4506L198.954 97.1945ZM266.569 97.1945C265.134 97.8744 263.379 98.3121 261.285 98.5458V99.4688C262.57 99.4688 263.3 99.512 263.47 99.5885C263.637 99.6692 263.756 99.7876 263.824 99.947C263.932 100.245 263.984 101.191 263.984 102.776V105.588C263.918 108.51 263.887 110.035 263.887 110.18C263.853 110.724 263.775 111.102 263.658 111.312C263.522 111.529 263.3 111.67 262.839 111.694L261.285 111.711V112.607V112.634C264.191 112.545 265.249 112.534 265.563 112.534C267.448 112.555 268.988 112.61 269.529 112.634V111.711C268.384 111.692 267.776 111.672 267.71 111.661C267.536 111.621 267.407 111.564 267.321 111.498C267.019 111.258 266.947 110.829 266.93 110.077C266.921 109.856 266.885 108.357 266.83 105.582V102.67C266.83 101.461 266.862 99.7221 266.93 97.4505L266.569 97.1945ZM88.0047 97.221C86.9891 97.1195 85.9831 97.4796 85.2542 98.1075C85.0689 98.269 84.7727 98.6206 84.3654 99.1667C83.954 99.7107 83.5103 100.264 83.0256 100.817C83.0535 98.9575 83.1223 97.7635 83.1266 97.6063C83.1266 97.5 83.1023 97.4216 83.0594 97.3705C83.0163 97.3195 82.9565 97.2942 82.881 97.2942C82.8057 97.2942 82.6554 97.345 82.4399 97.447C82.3796 97.4768 82.3127 97.5046 82.2481 97.5301C81.2311 97.9678 79.6953 98.3251 77.6291 98.5992V99.5189H77.6398C78.8529 99.5083 79.5491 99.5338 79.7237 99.5886C79.9025 99.6481 80.025 99.7374 80.094 99.8542C80.1652 99.9711 80.2107 100.345 80.2322 100.97C80.2969 101.945 80.3265 102.86 80.3265 103.712C80.3265 103.712 80.327 105.735 80.2322 110.051C80.1977 110.847 80.0852 111.294 79.818 111.498C79.7255 111.564 79.5883 111.618 79.4073 111.648C79.3104 111.671 78.6552 111.692 77.438 111.711V112.6V112.634C79.879 112.542 81.2609 112.538 81.4743 112.534C83.9693 112.559 85.7926 112.613 86.3658 112.634V111.711C84.933 111.617 84.054 111.521 83.7265 111.425C83.401 111.321 83.2899 111.195 83.208 110.834C83.1628 110.651 83.138 110.23 83.1271 109.569C83.0604 107.703 83.0261 106.417 83.0261 105.711V104.061C83.0261 102.712 83.3152 101.695 83.8947 101.02C84.4701 100.34 85.1714 100 85.9988 100C86.9813 100 87.5882 100.446 88.086 101.461H88.8165C88.8424 100.384 88.937 99.1298 89.1094 97.7061L89.0151 97.4836C88.6843 97.3398 88.3434 97.2549 88.0047 97.221ZM245.34 97.221C244.324 97.1209 243.32 97.486 242.595 98.1075C242.41 98.269 242.117 98.6206 241.705 99.1667C241.098 99.9444 240.633 100.498 240.366 100.817C240.404 98.6494 240.462 97.7635 240.466 97.6063C240.466 97.5 240.442 97.4216 240.399 97.3705C240.354 97.3195 240.295 97.2942 240.221 97.2942C239.999 97.3452 239.597 97.5345 239.166 97.696C238.163 98.0572 236.769 98.359 234.969 98.5991V99.5188C236.191 99.5082 236.886 99.5337 237.063 99.5885C237.243 99.648 237.365 99.7372 237.434 99.8541C237.503 99.971 237.551 100.345 237.572 100.97C237.637 101.945 237.665 102.86 237.665 103.712C237.665 103.712 237.67 105.735 237.572 110.05C237.541 110.847 237.427 111.294 237.158 111.498C237.067 111.564 236.927 111.618 236.746 111.647C236.65 111.671 235.989 111.691 234.774 111.711V112.587V112.634C237.124 112.547 238.506 112.538 238.813 112.534C241.049 112.551 242.827 112.606 243.705 112.634V111.711C242.272 111.617 241.392 111.521 241.066 111.425C240.743 111.321 240.631 111.195 240.547 110.834C240.502 110.651 240.475 110.23 240.466 109.569C240.402 107.703 240.366 106.417 240.366 105.711V104.061C240.366 102.712 240.657 101.695 241.235 101.02C241.814 100.344 242.514 100 243.338 100C244.324 100 244.934 100.446 245.428 101.461H246.156C246.18 100.384 246.275 99.1297 246.452 97.706L246.354 97.4835C246.021 97.3386 245.68 97.2544 245.34 97.221ZM201.77 97.6294V97.6759V98.5459C202.422 98.5714 202.818 98.6009 202.971 98.6455C203.34 98.7284 203.593 98.9467 204.028 99.9072L208.688 110.585C208.856 110.959 209.147 111.688 209.57 112.776H211.236C212.844 109.026 213.783 106.859 214.057 106.269L215.619 102.995C216.636 100.947 217.225 99.8012 217.377 99.5419C217.594 99.1573 217.817 98.907 218.037 98.7816C218.258 98.6583 218.706 98.5799 219.384 98.5459V97.6295C217.153 97.706 216.124 97.7298 215.619 97.7191C215.059 97.7021 214.242 97.6741 213.164 97.6295V97.6826V98.5459C214.293 98.5799 214.988 98.6668 215.248 98.8048C215.498 98.9366 215.493 99.2516 215.393 99.6681C215.219 100.34 214.873 101.31 214.354 102.577C213.542 104.572 213.061 105.726 212.871 106.159L211.256 109.775C211.251 109.771 211.248 109.76 211.243 109.756C210.481 107.996 209.695 106.16 209.695 106.16L207.716 101.313C207.283 100.261 207.066 99.574 207.066 99.2574C207.066 99.0534 207.169 98.8928 207.376 98.7759C207.58 98.6591 208.267 98.5809 209.439 98.5468V97.6305C207.166 97.707 205.525 97.7299 205.096 97.7235C204.289 97.7086 203.181 97.6804 201.77 97.6294ZM281.307 97.6294V97.666V98.5492C282.076 98.6363 282.574 98.7427 282.794 98.8745C283.017 99.0084 283.224 99.2605 283.418 99.6515C283.906 100.635 284.535 102.066 285.299 103.945L287.879 110.246C288.365 111.441 288.782 112.518 289.127 113.474C288.672 114.653 288.159 115.819 287.59 116.96C287.207 117.699 286.881 118.22 286.602 118.524C286.054 119.129 285.402 119.404 284.73 119.404C284.506 119.404 284.332 119.384 284.179 119.36C284.111 119.348 284.041 119.339 283.987 119.324C283.653 119.216 283.405 119.023 282.994 118.676H282.6L281.772 121.147C282.488 121.533 282.989 121.681 283.708 121.681C285.182 121.681 286.437 121.055 287.34 119.882C287.79 119.295 288.334 118.316 288.972 116.943L292.695 108.297C294.345 104.712 295.474 102.306 296.086 101.076C296.696 99.8455 297.154 99.119 297.456 98.9043C297.759 98.6897 298.185 98.5746 298.738 98.5491L298.901 97.6294C297.771 97.691 295.607 97.7803 292.652 97.6294V97.6759V98.5491C293.788 98.6575 294.441 98.7676 294.605 98.8845C294.881 99.0672 294.908 99.3679 294.796 99.8141C294.655 100.307 294.162 101.598 293.316 103.689C292.473 105.773 291.883 107.192 291.544 107.935L290.685 109.821C289.893 108.021 288.103 103.702 288.103 103.702C287.724 102.775 287.328 101.659 286.905 100.352C286.723 99.8248 286.63 99.4846 286.63 99.3125C286.63 99.0427 286.771 98.8567 287.05 98.7547C287.214 98.691 287.853 98.6253 288.969 98.5488V97.6291C287.123 97.7035 285.132 97.7307 284.825 97.7222C283.663 97.7158 282.493 97.6891 281.307 97.6294ZM69.6802 98.164C71.559 98.164 73.1705 99.0777 74.1745 101.564C74.6764 102.805 74.9284 104.28 74.9284 105.993C74.9284 108.052 74.503 109.576 73.6627 110.562C72.8245 111.552 71.7736 112.049 70.5218 112.049C69.5437 112.049 68.631 111.731 67.795 111.106C66.9569 110.475 66.3198 109.479 65.8762 108.108C65.4344 106.742 65.2129 105.4 65.2129 104.074C65.2129 102.051 65.6266 100.559 66.4517 99.5986C67.277 98.6424 68.3531 98.164 69.6802 98.164ZM116.811 98.164C119.123 98.164 120.622 99.6952 120.622 103.084C120.622 103.223 120.62 103.424 120.609 103.679C120.155 103.734 119.207 103.759 117.768 103.759H117.562C115.89 103.725 113.6 103.648 112.725 103.583C112.736 101.706 113.114 100.335 113.859 99.4655C114.607 98.5985 115.592 98.164 116.811 98.164ZM226.077 98.164C228.391 98.164 229.895 99.6952 229.895 103.084C229.895 103.223 229.886 103.424 229.877 103.679C229.422 103.734 228.474 103.759 227.04 103.759C226.854 103.759 226.104 103.752 223.71 103.679C222.867 103.649 222.297 103.612 221.99 103.583C222.004 101.706 222.383 100.335 223.127 99.4655C223.874 98.5985 224.865 98.164 226.077 98.164Z" fill="#B31B1B"/>
</svg>
