<svg fill="none" height="85" viewBox="0 0 180 85" width="180" xmlns="http://www.w3.org/2000/svg" xmlns:xlink="http://www.w3.org/1999/xlink"><mask id="a" height="44" maskUnits="userSpaceOnUse" width="41" x="70" y="0"><path d="m110.35.16748h-39.9951v43.09102h39.9951z" fill="#fff"/></mask><mask id="b" height="44" maskUnits="userSpaceOnUse" width="41" x="70" y="0"><path d="m110.35.16748h-39.9951v43.09102h39.9951z" fill="#fff"/></mask><mask id="c" height="44" maskUnits="userSpaceOnUse" width="41" x="70" y="0"><path d="m110.35.16748h-39.9951v43.09102h39.9951z" fill="#fff"/></mask><mask id="d" height="44" maskUnits="userSpaceOnUse" width="41" x="70" y="0"><path d="m110.35.16748h-39.9951v43.09102h39.9951z" fill="#fff"/></mask><mask id="e" height="44" maskUnits="userSpaceOnUse" width="41" x="70" y="0"><path d="m110.35.16748h-39.9951v43.09102h39.9951z" fill="#fff"/></mask><mask id="f" height="44" maskUnits="userSpaceOnUse" width="41" x="70" y="0"><path d="m110.35.16748h-39.9951v43.09102h39.9951z" fill="#fff"/></mask><mask id="g" height="44" maskUnits="userSpaceOnUse" width="41" x="70" y="0"><path d="m110.35.16748h-39.9951v43.09102h39.9951z" fill="#fff"/></mask><mask id="h" height="44" maskUnits="userSpaceOnUse" width="41" x="70" y="0"><path d="m110.35.16748h-39.9951v43.09102h39.9951z" fill="#fff"/></mask><mask id="i" height="44" maskUnits="userSpaceOnUse" width="41" x="70" y="0"><path d="m110.35.16748h-39.9951v43.09102h39.9951z" fill="#fff"/></mask><mask id="j" height="44" maskUnits="userSpaceOnUse" width="41" x="70" y="0"><path d="m110.35.16748h-39.9951v43.09102h39.9951z" fill="#fff"/></mask><mask id="k" height="44" maskUnits="userSpaceOnUse" width="41" x="70" y="0"><path d="m110.35.16748h-39.9951v43.09102h39.9951z" fill="#fff"/></mask><mask id="l" height="44" maskUnits="userSpaceOnUse" width="41" x="70" y="0"><path d="m110.35.16748h-39.9951v43.09102h39.9951z" fill="#fff"/></mask><mask id="m" height="44" maskUnits="userSpaceOnUse" width="41" x="70" y="0"><path d="m110.35.16748h-39.9951v43.09102h39.9951z" fill="#fff"/></mask><mask id="n" height="44" maskUnits="userSpaceOnUse" width="41" x="70" y="0"><path d="m110.35.16748h-39.9951v43.09102h39.9951z" fill="#fff"/></mask><mask id="o" height="44" maskUnits="userSpaceOnUse" width="41" x="70" y="0"><path d="m110.35.16748h-39.9951v43.09102h39.9951z" fill="#fff"/></mask><mask id="p" height="44" maskUnits="userSpaceOnUse" width="41" x="70" y="0"><path d="m110.35.16748h-39.9951v43.09102h39.9951z" fill="#fff"/></mask><mask id="q" height="44" maskUnits="userSpaceOnUse" width="41" x="70" y="0"><path d="m110.35.16748h-39.9951v43.09102h39.9951z" fill="#fff"/></mask><mask id="r" height="44" maskUnits="userSpaceOnUse" width="41" x="70" y="0"><path d="m110.35.16748h-39.9951v43.09102h39.9951z" fill="#fff"/></mask><mask id="s" height="44" maskUnits="userSpaceOnUse" width="41" x="70" y="0"><path d="m110.35.16748h-39.9951v43.09102h39.9951z" fill="#fff"/></mask><mask id="t" height="44" maskUnits="userSpaceOnUse" width="41" x="70" y="0"><path d="m110.35.16748h-39.9951v43.09102h39.9951z" fill="#fff"/></mask><mask id="u" height="44" maskUnits="userSpaceOnUse" width="41" x="70" y="0"><path d="m110.35.16748h-39.9951v43.09102h39.9951z" fill="#fff"/></mask><mask id="v" height="44" maskUnits="userSpaceOnUse" width="41" x="70" y="0"><path d="m110.35.16748h-39.9951v43.09102h39.9951z" fill="#fff"/></mask><mask id="w" height="44" maskUnits="userSpaceOnUse" width="41" x="70" y="0"><path d="m110.35.16748h-39.9951v43.09102h39.9951z" fill="#fff"/></mask><mask id="x" height="44" maskUnits="userSpaceOnUse" width="41" x="70" y="0"><path d="m110.35.16748h-39.9951v43.09102h39.9951z" fill="#fff"/></mask><mask id="y" height="44" maskUnits="userSpaceOnUse" width="41" x="70" y="0"><path d="m110.35.16748h-39.9951v43.09102h39.9951z" fill="#fff"/></mask><mask id="z" height="44" maskUnits="userSpaceOnUse" width="41" x="70" y="0"><path d="m110.35.16748h-39.9951v43.09102h39.9951z" fill="#fff"/></mask><mask id="A" height="44" maskUnits="userSpaceOnUse" width="41" x="70" y="0"><path d="m110.35.16748h-39.9951v43.09102h39.9951z" fill="#fff"/></mask><mask id="B" height="25" maskUnits="userSpaceOnUse" width="180" x="0" y="50"><path d="m179.784 50.0234h-178.862613v24.436h178.862613z" fill="#fff"/></mask><mask id="C" height="25" maskUnits="userSpaceOnUse" width="180" x="0" y="50"><path d="m179.784 50.0234h-178.862613v24.436h178.862613z" fill="#fff"/></mask><mask id="D" height="25" maskUnits="userSpaceOnUse" width="180" x="0" y="50"><path d="m179.784 50.0234h-178.862613v24.436h178.862613z" fill="#fff"/></mask><mask id="E" height="25" maskUnits="userSpaceOnUse" width="180" x="0" y="50"><path d="m179.784 50.0234h-178.862613v24.436h178.862613z" fill="#fff"/></mask><mask id="F" height="25" maskUnits="userSpaceOnUse" width="180" x="0" y="50"><path d="m179.784 50.0234h-178.862613v24.436h178.862613z" fill="#fff"/></mask><mask id="G" height="25" maskUnits="userSpaceOnUse" width="180" x="0" y="50"><path d="m179.784 50.0234h-178.862613v24.436h178.862613z" fill="#fff"/></mask><mask id="H" height="25" maskUnits="userSpaceOnUse" width="180" x="0" y="50"><path d="m179.784 50.0234h-178.862613v24.436h178.862613z" fill="#fff"/></mask><mask id="I" height="25" maskUnits="userSpaceOnUse" width="180" x="0" y="50"><path d="m179.784 50.0234h-178.862613v24.436h178.862613z" fill="#fff"/></mask><mask id="J" height="25" maskUnits="userSpaceOnUse" width="180" x="0" y="50"><path d="m179.784 50.0234h-178.862613v24.436h178.862613z" fill="#fff"/></mask><mask id="K" height="25" maskUnits="userSpaceOnUse" width="180" x="0" y="50"><path d="m179.784 50.0234h-178.862613v24.436h178.862613z" fill="#fff"/></mask><mask id="L" height="25" maskUnits="userSpaceOnUse" width="180" x="0" y="50"><path d="m179.784 50.0234h-178.862613v24.436h178.862613z" fill="#fff"/></mask><mask id="M" height="25" maskUnits="userSpaceOnUse" width="180" x="0" y="50"><path d="m179.784 50.0234h-178.862613v24.436h178.862613z" fill="#fff"/></mask><g fill="#002d72"><path d="m33.701 79.6052c0-.7585-.0205-2.173-.2255-2.542-.082-.1435-.3075-.2255-.615-.2665l-.3075-.0205c-.082-.082-.041-.246.0205-.287.4715.0205.9225.041 1.394.041.5125 0 .8405-.0205 1.2915-.041.1025.0615.082.2255.0205.287l-.287.0205c-.3075.0205-.533.1435-.615.287-.164.41-.164 1.8245-.164 2.501v1.394c0 1.066-.164 2.1935-.861 2.9315-.533.574-1.435.902-2.3575.902-.8405 0-1.7015-.164-2.296-.6765-.656-.533-.9635-1.435-.9635-2.911v-2.911c0-1.271-.0205-1.4965-.738-1.558l-.3075-.0205c-.082-.041-.041-.2665.0205-.287.615.0205 1.025.041 1.517.041.5125 0 .902-.0205 1.517-.041.082.041.1025.246.0205.287l-.287.0205c-.7175.0615-.738.2665-.738 1.558v2.665c0 1.9885.615 3.28 2.501 3.28 1.7835 0 2.46-1.394 2.46-3.28z"/><path d="m49.7935 82.5367c0 .369 0 1.8245.041 2.1525-.0205.082-.1025.1435-.2255.1435-.1435-.205-.5125-.6355-1.5785-1.8655l-2.8495-3.2595c-.328-.3895-1.1685-1.394-1.435-1.6605h-.041c-.041.1435-.0615.4305-.0615.7995v2.6855c0 .574.0205 2.173.2255 2.542.082.1435.328.205.6355.2255l.3895.041c.082.1025.0615.246-.0205.3075-.5535-.0205-.984-.041-1.435-.041-.5125 0-.8405.0205-1.271.041-.082-.0615-.1025-.2255-.0205-.3075l.328-.041c.287-.041.4715-.1025.533-.246.164-.4305.164-1.9475.164-2.542v-3.567c0-.3485-.0205-.5945-.2665-.8815-.164-.164-.4715-.2665-.7585-.287l-.205-.0205c-.082-.082-.082-.2665.0205-.3075.5125.041 1.1685.041 1.394.041.205 0 .41-.0205.574-.041.246.6355 1.7015 2.255 2.1115 2.706l1.189 1.353c.8405.943 1.4555 1.64 2.0295 2.2345h.0205c.041-.0615.041-.2665.041-.5125v-2.624c0-.574-.0205-2.173-.246-2.542-.082-.123-.2665-.1845-.7585-.246l-.205-.0205c-.082-.082-.082-.2665.0205-.3075.574.0205.984.041 1.4555.041.533 0 .8405-.0205 1.271-.041.1025.0615.1025.2255.0205.3075l-.164.0205c-.3895.0615-.6355.164-.697.2665-.205.451-.1845 1.968-.1845 2.542v2.911z"/><path d="m58.9569 78.3752c0-1.312-.0205-1.517-.7585-1.5785l-.3075-.0204c-.082-.0411-.041-.2665.0205-.3075.615.0205 1.025.0409 1.558.0409.492 0 .902-.0204 1.517-.0409.082.041.1025.2664.0205.3075l-.3075.0204c-.7175.0615-.7585.2665-.7585 1.5785v4.387c0 1.312.0205 1.476.7585 1.558l.3075.041c.082.041.041.2666-.0205.3075-.615-.0205-1.025-.041-1.517-.041-.5125 0-.943.0205-1.558.041-.082-.0409-.1025-.2255-.0205-.3075l.3075-.041c.7175-.082.7585-.2665.7585-1.558z"/><path d="m68.9404 77.8218c-.287-.697-.4715-.943-1.0045-1.0045l-.2255-.0205c-.082-.082-.082-.246.0205-.3075.3485.0205.7585.041 1.271.041.533 0 .9635-.0205 1.4965-.041.082.041.1025.2255.0205.3075l-.1845.0205c-.4715.0615-.574.1435-.574.2255.0205.123.2255.7995.615 1.722.574 1.435 1.1275 2.8495 1.7425 4.2435.3895-.82.902-2.0705 1.189-2.7265.3485-.8405.943-2.2345 1.148-2.7675.1025-.2665.1025-.3895.1025-.4715s-.123-.1845-.5535-.2255l-.2255-.0205c-.082-.082-.0615-.2665.0205-.3075.3485.0205.82.041 1.271.041.41 0 .779-.0205 1.189-.041.082.041.082.246.0205.3075l-.369.0205c-.287.0205-.4715.164-.6355.4305-.3485.574-.82 1.5785-1.3735 2.829l-.656 1.517c-.492 1.1275-1.066 2.5625-1.271 3.2185-.041.0205-.082.041-.1435.041s-.123-.0205-.1845-.041c-.1435-.5125-.3485-1.1275-.574-1.64z"/><path d="m83.762 78.3547c0-1.2915-.0205-1.476-.7585-1.558l-.205-.0204c-.082-.0411-.041-.2665.0205-.3075.533.0205.943.0409 1.4555.0409h2.3165c.779 0 1.517.0001 1.6605-.0409.082.2049.1435 1.0864.205 1.6399-.041.0821-.246.1025-.3075.0205-.1845-.574-.287-1.0045-.943-1.1685-.2665-.0615-.656-.082-1.189-.082h-.8815c-.369 0-.369.0205-.369.492v2.46c0 .3485.041.3485.41.3485h.7175c.5125 0 .902-.0205 1.0455-.082.1435-.041.2255-.123.287-.4305l.1025-.5125c.0615-.082.2665-.082.328.0205 0 .287-.041.779-.041 1.2505 0 .451.041.9225.041 1.189-.041.082-.2665.082-.328.0205l-.123-.4715c-.041-.2255-.123-.41-.3895-.4715-.164-.041-.4715-.0615-.943-.0615h-.7175c-.369 0-.41.0205-.41.328v1.7425c0 .656.041 1.066.2255 1.271.1435.1435.41.287 1.4965.287.943 0 1.312-.041 1.5785-.1845.2255-.123.5535-.5535.8815-1.189.082-.0615.2665-.0205.3075.082-.082.4305-.3895 1.3735-.5535 1.7015-1.107-.0205-2.1935-.041-3.3005-.041h-1.0865c-.533 0-.943.0205-1.681.041-.082-.0409-.1025-.2255-.0205-.3075l.41-.041c.697-.0615.7585-.246.7585-1.5375z"/><path d="m97.1075 78.3753c0-1.1685-.041-1.3735-.533-1.435l-.3895-.041c-.082-.0615-.082-.2665.0205-.3075.697-.0615 1.5375-.1025 2.747-.1025.7585 0 1.4965.0615 2.0495.369.595.3075 1.025.861 1.025 1.722 0 1.1685-.922 1.804-1.537 2.05-.062.082 0 .205.061.287.984 1.5785 1.64 2.583 2.481 3.28.205.1845.512.328.84.3485.062.0205.082.123.021.164-.103.041-.308.0615-.533.0615-1.046 0-1.681-.3075-2.542-1.558-.328-.451-.82-1.312-1.2095-1.8655-.1845-.2665-.3895-.3895-.8815-.3895-.5535 0-.574.0205-.574.2665v1.558c0 1.2915.0205 1.435.738 1.5375l.2665.041c.082.0615.041.2665-.0205.3075-.5535-.0205-.9635-.041-1.476-.041s-.9635.0205-1.5375.041c-.082-.041-.1025-.2255-.0205-.3075l.3075-.041c.7175-.082.738-.246.738-1.5375v-4.4075zm1.0045 1.7425c0 .2255 0 .3485.041.41.041.041.2255.0615.8405.0615.451 0 .902-.041 1.2705-.328.328-.2665.615-.697.615-1.517 0-.984-.594-1.9065-1.9675-1.9065-.7585 0-.7995.041-.7995.3895z"/><path d="m111.99 84.8327c-1.025 0-1.681-.328-1.927-.451-.143-.2665-.307-1.148-.328-1.722.062-.082.246-.1025.287-.041.185.6355.697 1.8245 2.112 1.8245 1.025 0 1.537-.6765 1.537-1.4145 0-.533-.102-1.148-1.004-1.722l-1.169-.7585c-.615-.41-1.332-1.107-1.332-2.1115 0-1.1685.922-2.1115 2.521-2.1115.39 0 .82.082 1.148.164.164.041.328.082.431.082.102.287.225.984.225 1.4965-.041.082-.246.1025-.307.041-.164-.5945-.492-1.394-1.681-1.394-1.21 0-1.476.7995-1.476 1.3735 0 .7175.594 1.23 1.045 1.517l.984.615c.779.4715 1.538 1.189 1.538 2.3575.02 1.3325-1.005 2.255-2.604 2.255z"/><path d="m122.978 78.3752c0-1.312-.02-1.517-.758-1.5785l-.308-.0204c-.082-.0411-.041-.2665.021-.3075.615.0205 1.025.0409 1.558.0409.492 0 .902-.0204 1.537-.0409.082.041.103.2664.021.3075l-.308.0204c-.717.0615-.758.2665-.758 1.5785v4.387c0 1.312.02 1.476.758 1.558l.308.041c.082.041.041.2666-.021.3075-.615-.0205-1.025-.041-1.537-.041-.513 0-.943.0205-1.558.041-.082-.0409-.103-.2255-.021-.3075l.308-.041c.717-.082.758-.2665.758-1.558z"/><path d="m136.652 82.7824c0 1.2915.02 1.476.738 1.5375l.389.041c.082.041.041.2665-.02.3075-.697-.0205-1.128-.041-1.62-.041s-.922.0205-1.722.041c-.082-.041-.102-.246 0-.3075l.451-.041c.697-.0615.759-.246.759-1.5375v-5.5145c0-.3895 0-.3895-.369-.3895h-.677c-.533 0-1.209.0205-1.517.3075-.287.2665-.41.533-.553.8405-.103.082-.267.0205-.328-.082.205-.5535.389-1.353.471-1.845.041-.0205.205-.041.226 0 .082.3895.471.3895 1.045.3895h4.982c.656 0 .779-.0205.963-.3485.062-.0205.205-.0205.226.041-.144.5125-.226 1.4965-.185 1.8655-.041.1025-.266.1025-.328.0205-.041-.3075-.123-.7585-.307-.902-.287-.205-.759-.3075-1.435-.3075h-.882c-.369 0-.348.0205-.348.41v5.5145z"/><path d="m150.694 82.7622c0 1.312.082 1.517.738 1.558l.472.041c.082.082.041.2665-.021.3075-.758-.0205-1.189-.041-1.681-.041-.512 0-.963.0205-1.619.041-.082-.041-.103-.2255-.021-.3075l.39-.041c.717-.082.738-.246.738-1.558v-.6355c0-.6765-.041-.8405-.39-1.517l-1.455-2.829c-.41-.82-.595-.8815-.984-.943l-.349-.0615c-.082-.082-.061-.2665.021-.3075.389.0205.84.041 1.435.041.574 0 1.004-.0205 1.312-.041.102.041.102.2255.041.3075l-.164.0205c-.431.0615-.513.123-.513.2255 0 .123.328.82.39.943.451.902.902 1.886 1.394 2.7265.389-.656.779-1.3735 1.148-2.091.348-.6355.799-1.476.799-1.6195 0-.082-.225-.164-.512-.205l-.226-.0205c-.082-.082-.082-.2665.021-.3075.451.0205.799.041 1.189.041.389 0 .717-.0205 1.148-.041.102.0615.102.2255.02.3075l-.348.0615c-.636.1025-1.005.8815-1.62 1.9475l-.779 1.3325c-.553.943-.574 1.0455-.574 1.9885z"/></g><g mask="url(#a)"><path d="m91.2238 42.9099c1.0455-.574 2.3165-1.394 3.7105-2.419v-12.464l-3.7105-2.46z" fill="#002d72"/></g><g mask="url(#b)"><path d="m91.2238 16.957 3.7105 2.46v-6.2935c-1.23-.0615-2.46-.082-3.7105-.1025z" fill="#002d72"/></g><g mask="url(#c)"><path d="m102.335 13.7796c-1.23-.164-2.4602-.287-3.7107-.3895v8.5075l3.7107 2.46z" fill="#002d72"/></g><g mask="url(#d)"><path d="m98.6243 30.5073v6.765c1.2505-1.23 2.5007-2.665 3.7107-4.305v-.0205z" fill="#002d72"/></g><g mask="url(#e)"><path d="m106.025 14.333v12.464h.02c1.62-3.3415 2.911-7.257 3.649-11.7875l-.123-.0205c-1.168-.2255-2.357-.451-3.546-.656z" fill="#002d72"/></g><g mask="url(#f)"><path d="m94.9343 19.417v8.6305l3.69 2.46v-8.6305z" fill="#002d72"/></g><g mask="url(#g)"><path d="m102.335 24.3574v8.61c1.332-1.7835 2.583-3.8335 3.69-6.1295v-.0205z" fill="#002d72"/></g><g mask="url(#h)"><path d="m83.1057 28.6012c1.0865-.3075 2.05-.902 2.788-1.7425-.41-.1435-.8815-.287-1.4145-.41-.41.902-.9225 1.6195-1.3735 2.1525z" fill="#002d72"/></g><g mask="url(#i)"><path d="m77.2223 26.8787c.738.8201 1.7015 1.4351 2.788 1.7425-.451-.5329-.9635-1.2504-1.3735-2.1524-.533.1024-1.0045.2459-1.4145.4099z" fill="#002d72"/></g><g mask="url(#j)"><path d="m81.0148 17.8999c-.41.451-.8815 1.066-1.271 1.845.3895.0615.82.082 1.271.1025z" fill="#002d72"/></g><g mask="url(#k)"><path d="m84.8483 25.4441c.6765.164 1.23.3485 1.7015.533.4305-.7175.7175-1.558.7995-2.4395h-2.1525c-.0615.697-.1845 1.3325-.3485 1.9065z" fill="#002d72"/></g><g mask="url(#l)"><path d="m80.0103 17.4082c-1.0865.3075-2.05.9225-2.788 1.7425.41.1435.8815.287 1.4145.41.41-.902.9225-1.6195 1.3735-2.1525z" fill="#002d72"/></g><g mask="url(#m)"><path d="m85.8937 19.1302c-.738-.82-1.7015-1.435-2.788-1.7425.451.533.9635 1.2505 1.3735 2.1525.533-.1025 1.0045-.2665 1.4145-.41z" fill="#002d72"/></g><g mask="url(#n)"><path d="m85.1968 22.4712h2.1525c-.082-.8815-.369-1.7015-.7995-2.4395-.4715.1845-1.025.369-1.7015.533.164.574.287 1.2095.3485 1.9065z" fill="#002d72"/></g><g mask="url(#o)"><path d="m82.0808 28.1296c.41-.451.8815-1.066 1.271-1.8655-.3895-.0615-.82-.082-1.271-.1025z" fill="#002d72"/></g><g mask="url(#p)"><path d="m81.0149 23.5376h-2.0295c.041.615.164 1.189.328 1.7015.5125-.082 1.0864-.123 1.6809-.164v-1.5375z" fill="#002d72"/></g><g mask="url(#q)"><path d="m82.0808 25.0956c.615.0205 1.1685.082 1.681.1435.164-.5125.287-1.0865.328-1.7015h-2.0295v1.558z" fill="#002d72"/></g><g mask="url(#r)"><path d="m83.3723 19.7449c-.3895-.7995-.8815-1.4145-1.271-1.8655v1.968c.451-.0205.861-.0615 1.271-.1025z" fill="#002d72"/></g><g mask="url(#s)"><path d="m84.1103 22.4715c-.041-.615-.164-1.189-.328-1.7015-.5125.082-1.0865.123-1.7015.164v1.558h2.0295z" fill="#002d72"/></g><g mask="url(#t)"><path d="m79.7643 26.2641c.3895.779.861 1.4145 1.271 1.845v-1.9475c-.4715.0205-.8815.041-1.271.1025z" fill="#002d72"/></g><g mask="url(#u)"><path d="m78.2677 20.5647c-.6765-.164-1.23-.3485-1.7015-.533-.4305.7175-.7175 1.558-.7995 2.4395h2.173c.041-.697.164-1.3325.328-1.9065z" fill="#002d72"/></g><g mask="url(#v)"><path d="m81.0147 20.9135c-.5945-.0205-1.1685-.082-1.681-.164-.164.5125-.287 1.0865-.328 1.7015h2.0295v-1.5375z" fill="#002d72"/></g><g mask="url(#w)"><path d="m77.9397 23.5376h-2.1525c.082.8815.369 1.7015.7995 2.4395.4715-.1845 1.0455-.369 1.7015-.533-.1845-.574-.3075-1.2095-.3485-1.9065z" fill="#002d72"/></g><g mask="url(#x)"><path d="m71.0107 15.03c2.7265 16.7895 13.2225 24.9895 18.4705 27.88v-29.889c-6.191.0615-12.3615.7175-18.3475 1.9885zm10.537 1.0865c3.7925 0 6.888 3.0955 6.888 6.888s-3.0955 6.888-6.888 6.888-6.888-3.0955-6.888-6.888c.0205-3.7925 3.0955-6.888 6.888-6.888z" fill="#002d72"/></g><g mask="url(#y)"><path d="m109.551 2.19698c-6.212-1.332499-12.6281-2.0295-19.2086-2.0295s-13.0175.697001-19.2085 2.0295h-.0205c-.4305.1025-.7585.5125-.7585.984v3.4645c0 2.2755.1435 4.42802.3895 6.47802 6.437-1.353 13.038-2.05 19.6185-2.05s13.1811.6765 19.5981 2.0295c.246-2.0295.389-4.18202.389-6.47802v-3.4645c0-.4715-.348-.861-.799-.9635zm-4.326 8.58952c-4.817-.92252-10.3521-1.18902-14.8826-1.18902s-10.0655.287-14.883 1.18902c-.1845.041-.3485-.123-.246-.328l3.157-6.99052c.041-.0615 2.0705-1.0865 2.0705-1.0865 2.6035-.5535 6.888-.3075 9.8605.7995h.0205c2.993-1.107 7.257-1.3325 9.8601-.7995 0 0 2.05 1.0045 2.071 1.0865l3.157 6.99052c.164.205 0 .369-.185.328z" fill="#002d72"/></g><g mask="url(#z)"><path d="m99.4033 3.59082 1.3327 3.567c-3.0957-.4305-5.6787-.2255-9.4712 1.0045v.328c3.5875-.1435 8.118-.328 11.7872.451l-1.988-4.592z" fill="#002d72"/></g><g mask="url(#A)"><path d="m79.9283 7.15782 1.3325-3.567-1.6605.7585-1.9885 4.592c3.6695-.779 8.2-.5945 11.7875-.451v-.328c-3.7925-1.23-6.3755-1.435-9.471-1.0045z" fill="#002d72"/></g><g mask="url(#B)"><path d="m6.02589 54.4104c0-3.1365-.287-3.485-1.9475-3.6285l-.697-.0615c-.164-.123-.123-.615.0615-.697 1.64.0615 2.6035.082 3.7925.082 1.1275 0 2.091-.0205 3.21851-.082.164.082.2255.5945.0615.697l-.4305.0615c-1.66051.2255-1.72201.615-1.72201 3.6285v10.496c0 2.2345-.123 4.182-.656 5.4735-.943 2.255-2.9315 4.0795-5.576 4.0795-.328 0-1.209503-.0205-1.209503-.5945 0-.4715.430503-1.312 1.025003-1.312.3485 0 .6765.0615 1.0455.164.3895.1025.7995.205 1.189.205.5945 0 .943-.3485 1.1275-.738.656-1.3325.738-5.576.738-7.093v-10.6805z" fill="#002d72"/></g><g mask="url(#C)"><path d="m10.4333 61.0525c0-4.7765 3.5876-8.4255 8.4871-8.4255 5.5145 0 8.282 3.977 8.282 8.1795 0 4.8175-3.6695 8.323-8.282 8.323-5.289.0205-8.4871-3.772-8.4871-8.077zm14.391.5125c0-3.936-1.7424-8.1795-6.2935-8.1795-2.4805 0-5.699 1.7015-5.699 6.9085 0 3.526 1.722 8.118 6.4165 8.118 2.8495 0 5.576-2.1525 5.576-6.847z" fill="#002d72"/></g><g mask="url(#D)"><path d="m32.6144 61.0526c-1.148 0-1.189.041-1.189.7585v3.362c0 2.501.123 2.829 1.4555 2.9725l.697.082c.1435.1025.1025.533-.041.5945-1.2915-.041-2.091-.0615-3.034-.0615-1.025 0-1.845.041-2.7675.0615-.1435-.0615-.1845-.451-.041-.5945l.41-.082c1.3325-.246 1.3735-.4715 1.3735-2.9725v-8.5895c0-2.501-.164-2.911-1.4145-3.0135l-.615-.041c-.1435-.1025-.1025-.533.041-.5945 1.1685.0205 1.9885.0615 3.0135.0615.9225 0 1.7425-.0205 2.7675-.0615.1435.0615.1845.492.041.5945l-.451.041c-1.3735.1435-1.435.492-1.435 3.0135v2.747c0 .738.041.7585 1.189.7585h6.8265c1.148 0 1.189-.0205 1.189-.7585v-2.747c0-2.501-.041-2.87-1.4555-3.0135l-.451-.041c-.1435-.1025-.1025-.533.041-.5945 1.107.041 1.9065.0615 2.8905.0615.9225 0 1.7425-.0205 2.8085-.0615.1435.0615.1845.492.041.5945l-.492.041c-1.3735.1435-1.435.492-1.435 3.0135v8.5895c0 2.501.041 2.8085 1.435 2.9725l.574.082c.1435.1025.1025.533-.041.5945-1.148-.041-1.9475-.0615-2.8905-.0615-.984 0-1.845.0205-2.8905.0615-.1435-.0615-.1845-.451-.041-.5945l.451-.082c1.4555-.246 1.4555-.4715 1.4555-2.9725v-3.362c0-.7175-.041-.7585-1.189-.7585z" fill="#002d72"/></g><g mask="url(#E)"><path d="m60.8839 64.7016c0 .7175 0 3.5465.0615 4.182-.041.1435-.1845.2665-.451.2665-.287-.41-.984-1.23-3.0545-3.608l-5.535-6.2935c-.6355-.738-2.2755-2.6855-2.7675-3.2185h-.041c-.1025.287-.123.8405-.123 1.558v5.207c0 1.1275.0205 4.223.4305 4.9405.1435.2665.615.41 1.2095.451l.738.082c.1435.1845.123.4715-.041.5945-1.066-.041-1.9065-.0615-2.788-.0615-1.0045 0-1.64.0205-2.4805.0615-.164-.123-.1845-.451-.041-.5945l.6355-.082c.5535-.0615.9225-.205 1.0455-.4715.328-.861.3075-3.772.3075-4.92v-6.888c0-.6765-.0205-1.1685-.533-1.722-.328-.328-.902-.492-1.476-.574l-.41-.041c-.1435-.1435-.1435-.492.041-.5945 1.0045.0615 2.2755.0615 2.6855.0615.3895 0 .779-.0205 1.0865-.0615.4715 1.2095 3.3005 4.3665 4.0795 5.248l2.3165 2.6035c1.64 1.845 2.8085 3.1775 3.936 4.3255h.041c.1025-.123.1025-.492.1025-1.0045v-5.1045c0-1.1275-.0205-4.223-.4715-4.9405-.1435-.205-.533-.3485-1.476-.4715l-.41-.041c-.164-.1435-.1435-.533.041-.5945 1.107.041 1.9065.0615 2.8085.0615 1.025 0 1.64-.0205 2.46-.0615.1845.123.1845.451.041.5945l-.328.041c-.7585.123-1.2505.3075-1.3325.492-.41.861-.3485 3.813-.3485 4.92v5.658z" fill="#002d72"/></g><g mask="url(#F)"><path d="m67.1979 69.15c-2.009 0-3.2595-.615-3.7105-.8815-.287-.533-.5945-2.214-.6355-3.3415.123-.164.4715-.2255.574-.0615.3485 1.2095 1.3325 3.5465 4.1 3.5465 2.009 0 2.9725-1.312 2.9725-2.747 0-1.0455-.205-2.214-1.9475-3.3415l-2.2755-1.476c-1.189-.779-2.583-2.1525-2.583-4.1 0-2.2755 1.763-4.1 4.8585-4.1.738 0 1.599.1435 2.214.3075.3075.1025.6355.1435.8405.1435.205.574.4305 1.9065.4305 2.911-.1025.1435-.4715.205-.5945.082-.3075-1.148-.943-2.706-3.239-2.706-2.337 0-2.829 1.558-2.829 2.6445 0 1.3735 1.148 2.378 2.0295 2.9315l1.9065 1.189c1.4965.9225 2.9725 2.3165 2.9725 4.5715-.0205 2.624-1.9885 4.428-5.084 4.428z" fill="#002d72"/></g><g mask="url(#G)"><path d="m86.4269 59.6379c-1.353 0-1.4145.0615-1.4145.902v3.977c0 2.9725.1435 3.362 1.722 3.526l.82.082c.164.1025.123.615-.0615.697-1.517-.0615-2.4805-.082-3.5875-.082-1.2095 0-2.173.0615-3.28.082-.164-.082-.2255-.533-.0615-.697l.4715-.082c1.5785-.287 1.64-.574 1.64-3.526v-10.168c0-2.9725-.205-3.444-1.6605-3.567l-.738-.0615c-.164-.1025-.123-.615.0615-.697 1.394.0205 2.337.082 3.567.082 1.107 0 2.0705-.0205 3.28-.082.164.082.2255.5945.0615.697l-.533.0615c-1.64.164-1.7015.5945-1.7015 3.567v3.2595c0 .8815.0615.902 1.4145.902h8.077c1.353 0 1.4145-.0205 1.4145-.902v-3.2595c0-2.9725-.0615-3.3825-1.722-3.567l-.533-.0615c-.164-.1025-.1025-.615.0615-.697 1.2915.0615 2.255.082 3.4235.082 1.107 0 2.0705-.0205 3.3416-.082.164.082.225.5945.061.697l-.5941.0615c-1.64.164-1.7015.5945-1.7015 3.567v10.168c0 2.9725.0615 3.3415 1.7015 3.526l.6761.082c.164.1025.123.615-.061.697-1.3531-.0615-2.3166-.082-3.4236-.082-1.1685 0-2.173.0205-3.4235.082-.164-.082-.2255-.533-.0615-.697l.533-.082c1.722-.287 1.722-.574 1.722-3.526v-3.977c0-.8405-.0615-.902-1.4145-.902z" fill="#002d72"/></g><g mask="url(#H)"><path d="m100.428 61.0525c0-4.7765 3.588-8.4255 8.487-8.4255 5.515 0 8.282 3.977 8.282 8.1795 0 4.8175-3.669 8.323-8.282 8.323-5.289.0205-8.487-3.772-8.487-8.077zm14.391.5125c0-3.936-1.742-8.1795-6.293-8.1795-2.481 0-5.699 1.7015-5.699 6.9085 0 3.526 1.722 8.118 6.416 8.118 2.85 0 5.576-2.1525 5.576-6.847z" fill="#002d72"/></g><g mask="url(#I)"><path d="m121.523 65.1936c0 2.501.041 2.8085 1.578 2.9725l.636.0615c.143.123.102.533-.041.5945-1.353-.041-2.153-.0615-3.096-.0615-1.004 0-1.865.0205-2.911.0615-.143-.0615-.184-.451-.041-.5945l.492-.0615c1.374-.1845 1.435-.4715 1.435-2.9725v-8.7945c0-2.0295-.041-2.4395-1.127-2.5625l-.861-.1025c-.164-.1435-.144-.492.041-.5945 1.271-.164 2.747-.1845 4.715-.1845 1.988 0 3.464.2665 4.571.9635s1.907 1.927 1.907 3.567c0 2.1935-1.353 3.3005-2.378 3.7925-1.046.492-2.317.7175-3.301.7175-.164-.0615-.164-.4305-.02-.4715 2.583-.4715 3.505-1.927 3.505-3.9975 0-2.3165-1.353-3.813-3.833-3.813-1.271 0-1.292.1025-1.292.861v10.619z" fill="#002d72"/></g><g mask="url(#J)"><path d="m131.445 56.6041c0-2.501-.041-2.8905-1.435-3.0135l-.595-.041c-.143-.1025-.102-.533.041-.5945 1.169.041 1.927.0615 3.014.0615.922 0 1.742-.0205 2.767-.0615.144.0615.185.492.041.5945l-.451.041c-1.373.1435-1.435.492-1.435 3.0135v2.747c0 .451.041.902.308.902.205 0 .492-.1435.676-.2665.328-.287.964-.902 1.21-1.148l2.583-2.542c.451-.4305 1.619-1.64 1.865-1.9885.123-.164.164-.287.164-.3895s-.102-.164-.41-.246l-.635-.1435c-.164-.164-.144-.4715.041-.5945.84.041 1.783.0615 2.624.0615.84 0 1.64-.0205 2.357-.0615.164.123.185.451.041.5945-.615.041-1.558.287-2.214.6765-.676.3895-2.009 1.4965-3.341 2.7675l-2.153 2.0295c-.328.328-.553.5535-.553.738 0 .164.143.3485.451.738 2.275 2.6035 4.1 4.756 5.965 6.7035.574.574 1.005.8815 1.825.984l.451.0615c.164.123.123.533-.041.5945-.615-.041-1.271-.082-2.399-.082-.984 0-1.824.0205-2.911.082-.164-.041-.246-.451-.102-.5945l.553-.1025c.328-.041.574-.123.574-.246 0-.1435-.164-.328-.328-.5535-.451-.574-1.066-1.2095-1.988-2.2345l-1.907-2.1525c-1.353-1.517-1.742-2.009-2.316-2.009-.349 0-.41.3075-.41 1.148v3.075c0 2.501.041 2.829 1.373 2.9725l.636.0615c.143.1025.102.533-.041.5945-1.169-.041-1.989-.082-2.911-.082-.984 0-1.784.0205-2.768.082-.143-.082-.184-.4305-.041-.5945l.472-.0615c1.271-.1845 1.312-.4715 1.312-2.9725v-8.5485z" fill="#002d72"/></g><g mask="url(#K)"><path d="m147.804 56.6451c0-2.5215-.041-2.9315-1.456-3.0545l-.594-.041c-.144-.1025-.103-.533.041-.5945 1.189.041 2.009.082 3.013.082.964 0 1.763-.0205 2.952-.082.144.082.185.492.041.5945l-.594.041c-1.415.123-1.456.533-1.456 3.0545v8.487c0 2.5215.041 2.87 1.456 3.034l.594.0615c.144.1025.103.533-.041.5945-1.189-.041-2.009-.082-2.952-.082-1.004 0-1.722.0205-2.911.082-.143-.082-.184-.451-.041-.5945l.513-.0615c1.414-.164 1.455-.492 1.455-3.034v-8.487z" fill="#002d72"/></g><g mask="url(#L)"><path d="m168.447 64.7016c0 .7175 0 3.5465.082 4.182-.041.1435-.184.2665-.451.2665-.287-.41-.984-1.23-3.054-3.608l-5.535-6.2935c-.636-.738-2.276-2.6855-2.768-3.2185h-.061c-.103.287-.123.8405-.123 1.558v5.207c0 1.1275.02 4.223.43 4.9405.144.2665.615.41 1.21.451l.738.082c.143.1845.123.4715-.041.5945-1.066-.041-1.907-.0615-2.788-.0615-1.005 0-1.64.0205-2.481.0615-.164-.123-.184-.451-.041-.5945l.636-.082c.553-.0615.922-.205 1.045-.4715.328-.861.308-3.772.308-4.92v-6.888c0-.6765-.021-1.1685-.533-1.722-.328-.328-.902-.492-1.476-.574l-.41-.041c-.144-.1435-.144-.492.041-.5945 1.004.0615 2.255.0615 2.685.0615.39 0 .779-.0205 1.107-.0615.472 1.2095 3.301 4.3665 4.08 5.248l2.316 2.6035c1.64 1.845 2.809 3.1775 3.936 4.3255h.041c.103-.123.103-.492.103-1.0045v-5.1045c0-1.1275-.021-4.223-.472-4.9405-.143-.205-.533-.3485-1.476-.4715l-.41-.041c-.164-.1435-.143-.533.041-.5945 1.107.041 1.907.0615 2.809.0615 1.025 0 1.64-.0205 2.46-.0615.184.123.184.451.041.5945l-.328.041c-.759.123-1.23.3075-1.333.492-.41.861-.348 3.813-.348 4.92v5.658z" fill="#002d72"/></g><g mask="url(#M)"><path d="m174.7 69.15c-2.009 0-3.26-.615-3.731-.8815-.287-.533-.595-2.214-.636-3.3415.123-.164.472-.2255.574-.0615.349 1.2095 1.333 3.5465 4.1 3.5465 2.009 0 2.973-1.312 2.973-2.747 0-1.0455-.226-2.214-1.948-3.3415l-2.255-1.476c-1.189-.779-2.583-2.1525-2.583-4.1 0-2.2755 1.763-4.1 4.859-4.1.738 0 1.599.1435 2.214.3075.307.1025.635.1435.84.1435.226.574.431 1.9065.431 2.911-.103.1435-.472.205-.595.082-.307-1.148-.943-2.706-3.239-2.706-2.337 0-2.829 1.558-2.829 2.6445 0 1.3735 1.148 2.378 2.03 2.9315l1.906 1.189c1.497.9225 2.973 2.3165 2.973 4.5715 0 2.624-1.968 4.428-5.084 4.428z" fill="#002d72"/></g></svg>