<svg width="337" height="210" viewBox="0 0 337 210" fill="none" xmlns="http://www.w3.org/2000/svg">
  <path
    d="M0 12C0 5.37258 5.37258 0 12 0H325C331.627 0 337 5.37258 337 12V198C337 204.627 331.627 210 325 210H12C5.37258 210 0 204.627 0 198V12Z"
    fill="white"/>
  <g>
    <path
      d="M112.201 142.105C112.201 141.347 112.181 139.932 111.976 139.563C111.894 139.42 111.668 139.338 111.361 139.297L111.053 139.276C110.971 139.194 111.012 139.03 111.074 138.989C111.545 139.01 111.996 139.03 112.468 139.03C112.98 139.03 113.308 139.01 113.759 138.989C113.862 139.051 113.841 139.215 113.78 139.276L113.493 139.297C113.185 139.317 112.96 139.44 112.878 139.584C112.714 139.994 112.714 141.408 112.714 142.085V143.479C112.714 144.545 112.55 145.672 111.853 146.41C111.32 146.984 110.418 147.312 109.495 147.312C108.655 147.312 107.794 147.148 107.199 146.636C106.543 146.103 106.236 145.201 106.236 143.725V140.814C106.236 139.543 106.215 139.317 105.498 139.256L105.19 139.235C105.108 139.194 105.149 138.969 105.211 138.948C105.826 138.969 106.236 138.989 106.728 138.989C107.24 138.989 107.63 138.969 108.245 138.948C108.327 138.989 108.347 139.194 108.265 139.235L107.978 139.256C107.261 139.317 107.24 139.522 107.24 140.814V143.479C107.24 145.467 107.855 146.759 109.741 146.759C111.525 146.759 112.201 145.365 112.201 143.479V142.105Z"
      fill="#002D72"/>
    <path
      d="M128.293 145.037C128.293 145.406 128.293 146.861 128.334 147.189C128.314 147.271 128.232 147.333 128.109 147.333C127.965 147.128 127.596 146.697 126.53 145.467L123.681 142.208C123.353 141.818 122.512 140.814 122.246 140.547H122.205C122.164 140.691 122.143 140.978 122.143 141.347V144.032C122.143 144.606 122.164 146.205 122.369 146.574C122.451 146.718 122.697 146.779 123.004 146.8L123.394 146.841C123.476 146.943 123.455 147.087 123.373 147.148C122.82 147.128 122.389 147.107 121.938 147.107C121.426 147.107 121.098 147.128 120.667 147.148C120.585 147.087 120.565 146.923 120.647 146.841L120.975 146.8C121.262 146.759 121.446 146.697 121.508 146.554C121.672 146.123 121.672 144.606 121.672 144.012V140.445C121.672 140.096 121.651 139.85 121.405 139.563C121.241 139.399 120.934 139.297 120.647 139.276L120.442 139.256C120.36 139.174 120.36 138.989 120.462 138.948C120.975 138.989 121.631 138.989 121.856 138.989C122.061 138.989 122.266 138.969 122.43 138.948C122.676 139.584 124.132 141.203 124.542 141.654L125.731 143.007C126.571 143.95 127.186 144.647 127.76 145.242H127.781C127.822 145.18 127.822 144.975 127.822 144.729V142.105C127.822 141.531 127.801 139.932 127.576 139.563C127.494 139.44 127.309 139.379 126.817 139.317L126.612 139.297C126.53 139.215 126.53 139.03 126.633 138.989C127.207 139.01 127.617 139.03 128.088 139.03C128.621 139.03 128.929 139.01 129.359 138.989C129.462 139.051 129.462 139.215 129.38 139.297L129.216 139.317C128.826 139.379 128.58 139.481 128.519 139.584C128.314 140.035 128.334 141.552 128.334 142.126V145.037H128.293Z"
      fill="#002D72"/>
    <path
      d="M137.457 140.875C137.457 139.563 137.437 139.358 136.699 139.297L136.391 139.276C136.309 139.235 136.35 139.01 136.412 138.969C137.027 138.989 137.437 139.01 137.97 139.01C138.462 139.01 138.872 138.989 139.487 138.969C139.569 139.01 139.589 139.235 139.507 139.276L139.2 139.297C138.482 139.358 138.441 139.563 138.441 140.875V145.262C138.441 146.574 138.462 146.738 139.2 146.82L139.507 146.861C139.589 146.902 139.548 147.128 139.487 147.169C138.872 147.148 138.462 147.128 137.97 147.128C137.457 147.128 137.027 147.148 136.412 147.169C136.33 147.128 136.309 146.943 136.391 146.861L136.699 146.82C137.416 146.738 137.457 146.554 137.457 145.262V140.875Z"
      fill="#002D72"/>
    <path
      d="M147.441 140.322C147.154 139.625 146.969 139.379 146.436 139.317L146.211 139.297C146.129 139.215 146.129 139.051 146.231 138.989C146.58 139.01 146.99 139.03 147.502 139.03C148.035 139.03 148.466 139.01 148.999 138.989C149.081 139.03 149.101 139.215 149.019 139.297L148.835 139.317C148.363 139.379 148.261 139.461 148.261 139.543C148.281 139.666 148.486 140.342 148.876 141.265C149.45 142.7 150.003 144.114 150.618 145.508C151.008 144.688 151.52 143.438 151.807 142.782C152.156 141.941 152.75 140.547 152.955 140.014C153.058 139.748 153.058 139.625 153.058 139.543C153.058 139.461 152.935 139.358 152.504 139.317L152.279 139.297C152.197 139.215 152.217 139.03 152.299 138.989C152.648 139.01 153.119 139.03 153.57 139.03C153.98 139.03 154.349 139.01 154.759 138.989C154.841 139.03 154.841 139.235 154.78 139.297L154.411 139.317C154.124 139.338 153.939 139.481 153.775 139.748C153.427 140.322 152.955 141.326 152.402 142.577L151.746 144.094C151.254 145.221 150.68 146.656 150.475 147.312C150.434 147.333 150.393 147.353 150.331 147.353C150.27 147.353 150.208 147.333 150.147 147.312C150.003 146.8 149.798 146.185 149.573 145.672L147.441 140.322Z"
      fill="#002D72"/>
    <path
      d="M162.262 140.855C162.262 139.563 162.241 139.379 161.503 139.297L161.298 139.276C161.216 139.235 161.257 139.01 161.319 138.969C161.852 138.989 162.262 139.01 162.774 139.01H165.091C165.87 139.01 166.608 139.01 166.751 138.969C166.833 139.174 166.895 140.055 166.956 140.609C166.915 140.691 166.71 140.711 166.649 140.629C166.464 140.055 166.362 139.625 165.706 139.461C165.439 139.399 165.05 139.379 164.517 139.379H163.635C163.266 139.379 163.266 139.399 163.266 139.871V142.331C163.266 142.679 163.307 142.679 163.676 142.679H164.394C164.906 142.679 165.296 142.659 165.439 142.597C165.583 142.556 165.665 142.474 165.726 142.167L165.829 141.654C165.89 141.572 166.095 141.572 166.157 141.675C166.157 141.962 166.116 142.454 166.116 142.925C166.116 143.376 166.157 143.848 166.157 144.114C166.116 144.196 165.89 144.196 165.829 144.135L165.706 143.663C165.665 143.438 165.583 143.253 165.316 143.192C165.152 143.151 164.845 143.13 164.373 143.13H163.656C163.287 143.13 163.246 143.151 163.246 143.458V145.201C163.246 145.857 163.287 146.267 163.471 146.472C163.615 146.615 163.881 146.759 164.968 146.759C165.911 146.759 166.28 146.718 166.546 146.574C166.772 146.451 167.1 146.021 167.428 145.385C167.51 145.324 167.694 145.365 167.735 145.467C167.653 145.898 167.346 146.841 167.182 147.169C166.075 147.148 164.988 147.128 163.881 147.128H162.795C162.262 147.128 161.852 147.148 161.114 147.169C161.032 147.128 161.011 146.943 161.093 146.861L161.503 146.82C162.2 146.759 162.262 146.574 162.262 145.283V140.855Z"
      fill="#002D72"/>
    <path
      d="M175.607 140.875C175.607 139.707 175.566 139.502 175.074 139.44L174.685 139.399C174.603 139.338 174.603 139.133 174.705 139.092C175.402 139.03 176.243 138.989 177.452 138.989C178.211 138.989 178.949 139.051 179.502 139.358C180.097 139.666 180.527 140.219 180.527 141.08C180.527 142.249 179.605 142.884 178.99 143.13C178.928 143.212 178.99 143.335 179.051 143.417C180.035 144.996 180.691 146 181.532 146.697C181.737 146.882 182.044 147.025 182.372 147.046C182.434 147.066 182.454 147.169 182.393 147.21C182.29 147.251 182.085 147.271 181.86 147.271C180.814 147.271 180.179 146.964 179.318 145.713C178.99 145.262 178.498 144.401 178.108 143.848C177.924 143.581 177.719 143.458 177.227 143.458C176.673 143.458 176.653 143.479 176.653 143.725V145.283C176.653 146.574 176.673 146.718 177.391 146.82L177.657 146.861C177.739 146.923 177.698 147.128 177.637 147.169C177.083 147.148 176.673 147.128 176.161 147.128C175.648 147.128 175.197 147.148 174.623 147.169C174.541 147.128 174.521 146.943 174.603 146.861L174.91 146.82C175.628 146.738 175.648 146.574 175.648 145.283V140.875H175.607ZM176.612 142.618C176.612 142.843 176.612 142.966 176.653 143.028C176.694 143.069 176.878 143.089 177.493 143.089C177.944 143.089 178.395 143.048 178.764 142.761C179.092 142.495 179.379 142.064 179.379 141.244C179.379 140.26 178.785 139.338 177.411 139.338C176.653 139.338 176.612 139.379 176.612 139.727V142.618Z"
      fill="#002D72"/>
    <path
      d="M190.49 147.333C189.465 147.333 188.809 147.005 188.563 146.882C188.42 146.615 188.256 145.734 188.235 145.16C188.297 145.078 188.481 145.057 188.522 145.119C188.707 145.754 189.219 146.943 190.634 146.943C191.659 146.943 192.171 146.267 192.171 145.529C192.171 144.996 192.069 144.381 191.167 143.807L189.998 143.048C189.383 142.638 188.666 141.941 188.666 140.937C188.666 139.768 189.588 138.825 191.187 138.825C191.577 138.825 192.007 138.907 192.335 138.989C192.499 139.03 192.663 139.071 192.766 139.071C192.868 139.358 192.991 140.055 192.991 140.568C192.95 140.65 192.745 140.67 192.684 140.609C192.52 140.014 192.192 139.215 191.003 139.215C189.793 139.215 189.527 140.014 189.527 140.588C189.527 141.306 190.121 141.818 190.572 142.105L191.556 142.72C192.335 143.192 193.094 143.909 193.094 145.078C193.114 146.41 192.089 147.333 190.49 147.333Z"
      fill="#002D72"/>
    <path
      d="M201.478 140.875C201.478 139.563 201.458 139.358 200.72 139.297L200.412 139.276C200.33 139.235 200.371 139.01 200.433 138.969C201.048 138.989 201.458 139.01 201.991 139.01C202.483 139.01 202.893 138.989 203.528 138.969C203.61 139.01 203.631 139.235 203.549 139.276L203.241 139.297C202.524 139.358 202.483 139.563 202.483 140.875V145.262C202.483 146.574 202.503 146.738 203.241 146.82L203.549 146.861C203.631 146.902 203.59 147.128 203.528 147.169C202.913 147.148 202.503 147.128 201.991 147.128C201.478 147.128 201.048 147.148 200.433 147.169C200.351 147.128 200.33 146.943 200.412 146.861L200.72 146.82C201.437 146.738 201.478 146.554 201.478 145.262V140.875Z"
      fill="#002D72"/>
    <path
      d="M215.152 145.282C215.152 146.574 215.172 146.758 215.89 146.82L216.279 146.861C216.361 146.902 216.32 147.127 216.259 147.168C215.562 147.148 215.131 147.127 214.639 147.127C214.147 147.127 213.717 147.148 212.917 147.168C212.835 147.127 212.815 146.922 212.917 146.861L213.368 146.82C214.065 146.758 214.127 146.574 214.127 145.282V139.768C214.127 139.378 214.127 139.378 213.758 139.378H213.081C212.548 139.378 211.872 139.399 211.564 139.686C211.277 139.952 211.154 140.219 211.011 140.526C210.908 140.608 210.744 140.547 210.683 140.444C210.888 139.891 211.072 139.091 211.154 138.599C211.195 138.579 211.359 138.558 211.38 138.599C211.462 138.989 211.851 138.989 212.425 138.989H217.407C218.063 138.989 218.186 138.968 218.37 138.64C218.432 138.62 218.575 138.62 218.596 138.681C218.452 139.194 218.37 140.178 218.411 140.547C218.37 140.649 218.145 140.649 218.083 140.567C218.042 140.26 217.96 139.809 217.776 139.665C217.489 139.46 217.017 139.358 216.341 139.358H215.459C215.09 139.358 215.111 139.378 215.111 139.768V145.282H215.152Z"
      fill="#002D72"/>
    <path
      d="M229.194 145.262C229.194 146.574 229.276 146.779 229.932 146.82L230.404 146.861C230.486 146.943 230.445 147.128 230.383 147.169C229.625 147.148 229.194 147.128 228.702 147.128C228.19 147.128 227.739 147.148 227.083 147.169C227.001 147.128 226.98 146.943 227.062 146.861L227.452 146.82C228.169 146.738 228.19 146.574 228.19 145.262V144.627C228.19 143.95 228.149 143.786 227.8 143.11L226.345 140.281C225.935 139.461 225.75 139.399 225.361 139.338L225.012 139.276C224.93 139.194 224.951 139.01 225.033 138.969C225.422 138.989 225.873 139.01 226.468 139.01C227.042 139.01 227.472 138.989 227.78 138.969C227.882 139.01 227.882 139.194 227.821 139.276L227.657 139.297C227.226 139.358 227.144 139.42 227.144 139.522C227.144 139.645 227.472 140.342 227.534 140.465C227.985 141.367 228.436 142.351 228.928 143.192C229.317 142.536 229.707 141.818 230.076 141.101C230.424 140.465 230.875 139.625 230.875 139.481C230.875 139.399 230.65 139.317 230.363 139.276L230.137 139.256C230.055 139.174 230.055 138.989 230.158 138.948C230.609 138.969 230.957 138.989 231.347 138.989C231.736 138.989 232.064 138.969 232.495 138.948C232.597 139.01 232.597 139.174 232.515 139.256L232.167 139.317C231.531 139.42 231.162 140.199 230.547 141.265L229.768 142.597C229.215 143.54 229.194 143.643 229.194 144.586V145.262Z"
      fill="#002D72"/>
    <mask id="mask0_353_2928" style="mask-type:luminance" maskUnits="userSpaceOnUse" x="148" y="62" width="41"
          height="44">
      <path d="M188.85 62.6675H148.854V105.758H188.85V62.6675Z" fill="white"/>
    </mask>
    <g mask="url(#mask0_353_2928)">
      <path d="M169.724 105.41C170.769 104.836 172.04 104.016 173.434 102.991V90.5269L169.724 88.0669V105.41Z"
            fill="#002D72"/>
    </g>
    <mask id="mask1_353_2928" style="mask-type:luminance" maskUnits="userSpaceOnUse" x="148" y="62" width="41"
          height="44">
      <path d="M188.85 62.6675H148.854V105.758H188.85V62.6675Z" fill="white"/>
    </mask>
    <g mask="url(#mask1_353_2928)">
      <path d="M169.724 79.457L173.434 81.917V75.6235C172.204 75.562 170.974 75.5415 169.724 75.521V79.457Z"
            fill="#002D72"/>
    </g>
    <mask id="mask2_353_2928" style="mask-type:luminance" maskUnits="userSpaceOnUse" x="148" y="62" width="41"
          height="44">
      <path d="M188.85 62.6675H148.854V105.758H188.85V62.6675Z" fill="white"/>
    </mask>
    <g mask="url(#mask2_353_2928)">
      <path d="M180.835 76.2796C179.605 76.1156 178.375 75.9926 177.124 75.8901V84.3976L180.835 86.8576V76.2796Z"
            fill="#002D72"/>
    </g>
    <mask id="mask3_353_2928" style="mask-type:luminance" maskUnits="userSpaceOnUse" x="148" y="62" width="41"
          height="44">
      <path d="M188.85 62.6675H148.854V105.758H188.85V62.6675Z" fill="white"/>
    </mask>
    <g mask="url(#mask3_353_2928)">
      <path d="M177.124 93.0073V99.7723C178.375 98.5423 179.625 97.1073 180.835 95.4673V95.4468L177.124 93.0073Z"
            fill="#002D72"/>
    </g>
    <mask id="mask4_353_2928" style="mask-type:luminance" maskUnits="userSpaceOnUse" x="148" y="62" width="41"
          height="44">
      <path d="M188.85 62.6675H148.854V105.758H188.85V62.6675Z" fill="white"/>
    </mask>
    <g mask="url(#mask4_353_2928)">
      <path
        d="M184.524 76.833V89.297H184.544C186.164 85.9555 187.455 82.04 188.193 77.5095L188.07 77.489C186.902 77.2635 185.713 77.038 184.524 76.833Z"
        fill="#002D72"/>
    </g>
    <mask id="mask5_353_2928" style="mask-type:luminance" maskUnits="userSpaceOnUse" x="148" y="62" width="41"
          height="44">
      <path d="M188.85 62.6675H148.854V105.758H188.85V62.6675Z" fill="white"/>
    </mask>
    <g mask="url(#mask5_353_2928)">
      <path d="M173.434 81.917V90.5475L177.124 93.0075V84.377L173.434 81.917Z" fill="#002D72"/>
    </g>
    <mask id="mask6_353_2928" style="mask-type:luminance" maskUnits="userSpaceOnUse" x="148" y="62" width="41"
          height="44">
      <path d="M188.85 62.6675H148.854V105.758H188.85V62.6675Z" fill="white"/>
    </mask>
    <g mask="url(#mask6_353_2928)">
      <path d="M180.835 86.8574V95.4674C182.167 93.6839 183.418 91.6339 184.525 89.3379V89.3174L180.835 86.8574Z"
            fill="#002D72"/>
    </g>
    <mask id="mask7_353_2928" style="mask-type:luminance" maskUnits="userSpaceOnUse" x="148" y="62" width="41"
          height="44">
      <path d="M188.85 62.6675H148.854V105.758H188.85V62.6675Z" fill="white"/>
    </mask>
    <g mask="url(#mask7_353_2928)">
      <path
        d="M161.605 91.1012C162.692 90.7937 163.655 90.1992 164.393 89.3587C163.983 89.2152 163.512 89.0717 162.979 88.9487C162.569 89.8507 162.056 90.5682 161.605 91.1012Z"
        fill="#002D72"/>
    </g>
    <mask id="mask8_353_2928" style="mask-type:luminance" maskUnits="userSpaceOnUse" x="148" y="62" width="41"
          height="44">
      <path d="M188.85 62.6675H148.854V105.758H188.85V62.6675Z" fill="white"/>
    </mask>
    <g mask="url(#mask8_353_2928)">
      <path
        d="M155.722 89.3787C156.46 90.1988 157.423 90.8138 158.51 91.1212C158.059 90.5883 157.546 89.8708 157.136 88.9688C156.603 89.0711 156.132 89.2147 155.722 89.3787Z"
        fill="#002D72"/>
    </g>
    <mask id="mask9_353_2928" style="mask-type:luminance" maskUnits="userSpaceOnUse" x="148" y="62" width="41"
          height="44">
      <path d="M188.85 62.6675H148.854V105.758H188.85V62.6675Z" fill="white"/>
    </mask>
    <g mask="url(#mask9_353_2928)">
      <path
        d="M159.514 80.3999C159.104 80.8509 158.633 81.4659 158.243 82.2449C158.633 82.3064 159.063 82.3269 159.514 82.3474V80.3999Z"
        fill="#002D72"/>
    </g>
    <mask id="mask10_353_2928" style="mask-type:luminance" maskUnits="userSpaceOnUse" x="148" y="62" width="41"
          height="44">
      <path d="M188.85 62.6675H148.854V105.758H188.85V62.6675Z" fill="white"/>
    </mask>
    <g mask="url(#mask10_353_2928)">
      <path
        d="M163.348 87.9441C164.024 88.1081 164.578 88.2926 165.049 88.4771C165.48 87.7596 165.767 86.9191 165.849 86.0376H163.696C163.635 86.7346 163.512 87.3701 163.348 87.9441Z"
        fill="#002D72"/>
    </g>
    <mask id="mask11_353_2928" style="mask-type:luminance" maskUnits="userSpaceOnUse" x="148" y="62" width="41"
          height="44">
      <path d="M188.85 62.6675H148.854V105.758H188.85V62.6675Z" fill="white"/>
    </mask>
    <g mask="url(#mask11_353_2928)">
      <path
        d="M158.51 79.9082C157.423 80.2157 156.46 80.8307 155.722 81.6507C156.132 81.7942 156.603 81.9377 157.136 82.0607C157.546 81.1587 158.059 80.4412 158.51 79.9082Z"
        fill="#002D72"/>
    </g>
    <mask id="mask12_353_2928" style="mask-type:luminance" maskUnits="userSpaceOnUse" x="148" y="62" width="41"
          height="44">
      <path d="M188.85 62.6675H148.854V105.758H188.85V62.6675Z" fill="white"/>
    </mask>
    <g mask="url(#mask12_353_2928)">
      <path
        d="M164.393 81.6302C163.655 80.8102 162.692 80.1952 161.605 79.8877C162.056 80.4207 162.569 81.1382 162.979 82.0402C163.512 81.9377 163.983 81.7737 164.393 81.6302Z"
        fill="#002D72"/>
    </g>
    <mask id="mask13_353_2928" style="mask-type:luminance" maskUnits="userSpaceOnUse" x="148" y="62" width="41"
          height="44">
      <path d="M188.85 62.6675H148.854V105.758H188.85V62.6675Z" fill="white"/>
    </mask>
    <g mask="url(#mask13_353_2928)">
      <path
        d="M163.696 84.9712H165.849C165.767 84.0897 165.48 83.2697 165.049 82.5317C164.578 82.7162 164.024 82.9007 163.348 83.0647C163.512 83.6387 163.635 84.2742 163.696 84.9712Z"
        fill="#002D72"/>
    </g>
    <mask id="mask14_353_2928" style="mask-type:luminance" maskUnits="userSpaceOnUse" x="148" y="62" width="41"
          height="44">
      <path d="M188.85 62.6675H148.854V105.758H188.85V62.6675Z" fill="white"/>
    </mask>
    <g mask="url(#mask14_353_2928)">
      <path
        d="M160.58 90.6296C160.99 90.1786 161.462 89.5636 161.851 88.7641C161.462 88.7026 161.031 88.6821 160.58 88.6616V90.6296Z"
        fill="#002D72"/>
    </g>
    <mask id="mask15_353_2928" style="mask-type:luminance" maskUnits="userSpaceOnUse" x="148" y="62" width="41"
          height="44">
      <path d="M188.85 62.6675H148.854V105.758H188.85V62.6675Z" fill="white"/>
    </mask>
    <g mask="url(#mask15_353_2928)">
      <path
        d="M159.515 86.0376H157.485C157.526 86.6526 157.649 87.2266 157.813 87.7391C158.326 87.6571 158.9 87.6161 159.494 87.5751V86.0376H159.515Z"
        fill="#002D72"/>
    </g>
    <mask id="mask16_353_2928" style="mask-type:luminance" maskUnits="userSpaceOnUse" x="148" y="62" width="41"
          height="44">
      <path d="M188.85 62.6675H148.854V105.758H188.85V62.6675Z" fill="white"/>
    </mask>
    <g mask="url(#mask16_353_2928)">
      <path
        d="M160.58 87.5956C161.195 87.6161 161.749 87.6776 162.261 87.7391C162.425 87.2266 162.548 86.6526 162.589 86.0376H160.56V87.5956H160.58Z"
        fill="#002D72"/>
    </g>
    <mask id="mask17_353_2928" style="mask-type:luminance" maskUnits="userSpaceOnUse" x="148" y="62" width="41"
          height="44">
      <path d="M188.85 62.6675H148.854V105.758H188.85V62.6675Z" fill="white"/>
    </mask>
    <g mask="url(#mask17_353_2928)">
      <path
        d="M161.872 82.2449C161.482 81.4454 160.99 80.8304 160.601 80.3794V82.3474C161.052 82.3269 161.462 82.2859 161.872 82.2449Z"
        fill="#002D72"/>
    </g>
    <mask id="mask18_353_2928" style="mask-type:luminance" maskUnits="userSpaceOnUse" x="148" y="62" width="41"
          height="44">
      <path d="M188.85 62.6675H148.854V105.758H188.85V62.6675Z" fill="white"/>
    </mask>
    <g mask="url(#mask18_353_2928)">
      <path
        d="M162.61 84.9715C162.569 84.3565 162.446 83.7825 162.282 83.27C161.769 83.352 161.195 83.393 160.58 83.434V84.992H162.61V84.9715Z"
        fill="#002D72"/>
    </g>
    <mask id="mask19_353_2928" style="mask-type:luminance" maskUnits="userSpaceOnUse" x="148" y="62" width="41"
          height="44">
      <path d="M188.85 62.6675H148.854V105.758H188.85V62.6675Z" fill="white"/>
    </mask>
    <g mask="url(#mask19_353_2928)">
      <path
        d="M158.264 88.7641C158.653 89.5431 159.125 90.1786 159.535 90.6091V88.6616C159.063 88.6821 158.653 88.7026 158.264 88.7641Z"
        fill="#002D72"/>
    </g>
    <mask id="mask20_353_2928" style="mask-type:luminance" maskUnits="userSpaceOnUse" x="148" y="62" width="41"
          height="44">
      <path d="M188.85 62.6675H148.854V105.758H188.85V62.6675Z" fill="white"/>
    </mask>
    <g mask="url(#mask20_353_2928)">
      <path
        d="M156.768 83.0647C156.091 82.9007 155.538 82.7162 155.066 82.5317C154.636 83.2492 154.349 84.0897 154.267 84.9712H156.44C156.481 84.2742 156.604 83.6387 156.768 83.0647Z"
        fill="#002D72"/>
    </g>
    <mask id="mask21_353_2928" style="mask-type:luminance" maskUnits="userSpaceOnUse" x="148" y="62" width="41"
          height="44">
      <path d="M188.85 62.6675H148.854V105.758H188.85V62.6675Z" fill="white"/>
    </mask>
    <g mask="url(#mask21_353_2928)">
      <path
        d="M159.514 83.4135C158.919 83.393 158.345 83.3315 157.833 83.2495C157.669 83.762 157.546 84.336 157.505 84.951H159.534V83.4135H159.514Z"
        fill="#002D72"/>
    </g>
    <mask id="mask22_353_2928" style="mask-type:luminance" maskUnits="userSpaceOnUse" x="148" y="62" width="41"
          height="44">
      <path d="M188.85 62.6675H148.854V105.758H188.85V62.6675Z" fill="white"/>
    </mask>
    <g mask="url(#mask22_353_2928)">
      <path
        d="M156.44 86.0376H154.287C154.369 86.9191 154.656 87.7391 155.087 88.4771C155.558 88.2926 156.132 88.1081 156.788 87.9441C156.604 87.3701 156.481 86.7346 156.44 86.0376Z"
        fill="#002D72"/>
    </g>
    <mask id="mask23_353_2928" style="mask-type:luminance" maskUnits="userSpaceOnUse" x="148" y="62" width="41"
          height="44">
      <path d="M188.85 62.6675H148.854V105.758H188.85V62.6675Z" fill="white"/>
    </mask>
    <g mask="url(#mask23_353_2928)">
      <path
        d="M149.511 77.53C152.237 94.3195 162.733 102.519 167.981 105.41V75.521C161.79 75.5825 155.62 76.2385 149.634 77.5095L149.511 77.53ZM160.048 78.6165C163.84 78.6165 166.936 81.712 166.936 85.5045C166.936 89.297 163.84 92.3925 160.048 92.3925C156.255 92.3925 153.16 89.297 153.16 85.5045C153.18 81.712 156.255 78.6165 160.048 78.6165Z"
        fill="#002D72"/>
    </g>
    <mask id="mask24_353_2928" style="mask-type:luminance" maskUnits="userSpaceOnUse" x="148" y="62" width="41"
          height="44">
      <path d="M188.85 62.6675H148.854V105.758H188.85V62.6675Z" fill="white"/>
    </mask>
    <g mask="url(#mask24_353_2928)">
      <path
        d="M188.051 64.697C181.839 63.3645 175.422 62.6675 168.842 62.6675C162.261 62.6675 155.824 63.3645 149.633 64.697H149.613C149.182 64.7995 148.854 65.2095 148.854 65.681V69.1455C148.854 71.421 148.998 73.5735 149.244 75.6235C155.681 74.2705 162.282 73.5735 168.862 73.5735C175.443 73.5735 182.044 74.25 188.461 75.603C188.707 73.5735 188.85 71.421 188.85 69.125V65.6605C188.85 65.189 188.502 64.7995 188.051 64.697ZM183.725 73.2865C178.908 72.364 173.372 72.0975 168.842 72.0975C164.311 72.0975 158.776 72.3845 153.959 73.2865C153.774 73.3275 153.61 73.1635 153.713 72.9585L156.87 65.968C156.911 65.9065 158.94 64.8815 158.94 64.8815C161.544 64.328 165.828 64.574 168.801 65.681H168.821C171.814 64.574 176.078 64.3485 178.682 64.8815C178.682 64.8815 180.732 65.886 180.753 65.968L183.91 72.9585C184.074 73.1635 183.91 73.3275 183.725 73.2865Z"
        fill="#002D72"/>
    </g>
    <mask id="mask25_353_2928" style="mask-type:luminance" maskUnits="userSpaceOnUse" x="148" y="62" width="41"
          height="44">
      <path d="M188.85 62.6675H148.854V105.758H188.85V62.6675Z" fill="white"/>
    </mask>
    <g mask="url(#mask25_353_2928)">
      <path
        d="M177.903 66.0908L179.236 69.6578C176.14 69.2273 173.557 69.4323 169.765 70.6623V70.9903C173.352 70.8468 177.883 70.6623 181.552 71.4413L179.564 66.8493L177.903 66.0908Z"
        fill="#002D72"/>
    </g>
    <mask id="mask26_353_2928" style="mask-type:luminance" maskUnits="userSpaceOnUse" x="148" y="62" width="41"
          height="44">
      <path d="M188.85 62.6675H148.854V105.758H188.85V62.6675Z" fill="white"/>
    </mask>
    <g mask="url(#mask26_353_2928)">
      <path
        d="M158.428 69.6578L159.76 66.0908L158.1 66.8493L156.111 71.4413C159.781 70.6623 164.311 70.8468 167.899 70.9903V70.6623C164.106 69.4323 161.523 69.2273 158.428 69.6578Z"
        fill="#002D72"/>
    </g>
    <mask id="mask27_353_2928" style="mask-type:luminance" maskUnits="userSpaceOnUse" x="79" y="112" width="180"
          height="25">
      <path d="M258.284 112.523H79.4219V136.959H258.284V112.523Z" fill="white"/>
    </mask>
    <g mask="url(#mask27_353_2928)">
      <path
        d="M84.5264 116.91C84.5264 113.774 84.2394 113.425 82.5789 113.282L81.8819 113.22C81.7179 113.097 81.7589 112.605 81.9434 112.523C83.5834 112.585 84.5469 112.605 85.7359 112.605C86.8634 112.605 87.8269 112.585 88.9544 112.523C89.1184 112.605 89.1799 113.118 89.0159 113.22L88.5854 113.282C86.9249 113.507 86.8634 113.897 86.8634 116.91V127.406C86.8634 129.641 86.7404 131.588 86.2074 132.88C85.2644 135.135 83.2759 136.959 80.6314 136.959C80.3034 136.959 79.4219 136.939 79.4219 136.365C79.4219 135.893 79.8524 135.053 80.4469 135.053C80.7954 135.053 81.1234 135.114 81.4924 135.217C81.8819 135.319 82.2919 135.422 82.6814 135.422C83.2759 135.422 83.6244 135.073 83.8089 134.684C84.4649 133.351 84.5469 129.108 84.5469 127.591V116.91H84.5264Z"
        fill="#002D72"/>
    </g>
    <mask id="mask28_353_2928" style="mask-type:luminance" maskUnits="userSpaceOnUse" x="79" y="112" width="180"
          height="25">
      <path d="M258.284 112.523H79.4219V136.959H258.284V112.523Z" fill="white"/>
    </mask>
    <g mask="url(#mask28_353_2928)">
      <path
        d="M88.9336 123.552C88.9336 118.776 92.5212 115.127 97.4207 115.127C102.935 115.127 105.703 119.104 105.703 123.306C105.703 128.124 102.033 131.629 97.4207 131.629C92.1317 131.65 88.9336 127.857 88.9336 123.552ZM103.325 124.065C103.325 120.129 101.582 115.885 97.0311 115.885C94.5506 115.885 91.3321 117.587 91.3321 122.794C91.3321 126.32 93.0541 130.912 97.7486 130.912C100.598 130.912 103.325 128.759 103.325 124.065Z"
        fill="#002D72"/>
    </g>
    <mask id="mask29_353_2928" style="mask-type:luminance" maskUnits="userSpaceOnUse" x="79" y="112" width="180"
          height="25">
      <path d="M258.284 112.523H79.4219V136.959H258.284V112.523Z" fill="white"/>
    </mask>
    <g mask="url(#mask29_353_2928)">
      <path
        d="M111.115 123.553C109.967 123.553 109.926 123.594 109.926 124.311V127.673C109.926 130.174 110.049 130.502 111.381 130.646L112.078 130.728C112.222 130.83 112.181 131.261 112.037 131.322C110.746 131.281 109.946 131.261 109.003 131.261C107.978 131.261 107.158 131.302 106.236 131.322C106.092 131.261 106.051 130.871 106.195 130.728L106.605 130.646C107.937 130.4 107.978 130.174 107.978 127.673V119.084C107.978 116.583 107.814 116.173 106.564 116.07L105.949 116.029C105.805 115.927 105.846 115.496 105.99 115.435C107.158 115.455 107.978 115.496 109.003 115.496C109.926 115.496 110.746 115.476 111.771 115.435C111.914 115.496 111.955 115.927 111.812 116.029L111.361 116.07C109.987 116.214 109.926 116.562 109.926 119.084V121.831C109.926 122.569 109.967 122.589 111.115 122.589H117.941C119.089 122.589 119.13 122.569 119.13 121.831V119.084C119.13 116.583 119.089 116.214 117.675 116.07L117.224 116.029C117.08 115.927 117.121 115.496 117.265 115.435C118.372 115.476 119.171 115.496 120.155 115.496C121.078 115.496 121.898 115.476 122.964 115.435C123.107 115.496 123.148 115.927 123.005 116.029L122.513 116.07C121.139 116.214 121.078 116.562 121.078 119.084V127.673C121.078 130.174 121.119 130.482 122.513 130.646L123.087 130.728C123.23 130.83 123.189 131.261 123.046 131.322C121.898 131.281 121.098 131.261 120.155 131.261C119.171 131.261 118.31 131.281 117.265 131.322C117.121 131.261 117.08 130.871 117.224 130.728L117.675 130.646C119.13 130.4 119.13 130.174 119.13 127.673V124.311C119.13 123.594 119.089 123.553 117.941 123.553H111.115Z"
        fill="#002D72"/>
    </g>
    <mask id="mask30_353_2928" style="mask-type:luminance" maskUnits="userSpaceOnUse" x="79" y="112" width="180"
          height="25">
      <path d="M258.284 112.523H79.4219V136.959H258.284V112.523Z" fill="white"/>
    </mask>
    <g mask="url(#mask30_353_2928)">
      <path
        d="M139.384 127.202C139.384 127.919 139.384 130.748 139.446 131.384C139.405 131.527 139.261 131.65 138.995 131.65C138.708 131.24 138.011 130.42 135.94 128.042L130.405 121.749C129.77 121.011 128.13 119.063 127.638 118.53H127.597C127.494 118.817 127.474 119.371 127.474 120.088V125.295C127.474 126.423 127.494 129.518 127.904 130.236C128.048 130.502 128.519 130.646 129.114 130.687L129.852 130.769C129.995 130.953 129.975 131.24 129.811 131.363C128.745 131.322 127.904 131.302 127.023 131.302C126.018 131.302 125.383 131.322 124.542 131.363C124.378 131.24 124.358 130.912 124.501 130.769L125.137 130.687C125.69 130.625 126.059 130.482 126.182 130.215C126.51 129.354 126.49 126.443 126.49 125.295V118.407C126.49 117.731 126.469 117.239 125.957 116.685C125.629 116.357 125.055 116.193 124.481 116.111L124.071 116.07C123.927 115.927 123.927 115.578 124.112 115.476C125.116 115.537 126.387 115.537 126.797 115.537C127.187 115.537 127.576 115.517 127.884 115.476C128.355 116.685 131.184 119.842 131.963 120.724L134.28 123.327C135.92 125.172 137.088 126.505 138.216 127.653H138.257C138.359 127.53 138.359 127.161 138.359 126.648V121.544C138.359 120.416 138.339 117.321 137.888 116.603C137.744 116.398 137.355 116.255 136.412 116.132L136.002 116.091C135.838 115.947 135.858 115.558 136.043 115.496C137.15 115.537 137.949 115.558 138.851 115.558C139.876 115.558 140.491 115.537 141.311 115.496C141.496 115.619 141.496 115.947 141.352 116.091L141.024 116.132C140.266 116.255 139.774 116.439 139.692 116.624C139.282 117.485 139.343 120.437 139.343 121.544V127.202H139.384Z"
        fill="#002D72"/>
    </g>
    <mask id="mask31_353_2928" style="mask-type:luminance" maskUnits="userSpaceOnUse" x="79" y="112" width="180"
          height="25">
      <path d="M258.284 112.523H79.4219V136.959H258.284V112.523Z" fill="white"/>
    </mask>
    <g mask="url(#mask31_353_2928)">
      <path
        d="M145.699 131.65C143.69 131.65 142.439 131.035 141.988 130.768C141.701 130.235 141.394 128.554 141.353 127.427C141.476 127.263 141.824 127.201 141.927 127.365C142.275 128.575 143.259 130.912 146.027 130.912C148.036 130.912 148.999 129.6 148.999 128.165C148.999 127.119 148.794 125.951 147.052 124.823L144.776 123.347C143.587 122.568 142.193 121.195 142.193 119.247C142.193 116.972 143.956 115.147 147.052 115.147C147.79 115.147 148.651 115.291 149.266 115.455C149.573 115.557 149.901 115.598 150.106 115.598C150.311 116.172 150.537 117.505 150.537 118.509C150.434 118.653 150.065 118.714 149.942 118.591C149.635 117.443 148.999 115.885 146.703 115.885C144.366 115.885 143.874 117.443 143.874 118.53C143.874 119.903 145.022 120.908 145.904 121.461L147.81 122.65C149.307 123.573 150.783 124.967 150.783 127.222C150.762 129.846 148.794 131.65 145.699 131.65Z"
        fill="#002D72"/>
    </g>
    <mask id="mask32_353_2928" style="mask-type:luminance" maskUnits="userSpaceOnUse" x="79" y="112" width="180"
          height="25">
      <path d="M258.284 112.523H79.4219V136.959H258.284V112.523Z" fill="white"/>
    </mask>
    <g mask="url(#mask32_353_2928)">
      <path
        d="M164.928 122.138C163.575 122.138 163.513 122.199 163.513 123.04V127.017C163.513 129.989 163.657 130.379 165.235 130.543L166.055 130.625C166.219 130.727 166.178 131.24 165.994 131.322C164.477 131.26 163.513 131.24 162.406 131.24C161.197 131.24 160.233 131.301 159.126 131.322C158.962 131.24 158.901 130.789 159.065 130.625L159.536 130.543C161.115 130.256 161.176 129.969 161.176 127.017V116.849C161.176 113.876 160.971 113.405 159.516 113.282L158.778 113.22C158.614 113.118 158.655 112.605 158.839 112.523C160.233 112.544 161.176 112.605 162.406 112.605C163.513 112.605 164.477 112.585 165.686 112.523C165.85 112.605 165.912 113.118 165.748 113.22L165.215 113.282C163.575 113.446 163.513 113.876 163.513 116.849V120.108C163.513 120.99 163.575 121.01 164.928 121.01H173.005C174.358 121.01 174.419 120.99 174.419 120.108V116.849C174.419 113.876 174.358 113.466 172.697 113.282L172.164 113.22C172 113.118 172.062 112.605 172.226 112.523C173.517 112.585 174.481 112.605 175.649 112.605C176.756 112.605 177.72 112.585 178.991 112.523C179.155 112.605 179.216 113.118 179.052 113.22L178.458 113.282C176.818 113.446 176.756 113.876 176.756 116.849V127.017C176.756 129.989 176.818 130.358 178.458 130.543L179.134 130.625C179.298 130.727 179.257 131.24 179.073 131.322C177.72 131.26 176.756 131.24 175.649 131.24C174.481 131.24 173.476 131.26 172.226 131.322C172.062 131.24 172 130.789 172.164 130.625L172.697 130.543C174.419 130.256 174.419 129.969 174.419 127.017V123.04C174.419 122.199 174.358 122.138 173.005 122.138H164.928Z"
        fill="#002D72"/>
    </g>
    <mask id="mask33_353_2928" style="mask-type:luminance" maskUnits="userSpaceOnUse" x="79" y="112" width="180"
          height="25">
      <path d="M258.284 112.523H79.4219V136.959H258.284V112.523Z" fill="white"/>
    </mask>
    <g mask="url(#mask33_353_2928)">
      <path
        d="M178.929 123.552C178.929 118.776 182.517 115.127 187.416 115.127C192.931 115.127 195.698 119.104 195.698 123.306C195.698 128.124 192.029 131.629 187.416 131.629C182.127 131.65 178.929 127.857 178.929 123.552ZM193.32 124.065C193.32 120.129 191.578 115.885 187.027 115.885C184.546 115.885 181.328 117.587 181.328 122.794C181.328 126.32 183.05 130.912 187.744 130.912C190.594 130.912 193.32 128.759 193.32 124.065Z"
        fill="#002D72"/>
    </g>
    <mask id="mask34_353_2928" style="mask-type:luminance" maskUnits="userSpaceOnUse" x="79" y="112" width="180"
          height="25">
      <path d="M258.284 112.523H79.4219V136.959H258.284V112.523Z" fill="white"/>
    </mask>
    <g mask="url(#mask34_353_2928)">
      <path
        d="M200.024 127.694C200.024 130.195 200.065 130.502 201.602 130.666L202.238 130.728C202.381 130.851 202.34 131.261 202.197 131.322C200.844 131.281 200.044 131.261 199.101 131.261C198.097 131.261 197.236 131.281 196.19 131.322C196.047 131.261 196.006 130.871 196.149 130.728L196.641 130.666C198.015 130.482 198.076 130.195 198.076 127.694V118.899C198.076 116.87 198.035 116.46 196.949 116.337L196.088 116.234C195.924 116.091 195.944 115.742 196.129 115.64C197.4 115.476 198.876 115.455 200.844 115.455C202.832 115.455 204.308 115.722 205.415 116.419C206.522 117.116 207.322 118.346 207.322 119.986C207.322 122.179 205.969 123.286 204.944 123.778C203.898 124.27 202.627 124.496 201.643 124.496C201.479 124.434 201.479 124.065 201.623 124.024C204.206 123.553 205.128 122.097 205.128 120.027C205.128 117.71 203.775 116.214 201.295 116.214C200.024 116.214 200.003 116.316 200.003 117.075V127.694H200.024Z"
        fill="#002D72"/>
    </g>
    <mask id="mask35_353_2928" style="mask-type:luminance" maskUnits="userSpaceOnUse" x="79" y="112" width="180"
          height="25">
      <path d="M258.284 112.523H79.4219V136.959H258.284V112.523Z" fill="white"/>
    </mask>
    <g mask="url(#mask35_353_2928)">
      <path
        d="M209.945 119.104C209.945 116.603 209.904 116.214 208.51 116.091L207.915 116.05C207.772 115.947 207.813 115.517 207.956 115.455C209.125 115.496 209.883 115.517 210.97 115.517C211.892 115.517 212.712 115.496 213.737 115.455C213.881 115.517 213.922 115.947 213.778 116.05L213.327 116.091C211.954 116.234 211.892 116.583 211.892 119.104V121.851C211.892 122.302 211.933 122.753 212.2 122.753C212.405 122.753 212.692 122.61 212.876 122.487C213.204 122.2 213.84 121.585 214.086 121.339L216.669 118.797C217.12 118.366 218.288 117.157 218.534 116.808C218.657 116.644 218.698 116.521 218.698 116.419C218.698 116.316 218.596 116.255 218.288 116.173L217.653 116.029C217.489 115.865 217.509 115.558 217.694 115.435C218.534 115.476 219.477 115.496 220.318 115.496C221.158 115.496 221.958 115.476 222.675 115.435C222.839 115.558 222.86 115.886 222.716 116.029C222.101 116.07 221.158 116.316 220.502 116.706C219.826 117.095 218.493 118.202 217.161 119.473L215.008 121.503C214.68 121.831 214.455 122.056 214.455 122.241C214.455 122.405 214.598 122.589 214.906 122.979C217.181 125.582 219.006 127.735 220.871 129.682C221.445 130.256 221.876 130.564 222.696 130.666L223.147 130.728C223.311 130.851 223.27 131.261 223.106 131.322C222.491 131.281 221.835 131.24 220.707 131.24C219.723 131.24 218.883 131.261 217.796 131.322C217.632 131.281 217.55 130.871 217.694 130.728L218.247 130.625C218.575 130.584 218.821 130.502 218.821 130.379C218.821 130.236 218.657 130.051 218.493 129.826C218.042 129.252 217.427 128.616 216.505 127.591L214.598 125.439C213.245 123.922 212.856 123.43 212.282 123.43C211.933 123.43 211.872 123.737 211.872 124.578V127.653C211.872 130.154 211.913 130.482 213.245 130.625L213.881 130.687C214.024 130.789 213.983 131.22 213.84 131.281C212.671 131.24 211.851 131.199 210.929 131.199C209.945 131.199 209.145 131.22 208.161 131.281C208.018 131.199 207.977 130.851 208.12 130.687L208.592 130.625C209.863 130.441 209.904 130.154 209.904 127.653V119.104H209.945Z"
        fill="#002D72"/>
    </g>
    <mask id="mask36_353_2928" style="mask-type:luminance" maskUnits="userSpaceOnUse" x="79" y="112" width="180"
          height="25">
      <path d="M258.284 112.523H79.4219V136.959H258.284V112.523Z" fill="white"/>
    </mask>
    <g mask="url(#mask36_353_2928)">
      <path
        d="M226.305 119.145C226.305 116.624 226.264 116.214 224.849 116.091L224.255 116.05C224.111 115.947 224.152 115.517 224.296 115.455C225.485 115.496 226.305 115.537 227.309 115.537C228.273 115.537 229.072 115.517 230.261 115.455C230.405 115.537 230.446 115.947 230.302 116.05L229.708 116.091C228.293 116.214 228.252 116.624 228.252 119.145V127.632C228.252 130.154 228.293 130.502 229.708 130.666L230.302 130.728C230.446 130.83 230.405 131.261 230.261 131.322C229.072 131.281 228.252 131.24 227.309 131.24C226.305 131.24 225.587 131.261 224.398 131.322C224.255 131.24 224.214 130.871 224.357 130.728L224.87 130.666C226.284 130.502 226.325 130.174 226.325 127.632V119.145H226.305Z"
        fill="#002D72"/>
    </g>
    <mask id="mask37_353_2928" style="mask-type:luminance" maskUnits="userSpaceOnUse" x="79" y="112" width="180"
          height="25">
      <path d="M258.284 112.523H79.4219V136.959H258.284V112.523Z" fill="white"/>
    </mask>
    <g mask="url(#mask37_353_2928)">
      <path
        d="M246.948 127.202C246.948 127.919 246.948 130.748 247.03 131.384C246.989 131.527 246.846 131.65 246.579 131.65C246.292 131.24 245.595 130.42 243.525 128.042L237.99 121.749C237.354 121.011 235.714 119.063 235.222 118.53H235.161C235.058 118.817 235.038 119.371 235.038 120.088V125.295C235.038 126.423 235.058 129.518 235.468 130.236C235.612 130.502 236.083 130.646 236.678 130.687L237.416 130.769C237.559 130.953 237.539 131.24 237.375 131.363C236.309 131.322 235.468 131.302 234.587 131.302C233.582 131.302 232.947 131.322 232.106 131.363C231.942 131.24 231.922 130.912 232.065 130.769L232.701 130.687C233.254 130.625 233.623 130.482 233.746 130.215C234.074 129.354 234.054 126.443 234.054 125.295V118.407C234.054 117.731 234.033 117.239 233.521 116.685C233.193 116.357 232.619 116.193 232.045 116.111L231.635 116.07C231.491 115.927 231.491 115.578 231.676 115.476C232.68 115.537 233.931 115.537 234.361 115.537C234.751 115.537 235.14 115.517 235.468 115.476C235.94 116.685 238.769 119.842 239.548 120.724L241.864 123.327C243.504 125.172 244.673 126.505 245.8 127.653H245.841C245.944 127.53 245.944 127.161 245.944 126.648V121.544C245.944 120.416 245.923 117.321 245.472 116.603C245.329 116.398 244.939 116.255 243.996 116.132L243.586 116.091C243.422 115.947 243.443 115.558 243.627 115.496C244.734 115.537 245.534 115.558 246.436 115.558C247.461 115.558 248.076 115.537 248.896 115.496C249.08 115.619 249.08 115.947 248.937 116.091L248.609 116.132C247.85 116.255 247.379 116.439 247.276 116.624C246.866 117.485 246.928 120.437 246.928 121.544V127.202H246.948Z"
        fill="#002D72"/>
    </g>
    <mask id="mask38_353_2928" style="mask-type:luminance" maskUnits="userSpaceOnUse" x="79" y="112" width="180"
          height="25">
      <path d="M258.284 112.523H79.4219V136.959H258.284V112.523Z" fill="white"/>
    </mask>
    <g mask="url(#mask38_353_2928)">
      <path
        d="M253.2 131.65C251.191 131.65 249.94 131.035 249.469 130.768C249.182 130.235 248.874 128.554 248.833 127.427C248.956 127.263 249.305 127.201 249.407 127.365C249.756 128.575 250.74 130.912 253.507 130.912C255.516 130.912 256.48 129.6 256.48 128.165C256.48 127.119 256.254 125.951 254.532 124.823L252.277 123.347C251.088 122.568 249.694 121.195 249.694 119.247C249.694 116.972 251.457 115.147 254.553 115.147C255.291 115.147 256.152 115.291 256.767 115.455C257.074 115.557 257.402 115.598 257.607 115.598C257.833 116.172 258.038 117.505 258.038 118.509C257.935 118.653 257.566 118.714 257.443 118.591C257.136 117.443 256.5 115.885 254.204 115.885C251.867 115.885 251.375 117.443 251.375 118.53C251.375 119.903 252.523 120.908 253.405 121.461L255.311 122.65C256.808 123.573 258.284 124.967 258.284 127.222C258.284 129.846 256.316 131.65 253.2 131.65Z"
        fill="#002D72"/>
    </g>
  </g>
</svg>
