<svg width="469" height="145" viewBox="0 0 469 145" fill="none" xmlns="http://www.w3.org/2000/svg">
  <path
    d="M170.945 105.395C170.945 116.401 177.214 120.999 184.319 120.999C188.743 120.999 194.037 119.188 194.037 119.188L194.838 120.686C192.922 122.566 187.628 126.607 180.976 126.607C171.955 126.607 163.874 119.884 163.874 107.52C163.874 96.2698 171.641 88.1196 181.289 88.1196C188.812 88.1196 194.664 92.6127 194.664 101.181C194.664 103.41 194.281 105.36 194.281 105.36H170.945V105.395ZM182.578 102.4C186.374 102.226 187.733 101.529 187.733 97.663C187.733 94.3542 185.364 91.8116 180.279 91.8116C174.985 91.8116 170.945 96.4788 170.945 102.818L182.578 102.4Z"
    fill="#4E2A84"/>
  <path
    d="M114.834 120.059L116.366 121.974L121.486 123.751L121.347 125.771H103.375V123.716L108.599 121.73V103.758C108.599 96.4788 107.171 94.0059 102.887 94.0059V92.0902L114.451 87.9106H115.078C115.078 87.9106 114.834 93.3789 114.834 99.0562V120.059Z"
    fill="#4E2A84"/>
  <path
    d="M140.573 89.0947V91.1497L135.279 92.8912L144.056 116.889L153.147 93.0653L147.609 91.1497V89.0947H161.68V91.3238C159.625 91.3238 157.082 92.3687 154.331 99.0909L144.3 126.188H140.503L129.462 97.1404C127.721 92.9608 125.735 91.3587 123.193 91.3587V89.1296H140.573V89.0947Z"
    fill="#4E2A84"/>
  <path
    d="M236.564 125.178C236.007 124.935 234.579 124.168 234.509 122.497L234.021 114.973H237.504C238.445 120.128 241.928 123.437 246.456 123.437C251.053 123.437 252.864 121.068 252.864 117.899C252.864 114.904 250.426 113.301 247.396 111.734L243.356 109.679C237.574 106.753 234.718 104.385 234.718 98.6729C234.718 91.5328 239.873 88.1543 247.849 88.1543C253.456 88.1543 257.81 90.2789 257.81 90.2789L256.765 99.5436H253.561C253.561 93.7619 251.192 91.6373 246.351 91.6373C243.112 91.6373 240.082 92.8911 240.082 96.0607C240.082 98.6032 241.127 99.7178 247.361 102.957L250.914 104.768C257.392 108.077 259.238 110.863 259.238 116.262C259.238 122.74 252.76 126.641 246.421 126.641C242.415 126.606 238.863 126.154 236.564 125.178Z"
    fill="#4E2A84"/>
  <path
    d="M93.2045 121.974L91.7068 120.059L91.7764 100.031C91.7764 90.7667 85.7509 88.1545 79.586 88.1545C74.3615 88.1545 67.0124 94.2497 67.0124 94.2497C67.0124 90.9408 67.1517 87.9106 67.1517 87.9106H66.5248L54.9613 92.0902V94.0059C59.3847 94.0059 60.5689 97.9765 60.5689 105.082V121.696L55.3444 123.681V125.736H73.5256L73.6649 123.716L68.5449 121.939L67.0473 120.024V97.3147C67.0473 97.3147 69.8336 93.5879 74.8143 93.5879C79.9691 93.5879 85.2633 95.3991 85.2633 104.211L85.0194 121.765L79.9691 123.681V125.736H98.1503L98.2896 123.716L93.2045 121.974Z"
    fill="#4E2A84"/>
  <path
    d="M228.135 88.6421C228.1 88.6421 226.742 88.1545 224.165 88.1545C218.627 88.1545 212.845 96.8619 212.845 96.8619C212.845 92.0206 213.019 87.9106 213.019 87.9106H212.392L201.072 92.0902V94.0059C205.356 94.0059 206.68 97.872 206.68 104.455V121.696L201.456 123.681V125.736H219.637V123.716L214.517 121.939L213.019 120.024V103.096C213.019 97.872 217.129 94.9463 221.552 94.9463C222.458 94.9463 223.398 95.1553 224.199 95.4339L225.453 97.2799L226.986 97.4192L228.135 88.6421Z"
    fill="#4E2A84"/>
  <path
    d="M278.395 120.059L279.892 121.974L285.012 123.751L284.873 125.771H266.901V123.716L272.125 121.73V103.758C272.125 96.4788 270.697 94.0059 266.413 94.0059V92.0902L277.977 87.9106H278.604C278.604 87.9106 278.36 93.3789 278.36 99.0562L278.395 120.059Z"
    fill="#4E2A84"/>
  <path
    d="M46.01 108.147C46.01 121.835 36.2576 126.363 26.9232 126.363C12.8868 126.363 7.13987 119.78 7.13987 107.589V84.5319C7.13987 77.8098 5.32872 76.3121 -0.000244141 76.0683V73.4561H21.6291V75.8245L14.28 78.1233V104.106C14.28 119.78 20.619 122.079 27.8288 122.079C35.352 122.079 41.0641 118.596 41.0641 105.848V96.2348V78.1233L33.924 75.9638V73.4561H52.9411V76.2773L47.5425 77.148L46.0448 79.0288V89.1991L46.01 108.147Z"
    fill="#4E2A84"/>
  <path
    d="M299.188 89.4085V80.0044L294.59 80.8055L292.605 89.7568L286.127 90.3837V93.4835C289.679 93.4835 292.605 93.797 292.605 97.2103C292.605 100.624 292.292 111.316 292.292 115.566C292.292 123.646 295.392 126.642 300.512 126.642C304.935 126.642 308.592 124.83 311.901 122.148L311.03 120.337C311.03 120.337 308.801 121.765 305.492 121.765C301.94 121.765 298.7 119.78 298.77 114.869L299.084 94.1453H316.847C317.404 94.9464 317.926 95.9216 318.449 97.1407L329.037 125.806C327.156 131.866 322.698 136.498 318.101 136.812C314.13 137.09 312.005 136.568 312.005 136.568L312.946 144.335C322.454 144.892 328.654 137.752 333.809 124.308L343.039 99.126C345.581 92.4038 348.507 91.3589 350.562 91.3589V89.1298H335.829V91.1848L341.367 93.1004L333.043 116.924L323.952 92.9263L329.246 91.1848V89.4433L299.188 89.4085Z"
    fill="#4E2A84"/>
  <path
    d="M111.56 81.8501C110.654 81.8501 106.614 77.3919 106.614 76.5212C106.614 75.6853 110.584 71.1226 111.56 71.1226C112.605 71.1226 116.506 75.6853 116.506 76.5212C116.506 77.3223 112.465 81.8501 111.56 81.8501Z"
    fill="#4E2A84"/>
  <path
    d="M275.121 81.8501C274.215 81.8501 270.175 77.3919 270.175 76.5212C270.175 75.6853 274.145 71.1226 275.121 71.1226C276.166 71.1226 280.066 75.6853 280.066 76.5212C280.066 77.3223 276.026 81.8501 275.121 81.8501Z"
    fill="#4E2A84"/>
  <path
    d="M1.81103 3.90088V5.99067L7.0355 11.8421V52.0705L-0.00012207 54.0558V56.3894H19.0866V54.021L13.0611 52.4188L11.5286 50.538V16.9969L44.9652 56.8074H47.9257V8.9512L54.9962 6.82658V4.31884H35.6308V7.14005L41.7957 8.67257L43.2934 10.5534V42.353L43.2585 42.3182H42.8754L10.414 3.90088H1.81103Z"
    fill="#4E2A84"/>
  <path
    d="M74.4661 57.2601C65.0272 57.2601 55.9714 51.1997 55.9714 38.3127C55.9714 25.4953 65.5496 19.0518 74.4661 19.0518C83.7308 19.0518 93.1 24.8683 93.1 37.6857C93.1 50.0155 83.2084 57.2601 74.4661 57.2601ZM85.7858 38.7654C85.7858 29.9535 80.9793 22.4651 73.4212 22.4651C66.6642 22.4651 63.2857 28.3513 63.2857 37.1633C63.2857 45.9752 67.5349 53.6726 75.4761 53.6726C82.268 53.7423 85.7858 47.5774 85.7858 38.7654Z"
    fill="#4E2A84"/>
  <path
    d="M191.181 35.004C191.181 26.192 186.235 24.4505 180.488 24.4505C175.612 24.4505 172.477 28.0728 172.477 28.0728V33.8894V50.7122L173.975 52.593L179.06 54.3694V56.3547H160.74V54.2997L165.929 52.3492V14.4196C165.929 7.55807 164.188 5.67726 160.426 5.67726V3.86611L172.094 0H172.895C172.895 0 172.512 8.11535 172.512 14.1757V25.1123C172.512 25.1123 180.07 19.0519 185.26 19.0519C191.703 19.0519 197.694 21.7338 197.694 31.2424V50.7471L199.192 52.6279L204.277 54.4042V56.3895H185.956V54.3345L191.007 52.4189L191.181 35.004Z"
    fill="#4E2A84"/>
  <path
    d="M267.598 36.188C267.598 47.1246 273.797 51.6873 280.903 51.6873C285.291 51.6873 290.585 49.8762 290.585 49.8762L291.386 51.3738C289.506 53.2547 284.246 57.2601 277.629 57.2601C268.677 57.2601 260.632 50.5728 260.632 38.3127C260.632 27.1323 268.329 19.0518 277.942 19.0518C285.43 19.0518 291.247 23.5448 291.247 32.0433C291.247 34.2376 290.864 36.2229 290.864 36.2229H267.598V36.188ZM279.161 33.1927C282.923 33.0185 284.281 32.3219 284.281 28.4558C284.281 25.147 281.913 22.6392 276.897 22.6392C271.638 22.6392 267.632 27.2716 267.632 33.5758L279.161 33.1927Z"
    fill="#4E2A84"/>
  <path
    d="M300.86 55.8322C300.303 55.5884 298.909 54.8222 298.805 53.1503L298.317 45.6619H301.766C302.706 50.7819 306.154 54.0907 310.647 54.0907C315.21 54.0907 317.021 51.7223 317.021 48.5876C317.021 45.5923 314.583 44.0249 311.588 42.4576L307.582 40.4026C301.835 37.5117 299.014 35.1433 299.014 29.466C299.014 22.3956 304.134 19.0171 312.075 19.0171C317.648 19.0171 322.002 21.1417 322.002 21.1417L320.992 30.3368H317.752C317.752 24.5899 315.384 22.4652 310.577 22.4652C307.338 22.4652 304.378 23.7191 304.378 26.8538C304.378 29.3616 305.388 30.4761 311.622 33.7153L315.175 35.5264C321.619 38.8353 323.43 41.5868 323.43 46.9158C323.43 53.3593 316.986 57.2254 310.682 57.2254C306.711 57.2603 303.159 56.8075 300.86 55.8322Z"
    fill="#4E2A84"/>
  <path
    d="M364.808 36.188C364.808 47.1246 371.007 51.6873 378.112 51.6873C382.501 51.6873 387.795 49.8762 387.795 49.8762L388.596 51.3738C386.715 53.2547 381.456 57.2601 374.838 57.2601C365.887 57.2601 357.842 50.5728 357.842 38.3127C357.842 27.1323 365.539 19.0518 375.152 19.0518C382.64 19.0518 388.457 23.5448 388.457 32.0433C388.457 34.2376 388.074 36.2229 388.074 36.2229H364.808V36.188ZM376.371 33.1927C380.133 33.0185 381.491 32.3219 381.491 28.4558C381.491 25.147 379.123 22.6392 374.107 22.6392C368.848 22.6392 364.842 27.2716 364.842 33.5758L376.371 33.1927Z"
    fill="#4E2A84"/>
  <path
    d="M463.759 52.628L462.261 50.7472L462.331 30.8246C462.331 21.6295 456.34 19.0172 450.21 19.0172C445.021 19.0172 437.706 25.0776 437.706 25.0776C437.706 21.7688 437.881 18.7734 437.881 18.7734H437.254L425.76 22.953V24.8338C430.148 24.8338 431.333 28.7696 431.333 35.8401V52.3494L426.143 54.2999V56.3548H444.22L444.359 54.3695L439.274 52.5932L437.776 50.7124V28.1427C437.776 28.1427 440.528 24.4507 445.473 24.4507C450.593 24.4507 455.853 26.2619 455.853 35.0041L455.609 52.4539L450.593 54.3347V56.3897H468.67L468.809 54.4044L463.759 52.628Z"
    fill="#4E2A84"/>
  <path
    d="M239.141 56.8075L230.713 33.4367L221.065 56.8075H217.756L208.282 27.9336C206.959 24.3112 206.192 22.1866 203.65 22.1866V19.9924H219.184V22.2215L214.447 23.7888L221.518 47.7169L227.752 32.7401L229.18 28.9436L227.056 22.8484L224.374 22.1866V19.9924H239.385V22.3608L234.648 23.7888L242.624 47.7169L250.914 23.963L245.55 22.0125V19.9575H259.621V22.1518C256.382 22.5349 254.815 23.4057 252.307 29.8492L242.833 56.7378H239.141V56.8075Z"
    fill="#4E2A84"/>
  <path
    d="M155.341 50.9908C155.341 50.9908 153.147 52.4188 149.838 52.4188C146.285 52.4188 143.081 50.4684 143.15 45.5574L143.464 24.9381H155.097H155.202L155.376 23.6494L156.177 17.1711L154.679 16.8924L153.565 19.3653L152.938 19.9226L143.673 20.2709H143.568V10.9365L139.006 11.7376L137.055 20.6192L130.577 21.2462V24.3112C134.13 24.3112 137.02 24.6246 137.02 28.0031C137.02 31.3816 136.707 42.0047 136.707 46.254C136.707 54.2648 139.772 57.2602 144.892 57.2602C149.281 57.2602 152.903 55.449 156.212 52.7672L155.341 50.9908Z"
    fill="#4E2A84"/>
  <path
    d="M353.174 50.9908C353.174 50.9908 350.98 52.4188 347.671 52.4188C344.119 52.4188 340.914 50.4684 340.984 45.5574L341.297 24.9381H352.931H352.965L353.14 23.6494L353.941 17.1711L352.443 16.8924L351.328 19.3653L350.701 19.9226L341.437 20.2709V10.9365L336.804 11.7028L334.854 20.5844L328.375 21.2462V24.3112C331.928 24.3112 334.819 24.6246 334.819 28.0031C334.819 31.3816 334.506 42.0047 334.506 46.254C334.506 54.2648 337.571 57.2602 342.691 57.2602C347.079 57.2602 350.701 55.449 354.01 52.7672L353.174 50.9908Z"
    fill="#4E2A84"/>
  <path
    d="M125.039 19.5049C125.004 19.5049 123.681 19.0172 121.103 19.0172C115.6 19.0172 109.853 27.655 109.853 27.655C109.853 22.8485 110.027 18.7734 110.027 18.7734H109.366L98.1155 22.953V24.8338C102.365 24.8338 103.688 28.6999 103.688 35.2131V52.3494L98.4986 54.2999V56.3548H116.575V54.3695L111.49 52.5932L109.992 50.7124V33.8896C109.992 28.6999 114.068 25.7742 118.491 25.7742C119.397 25.7742 120.302 25.9832 121.103 26.2619L122.322 28.073L123.82 28.2123L125.039 19.5049Z"
    fill="#4E2A84"/>
  <path
    d="M421.092 19.5049C421.058 19.5049 419.734 19.0172 417.157 19.0172C411.654 19.0172 405.907 27.655 405.907 27.655C405.907 22.8485 406.081 18.7734 406.081 18.7734H405.454L394.204 22.953V24.8338C398.453 24.8338 399.777 28.6999 399.777 35.2131V52.3494L394.587 54.2999V56.3548H412.664V54.3695L407.578 52.5932L406.081 50.7124V33.8896C406.081 28.6999 410.156 25.7742 414.579 25.7742C415.485 25.7742 416.39 25.9832 417.192 26.2619L418.411 28.073L419.943 28.2123L421.092 19.5049Z"
    fill="#4E2A84"/>
</svg>
