<svg width="180" height="52" viewBox="0 0 180 52" fill="none" xmlns="http://www.w3.org/2000/svg">
  <path
    d="M19.7519 51.0862C16.361 48.5507 13.3154 45.5885 10.6991 42.2812L10.4688 41.9894L19.9932 32.7209L29.5479 42.0115L29.3158 42.3041C26.6959 45.6013 23.6446 48.5563 20.2465 51.0862L19.9988 51.2707L19.7519 51.0862Z"
    fill="white"/>
  <path
    d="M19.9933 32.145L19.417 32.7048L10.4476 41.4327L9.91357 41.9522L10.3761 42.5376C13.0135 45.8733 16.0858 48.8604 19.505 51.417L19.9987 51.7868L20.4934 51.4188C23.9209 48.8659 26.9969 45.8853 29.6388 42.5624L30.1041 41.976L29.5682 41.4548L20.5695 32.7048L19.9933 32.145ZM19.9933 33.2977L28.9918 42.0476C26.381 45.3328 23.3527 48.2574 19.9996 50.7554C16.6107 48.2217 13.5998 45.2814 11.0239 42.0246L19.9933 33.2977Z"
    fill="white"/>
  <path
    d="M20.0029 23.6939L6.73897 36.4347L6.47745 35.9686C4.09977 31.7372 2.39472 27.214 1.41102 22.5274L1.3064 22.03H38.7087L38.4756 23.1735C37.4616 27.6857 35.807 31.9996 33.5542 36.0052L33.2927 36.4705L20.0029 23.6939Z"
    fill="white"/>
  <path
    d="M39.2169 21.6167H0.797729L1.00698 22.6124C1.99992 27.3402 3.71872 31.901 6.11747 36.1718L6.63963 37.1015L7.40957 36.3618L20.0027 24.2669L32.6216 36.3975L33.3915 37.1363L33.9136 36.2067C36.1867 32.168 37.856 27.8156 38.8774 23.2695L38.9461 22.9234L39.0085 22.6114L39.2169 21.6167ZM38.2001 22.4426C38.1551 22.6592 38.1165 22.872 38.0707 23.0886C37.0475 27.644 35.3856 31.9065 33.1942 35.802L20.0027 23.1208L6.83787 35.7662C4.50699 31.6192 2.80009 27.1328 1.81544 22.4425L38.2001 22.4426Z"
    fill="white"/>
  <path
    d="M19.9949 33.8735L10.9852 42.6399L10.7007 42.2812C9.12233 40.2852 7.6981 38.1617 6.46937 35.9685L6.31335 35.6886L19.9948 22.5476L33.7021 35.7263L33.5461 36.0034C32.3081 38.2085 30.8857 40.3283 29.3165 42.3041L29.033 42.6619L19.9949 33.8735Z"
    fill="white"/>
  <path
    d="M19.9949 21.9751L19.4232 22.5248L6.2574 35.1712L5.79675 35.6135L6.10878 36.1706C7.34853 38.3812 8.78466 40.5239 10.3777 42.5383L10.9458 43.2558L11.6019 42.6171L19.9948 34.4499L28.4171 42.6401L29.0724 43.277L29.6404 42.5603C31.2225 40.568 32.6577 38.4289 33.9067 36.2072L34.2196 35.6484L33.7589 35.207L20.5674 22.5257L19.9949 21.9751ZM19.9949 23.1213L33.1864 35.8026C31.9568 37.9922 30.5548 40.0803 28.9936 42.0473L19.9948 33.2973L11.0256 42.0253C9.46002 40.0469 8.05598 37.9546 6.8291 35.7669L19.9949 23.1213Z"
    fill="white"/>
  <path
    d="M19.9949 33.8735L10.9852 42.6399L10.7007 42.2812C9.12233 40.2852 7.6981 38.1617 6.46937 35.9685L6.31335 35.6886L19.9948 22.5476L33.7021 35.7263L33.5461 36.0034C32.3081 38.2085 30.8857 40.3283 29.3165 42.3041L29.033 42.6619L19.9949 33.8735Z"
    fill="white"/>
  <path
    d="M19.9949 21.9751L19.4232 22.5248L6.2574 35.1712L5.79675 35.6135L6.10878 36.1706C7.34853 38.3812 8.78466 40.5239 10.3777 42.5383L10.9458 43.2558L11.6019 42.6171L19.9948 34.4499L28.4171 42.6401L29.0724 43.277L29.6404 42.5603C31.2225 40.568 32.6577 38.4289 33.9067 36.2072L34.2196 35.6484L33.7589 35.207L20.5674 22.5257L19.9949 21.9751ZM19.9949 23.1213L33.1864 35.8026C31.9568 37.9922 30.5548 40.0803 28.9936 42.0473L19.9948 33.2973L11.0256 42.0253C9.46002 40.0469 8.05598 37.9546 6.8291 35.7669L19.9949 23.1213Z"
    fill="white"/>
  <path
    d="M1.47086 22.8668L1.40202 22.5383C0.465059 18.061 0.19163 13.4809 0.591718 8.92548L0.635786 8.41899L1.12305 8.56673C2.66469 9.03476 4.26978 9.27241 5.89312 9.27241C11.5285 9.27241 16.8023 6.33219 19.6572 1.59975L20.0105 1.01245L20.3647 1.59975C23.2151 6.33219 28.4879 9.27241 34.1243 9.27241C35.7522 9.27241 37.3581 9.0338 38.9008 8.56392L39.3889 8.4153L39.432 8.92371C39.823 13.4432 39.5412 18.0232 38.5951 22.5382L38.5272 22.8667L1.47086 22.8668Z"
    fill="white"/>
  <path
    d="M20.0102 0.213135L19.3026 1.38589C16.523 5.99537 11.3841 8.85943 5.89278 8.85943C4.31741 8.86 2.75059 8.62809 1.24293 8.17119L0.268405 7.87662L0.180269 8.88967C-0.223549 13.4829 0.0519548 18.1106 0.997894 22.6235L1.13557 23.2797H38.8627L38.9995 22.6235C39.9539 18.0683 40.2374 13.4469 39.8438 8.88789L39.7556 7.87107L38.7793 8.16838C37.277 8.62629 35.7106 8.85943 34.1248 8.85943C28.6317 8.85943 23.4945 5.99626 20.7177 1.38685L20.0102 0.213135ZM20.0102 1.81356C22.8476 6.52204 28.1049 9.68533 34.1248 9.68533C35.8317 9.68533 37.4743 9.43024 39.0206 8.95947C39.4014 13.3716 39.1436 17.9058 38.191 22.4538H1.8065C0.877279 18.0205 0.606387 13.4745 1.00255 8.9622C2.54612 9.43024 4.18876 9.68533 5.89285 9.68533C11.9118 9.68533 17.1701 6.52212 20.0102 1.81356Z"
    fill="white"/>
  <path
    d="M11.0238 42.0246C13.5997 45.2815 16.6105 48.2217 19.9995 50.7554C23.3527 48.2575 26.381 45.3329 28.9918 42.0476L19.9931 33.2976L11.0238 42.0246Z"
    fill="#F46F1B"/>
  <path
    d="M6.83754 35.7664L20.0033 23.121L33.194 35.8023C35.3853 31.9068 37.0481 27.6442 38.0713 23.089C38.1163 22.8723 38.1549 22.6594 38.1998 22.4429H1.81519C2.79984 27.1331 4.50763 31.6195 6.83754 35.7664Z"
    fill="#F46F1B"/>
  <path
    d="M6.82947 35.7665C8.05642 37.9551 9.4595 40.0465 11.025 42.025L19.9952 33.2971L28.993 42.047C30.5542 40.0801 31.9562 37.9919 33.1858 35.8023L19.9952 23.1211L6.82947 35.7665Z"
    fill="#F46F1B"/>
  <path
    d="M19.9949 32.7212L11.0678 41.4078C9.6922 39.6368 8.44328 37.7675 7.34668 35.8422L19.9948 23.6941L32.6688 35.878C31.5629 37.8145 30.3209 39.6701 28.9522 41.4308L19.9949 32.7212Z"
    fill="#231F20"/>
  <path
    d="M19.9949 23.1209L6.82909 35.7663C8.05597 37.955 9.46002 40.0463 11.0256 42.0248L19.9948 33.2979L28.9935 42.0478C30.5547 40.0805 31.9567 37.992 33.1863 35.8021L19.9949 23.1209ZM19.9949 24.2671L32.1494 35.9518C31.1717 37.6379 30.0891 39.2611 28.9082 40.8117L20.5712 32.705L19.9949 32.1453L19.4186 32.705L11.1118 40.7888C9.92532 39.2278 8.83693 37.5953 7.86602 35.9169L19.9949 24.2671ZM39.0206 8.95889C37.4744 9.43063 35.8317 9.68476 34.1248 9.68476C28.105 9.68476 22.8476 6.52251 20.0102 1.81299C17.17 6.52251 11.9118 9.68476 5.89279 9.68476C4.1887 9.68476 2.54606 9.43056 1.00249 8.96259C0.606333 13.4745 0.877225 18.0202 1.80644 22.4532H38.1911C39.1436 17.9062 39.4014 13.371 39.0206 8.95889Z"
    fill="#231F20"/>
  <path
    d="M28.9715 14.5241V12.9778H28.0263V11.8866L27.0352 11.6095H26.9636V10.6836C26.9636 10.6836 26.6223 11.093 25.053 11.093C23.5683 11.093 22.6974 10.6121 21.5155 10.6121C20.3794 10.6121 20.0316 11.2609 20.0316 11.2609V11.6353H19.9922V11.2609C19.9922 11.2609 19.637 10.6121 18.5074 10.6121C17.3263 10.6121 16.4545 11.0966 14.9707 11.0966C13.4015 11.0966 13.1307 10.6864 13.1307 10.6864V11.661H13.0656L11.991 11.8867V12.9778H11.0421V14.5241H11.991V17.0257H11.0421V18.5747H11.991V20.4981C11.991 20.4981 13.5822 20.7468 15.0542 20.7468C16.794 20.7468 17.798 20.4954 18.9276 20.4724V20.9597C18.9276 20.9597 19.3828 21.1864 19.9894 21.1864C20.6024 21.1864 21.0896 20.9597 21.0896 20.9597V20.4724C22.2166 20.4954 23.2205 20.7468 24.9696 20.7468C26.435 20.7468 28.0263 20.4981 28.0263 20.4981V18.5747H28.9715V17.0257H28.0263V14.5241H28.9715Z"
    fill="white"/>
  <path
    d="M27.8404 20.3984C27.4357 20.4563 26.1464 20.6242 24.947 20.6242C23.2273 20.6242 21.1066 20.3562 21.0854 20.3535L20.9 20.3278V20.8921C20.7367 20.9537 20.3807 21.0638 19.964 21.0638C19.5557 21.0638 19.2217 20.9536 19.0666 20.8958V20.3278L18.8812 20.3535C18.8601 20.3562 16.7384 20.6242 15.0288 20.6242C13.8258 20.6242 12.5355 20.4563 12.1308 20.3984V12.0623C12.2822 12.033 12.7328 11.9366 12.9521 11.8917V19.4423C13.0329 19.6166 13.3779 20.0168 14.9563 20.0168L16.9541 19.7552L18.4811 19.5359C19.5006 19.5359 19.8209 20.0782 19.8346 20.1002L19.8823 20.0745H20.1173L20.1623 20.1002C20.176 20.0782 20.4898 19.5359 21.5021 19.5359L23.0282 19.7524L25.0424 20.0167C26.6419 20.0167 27.042 19.5973 27.0815 19.5487L27.1127 11.8523C27.3219 11.9109 27.7064 12.0174 27.8404 12.0559V20.3984ZM13.2816 11.0429C13.5459 11.175 14.0202 11.3135 14.9563 11.3135L16.9687 11.0492L18.494 10.8299C19.496 10.8299 19.8153 11.3649 19.8338 11.3943V19.6322C19.5896 19.4294 19.1804 19.2064 18.4811 19.2064L16.8834 19.4321L14.9563 19.6872C13.5459 19.6872 13.2522 19.3486 13.2494 19.3459C13.2494 19.3459 13.2779 11.6044 13.2816 11.0429ZM20.1623 11.3943C20.176 11.3714 20.4898 10.8299 21.5021 10.8299L23.0282 11.0456L25.0424 11.3098C26.0179 11.3098 26.5144 11.1584 26.7896 11.0263V19.4294C26.7686 19.3872 26.3731 19.6873 25.0424 19.6873L23.0997 19.4294L21.5021 19.2064C20.8101 19.2064 20.4045 19.4294 20.1623 19.6295V11.3943ZM27.1145 11.5072L27.1191 10.3225L26.8319 10.6262C26.8282 10.6289 26.4758 10.9813 25.0424 10.9813L23.0997 10.7225L21.5021 10.5005C20.6257 10.5005 20.1889 10.8584 19.998 11.0749C19.8062 10.8584 19.3657 10.5004 18.494 10.5004L16.8981 10.7262L14.9563 10.9841C13.5459 10.9841 13.2522 10.6454 13.2494 10.6418L12.9567 10.2839L12.9521 10.7391V11.5521L11.8014 11.7944V20.6856L11.9408 20.7049C11.9564 20.7086 13.5606 20.9564 15.0288 20.9564C16.4769 20.9564 18.1956 20.7664 18.738 20.7022V21.1051L18.828 21.1537C18.8491 21.1638 19.3254 21.396 19.964 21.396C20.6064 21.396 21.113 21.1638 21.1341 21.1537L21.2294 21.1087V20.7022C21.7719 20.7664 23.4907 20.9564 24.947 20.9564C26.4097 20.9564 28.0156 20.7086 28.0312 20.705L28.1708 20.6857V11.8045L27.1145 11.5072Z"
    fill="#231F20"/>
  <path
    d="M15.6214 12.5224C15.492 12.5325 15.4086 12.5995 15.37 12.6866L14.8406 13.865C14.8406 13.865 14.8148 13.8842 14.7983 13.8842C14.7827 13.8842 14.7625 13.865 14.7497 13.8292C14.7368 13.7878 14.6726 13.6227 14.534 13.3006L14.3625 12.9161C14.3018 12.7738 14.2533 12.6802 14.2368 12.6518C14.1752 12.5453 14.0981 12.5352 14.0146 12.5224C14.0045 12.5096 14.0045 12.4967 14.0045 12.4866C14.0045 12.4738 14.0045 12.4673 14.011 12.4517H14.0982C14.1982 12.4517 14.2816 12.4582 14.356 12.4582C14.4432 12.4582 14.5882 12.448 14.6854 12.448H14.7432C14.7534 12.4517 14.7561 12.471 14.7561 12.4802C14.7561 12.4866 14.7561 12.5096 14.7497 12.5187C14.6854 12.5261 14.5404 12.5224 14.5404 12.6123C14.5404 12.6325 14.5432 12.6674 14.5533 12.6903L14.902 13.5163L15.192 12.8326C15.2179 12.7759 15.2311 12.7142 15.2305 12.6518C15.2305 12.5738 15.1764 12.5389 15.0305 12.5224C15.0278 12.5123 15.0213 12.4995 15.0213 12.4903C15.0213 12.4775 15.0278 12.4582 15.0305 12.4481H15.0727C15.1379 12.4481 15.202 12.4582 15.3471 12.4582C15.3728 12.4582 15.4728 12.4517 15.5215 12.4517H15.6214C15.6279 12.4646 15.6343 12.471 15.6343 12.4838C15.6343 12.4931 15.6279 12.5123 15.6214 12.5224ZM17.0965 13.8425C16.6734 13.8425 16.445 13.8333 16.3863 13.8333C16.3413 13.8333 16.2385 13.8296 16.1862 13.8296C16.1284 13.8296 15.9926 13.8397 15.8438 13.8397L15.7604 13.836C15.754 13.8232 15.754 13.8167 15.754 13.8039C15.754 13.7938 15.754 13.7782 15.7567 13.7654C15.8696 13.7553 15.9513 13.736 15.9706 13.7195C15.9926 13.691 16.009 13.6323 16.0155 13.5066C16.0155 13.4423 16.0183 13.3717 16.0183 13.2973C16.0183 13.1908 16.0155 13.0614 16.0155 12.9064V12.6871C16.0118 12.5357 15.9375 12.5357 15.7797 12.5164C15.7769 12.5027 15.7732 12.4898 15.7732 12.4807C15.7732 12.4705 15.7769 12.4485 15.7861 12.4449H15.8632C15.9155 12.4449 16.0541 12.4486 16.3183 12.4486C16.5606 12.4486 16.7965 12.4513 16.8479 12.4513C16.88 12.4513 16.9736 12.455 16.9938 12.455C17.0258 12.455 17.0387 12.4577 17.0387 12.4871L17.0579 12.8027C17.0387 12.8129 17.035 12.8165 17.0195 12.8165C17.0066 12.8165 16.9966 12.8165 16.9864 12.8128C16.8937 12.655 16.8479 12.6228 16.7772 12.5706C16.7515 12.5513 16.7129 12.5385 16.6542 12.5357C16.635 12.5357 16.5863 12.532 16.467 12.532C16.3707 12.532 16.3221 12.5357 16.3091 12.5357C16.2927 12.5357 16.2964 12.5357 16.2899 12.5899C16.2862 12.6228 16.2835 12.6871 16.2835 12.8706V13.0514H16.3312C16.3927 13.0514 16.4541 13.045 16.4899 13.0359C16.545 13.0193 16.6028 12.9808 16.6322 12.9358C16.6451 12.9193 16.6579 12.8422 16.6643 12.8192C16.6734 12.8129 16.69 12.8101 16.7093 12.8101C16.7219 12.8097 16.7343 12.8129 16.7451 12.8192C16.7414 12.877 16.7322 12.9835 16.7322 13.1193C16.7322 13.1872 16.7387 13.3359 16.7387 13.3974C16.7258 13.4065 16.7194 13.4065 16.6992 13.4065C16.69 13.4065 16.6707 13.4065 16.6607 13.4038C16.6478 13.2845 16.6285 13.2038 16.5285 13.1616C16.4734 13.1386 16.4285 13.1322 16.3734 13.1322C16.344 13.1322 16.3091 13.1359 16.2798 13.1386V13.5038C16.2798 13.5874 16.2862 13.6387 16.299 13.6681C16.3091 13.691 16.3413 13.7387 16.3835 13.7452C16.4028 13.7489 16.4385 13.7553 16.512 13.7553H16.7129C16.7643 13.7553 16.8386 13.7489 16.8644 13.7324C16.913 13.7002 17.0414 13.5616 17.0874 13.4323C17.1066 13.4258 17.1158 13.4258 17.1286 13.4258C17.1415 13.4258 17.1543 13.4295 17.1708 13.436V13.8039C17.1708 13.8397 17.1479 13.8425 17.0965 13.8425ZM18.7748 12.887C18.7656 12.887 18.7519 12.8833 18.7364 12.8833C18.7042 12.7962 18.6647 12.7192 18.6326 12.6769C18.5748 12.6063 18.5197 12.5576 18.3747 12.542C18.3426 12.5383 18.2646 12.5383 18.2389 12.5383L18.2362 13.155C18.2362 13.2514 18.2362 13.3651 18.2389 13.5781C18.2426 13.7387 18.3133 13.7387 18.4812 13.7616C18.4913 13.7781 18.4941 13.7909 18.4941 13.8001C18.4941 13.8126 18.4909 13.8249 18.4849 13.8359H18.4234C18.3261 13.8359 18.1325 13.8295 18.071 13.8295C18.0297 13.8295 17.8168 13.8396 17.7158 13.8396C17.7067 13.8231 17.703 13.8231 17.703 13.8001C17.703 13.7909 17.7067 13.7781 17.7131 13.7653C17.9361 13.7487 17.9581 13.7065 17.9645 13.6359C17.9709 13.5909 17.9709 13.4064 17.9709 13.2192V12.7099C17.9709 12.6448 17.9682 12.5805 17.9581 12.5384C17.9159 12.5384 17.781 12.5384 17.7415 12.5549C17.6287 12.5961 17.5479 12.6906 17.4616 12.8614C17.4516 12.8641 17.435 12.8641 17.4259 12.8641C17.413 12.8641 17.4002 12.8614 17.3938 12.8512V12.4934C17.3938 12.4613 17.3965 12.4512 17.435 12.4512C17.4681 12.4512 17.5195 12.4548 17.5873 12.4548C17.6351 12.4548 17.8388 12.4576 18.0939 12.4576C18.4298 12.4576 18.6776 12.4484 18.7427 12.4484C18.7748 12.4484 18.7978 12.4484 18.8107 12.4613C18.8134 12.4676 18.8107 12.4934 18.8107 12.5127V12.8705C18.8042 12.8834 18.7878 12.887 18.7748 12.887ZM15.5538 15.0721C15.5409 15.0721 15.5309 15.0684 15.5116 15.0684C15.4831 14.9822 15.4436 14.9042 15.4088 14.862C15.3537 14.7913 15.2959 14.7427 15.15 14.7271C15.1178 14.7234 15.0408 14.7234 15.0151 14.7234L15.0114 15.34C15.0114 15.4374 15.0114 15.5493 15.0151 15.7631C15.0179 15.9246 15.0922 15.9246 15.2601 15.9466C15.2667 15.9584 15.2699 15.9717 15.2693 15.9852C15.2693 15.998 15.2693 16.0081 15.2628 16.021H15.2023C15.1022 16.021 14.9087 16.0146 14.8499 16.0146C14.8077 16.0146 14.5948 16.0247 14.492 16.0247C14.4856 16.0082 14.4819 16.0082 14.4819 15.9852C14.4819 15.976 14.4856 15.9632 14.4883 15.9503C14.7113 15.9338 14.7343 15.8916 14.7434 15.821C14.7471 15.776 14.7471 15.5915 14.7471 15.4043V14.8941C14.7471 14.8299 14.7471 14.7656 14.737 14.7234C14.6948 14.7234 14.5563 14.7234 14.5177 14.74C14.4048 14.7812 14.3268 14.8748 14.2405 15.0464C14.2268 15.0492 14.2112 15.0492 14.2011 15.0492C14.1951 15.0496 14.1892 15.0486 14.1836 15.0464C14.178 15.0441 14.173 15.0407 14.169 15.0363V14.6784C14.169 14.6463 14.1754 14.6363 14.2112 14.6363C14.247 14.6363 14.2947 14.6399 14.3626 14.6399C14.4149 14.6399 14.6177 14.6426 14.8728 14.6426C15.205 14.6426 15.4565 14.6335 15.518 14.6335C15.5538 14.6335 15.5767 14.6335 15.5859 14.6463C15.5923 14.6528 15.5896 14.6784 15.5896 14.6977V15.0556C15.5854 15.061 15.5799 15.0654 15.5737 15.0682C15.5675 15.0711 15.5606 15.0724 15.5538 15.0721ZM17.1481 16.0275C16.7288 16.0275 16.4957 16.0174 16.4416 16.0174C16.3957 16.0174 16.293 16.0147 16.2379 16.0147C16.1828 16.0147 16.0442 16.0238 15.8992 16.0238L15.8148 16.0211C15.8084 16.0082 15.8056 16.0019 15.8056 15.989C15.8056 15.9789 15.8056 15.9633 15.812 15.9504C15.925 15.9404 16.0057 15.9211 16.0213 15.9046C16.047 15.8761 16.0608 15.8173 16.0671 15.6916C16.0699 15.6275 16.0736 15.5559 16.0736 15.4824C16.0736 15.376 16.0699 15.2466 16.0699 15.0915C16.0699 14.9814 16.0671 14.9172 16.0671 14.8722C16.0634 14.7208 15.9928 14.7208 15.8341 14.7006C15.8285 14.6898 15.8253 14.6779 15.8249 14.6657C15.8249 14.6556 15.8313 14.6327 15.8405 14.6299H15.9148C15.9699 14.6299 16.1057 14.6327 16.37 14.6327C16.6159 14.6327 16.8481 14.6364 16.9031 14.6364C16.9316 14.6364 17.0289 14.6401 17.0445 14.6401C17.0803 14.6401 17.0931 14.6428 17.0931 14.6722L17.1096 14.9888C17.0931 14.9979 17.0867 15.0016 17.0712 15.0016C17.061 15.0016 17.0509 15.0016 17.038 14.9979C16.9481 14.8401 16.9032 14.8071 16.8288 14.7556C16.8031 14.7364 16.7674 14.7235 16.7086 14.7208C16.6894 14.7208 16.6417 14.7171 16.5186 14.7171C16.4251 14.7171 16.3737 14.7208 16.3636 14.7208C16.3443 14.7208 16.348 14.7208 16.3415 14.7749C16.3415 14.807 16.3378 14.8722 16.3378 15.0557V15.2365H16.3829C16.448 15.2365 16.5086 15.2301 16.5416 15.2209C16.5994 15.2044 16.6545 15.1658 16.6865 15.1209C16.6958 15.1043 16.7123 15.0273 16.716 15.0044C16.73 14.9976 16.7454 14.9941 16.7609 14.9942C16.7775 14.9942 16.7903 14.9979 16.7994 15.0044C16.7967 15.0621 16.7839 15.1686 16.7839 15.3044C16.7839 15.3723 16.7931 15.521 16.7931 15.5824C16.7775 15.5917 16.7738 15.5917 16.7545 15.5917C16.7417 15.5917 16.7251 15.5917 16.7123 15.5889C16.6995 15.4687 16.6829 15.3888 16.5801 15.3466C16.5251 15.3237 16.4801 15.3173 16.4287 15.3173C16.3994 15.3173 16.3636 15.321 16.3351 15.3237V15.689C16.3351 15.7724 16.3415 15.8238 16.3507 15.8531C16.3636 15.8761 16.3957 15.9238 16.4351 15.9302C16.4544 15.9339 16.493 15.9404 16.5636 15.9404H16.7673C16.8187 15.9404 16.8903 15.9339 16.916 15.9174C16.9674 15.8853 17.0968 15.7467 17.1418 15.6173C17.1573 15.6109 17.1711 15.6109 17.1839 15.6109C17.1932 15.6109 17.2097 15.6146 17.2225 15.621V15.989C17.2225 16.0238 17.1995 16.0275 17.1481 16.0275ZM18.1293 16.0597C18.0127 16.0597 17.8843 16.0147 17.8062 15.9762C17.7902 15.9682 17.7727 15.9635 17.7549 15.9624C17.7393 15.9624 17.6971 15.9853 17.6511 16.0175C17.6191 16.0175 17.5805 16.0019 17.5713 15.9762C17.5713 15.9468 17.597 15.8596 17.597 15.8046C17.597 15.7724 17.5869 15.6146 17.5842 15.5788C17.597 15.5596 17.6227 15.5494 17.6448 15.5494H17.6677C17.6971 15.6082 17.7549 15.7596 17.7971 15.8211C17.8843 15.9211 18.0127 15.966 18.1063 15.966C18.2101 15.966 18.2871 15.9468 18.333 15.8981C18.3972 15.8367 18.4101 15.7982 18.4101 15.7303C18.4101 15.6788 18.4009 15.6366 18.3715 15.6045C18.3358 15.5596 18.3064 15.5403 18.2265 15.5018C18.165 15.4724 17.9485 15.4173 17.8714 15.3751C17.7741 15.3301 17.7255 15.2915 17.6778 15.2402C17.6191 15.1658 17.597 15.0659 17.597 14.9851C17.597 14.7621 17.7741 14.5941 18.0256 14.5941C18.1201 14.5941 18.2486 14.6043 18.3587 14.6914C18.3837 14.6627 18.4107 14.6358 18.4394 14.6107C18.4808 14.6107 18.5101 14.6327 18.5138 14.6492C18.5101 14.6813 18.4909 14.7685 18.4909 14.8401C18.4909 14.875 18.5138 15.0237 18.5138 15.0466C18.4972 15.053 18.4808 15.0658 18.4587 15.0658C18.4523 15.0658 18.4422 15.0621 18.433 15.0594C18.3936 14.9915 18.3587 14.8787 18.3165 14.8171C18.2522 14.73 18.1614 14.6979 18.0393 14.6979C17.8999 14.6979 17.787 14.7851 17.787 14.9043C17.787 15.02 17.8806 15.075 17.9585 15.1108C18.0274 15.138 18.0972 15.1628 18.1678 15.1851C18.2715 15.2209 18.3486 15.2467 18.3908 15.2687C18.5523 15.3531 18.6202 15.4724 18.6202 15.6366C18.6202 15.8954 18.3872 16.0597 18.1293 16.0597ZM16.1153 18.2158C15.6923 18.2158 15.4629 18.2066 15.4051 18.2066C15.3601 18.2066 15.2565 18.2029 15.205 18.2029C15.1472 18.2029 15.0114 18.213 14.8627 18.213L14.7792 18.2093C14.7728 18.1965 14.7728 18.1901 14.7728 18.1772C14.7728 18.1671 14.7728 18.1515 14.7756 18.1387C14.8885 18.1286 14.9692 18.1093 14.9885 18.0928C15.0114 18.0644 15.0279 18.0056 15.0344 17.8799C15.0344 17.8157 15.0371 17.745 15.0371 17.6706C15.0371 17.5642 15.0344 17.4348 15.0344 17.2797V17.0604C15.0307 16.909 14.9563 16.909 14.7985 16.8898C14.795 16.8781 14.7928 16.8661 14.792 16.854C14.792 16.8438 14.7949 16.8218 14.8049 16.8182H14.882C14.9343 16.8182 15.0729 16.8219 15.3372 16.8219C15.5794 16.8219 15.8153 16.8246 15.8666 16.8246C15.8988 16.8246 15.9924 16.8283 16.0117 16.8283C16.0447 16.8283 16.0575 16.831 16.0575 16.8604L16.0768 17.1769C16.0575 17.1862 16.0538 17.1898 16.0383 17.1898C16.0254 17.1898 16.0154 17.1898 16.0053 17.1861C15.9116 17.0283 15.8667 16.9962 15.796 16.9439C15.7703 16.9247 15.7309 16.9118 15.673 16.909C15.6538 16.909 15.6052 16.9053 15.4858 16.9053C15.3895 16.9053 15.3409 16.909 15.328 16.909C15.3115 16.909 15.3152 16.909 15.3087 16.9632C15.305 16.9962 15.3023 17.0604 15.3023 17.2439V17.4247H15.35C15.4115 17.4247 15.473 17.4183 15.5087 17.4092C15.5638 17.3926 15.6217 17.3541 15.6501 17.3091C15.6629 17.2926 15.6767 17.2155 15.6832 17.1925C15.6923 17.1862 15.7088 17.1834 15.7281 17.1834C15.7407 17.183 15.7531 17.1862 15.7639 17.1925C15.7602 17.2504 15.751 17.3568 15.751 17.4927C15.751 17.5605 15.7575 17.7092 15.7575 17.7707C15.7446 17.7798 15.7373 17.7798 15.718 17.7798C15.7088 17.7798 15.6895 17.7798 15.6795 17.7771C15.6666 17.6578 15.6473 17.5771 15.5473 17.5349C15.4923 17.512 15.4473 17.5055 15.3922 17.5055C15.3629 17.5055 15.328 17.5092 15.2986 17.5119V17.8771C15.2986 17.9607 15.305 18.013 15.3178 18.0414C15.328 18.0644 15.3601 18.112 15.4023 18.1185C15.4216 18.1222 15.4565 18.1286 15.5308 18.1286H15.7309C15.7831 18.1286 15.8575 18.1222 15.8832 18.1057C15.9309 18.0735 16.0603 17.9349 16.1053 17.8056C16.1245 17.7991 16.1346 17.7991 16.1474 17.7991C16.1603 17.7991 16.1732 17.8028 16.1897 17.8093V18.1772C16.1897 18.213 16.1667 18.2158 16.1153 18.2158ZM18.1486 16.8893C18.0064 16.8957 17.8844 16.9737 17.8844 17.1995L17.8807 17.9162C17.8807 17.9446 17.8935 18.1484 17.8935 18.2255C17.8715 18.2383 17.8486 18.2484 17.8357 18.2484C17.8293 18.2484 17.8165 18.2383 17.7999 18.2255L16.8153 17.1664L16.8253 17.3831L16.829 17.774C16.829 17.8024 16.8354 17.8768 16.8419 17.9318C16.8483 18.019 16.874 18.0483 16.9126 18.0804C16.9611 18.1227 17.042 18.1355 17.0997 18.1419C17.1058 18.1515 17.109 18.1627 17.1089 18.1741C17.1077 18.1866 17.1033 18.1986 17.0961 18.2089H16.9896C16.8997 18.2089 16.829 18.2062 16.7354 18.2062C16.674 18.2062 16.5868 18.2126 16.5253 18.2126H16.4803C16.4766 18.2025 16.4766 18.1869 16.4766 18.1805C16.4766 18.1741 16.4766 18.1612 16.4831 18.1447C16.5546 18.1383 16.6638 18.1061 16.7061 18.0483C16.7217 18.0125 16.729 17.9483 16.729 17.8805V17.3803C16.729 17.2995 16.7253 17.2573 16.7217 17.1803C16.7189 17.115 16.7061 17.0664 16.674 17.0279C16.6703 17.0187 16.6382 16.9865 16.606 16.9536C16.5739 16.9279 16.4958 16.9059 16.4473 16.8857C16.4424 16.8756 16.4393 16.8647 16.4381 16.8535C16.4381 16.8444 16.4408 16.8279 16.4473 16.8187H16.4831C16.5124 16.8187 16.6638 16.8251 16.7804 16.8251H16.8483C16.8612 16.8315 16.8831 16.8444 16.8896 16.8535L17.6191 17.651C17.6742 17.7125 17.7448 17.7932 17.7843 17.8447V17.2702C17.7843 17.1931 17.7806 17.138 17.7779 17.1087C17.7715 17.0509 17.7577 16.9995 17.7357 16.96C17.7127 16.9251 17.5769 16.9059 17.5062 16.8893C17.4999 16.8765 17.4999 16.86 17.4999 16.8472C17.4999 16.8407 17.4999 16.8315 17.5036 16.8187H17.5448C17.6127 16.8187 17.7228 16.8279 17.7907 16.8279C17.9587 16.8279 18.0101 16.8214 18.0936 16.8214H18.1486C18.155 16.8343 18.1551 16.8471 18.1551 16.8572C18.1551 16.8636 18.155 16.8793 18.1486 16.8893ZM22.748 12.516C22.6094 12.5224 22.4837 12.5995 22.4837 12.8261V13.5418C22.4837 13.5713 22.4929 13.775 22.4929 13.8521C22.4736 13.8649 22.4479 13.875 22.4378 13.875C22.4286 13.875 22.4186 13.8649 22.3993 13.8521L21.4146 12.794L21.4284 13.0096L21.4311 13.4006C21.4311 13.429 21.4375 13.5034 21.4412 13.5584C21.4504 13.6456 21.4761 13.6749 21.5119 13.707C21.5633 13.7493 21.644 13.7621 21.6991 13.7685C21.7052 13.7781 21.7084 13.7893 21.7083 13.8007C21.7071 13.8127 21.704 13.8245 21.6991 13.8355H21.589C21.5018 13.8355 21.4311 13.8328 21.3348 13.8328C21.2733 13.8328 21.1889 13.8392 21.1274 13.8392H21.0824C21.0793 13.8287 21.0771 13.818 21.076 13.8071C21.076 13.8007 21.076 13.7878 21.0861 13.7713C21.154 13.7649 21.2632 13.7327 21.3054 13.6749C21.3246 13.6391 21.3283 13.575 21.3283 13.5071V13.0069C21.3283 12.9261 21.3283 12.8839 21.3246 12.8069C21.322 12.7417 21.3054 12.693 21.276 12.6546C21.2696 12.6453 21.2403 12.6132 21.2054 12.5802C21.176 12.5545 21.0953 12.5325 21.0466 12.5123C21.0439 12.4994 21.0402 12.4838 21.0402 12.4801C21.041 12.4683 21.0431 12.4566 21.0466 12.4453H21.0861C21.1118 12.4453 21.2632 12.4517 21.3797 12.4517H21.4477C21.4605 12.4581 21.4825 12.471 21.4926 12.4801L22.2222 13.2776C22.2772 13.3391 22.3479 13.4198 22.3864 13.4713V12.8968C22.3864 12.8197 22.38 12.7647 22.3772 12.7353C22.3743 12.6832 22.3599 12.6325 22.3351 12.5866C22.3121 12.5517 22.1763 12.5325 22.1093 12.5159C22.1029 12.5028 22.0995 12.4884 22.0992 12.4738C22.0992 12.4673 22.0992 12.4581 22.1056 12.4453H22.1478C22.2157 12.4453 22.325 12.4545 22.3928 12.4545C22.5571 12.4545 22.6121 12.448 22.6966 12.448H22.748C22.7539 12.4591 22.7574 12.4713 22.7581 12.4838C22.7572 12.4952 22.7537 12.5062 22.748 12.516ZM23.9713 12.6483C23.9034 12.5584 23.8199 12.5034 23.6942 12.5034C23.5776 12.5034 23.5033 12.5547 23.4354 12.6483C23.3519 12.7547 23.306 12.9255 23.306 13.142C23.306 13.3549 23.3519 13.5228 23.429 13.6293C23.4996 13.733 23.5804 13.7844 23.7033 13.7844C23.852 13.7844 23.9392 13.7137 24.0072 13.5935C24.0686 13.487 24.0971 13.3393 24.0971 13.1457C24.0971 12.9162 24.052 12.7548 23.9713 12.6483ZM24.1971 13.6679C24.0622 13.8 23.874 13.878 23.6997 13.878C23.5354 13.878 23.3455 13.8074 23.2125 13.678C23.0675 13.5394 23.0032 13.3522 23.0032 13.1457C23.0032 12.9484 23.0675 12.7612 23.2125 12.6189C23.3675 12.4703 23.5354 12.4097 23.7034 12.4097C23.8264 12.4097 23.9393 12.4418 24.0713 12.5124C24.288 12.6511 24.4137 12.8804 24.4137 13.1319C24.4137 13.3292 24.3357 13.5266 24.1971 13.6679ZM26.1788 12.5224C26.0531 12.5325 25.9696 12.5995 25.9302 12.6866L25.4007 13.865C25.4007 13.865 25.375 13.8842 25.3594 13.8842C25.3429 13.8842 25.3209 13.865 25.3108 13.8292C25.2979 13.7878 25.2328 13.6227 25.0914 13.3006L24.9236 12.9161C24.862 12.7738 24.8134 12.6802 24.7978 12.6518C24.7327 12.5453 24.6583 12.5352 24.5748 12.5224C24.5619 12.5096 24.5619 12.4967 24.5619 12.4866C24.5619 12.4738 24.5619 12.4673 24.5711 12.4517H24.6583C24.7556 12.4517 24.8391 12.4582 24.9134 12.4582C25.0006 12.4582 25.1465 12.448 25.2465 12.448H25.3007C25.3144 12.4517 25.3172 12.471 25.3172 12.4802C25.3172 12.4866 25.3172 12.5096 25.3108 12.5187C25.2428 12.5261 25.1006 12.5224 25.1006 12.6123C25.1006 12.6325 25.1006 12.6674 25.1134 12.6903L25.4595 13.5163L25.753 12.8326C25.7767 12.7753 25.7888 12.7138 25.7889 12.6518C25.7889 12.5738 25.7338 12.5389 25.5879 12.5224C25.5852 12.5123 25.5815 12.4995 25.5815 12.4903C25.5815 12.4775 25.5852 12.4582 25.5879 12.4481H25.6301C25.6944 12.4481 25.7595 12.4582 25.9073 12.4582C25.9302 12.4582 26.0339 12.4517 26.0816 12.4517H26.1825C26.189 12.4646 26.1917 12.471 26.1917 12.4838C26.1917 12.4931 26.189 12.5123 26.1788 12.5224ZM22.2929 15.0721C22.28 15.0721 22.2708 15.0684 22.2506 15.0684C22.2222 14.9822 22.1827 14.9042 22.1479 14.862C22.0928 14.7913 22.035 14.7427 21.8891 14.7271C21.8569 14.7234 21.7799 14.7234 21.7541 14.7234L21.7504 15.34C21.7504 15.4374 21.7504 15.5493 21.7541 15.7631C21.7569 15.9246 21.8313 15.9246 21.9992 15.9466C22.0092 15.9632 22.0092 15.976 22.0092 15.9852C22.0092 15.998 22.0092 16.0081 22.0029 16.021H21.9414C21.8413 16.021 21.6477 16.0146 21.589 16.0146C21.5477 16.0146 21.3348 16.0247 21.2311 16.0247C21.2247 16.0082 21.221 16.0082 21.221 15.9852C21.221 15.976 21.2247 15.9632 21.2274 15.9503C21.4504 15.9338 21.4733 15.8916 21.4825 15.821C21.4862 15.776 21.4862 15.5915 21.4862 15.4043V14.8941C21.4862 14.8299 21.4862 14.7656 21.4761 14.7234C21.4339 14.7234 21.2953 14.7234 21.2567 14.74C21.1439 14.7812 21.0668 14.8748 20.9796 15.0464C20.9668 15.0492 20.9503 15.0492 20.9402 15.0492C20.9342 15.0496 20.9282 15.0486 20.9227 15.0464C20.9171 15.0441 20.9121 15.0407 20.908 15.0363V14.6784C20.908 14.6463 20.9145 14.6363 20.9503 14.6363C20.9861 14.6363 21.0338 14.6399 21.1017 14.6399C21.154 14.6399 21.3568 14.6426 21.6119 14.6426C21.9441 14.6426 22.1956 14.6335 22.257 14.6335C22.2928 14.6335 22.3158 14.6335 22.325 14.6463C22.3314 14.6528 22.3287 14.6784 22.3287 14.6977V15.0556C22.3244 15.061 22.319 15.0654 22.3127 15.0682C22.3065 15.0711 22.2997 15.0724 22.2929 15.0721ZM23.0838 14.9205H23.0801C23.0516 14.9756 23.0002 15.0949 22.9801 15.1463C22.9058 15.327 22.88 15.3886 22.8672 15.4142H23.2838C23.2517 15.3307 23.1452 15.0756 23.0838 14.9205ZM23.9647 16.0272H23.8555C23.7839 16.0272 23.7032 16.0181 23.6196 16.0181C23.4875 16.0181 23.3196 16.0272 23.2545 16.0272C23.248 16.0208 23.2453 16.008 23.2453 15.9923C23.2453 15.9823 23.248 15.9694 23.2517 15.9593C23.3875 15.9529 23.4417 15.9309 23.4417 15.8758C23.4417 15.8529 23.4417 15.8079 23.4003 15.695C23.3582 15.5914 23.3353 15.5464 23.326 15.5207C23.3196 15.5115 23.316 15.5051 23.2875 15.5051H22.8479C22.8186 15.54 22.7837 15.6372 22.7452 15.7722C22.735 15.8079 22.735 15.84 22.735 15.8529C22.735 15.8987 22.7772 15.9501 22.9324 15.9529C22.9391 15.9649 22.9423 15.9786 22.9415 15.9923C22.9415 16.0015 22.9415 16.0116 22.9388 16.0245H22.8993C22.7965 16.0245 22.7672 16.0181 22.658 16.0181C22.5864 16.0181 22.4157 16.0245 22.3579 16.0245C22.3542 16.0116 22.3515 16.0079 22.3515 15.9952C22.3515 15.9859 22.3515 15.9759 22.3579 15.9593C22.4414 15.9401 22.5185 15.918 22.5579 15.8565C22.58 15.8244 22.6543 15.695 22.735 15.495C22.8121 15.3078 22.9058 15.0719 22.948 14.9756C23.0067 14.8526 23.026 14.8141 23.0452 14.7719C23.0683 14.7227 23.0931 14.6743 23.1196 14.6269C23.1324 14.6103 23.1608 14.6012 23.1737 14.6012C23.1966 14.6012 23.226 14.614 23.2352 14.6296C23.248 14.6553 23.2646 14.6819 23.2673 14.6975C23.3481 14.8912 23.4132 15.0628 23.5132 15.3014C23.5646 15.4206 23.5903 15.4986 23.6454 15.6243C23.6839 15.7015 23.7069 15.763 23.7454 15.8336C23.7968 15.9401 23.8812 15.9401 23.9647 15.963C23.9684 15.9731 23.9776 15.9822 23.9776 15.9952C23.9776 16.0079 23.9711 16.0144 23.9647 16.0272ZM26.1207 16.0275L25.5564 16.0211H25.4014C25.3958 16.0099 25.3924 15.9978 25.3912 15.9853C25.3912 15.9661 25.3949 15.9633 25.4041 15.9504C25.4335 15.9467 25.5078 15.9504 25.5427 15.9376C25.6014 15.911 25.6243 15.8532 25.6243 15.7696V14.7657H25.6206L25.3234 15.4173C25.2912 15.4889 25.2527 15.5659 25.2206 15.6431C25.1526 15.7954 25.1168 15.8981 25.0975 15.9596C25.0884 15.9853 25.0655 15.9853 25.0526 15.9853C25.0334 15.9853 25.0205 15.9789 25.0104 15.9468C24.9719 15.8632 24.9461 15.8082 24.9333 15.7724L24.4681 14.7492H24.4589V15.0107L24.4681 15.6632C24.4681 15.8632 24.5718 15.9569 24.7296 15.9569C24.7357 15.9667 24.7401 15.9776 24.7424 15.989C24.742 16.0012 24.7388 16.0131 24.7332 16.0238C24.7232 16.0238 24.6911 16.0275 24.6617 16.0275C24.6424 16.0275 24.5397 16.0174 24.391 16.0174C24.3488 16.0174 24.2616 16.0211 24.1937 16.0211H24.1001C24.0973 16.0082 24.0937 15.9982 24.0937 15.9853C24.0937 15.9826 24.0974 15.9661 24.1001 15.9569C24.1395 15.9468 24.2745 15.9147 24.3038 15.8853C24.3332 15.8568 24.3589 15.7981 24.3589 15.6595V14.9428C24.3552 14.8299 24.3423 14.785 24.2873 14.7465C24.2653 14.73 24.1781 14.7208 24.1037 14.7107C24.0978 14.6986 24.0944 14.6855 24.0937 14.6722C24.0937 14.662 24.0974 14.6492 24.1037 14.6327C24.1588 14.6327 24.2552 14.6401 24.3525 14.6401H24.6911C24.7039 14.6492 24.7103 14.6556 24.7205 14.6749L25.1361 15.6173L25.2105 15.4301C25.2756 15.2787 25.3692 15.0493 25.5013 14.8043C25.5298 14.7492 25.5657 14.6786 25.5849 14.6428L26.1143 14.6327C26.1208 14.6464 26.1272 14.6556 26.1272 14.6685C26.1272 14.681 26.1241 14.6933 26.1181 14.7042C26.0593 14.7144 25.9592 14.7144 25.9107 14.7942C25.8951 14.8208 25.8849 14.8465 25.8849 14.9593V15.6339C25.8849 15.8917 25.9501 15.9174 25.9785 15.9376C25.995 15.9468 26.0758 15.9569 26.1208 15.9569C26.1272 15.9697 26.1309 15.9789 26.1309 15.9918C26.1309 16.011 26.1243 16.0147 26.1207 16.0275ZM22.2607 17.2605C22.2478 17.2605 22.2378 17.2568 22.2186 17.2568C22.19 17.1706 22.1505 17.0926 22.1158 17.0503C22.0606 16.9797 22.0029 16.9311 21.857 16.9155C21.8248 16.9118 21.7477 16.9118 21.7221 16.9118L21.7184 17.5284C21.7184 17.6249 21.7184 17.7377 21.7221 17.9515C21.7248 18.1121 21.7991 18.1121 21.967 18.135C21.9737 18.1468 21.9769 18.1601 21.9763 18.1736C21.9763 18.1864 21.9763 18.1965 21.9698 18.2094H21.9092C21.8092 18.2094 21.6157 18.2029 21.5569 18.2029C21.5146 18.2029 21.3018 18.2131 21.199 18.2131C21.1926 18.1966 21.1889 18.1966 21.1889 18.1736C21.1889 18.1644 21.1926 18.1515 21.1953 18.1387C21.4183 18.1222 21.4412 18.08 21.4504 18.0093C21.4541 17.9644 21.4541 17.7799 21.4541 17.5927V17.0834C21.4541 17.0183 21.4541 16.954 21.444 16.9119C21.4018 16.9119 21.2632 16.9119 21.2247 16.9283C21.1118 16.9696 21.0337 17.0632 20.9475 17.2348C20.9338 17.2376 20.9182 17.2376 20.908 17.2376C20.9021 17.2379 20.8961 17.237 20.8906 17.2347C20.885 17.2325 20.88 17.2291 20.876 17.2247V16.8668C20.876 16.8347 20.8824 16.8247 20.9181 16.8247C20.954 16.8247 21.0017 16.8283 21.0696 16.8283C21.121 16.8283 21.3247 16.831 21.5798 16.831C21.912 16.831 22.1634 16.8219 22.2249 16.8219C22.2607 16.8219 22.2836 16.8219 22.2928 16.8347C22.2992 16.8411 22.2965 16.8668 22.2965 16.8861V17.244C22.2923 17.2494 22.2868 17.2537 22.2806 17.2566C22.2744 17.2595 22.2676 17.2608 22.2607 17.2605ZM23.9938 16.8958C23.8682 16.905 23.7836 16.9729 23.7451 17.06L23.2156 18.2383C23.2156 18.2383 23.1899 18.2576 23.1743 18.2576C23.1578 18.2576 23.1349 18.2383 23.1257 18.2026C23.1129 18.1612 23.0486 17.9961 22.9063 17.674L22.7385 17.2895C22.677 17.1472 22.6283 17.0536 22.6127 17.0252C22.5476 16.9187 22.4732 16.9086 22.3897 16.8958C22.3769 16.8829 22.3769 16.8701 22.3769 16.86C22.3769 16.8472 22.3769 16.8407 22.387 16.8251H22.4732C22.5705 16.8251 22.654 16.8316 22.7283 16.8316C22.8155 16.8316 22.9605 16.8214 23.0615 16.8214H23.1156C23.1285 16.8251 23.1322 16.8444 23.1322 16.8536C23.1322 16.86 23.1322 16.8829 23.1257 16.8921C23.0578 16.8986 22.9156 16.8958 22.9156 16.9857C22.9156 17.0059 22.9156 17.0408 22.9284 17.0637L23.2744 17.8896L23.568 17.206C23.5914 17.1486 23.6033 17.0872 23.6029 17.0252C23.6029 16.9472 23.5487 16.9113 23.4028 16.8958C23.4001 16.8857 23.3964 16.8729 23.3964 16.8636C23.3964 16.8509 23.4001 16.8316 23.4028 16.8215H23.445C23.5102 16.8215 23.5744 16.8316 23.7231 16.8316C23.7451 16.8316 23.8488 16.8251 23.8965 16.8251H23.9975C24.0039 16.838 24.0066 16.8444 24.0066 16.8572C24.0066 16.8665 24.0039 16.8857 23.9938 16.8958ZM26.1498 18.2158L25.5881 18.2094H25.4303C25.4239 18.1965 25.4239 18.18 25.4239 18.1736C25.4239 18.1543 25.4239 18.1515 25.4331 18.1387C25.4661 18.135 25.5367 18.1387 25.5753 18.1258C25.6304 18.0992 25.6524 18.0414 25.6524 17.958V17.1439C25.6524 17.1439 25.6561 16.9961 25.6561 16.954H25.6497L25.356 17.6055C25.3202 17.6771 25.2854 17.7542 25.2495 17.8322C25.1844 17.9836 25.1458 18.0864 25.1266 18.1479C25.1202 18.1736 25.0981 18.1736 25.0816 18.1736C25.0651 18.1736 25.0522 18.1671 25.0394 18.135C25.0045 18.0515 24.9779 17.9964 24.965 17.9606L24.497 16.9374H24.4879V17.199L24.4971 17.8515C24.5008 18.0515 24.6007 18.1451 24.7623 18.1451C24.7687 18.1543 24.7715 18.1736 24.7715 18.1772C24.7715 18.1864 24.7715 18.1992 24.765 18.213C24.7522 18.213 24.7228 18.2158 24.6907 18.2158C24.6714 18.2158 24.5714 18.2066 24.4227 18.2066C24.3777 18.2066 24.2906 18.2094 24.2263 18.2094H24.1328C24.1263 18.1965 24.1227 18.1864 24.1227 18.1736C24.1227 18.1708 24.1263 18.1543 24.1328 18.1451C24.1686 18.135 24.3071 18.103 24.3365 18.0735C24.3621 18.0451 24.3879 17.9864 24.3879 17.8478L24.3906 17.5183L24.3879 17.1311C24.3842 17.0182 24.375 16.9732 24.3163 16.9347C24.2943 16.9182 24.2071 16.909 24.1355 16.8989C24.1277 16.8875 24.1232 16.8742 24.1227 16.8604C24.1227 16.8503 24.1263 16.8375 24.1355 16.8218C24.1878 16.8218 24.2878 16.8282 24.3814 16.8282H24.7228C24.7329 16.8374 24.743 16.8438 24.7494 16.8631L25.1651 17.8056L25.2431 17.6184C25.3046 17.4669 25.401 17.2376 25.5331 16.9925C25.5588 16.9374 25.5983 16.8668 25.6176 16.831L26.1434 16.8218C26.1498 16.8347 26.1599 16.8438 26.1599 16.8567C26.1599 16.8696 26.1535 16.8796 26.147 16.8925C26.092 16.9026 25.9919 16.9026 25.9433 16.9824C25.9268 17.009 25.9139 17.0347 25.9139 17.1476V17.8221C25.9139 18.08 25.9791 18.1056 26.0112 18.1258C26.0241 18.135 26.1048 18.1451 26.1498 18.1451C26.1599 18.158 26.1626 18.1671 26.1626 18.18C26.1626 18.1992 26.1562 18.2029 26.1498 18.2158Z"
    fill="#231F20"/>
  <path
    d="M58.3168 14.6662C58.3168 13.3136 57.5423 12.0517 56.3897 11.5323C55.796 11.2773 54.7508 11.1158 53.166 11.1158C51.7775 11.1158 49.6155 11.2259 48.663 11.2259C47.9949 11.2259 46.9864 11.1516 46.4275 11.1516C46.3734 11.2415 46.3358 11.3672 46.3358 11.4387C46.3358 11.5131 46.3358 11.7094 46.3908 11.8003C46.7331 11.9095 47.2911 11.9967 47.6526 12.0903C47.9582 12.3583 48.0307 12.5941 48.1389 13.1172C48.1922 13.7458 48.2289 14.5405 48.2289 15.9087C48.2289 19.7107 48.2115 21.7084 48.1565 22.1415C48.0858 22.6839 47.7251 23.2417 47.1295 23.4189C46.8589 23.474 46.4615 23.5649 46.0862 23.5997C46.0608 23.7241 46.0482 23.8508 46.0485 23.9778C46.0485 24.1227 46.0678 24.142 46.1018 24.2329C46.678 24.2329 48.373 24.1586 49.0218 24.1586C50.6258 24.1586 52.2648 24.2329 52.9301 24.2329H53.3816C53.4367 24.1586 53.4367 24.0328 53.4367 23.9456C53.4367 23.8355 53.4367 23.6906 53.4 23.619C52.8585 23.5483 52.0491 23.4391 51.7069 23.0417C51.5261 22.8289 51.3453 22.5187 51.3453 21.98L51.2903 18.0166C52.3713 18.0873 53.5257 18.1231 54.1562 18.1231C54.9848 18.1231 55.6868 17.9808 56.2447 17.8C57.524 17.3164 58.3168 16.051 58.3168 14.6662ZM55.094 14.5919C55.094 15.5113 54.7682 16.3216 54.1754 16.8448C53.7964 17.1513 53.2009 17.332 52.3006 17.332C51.9225 17.332 51.6325 17.3164 51.5261 17.2962C51.382 17.277 51.2903 17.2613 51.2903 17.1677L51.3095 11.8902C51.5261 11.8747 51.8326 11.8003 52.3557 11.8003C53.5798 11.8003 54.337 12.1068 54.6967 12.8648C54.9472 13.3493 55.094 13.9624 55.094 14.5919ZM74.6577 23.9264C74.6577 23.8355 74.6229 23.619 74.5678 23.5483C74.3889 23.5483 73.6511 23.5125 73.3804 23.3124C73.2896 23.206 73.1464 22.9903 73.073 22.861C72.838 22.035 72.57 21.4762 72.2985 20.7926C71.9194 19.8914 71.3983 19.0426 70.966 18.6461C70.8026 18.5039 70.2447 18.268 69.6133 18.0515C69.3261 17.945 69.0921 17.8551 68.8756 17.7642C69.1453 17.7101 69.2711 17.6899 69.6133 17.6577C70.9477 17.4936 71.2533 17.2614 71.5946 16.9898C72.3168 16.4474 72.7114 15.6215 72.7114 14.6469C72.7114 13.1879 71.7753 11.7838 70.4603 11.3672C70.0263 11.2415 69.2555 11.1708 68.3002 11.1708C66.9475 11.1708 65.0562 11.2965 64.156 11.2965C63.8843 11.2965 62.3161 11.2607 61.6866 11.2607C61.4149 11.2607 60.7313 11.2259 60.6248 11.2259C60.5697 11.3516 60.5339 11.4929 60.5339 11.5682C60.5339 11.6388 60.5523 11.8196 60.5697 11.8902C60.8763 11.926 61.4351 11.9967 61.7232 12.0518C62.1545 12.3776 62.2995 12.6299 62.4785 13.0263C62.5712 13.6045 62.5868 15.0792 62.5868 17.6193C62.5868 19.4592 62.606 21.5827 62.5161 22.27C62.4629 22.7188 62.2995 23.2583 61.7765 23.474C61.5443 23.5125 61.1103 23.5842 60.7505 23.5997C60.6955 23.6906 60.6597 23.8713 60.6597 23.9613C60.6597 24.0163 60.6955 24.1586 60.7313 24.2485C60.9864 24.2485 63.7421 24.1971 64.3166 24.1971C65.4692 24.1971 66.4437 24.2485 67.4706 24.2485C67.5055 24.1778 67.5413 24.0521 67.5413 23.9778C67.5413 23.8549 67.5055 23.6741 67.4706 23.5997C67.109 23.5649 66.6603 23.4584 66.462 23.4189C66.0115 23.206 65.6857 22.7738 65.6857 22.1415L65.6692 17.9808C65.8114 17.9616 65.9923 17.9616 66.1372 17.9616C66.3694 17.9616 66.641 18.0001 67.0907 18.2488C67.7578 18.6296 68.0836 18.9013 68.5158 19.5657C69.0921 20.4659 69.4711 22.1222 69.651 23.4391C69.7042 23.8163 69.8474 24.142 70.1915 24.1778C70.3346 24.197 71.2899 24.2329 71.9745 24.2329H74.5513C74.6229 24.1586 74.6577 24.0163 74.6577 23.9264ZM69.4344 14.5047C69.4344 15.6215 68.6773 16.8998 67.7963 17.1164C67.4348 17.2063 66.9824 17.2613 66.318 17.2613C66.1372 17.2613 65.8665 17.2613 65.65 17.2219L65.6325 15.6921V12.3776C65.6325 12.1619 65.6857 12.0353 65.7399 11.9812C65.7931 11.9261 66.1198 11.8747 66.4988 11.8747C67.9028 11.8747 68.5159 11.9968 69.0196 12.8456C69.3069 13.3329 69.4344 13.8916 69.4344 14.5047ZM83.8822 23.9072C83.8822 23.8163 83.8629 23.6191 83.829 23.5484C83.5582 23.5291 82.8205 23.4585 82.4965 23.3869C82.2074 23.0418 82.0073 22.6482 81.8826 21.9993C81.8652 21.134 81.8459 19.3491 81.8459 17.6744V13.2429C81.8459 12.7557 82.044 12.3776 82.1716 12.2684C82.514 11.9454 83.1985 11.8747 83.7758 11.8004C83.8116 11.7288 83.829 11.5324 83.829 11.458C83.829 11.3516 83.7758 11.2058 83.739 11.1709H83.216C82.4588 11.1709 80.6933 11.2608 80.0803 11.2608C79.7032 11.2608 77.9375 11.2058 77.1446 11.1902H76.7501C76.695 11.2608 76.6592 11.3324 76.6592 11.4929C76.6592 11.5682 76.6748 11.748 76.695 11.8353C77.5787 11.9096 77.9724 11.9968 78.0999 12.0904C78.3166 12.2519 78.6212 12.6492 78.6955 13.6202C78.712 13.9625 78.7295 14.7021 78.7469 16.3612C78.7671 17.2614 78.7845 18.5195 78.7845 19.5658C78.7845 20.0888 78.7469 21.2607 78.7294 21.8892C78.6955 22.3224 78.6037 22.7353 78.4798 22.9712C78.2633 23.152 78.0458 23.474 76.7299 23.5649C76.695 23.6355 76.6748 23.8714 76.6748 23.9457C76.6748 24.087 76.7124 24.1587 76.7124 24.2486H77.0189C77.7402 24.2486 79.5416 24.1587 80.4776 24.1587C80.7484 24.1587 82.6204 24.2137 83.216 24.2137H83.8115C83.8629 24.1229 83.8822 23.9778 83.8822 23.9072ZM101.696 11.4223C101.696 11.3516 101.676 11.2259 101.641 11.1709H101.224C100.324 11.1709 99.7496 11.2057 98.1262 11.2057C97.5674 11.2057 96.7378 11.1709 96.5414 11.1709H96.0733C96.0183 11.2057 95.9991 11.4067 95.9991 11.4773C95.9991 11.5683 96.0183 11.7095 96.0926 11.7839C96.3799 11.8747 97.4775 11.9968 97.9482 12.3069C98.2712 12.6841 98.4135 13.4393 98.4676 14.1432C98.4878 14.4112 98.5071 14.6819 98.5071 15.4215V19.1876C98.5071 19.6208 98.4879 19.7621 98.4676 19.963C98.1648 19.6208 97.7289 18.9719 97.0094 18.1616L90.9996 11.493C90.9446 11.4223 90.8381 11.3324 90.728 11.2608C90.5848 11.2608 90.3316 11.2415 90.1893 11.2415C89.034 11.2415 86.9453 11.1902 86.6389 11.1902C86.6031 11.2608 86.5682 11.3672 86.5682 11.4388C86.5682 11.4773 86.6031 11.7288 86.6196 11.7839C86.8903 11.8545 87.4858 11.9454 87.9722 12.4684C88.2622 12.7906 88.766 13.2429 88.9275 13.6045C88.9816 13.7302 89 13.9267 89 14.179C89 15.115 88.9467 16.4319 88.9467 17.69V21.3506C88.9467 21.9443 88.8917 22.4124 88.8366 22.7188C88.4595 23.1162 87.8832 23.4034 86.9453 23.6355C86.9095 23.7292 86.8747 23.8714 86.8747 23.9613C86.8747 24.0164 86.8903 24.1972 86.928 24.2137H87.2702C87.6299 24.2137 88.4595 24.1587 89 24.1587C89.7919 24.1587 90.3316 24.2137 91.0703 24.2137H92.1458C92.2164 24.1972 92.2357 23.9778 92.2357 23.9072C92.2357 23.8356 92.2165 23.6906 92.1816 23.6191C91.5557 23.4585 90.639 23.3126 90.026 22.5023C89.9021 22.2315 89.7919 20.8991 89.7919 20.2659C89.7919 19.6914 89.7727 18.9013 89.7727 17.8359C89.7727 16.4126 89.7919 15.17 89.8103 14.5406C89.9177 14.6663 90.0443 14.8278 90.1343 14.9342L98.452 24.2881C98.5419 24.3752 98.8649 24.3945 98.9558 24.3945C99.0457 24.3945 99.1007 24.3945 99.1714 24.3587C99.2072 24.2678 99.333 23.9779 99.333 23.5484C99.333 23.0253 99.3138 22.483 99.3138 22.216V14.7019C99.3138 12.449 100.379 11.8195 101.622 11.7644C101.676 11.6736 101.696 11.5133 101.696 11.4223ZM115.721 21.7083C115.667 21.5468 115.521 21.2761 115.108 21.2761C115.071 21.2761 115.016 21.2954 114.982 21.2954C113.899 22.8288 112.71 23.4032 111.359 23.4032C109.485 23.4032 108.153 22.1414 107.72 21.0246C107.485 20.43 107.162 19.1334 107.162 17.7449C107.162 16.4317 107.36 15.3663 107.702 14.5918C108.494 12.5032 109.647 11.8544 111.053 11.8544C112.225 11.8544 113.197 12.5234 113.936 13.475C114.242 13.8916 114.565 14.7019 114.853 15.6572C114.927 15.6728 115.088 15.7086 115.25 15.7086C115.358 15.7086 115.611 15.6214 115.682 15.5471C115.667 15.3507 115.486 13.9623 115.486 13.5301C115.486 12.9914 115.629 12.1067 115.629 11.7644C115.521 11.6543 115.161 11.5837 114.927 11.5681C114.656 11.7644 114.565 11.9966 114.314 12.3068C113.305 11.5837 112.368 11.0257 110.315 11.0257C108.423 11.0257 106.926 11.6736 105.792 12.8106C104.549 14.0339 103.864 15.7278 103.864 17.8908C103.864 20.1951 104.837 22.0891 106.405 23.2775C107.397 23.997 108.856 24.4842 110.602 24.4842C112.8 24.4842 114.404 23.6546 115.214 22.5581C115.537 22.1221 115.574 22.0148 115.721 21.7083ZM130.961 21.0788C130.961 20.8274 130.961 20.7182 130.942 20.5566C130.852 20.5016 130.816 20.5016 130.671 20.5016C130.546 20.5016 130.403 20.5016 130.274 20.5374C129.665 21.9249 128.78 23.0059 128.295 23.2931C128.025 23.4583 127.61 23.4932 126.942 23.4932H125.466C124.891 23.4932 124.439 23.439 124.277 23.4032C124.006 23.3482 123.719 22.916 123.593 22.6287C123.466 22.3222 123.393 22.3222 123.393 21.4927V17.5485H124.061C124.24 17.5485 124.674 17.5834 125.159 17.7999C125.61 18 125.791 18.268 125.97 18.5588C126.133 18.8066 126.24 19.8014 126.276 20.0529C126.367 20.1043 126.602 20.1235 126.747 20.1235C126.889 20.1235 126.979 20.1043 127.104 20.0336C127.104 19.5463 126.997 18.2322 126.997 17.51C126.997 16.6088 127.123 15.3663 127.176 14.7211C127.104 14.6817 126.997 14.6468 126.817 14.6468C126.691 14.6468 126.457 14.6468 126.349 14.7019C126.295 14.9533 126.096 15.7086 126.059 15.7637C125.791 16.2152 125.319 16.5574 124.836 16.7024C124.511 16.7896 124.042 16.8447 123.79 16.8447H123.413V15.17C123.413 13.4392 123.447 12.8812 123.466 12.5555C123.483 12.3426 123.519 12.1067 123.538 11.9452C123.7 11.926 123.79 11.9094 124.619 11.9094C125.662 11.9094 126.151 11.9259 126.312 11.9259C126.817 11.9645 127.195 12.0709 127.466 12.2875C128.151 12.8106 128.674 13.6365 129.195 14.5211C129.303 14.556 129.484 14.556 129.574 14.556C129.682 14.556 129.7 14.5211 129.845 14.4496C129.845 13.3493 129.771 11.926 129.735 11.4772C129.716 11.2965 129.682 11.2413 129.322 11.2413C129.176 11.2413 128.493 11.2056 127.772 11.2056C126.747 11.2056 126.33 11.2258 124.762 11.2258C123.916 11.2258 122.168 11.2413 121.43 11.2413C120.349 11.2413 119.43 11.2056 118.962 11.2056H118.348C118.294 11.2772 118.26 11.4222 118.26 11.4928C118.26 11.5837 118.294 11.7837 118.348 11.8544C118.565 11.9259 119.412 11.9094 119.665 12.0517C119.917 12.2683 120.149 12.3582 120.313 13.2236C120.349 13.6044 120.367 14.6469 120.367 15.4764V19.1875C120.367 19.9427 120.349 21.044 120.33 21.4927C120.294 22.1956 120.043 23.0417 119.936 23.2059C119.771 23.3326 119.033 23.439 118.313 23.4739C118.26 23.5841 118.222 23.7648 118.222 23.8713C118.222 23.9777 118.26 24.1071 118.313 24.197H118.907C119.484 24.197 121.609 24.142 122.098 24.142C122.547 24.142 123.413 24.1777 124.457 24.1777C125.032 24.1777 126.727 24.2879 130.367 24.2879C130.51 24.2879 130.671 24.3034 130.852 24.2484C130.907 24.1585 130.907 24.1227 130.925 23.9612C130.961 23.5996 130.961 22.5378 130.961 21.0788ZM146.489 15.2241V11.5479C146.489 11.2772 146.383 11.2055 146.112 11.2055C145.572 11.2055 142.727 11.2772 139.844 11.2772C137.609 11.2772 135.753 11.2414 134.745 11.2414H133.41C133.177 11.2414 133.105 11.2965 133.105 11.5479V14.9892C133.177 15.0433 133.301 15.0635 133.394 15.0635C133.465 15.0635 133.718 15.0635 133.79 15.024C134.599 13.3878 135.358 12.5032 136.313 12.0159C136.852 11.9645 137.914 11.9452 138.203 11.9452C138.221 12.1416 138.24 12.7748 138.256 13.5301C138.275 14.8277 138.275 15.3856 138.275 18.4487C138.275 21.099 138.256 22.2864 138.221 22.5737C138.149 23.0774 138.24 23.4583 136.077 23.5482C136.022 23.6739 136.022 23.8162 136.022 23.9612C136.022 24.0327 136.022 24.1778 136.041 24.2484H136.743C137.411 24.2484 138.977 24.1777 139.628 24.1777C140.149 24.1777 141.826 24.2328 142.923 24.2328H143.427C143.481 24.142 143.481 23.9456 143.481 23.8548C143.481 23.7456 143.464 23.6189 143.41 23.529C143.21 23.529 142.058 23.5648 141.555 23.1867C141.5 22.9903 141.392 22.4672 141.392 21.835C141.374 19.8913 141.355 19.1526 141.355 17.855C141.355 16.1794 141.374 15.0433 141.374 11.9259C141.626 11.9259 142.204 11.9094 142.742 11.9259C143.861 12.2325 144.402 12.6491 144.887 13.2942C145.193 13.7108 145.518 14.411 145.841 15.2599C145.951 15.2957 146.041 15.2957 146.148 15.2957C146.22 15.2957 146.454 15.2599 146.489 15.2241ZM162.326 17.4934C162.326 14.9726 161.209 13.0455 159.118 11.8901C158.003 11.2772 156.885 10.9707 155.696 10.9707C153.067 10.9707 150.688 12.539 149.623 14.3239C148.938 15.4407 148.581 16.6639 148.581 17.9615C148.581 20.0336 149.59 22.0699 151.156 23.2417C152.347 24.1071 153.697 24.5357 155.265 24.5357C156.222 24.5357 157.12 24.3585 158.003 24.0163C158.994 23.6355 159.84 23.0417 160.507 22.3029C161.678 21.0247 162.326 19.3847 162.326 17.4934ZM159.066 17.1511C159.066 19.8721 158.309 22.27 157.283 23.116C156.761 23.5482 156.111 23.7648 155.372 23.7648C154.366 23.7648 153.48 23.3674 152.978 22.5581C152.293 21.5119 151.914 19.5655 151.914 17.8743C151.914 15.3663 152.561 13.4044 153.715 12.4491C154.328 11.9452 154.957 11.748 155.589 11.748C156.563 11.748 157.499 12.216 158.039 12.9914C158.724 13.9265 159.066 15.279 159.066 17.1511ZM179.711 11.4222C179.711 11.3515 179.696 11.2258 179.657 11.1708H179.244C178.342 11.1708 177.769 11.2055 176.145 11.2055C175.586 11.2055 174.756 11.1708 174.56 11.1708H174.092C174.038 11.2055 174.019 11.4066 174.019 11.4772C174.019 11.5681 174.038 11.7094 174.108 11.7837C174.399 11.8745 175.497 11.9967 175.964 12.3068C176.29 12.684 176.434 13.4392 176.488 14.1431C176.504 14.411 176.523 14.6817 176.523 15.4214V19.1875C176.523 19.6206 176.504 19.762 176.488 19.9629C176.18 19.6206 175.749 18.9718 175.027 18.1615L169.011 11.4929C168.957 11.4222 168.848 11.3323 168.741 11.2607C168.596 11.2607 168.344 11.2414 168.202 11.2414C167.046 11.2414 164.958 11.19 164.651 11.19C164.616 11.2606 164.578 11.3671 164.578 11.4387C164.578 11.4772 164.616 11.7287 164.632 11.7837C164.902 11.8544 165.497 11.9452 165.985 12.4683C166.272 12.7904 166.776 13.2428 166.939 13.6044C166.993 13.7301 167.011 13.9265 167.011 14.1789C167.011 15.1149 166.956 16.4317 166.956 17.6898V21.3504C166.956 21.9442 166.904 22.4122 166.849 22.7187C166.472 23.116 165.893 23.4032 164.958 23.6354C164.921 23.729 164.887 23.8713 164.887 23.9612C164.887 24.0163 164.902 24.197 164.939 24.2135H165.28C165.643 24.2135 166.472 24.1585 167.011 24.1585C167.804 24.1585 168.344 24.2135 169.083 24.2135H170.164C170.235 24.197 170.255 23.9777 170.255 23.9071C170.255 23.8355 170.235 23.6904 170.2 23.6189C169.57 23.4583 168.65 23.3124 168.037 22.5021C167.911 22.2314 167.804 20.899 167.804 20.2657C167.804 19.6912 167.785 18.9012 167.785 17.8358C167.785 16.4124 167.804 15.1699 167.822 14.5404C167.931 14.6661 168.057 14.8276 168.146 14.9341L176.47 24.2879C176.559 24.3751 176.883 24.3944 176.974 24.3944C177.063 24.3944 177.117 24.3944 177.191 24.3585C177.226 24.2677 177.352 23.9777 177.352 23.5482C177.352 23.0252 177.334 22.4828 177.334 22.2158V14.7019C177.334 12.449 178.397 11.8195 179.639 11.7644C179.696 11.6736 179.711 11.5131 179.711 11.4222ZM60.3534 31.6256C60.3534 31.5549 60.3176 31.4448 60.2644 31.3934H59.7431C59.1834 31.3934 58.4263 31.4283 57.7775 31.4283C57.0581 31.4283 56.2478 31.3934 55.7238 31.3934H55.0759C55.0218 31.4999 55.0025 31.5347 55.0025 31.6256C55.0025 31.6999 55.0217 31.7705 55.0567 31.8615C55.131 31.8615 56.445 31.877 56.6791 32.2038C56.8773 32.4744 57.3095 33.1398 57.3811 33.5361C57.4159 33.7169 57.526 34.4557 57.526 35.5183C57.526 37.0481 57.526 38.0741 57.5087 38.6164C57.471 39.6267 57.3627 40.4178 57.1819 41.0115C56.6791 42.5798 55.509 43.3543 53.6526 43.3543C52.8588 43.3543 52.1752 43.1937 51.5439 42.9028C50.3719 42.3283 49.814 41.2271 49.7974 40.6334L49.7057 35.2311L49.6892 33.0324C49.6892 32.6167 50.2104 32.2386 50.3903 32.023C50.5353 31.9514 51.3272 31.877 51.7778 31.8422C51.8329 31.7357 51.8677 31.6806 51.8677 31.5898C51.8677 31.4998 51.8145 31.4091 51.742 31.3577L51.0584 31.3742C50.3903 31.3934 49.5084 31.4091 48.9504 31.4091C48.0851 31.4091 47.4171 31.3934 46.8784 31.3934H46.1231C46.0488 31.4448 46.0314 31.5549 46.0314 31.6448C46.0314 31.7357 46.0488 31.8064 46.1038 31.8615C46.6783 31.9321 47.0574 31.9872 47.3106 32.0386C47.6162 32.2194 47.8337 32.5258 47.942 32.8323C47.9594 33.0682 47.9952 33.6427 47.9952 34.7787V39.1037C47.9952 40.2204 48.0502 41.0115 48.176 41.5181C48.4082 42.4541 48.9129 43.1937 49.7424 43.7324C50.6252 44.3096 51.7246 44.5969 53.0396 44.5969C54.2473 44.5969 55.2732 44.3454 56.1386 43.8581C57.0388 43.3736 57.5967 42.5798 57.9216 41.463C58.1006 40.7986 58.2107 40.0755 58.2107 39.3202V35.8606C58.2107 35.2118 58.2455 34.4015 58.2455 34.0758C58.2648 33.104 58.5172 32.5258 58.7879 32.0936C59.0751 32.0037 59.3274 31.9514 60.2827 31.8422C60.3176 31.7706 60.3534 31.7156 60.3534 31.6256ZM77.0367 31.5347C77.0367 31.4641 77.0192 31.4091 76.9816 31.3577H76.5686C75.6684 31.3577 75.271 31.3934 73.6513 31.3934C73.0907 31.3934 72.2629 31.3577 72.0665 31.3577H71.5949C71.5435 31.3934 71.5242 31.5191 71.5242 31.5898C71.5242 31.6806 71.5435 31.7155 71.6141 31.7871C71.9033 31.877 73.0026 32.0037 73.4706 32.3102C73.7927 32.6909 73.9386 33.4462 73.9927 34.1492C74.0093 34.4171 74.0285 34.6888 74.0285 35.4275V40.7793C74.0285 41.2115 74.0093 41.3565 73.9927 41.5539C73.6862 41.2115 73.1641 40.5435 72.4621 39.7139L65.5786 31.6806C65.5236 31.6063 65.4171 31.5191 65.308 31.4448C65.1638 31.4448 64.9849 31.4283 64.8399 31.4283C63.6873 31.4283 62.6788 31.3742 62.3704 31.3742C62.3365 31.4448 62.319 31.4806 62.319 31.5549C62.319 31.5898 62.3365 31.7357 62.3531 31.7871C62.6237 31.8614 63.4166 31.9514 63.7424 32.2936C64.0296 32.6167 64.4618 32.9938 64.6234 33.3554C64.6784 33.4811 64.6977 33.6785 64.6977 33.9336C64.6977 34.8696 64.6426 36.5801 64.6426 37.8419V41.6796C64.6426 42.2733 64.5885 42.7413 64.5352 43.0478C64.1553 43.4452 63.579 43.7324 62.6421 43.9682C62.6063 44.0581 62.5705 44.0939 62.5705 44.1839C62.5705 44.2389 62.587 44.3454 62.6237 44.3619H62.9661C63.3257 44.3619 64.1553 44.3096 64.6977 44.3096C65.4887 44.3096 65.8484 44.3619 66.5863 44.3619H67.67C67.7416 44.3454 67.7572 44.2004 67.7572 44.1288C67.7572 44.0581 67.7416 44.0196 67.704 43.948C67.0754 43.7875 66.1567 43.6416 65.5438 42.8313C65.4171 42.5606 65.3079 41.1923 65.3079 40.5628C65.3079 39.9846 65.2905 39.0486 65.2905 37.9869C65.2905 36.5635 65.3079 34.5979 65.3272 33.9684C65.4354 34.0951 65.5979 34.2914 65.7227 34.4364L74.2625 44.4363C74.3515 44.5262 74.3882 44.5427 74.4809 44.5427C74.5672 44.5427 74.514 44.5427 74.5874 44.5069C74.6222 44.4161 74.6773 44.1288 74.6773 43.6966C74.6773 43.1735 74.6599 42.6348 74.6599 42.3642V34.708C74.6599 32.4552 75.7234 31.822 76.966 31.7706C77.0192 31.6806 77.0367 31.6256 77.0367 31.5347ZM85.18 44.1288C85.18 44.0389 85.1635 43.948 85.1268 43.8774C84.8552 43.8581 84.1182 43.7874 83.7925 43.7159C83.5044 43.3735 83.308 42.9772 83.1786 42.3284C83.163 41.463 83.1446 39.501 83.1446 37.8226V33.249C83.1446 32.7617 83.342 32.3808 83.4695 32.2744C83.8118 31.9513 84.4954 31.877 85.0718 31.8064C85.1093 31.7357 85.1268 31.6448 85.1268 31.5742C85.127 31.5338 85.119 31.4937 85.1033 31.4565C85.0875 31.4192 85.0643 31.3856 85.0351 31.3576H84.5138C83.7567 31.3576 82.6757 31.4448 82.0618 31.4448C81.6864 31.4448 80.6037 31.3934 79.8126 31.3742H79.4152C79.3611 31.4448 79.3253 31.4448 79.3253 31.6063C79.3253 31.6806 79.3428 31.7513 79.3611 31.8422C80.243 31.9156 80.6403 32.0037 80.7642 32.0936C80.9826 32.2579 81.2892 32.6525 81.3616 33.6271C81.3781 33.9684 81.3974 34.8888 81.4149 36.5443C81.4322 37.4445 81.4524 38.6715 81.4524 39.7139C81.4524 40.2397 81.4149 41.5897 81.3974 42.2182C81.3616 42.6514 81.2717 43.0671 81.1441 43.2992C80.9294 43.48 80.7128 43.8031 79.3978 43.8967C79.3611 43.9682 79.3428 44.0939 79.3428 44.1646C79.3428 44.3095 79.3803 44.3095 79.3803 44.4005H79.685C80.4063 44.4005 81.5231 44.3095 82.4592 44.3095C82.7298 44.3095 83.9182 44.3619 84.5138 44.3619H85.1093C85.1635 44.2747 85.18 44.2004 85.18 44.1288ZM100.957 31.5742C100.957 31.4998 100.937 31.3934 100.866 31.3742H100.253C99.8205 31.3742 99.1359 31.4091 98.8294 31.4091C97.3703 31.4091 96.8482 31.3191 96.6316 31.3191H96.3086C96.27 31.4091 96.215 31.4641 96.215 31.5549C96.215 31.6256 96.2535 31.6806 96.2535 31.7513C96.6754 31.802 97.0915 31.893 97.4961 32.023C97.7127 32.2386 97.9485 32.6717 97.9485 33.159C97.9485 33.3361 97.7677 34.185 97.5126 34.798L94.6146 41.931L91.054 32.9039C91.1073 32.4744 91.3413 32.0578 91.6459 31.8963C91.9505 31.8614 92.3259 31.7513 92.8132 31.7513C92.849 31.6806 92.8839 31.5742 92.8839 31.4999C92.8839 31.4283 92.8683 31.3191 92.7939 31.3026H92.3424C91.79 31.3026 90.9448 31.3742 89.9895 31.3742C89.5757 31.3742 88.7654 31.3384 87.9715 31.3384H87.2696C87.2329 31.4091 87.1989 31.4448 87.1989 31.5549C87.1989 31.6614 87.2163 31.6999 87.2521 31.7706C87.7559 31.8963 88.2432 32.0936 88.7654 32.3808C89.1077 32.8873 89.8473 34.708 90.2437 35.6597L91.7349 39.2651C92.9747 42.2577 93.7134 44.2546 93.8043 44.5969C93.8942 44.6519 93.8043 44.7033 93.9658 44.7033C94.1273 44.7033 94.1108 44.6712 94.1465 44.5813L98.7937 33.4105C98.9551 33.0131 99.2075 32.6359 99.4424 32.3808C99.7297 32.0578 100.324 31.932 100.882 31.8063C100.901 31.7357 100.957 31.6615 100.957 31.5742ZM114.295 41.4079C114.295 41.1565 114.295 41.0464 114.278 40.8858C114.187 40.8307 114.153 40.8307 114.008 40.8307C113.881 40.8307 113.9 40.8307 113.774 40.8693C113.376 42.1834 112.694 43.1579 111.917 43.626C111.647 43.7875 111.16 43.8223 110.387 43.8223H108.369C107.739 43.8031 107.343 43.7682 107.179 43.7324C106.91 43.681 106.62 43.2451 106.497 42.9578C106.367 42.6514 106.296 42.544 106.296 41.7154V37.606H106.874C107.45 37.606 107.918 37.6446 108.404 37.8611C108.856 38.0584 109.198 38.3457 109.377 38.6329C109.541 38.888 109.595 39.8782 109.63 40.1305C109.719 40.1847 109.774 40.2012 109.918 40.2012C110.062 40.2012 110.079 40.1847 110.207 40.1112C110.207 39.6267 110.098 38.3099 110.098 37.5904C110.098 36.6893 110.224 35.589 110.277 34.9402C110.207 34.9044 110.17 34.8696 109.99 34.8696C109.863 34.8696 109.811 34.8696 109.702 34.921C109.649 35.1761 109.503 35.9313 109.469 35.9864C109.198 36.4341 108.566 36.7957 108.081 36.9417C107.756 37.0316 107.288 37.0866 106.603 37.0866H106.316V35.3183C106.316 33.5912 106.352 32.8874 106.367 32.5616C106.386 32.345 106.422 32.1128 106.441 31.9514C106.603 31.9321 107.126 31.9156 107.956 31.9156C108.998 31.9156 109.774 31.9321 109.937 31.9321C110.441 31.9679 110.819 32.077 111.089 32.2937C111.972 32.9783 112.206 33.4297 112.694 34.5272C112.802 34.563 112.817 34.563 112.91 34.563C113.017 34.563 113.036 34.5272 113.178 34.4557C113.178 33.3554 113.107 32.1129 113.071 31.6614C113.051 31.4806 113.017 31.4283 112.657 31.4283C112.513 31.4283 111.828 31.3934 111.109 31.3934C110.079 31.3934 109.666 31.409 108.098 31.409C107.252 31.409 105.758 31.4283 105.018 31.4283C103.937 31.4283 103.701 31.3934 103.232 31.3934H102.616C102.561 31.4641 102.523 31.5347 102.523 31.6063C102.523 31.6999 102.561 31.7871 102.616 31.8614C102.833 31.9321 103.686 31.9156 103.937 32.0578C104.189 32.2744 104.423 32.3295 104.586 33.1939C104.622 33.5719 104.641 34.798 104.641 35.6275V39.3358C104.641 40.0911 104.622 41.3373 104.603 41.786C104.567 42.4899 104.314 43.3735 104.207 43.5351C104.044 43.6608 103.305 43.7682 102.578 43.8031C102.523 43.9132 102.486 43.9838 102.486 44.0939C102.486 44.2004 102.523 44.2545 102.578 44.3454H103.177C103.756 44.3454 105.199 44.2903 105.684 44.2903C106.135 44.2903 106.747 44.3261 107.792 44.3261C108.369 44.3261 110.062 44.4363 113.702 44.4363C113.846 44.4363 114.008 44.4555 114.188 44.4005C114.243 44.3095 114.243 44.2748 114.261 44.1132C114.295 43.7517 114.295 42.867 114.295 41.4079ZM129.411 44.1453C129.411 44.0581 129.377 43.948 129.322 43.8774C129.142 43.8774 128.402 43.8416 128.132 43.6415C128.043 43.5351 127.898 43.3194 127.826 43.1937C127.592 42.3641 127.34 41.6245 127.069 40.9408C126.692 40.0397 126.169 39.1908 125.736 38.7972C125.575 38.6522 125.07 38.4164 124.439 38.2034C124.152 38.0933 123.916 38.0034 123.7 37.9126C123.971 37.8612 124.097 37.8419 124.439 37.8061C125.611 37.6611 126.007 37.4096 126.349 37.138C127.069 36.5993 127.538 35.7891 127.538 34.8145C127.538 33.3554 126.601 31.9679 125.286 31.5549C124.854 31.4283 124.077 31.3577 123.124 31.3577C121.773 31.3577 120.763 31.4806 119.862 31.4806C119.594 31.4806 118.71 31.4448 118.08 31.4448C117.81 31.4448 117.125 31.4091 117.017 31.4091C116.963 31.5347 116.927 31.5742 116.927 31.6449C116.927 31.7155 116.944 31.822 116.963 31.8963C117.269 31.9321 117.827 32.0037 118.116 32.0578C118.548 32.3808 118.693 32.636 118.873 33.0323C118.961 33.6068 118.981 35.2311 118.981 37.7712C118.981 39.6075 118.999 41.9154 118.907 42.5991C118.855 43.0478 118.693 43.5865 118.169 43.8031C117.935 43.8416 117.503 43.9132 117.142 43.9324C117.088 44.0197 117.051 44.0939 117.051 44.1838C117.051 44.2389 117.088 44.3095 117.125 44.4005C117.376 44.4005 119.449 44.3454 120.025 44.3454C121.179 44.3454 121.466 44.4005 122.492 44.4005C122.53 44.3261 122.567 44.2748 122.567 44.2004C122.567 44.0747 122.53 44.0031 122.492 43.9324C122.135 43.8967 121.682 43.7875 121.484 43.7517C121.033 43.5351 120.711 43.1028 120.711 42.4706L120.692 37.9677C120.837 37.9484 121.358 37.9484 121.501 37.9484C121.989 37.9484 122.477 37.9868 122.943 38.2034C123.628 38.5063 124.277 38.9945 124.709 39.6625C125.286 40.5628 125.665 42.2733 125.846 43.5865C125.898 43.9682 126.043 44.2904 126.385 44.3261C126.528 44.3454 126.747 44.3812 127.43 44.3812H129.302C129.377 44.3096 129.411 44.2389 129.411 44.1453ZM125.628 34.5979C125.628 35.7505 124.71 37.0481 123.648 37.2839C123.214 37.3738 122.583 37.4289 121.773 37.4289C121.556 37.4289 120.943 37.4289 120.674 37.3894L120.656 35.8056V32.4001C120.656 32.1643 120.711 32.0386 120.782 31.9872C120.854 31.9321 121.592 31.877 122.043 31.877C123.735 31.877 124.511 32.0386 125.124 32.9232C125.467 33.4104 125.628 33.9684 125.628 34.5979ZM141.571 40.8142C141.571 39.3716 140.926 38.3842 139.535 37.6446C139.156 37.4289 138.492 37.1931 137.537 36.9224C136.437 36.6149 135.519 36.2571 134.924 35.9313C134.529 35.7147 133.861 35.121 133.861 33.9684C133.861 32.8167 135.033 31.8614 136.401 31.8614C137.482 31.8614 138.348 32.4001 138.869 33.1196C139.322 33.7527 139.483 34.04 139.986 35.1761C140.041 35.1916 140.112 35.2118 140.167 35.2118C140.328 35.2118 140.473 35.121 140.564 35.0302C140.509 34.5786 140.42 33.9492 140.42 33.4105C140.42 32.9424 140.528 32.3295 140.583 32.0037C140.437 31.7871 140.275 31.7513 140.041 31.7513C139.79 31.9156 139.554 32.1643 139.337 32.4001C138.15 31.4448 137.177 31.2833 136.276 31.2833C134.061 31.2833 132.476 32.7617 132.476 34.7237C132.476 35.3926 132.708 36.0406 133.14 36.7058C133.537 37.2637 134.115 37.6969 134.89 38.0227C135.411 38.2356 137.752 38.9422 138.077 39.0688C139.518 39.6267 140.06 40.1112 140.06 41.3887C140.06 42.0218 139.79 42.5799 139.266 43.2093C138.798 43.7875 138.059 44.0581 137.267 44.0581C136.42 44.0581 134.961 43.6966 134.239 42.7257C133.807 42.1668 133.195 40.995 133.014 40.292C132.889 40.2562 132.889 40.2562 132.763 40.2562C132.655 40.2562 132.527 40.292 132.421 40.3627C132.421 40.5986 132.493 41.786 132.493 42.1476C132.493 43.0285 132.33 43.4608 132.295 43.7517C132.348 43.9324 132.655 44.1132 132.872 44.1132C133.248 43.7874 133.644 43.5351 133.773 43.5351C133.88 43.5351 134.041 43.5865 134.202 43.6966C135.374 44.4555 136.348 44.5969 137.214 44.5969C139.754 44.5969 141.571 43.3194 141.571 40.8142ZM150.472 44.1288C150.472 44.0389 150.453 43.948 150.418 43.8774C150.15 43.8581 149.409 43.7874 149.085 43.7159C148.797 43.3735 148.599 42.9772 148.473 42.3284C148.455 41.463 148.436 39.501 148.436 37.8226V33.249C148.436 32.7617 148.636 32.3808 148.761 32.2744C149.102 31.9513 149.788 31.877 150.363 31.8064C150.4 31.7357 150.418 31.6448 150.418 31.5742C150.418 31.4641 150.363 31.3934 150.329 31.3576H149.808C149.05 31.3576 147.968 31.4448 147.355 31.4448C146.977 31.4448 145.896 31.3934 145.104 31.3742H144.706C144.653 31.4448 144.617 31.4448 144.617 31.6063C144.617 31.6806 144.636 31.7513 144.653 31.8422C145.538 31.9156 145.933 32.0037 146.059 32.0936C146.275 32.2579 146.58 32.6525 146.655 33.6271C146.672 33.9684 146.688 34.8888 146.706 36.5443C146.725 37.4445 146.743 38.6715 146.743 39.7139C146.743 40.2397 146.706 41.5897 146.688 42.2182C146.655 42.6514 146.562 43.0671 146.438 43.2992C146.22 43.48 146.004 43.8031 144.689 43.8967C144.653 43.9682 144.636 44.0939 144.636 44.1646C144.636 44.3095 144.669 44.3095 144.669 44.4005H144.977C145.699 44.4005 146.815 44.3095 147.751 44.3095C148.023 44.3095 149.209 44.3619 149.808 44.3619H150.4C150.453 44.2747 150.472 44.2004 150.472 44.1288ZM165.446 35.2311V31.7357C165.446 31.4641 165.336 31.3934 165.066 31.3934C164.525 31.3934 162.038 31.4641 159.156 31.4641C156.921 31.4641 155.427 31.4283 154.417 31.4283H153.085C152.852 31.4283 152.777 31.4806 152.777 31.7357V34.9953C152.852 35.0504 152.907 35.066 152.992 35.066C153.067 35.066 153.138 35.066 153.211 35.0302C153.913 33.4619 154.273 32.636 155.481 32.023C156.02 31.9679 157.912 31.9514 158.202 31.9514C158.219 32.1487 158.237 32.7782 158.256 33.5361C158.274 34.8338 158.274 35.534 158.274 38.6008C158.274 41.2473 158.256 42.6156 158.219 42.9028C158.148 43.4093 158.237 43.7874 156.076 43.8774C156.02 44.0031 156.02 44.0389 156.02 44.1839C156.02 44.2545 156.02 44.3261 156.04 44.4005H156.742C157.408 44.4005 158.291 44.3261 158.94 44.3261C159.463 44.3261 160.454 44.3812 161.553 44.3812H162.057C162.111 44.2903 162.111 44.2004 162.111 44.1132C162.111 44.0031 162.093 43.948 162.038 43.8581C161.84 43.8581 160.689 43.8967 160.183 43.5158C160.128 43.3194 160.019 42.7964 160.019 42.1668C160.004 40.2204 159.985 39.3009 159.985 38.0034C159.985 36.3286 160.004 35.0504 160.004 31.9321C160.255 31.9321 161.589 31.9156 162.131 31.9321C163.245 32.2386 163.677 32.6525 164.164 33.3004C164.597 33.8785 164.705 34.4015 164.973 35.266C165.084 35.3018 165.137 35.3018 165.246 35.3018C165.315 35.3018 165.408 35.266 165.446 35.2311ZM180 31.5191C180 31.409 179.928 31.3742 179.893 31.3026C179.154 31.3026 178.182 31.3577 177.802 31.3577C176.883 31.3577 175.768 31.2833 175.28 31.2833C175.225 31.3934 175.207 31.409 175.207 31.4999C175.207 31.5733 175.219 31.6462 175.244 31.7155C175.768 31.822 176.523 31.9514 176.668 32.2038C176.794 32.4359 176.83 32.6167 176.83 32.904C176.83 33.1196 176.814 33.3361 176.721 33.5719C176.56 34.0207 176.217 34.7236 175.731 35.7147C174.901 37.3894 174.379 38.4356 174.09 38.8486C173.623 38.0585 172.578 35.9698 172.327 35.4275L171.316 33.2297C171.281 33.159 171.244 32.9039 171.244 32.7424C171.244 32.5102 171.281 32.3451 171.316 32.2744C171.479 31.9514 172.038 31.9156 172.794 31.822C172.829 31.7357 172.848 31.6256 172.848 31.5549C172.848 31.4283 172.794 31.4641 172.74 31.3742H172.416C171.209 31.3742 171.568 31.4283 169.496 31.4283C168.615 31.4283 167.551 31.3742 167.408 31.3742C167.335 31.4998 167.299 31.5191 167.299 31.6448C167.299 31.7155 167.317 31.7705 167.373 31.8615C168.578 32.1487 168.937 32.3643 169.065 32.6001L172.218 38.7779C172.524 39.3561 172.704 39.8039 172.794 40.1305C172.92 40.6334 172.94 41.3731 172.94 42.2898C172.94 43.0671 172.669 43.48 172.361 43.681C172.237 43.7517 171.334 43.8774 170.921 43.9131C170.848 44.0388 170.828 44.0747 170.828 44.1646C170.828 44.2545 170.866 44.3095 170.885 44.3812C171.803 44.3812 172.759 44.362 173.299 44.362C173.677 44.362 174.254 44.3812 175.316 44.4004C175.928 44.4161 176.397 44.4363 176.721 44.4363C176.758 44.3619 176.814 44.2903 176.814 44.2004C176.814 44.1132 176.794 44.0581 176.74 43.9682C176.162 43.8967 175.355 43.7875 175.173 43.6067C174.883 43.2992 174.742 43.1579 174.703 42.4541L174.56 39.7498C174.542 39.5524 174.614 39.3716 174.632 39.3202C174.685 39.1202 174.756 38.9587 174.827 38.8137L177.604 33.3196C177.854 32.8515 178.397 32.3295 178.757 32.1129C179.012 31.9514 179.569 31.8422 179.928 31.7513C179.967 31.6614 180 31.5898 180 31.5191Z"
    fill="#231F20"/>
</svg>
