<svg width="162" height="51" viewBox="0 0 162 51" fill="none" xmlns="http://www.w3.org/2000/svg">
  <path
    d="M1.07872 0.0507812C0.797478 0.0507812 0.762329 0.122029 0.762329 0.332023V1.10349C0.762329 1.35098 0.798416 1.41988 1.00842 1.41988H2.65877C3.74754 1.41988 3.99274 1.98089 3.99274 3.21083V11.568C3.99274 16.1679 4.13273 18.5229 4.55522 20.1028C5.11645 22.3153 6.34537 23.8591 8.7329 24.8078C9.89167 25.3003 11.648 25.5441 13.473 25.5441C16.5279 25.5441 18.6713 24.7367 20.0763 23.4368C22.0424 21.7518 22.8142 19.5403 23.0254 16.6616C23.1304 15.2916 23.2012 9.14658 23.2012 8.65399C23.2012 8.16276 23.2015 3.17605 23.2715 2.82606C23.3778 2.40482 23.4825 1.4199 24.7813 1.4199H26.2207C26.397 1.4199 26.4317 1.2796 26.4317 1.06835V0.298854C26.4317 0.192607 26.3964 0.0508113 26.0801 0.0508113C25.7639 0.0508113 24.6407 0.156308 22.217 0.156308C19.8646 0.156308 18.25 0.0508113 17.8988 0.0508113C17.6875 0.0508113 17.6527 0.122559 17.6527 0.298854V1.14063C17.6527 1.31562 17.6875 1.41991 17.8988 1.41991H19.4436C20.3573 1.41991 20.9187 2.05301 21.0237 2.96677C21.1299 3.84424 21.1994 5.87988 21.1994 8.54861V16.064C21.1994 18.6627 20.742 20.7699 19.3734 22.2436C18.1446 23.5086 16.1071 24.1752 14.1059 24.1752C12.0698 24.1752 9.82207 23.5428 8.52211 21.6478C7.71588 20.4541 7.43604 18.8031 7.40104 17.187C7.36479 16.0645 7.2233 11.6043 7.2233 9.74197V7.42564C7.2233 5.63449 7.25861 3.17496 7.29361 2.86127C7.36361 2.08754 7.96164 1.41991 8.97906 1.41991H10.7368C10.9818 1.41991 11.0161 1.35204 11.0161 1.17578V0.261745C11.0161 0.121749 10.9809 0.0508113 10.6997 0.0508113C10.3135 0.0508113 8.62797 0.156308 5.88935 0.156308C3.14943 0.156308 1.42871 0.0507812 1.07872 0.0507812ZM110.886 5.19513C109.512 5.19513 108.292 5.5416 107.3 6.3416C106.461 7.06658 105.659 8.25044 105.659 9.54661C105.659 11.4166 106.118 12.6363 106.995 13.4763C108.14 14.5063 109.971 15.1911 110.733 15.4586C112.756 16.2224 114.245 17.1762 114.245 19.3511C114.245 20.9923 112.411 21.9449 111.19 21.9449C109.779 21.9449 108.519 21.1824 107.948 20.0387C107.262 18.7787 107.263 17.978 107.263 17.443C107.263 17.2905 107.11 17.2142 106.958 17.1754L106.27 17.1012C106.118 17.1012 106.04 17.215 106.003 17.3687C105.964 17.9787 105.698 21.0284 105.583 22.0971C105.545 22.2883 105.658 22.4427 105.888 22.519C106.193 22.5952 106.384 22.5188 106.462 22.3276L106.575 22.0209C106.651 21.7159 106.88 21.7535 107.147 21.9448C108.025 22.631 109.359 23.2808 111.305 23.2808C114.777 23.2808 116.608 20.8393 116.608 17.9781C116.608 16.0694 116.15 15.1167 115.387 14.3142C114.434 13.323 113.023 12.9032 111.268 12.2557C110.543 11.9882 109.169 11.4162 108.597 10.6912C108.177 10.195 107.987 9.39336 107.987 8.82218C107.987 8.1347 108.597 6.49415 110.696 6.49415C111.801 6.49415 112.641 6.87663 113.214 7.52532C114.015 8.44029 114.32 9.77545 114.55 10.2342C114.587 10.348 114.662 10.4241 114.776 10.3866L115.464 10.2342C115.579 10.1955 115.618 10.1175 115.618 10.0038C115.581 9.46878 115.235 6.98905 115.235 5.73039C115.235 5.54039 115.196 5.38861 114.891 5.38861C114.586 5.38861 114.472 5.38938 114.397 5.50185L114.245 5.76943C114.167 5.96192 113.977 5.92076 113.595 5.6933C113.137 5.46331 112.336 5.19513 110.886 5.19513ZM127.425 5.46273C127.31 5.45023 127.326 5.44848 127.279 5.48222C127.231 5.51472 127.225 5.5531 127.208 5.61308C126.898 6.76685 126.236 9.11848 126.015 9.81226C125.977 9.96476 125.977 10.1176 126.167 10.1951L126.855 10.4626C127.007 10.5389 127.122 10.4238 127.199 10.2712C127.695 9.28 128.496 8.05999 129.448 7.33381C130.861 6.95257 133.003 6.99007 133.728 6.99007V15.1929C133.728 17.4817 133.727 19.5046 133.612 20.9546C133.575 21.2596 133.308 21.5639 132.735 21.5639H131.21C131.056 21.5639 130.981 21.6403 130.981 21.8315V22.5932C130.981 22.8219 131.057 22.9369 131.286 22.9369C131.591 22.9369 134.072 22.8217 135.14 22.8217C136.398 22.8217 138.763 22.9369 139.03 22.9369C139.221 22.9369 139.298 22.8234 139.298 22.7084V21.9077C139.298 21.6789 139.221 21.5639 139.03 21.5639H137.581C136.971 21.5639 136.781 21.183 136.704 20.5718C136.666 20.2668 136.665 17.4063 136.665 13.4001V6.99016C137.352 6.99016 140.143 7.02728 141.098 7.37101C141.898 8.09599 142.547 9.35465 143.004 10.3084C143.082 10.4997 143.196 10.539 143.424 10.4627L144.073 10.2713C144.225 10.1963 144.302 10.1172 144.264 9.96468C144.142 9.30845 143.833 7.95484 143.606 6.91987C143.951 6.94487 144.491 7.04855 144.815 7.37104C145.426 7.94352 150.08 14.7724 150.424 15.4587V16.8337C150.424 19.0848 150.424 20.4574 150.385 20.8024C150.348 21.3361 150.117 21.5641 148.897 21.5641H148.325C148.172 21.5641 148.096 21.6788 148.096 21.7926V22.6324C148.096 22.8599 148.172 22.9371 148.362 22.9371C148.592 22.9371 150.804 22.8218 151.643 22.8218C152.903 22.8218 155.039 22.9371 155.268 22.9371C155.497 22.9371 155.574 22.8219 155.574 22.6695V21.7554C155.574 21.6404 155.497 21.5641 155.307 21.5641H154.811C154.126 21.5641 153.514 21.5254 153.438 20.7242C153.362 20.2667 153.399 19.2367 153.362 18.2829V15.0779C154.239 13.7429 158.664 7.52371 159.236 7.21871C159.58 7.02747 159.999 6.91403 160.609 6.91403H160.992C161.145 6.91403 161.221 6.83641 161.221 6.64645V5.84569C161.221 5.6157 161.146 5.54101 160.953 5.54101C160.726 5.54101 159.389 5.65426 158.703 5.65426C157.559 5.65426 155.649 5.54101 155.422 5.54101C155.23 5.54101 155.154 5.65413 155.154 5.80663V6.64644C155.154 6.79894 155.23 6.91402 155.422 6.91402H156.033C156.872 6.91402 156.834 7.40947 156.527 8.01949C156.375 8.32448 153.209 12.9426 152.637 13.8963C152.027 12.9801 148.859 7.90499 148.629 7.5625C148.477 7.33376 148.516 6.91408 149.204 6.91408H149.776C150.005 6.91408 150.043 6.79897 150.043 6.6465V5.80669C150.043 5.61544 149.928 5.54107 149.776 5.54107C149.508 5.54107 146.915 5.65432 146.075 5.65432C145.16 5.65432 140.677 5.5992 139.946 5.6192C138.492 5.67919 137.149 5.73057 135.901 5.73057H134.378C130.187 5.73057 128.02 5.52898 127.425 5.46273ZM45.7154 5.54082C45.5629 5.54082 45.4889 5.61682 45.4889 5.76933V6.64625C45.4889 6.79875 45.5254 6.91383 45.7154 6.91383H46.4029C48.0054 6.91383 48.3501 7.2946 48.3501 7.71459C48.3501 8.24832 48.4243 12.0635 48.4243 12.6734V14.3532C48.4243 15.6494 48.3876 20.4956 48.3501 20.8394C48.2726 21.5244 47.6632 21.564 46.7095 21.564H45.8697C45.7172 21.564 45.6412 21.6787 45.6412 21.7925V22.6323C45.6412 22.8223 45.7172 22.937 45.8697 22.937C46.0997 22.937 48.3116 22.8218 49.6078 22.8218C51.3252 22.8218 53.3106 22.937 53.6156 22.937C53.8055 22.937 53.8441 22.8219 53.8441 22.6694V21.7554C53.8441 21.6404 53.8056 21.564 53.6156 21.564H53.0414C51.9352 21.564 51.4783 21.0294 51.4008 20.1519C51.3633 19.5795 51.3637 15.1934 51.3637 14.9646V13.0564C51.3637 12.789 51.4008 8.24828 51.4008 7.8671C51.4408 7.06587 51.7829 6.914 52.8129 6.914H53.4632C53.6532 6.914 53.6917 6.79889 53.6917 6.64642V5.73239C53.6917 5.61739 53.6157 5.54099 53.4632 5.54099C53.1582 5.54099 51.2102 5.65424 50.1039 5.65424C48.3115 5.69299 45.9454 5.54082 45.7154 5.54082ZM55.1586 5.54082C55.0048 5.54082 54.9301 5.61657 54.9301 5.73027V6.68336C54.9301 6.79836 54.9671 6.91383 55.1195 6.91383H55.5023C55.9973 6.91383 56.3027 7.21842 56.6078 7.63841C56.8753 8.01965 58.0207 11.4907 58.6682 13.2457L58.9358 14.0855C59.2408 14.9242 61.2617 20.4564 62.1017 22.7063C62.2167 23.0126 62.4061 23.2805 62.7111 23.2805C63.0173 23.2805 63.2074 23.1652 63.3224 22.9739C63.6274 22.4789 66.7572 15.0006 67.0997 14.2006C67.4821 13.2082 69.5406 8.21092 70.2656 7.48594C70.6106 7.14095 71.1441 6.91369 71.869 6.91369H72.3983H72.4784H72.7792C74.3054 6.91369 74.5346 7.06681 74.6483 7.86679C74.687 8.24927 74.7244 10.729 74.7244 12.7514V15.1166V20.8782C74.7244 21.4119 74.6099 21.5637 72.8162 21.5637H72.4744C72.2832 21.5637 72.2069 21.6397 72.2069 21.7922V22.6692C72.2069 22.8217 72.2441 22.9368 72.4354 22.9368C72.8929 22.9368 74.9919 22.8215 75.6794 22.8215C83.6916 22.8215 85.7121 22.9368 85.9801 22.9368C86.1326 22.9368 86.3225 22.7464 86.4 22.554L87.773 18.5111C87.8117 18.3973 87.734 18.283 87.6577 18.2455L87.0464 17.9017C86.9314 17.8255 86.7423 17.864 86.5523 18.1302C86.1698 18.7415 84.8338 20.4581 84.5288 20.6867C83.2314 21.7179 82.1628 21.7551 80.4841 21.7551C78.8441 21.7551 77.738 21.6406 77.738 19.847C77.738 19.352 77.6619 17.1371 77.6619 15.8022V14.5053C78.0444 14.5053 79.3783 14.5066 80.5232 14.7729C81.5145 15.0016 81.7453 15.6133 81.9353 16.5659C81.974 16.7184 82.05 16.7182 82.1638 16.7182L82.9665 16.6421C83.0803 16.6421 83.156 16.6051 83.156 16.4526C83.1185 15.9552 83.0036 14.7719 83.0036 13.9332C83.0036 13.5895 83.0035 11.5668 83.0797 11.2243C83.1185 11.0718 83.0037 10.9958 82.8512 10.9958L82.0114 10.9568C81.8589 10.9568 81.822 10.9956 81.822 11.1482C81.822 12.3319 81.4395 12.8642 80.447 13.1305C80.142 13.208 77.892 13.3239 77.662 13.3239V6.83586L81.7068 6.91398C82.088 6.91398 82.6985 7.06623 83.1559 7.48622C83.8047 8.0962 85.6363 10.2325 85.7125 10.3475C85.8275 10.5375 85.9792 10.5374 86.0542 10.4999L86.6656 10.2323C86.7418 10.1948 86.7422 10.1172 86.7046 9.96473C86.6255 9.69774 85.5586 6.41803 85.4826 6.07434C85.4056 5.61686 85.3296 5.54106 85.2536 5.54106C85.1011 5.54106 84.6049 5.61718 84.2224 5.61718L75.6778 5.6543H69.8439C68.9665 5.6543 66.9816 5.54106 66.7541 5.54106C66.6016 5.54106 66.5256 5.65455 66.5256 5.76957V6.6465C66.5256 6.83649 66.6016 6.91407 66.7541 6.91407H67.174C67.8215 6.91407 67.9748 7.10492 67.9748 7.29492C67.9748 7.67741 67.4795 8.70638 66.0295 12.9413C65.8382 13.5137 63.968 18.2453 63.7405 19.0466H63.6253C63.3953 18.4366 61.9851 14.0089 61.6801 13.0566C60.6502 9.85164 60.0004 8.36399 60.0004 7.48651C60.0004 6.98903 60.5757 6.91427 61.0706 6.91427H61.9476C62.1001 6.91427 62.2151 6.83627 62.2151 6.6838V5.80687C62.2151 5.61688 62.1379 5.54126 61.9105 5.54126C61.6805 5.54126 59.3529 5.6545 58.438 5.6545C57.4467 5.6545 55.3481 5.54126 55.1569 5.54126L55.1586 5.54082ZM88.2866 5.54082C88.1329 5.54082 88.0581 5.61532 88.0581 5.73027V6.64625C88.0581 6.79875 88.0955 6.91383 88.2104 6.91383H88.5932C89.6607 6.91383 90.0037 7.33296 90.0424 8.0954V11.7574V14.1245C90.0036 16.452 90.0421 18.7029 90.0034 20.5715C90.0034 21.4115 89.5454 21.5637 88.6304 21.5637H88.1734C88.0197 21.5637 87.943 21.6382 87.943 21.7531V22.632C87.943 22.8233 88.0197 22.9387 88.1734 22.9387C88.4397 22.9387 90.3856 22.8234 91.3393 22.8234C92.5981 22.8234 94.6577 22.9387 94.9252 22.9387C95.154 22.9387 95.2319 22.861 95.2319 22.6711V21.7531C95.2319 21.6381 95.1551 21.5637 95.0014 21.5637H94.0092C93.2467 21.5637 93.0191 21.1436 92.9429 20.6086V16.4897V15.5737C93.2091 15.4962 93.5518 15.4975 93.933 15.4975C95.5355 15.4975 96.1081 16.3363 97.4818 18.7026C97.8243 19.2738 99.5029 22.3659 100.228 22.8996C100.878 22.8609 101.794 22.8235 102.671 22.8235C103.052 22.8235 103.509 22.8606 103.853 22.8606C104.234 22.8994 104.539 22.9388 104.616 22.9388C104.769 22.9388 104.845 22.8236 104.845 22.6712V21.9075C104.845 21.68 104.808 21.5638 104.655 21.5638C103.968 21.5638 103.472 21.5252 102.937 21.1439C102.212 20.6089 101.335 19.465 100.8 18.7026C99.2362 16.4888 98.4744 15.3067 97.597 15.1167V15.0385C100.611 13.9711 102.099 12.4465 102.099 9.81409C102.099 8.93536 101.602 7.83025 100.763 7.02907C99.8079 6.18909 98.0928 5.54091 95.804 5.54091C95.3078 5.54091 91.9881 5.65416 91.5306 5.65416C90.8444 5.65416 88.4778 5.54082 88.2866 5.54082ZM117.425 5.54082C117.272 5.54082 117.198 5.61682 117.198 5.76933V6.64625C117.198 6.79875 117.235 6.91383 117.425 6.91383H118.112C119.715 6.91383 120.059 7.2946 120.059 7.71459C120.059 8.24832 120.134 12.0635 120.134 12.6734V14.3532C120.134 15.6494 120.097 20.4956 120.059 20.8394C119.982 21.5244 119.371 21.564 118.417 21.564H117.577C117.425 21.564 117.35 21.6787 117.35 21.7925V22.6323C117.35 22.8223 117.425 22.937 117.577 22.937C117.807 22.937 120.021 22.8218 121.317 22.8218C123.035 22.8218 125.018 22.937 125.323 22.937C125.513 22.937 125.551 22.8219 125.551 22.6694V21.7554C125.551 21.6404 125.513 21.564 125.323 21.564H124.751C123.644 21.564 123.188 21.0294 123.11 20.1519C123.073 19.5795 123.073 15.1934 123.073 14.9646V13.0564C123.073 12.789 123.11 8.24828 123.11 7.8671C123.149 7.06587 123.492 6.914 124.522 6.914H125.171C125.361 6.914 125.399 6.79889 125.399 6.64642V5.73239C125.399 5.61739 125.323 5.54099 125.171 5.54099C124.866 5.54099 122.92 5.65424 121.813 5.65424C120.021 5.69299 117.655 5.54082 117.425 5.54082ZM94.0834 6.76149C95.6096 6.76149 96.6796 7.10492 97.7083 7.75365C98.3958 8.21114 98.9681 9.24011 98.9681 10.3864C98.9681 11.3776 98.3196 14.3531 94.0834 14.3531C93.5885 14.3531 93.2072 14.3144 92.9409 14.2769V7.59932C92.9409 6.91309 93.5109 6.76149 94.0834 6.76149ZM23.7965 24.765C20.5854 24.765 18.2927 28.8942 18.2927 31.9367C18.2927 33.7716 19.4515 35.0518 20.7791 35.0518C24.2802 35.0518 26.3805 30.2471 26.3805 27.591C26.3805 25.9498 25.4139 24.765 23.7965 24.765ZM24.2066 25.8762C25.0041 25.8762 25.4386 26.479 25.4136 27.2277C25.4136 28.8215 22.9287 33.8915 20.4176 33.8915C19.8376 33.8915 19.3063 33.4335 19.3063 32.661C19.3063 31.5249 19.8835 30.0527 20.7048 28.7491C21.9123 26.7929 23.1928 25.8762 24.2066 25.8762ZM144.283 27.4232C144.054 27.4232 143.902 27.5363 143.824 27.6888C143.482 27.9938 142.412 28.6812 141.687 28.7962C141.345 28.8712 141.268 28.9862 141.307 29.0637C141.268 29.1775 141.383 29.3696 141.459 29.4446C141.726 29.5596 141.497 29.9795 141.42 30.2082C141.192 30.857 138.941 36.0455 138.674 36.5791C137.759 38.4879 135.812 43.065 135.545 43.3699C135.24 43.7899 134.631 44.1707 133.981 44.1707H133.541C132.434 44.1707 131.977 43.6381 131.901 42.7607C131.863 42.1882 131.861 37.8013 131.861 37.5713V35.6651C131.861 35.3976 131.901 30.857 131.901 30.4757C131.939 29.6745 132.281 29.5226 133.311 29.5226H133.961C134.151 29.5226 134.189 29.4075 134.189 29.255V28.3391C134.189 28.2241 134.113 28.1477 133.961 28.1477C133.656 28.1477 131.709 28.2609 130.602 28.2609C128.809 28.2997 126.444 28.1477 126.215 28.1477C126.062 28.1477 125.986 28.2237 125.986 28.3762V29.255C125.986 29.4075 126.025 29.5226 126.215 29.5226H126.901C128.503 29.5226 128.848 29.9034 128.848 30.3234C128.848 30.8571 128.924 34.6723 128.924 35.2822V36.96C128.924 38.2575 128.886 43.103 128.848 43.448C128.771 44.133 128.161 44.1706 127.207 44.1706H126.367C126.215 44.1706 126.139 44.2841 126.139 44.3991V45.2409C126.139 45.4309 126.215 45.5456 126.367 45.5456C126.596 45.5456 128.81 45.4304 130.107 45.4304H136.422C137.033 45.4304 139.054 45.5456 139.359 45.5456C139.55 45.5456 139.59 45.4305 139.59 45.278V44.4382C139.59 44.2845 139.551 44.1706 139.322 44.1706H138.369C137.566 44.1706 137.454 43.6753 137.681 42.9129C137.834 42.4554 139.054 39.2885 139.207 38.831H145.349C145.654 39.7085 146.685 42.7598 146.837 43.5222C146.837 43.8272 146.684 44.1707 146.226 44.1707H145.617C145.464 44.1707 145.427 44.2842 145.427 44.3992V45.2019C145.427 45.3544 145.465 45.5456 145.732 45.5456C146.227 45.5456 148.478 45.4304 149.203 45.4304C150.08 45.4304 152.102 45.5456 152.562 45.5456C152.789 45.5456 152.828 45.3169 152.828 45.2019V44.3992C152.828 44.2842 152.789 44.1707 152.636 44.1707H151.912C151.263 44.1707 150.616 43.8276 150.119 43.1414C149.852 42.7602 148.213 38.258 147.64 36.3506C147.144 34.8244 145.197 29.3686 144.664 27.841C144.588 27.5748 144.512 27.4232 144.283 27.4232ZM88.8947 27.804C86.186 27.804 83.8585 28.6059 82.0648 30.1321C80.2337 31.7332 79.2407 34.0616 79.2407 36.3878C79.2407 39.3639 80.0048 41.4237 81.5297 43.1025C83.3234 45.0874 86.3759 45.8895 88.3596 45.8895C90.8007 45.8895 92.8623 45.3534 94.8848 44.3622C95.151 44.2472 95.3027 44.1323 95.3027 43.9423C95.3027 43.7523 95.1895 43.5231 95.1895 43.1806V40.2412C95.1895 39.5924 95.9137 39.4404 96.295 39.4404H96.9434C97.0584 39.4404 97.1348 39.3269 97.1348 39.2119V38.2959C97.1348 38.1822 97.0588 38.1064 96.9063 38.1064C96.7538 38.1064 95.0375 38.1826 93.6252 38.1826C91.5664 38.1826 89.6939 38.1064 89.4652 38.1064C89.3127 38.1064 89.2757 38.1822 89.2757 38.2959V39.2119C89.2757 39.3269 89.3127 39.4033 89.4652 39.4033H90.3831C91.3744 39.4033 92.2503 39.6684 92.2503 40.5458V41.9598C92.2503 42.7223 92.1755 43.2179 91.678 43.6004C91.0681 44.0953 89.8483 44.4382 88.5121 44.4382C87.4447 44.4382 85.9196 43.8652 84.8521 42.7215C83.3634 41.1565 82.5221 38.9834 82.5221 36.0459C82.5221 34.3297 83.3627 32.3055 84.5064 31.048C85.9189 29.5219 87.4066 29.1029 88.5903 29.1029C90.3441 29.1029 91.4131 29.8642 92.4418 30.9329C93.3568 31.8479 94.0063 33.0307 94.2738 33.6418C94.3863 33.9468 94.4654 33.984 94.5804 33.9465L95.303 33.718C95.418 33.6793 95.4573 33.6033 95.4573 33.4133C95.3798 32.7258 94.8851 29.1777 94.8851 28.9877C94.8851 28.7202 94.8077 28.5677 94.4652 28.5677C94.1602 28.5677 94.0453 28.6829 93.9691 28.8353L93.7777 29.1771C93.7027 29.2921 93.5488 29.2922 93.2425 29.0248C92.5176 28.4923 90.7259 27.804 88.8947 27.804ZM54.9037 28.1478C54.7512 28.1478 54.6772 28.2238 54.6772 28.3763V29.2552C54.6772 29.4077 54.7137 29.5227 54.9037 29.5227H55.5912C57.1924 29.5227 57.5383 29.9035 57.5383 30.3235C57.5383 30.8572 57.6126 34.6724 57.6126 35.2824V36.9601C57.6126 38.2576 57.5758 43.1031 57.5383 43.4481C57.4608 44.1331 56.8515 44.1708 55.8978 44.1708H55.058C54.9055 44.1708 54.8295 44.2843 54.8295 44.3993V45.241C54.8295 45.431 54.9055 45.5457 55.058 45.5457C55.288 45.5457 57.4987 45.4305 58.7961 45.4305C60.5135 45.4305 62.4987 45.5457 62.8037 45.5457C62.9937 45.5457 63.0303 45.4306 63.0303 45.2781V44.3622C63.0303 44.2472 62.9938 44.1708 62.8037 44.1708H62.2295C61.1234 44.1708 60.6665 43.6381 60.589 42.7607C60.5515 42.1882 60.5519 37.8013 60.5519 37.5714V35.6652C60.5519 35.3977 60.589 30.8571 60.589 30.4759C60.6277 29.6746 60.9723 29.5228 62.001 29.5228H62.6514C62.8414 29.5228 62.878 29.4076 62.878 29.2552V28.3392C62.878 28.2242 62.804 28.1478 62.6514 28.1478C62.3464 28.1478 60.3996 28.261 59.2921 28.261C57.4997 28.2998 55.1337 28.1478 54.9037 28.1478ZM64.3448 28.1478C64.1923 28.1478 64.1163 28.2242 64.1163 28.3392V29.2532C64.1163 29.4057 64.1537 29.5208 64.2687 29.5208H64.6495C65.717 29.5208 66.0631 29.9406 66.1006 30.7043V34.3663V36.7335C66.0631 39.0596 66.0994 41.3105 66.0616 43.1805C66.0616 44.0192 65.6016 44.1707 64.6866 44.1707H64.2296C64.0771 44.1707 64.0011 44.2471 64.0011 44.3621V45.239C64.0011 45.4303 64.0771 45.5457 64.2296 45.5457C64.4971 45.5457 66.4417 45.4304 67.3955 45.4304C68.6555 45.4304 70.717 45.5457 70.9833 45.5457C71.2133 45.5457 71.288 45.468 71.288 45.2781V44.3621C71.288 44.2471 71.212 44.1707 71.0595 44.1707H70.0673C69.3036 44.1707 69.0765 43.7526 68.999 43.2176V39.0966V38.1806C69.2664 38.1044 69.6086 38.1045 69.9911 38.1045C71.5936 38.1045 72.1642 38.9446 73.5379 41.3095C73.8817 41.882 75.5609 44.9742 76.2858 45.5066C76.9346 45.4691 77.8497 45.4305 78.7272 45.4305C79.1096 45.4305 79.567 45.4695 79.9107 45.4695C80.292 45.507 80.5974 45.5456 80.6724 45.5456C80.8249 45.5456 80.9029 45.4305 80.9029 45.278V44.5144C80.9029 44.2856 80.864 44.1706 80.7115 44.1706C80.0265 44.1706 79.5297 44.1339 78.9947 43.7527C78.2698 43.2177 77.3918 42.0718 76.858 41.3093C75.293 39.0969 74.5305 37.9146 73.653 37.7234V37.6473C76.6667 36.5798 78.1549 35.0534 78.1549 32.421C78.1549 31.5422 77.6589 30.4384 76.8189 29.636C75.8652 28.7972 74.15 28.1478 71.86 28.1478C71.3651 28.1478 68.0454 28.261 67.5867 28.261C66.9004 28.261 64.5348 28.1478 64.3448 28.1478ZM96.5379 28.1478C96.3854 28.1478 96.3094 28.2238 96.3094 28.3763V29.2552C96.3094 29.4077 96.3467 29.5227 96.5379 29.5227H97.2254C98.8279 29.5227 99.1705 29.9035 99.1705 30.3235C99.1705 30.8572 99.2467 34.6724 99.2467 35.2824V36.9601C99.2467 38.2576 99.208 43.1031 99.1705 43.4481C99.0943 44.1331 98.4849 44.1708 97.53 44.1708H96.6902C96.5377 44.1708 96.4617 44.2843 96.4617 44.3993V45.241C96.4617 45.431 96.5377 45.5457 96.6902 45.5457C96.9189 45.5457 99.1329 45.4305 100.43 45.4305C102.146 45.4305 104.131 45.5457 104.436 45.5457C104.627 45.5457 104.665 45.4306 104.665 45.2781V44.3622C104.665 44.2472 104.627 44.1708 104.436 44.1708H103.864C102.758 44.1708 102.299 43.6381 102.221 42.7607C102.184 42.1882 102.184 37.8013 102.184 37.5714V35.6652C102.184 35.3977 102.221 30.8571 102.221 30.4759C102.261 29.6746 102.605 29.5228 103.635 29.5228H104.284C104.475 29.5228 104.512 29.4076 104.512 29.2552V28.3392C104.512 28.2242 104.436 28.1478 104.284 28.1478C103.979 28.1478 102.033 28.261 100.926 28.261C99.1344 28.297 96.7674 28.1451 96.5384 28.1451L96.5379 28.1478ZM105.979 28.1478C105.827 28.1478 105.751 28.2613 105.751 28.3763V29.2923C105.751 29.4448 105.827 29.5208 105.979 29.5208H106.323C107.392 29.5208 108.344 30.1697 108.344 31.5422V35.5499C108.344 39.861 108.269 42.5707 108.231 43.0282C108.116 43.9057 107.506 44.1707 107.124 44.1707H106.247C106.133 44.1707 106.094 44.2098 106.094 44.286V45.2782C106.094 45.4682 106.131 45.5457 106.208 45.5457C106.513 45.5457 108.23 45.4305 108.764 45.4305C109.87 45.4305 111.397 45.5457 111.664 45.5457C111.854 45.5457 111.854 45.4677 111.854 45.3153V44.4012C111.854 44.2475 111.854 44.1708 111.664 44.1708H110.862C110.482 44.1708 110.063 43.7534 109.948 42.8759C109.871 42.5309 109.719 38.7155 109.719 36.4269V31.2006H109.795C110.405 31.8868 113.496 36.0079 114.411 37.0754C114.831 37.5716 116.471 39.5156 118.225 41.6143C119.79 43.4842 121.087 45.0478 121.354 45.3152C121.506 45.4302 121.89 45.698 122.233 45.698C122.69 45.698 122.805 45.3159 122.805 44.9735V36.0459C122.805 34.4822 122.729 32.0784 122.92 30.3235C122.995 29.7885 123.186 29.5208 124.139 29.5208H124.52C124.672 29.5208 124.75 29.4056 124.75 29.2532V28.4524C124.75 28.2237 124.673 28.1478 124.483 28.1478C124.215 28.1478 122.883 28.261 122.08 28.261C120.859 28.261 119.219 28.1478 118.951 28.1478C118.761 28.1478 118.684 28.2241 118.684 28.3391V29.2532C118.684 29.4444 118.762 29.5208 118.951 29.5208H119.6C120.247 29.5208 120.82 29.7507 121.01 30.2082C121.201 30.6657 121.317 32.8792 121.317 33.7941C121.393 35.0153 121.43 36.1972 121.43 38.3721V40.8915H121.278C120.82 40.394 117.273 35.9299 116.586 35.1299C115.785 34.1762 111.397 28.644 111.282 28.4915C111.129 28.2615 110.903 28.1868 110.368 28.1868C109.91 28.1868 109.108 28.261 108.497 28.261C108.078 28.261 107.467 28.2243 106.971 28.1868C106.476 28.1868 106.055 28.1478 105.979 28.1478ZM70.3651 29.3684C71.8912 29.3684 72.958 29.7131 73.988 30.3606C74.6742 30.8181 75.2477 31.8471 75.2477 32.9933C75.2477 33.9833 74.6 36.96 70.3651 36.96C69.8688 36.96 69.4861 36.9233 69.2186 36.8858V30.2082C69.2186 29.5219 69.7926 29.3684 70.3651 29.3684ZM142.72 30.6653C142.834 30.6653 142.872 30.8181 142.947 31.0481C143.024 31.3531 144.817 37.0754 144.97 37.6104H139.781C139.971 37.2279 142.3 31.3902 142.413 31.0852C142.528 30.7802 142.605 30.6653 142.72 30.6653ZM25.4834 5.54003C25.3309 5.54003 25.2549 5.65353 25.2549 5.76854V6.68452C25.2549 6.83702 25.3309 6.91303 25.4834 6.91303H25.8252C26.8951 6.91303 27.8486 7.562 27.8486 8.93447V12.9403C27.8486 17.2513 27.7709 19.9611 27.7334 20.4185C27.6184 21.296 27.0092 21.563 26.6279 21.563H25.751C25.636 21.563 25.5986 21.6008 25.5986 21.6783V22.6704C25.5986 22.8604 25.6364 22.938 25.7139 22.938C26.0189 22.938 27.7334 22.8227 28.2684 22.8227C28.8778 22.8227 29.5654 22.8539 30.1492 22.8852C29.892 23.4938 29.6453 24.1258 29.4051 24.815H27.3037C27.1112 24.815 26.9442 25.2022 26.8955 25.3697L26.7997 25.7818C26.7523 25.9505 26.811 26.0669 26.9306 26.0669H29.0789L26.6298 34.2307C25.3261 38.6967 24.0223 40.7266 22.8623 40.7266C22.6698 40.7266 22.5009 40.5577 22.4522 40.3164C22.3809 39.9052 22.0187 39.2286 21.3174 39.2286C20.6899 39.2286 20.2803 39.7126 20.2803 40.2676C20.2803 41.0414 21.0523 41.6915 22.0185 41.6915C24.6009 41.6915 26.3174 39.0114 27.7898 35.2465C28.9973 32.1554 30.1057 28.0232 30.7331 26.0669L34.0006 26.0982C34.7381 26.0982 35.0888 26.4521 35.4401 27.2584C35.8963 28.3121 37.5468 33.4031 38.3892 35.8967L38.7408 37.0901C39.1982 38.355 42.0415 46.3618 43.1664 49.5917C43.3402 50.0492 43.4809 50.4003 43.7621 50.4003C43.9384 50.4003 44.113 50.2233 44.2543 49.9433C44.4293 49.5908 48.958 38.4246 49.3791 37.2656C49.9766 35.7907 52.7868 28.5928 53.6992 27.469C54.3655 26.6615 55.034 26.098 56.1914 26.098H57.1405C57.3518 26.098 57.3866 25.9938 57.3866 25.8538V24.975C57.3866 24.8 57.3518 24.7308 57.1405 24.7308C56.8243 24.7308 55.9466 24.8343 53.3828 24.8343C51.1717 24.8343 49.5566 24.7308 49.2404 24.7308C49.0654 24.7308 49.0294 24.7999 49.0294 24.975V25.7816C49.0294 25.9928 49.0639 26.098 49.2052 26.098H50.1192C50.9967 26.098 51.2403 26.484 51.2403 26.9065C51.2403 27.3965 51.0313 28.029 50.7501 28.9065C50.2239 30.4526 48.8897 34.4908 48.5373 35.4395C48.2573 36.2482 45.5167 43.4827 44.7093 45.1326C43.9018 42.9902 41.8657 36.9489 41.4458 35.6153C40.8133 33.6478 39.5144 29.4704 39.3032 28.2054C39.1982 27.7129 39.1606 27.2921 39.1606 27.012C39.1606 26.4146 39.6547 26.098 40.6371 26.098H42.3225C42.5688 26.098 42.6018 25.9579 42.6018 25.7816V24.975C42.6018 24.835 42.5685 24.7309 42.2522 24.7309C41.936 24.7309 40.3553 24.8343 37.4066 24.8343C34.6679 24.8343 31.311 24.7445 31.311 24.7445C32.1084 22.0396 32.5933 18.8521 34.8383 18.8521C35.562 18.8521 35.8047 19.31 35.8284 19.5512C35.9009 20.0825 36.1184 20.518 36.8909 20.518C37.3747 20.518 37.8557 20.1567 37.8557 19.4067C37.8557 19.2919 37.8179 19.1649 37.7581 19.0376C39.3039 20.8851 40.5924 22.4435 40.8576 22.7074C41.0101 22.8224 41.3928 23.0902 41.7365 23.0902C42.194 23.0902 42.3068 22.7062 42.3068 22.3637V13.4361C42.3068 11.8724 42.2308 9.46864 42.422 7.71369C42.4983 7.17996 42.6902 6.91293 43.6427 6.91293H44.0255C44.178 6.91293 44.254 6.79782 44.254 6.64536V5.84459C44.254 5.6146 44.1764 5.53991 43.9864 5.53991C43.7189 5.53991 42.3854 5.65316 41.5841 5.65316C40.3616 5.65316 38.7228 5.53991 38.4553 5.53991C38.264 5.53991 38.1877 5.61441 38.1877 5.72936V6.64535C38.1877 6.8366 38.2641 6.91292 38.4553 6.91292H39.1037C39.7512 6.91292 40.3239 7.14097 40.5138 7.59845C40.7063 8.05719 40.8204 10.2694 40.8204 11.1844C40.8954 12.4068 40.9337 13.5894 40.9337 15.7643V18.2818H40.7813C40.3238 17.7856 36.7755 13.3215 36.088 12.5202C35.2881 11.5665 30.8992 6.0343 30.7854 5.8818C30.6329 5.65181 30.4044 5.57712 29.8694 5.57712C29.4119 5.57712 28.6103 5.65324 28.0004 5.65324C27.5804 5.65324 26.97 5.61462 26.475 5.57712C25.9788 5.57712 25.5609 5.54003 25.4834 5.54003ZM29.2215 8.59074H29.2996C29.9096 9.27822 32.9997 13.3981 33.9147 14.4656C34.2845 14.9037 35.7684 16.664 37.276 18.4635C36.9082 18.1865 36.3728 17.981 35.6842 17.981C34.1142 17.981 32.7883 18.8511 32.1121 19.6236C31.5787 20.2163 31.1598 20.8691 30.784 21.563H30.3661C29.9848 21.563 29.5658 21.1437 29.452 20.2662C29.3745 19.9224 29.2216 16.1078 29.2216 13.8192L29.2215 8.59074Z"
    fill="#232D4B"/>
</svg>
