<svg fill="none" height="652" viewBox="0 0 471 652" width="471" xmlns="http://www.w3.org/2000/svg" xmlns:xlink="http://www.w3.org/1999/xlink"><linearGradient id="a" gradientUnits="userSpaceOnUse" x1="235" x2="235" y1="324" y2="622"><stop offset="0" stop-color="#602537" stop-opacity="0"/><stop offset="1" stop-color="#602537"/></linearGradient><mask id="b" height="596" maskUnits="userSpaceOnUse" width="431" x="20" y="27"><path d="m235.651 27.875c28.965 36.0826 87.654 67.3938 162.795 82.211 17.434 3.438 34.832 5.806 51.937 7.168v409.711c-15.663 1.404-31.551 3.651-47.47 6.79-79.484 15.674-140.56 49.804-167.518 88.515-26.956-38.712-88.033-72.843-167.5195-88.518-15.9265-3.14-31.8226-5.388-47.4927-6.791v-409.665c17.2774-1.354 34.8567-3.736 52.4731-7.21 75.1401-14.8172 133.8301-46.1284 162.7951-82.211z" fill="#602537"/></mask><path d="m57.4703 551.236c81.9307 16.185 146.0187 59.869 177.9017 99.361 31.883-39.492 95.97-83.176 177.901-99.361 18.925-3.738 37.811-6.323 56.384-7.822v-438.215c-16.995-1.541-34.231-3.992-51.499-7.4031-86.568-17.1006-153.28-54.2597-183.066-96.56818-29.785 42.30968-96.498 79.47008-183.0672 96.57118-17.277 3.4131-34.5214 5.8641-51.5248 7.4051v438.163c18.7617 1.491 37.8461 4.091 56.9703 7.869z" opacity=".4" stroke="#602537"/><g fill="url(#a)" mask="url(#b)"><path d="m20 324h430v298h-430z" opacity=".6"/><path d="m20 324h430v298h-430z" opacity=".6"/></g></svg>