<?xml version="1.0" encoding="UTF-8" standalone="no"?><!DOCTYPE svg PUBLIC "-//W3C//DTD SVG 1.1//EN" "http://www.w3.org/Graphics/SVG/1.1/DTD/svg11.dtd"><svg width="100%" height="100%" viewBox="0 0 471 652" version="1.1" xmlns="http://www.w3.org/2000/svg" xmlns:xlink="http://www.w3.org/1999/xlink" xml:space="preserve" xmlns:serif="http://www.serif.com/" style="fill-rule:evenodd;clip-rule:evenodd;"><path d="M57.47,551.236c81.931,16.185 146.019,59.869 177.902,99.361c31.883,-39.492 95.97,-83.176 177.901,-99.361c18.925,-3.738 37.811,-6.323 56.384,-7.822l0,-438.215c-16.995,-1.541 -34.231,-3.992 -51.499,-7.403c-86.568,-17.101 -153.28,-54.26 -183.066,-96.568c-29.785,42.309 -96.498,79.47 -183.067,96.571c-17.277,3.413 -34.522,5.864 -51.525,7.405l-0,438.163c18.762,1.491 37.846,4.091 56.97,7.869Z" style="fill:none;fill-rule:nonzero;stroke:#602537;stroke-opacity:0.4;stroke-width:1px;"/><path d="M0,105.204l0,-105.204l471,0c0.064,152.6 0.079,306.133 0.053,460.444l-0.053,-355.39c-16.995,-1.541 -35.574,-3.847 -52.842,-7.258c-86.568,-17.101 -153.28,-54.26 -183.066,-96.568c-29.785,42.309 -96.498,79.47 -183.067,96.571c-17.277,3.413 -35.022,5.864 -52.025,7.405Zm471.035,437.779c-0.01,36.299 -0.021,72.638 -0.035,109.017l-471,0l0,-108.633c18.762,1.491 38.346,4.091 57.47,7.869c81.931,16.185 146.019,59.869 177.902,99.361c31.883,-39.492 95.97,-83.176 177.901,-99.361c18.915,-3.736 39.197,-6.753 57.762,-8.253Z" style="fill:#fff;"/></svg>