<?xml version="1.0" encoding="UTF-8" standalone="no"?>
<!DOCTYPE svg PUBLIC "-//W3C//DTD SVG 1.1//EN" "http://www.w3.org/Graphics/SVG/1.1/DTD/svg11.dtd">
<svg width="100%" height="100%" viewBox="0 0 2332 1892" version="1.1" xmlns="http://www.w3.org/2000/svg" xmlns:xlink="http://www.w3.org/1999/xlink" xml:space="preserve" xmlns:serif="http://www.serif.com/" style="fill-rule:evenodd;clip-rule:evenodd;stroke-linejoin:round;stroke-miterlimit:2;">
    <g id="Artboard1" transform="matrix(1,0,0,1,832.482,239.283)">
        <rect x="-832.482" y="-239.283" width="2331.14" height="1891.87" style="fill:none;"/>
        <g transform="matrix(1,0,0,1,22.4825,0.717024)">
            <path d="M75.947,1097.31C184.23,1128.99 268.923,1195.82 310.994,1272.95C353.066,1195.82 437.759,1128.99 546.042,1097.31C571.105,1089.98 596.117,1084.91 620.714,1081.98L620.714,204.709C598.202,201.694 575.37,196.891 552.495,190.198C437.996,156.7 349.87,83.899 310.625,1.172C271.382,83.901 183.254,156.705 68.752,190.204C45.866,196.9 23.023,201.705 0.5,204.72L0.5,1081.89C25.346,1084.81 50.621,1089.9 75.947,1097.31Z" style="fill:white;fill-rule:nonzero;"/>
        </g>
    </g>
</svg>
