<svg width="24" height="14" viewBox="0 0 24 14" fill="none" xmlns="http://www.w3.org/2000/svg">
    <path fill-rule="evenodd" clip-rule="evenodd" d="M27.875 0.773437V3.75238C26.6067 3.89938 25.3169 4.15407 24.0243 4.52317C19.9245 5.69393 16.4829 7.82016 14.0885 10.404C13.2097 11.3524 12.4719 12.3625 11.8945 13.4097C11.3171 12.3625 10.5794 11.3524 9.70051 10.404C7.3062 7.82016 3.86451 5.69394 -0.235266 4.52318C-1.54107 4.15029 -2.84414 3.89417 -4.125 3.74789L-4.125 0.773438L-0.681432 0.773437V0.852743C-0.217777 0.959807 0.24635 1.07949 0.710301 1.21198C5.15334 2.48076 9.04629 4.77823 11.8945 7.71245C14.7428 4.77823 18.6357 2.48075 23.0788 1.21197C23.5297 1.0832 23.9808 0.966531 24.4314 0.861786V0.773437L27.875 0.773437Z" fill="currentColor"/>
</svg>
