<svg width="675" height="430" viewBox="0 0 675 430" fill="none" xmlns="http://www.w3.org/2000/svg">
<rect width="675" height="430" fill="#EDDDD1"/>
<path fill-rule="evenodd" clip-rule="evenodd" d="M285.018 214.949C285.018 254.203 305.91 285.033 337.752 285.033C369.258 285.033 389.981 254.54 389.981 215.117C389.981 176.032 369.09 145.033 337.247 145.033C305.91 145.033 285.018 175.695 285.018 214.949ZM360.244 170.562C349.752 167.493 341.561 161.004 337.529 153.528C333.497 161.004 325.305 167.493 314.814 170.562C312.363 171.279 309.917 171.771 307.513 172.051V256.788C309.69 257.078 311.898 257.542 314.11 258.189C325.219 261.438 333.75 268.523 337.494 276.553C341.238 268.523 349.768 261.438 360.878 258.189C363.087 257.543 365.292 257.079 367.466 256.789V172.042C365.087 171.76 362.668 171.271 360.244 170.562Z" fill="#AB8867" fill-opacity="0.3"/>
</svg>
