<svg width="400" height="193" viewBox="0 0 400 193" fill="none" xmlns="http://www.w3.org/2000/svg">
  <path
    d="M56.4939 149.278L0 157.954V193.949H400V0.314941L345.601 3.09109C344.542 3.14515 343.493 3.32035 342.473 3.61327L291.678 18.2101C288.051 19.2523 285.004 21.7256 283.239 25.0608L234.191 117.715C231.284 123.207 225.083 126.099 219.007 124.798L173.301 115.01C172.076 114.748 170.821 114.653 169.57 114.727L118.401 117.764C116.346 117.886 114.343 118.463 112.538 119.455L61.0721 147.723C59.6487 148.505 58.0991 149.031 56.4939 149.278Z"
    fill="url(#paint0_linear_436_1479)"/>
  <path opacity="0.7"
        d="M0 157.954L56.4939 149.278C58.0991 149.031 59.6487 148.505 61.0721 147.723L112.538 119.455C114.343 118.463 116.346 117.886 118.401 117.764L169.57 114.727C170.821 114.653 172.076 114.748 173.301 115.01L219.008 124.798C225.083 126.099 231.284 123.207 234.191 117.715L283.239 25.0608C285.004 21.7256 288.051 19.2524 291.678 18.2101L342.473 3.61327C343.493 3.32035 344.542 3.14515 345.601 3.09109L400 0.314941"
        stroke="#EE2212" stroke-width="0.462963"/>
  <path opacity="0.9"
        d="M10.5555 181.533C9.94884 181.533 9.45884 181.353 9.08551 180.993C8.71884 180.633 8.53551 180.156 8.53551 179.563V176.333C8.53551 175.739 8.71884 175.266 9.08551 174.913C9.45884 174.553 9.94884 174.373 10.5555 174.373C11.1688 174.373 11.6588 174.549 12.0255 174.903C12.3988 175.256 12.5855 175.726 12.5855 176.313V176.403C12.5855 176.469 12.5522 176.503 12.4855 176.503L11.9755 176.523C11.9088 176.523 11.8755 176.493 11.8755 176.433V176.293C11.8755 175.906 11.7522 175.593 11.5055 175.353C11.2655 175.113 10.9488 174.993 10.5555 174.993C10.1622 174.993 9.84551 175.113 9.60551 175.353C9.36551 175.586 9.24551 175.899 9.24551 176.293V179.613C9.24551 180.006 9.36551 180.323 9.60551 180.563C9.84551 180.796 10.1622 180.913 10.5555 180.913C10.9488 180.913 11.2655 180.793 11.5055 180.553C11.7522 180.313 11.8755 179.999 11.8755 179.613V179.473C11.8755 179.413 11.9088 179.383 11.9755 179.383L12.4855 179.413C12.5522 179.413 12.5855 179.446 12.5855 179.513V179.583C12.5855 180.169 12.3988 180.643 12.0255 181.003C11.6588 181.356 11.1688 181.533 10.5555 181.533ZM13.9292 181.453C13.8625 181.453 13.8292 181.419 13.8292 181.353V174.553C13.8292 174.486 13.8625 174.453 13.9292 174.453H14.4392C14.5058 174.453 14.5392 174.486 14.5392 174.553V181.353C14.5392 181.419 14.5058 181.453 14.4392 181.453H13.9292ZM17.5397 176.313C18.0731 176.313 18.4897 176.466 18.7897 176.773C19.0964 177.079 19.2497 177.486 19.2497 177.993V181.353C19.2497 181.419 19.2164 181.453 19.1497 181.453H18.6397C18.5731 181.453 18.5397 181.419 18.5397 181.353V180.993C18.5397 180.979 18.5331 180.969 18.5197 180.963C18.5131 180.956 18.5031 180.959 18.4897 180.973C18.3431 181.159 18.1564 181.299 17.9297 181.393C17.7031 181.486 17.4497 181.533 17.1697 181.533C16.7497 181.533 16.3897 181.419 16.0897 181.193C15.7964 180.966 15.6497 180.596 15.6497 180.083C15.6497 179.549 15.8197 179.146 16.1597 178.873C16.5064 178.593 16.9764 178.453 17.5697 178.453H18.4997C18.5264 178.453 18.5397 178.439 18.5397 178.413V178.033C18.5397 177.693 18.4531 177.426 18.2797 177.233C18.1131 177.033 17.8631 176.933 17.5297 176.933C17.2697 176.933 17.0531 176.999 16.8797 177.133C16.7064 177.259 16.6031 177.429 16.5697 177.643C16.5631 177.703 16.5264 177.733 16.4597 177.733L15.9097 177.703C15.8764 177.703 15.8497 177.693 15.8297 177.673C15.8164 177.653 15.8131 177.629 15.8197 177.603C15.8664 177.216 16.0464 176.906 16.3597 176.673C16.6797 176.433 17.0731 176.313 17.5397 176.313ZM17.3097 180.913C17.6431 180.913 17.9297 180.823 18.1697 180.643C18.4164 180.456 18.5397 180.199 18.5397 179.873V179.063C18.5397 179.036 18.5264 179.023 18.4997 179.023H17.6197C17.2397 179.023 16.9364 179.113 16.7097 179.293C16.4831 179.466 16.3697 179.716 16.3697 180.043C16.3697 180.336 16.4564 180.556 16.6297 180.703C16.8031 180.843 17.0297 180.913 17.3097 180.913ZM22.0289 181.503C21.5155 181.503 21.1022 181.379 20.7889 181.133C20.4755 180.886 20.3189 180.569 20.3189 180.183V180.093C20.3189 180.026 20.3522 179.993 20.4189 179.993H20.9089C20.9755 179.993 21.0089 180.026 21.0089 180.093V180.163C21.0089 180.376 21.1022 180.563 21.2889 180.723C21.4822 180.876 21.7289 180.953 22.0289 180.953C22.3222 180.953 22.5589 180.876 22.7389 180.723C22.9189 180.569 23.0089 180.376 23.0089 180.143C23.0089 179.976 22.9589 179.836 22.8589 179.723C22.7589 179.609 22.6355 179.519 22.4889 179.453C22.3422 179.386 22.1389 179.309 21.8789 179.223C21.5655 179.116 21.3055 179.009 21.0989 178.903C20.8922 178.796 20.7155 178.649 20.5689 178.463C20.4289 178.269 20.3589 178.026 20.3589 177.733C20.3589 177.306 20.5089 176.969 20.8089 176.723C21.1089 176.469 21.5055 176.343 21.9989 176.343C22.5055 176.343 22.9089 176.473 23.2089 176.733C23.5155 176.993 23.6689 177.326 23.6689 177.733V177.753C23.6689 177.819 23.6355 177.853 23.5689 177.853H23.1089C23.0422 177.853 23.0089 177.819 23.0089 177.753V177.713C23.0089 177.486 22.9155 177.299 22.7289 177.153C22.5489 176.999 22.3055 176.923 21.9989 176.923C21.7122 176.923 21.4789 176.996 21.2989 177.143C21.1255 177.283 21.0389 177.466 21.0389 177.693C21.0389 177.926 21.1255 178.103 21.2989 178.223C21.4789 178.343 21.7589 178.469 22.1389 178.603C22.4655 178.709 22.7355 178.816 22.9489 178.923C23.1622 179.029 23.3422 179.179 23.4889 179.373C23.6422 179.559 23.7189 179.803 23.7189 180.103C23.7189 180.529 23.5655 180.869 23.2589 181.123C22.9522 181.376 22.5422 181.503 22.0289 181.503ZM26.1109 181.503C25.5976 181.503 25.1842 181.379 24.8709 181.133C24.5576 180.886 24.4009 180.569 24.4009 180.183V180.093C24.4009 180.026 24.4342 179.993 24.5009 179.993H24.9909C25.0576 179.993 25.0909 180.026 25.0909 180.093V180.163C25.0909 180.376 25.1842 180.563 25.3709 180.723C25.5642 180.876 25.8109 180.953 26.1109 180.953C26.4042 180.953 26.6409 180.876 26.8209 180.723C27.0009 180.569 27.0909 180.376 27.0909 180.143C27.0909 179.976 27.0409 179.836 26.9409 179.723C26.8409 179.609 26.7176 179.519 26.5709 179.453C26.4242 179.386 26.2209 179.309 25.9609 179.223C25.6476 179.116 25.3876 179.009 25.1809 178.903C24.9742 178.796 24.7976 178.649 24.6509 178.463C24.5109 178.269 24.4409 178.026 24.4409 177.733C24.4409 177.306 24.5909 176.969 24.8909 176.723C25.1909 176.469 25.5876 176.343 26.0809 176.343C26.5876 176.343 26.9909 176.473 27.2909 176.733C27.5976 176.993 27.7509 177.326 27.7509 177.733V177.753C27.7509 177.819 27.7176 177.853 27.6509 177.853H27.1909C27.1242 177.853 27.0909 177.819 27.0909 177.753V177.713C27.0909 177.486 26.9976 177.299 26.8109 177.153C26.6309 176.999 26.3876 176.923 26.0809 176.923C25.7942 176.923 25.5609 176.996 25.3809 177.143C25.2076 177.283 25.1209 177.466 25.1209 177.693C25.1209 177.926 25.2076 178.103 25.3809 178.223C25.5609 178.343 25.8409 178.469 26.2209 178.603C26.5476 178.709 26.8176 178.816 27.0309 178.923C27.2442 179.029 27.4242 179.179 27.5709 179.373C27.7242 179.559 27.8009 179.803 27.8009 180.103C27.8009 180.529 27.6476 180.869 27.3409 181.123C27.0342 181.376 26.6242 181.503 26.1109 181.503ZM32.6002 181.533C32.1135 181.533 31.7135 181.403 31.4002 181.143C31.0869 180.876 30.8969 180.519 30.8302 180.073C30.7902 179.739 30.7702 179.353 30.7702 178.913C30.7702 178.473 30.7902 178.093 30.8302 177.773C30.8902 177.333 31.0769 176.979 31.3902 176.713C31.7102 176.446 32.1135 176.313 32.6002 176.313C33.0869 176.313 33.4869 176.446 33.8002 176.713C34.1202 176.979 34.3102 177.333 34.3702 177.773C34.4102 178.039 34.4302 178.419 34.4302 178.913C34.4302 179.419 34.4102 179.806 34.3702 180.073C34.3102 180.519 34.1202 180.876 33.8002 181.143C33.4869 181.403 33.0869 181.533 32.6002 181.533ZM32.6002 180.913C32.8869 180.913 33.1269 180.826 33.3202 180.653C33.5202 180.473 33.6402 180.236 33.6802 179.943C33.7069 179.696 33.7202 179.356 33.7202 178.923C33.7202 178.483 33.7069 178.143 33.6802 177.903C33.6469 177.609 33.5302 177.376 33.3302 177.203C33.1369 177.023 32.8935 176.933 32.6002 176.933C32.3069 176.933 32.0635 177.023 31.8702 177.203C31.6769 177.376 31.5602 177.609 31.5202 177.903C31.4935 178.143 31.4802 178.483 31.4802 178.923C31.4802 179.363 31.4935 179.703 31.5202 179.943C31.5535 180.236 31.6669 180.473 31.8602 180.653C32.0602 180.826 32.3069 180.913 32.6002 180.913ZM37.4856 175.033C37.1789 175.033 36.9656 175.116 36.8456 175.283C36.7256 175.449 36.6656 175.723 36.6656 176.103V176.353C36.6656 176.379 36.6789 176.393 36.7056 176.393H37.6456C37.7123 176.393 37.7456 176.426 37.7456 176.493V176.883C37.7456 176.949 37.7123 176.983 37.6456 176.983H36.7056C36.6789 176.983 36.6656 176.996 36.6656 177.023V181.353C36.6656 181.419 36.6323 181.453 36.5656 181.453H36.0556C35.9889 181.453 35.9556 181.419 35.9556 181.353V177.023C35.9556 176.996 35.9423 176.983 35.9156 176.983H35.3856C35.3189 176.983 35.2856 176.949 35.2856 176.883V176.493C35.2856 176.426 35.3189 176.393 35.3856 176.393H35.9156C35.9423 176.393 35.9556 176.379 35.9556 176.353V176.073C35.9556 175.479 36.0656 175.056 36.2856 174.803C36.5123 174.549 36.9023 174.423 37.4556 174.423H37.6656C37.7323 174.423 37.7656 174.456 37.7656 174.523V174.933C37.7656 174.999 37.7323 175.033 37.6656 175.033H37.4856ZM41.5414 180.783C41.5214 180.816 41.528 180.833 41.5614 180.833H44.3114C44.378 180.833 44.4114 180.866 44.4114 180.933V181.353C44.4114 181.419 44.378 181.453 44.3114 181.453H40.7514C40.6847 181.453 40.6514 181.419 40.6514 181.353V180.913C40.6514 180.873 40.6647 180.829 40.6914 180.783C41.2914 179.969 41.9614 179.036 42.7014 177.983C43.228 177.216 43.4914 176.603 43.4914 176.143C43.4914 175.796 43.3914 175.519 43.1914 175.313C42.9914 175.099 42.728 174.993 42.4014 174.993C42.0814 174.993 41.8247 175.099 41.6314 175.313C41.438 175.519 41.3447 175.796 41.3514 176.143V176.483C41.3514 176.549 41.318 176.583 41.2514 176.583H40.7314C40.6647 176.583 40.6314 176.549 40.6314 176.483V176.083C40.6447 175.569 40.8147 175.156 41.1414 174.843C41.4747 174.529 41.9014 174.373 42.4214 174.373C42.9547 174.373 43.3847 174.536 43.7114 174.863C44.038 175.189 44.2014 175.616 44.2014 176.143C44.2014 176.729 43.928 177.423 43.3814 178.223C43.0414 178.716 42.5047 179.463 41.7714 180.463L41.5414 180.783ZM47.3489 181.553C46.7755 181.553 46.3155 181.379 45.9689 181.033C45.6222 180.686 45.4489 180.223 45.4489 179.643V176.263C45.4489 175.689 45.6222 175.229 45.9689 174.883C46.3155 174.536 46.7755 174.363 47.3489 174.363C47.9289 174.363 48.3922 174.536 48.7389 174.883C49.0922 175.229 49.2689 175.689 49.2689 176.263V179.643C49.2689 180.223 49.0922 180.686 48.7389 181.033C48.3922 181.379 47.9289 181.553 47.3489 181.553ZM47.3489 180.933C47.7155 180.933 48.0089 180.819 48.2289 180.593C48.4489 180.366 48.5589 180.066 48.5589 179.693V176.223C48.5589 175.849 48.4489 175.549 48.2289 175.323C48.0089 175.096 47.7155 174.983 47.3489 174.983C46.9955 174.983 46.7089 175.096 46.4889 175.323C46.2689 175.549 46.1589 175.849 46.1589 176.223V179.693C46.1589 180.059 46.2689 180.359 46.4889 180.593C46.7089 180.819 46.9955 180.933 47.3489 180.933ZM51.2679 180.783C51.2479 180.816 51.2546 180.833 51.2879 180.833H54.0379C54.1046 180.833 54.1379 180.866 54.1379 180.933V181.353C54.1379 181.419 54.1046 181.453 54.0379 181.453H50.4779C50.4113 181.453 50.3779 181.419 50.3779 181.353V180.913C50.3779 180.873 50.3913 180.829 50.4179 180.783C51.0179 179.969 51.6879 179.036 52.4279 177.983C52.9546 177.216 53.2179 176.603 53.2179 176.143C53.2179 175.796 53.1179 175.519 52.9179 175.313C52.7179 175.099 52.4546 174.993 52.1279 174.993C51.8079 174.993 51.5513 175.099 51.3579 175.313C51.1646 175.519 51.0713 175.796 51.0779 176.143V176.483C51.0779 176.549 51.0446 176.583 50.9779 176.583H50.4579C50.3913 176.583 50.3579 176.549 50.3579 176.483V176.083C50.3713 175.569 50.5413 175.156 50.8679 174.843C51.2013 174.529 51.6279 174.373 52.1479 174.373C52.6813 174.373 53.1113 174.536 53.4379 174.863C53.7646 175.189 53.9279 175.616 53.9279 176.143C53.9279 176.729 53.6546 177.423 53.1079 178.223C52.7679 178.716 52.2313 179.463 51.4979 180.463L51.2679 180.783ZM57.0754 181.553C56.5021 181.553 56.0421 181.379 55.6954 181.033C55.3488 180.686 55.1754 180.223 55.1754 179.643V176.263C55.1754 175.689 55.3488 175.229 55.6954 174.883C56.0421 174.536 56.5021 174.363 57.0754 174.363C57.6554 174.363 58.1188 174.536 58.4654 174.883C58.8188 175.229 58.9954 175.689 58.9954 176.263V179.643C58.9954 180.223 58.8188 180.686 58.4654 181.033C58.1188 181.379 57.6554 181.553 57.0754 181.553ZM57.0754 180.933C57.4421 180.933 57.7354 180.819 57.9554 180.593C58.1754 180.366 58.2854 180.066 58.2854 179.693V176.223C58.2854 175.849 58.1754 175.549 57.9554 175.323C57.7354 175.096 57.4421 174.983 57.0754 174.983C56.7221 174.983 56.4354 175.096 56.2154 175.323C55.9954 175.549 55.8854 175.849 55.8854 176.223V179.693C55.8854 180.059 55.9954 180.359 56.2154 180.593C56.4354 180.819 56.7221 180.933 57.0754 180.933Z"
        fill="#29202D"/>
  <mask id="path-4-inside-1_436_1479" fill="white">
    <path d="M342.5 160.749H390V193.156H342.5V160.749Z"/>
  </mask>
  <path d="M389.769 160.749V193.156H390.231V160.749H389.769Z" fill="#D9CBCF" fill-opacity="0.8"
        mask="url(#path-4-inside-1_436_1479)"/>
  <path opacity="0.9"
        d="M343.48 181.533C342.874 181.533 342.384 181.353 342.01 180.993C341.644 180.633 341.46 180.156 341.46 179.563V176.333C341.46 175.739 341.644 175.266 342.01 174.913C342.384 174.553 342.874 174.373 343.48 174.373C344.094 174.373 344.584 174.549 344.95 174.903C345.324 175.256 345.51 175.726 345.51 176.313V176.403C345.51 176.469 345.477 176.503 345.41 176.503L344.9 176.523C344.834 176.523 344.8 176.493 344.8 176.433V176.293C344.8 175.906 344.677 175.593 344.43 175.353C344.19 175.113 343.874 174.993 343.48 174.993C343.087 174.993 342.77 175.113 342.53 175.353C342.29 175.586 342.17 175.899 342.17 176.293V179.613C342.17 180.006 342.29 180.323 342.53 180.563C342.77 180.796 343.087 180.913 343.48 180.913C343.874 180.913 344.19 180.793 344.43 180.553C344.677 180.313 344.8 179.999 344.8 179.613V179.473C344.8 179.413 344.834 179.383 344.9 179.383L345.41 179.413C345.477 179.413 345.51 179.446 345.51 179.513V179.583C345.51 180.169 345.324 180.643 344.95 181.003C344.584 181.356 344.094 181.533 343.48 181.533ZM346.854 181.453C346.787 181.453 346.754 181.419 346.754 181.353V174.553C346.754 174.486 346.787 174.453 346.854 174.453H347.364C347.431 174.453 347.464 174.486 347.464 174.553V181.353C347.464 181.419 347.431 181.453 347.364 181.453H346.854ZM350.465 176.313C350.998 176.313 351.415 176.466 351.715 176.773C352.021 177.079 352.175 177.486 352.175 177.993V181.353C352.175 181.419 352.141 181.453 352.075 181.453H351.565C351.498 181.453 351.465 181.419 351.465 181.353V180.993C351.465 180.979 351.458 180.969 351.445 180.963C351.438 180.956 351.428 180.959 351.415 180.973C351.268 181.159 351.081 181.299 350.855 181.393C350.628 181.486 350.375 181.533 350.095 181.533C349.675 181.533 349.315 181.419 349.015 181.193C348.721 180.966 348.575 180.596 348.575 180.083C348.575 179.549 348.745 179.146 349.085 178.873C349.431 178.593 349.901 178.453 350.495 178.453H351.425C351.451 178.453 351.465 178.439 351.465 178.413V178.033C351.465 177.693 351.378 177.426 351.205 177.233C351.038 177.033 350.788 176.933 350.455 176.933C350.195 176.933 349.978 176.999 349.805 177.133C349.631 177.259 349.528 177.429 349.495 177.643C349.488 177.703 349.451 177.733 349.385 177.733L348.835 177.703C348.801 177.703 348.775 177.693 348.755 177.673C348.741 177.653 348.738 177.629 348.745 177.603C348.791 177.216 348.971 176.906 349.285 176.673C349.605 176.433 349.998 176.313 350.465 176.313ZM350.235 180.913C350.568 180.913 350.855 180.823 351.095 180.643C351.341 180.456 351.465 180.199 351.465 179.873V179.063C351.465 179.036 351.451 179.023 351.425 179.023H350.545C350.165 179.023 349.861 179.113 349.635 179.293C349.408 179.466 349.295 179.716 349.295 180.043C349.295 180.336 349.381 180.556 349.555 180.703C349.728 180.843 349.955 180.913 350.235 180.913ZM354.954 181.503C354.44 181.503 354.027 181.379 353.714 181.133C353.4 180.886 353.244 180.569 353.244 180.183V180.093C353.244 180.026 353.277 179.993 353.344 179.993H353.834C353.9 179.993 353.934 180.026 353.934 180.093V180.163C353.934 180.376 354.027 180.563 354.214 180.723C354.407 180.876 354.654 180.953 354.954 180.953C355.247 180.953 355.484 180.876 355.664 180.723C355.844 180.569 355.934 180.376 355.934 180.143C355.934 179.976 355.884 179.836 355.784 179.723C355.684 179.609 355.56 179.519 355.414 179.453C355.267 179.386 355.064 179.309 354.804 179.223C354.49 179.116 354.23 179.009 354.024 178.903C353.817 178.796 353.64 178.649 353.494 178.463C353.354 178.269 353.284 178.026 353.284 177.733C353.284 177.306 353.434 176.969 353.734 176.723C354.034 176.469 354.43 176.343 354.924 176.343C355.43 176.343 355.834 176.473 356.134 176.733C356.44 176.993 356.594 177.326 356.594 177.733V177.753C356.594 177.819 356.56 177.853 356.494 177.853H356.034C355.967 177.853 355.934 177.819 355.934 177.753V177.713C355.934 177.486 355.84 177.299 355.654 177.153C355.474 176.999 355.23 176.923 354.924 176.923C354.637 176.923 354.404 176.996 354.224 177.143C354.05 177.283 353.964 177.466 353.964 177.693C353.964 177.926 354.05 178.103 354.224 178.223C354.404 178.343 354.684 178.469 355.064 178.603C355.39 178.709 355.66 178.816 355.874 178.923C356.087 179.029 356.267 179.179 356.414 179.373C356.567 179.559 356.644 179.803 356.644 180.103C356.644 180.529 356.49 180.869 356.184 181.123C355.877 181.376 355.467 181.503 354.954 181.503ZM359.036 181.503C358.522 181.503 358.109 181.379 357.796 181.133C357.482 180.886 357.326 180.569 357.326 180.183V180.093C357.326 180.026 357.359 179.993 357.426 179.993H357.916C357.982 179.993 358.016 180.026 358.016 180.093V180.163C358.016 180.376 358.109 180.563 358.296 180.723C358.489 180.876 358.736 180.953 359.036 180.953C359.329 180.953 359.566 180.876 359.746 180.723C359.926 180.569 360.016 180.376 360.016 180.143C360.016 179.976 359.966 179.836 359.866 179.723C359.766 179.609 359.642 179.519 359.496 179.453C359.349 179.386 359.146 179.309 358.886 179.223C358.572 179.116 358.312 179.009 358.106 178.903C357.899 178.796 357.722 178.649 357.576 178.463C357.436 178.269 357.366 178.026 357.366 177.733C357.366 177.306 357.516 176.969 357.816 176.723C358.116 176.469 358.512 176.343 359.006 176.343C359.512 176.343 359.916 176.473 360.216 176.733C360.522 176.993 360.676 177.326 360.676 177.733V177.753C360.676 177.819 360.642 177.853 360.576 177.853H360.116C360.049 177.853 360.016 177.819 360.016 177.753V177.713C360.016 177.486 359.922 177.299 359.736 177.153C359.556 176.999 359.312 176.923 359.006 176.923C358.719 176.923 358.486 176.996 358.306 177.143C358.132 177.283 358.046 177.466 358.046 177.693C358.046 177.926 358.132 178.103 358.306 178.223C358.486 178.343 358.766 178.469 359.146 178.603C359.472 178.709 359.742 178.816 359.956 178.923C360.169 179.029 360.349 179.179 360.496 179.373C360.649 179.559 360.726 179.803 360.726 180.103C360.726 180.529 360.572 180.869 360.266 181.123C359.959 181.376 359.549 181.503 359.036 181.503ZM365.525 181.533C365.038 181.533 364.638 181.403 364.325 181.143C364.012 180.876 363.822 180.519 363.755 180.073C363.715 179.739 363.695 179.353 363.695 178.913C363.695 178.473 363.715 178.093 363.755 177.773C363.815 177.333 364.002 176.979 364.315 176.713C364.635 176.446 365.038 176.313 365.525 176.313C366.012 176.313 366.412 176.446 366.725 176.713C367.045 176.979 367.235 177.333 367.295 177.773C367.335 178.039 367.355 178.419 367.355 178.913C367.355 179.419 367.335 179.806 367.295 180.073C367.235 180.519 367.045 180.876 366.725 181.143C366.412 181.403 366.012 181.533 365.525 181.533ZM365.525 180.913C365.812 180.913 366.052 180.826 366.245 180.653C366.445 180.473 366.565 180.236 366.605 179.943C366.632 179.696 366.645 179.356 366.645 178.923C366.645 178.483 366.632 178.143 366.605 177.903C366.572 177.609 366.455 177.376 366.255 177.203C366.062 177.023 365.818 176.933 365.525 176.933C365.232 176.933 364.988 177.023 364.795 177.203C364.602 177.376 364.485 177.609 364.445 177.903C364.418 178.143 364.405 178.483 364.405 178.923C364.405 179.363 364.418 179.703 364.445 179.943C364.478 180.236 364.592 180.473 364.785 180.653C364.985 180.826 365.232 180.913 365.525 180.913ZM370.41 175.033C370.104 175.033 369.89 175.116 369.77 175.283C369.65 175.449 369.59 175.723 369.59 176.103V176.353C369.59 176.379 369.604 176.393 369.63 176.393H370.57C370.637 176.393 370.67 176.426 370.67 176.493V176.883C370.67 176.949 370.637 176.983 370.57 176.983H369.63C369.604 176.983 369.59 176.996 369.59 177.023V181.353C369.59 181.419 369.557 181.453 369.49 181.453H368.98C368.914 181.453 368.88 181.419 368.88 181.353V177.023C368.88 176.996 368.867 176.983 368.84 176.983H368.31C368.244 176.983 368.21 176.949 368.21 176.883V176.493C368.21 176.426 368.244 176.393 368.31 176.393H368.84C368.867 176.393 368.88 176.379 368.88 176.353V176.073C368.88 175.479 368.99 175.056 369.21 174.803C369.437 174.549 369.827 174.423 370.38 174.423H370.59C370.657 174.423 370.69 174.456 370.69 174.523V174.933C370.69 174.999 370.657 175.033 370.59 175.033H370.41ZM374.466 180.783C374.446 180.816 374.453 180.833 374.486 180.833H377.236C377.303 180.833 377.336 180.866 377.336 180.933V181.353C377.336 181.419 377.303 181.453 377.236 181.453H373.676C373.61 181.453 373.576 181.419 373.576 181.353V180.913C373.576 180.873 373.59 180.829 373.616 180.783C374.216 179.969 374.886 179.036 375.626 177.983C376.153 177.216 376.416 176.603 376.416 176.143C376.416 175.796 376.316 175.519 376.116 175.313C375.916 175.099 375.653 174.993 375.326 174.993C375.006 174.993 374.75 175.099 374.556 175.313C374.363 175.519 374.27 175.796 374.276 176.143V176.483C374.276 176.549 374.243 176.583 374.176 176.583H373.656C373.59 176.583 373.556 176.549 373.556 176.483V176.083C373.57 175.569 373.74 175.156 374.066 174.843C374.4 174.529 374.826 174.373 375.346 174.373C375.88 174.373 376.31 174.536 376.636 174.863C376.963 175.189 377.126 175.616 377.126 176.143C377.126 176.729 376.853 177.423 376.306 178.223C375.966 178.716 375.43 179.463 374.696 180.463L374.466 180.783ZM380.274 181.553C379.7 181.553 379.24 181.379 378.894 181.033C378.547 180.686 378.374 180.223 378.374 179.643V176.263C378.374 175.689 378.547 175.229 378.894 174.883C379.24 174.536 379.7 174.363 380.274 174.363C380.854 174.363 381.317 174.536 381.664 174.883C382.017 175.229 382.194 175.689 382.194 176.263V179.643C382.194 180.223 382.017 180.686 381.664 181.033C381.317 181.379 380.854 181.553 380.274 181.553ZM380.274 180.933C380.64 180.933 380.934 180.819 381.154 180.593C381.374 180.366 381.484 180.066 381.484 179.693V176.223C381.484 175.849 381.374 175.549 381.154 175.323C380.934 175.096 380.64 174.983 380.274 174.983C379.92 174.983 379.634 175.096 379.414 175.323C379.194 175.549 379.084 175.849 379.084 176.223V179.693C379.084 180.059 379.194 180.359 379.414 180.593C379.634 180.819 379.92 180.933 380.274 180.933ZM384.193 180.783C384.173 180.816 384.179 180.833 384.213 180.833H386.963C387.029 180.833 387.063 180.866 387.063 180.933V181.353C387.063 181.419 387.029 181.453 386.963 181.453H383.403C383.336 181.453 383.303 181.419 383.303 181.353V180.913C383.303 180.873 383.316 180.829 383.343 180.783C383.943 179.969 384.613 179.036 385.353 177.983C385.879 177.216 386.143 176.603 386.143 176.143C386.143 175.796 386.043 175.519 385.843 175.313C385.643 175.099 385.379 174.993 385.053 174.993C384.733 174.993 384.476 175.099 384.283 175.313C384.089 175.519 383.996 175.796 384.003 176.143V176.483C384.003 176.549 383.969 176.583 383.903 176.583H383.383C383.316 176.583 383.283 176.549 383.283 176.483V176.083C383.296 175.569 383.466 175.156 383.793 174.843C384.126 174.529 384.553 174.373 385.073 174.373C385.606 174.373 386.036 174.536 386.363 174.863C386.689 175.189 386.853 175.616 386.853 176.143C386.853 176.729 386.579 177.423 386.033 178.223C385.693 178.716 385.156 179.463 384.423 180.463L384.193 180.783ZM388.8 181.453C388.727 181.453 388.7 181.416 388.72 181.343L390.73 175.123C390.737 175.109 390.734 175.099 390.72 175.093C390.714 175.079 390.704 175.073 390.69 175.073H388.43C388.404 175.073 388.39 175.086 388.39 175.113V175.543C388.39 175.609 388.357 175.643 388.29 175.643H387.89C387.824 175.643 387.79 175.609 387.79 175.543V174.553C387.79 174.486 387.824 174.453 387.89 174.453H391.39C391.457 174.453 391.49 174.486 391.49 174.553V175.013C391.49 175.039 391.484 175.079 391.47 175.133L389.47 181.373C389.45 181.426 389.41 181.453 389.35 181.453H388.8Z"
        fill="#29202D"/>
  <defs>
    <linearGradient id="paint0_linear_436_1479" x1="199.884" y1="-218.319" x2="189.388" y2="164.633"
                    gradientUnits="userSpaceOnUse">
      <stop stop-color="#EE2212"/>
      <stop offset="1" stop-color="#EDDDD1"/>
    </linearGradient>
  </defs>
</svg>
