<?xml version="1.0" encoding="UTF-8" standalone="no"?>
<!DOCTYPE svg PUBLIC "-//W3C//DTD SVG 1.1//EN" "http://www.w3.org/Graphics/SVG/1.1/DTD/svg11.dtd">
<svg width="100%" height="100%" viewBox="0 0 390 1440" version="1.1" xmlns="http://www.w3.org/2000/svg"
     xmlns:xlink="http://www.w3.org/1999/xlink" xml:space="preserve" xmlns:serif="http://www.serif.com/"
     style="fill-rule:evenodd;clip-rule:evenodd;stroke-linejoin:round;stroke-miterlimit:2;">
  <g class="bar mobile-bar" id="Brown">
                        <rect class="mobile-bar-background" x="0" y="0" width="390" height="120"
                              style="fill:rgb(96,37,55);"/>
    <path
      d="M39.094,60.651C39.031,60.676 39.031,60.708 39.094,60.746C39.69,61.037 40.146,61.455 40.462,62C40.792,62.545 40.963,63.203 40.975,63.976C40.975,65.116 40.633,66.003 39.949,66.636C39.278,67.269 38.385,67.586 37.27,67.586L33.527,67.586C33.401,67.586 33.337,67.523 33.337,67.396L33.337,54.476C33.337,54.349 33.401,54.286 33.527,54.286L37.118,54.286C38.284,54.286 39.196,54.59 39.854,55.198C40.513,55.793 40.842,56.648 40.842,57.763C40.842,58.472 40.69,59.068 40.386,59.549C40.095,60.03 39.664,60.398 39.094,60.651ZM34.762,55.464C34.712,55.464 34.686,55.489 34.686,55.54L34.686,60.119C34.686,60.17 34.712,60.195 34.762,60.195L37.137,60.195C37.872,60.195 38.448,59.986 38.866,59.568C39.297,59.15 39.512,58.586 39.512,57.877C39.512,57.13 39.297,56.541 38.866,56.11C38.448,55.679 37.872,55.464 37.137,55.464L34.762,55.464ZM37.232,66.389C37.967,66.389 38.55,66.161 38.98,65.705C39.411,65.249 39.626,64.628 39.626,63.843C39.626,63.045 39.405,62.418 38.961,61.962C38.531,61.506 37.942,61.278 37.194,61.278L34.762,61.278C34.712,61.278 34.686,61.303 34.686,61.354L34.686,66.313C34.686,66.364 34.712,66.389 34.762,66.389L37.232,66.389ZM46.886,57.877C47.266,57.877 47.589,57.953 47.855,58.105C47.944,58.143 47.975,58.219 47.95,58.333L47.722,59.321C47.709,59.448 47.633,59.486 47.494,59.435C47.291,59.346 47.07,59.302 46.829,59.302L46.601,59.321C46.044,59.334 45.581,59.574 45.214,60.043C44.847,60.512 44.663,61.082 44.663,61.753L44.663,67.396C44.663,67.523 44.6,67.586 44.473,67.586L43.504,67.586C43.377,67.586 43.314,67.523 43.314,67.396L43.314,58.162C43.314,58.035 43.377,57.972 43.504,57.972L44.473,57.972C44.6,57.972 44.663,58.035 44.663,58.162L44.663,59.397C44.663,59.435 44.669,59.454 44.682,59.454C44.707,59.454 44.726,59.441 44.739,59.416C44.954,58.935 45.239,58.561 45.594,58.295C45.961,58.016 46.392,57.877 46.886,57.877ZM52.704,67.738C51.779,67.738 51.019,67.491 50.424,66.997C49.829,66.49 49.468,65.813 49.341,64.964C49.265,64.331 49.227,63.596 49.227,62.76C49.227,61.924 49.265,61.202 49.341,60.594C49.455,59.758 49.81,59.087 50.405,58.58C51.013,58.073 51.779,57.82 52.704,57.82C53.629,57.82 54.389,58.073 54.984,58.58C55.592,59.087 55.953,59.758 56.067,60.594C56.143,61.101 56.181,61.823 56.181,62.76C56.181,63.723 56.143,64.457 56.067,64.964C55.953,65.813 55.592,66.49 54.984,66.997C54.389,67.491 53.629,67.738 52.704,67.738ZM52.704,66.56C53.249,66.56 53.705,66.395 54.072,66.066C54.452,65.724 54.68,65.274 54.756,64.717C54.807,64.248 54.832,63.602 54.832,62.779C54.832,61.943 54.807,61.297 54.756,60.841C54.693,60.284 54.471,59.84 54.091,59.511C53.724,59.169 53.261,58.998 52.704,58.998C52.147,58.998 51.684,59.169 51.317,59.511C50.95,59.84 50.728,60.284 50.652,60.841C50.601,61.297 50.576,61.943 50.576,62.779C50.576,63.615 50.601,64.261 50.652,64.717C50.715,65.274 50.931,65.724 51.298,66.066C51.678,66.395 52.147,66.56 52.704,66.56ZM60.054,67.586C59.941,67.586 59.871,67.529 59.846,67.415L57.509,58.181L57.49,58.105C57.49,58.016 57.547,57.972 57.661,57.972L58.611,57.972C58.725,57.972 58.794,58.029 58.82,58.143L60.53,65.439C60.542,65.477 60.555,65.496 60.568,65.496C60.58,65.496 60.593,65.477 60.606,65.439L62.335,58.143C62.36,58.029 62.429,57.972 62.544,57.972L63.417,57.972C63.544,57.972 63.614,58.029 63.627,58.143L65.394,65.42C65.406,65.458 65.419,65.477 65.432,65.477C65.444,65.477 65.457,65.458 65.469,65.42L67.199,58.143C67.224,58.029 67.294,57.972 67.408,57.972L68.376,57.991C68.44,57.991 68.484,58.01 68.51,58.048C68.548,58.086 68.554,58.137 68.528,58.2L66.153,67.415C66.141,67.529 66.071,67.586 65.945,67.586L64.957,67.586C64.843,67.586 64.773,67.529 64.748,67.415L63.019,60.385C63.006,60.347 62.987,60.328 62.962,60.328C62.949,60.328 62.936,60.347 62.923,60.385L61.252,67.415C61.226,67.529 61.157,67.586 61.042,67.586L60.054,67.586ZM74.128,57.839C75.014,57.839 75.711,58.124 76.218,58.694C76.737,59.251 76.997,60.018 76.997,60.993L76.997,67.396C76.997,67.523 76.933,67.586 76.807,67.586L75.838,67.586C75.711,67.586 75.648,67.523 75.648,67.396L75.648,61.183C75.648,60.524 75.477,59.999 75.135,59.606C74.793,59.213 74.324,59.017 73.729,59.017C73.133,59.017 72.652,59.22 72.285,59.625C71.93,60.018 71.753,60.55 71.753,61.221L71.753,67.396C71.753,67.523 71.689,67.586 71.563,67.586L70.594,67.586C70.467,67.586 70.404,67.523 70.404,67.396L70.404,58.162C70.404,58.035 70.467,57.972 70.594,57.972L71.563,57.972C71.689,57.972 71.753,58.035 71.753,58.162L71.753,58.903C71.753,58.928 71.759,58.947 71.772,58.96C71.797,58.973 71.822,58.966 71.848,58.941C72.342,58.206 73.102,57.839 74.128,57.839Z"
      style="fill:currentColor;fill-opacity:0.9;fill-rule:nonzero;"/>
    <path
      d="M273.809,51.372C272.497,50.12 270.108,47.674 268.205,44.788C265.779,41.107 264.218,36.635 263.919,35.778L263.919,35.777C263.892,35.701 263.875,35.654 263.869,35.638L110,35.419L110,67.419L263.857,67.411C263.864,67.395 263.88,67.348 263.907,67.272L263.907,67.271C264.206,66.414 265.767,61.942 268.194,58.261C270.097,55.375 272.485,52.929 273.798,51.677L274.132,51.677C274.079,51.627 274.023,51.574 273.964,51.519C274.019,51.468 274.071,51.419 274.121,51.372L273.809,51.372Z"
      style="fill:rgb(238,34,18);"/>
    <path
      d="M154.089,87.372C152.777,86.12 150.388,83.674 148.485,80.788C146.058,77.107 144.498,72.635 144.198,71.778L144.198,71.777C144.172,71.701 144.155,71.653 144.149,71.638L110,71.419L110,103.419L144.137,103.411C144.143,103.395 144.16,103.348 144.187,103.272L144.187,103.271C144.486,102.414 146.047,97.942 148.473,94.261C150.376,91.375 152.765,88.929 154.077,87.677L154.412,87.677C154.359,87.627 154.303,87.574 154.244,87.519C154.298,87.468 154.351,87.418 154.4,87.372L154.089,87.372Z"
      style="fill:#968587;"/>
    <path
      d="M110,0.086L111,0.086L111,-0.914L110,-0.914L110,0.086ZM0,1.086L110,1.086L110,-0.914L0,-0.914L0,1.086ZM109,0.086L109,120.086L111,120.086L111,0.086L109,0.086Z"
      style="fill:rgb(217,203,207);fill-opacity:0.8;fill-rule:nonzero;"/>
                    </g>
  <g class="bar mobile-bar" id="Cornell">
                        <g class="mobile-bar-background" transform="matrix(1,0,0,1,0,120.09)">
                            <rect x="0" y="0" width="390" height="120" style="fill:rgb(96,37,55);"/>
                        </g>
    <path
      d="M34.495,187.738C33.342,187.738 32.411,187.396 31.702,186.712C31.005,186.028 30.657,185.122 30.657,183.995L30.657,177.858C30.657,176.731 31.005,175.831 31.702,175.16C32.411,174.476 33.342,174.134 34.495,174.134C35.66,174.134 36.591,174.47 37.288,175.141C37.997,175.812 38.352,176.705 38.352,177.82L38.352,177.991C38.352,178.118 38.289,178.181 38.162,178.181L37.193,178.219C37.066,178.219 37.003,178.162 37.003,178.048L37.003,177.782C37.003,177.047 36.769,176.452 36.3,175.996C35.844,175.54 35.242,175.312 34.495,175.312C33.748,175.312 33.146,175.54 32.69,175.996C32.234,176.439 32.006,177.035 32.006,177.782L32.006,184.09C32.006,184.837 32.234,185.439 32.69,185.895C33.146,186.338 33.748,186.56 34.495,186.56C35.242,186.56 35.844,186.332 36.3,185.876C36.769,185.42 37.003,184.825 37.003,184.09L37.003,183.824C37.003,183.71 37.066,183.653 37.193,183.653L38.162,183.71C38.289,183.71 38.352,183.773 38.352,183.9L38.352,184.033C38.352,185.148 37.997,186.047 37.288,186.731C36.591,187.402 35.66,187.738 34.495,187.738ZM43.891,187.738C42.966,187.738 42.206,187.491 41.611,186.997C41.015,186.49 40.654,185.813 40.528,184.964C40.452,184.331 40.414,183.596 40.414,182.76C40.414,181.924 40.452,181.202 40.528,180.594C40.642,179.758 40.996,179.087 41.592,178.58C42.2,178.073 42.966,177.82 43.891,177.82C44.815,177.82 45.575,178.073 46.171,178.58C46.779,179.087 47.14,179.758 47.254,180.594C47.33,181.101 47.368,181.823 47.368,182.76C47.368,183.723 47.33,184.457 47.254,184.964C47.14,185.813 46.779,186.49 46.171,186.997C45.575,187.491 44.815,187.738 43.891,187.738ZM43.891,186.56C44.435,186.56 44.891,186.395 45.259,186.066C45.639,185.724 45.867,185.274 45.943,184.717C45.993,184.248 46.019,183.602 46.019,182.779C46.019,181.943 45.993,181.297 45.943,180.841C45.879,180.284 45.658,179.84 45.278,179.511C44.91,179.169 44.448,178.998 43.891,178.998C43.333,178.998 42.871,179.169 42.504,179.511C42.136,179.84 41.915,180.284 41.839,180.841C41.788,181.297 41.763,181.943 41.763,182.779C41.763,183.615 41.788,184.261 41.839,184.717C41.902,185.274 42.117,185.724 42.485,186.066C42.865,186.395 43.333,186.56 43.891,186.56ZM53.362,177.877C53.742,177.877 54.065,177.953 54.331,178.105C54.419,178.143 54.451,178.219 54.426,178.333L54.198,179.321C54.185,179.448 54.109,179.486 53.969,179.435C53.767,179.346 53.545,179.302 53.304,179.302L53.077,179.321C52.519,179.334 52.057,179.574 51.69,180.043C51.322,180.512 51.139,181.082 51.139,181.753L51.139,187.396C51.139,187.523 51.075,187.586 50.949,187.586L49.98,187.586C49.853,187.586 49.789,187.523 49.789,187.396L49.789,178.162C49.789,178.035 49.853,177.972 49.98,177.972L50.949,177.972C51.075,177.972 51.139,178.035 51.139,178.162L51.139,179.397C51.139,179.435 51.145,179.454 51.158,179.454C51.183,179.454 51.202,179.441 51.215,179.416C51.43,178.935 51.715,178.561 52.07,178.295C52.437,178.016 52.868,177.877 53.362,177.877ZM59.766,177.839C60.653,177.839 61.35,178.124 61.856,178.694C62.376,179.251 62.635,180.018 62.635,180.993L62.635,187.396C62.635,187.523 62.572,187.586 62.445,187.586L61.476,187.586C61.35,187.586 61.286,187.523 61.286,187.396L61.286,181.183C61.286,180.524 61.115,179.999 60.773,179.606C60.431,179.213 59.963,179.017 59.367,179.017C58.772,179.017 58.291,179.22 57.923,179.625C57.569,180.018 57.391,180.55 57.391,181.221L57.391,187.396C57.391,187.523 57.328,187.586 57.201,187.586L56.232,187.586C56.106,187.586 56.042,187.523 56.042,187.396L56.042,178.162C56.042,178.035 56.106,177.972 56.232,177.972L57.201,177.972C57.328,177.972 57.391,178.035 57.391,178.162L57.391,178.903C57.391,178.928 57.398,178.947 57.41,178.96C57.436,178.973 57.461,178.966 57.486,178.941C57.98,178.206 58.74,177.839 59.766,177.839ZM68.383,186.56C68.865,186.56 69.276,186.44 69.618,186.199C69.973,185.946 70.226,185.61 70.378,185.192C70.416,185.078 70.492,185.034 70.606,185.059L71.48,185.23C71.544,185.243 71.582,185.274 71.594,185.325C71.62,185.363 71.626,185.407 71.613,185.458C71.398,186.167 71.005,186.725 70.435,187.13C69.865,187.535 69.175,187.738 68.364,187.738C67.44,187.738 66.686,187.497 66.103,187.016C65.521,186.522 65.159,185.857 65.02,185.021C64.969,184.704 64.938,184.331 64.925,183.9C64.912,183.469 64.906,183.115 64.906,182.836L64.906,182.228C64.906,181.582 64.932,181.056 64.982,180.651C65.084,179.802 65.432,179.118 66.027,178.599C66.635,178.08 67.395,177.82 68.307,177.82C69.283,177.82 70.074,178.099 70.682,178.656C71.29,179.213 71.632,179.948 71.708,180.86C71.746,181.278 71.765,182.044 71.765,183.159C71.765,183.286 71.702,183.349 71.575,183.349L66.331,183.349C66.281,183.349 66.255,183.374 66.255,183.425C66.255,183.818 66.268,184.255 66.293,184.736C66.357,185.281 66.572,185.724 66.939,186.066C67.319,186.395 67.801,186.56 68.383,186.56ZM68.326,178.998C67.756,178.998 67.288,179.169 66.92,179.511C66.566,179.84 66.357,180.277 66.293,180.822C66.268,181.354 66.255,181.797 66.255,182.152C66.255,182.203 66.281,182.228 66.331,182.228L70.34,182.228C70.391,182.228 70.416,182.203 70.416,182.152C70.416,181.785 70.391,181.348 70.34,180.841C70.277,180.296 70.062,179.853 69.694,179.511C69.34,179.169 68.884,178.998 68.326,178.998ZM74.192,187.586C74.065,187.586 74.002,187.523 74.002,187.396L74.002,174.476C74.002,174.349 74.065,174.286 74.192,174.286L75.161,174.286C75.288,174.286 75.351,174.349 75.351,174.476L75.351,187.396C75.351,187.523 75.288,187.586 75.161,187.586L74.192,187.586ZM78.107,187.586C77.98,187.586 77.917,187.523 77.917,187.396L77.917,174.476C77.917,174.349 77.98,174.286 78.107,174.286L79.076,174.286C79.203,174.286 79.266,174.349 79.266,174.476L79.266,187.396C79.266,187.523 79.203,187.586 79.076,187.586L78.107,187.586Z"
      style="fill:currentColor;fill-opacity:0.9;fill-rule:nonzero;"/>
    <path
      d="M177.409,207.373C176.097,206.121 173.708,203.675 171.805,200.789C169.379,197.108 167.818,192.636 167.519,191.779L167.519,191.778C167.492,191.702 167.475,191.654 167.469,191.639L110,191.42L110,223.42L167.457,223.412C167.464,223.396 167.48,223.349 167.507,223.273L167.507,223.272C167.806,222.415 169.367,217.943 171.794,214.262C173.697,211.376 176.085,208.929 177.398,207.678L177.732,207.678C177.679,207.628 177.623,207.575 177.564,207.52C177.619,207.468 177.671,207.419 177.721,207.373L177.409,207.373Z"
      style="fill:#968587;"/>
    <path
      d="M369.809,171.373C368.497,170.121 366.108,167.675 364.205,164.789C361.779,161.108 360.218,156.636 359.919,155.779L359.919,155.778C359.892,155.702 359.875,155.654 359.869,155.639L110,155.42L110,187.42L359.857,187.412C359.864,187.396 359.88,187.349 359.907,187.273L359.907,187.272C360.206,186.415 361.767,181.943 364.194,178.262C366.097,175.376 368.485,172.929 369.798,171.678L370.132,171.678C370.079,171.628 370.023,171.575 369.964,171.52C370.019,171.468 370.071,171.419 370.121,171.373L369.809,171.373Z"
      style="fill:rgb(238,34,18);"/>
    <path
      d="M110,120.086L111,120.086L111,119.086L110,119.086L110,120.086ZM0,121.086L110,121.086L110,119.086L0,119.086L0,121.086ZM109,120.086L109,240.086L111,240.086L111,120.086L109,120.086Z"
      style="fill:rgb(217,203,207);fill-opacity:0.8;fill-rule:nonzero;"/>
                    </g>
  <g class="bar mobile-bar" id="Columbia">
                        <g class="mobile-bar-background" transform="matrix(1,0,0,1,0,240.09)">
                            <rect x="0" y="0" width="390" height="120" style="fill:rgb(96,37,55);"/>
                        </g>
    <path
      d="M25.83,307.738C24.677,307.738 23.746,307.396 23.037,306.712C22.34,306.028 21.992,305.122 21.992,303.995L21.992,297.858C21.992,296.731 22.34,295.831 23.037,295.16C23.746,294.476 24.677,294.134 25.83,294.134C26.995,294.134 27.926,294.47 28.623,295.141C29.332,295.812 29.687,296.705 29.687,297.82L29.687,297.991C29.687,298.118 29.624,298.181 29.497,298.181L28.528,298.219C28.401,298.219 28.338,298.162 28.338,298.048L28.338,297.782C28.338,297.047 28.104,296.452 27.635,295.996C27.179,295.54 26.577,295.312 25.83,295.312C25.083,295.312 24.481,295.54 24.025,295.996C23.569,296.439 23.341,297.035 23.341,297.782L23.341,304.09C23.341,304.837 23.569,305.439 24.025,305.895C24.481,306.338 25.083,306.56 25.83,306.56C26.577,306.56 27.179,306.332 27.635,305.876C28.104,305.42 28.338,304.825 28.338,304.09L28.338,303.824C28.338,303.71 28.401,303.653 28.528,303.653L29.497,303.71C29.624,303.71 29.687,303.773 29.687,303.9L29.687,304.033C29.687,305.148 29.332,306.047 28.623,306.731C27.926,307.402 26.995,307.738 25.83,307.738ZM35.225,307.738C34.301,307.738 33.541,307.491 32.946,306.997C32.35,306.49 31.989,305.813 31.863,304.964C31.787,304.331 31.749,303.596 31.749,302.76C31.749,301.924 31.787,301.202 31.863,300.594C31.977,299.758 32.331,299.087 32.927,298.58C33.535,298.073 34.301,297.82 35.225,297.82C36.15,297.82 36.91,298.073 37.506,298.58C38.114,299.087 38.475,299.758 38.589,300.594C38.664,301.101 38.703,301.823 38.703,302.76C38.703,303.723 38.664,304.457 38.589,304.964C38.475,305.813 38.114,306.49 37.506,306.997C36.91,307.491 36.15,307.738 35.225,307.738ZM35.225,306.56C35.77,306.56 36.226,306.395 36.594,306.066C36.974,305.724 37.202,305.274 37.278,304.717C37.328,304.248 37.353,303.602 37.353,302.779C37.353,301.943 37.328,301.297 37.278,300.841C37.214,300.284 36.993,299.84 36.613,299.511C36.245,299.169 35.783,298.998 35.225,298.998C34.668,298.998 34.206,299.169 33.839,299.511C33.471,299.84 33.25,300.284 33.174,300.841C33.123,301.297 33.097,301.943 33.097,302.779C33.097,303.615 33.123,304.261 33.174,304.717C33.237,305.274 33.452,305.724 33.82,306.066C34.2,306.395 34.668,306.56 35.225,306.56ZM41.257,307.586C41.131,307.586 41.067,307.523 41.067,307.396L41.067,294.476C41.067,294.349 41.131,294.286 41.257,294.286L42.226,294.286C42.353,294.286 42.416,294.349 42.416,294.476L42.416,307.396C42.416,307.523 42.353,307.586 42.226,307.586L41.257,307.586ZM50.151,298.162C50.151,298.035 50.214,297.972 50.341,297.972L51.31,297.972C51.436,297.972 51.5,298.035 51.5,298.162L51.5,307.396C51.5,307.523 51.436,307.586 51.31,307.586L50.341,307.586C50.214,307.586 50.151,307.523 50.151,307.396L50.151,306.655C50.151,306.617 50.138,306.598 50.112,306.598C50.1,306.598 50.081,306.611 50.056,306.636C49.612,307.358 48.878,307.719 47.852,307.719C46.99,307.719 46.287,307.466 45.743,306.959C45.198,306.452 44.926,305.718 44.926,304.755L44.926,298.162C44.926,298.035 44.989,297.972 45.115,297.972L46.085,297.972C46.211,297.972 46.275,298.035 46.275,298.162L46.275,304.413C46.275,305.084 46.439,305.61 46.769,305.99C47.098,306.357 47.56,306.541 48.156,306.541C48.776,306.541 49.264,306.345 49.618,305.952C49.973,305.547 50.151,305.008 50.151,304.337L50.151,298.162ZM62.889,297.839C63.738,297.839 64.403,298.124 64.884,298.694C65.378,299.251 65.625,300.024 65.625,301.012L65.625,307.396C65.625,307.523 65.562,307.586 65.435,307.586L64.485,307.586C64.359,307.586 64.295,307.523 64.295,307.396L64.295,301.202C64.295,300.531 64.124,299.999 63.782,299.606C63.453,299.213 63.016,299.017 62.471,299.017C61.901,299.017 61.439,299.213 61.084,299.606C60.742,299.986 60.571,300.505 60.571,301.164L60.571,307.396C60.571,307.523 60.508,307.586 60.381,307.586L59.412,307.586C59.286,307.586 59.222,307.523 59.222,307.396L59.222,301.202C59.222,300.531 59.051,299.999 58.709,299.606C58.38,299.213 57.943,299.017 57.398,299.017C56.828,299.017 56.372,299.213 56.03,299.606C55.688,299.986 55.517,300.505 55.517,301.164L55.517,307.396C55.517,307.523 55.454,307.586 55.327,307.586L54.358,307.586C54.232,307.586 54.168,307.523 54.168,307.396L54.168,298.162C54.168,298.035 54.232,297.972 54.358,297.972L55.327,297.972C55.454,297.972 55.517,298.035 55.517,298.162L55.517,298.827C55.517,298.852 55.524,298.871 55.536,298.884C55.562,298.884 55.587,298.871 55.612,298.846C55.866,298.504 56.189,298.251 56.581,298.086C56.974,297.921 57.392,297.839 57.835,297.839C58.393,297.839 58.88,297.966 59.298,298.219C59.716,298.472 60.033,298.827 60.248,299.283C60.274,299.346 60.305,299.346 60.343,299.283C60.597,298.789 60.945,298.428 61.388,298.2C61.844,297.959 62.345,297.839 62.889,297.839ZM74.828,300.613C74.954,301.259 75.018,302.013 75.018,302.874C75.018,303.647 74.935,304.381 74.771,305.078C74.543,306.003 74.188,306.68 73.707,307.111C73.238,307.529 72.605,307.738 71.807,307.738C70.806,307.738 70.078,307.377 69.622,306.655C69.609,306.617 69.59,306.604 69.565,306.617C69.539,306.617 69.527,306.636 69.527,306.674L69.527,307.396C69.527,307.523 69.463,307.586 69.337,307.586L68.368,307.586C68.241,307.586 68.178,307.523 68.178,307.396L68.178,294.476C68.178,294.349 68.241,294.286 68.368,294.286L69.337,294.286C69.463,294.286 69.527,294.349 69.527,294.476L69.527,298.884C69.527,298.922 69.539,298.947 69.565,298.96C69.59,298.96 69.609,298.941 69.622,298.903C69.812,298.548 70.071,298.282 70.401,298.105C70.743,297.928 71.18,297.839 71.712,297.839C72.56,297.839 73.238,298.067 73.745,298.523C74.264,298.966 74.625,299.663 74.828,300.613ZM73.365,305.154C73.555,304.584 73.65,303.792 73.65,302.779C73.65,301.753 73.529,300.923 73.289,300.29C72.934,299.429 72.339,298.998 71.503,298.998C71.072,298.998 70.73,299.112 70.477,299.34C70.223,299.568 70.021,299.897 69.869,300.328C69.653,300.911 69.546,301.728 69.546,302.779C69.546,303.805 69.641,304.603 69.831,305.173C69.983,305.629 70.192,305.977 70.458,306.218C70.736,306.459 71.097,306.579 71.541,306.579C72.009,306.579 72.389,306.459 72.681,306.218C72.972,305.977 73.2,305.623 73.365,305.154ZM78.236,296.224C77.919,296.224 77.659,296.123 77.457,295.92C77.267,295.717 77.172,295.464 77.172,295.16C77.172,294.843 77.267,294.59 77.457,294.4C77.659,294.197 77.919,294.096 78.236,294.096C78.54,294.096 78.793,294.197 78.996,294.4C79.198,294.59 79.3,294.843 79.3,295.16C79.3,295.464 79.198,295.717 78.996,295.92C78.793,296.123 78.54,296.224 78.236,296.224ZM77.723,307.586C77.596,307.586 77.533,307.523 77.533,307.396L77.533,298.162C77.533,298.035 77.596,297.972 77.723,297.972L78.692,297.972C78.818,297.972 78.882,298.035 78.882,298.162L78.882,307.396C78.882,307.523 78.818,307.586 78.692,307.586L77.723,307.586ZM84.856,297.82C85.869,297.82 86.661,298.111 87.231,298.694C87.813,299.277 88.105,300.049 88.105,301.012L88.105,307.396C88.105,307.523 88.041,307.586 87.915,307.586L86.946,307.586C86.819,307.586 86.756,307.523 86.756,307.396L86.756,306.712C86.756,306.687 86.743,306.668 86.718,306.655C86.705,306.642 86.686,306.649 86.661,306.674C86.382,307.029 86.027,307.295 85.597,307.472C85.166,307.649 84.685,307.738 84.153,307.738C83.355,307.738 82.671,307.523 82.101,307.092C81.543,306.661 81.265,305.958 81.265,304.983C81.265,303.97 81.588,303.203 82.234,302.684C82.892,302.152 83.785,301.886 84.913,301.886L86.68,301.886C86.73,301.886 86.756,301.861 86.756,301.81L86.756,301.088C86.756,300.442 86.591,299.935 86.262,299.568C85.945,299.188 85.47,298.998 84.837,298.998C84.343,298.998 83.931,299.125 83.602,299.378C83.272,299.619 83.076,299.942 83.013,300.347C83,300.461 82.93,300.518 82.804,300.518L81.759,300.461C81.695,300.461 81.645,300.442 81.607,300.404C81.581,300.366 81.575,300.322 81.588,300.271C81.676,299.536 82.018,298.947 82.614,298.504C83.222,298.048 83.969,297.82 84.856,297.82ZM84.419,306.56C85.052,306.56 85.597,306.389 86.053,306.047C86.521,305.692 86.756,305.205 86.756,304.584L86.756,303.045C86.756,302.994 86.73,302.969 86.68,302.969L85.008,302.969C84.286,302.969 83.709,303.14 83.279,303.482C82.848,303.811 82.633,304.286 82.633,304.907C82.633,305.464 82.797,305.882 83.127,306.161C83.456,306.427 83.887,306.56 84.419,306.56Z"
      style="fill:currentColor;fill-opacity:0.9;fill-rule:nonzero;"/>
    <path
      d="M148.809,327.373C147.497,326.121 145.108,323.675 143.205,320.789C140.779,317.108 139.218,312.636 138.919,311.779L138.919,311.778C138.892,311.702 138.875,311.654 138.869,311.639L110,311.42L110,343.42L138.857,343.412C138.864,343.396 138.88,343.349 138.907,343.273L138.907,343.272C139.206,342.415 140.767,337.943 143.194,334.262C145.097,331.376 147.485,328.929 148.798,327.678L149.132,327.678C149.079,327.628 149.023,327.575 148.964,327.52C149.019,327.468 149.071,327.419 149.121,327.373L148.809,327.373Z"
      style="fill:#968587;"/>
    <path
      d="M309.809,291.373C308.497,290.121 306.108,287.675 304.205,284.789C301.779,281.108 300.218,276.636 299.919,275.779L299.919,275.778C299.892,275.702 299.875,275.654 299.869,275.639L110,275.42L110,307.42L299.857,307.412C299.864,307.396 299.88,307.349 299.907,307.273L299.907,307.272C300.206,306.415 301.767,301.943 304.194,298.262C306.097,295.376 308.485,292.929 309.798,291.678L310.132,291.678C310.079,291.628 310.023,291.575 309.964,291.52C310.019,291.468 310.071,291.419 310.121,291.373L309.809,291.373Z"
      style="fill:rgb(238,34,18);"/>
    <path
      d="M110,240.086L111,240.086L111,239.086L110,239.086L110,240.086ZM0,241.086L110,241.086L110,239.086L0,239.086L0,241.086ZM109,240.086L109,360.086L111,360.086L111,240.086L109,240.086Z"
      style="fill:rgb(217,203,207);fill-opacity:0.8;fill-rule:nonzero;"/>
                    </g>
  <g class="bar mobile-bar" id="Darmouth">
                        <g class="mobile-bar-background" transform="matrix(1,0,0,1,0,360.09)">
                            <rect x="0" y="0" width="390" height="120" style="fill:rgb(96,37,55);"/>
                        </g>
    <path
      d="M17.394,427.586C17.267,427.586 17.204,427.523 17.204,427.396L17.204,414.476C17.204,414.349 17.267,414.286 17.394,414.286L21.099,414.286C22.226,414.286 23.113,414.609 23.759,415.255C24.418,415.901 24.747,416.781 24.747,417.896L24.747,423.976C24.747,425.091 24.418,425.971 23.759,426.617C23.113,427.263 22.226,427.586 21.099,427.586L17.394,427.586ZM18.553,426.332C18.553,426.383 18.578,426.408 18.629,426.408L21.118,426.408C21.815,426.395 22.366,426.167 22.771,425.724C23.176,425.268 23.385,424.647 23.398,423.862L23.398,418.01C23.398,417.225 23.195,416.604 22.79,416.148C22.385,415.692 21.827,415.464 21.118,415.464L18.629,415.464C18.578,415.464 18.553,415.489 18.553,415.54L18.553,426.332ZM30.277,417.82C31.291,417.82 32.082,418.111 32.652,418.694C33.235,419.277 33.526,420.049 33.526,421.012L33.526,427.396C33.526,427.523 33.463,427.586 33.336,427.586L32.367,427.586C32.24,427.586 32.177,427.523 32.177,427.396L32.177,426.712C32.177,426.687 32.164,426.668 32.139,426.655C32.127,426.642 32.108,426.649 32.082,426.674C31.804,427.029 31.449,427.295 31.018,427.472C30.587,427.649 30.106,427.738 29.574,427.738C28.776,427.738 28.092,427.523 27.522,427.092C26.965,426.661 26.686,425.958 26.686,424.983C26.686,423.97 27.009,423.203 27.655,422.684C28.314,422.152 29.207,421.886 30.334,421.886L32.101,421.886C32.152,421.886 32.177,421.861 32.177,421.81L32.177,421.088C32.177,420.442 32.013,419.935 31.683,419.568C31.366,419.188 30.892,418.998 30.258,418.998C29.764,418.998 29.353,419.125 29.023,419.378C28.694,419.619 28.497,419.942 28.434,420.347C28.422,420.461 28.352,420.518 28.225,420.518L27.18,420.461C27.117,420.461 27.066,420.442 27.028,420.404C27.003,420.366 26.997,420.322 27.009,420.271C27.098,419.536 27.44,418.947 28.035,418.504C28.643,418.048 29.391,417.82 30.277,417.82ZM29.84,426.56C30.474,426.56 31.018,426.389 31.474,426.047C31.943,425.692 32.177,425.205 32.177,424.584L32.177,423.045C32.177,422.994 32.152,422.969 32.101,422.969L30.429,422.969C29.707,422.969 29.131,423.14 28.7,423.482C28.27,423.811 28.054,424.286 28.054,424.907C28.054,425.464 28.219,425.882 28.548,426.161C28.878,426.427 29.308,426.56 29.84,426.56ZM39.548,417.877C39.928,417.877 40.251,417.953 40.517,418.105C40.605,418.143 40.637,418.219 40.612,418.333L40.384,419.321C40.371,419.448 40.295,419.486 40.156,419.435C39.953,419.346 39.731,419.302 39.491,419.302L39.263,419.321C38.705,419.334 38.243,419.574 37.876,420.043C37.508,420.512 37.325,421.082 37.325,421.753L37.325,427.396C37.325,427.523 37.261,427.586 37.135,427.586L36.166,427.586C36.039,427.586 35.975,427.523 35.975,427.396L35.975,418.162C35.975,418.035 36.039,417.972 36.166,417.972L37.135,417.972C37.261,417.972 37.325,418.035 37.325,418.162L37.325,419.397C37.325,419.435 37.331,419.454 37.344,419.454C37.369,419.454 37.388,419.441 37.401,419.416C37.616,418.935 37.901,418.561 38.256,418.295C38.623,418.016 39.054,417.877 39.548,417.877ZM46.215,418.846C46.215,418.973 46.152,419.036 46.025,419.036L44.22,419.036C44.17,419.036 44.144,419.061 44.144,419.112L44.144,424.812C44.144,425.407 44.258,425.825 44.486,426.066C44.727,426.294 45.107,426.408 45.626,426.408L45.949,426.408C46.076,426.408 46.139,426.471 46.139,426.598L46.139,427.396C46.139,427.523 46.076,427.586 45.949,427.586L45.36,427.605C44.537,427.605 43.91,427.44 43.479,427.111C43.049,426.769 42.833,426.142 42.833,425.23L42.833,419.112C42.833,419.061 42.808,419.036 42.757,419.036L41.807,419.036C41.681,419.036 41.617,418.973 41.617,418.846L41.617,418.162C41.617,418.035 41.681,417.972 41.807,417.972L42.757,417.972C42.808,417.972 42.833,417.947 42.833,417.896L42.833,415.73C42.833,415.603 42.897,415.54 43.023,415.54L43.954,415.54C44.081,415.54 44.144,415.603 44.144,415.73L44.144,417.896C44.144,417.947 44.17,417.972 44.22,417.972L46.025,417.972C46.152,417.972 46.215,418.035 46.215,418.162L46.215,418.846ZM57.073,417.839C57.921,417.839 58.586,418.124 59.068,418.694C59.562,419.251 59.809,420.024 59.809,421.012L59.809,427.396C59.809,427.523 59.745,427.586 59.618,427.586L58.669,427.586C58.542,427.586 58.478,427.523 58.478,427.396L58.478,421.202C58.478,420.531 58.307,419.999 57.966,419.606C57.636,419.213 57.199,419.017 56.655,419.017C56.085,419.017 55.622,419.213 55.268,419.606C54.926,419.986 54.755,420.505 54.755,421.164L54.755,427.396C54.755,427.523 54.691,427.586 54.565,427.586L53.596,427.586C53.469,427.586 53.406,427.523 53.406,427.396L53.406,421.202C53.406,420.531 53.234,419.999 52.893,419.606C52.563,419.213 52.126,419.017 51.582,419.017C51.012,419.017 50.556,419.213 50.214,419.606C49.872,419.986 49.701,420.505 49.701,421.164L49.701,427.396C49.701,427.523 49.637,427.586 49.511,427.586L48.542,427.586C48.415,427.586 48.352,427.523 48.352,427.396L48.352,418.162C48.352,418.035 48.415,417.972 48.542,417.972L49.511,417.972C49.637,417.972 49.701,418.035 49.701,418.162L49.701,418.827C49.701,418.852 49.707,418.871 49.719,418.884C49.745,418.884 49.77,418.871 49.795,418.846C50.049,418.504 50.372,418.251 50.765,418.086C51.157,417.921 51.575,417.839 52.019,417.839C52.576,417.839 53.064,417.966 53.481,418.219C53.9,418.472 54.216,418.827 54.432,419.283C54.457,419.346 54.489,419.346 54.527,419.283C54.78,418.789 55.128,418.428 55.572,418.2C56.028,417.959 56.528,417.839 57.073,417.839ZM65.516,427.738C64.591,427.738 63.831,427.491 63.236,426.997C62.641,426.49 62.28,425.813 62.153,424.964C62.077,424.331 62.039,423.596 62.039,422.76C62.039,421.924 62.077,421.202 62.153,420.594C62.267,419.758 62.622,419.087 63.217,418.58C63.825,418.073 64.591,417.82 65.516,417.82C66.441,417.82 67.201,418.073 67.796,418.58C68.404,419.087 68.765,419.758 68.879,420.594C68.955,421.101 68.993,421.823 68.993,422.76C68.993,423.723 68.955,424.457 68.879,424.964C68.765,425.813 68.404,426.49 67.796,426.997C67.201,427.491 66.441,427.738 65.516,427.738ZM65.516,426.56C66.061,426.56 66.517,426.395 66.884,426.066C67.264,425.724 67.492,425.274 67.568,424.717C67.619,424.248 67.644,423.602 67.644,422.779C67.644,421.943 67.619,421.297 67.568,420.841C67.505,420.284 67.283,419.84 66.903,419.511C66.536,419.169 66.073,418.998 65.516,418.998C64.959,418.998 64.496,419.169 64.129,419.511C63.762,419.84 63.54,420.284 63.464,420.841C63.413,421.297 63.388,421.943 63.388,422.779C63.388,423.615 63.413,424.261 63.464,424.717C63.527,425.274 63.743,425.724 64.11,426.066C64.49,426.395 64.959,426.56 65.516,426.56ZM76.526,418.162C76.526,418.035 76.589,417.972 76.716,417.972L77.685,417.972C77.812,417.972 77.875,418.035 77.875,418.162L77.875,427.396C77.875,427.523 77.812,427.586 77.685,427.586L76.716,427.586C76.589,427.586 76.526,427.523 76.526,427.396L76.526,426.655C76.526,426.617 76.513,426.598 76.488,426.598C76.475,426.598 76.456,426.611 76.431,426.636C75.988,427.358 75.253,427.719 74.227,427.719C73.366,427.719 72.663,427.466 72.118,426.959C71.573,426.452 71.301,425.718 71.301,424.755L71.301,418.162C71.301,418.035 71.364,417.972 71.491,417.972L72.46,417.972C72.587,417.972 72.65,418.035 72.65,418.162L72.65,424.413C72.65,425.084 72.815,425.61 73.144,425.99C73.473,426.357 73.936,426.541 74.531,426.541C75.152,426.541 75.639,426.345 75.994,425.952C76.349,425.547 76.526,425.008 76.526,424.337L76.526,418.162ZM84.401,418.846C84.401,418.973 84.338,419.036 84.211,419.036L82.406,419.036C82.355,419.036 82.33,419.061 82.33,419.112L82.33,424.812C82.33,425.407 82.444,425.825 82.672,426.066C82.912,426.294 83.293,426.408 83.812,426.408L84.135,426.408C84.262,426.408 84.325,426.471 84.325,426.598L84.325,427.396C84.325,427.523 84.262,427.586 84.135,427.586L83.546,427.605C82.723,427.605 82.096,427.44 81.665,427.111C81.234,426.769 81.019,426.142 81.019,425.23L81.019,419.112C81.019,419.061 80.994,419.036 80.943,419.036L79.993,419.036C79.866,419.036 79.803,418.973 79.803,418.846L79.803,418.162C79.803,418.035 79.866,417.972 79.993,417.972L80.943,417.972C80.994,417.972 81.019,417.947 81.019,417.896L81.019,415.73C81.019,415.603 81.082,415.54 81.209,415.54L82.14,415.54C82.266,415.54 82.33,415.603 82.33,415.73L82.33,417.896C82.33,417.947 82.355,417.972 82.406,417.972L84.211,417.972C84.338,417.972 84.401,418.035 84.401,418.162L84.401,418.846ZM90.261,417.839C91.148,417.839 91.844,418.124 92.351,418.694C92.87,419.251 93.13,420.018 93.13,420.993L93.13,427.396C93.13,427.523 93.067,427.586 92.94,427.586L91.971,427.586C91.844,427.586 91.781,427.523 91.781,427.396L91.781,421.183C91.781,420.524 91.61,419.999 91.268,419.606C90.926,419.213 90.457,419.017 89.862,419.017C89.267,419.017 88.785,419.22 88.418,419.625C88.063,420.018 87.886,420.55 87.886,421.221L87.886,427.396C87.886,427.523 87.823,427.586 87.696,427.586L86.727,427.586C86.6,427.586 86.537,427.523 86.537,427.396L86.537,414.476C86.537,414.349 86.6,414.286 86.727,414.286L87.696,414.286C87.823,414.286 87.886,414.349 87.886,414.476L87.886,418.903C87.886,418.928 87.892,418.947 87.905,418.96C87.93,418.973 87.956,418.966 87.981,418.941C88.475,418.206 89.235,417.839 90.261,417.839Z"
      style="fill:currentColor;fill-opacity:0.9;fill-rule:nonzero;"/>
    <path
      d="M309.809,411.373C308.497,410.121 306.108,407.675 304.205,404.789C301.779,401.108 300.218,396.636 299.919,395.779L299.919,395.778C299.892,395.702 299.875,395.654 299.869,395.639L110,395.42L110,427.42L299.857,427.412C299.864,427.396 299.88,427.349 299.907,427.273L299.907,427.272C300.206,426.415 301.767,421.943 304.194,418.262C306.097,415.376 308.485,412.929 309.798,411.678L310.132,411.678C310.079,411.628 310.023,411.575 309.964,411.52C310.019,411.468 310.071,411.419 310.121,411.373L309.809,411.373Z"
      style="fill:rgb(238,34,18);"/>
    <path
      d="M163.809,447.373C162.497,446.121 160.108,443.675 158.205,440.789C155.779,437.108 154.218,432.636 153.919,431.779L153.919,431.778C153.892,431.702 153.875,431.654 153.869,431.639L110,431.42L110,463.42L153.857,463.412C153.864,463.396 153.88,463.349 153.907,463.273L153.907,463.272C154.206,462.415 155.767,457.943 158.194,454.262C160.097,451.376 162.485,448.929 163.798,447.678L164.132,447.678C164.079,447.628 164.023,447.575 163.964,447.52C164.019,447.468 164.071,447.419 164.121,447.373L163.809,447.373Z"
      style="fill:#968587;"/>
    <path
      d="M110,360.086L111,360.086L111,359.086L110,359.086L110,360.086ZM0,361.086L110,361.086L110,359.086L0,359.086L0,361.086ZM109,360.086L109,480.086L111,480.086L111,360.086L109,360.086Z"
      style="fill:rgb(217,203,207);fill-opacity:0.8;fill-rule:nonzero;"/>
                    </g>
  <g class="bar mobile-bar" id="Duke">
                        <g class="mobile-bar-background" transform="matrix(1,0,0,1,0,480.09)">
                            <rect x="0" y="0" width="390" height="120" style="fill:rgb(96,37,55);"/>
                        </g>
    <path
      d="M38.491,547.586C38.364,547.586 38.301,547.523 38.301,547.396L38.301,534.476C38.301,534.349 38.364,534.286 38.491,534.286L42.196,534.286C43.323,534.286 44.21,534.609 44.856,535.255C45.514,535.901 45.844,536.781 45.844,537.896L45.844,543.976C45.844,545.091 45.514,545.971 44.856,546.617C44.21,547.263 43.323,547.586 42.196,547.586L38.491,547.586ZM39.65,546.332C39.65,546.383 39.675,546.408 39.726,546.408L42.215,546.408C42.911,546.395 43.462,546.167 43.868,545.724C44.273,545.268 44.482,544.647 44.495,543.862L44.495,538.01C44.495,537.225 44.292,536.604 43.887,536.148C43.481,535.692 42.924,535.464 42.215,535.464L39.726,535.464C39.675,535.464 39.65,535.489 39.65,535.54L39.65,546.332ZM53.333,538.162C53.333,538.035 53.396,537.972 53.523,537.972L54.492,537.972C54.618,537.972 54.682,538.035 54.682,538.162L54.682,547.396C54.682,547.523 54.618,547.586 54.492,547.586L53.523,547.586C53.396,547.586 53.333,547.523 53.333,547.396L53.333,546.655C53.333,546.617 53.32,546.598 53.295,546.598C53.282,546.598 53.263,546.611 53.238,546.636C52.794,547.358 52.06,547.719 51.034,547.719C50.172,547.719 49.469,547.466 48.925,546.959C48.38,546.452 48.108,545.718 48.108,544.755L48.108,538.162C48.108,538.035 48.171,537.972 48.298,537.972L49.267,537.972C49.393,537.972 49.457,538.035 49.457,538.162L49.457,544.413C49.457,545.084 49.621,545.61 49.951,545.99C50.28,546.357 50.742,546.541 51.338,546.541C51.958,546.541 52.446,546.345 52.801,545.952C53.155,545.547 53.333,545.008 53.333,544.337L53.333,538.162ZM57.541,547.586C57.414,547.586 57.35,547.523 57.35,547.396L57.35,534.476C57.35,534.349 57.414,534.286 57.541,534.286L58.51,534.286C58.636,534.286 58.7,534.349 58.7,534.476L58.7,542.19C58.7,542.215 58.712,542.234 58.737,542.247C58.763,542.26 58.782,542.253 58.795,542.228L62.234,538.086C62.297,538.01 62.373,537.972 62.462,537.972L63.545,537.972C63.621,537.972 63.671,537.997 63.697,538.048C63.722,538.086 63.709,538.137 63.658,538.2L61.493,540.898C61.467,540.936 61.461,540.968 61.474,540.993L64.039,547.358L64.058,547.434C64.058,547.535 64.001,547.586 63.887,547.586L62.88,547.586C62.778,547.586 62.709,547.535 62.67,547.434L60.6,542C60.587,541.975 60.568,541.962 60.542,541.962C60.517,541.949 60.498,541.956 60.486,541.981L58.737,544.09C58.712,544.141 58.7,544.172 58.7,544.185L58.7,547.396C58.7,547.523 58.636,547.586 58.51,547.586L57.541,547.586ZM68.931,546.56C69.412,546.56 69.824,546.44 70.166,546.199C70.52,545.946 70.774,545.61 70.926,545.192C70.964,545.078 71.04,545.034 71.154,545.059L72.028,545.23C72.091,545.243 72.129,545.274 72.142,545.325C72.167,545.363 72.173,545.407 72.161,545.458C71.945,546.167 71.553,546.725 70.983,547.13C70.413,547.535 69.722,547.738 68.912,547.738C67.987,547.738 67.233,547.497 66.651,547.016C66.068,546.522 65.707,545.857 65.568,545.021C65.517,544.704 65.485,544.331 65.473,543.9C65.46,543.469 65.454,543.115 65.454,542.836L65.454,542.228C65.454,541.582 65.479,541.056 65.53,540.651C65.631,539.802 65.979,539.118 66.575,538.599C67.183,538.08 67.943,537.82 68.855,537.82C69.83,537.82 70.622,538.099 71.23,538.656C71.838,539.213 72.18,539.948 72.256,540.86C72.294,541.278 72.313,542.044 72.313,543.159C72.313,543.286 72.249,543.349 72.123,543.349L66.879,543.349C66.828,543.349 66.803,543.374 66.803,543.425C66.803,543.818 66.815,544.255 66.841,544.736C66.904,545.281 67.119,545.724 67.487,546.066C67.867,546.395 68.348,546.56 68.931,546.56ZM68.874,538.998C68.304,538.998 67.835,539.169 67.468,539.511C67.113,539.84 66.904,540.277 66.841,540.822C66.815,541.354 66.803,541.797 66.803,542.152C66.803,542.203 66.828,542.228 66.879,542.228L70.888,542.228C70.938,542.228 70.964,542.203 70.964,542.152C70.964,541.785 70.938,541.348 70.888,540.841C70.824,540.296 70.609,539.853 70.242,539.511C69.887,539.169 69.431,538.998 68.874,538.998Z"
      style="fill:currentColor;fill-opacity:0.9;fill-rule:nonzero;"/>
    <path
      d="M155.649,567.373C154.337,566.121 151.948,563.675 150.045,560.789C147.618,557.108 146.058,552.636 145.759,551.779L145.758,551.778C145.732,551.702 145.715,551.654 145.709,551.639L110,551.42L110,583.42L145.697,583.412C145.704,583.396 145.72,583.349 145.747,583.273L145.747,583.272C146.046,582.415 147.607,577.943 150.033,574.262C151.936,571.376 154.325,568.929 155.637,567.678L155.972,567.678C155.919,567.628 155.863,567.575 155.804,567.52C155.858,567.468 155.911,567.419 155.96,567.373L155.649,567.373Z"
      style="fill:#968587;"/>
    <path
      d="M300.809,531.373C299.497,530.121 297.108,527.675 295.205,524.789C292.779,521.108 291.218,516.636 290.919,515.779L290.919,515.778C290.892,515.702 290.875,515.654 290.869,515.639L110,515.42L110,547.42L290.857,547.412C290.864,547.396 290.88,547.349 290.907,547.273L290.907,547.272C291.206,546.415 292.767,541.943 295.194,538.262C297.097,535.376 299.485,532.929 300.798,531.678L301.132,531.678C301.079,531.628 301.023,531.575 300.964,531.52C301.019,531.468 301.071,531.419 301.121,531.373L300.809,531.373Z"
      style="fill:rgb(238,34,18);"/>
    <path
      d="M110,480.086L111,480.086L111,479.086L110,479.086L110,480.086ZM0,481.086L110,481.086L110,479.086L0,479.086L0,481.086ZM109,480.086L109,600.086L111,600.086L111,480.086L109,480.086Z"
      style="fill:rgb(217,203,207);fill-opacity:0.8;fill-rule:nonzero;"/>
                    </g>
  <g class="bar mobile-bar" id="Harvard">
                        <g class="mobile-bar-background" transform="matrix(1,0,0,1,0,600.09)">
                            <rect x="0" y="0" width="390" height="120" style="fill:rgb(96,37,55);"/>
                        </g>
    <path
      d="M33.678,654.476C33.678,654.349 33.741,654.286 33.868,654.286L34.837,654.286C34.963,654.286 35.027,654.349 35.027,654.476L35.027,667.396C35.027,667.523 34.963,667.586 34.837,667.586L33.868,667.586C33.741,667.586 33.678,667.523 33.678,667.396L33.678,661.582C33.678,661.531 33.652,661.506 33.602,661.506L28.89,661.506C28.839,661.506 28.814,661.531 28.814,661.582L28.814,667.396C28.814,667.523 28.75,667.586 28.624,667.586L27.655,667.586C27.528,667.586 27.465,667.523 27.465,667.396L27.465,654.476C27.465,654.349 27.528,654.286 27.655,654.286L28.624,654.286C28.75,654.286 28.814,654.349 28.814,654.476L28.814,660.252C28.814,660.303 28.839,660.328 28.89,660.328L33.602,660.328C33.652,660.328 33.678,660.303 33.678,660.252L33.678,654.476ZM41.002,657.82C42.015,657.82 42.807,658.111 43.377,658.694C43.959,659.277 44.251,660.049 44.251,661.012L44.251,667.396C44.251,667.523 44.187,667.586 44.061,667.586L43.092,667.586C42.965,667.586 42.902,667.523 42.902,667.396L42.902,666.712C42.902,666.687 42.889,666.668 42.864,666.655C42.851,666.642 42.832,666.649 42.807,666.674C42.528,667.029 42.173,667.295 41.743,667.472C41.312,667.649 40.831,667.738 40.299,667.738C39.501,667.738 38.817,667.523 38.247,667.092C37.689,666.661 37.411,665.958 37.411,664.983C37.411,663.97 37.734,663.203 38.38,662.684C39.038,662.152 39.931,661.886 41.059,661.886L42.826,661.886C42.876,661.886 42.902,661.861 42.902,661.81L42.902,661.088C42.902,660.442 42.737,659.935 42.408,659.568C42.091,659.188 41.616,658.998 40.983,658.998C40.489,658.998 40.077,659.125 39.748,659.378C39.418,659.619 39.222,659.942 39.159,660.347C39.146,660.461 39.076,660.518 38.95,660.518L37.905,660.461C37.841,660.461 37.791,660.442 37.753,660.404C37.727,660.366 37.721,660.322 37.734,660.271C37.822,659.536 38.164,658.947 38.76,658.504C39.368,658.048 40.115,657.82 41.002,657.82ZM40.565,666.56C41.198,666.56 41.743,666.389 42.199,666.047C42.667,665.692 42.902,665.205 42.902,664.584L42.902,663.045C42.902,662.994 42.876,662.969 42.826,662.969L41.154,662.969C40.432,662.969 39.855,663.14 39.425,663.482C38.994,663.811 38.779,664.286 38.779,664.907C38.779,665.464 38.943,665.882 39.273,666.161C39.602,666.427 40.033,666.56 40.565,666.56ZM50.272,657.877C50.652,657.877 50.975,657.953 51.241,658.105C51.33,658.143 51.362,658.219 51.336,658.333L51.108,659.321C51.096,659.448 51.02,659.486 50.88,659.435C50.678,659.346 50.456,659.302 50.215,659.302L49.987,659.321C49.43,659.334 48.968,659.574 48.6,660.043C48.233,660.512 48.049,661.082 48.049,661.753L48.049,667.396C48.049,667.523 47.986,667.586 47.859,667.586L46.89,667.586C46.764,667.586 46.7,667.523 46.7,667.396L46.7,658.162C46.7,658.035 46.764,657.972 46.89,657.972L47.859,657.972C47.986,657.972 48.049,658.035 48.049,658.162L48.049,659.397C48.049,659.435 48.056,659.454 48.068,659.454C48.094,659.454 48.112,659.441 48.125,659.416C48.341,658.935 48.626,658.561 48.98,658.295C49.347,658.016 49.778,657.877 50.272,657.877ZM55.546,667.586C55.445,667.586 55.375,667.535 55.337,667.434L52.582,658.181L52.563,658.124C52.563,658.023 52.627,657.972 52.753,657.972L53.817,657.972C53.931,657.972 54.001,658.029 54.026,658.143L56.04,665.553C56.053,665.578 56.066,665.591 56.078,665.591C56.104,665.591 56.123,665.578 56.135,665.553L58.13,658.143C58.156,658.029 58.225,657.972 58.339,657.972L59.422,657.991C59.486,657.991 59.53,658.01 59.555,658.048C59.593,658.086 59.606,658.137 59.593,658.2L56.857,667.434C56.819,667.535 56.75,667.586 56.648,667.586L55.546,667.586ZM64.381,657.82C65.394,657.82 66.186,658.111 66.756,658.694C67.338,659.277 67.63,660.049 67.63,661.012L67.63,667.396C67.63,667.523 67.566,667.586 67.44,667.586L66.471,667.586C66.344,667.586 66.281,667.523 66.281,667.396L66.281,666.712C66.281,666.687 66.268,666.668 66.243,666.655C66.23,666.642 66.211,666.649 66.186,666.674C65.907,667.029 65.552,667.295 65.122,667.472C64.691,667.649 64.21,667.738 63.678,667.738C62.88,667.738 62.196,667.523 61.626,667.092C61.068,666.661 60.79,665.958 60.79,664.983C60.79,663.97 61.113,663.203 61.759,662.684C62.417,662.152 63.31,661.886 64.438,661.886L66.205,661.886C66.255,661.886 66.281,661.861 66.281,661.81L66.281,661.088C66.281,660.442 66.116,659.935 65.787,659.568C65.47,659.188 64.995,658.998 64.362,658.998C63.868,658.998 63.456,659.125 63.127,659.378C62.797,659.619 62.601,659.942 62.538,660.347C62.525,660.461 62.455,660.518 62.329,660.518L61.284,660.461C61.22,660.461 61.17,660.442 61.132,660.404C61.106,660.366 61.1,660.322 61.113,660.271C61.201,659.536 61.543,658.947 62.139,658.504C62.747,658.048 63.494,657.82 64.381,657.82ZM63.944,666.56C64.577,666.56 65.122,666.389 65.578,666.047C66.046,665.692 66.281,665.205 66.281,664.584L66.281,663.045C66.281,662.994 66.255,662.969 66.205,662.969L64.533,662.969C63.811,662.969 63.234,663.14 62.804,663.482C62.373,663.811 62.158,664.286 62.158,664.907C62.158,665.464 62.322,665.882 62.652,666.161C62.981,666.427 63.412,666.56 63.944,666.56ZM73.651,657.877C74.031,657.877 74.354,657.953 74.62,658.105C74.709,658.143 74.74,658.219 74.715,658.333L74.487,659.321C74.474,659.448 74.398,659.486 74.259,659.435C74.056,659.346 73.835,659.302 73.594,659.302L73.366,659.321C72.809,659.334 72.346,659.574 71.979,660.043C71.612,660.512 71.428,661.082 71.428,661.753L71.428,667.396C71.428,667.523 71.365,667.586 71.238,667.586L70.269,667.586C70.142,667.586 70.079,667.523 70.079,667.396L70.079,658.162C70.079,658.035 70.142,657.972 70.269,657.972L71.238,657.972C71.365,657.972 71.428,658.035 71.428,658.162L71.428,659.397C71.428,659.435 71.434,659.454 71.447,659.454C71.472,659.454 71.491,659.441 71.504,659.416C71.719,658.935 72.004,658.561 72.359,658.295C72.726,658.016 73.157,657.877 73.651,657.877ZM81.426,654.476C81.426,654.349 81.49,654.286 81.616,654.286L82.585,654.286C82.712,654.286 82.775,654.349 82.775,654.476L82.775,667.396C82.775,667.523 82.712,667.586 82.585,667.586L81.616,667.586C81.49,667.586 81.426,667.523 81.426,667.396L81.426,666.636C81.426,666.598 81.414,666.579 81.388,666.579C81.376,666.579 81.357,666.592 81.331,666.617C80.863,667.364 80.128,667.738 79.127,667.738C78.329,667.738 77.69,667.529 77.208,667.111C76.74,666.68 76.391,666.003 76.163,665.078C75.999,664.381 75.916,663.647 75.916,662.874C75.916,661.987 75.986,661.234 76.125,660.613C76.315,659.663 76.664,658.966 77.17,658.523C77.69,658.067 78.374,657.839 79.222,657.839C79.754,657.839 80.185,657.934 80.514,658.124C80.856,658.301 81.129,658.574 81.331,658.941C81.344,658.979 81.363,658.998 81.388,658.998C81.414,658.985 81.426,658.96 81.426,658.922L81.426,654.476ZM81.103,665.173C81.293,664.603 81.388,663.805 81.388,662.779C81.388,661.74 81.287,660.923 81.084,660.328C80.932,659.897 80.723,659.568 80.457,659.34C80.204,659.112 79.862,658.998 79.431,658.998C78.595,658.998 78,659.429 77.645,660.29C77.405,660.923 77.284,661.753 77.284,662.779C77.284,663.805 77.385,664.597 77.588,665.154C77.753,665.623 77.975,665.977 78.253,666.218C78.545,666.459 78.931,666.579 79.412,666.579C79.856,666.579 80.21,666.459 80.476,666.218C80.742,665.977 80.951,665.629 81.103,665.173Z"
      style="fill:currentColor;fill-opacity:0.9;fill-rule:nonzero;"/>
    <path
      d="M235.809,651.373C234.497,650.121 232.108,647.675 230.205,644.789C227.779,641.108 226.218,636.636 225.919,635.779L225.919,635.778C225.892,635.702 225.875,635.654 225.869,635.639L110,635.42L110,667.42L225.857,667.412C225.864,667.396 225.88,667.349 225.907,667.273L225.907,667.272C226.206,666.415 227.767,661.943 230.194,658.262C232.097,655.376 234.485,652.929 235.798,651.678L236.132,651.678C236.079,651.628 236.023,651.575 235.964,651.52C236.019,651.468 236.071,651.419 236.121,651.373L235.809,651.373Z"
      style="fill:rgb(238,34,18);"/>
    <path
      d="M136.689,687.373C135.377,686.121 132.988,683.675 131.085,680.789C128.658,677.108 127.098,672.636 126.799,671.779L126.798,671.778C126.772,671.702 126.755,671.654 126.749,671.639L110,671.942L110,703.42L126.737,703.412C126.744,703.396 126.76,703.349 126.787,703.273L126.787,703.272C127.086,702.415 128.647,697.943 131.073,694.262C132.977,691.376 135.365,688.929 136.677,687.678L137.012,687.678C136.959,687.628 136.903,687.575 136.844,687.52C136.898,687.468 136.951,687.419 137,687.373L136.689,687.373Z"
      style="fill:#968587;"/>
    <path
      d="M110,600.086L111,600.086L111,599.086L110,599.086L110,600.086ZM0,601.086L110,601.086L110,599.086L0,599.086L0,601.086ZM109,600.086L109,720.086L111,720.086L111,600.086L109,600.086Z"
      style="fill:rgb(217,203,207);fill-opacity:0.8;fill-rule:nonzero;"/>
                    </g>
  <g class="bar mobile-bar" id="Johns-Hopkins" serif:id="Johns Hopkins">
                        <g class="mobile-bar-background" transform="matrix(1,0,0,1,0,720.09)">
                            <rect x="0" y="0" width="390" height="120" style="fill:rgb(96,37,55);"/>
                        </g>
    <path
      d="M34.763,775.238C33.636,775.238 32.73,774.909 32.046,774.25C31.375,773.591 31.039,772.724 31.039,771.647L31.039,770.127C31.039,770 31.102,769.937 31.229,769.937L32.198,769.937C32.325,769.937 32.388,770 32.388,770.127L32.388,771.666C32.388,772.388 32.603,772.971 33.034,773.414C33.465,773.845 34.041,774.06 34.763,774.06C35.472,774.06 36.049,773.838 36.492,773.395C36.935,772.952 37.157,772.375 37.157,771.666L37.157,761.976C37.157,761.849 37.22,761.786 37.347,761.786L38.297,761.786C38.424,761.786 38.487,761.849 38.487,761.976L38.487,771.647C38.487,772.724 38.145,773.591 37.461,774.25C36.777,774.909 35.878,775.238 34.763,775.238ZM44.624,775.238C43.699,775.238 42.939,774.991 42.344,774.497C41.748,773.99 41.387,773.313 41.261,772.464C41.185,771.831 41.147,771.096 41.147,770.26C41.147,769.424 41.185,768.702 41.261,768.094C41.375,767.258 41.729,766.587 42.325,766.08C42.933,765.573 43.699,765.32 44.624,765.32C45.548,765.32 46.308,765.573 46.904,766.08C47.512,766.587 47.873,767.258 47.987,768.094C48.063,768.601 48.1,769.323 48.1,770.26C48.1,771.223 48.063,771.957 47.987,772.464C47.873,773.313 47.512,773.99 46.904,774.497C46.308,774.991 45.548,775.238 44.624,775.238ZM44.624,774.06C45.168,774.06 45.624,773.895 45.992,773.566C46.372,773.224 46.6,772.774 46.676,772.217C46.726,771.748 46.752,771.102 46.752,770.279C46.752,769.443 46.726,768.797 46.676,768.341C46.612,767.784 46.391,767.34 46.011,767.011C45.643,766.669 45.181,766.498 44.624,766.498C44.066,766.498 43.604,766.669 43.237,767.011C42.869,767.34 42.648,767.784 42.572,768.341C42.521,768.797 42.496,769.443 42.496,770.279C42.496,771.115 42.521,771.761 42.572,772.217C42.635,772.774 42.85,773.224 43.218,773.566C43.597,773.895 44.066,774.06 44.624,774.06ZM54.246,765.339C55.133,765.339 55.83,765.624 56.336,766.194C56.856,766.751 57.115,767.518 57.115,768.493L57.115,774.896C57.115,775.023 57.052,775.086 56.925,775.086L55.956,775.086C55.83,775.086 55.766,775.023 55.766,774.896L55.766,768.683C55.766,768.024 55.595,767.499 55.253,767.106C54.911,766.713 54.443,766.517 53.847,766.517C53.252,766.517 52.771,766.72 52.403,767.125C52.049,767.518 51.871,768.05 51.871,768.721L51.871,774.896C51.871,775.023 51.808,775.086 51.681,775.086L50.712,775.086C50.586,775.086 50.522,775.023 50.522,774.896L50.522,761.976C50.522,761.849 50.586,761.786 50.712,761.786L51.681,761.786C51.808,761.786 51.871,761.849 51.871,761.976L51.871,766.403C51.871,766.428 51.878,766.447 51.89,766.46C51.916,766.473 51.941,766.466 51.966,766.441C52.46,765.706 53.22,765.339 54.246,765.339ZM63.412,765.339C64.299,765.339 64.996,765.624 65.502,766.194C66.022,766.751 66.281,767.518 66.281,768.493L66.281,774.896C66.281,775.023 66.218,775.086 66.091,775.086L65.122,775.086C64.996,775.086 64.932,775.023 64.932,774.896L64.932,768.683C64.932,768.024 64.761,767.499 64.419,767.106C64.077,766.713 63.609,766.517 63.013,766.517C62.418,766.517 61.937,766.72 61.569,767.125C61.215,767.518 61.037,768.05 61.037,768.721L61.037,774.896C61.037,775.023 60.974,775.086 60.847,775.086L59.878,775.086C59.752,775.086 59.688,775.023 59.688,774.896L59.688,765.662C59.688,765.535 59.752,765.472 59.878,765.472L60.847,765.472C60.974,765.472 61.037,765.535 61.037,765.662L61.037,766.403C61.037,766.428 61.044,766.447 61.056,766.46C61.082,766.473 61.107,766.466 61.132,766.441C61.626,765.706 62.386,765.339 63.412,765.339ZM71.685,775.181C70.71,775.181 69.925,774.947 69.329,774.478C68.734,774.009 68.436,773.408 68.436,772.673L68.436,772.502C68.436,772.375 68.5,772.312 68.626,772.312L69.557,772.312C69.684,772.312 69.747,772.375 69.747,772.502L69.747,772.635C69.747,773.04 69.925,773.395 70.279,773.699C70.647,773.99 71.115,774.136 71.685,774.136C72.243,774.136 72.692,773.99 73.034,773.699C73.376,773.408 73.547,773.04 73.547,772.597C73.547,772.28 73.452,772.014 73.262,771.799C73.072,771.584 72.838,771.413 72.559,771.286C72.281,771.159 71.894,771.014 71.4,770.849C70.805,770.646 70.311,770.444 69.918,770.241C69.526,770.038 69.19,769.76 68.911,769.405C68.645,769.038 68.512,768.575 68.512,768.018C68.512,767.207 68.797,766.568 69.367,766.099C69.937,765.618 70.691,765.377 71.628,765.377C72.591,765.377 73.357,765.624 73.927,766.118C74.51,766.612 74.801,767.245 74.801,768.018L74.801,768.056C74.801,768.183 74.738,768.246 74.611,768.246L73.737,768.246C73.611,768.246 73.547,768.183 73.547,768.056L73.547,767.98C73.547,767.549 73.37,767.195 73.015,766.916C72.673,766.625 72.211,766.479 71.628,766.479C71.084,766.479 70.64,766.618 70.298,766.897C69.969,767.163 69.804,767.511 69.804,767.942C69.804,768.385 69.969,768.721 70.298,768.949C70.64,769.177 71.172,769.418 71.894,769.671C72.515,769.874 73.028,770.076 73.433,770.279C73.839,770.482 74.181,770.767 74.459,771.134C74.751,771.489 74.896,771.951 74.896,772.521C74.896,773.332 74.605,773.978 74.022,774.459C73.44,774.94 72.661,775.181 71.685,775.181ZM33.065,786.976C33.065,786.849 33.129,786.786 33.255,786.786L34.224,786.786C34.351,786.786 34.414,786.849 34.414,786.976L34.414,799.896C34.414,800.023 34.351,800.086 34.224,800.086L33.255,800.086C33.129,800.086 33.065,800.023 33.065,799.896L33.065,794.082C33.065,794.031 33.04,794.006 32.989,794.006L28.277,794.006C28.227,794.006 28.201,794.031 28.201,794.082L28.201,799.896C28.201,800.023 28.138,800.086 28.011,800.086L27.042,800.086C26.916,800.086 26.852,800.023 26.852,799.896L26.852,786.976C26.852,786.849 26.916,786.786 27.042,786.786L28.011,786.786C28.138,786.786 28.201,786.849 28.201,786.976L28.201,792.752C28.201,792.803 28.227,792.828 28.277,792.828L32.989,792.828C33.04,792.828 33.065,792.803 33.065,792.752L33.065,786.976ZM40.541,800.238C39.617,800.238 38.857,799.991 38.261,799.497C37.666,798.99 37.305,798.313 37.178,797.464C37.102,796.831 37.064,796.096 37.064,795.26C37.064,794.424 37.102,793.702 37.178,793.094C37.292,792.258 37.647,791.587 38.242,791.08C38.85,790.573 39.617,790.32 40.541,790.32C41.466,790.32 42.226,790.573 42.821,791.08C43.429,791.587 43.79,792.258 43.904,793.094C43.98,793.601 44.018,794.323 44.018,795.26C44.018,796.223 43.98,796.957 43.904,797.464C43.79,798.313 43.429,798.99 42.821,799.497C42.226,799.991 41.466,800.238 40.541,800.238ZM40.541,799.06C41.086,799.06 41.542,798.895 41.909,798.566C42.289,798.224 42.517,797.774 42.593,797.217C42.644,796.748 42.669,796.102 42.669,795.279C42.669,794.443 42.644,793.797 42.593,793.341C42.53,792.784 42.308,792.34 41.928,792.011C41.561,791.669 41.099,791.498 40.541,791.498C39.984,791.498 39.522,791.669 39.154,792.011C38.787,792.34 38.565,792.784 38.489,793.341C38.439,793.797 38.413,794.443 38.413,795.279C38.413,796.115 38.439,796.761 38.489,797.217C38.553,797.774 38.768,798.224 39.135,798.566C39.515,798.895 39.984,799.06 40.541,799.06ZM53.166,792.999C53.331,793.67 53.413,794.399 53.413,795.184C53.413,796.045 53.35,796.799 53.223,797.445C53.021,798.395 52.66,799.098 52.14,799.554C51.634,799.997 50.956,800.219 50.107,800.219C49.588,800.219 49.157,800.13 48.815,799.953C48.486,799.776 48.22,799.516 48.017,799.174C48.005,799.136 47.986,799.123 47.96,799.136C47.935,799.136 47.922,799.155 47.922,799.193L47.922,803.582C47.922,803.709 47.859,803.772 47.732,803.772L46.763,803.772C46.637,803.772 46.573,803.709 46.573,803.582L46.573,790.662C46.573,790.535 46.637,790.472 46.763,790.472L47.732,790.472C47.859,790.472 47.922,790.535 47.922,790.662L47.922,791.384C47.922,791.422 47.935,791.447 47.96,791.46C47.986,791.46 48.005,791.441 48.017,791.403C48.473,790.681 49.202,790.32 50.202,790.32C51,790.32 51.634,790.535 52.102,790.966C52.584,791.384 52.938,792.062 53.166,792.999ZM51.684,797.787C51.925,797.141 52.045,796.305 52.045,795.279C52.045,794.266 51.95,793.474 51.76,792.904C51.596,792.435 51.368,792.081 51.076,791.84C50.785,791.599 50.405,791.479 49.936,791.479C49.493,791.479 49.132,791.599 48.853,791.84C48.587,792.081 48.378,792.429 48.226,792.885C48.036,793.455 47.941,794.253 47.941,795.279C47.941,796.33 48.049,797.147 48.264,797.73C48.416,798.161 48.619,798.49 48.872,798.718C49.126,798.946 49.468,799.06 49.898,799.06C50.734,799.06 51.33,798.636 51.684,797.787ZM55.926,800.086C55.8,800.086 55.736,800.023 55.736,799.896L55.736,786.976C55.736,786.849 55.8,786.786 55.926,786.786L56.895,786.786C57.022,786.786 57.085,786.849 57.085,786.976L57.085,794.69C57.085,794.715 57.098,794.734 57.123,794.747C57.149,794.76 57.168,794.753 57.18,794.728L60.619,790.586C60.683,790.51 60.759,790.472 60.847,790.472L61.93,790.472C62.006,790.472 62.057,790.497 62.082,790.548C62.108,790.586 62.095,790.637 62.044,790.7L59.878,793.398C59.853,793.436 59.847,793.468 59.859,793.493L62.424,799.858L62.443,799.934C62.443,800.035 62.386,800.086 62.272,800.086L61.265,800.086C61.164,800.086 61.094,800.035 61.056,799.934L58.985,794.5C58.973,794.475 58.954,794.462 58.928,794.462C58.903,794.449 58.884,794.456 58.871,794.481L57.123,796.59C57.098,796.641 57.085,796.672 57.085,796.685L57.085,799.896C57.085,800.023 57.022,800.086 56.895,800.086L55.926,800.086ZM65.22,788.724C64.903,788.724 64.643,788.623 64.441,788.42C64.251,788.217 64.156,787.964 64.156,787.66C64.156,787.343 64.251,787.09 64.441,786.9C64.643,786.697 64.903,786.596 65.22,786.596C65.524,786.596 65.777,786.697 65.98,786.9C66.182,787.09 66.284,787.343 66.284,787.66C66.284,787.964 66.182,788.217 65.98,788.42C65.777,788.623 65.524,788.724 65.22,788.724ZM64.707,800.086C64.58,800.086 64.517,800.023 64.517,799.896L64.517,790.662C64.517,790.535 64.58,790.472 64.707,790.472L65.676,790.472C65.802,790.472 65.866,790.535 65.866,790.662L65.866,799.896C65.866,800.023 65.802,800.086 65.676,800.086L64.707,800.086ZM72.486,790.339C73.372,790.339 74.069,790.624 74.576,791.194C75.095,791.751 75.355,792.518 75.355,793.493L75.355,799.896C75.355,800.023 75.291,800.086 75.165,800.086L74.196,800.086C74.069,800.086 74.006,800.023 74.006,799.896L74.006,793.683C74.006,793.024 73.835,792.499 73.493,792.106C73.151,791.713 72.682,791.517 72.087,791.517C71.491,791.517 71.01,791.72 70.643,792.125C70.288,792.518 70.111,793.05 70.111,793.721L70.111,799.896C70.111,800.023 70.047,800.086 69.921,800.086L68.952,800.086C68.825,800.086 68.762,800.023 68.762,799.896L68.762,790.662C68.762,790.535 68.825,790.472 68.952,790.472L69.921,790.472C70.047,790.472 70.111,790.535 70.111,790.662L70.111,791.403C70.111,791.428 70.117,791.447 70.13,791.46C70.155,791.473 70.18,791.466 70.206,791.441C70.7,790.706 71.46,790.339 72.486,790.339ZM80.759,800.181C79.783,800.181 78.998,799.947 78.403,799.478C77.807,799.009 77.51,798.408 77.51,797.673L77.51,797.502C77.51,797.375 77.573,797.312 77.7,797.312L78.631,797.312C78.757,797.312 78.821,797.375 78.821,797.502L78.821,797.635C78.821,798.04 78.998,798.395 79.353,798.699C79.72,798.99 80.189,799.136 80.759,799.136C81.316,799.136 81.766,798.99 82.108,798.699C82.45,798.408 82.621,798.04 82.621,797.597C82.621,797.28 82.526,797.014 82.336,796.799C82.146,796.584 81.911,796.413 81.633,796.286C81.354,796.159 80.968,796.014 80.474,795.849C79.878,795.646 79.384,795.444 78.992,795.241C78.599,795.038 78.263,794.76 77.985,794.405C77.719,794.038 77.586,793.575 77.586,793.018C77.586,792.207 77.871,791.568 78.441,791.099C79.011,790.618 79.764,790.377 80.702,790.377C81.664,790.377 82.431,790.624 83.001,791.118C83.583,791.612 83.875,792.245 83.875,793.018L83.875,793.056C83.875,793.183 83.811,793.246 83.685,793.246L82.811,793.246C82.684,793.246 82.621,793.183 82.621,793.056L82.621,792.98C82.621,792.549 82.443,792.195 82.089,791.916C81.747,791.625 81.284,791.479 80.702,791.479C80.157,791.479 79.714,791.618 79.372,791.897C79.042,792.163 78.878,792.511 78.878,792.942C78.878,793.385 79.042,793.721 79.372,793.949C79.714,794.177 80.246,794.418 80.968,794.671C81.588,794.874 82.101,795.076 82.507,795.279C82.912,795.482 83.254,795.767 83.533,796.134C83.824,796.489 83.97,796.951 83.97,797.521C83.97,798.332 83.678,798.978 83.096,799.459C82.513,799.94 81.734,800.181 80.759,800.181Z"
      style="fill:currentColor;fill-opacity:0.9;fill-rule:nonzero;"/>
    <path
      d="M323.809,771.373C322.497,770.121 320.108,767.675 318.205,764.789C315.779,761.108 314.218,756.636 313.919,755.779L313.919,755.778C313.892,755.702 313.875,755.654 313.869,755.639L110,755.42L110,787.42L313.857,787.412C313.864,787.396 313.88,787.349 313.907,787.273L313.907,787.272C314.206,786.415 315.767,781.943 318.194,778.262C320.097,775.376 322.485,772.929 323.798,771.678L324.132,771.678C324.079,771.628 324.023,771.575 323.964,771.52C324.019,771.468 324.071,771.419 324.121,771.373L323.809,771.373Z"
      style="fill:rgb(238,34,18);"/>
    <path
      d="M162.881,807.373C161.569,806.121 159.18,803.675 157.277,800.789C154.85,797.108 153.29,792.636 152.99,791.779L152.99,791.778C152.964,791.702 152.947,791.654 152.941,791.639L110,791.42L110,823.42L152.929,823.412C152.935,823.396 152.952,823.349 152.979,823.273L152.979,823.272C153.278,822.415 154.839,817.943 157.265,814.262C159.168,811.376 161.557,808.929 162.869,807.678L163.204,807.678C163.151,807.628 163.095,807.575 163.036,807.52C163.09,807.468 163.143,807.419 163.192,807.373L162.881,807.373Z"
      style="fill:#968587;"/>
    <path
      d="M110,720.086L111,720.086L111,719.086L110,719.086L110,720.086ZM0,721.086L110,721.086L110,719.086L0,719.086L0,721.086ZM109,720.086L109,840.086L111,840.086L111,720.086L109,720.086Z"
      style="fill:rgb(217,203,207);fill-opacity:0.8;fill-rule:nonzero;"/>
                    </g>
  <g class="bar mobile-bar" id="MIT">
                        <g class="mobile-bar-background" transform="matrix(1,0,0,1,0,840.09)">
                            <rect x="0" y="0" width="390" height="120" style="fill:rgb(96,37,55);"/>
                        </g>
    <path
      d="M50.938,894.419C51.002,894.33 51.078,894.286 51.166,894.286L52.154,894.286C52.281,894.286 52.344,894.349 52.344,894.476L52.344,907.396C52.344,907.523 52.281,907.586 52.154,907.586L51.185,907.586C51.059,907.586 50.995,907.523 50.995,907.396L50.995,897.06C50.995,897.022 50.983,896.997 50.957,896.984C50.932,896.971 50.913,896.984 50.9,897.022L48.373,901.411C48.31,901.5 48.234,901.544 48.145,901.544L47.936,901.544C47.847,901.544 47.772,901.5 47.708,901.411L45.162,897.041C45.15,897.003 45.131,896.99 45.105,897.003C45.08,897.016 45.067,897.041 45.067,897.079L45.067,907.396C45.067,907.523 45.004,907.586 44.877,907.586L43.908,907.586C43.782,907.586 43.718,907.523 43.718,907.396L43.718,894.476C43.718,894.349 43.782,894.286 43.908,894.286L44.896,894.286C44.985,894.286 45.061,894.33 45.124,894.419L47.993,899.302C48.006,899.315 48.025,899.321 48.05,899.321C48.076,899.321 48.094,899.315 48.107,899.302L50.938,894.419ZM55.672,907.586C55.546,907.586 55.482,907.523 55.482,907.396L55.482,894.476C55.482,894.349 55.546,894.286 55.672,894.286L56.641,894.286C56.768,894.286 56.831,894.349 56.831,894.476L56.831,907.396C56.831,907.523 56.768,907.586 56.641,907.586L55.672,907.586ZM66.907,894.286C67.034,894.286 67.097,894.349 67.097,894.476L67.097,895.274C67.097,895.401 67.034,895.464 66.907,895.464L63.81,895.464C63.759,895.464 63.734,895.489 63.734,895.54L63.734,907.396C63.734,907.523 63.671,907.586 63.544,907.586L62.575,907.586C62.448,907.586 62.385,907.523 62.385,907.396L62.385,895.54C62.385,895.489 62.36,895.464 62.309,895.464L59.326,895.464C59.199,895.464 59.136,895.401 59.136,895.274L59.136,894.476C59.136,894.349 59.199,894.286 59.326,894.286L66.907,894.286Z"
      style="fill:currentColor;fill-opacity:0.9;fill-rule:nonzero;"/>
    <path
      d="M306.809,891.373C305.497,890.121 303.108,887.675 301.205,884.789C298.779,881.108 297.218,876.636 296.919,875.779L296.919,875.778C296.892,875.702 296.875,875.654 296.869,875.639L110,875.42L110,907.42L296.857,907.412C296.864,907.396 296.88,907.349 296.907,907.273L296.907,907.272C297.206,906.415 298.767,901.943 301.194,898.262C303.097,895.376 305.485,892.929 306.798,891.678L307.132,891.678C307.079,891.628 307.023,891.575 306.964,891.52C307.019,891.468 307.071,891.419 307.121,891.373L306.809,891.373Z"
      style="fill:rgb(238,34,18);"/>
    <path
      d="M145.269,927.373C143.957,926.121 141.568,923.675 139.665,920.789C137.239,917.108 135.678,912.636 135.379,911.779L135.379,911.778C135.352,911.702 135.335,911.654 135.329,911.639L110,911.42L110,943.42L135.317,943.412C135.324,943.396 135.34,943.349 135.367,943.273L135.367,943.272C135.666,942.415 137.227,937.943 139.654,934.262C141.557,931.376 143.945,928.929 145.257,927.678L145.592,927.678C145.539,927.628 145.483,927.575 145.424,927.52C145.479,927.468 145.531,927.419 145.581,927.373L145.269,927.373Z"
      style="fill:#968587;"/>
    <path
      d="M110,840.086L111,840.086L111,839.086L110,839.086L110,840.086ZM0,841.086L110,841.086L110,839.086L0,839.086L0,841.086ZM109,840.086L109,960.086L111,960.086L111,840.086L109,840.086Z"
      style="fill:rgb(217,203,207);fill-opacity:0.8;fill-rule:nonzero;"/>
                    </g>
  <g class="bar mobile-bar" id="NYU">
                        <g class="mobile-bar-background" transform="matrix(1,0,0,1,0,960.09)">
                            <rect x="0" y="0" width="390" height="120" style="fill:rgb(96,37,55);"/>
                        </g>
    <path
      d="M47.585,1014.48C47.585,1014.35 47.648,1014.29 47.775,1014.29L48.744,1014.29C48.87,1014.29 48.934,1014.35 48.934,1014.48L48.934,1027.4C48.934,1027.52 48.87,1027.59 48.744,1027.59L47.718,1027.59C47.603,1027.59 47.528,1027.54 47.49,1027.45L42.398,1017.29C42.372,1017.26 42.347,1017.25 42.322,1017.25C42.309,1017.25 42.303,1017.27 42.303,1017.31L42.322,1027.4C42.322,1027.52 42.258,1027.59 42.132,1027.59L41.163,1027.59C41.036,1027.59 40.972,1027.52 40.972,1027.4L40.972,1014.48C40.972,1014.35 41.036,1014.29 41.163,1014.29L42.189,1014.29C42.303,1014.29 42.379,1014.33 42.417,1014.42L47.509,1024.62C47.534,1024.65 47.553,1024.66 47.566,1024.66C47.591,1024.66 47.603,1024.64 47.603,1024.6L47.585,1014.48ZM54.728,1027.57C54.601,1027.57 54.538,1027.5 54.538,1027.38L54.538,1021.71C54.538,1021.66 54.531,1021.63 54.519,1021.62L51.232,1014.51L51.213,1014.44C51.213,1014.34 51.27,1014.29 51.384,1014.29L52.41,1014.29C52.511,1014.29 52.581,1014.34 52.619,1014.44L55.165,1020.12C55.177,1020.14 55.196,1020.16 55.222,1020.16C55.247,1020.16 55.266,1020.14 55.279,1020.12L57.825,1014.44C57.863,1014.34 57.932,1014.29 58.034,1014.29L59.06,1014.29C59.123,1014.29 59.167,1014.31 59.193,1014.36C59.231,1014.4 59.237,1014.45 59.212,1014.51L55.906,1021.62C55.893,1021.63 55.887,1021.66 55.887,1021.71L55.887,1027.38C55.887,1027.5 55.823,1027.57 55.697,1027.57L54.728,1027.57ZM65.275,1027.74C64.502,1027.74 63.818,1027.57 63.222,1027.24C62.64,1026.91 62.184,1026.45 61.855,1025.86C61.538,1025.26 61.38,1024.57 61.38,1023.79L61.38,1014.48C61.38,1014.35 61.443,1014.29 61.57,1014.29L62.539,1014.29C62.665,1014.29 62.728,1014.35 62.728,1014.48L62.728,1023.86C62.728,1024.67 62.963,1025.32 63.432,1025.82C63.9,1026.31 64.515,1026.56 65.275,1026.56C66.035,1026.56 66.649,1026.31 67.118,1025.82C67.586,1025.32 67.821,1024.67 67.821,1023.86L67.821,1014.48C67.821,1014.35 67.884,1014.29 68.01,1014.29L68.98,1014.29C69.106,1014.29 69.17,1014.35 69.17,1014.48L69.17,1023.79C69.17,1024.57 69.005,1025.26 68.676,1025.86C68.359,1026.45 67.903,1026.91 67.308,1027.24C66.725,1027.57 66.047,1027.74 65.275,1027.74Z"
      style="fill:currentColor;fill-opacity:0.9;fill-rule:nonzero;"/>
    <path
      d="M172.597,1047.37C171.285,1046.12 168.896,1043.67 166.993,1040.79C164.567,1037.11 163.006,1032.64 162.707,1031.78C162.68,1031.7 162.663,1031.65 162.657,1031.64L110,1031.42L110,1047.42L110,1047.42L110,1063.42L162.645,1063.41C162.652,1063.4 162.668,1063.35 162.695,1063.27C162.994,1062.41 164.555,1057.94 166.982,1054.26C168.885,1051.38 171.273,1048.93 172.586,1047.68L172.92,1047.68C172.867,1047.63 172.811,1047.58 172.752,1047.52C172.807,1047.47 172.859,1047.42 172.909,1047.37L172.597,1047.37Z"
      style="fill:#968587;"/>
    <path
      d="M368.809,1011.37C367.497,1010.12 365.108,1007.67 363.205,1004.79C360.779,1001.11 359.218,996.636 358.919,995.779L358.919,995.778C358.892,995.702 358.875,995.654 358.869,995.639L110,995.42L110,1027.42L358.857,1027.41C358.864,1027.4 358.88,1027.35 358.907,1027.27C359.206,1026.41 360.767,1021.94 363.194,1018.26C365.097,1015.38 367.485,1012.93 368.798,1011.68L369.132,1011.68C369.079,1011.63 369.023,1011.58 368.964,1011.52C369.019,1011.47 369.071,1011.42 369.121,1011.37L368.809,1011.37Z"
      style="fill:rgb(238,34,18);"/>
    <path
      d="M110,960.086L111,960.086L111,959.086L110,959.086L110,960.086ZM0,961.086L110,961.086L110,959.086L0,959.086L0,961.086ZM109,960.086L109,1080.09L111,1080.09L111,960.086L109,960.086Z"
      style="fill:rgb(217,203,207);fill-opacity:0.8;fill-rule:nonzero;"/>
                    </g>
  <g class="bar mobile-bar" id="Princeton">
                        <g class="mobile-bar-background" transform="matrix(1,0,0,1,0,1080.09)">
                            <rect x="0" y="0" width="390" height="120" style="fill:rgb(96,37,55);"/>
                        </g>
    <path
      d="M25.104,1134.27C26.118,1134.27 26.935,1134.61 27.555,1135.29C28.189,1135.96 28.505,1136.86 28.505,1137.97C28.505,1139.07 28.189,1139.96 27.555,1140.63C26.935,1141.29 26.118,1141.62 25.104,1141.62L22.273,1141.62C22.223,1141.62 22.197,1141.65 22.197,1141.7L22.197,1147.4C22.197,1147.52 22.134,1147.59 22.007,1147.59L21.038,1147.59C20.912,1147.59 20.848,1147.52 20.848,1147.4L20.848,1134.46C20.848,1134.33 20.912,1134.27 21.038,1134.27L25.104,1134.27ZM24.933,1140.5C25.605,1140.5 26.143,1140.27 26.548,1139.81C26.953,1139.36 27.156,1138.75 27.156,1137.99C27.156,1137.22 26.953,1136.6 26.548,1136.15C26.143,1135.68 25.605,1135.44 24.933,1135.44L22.273,1135.44C22.223,1135.44 22.197,1135.47 22.197,1135.52L22.197,1140.42C22.197,1140.47 22.223,1140.5 22.273,1140.5L24.933,1140.5ZM34.065,1137.88C34.445,1137.88 34.768,1137.95 35.034,1138.1C35.122,1138.14 35.154,1138.22 35.129,1138.33L34.901,1139.32C34.888,1139.45 34.812,1139.49 34.673,1139.43C34.47,1139.35 34.248,1139.3 34.008,1139.3L33.78,1139.32C33.222,1139.33 32.76,1139.57 32.393,1140.04C32.025,1140.51 31.842,1141.08 31.842,1141.75L31.842,1147.4C31.842,1147.52 31.778,1147.59 31.652,1147.59L30.683,1147.59C30.556,1147.59 30.493,1147.52 30.493,1147.4L30.493,1138.16C30.493,1138.04 30.556,1137.97 30.683,1137.97L31.652,1137.97C31.778,1137.97 31.842,1138.04 31.842,1138.16L31.842,1139.4C31.842,1139.43 31.848,1139.45 31.861,1139.45C31.886,1139.45 31.905,1139.44 31.918,1139.42C32.133,1138.93 32.418,1138.56 32.773,1138.29C33.14,1138.02 33.571,1137.88 34.065,1137.88ZM37.62,1136.22C37.303,1136.22 37.043,1136.12 36.841,1135.92C36.651,1135.72 36.556,1135.46 36.556,1135.16C36.556,1134.84 36.651,1134.59 36.841,1134.4C37.043,1134.2 37.303,1134.1 37.62,1134.1C37.923,1134.1 38.177,1134.2 38.38,1134.4C38.582,1134.59 38.684,1134.84 38.684,1135.16C38.684,1135.46 38.582,1135.72 38.38,1135.92C38.177,1136.12 37.923,1136.22 37.62,1136.22ZM37.106,1147.59C36.98,1147.59 36.917,1147.52 36.917,1147.4L36.917,1138.16C36.917,1138.04 36.98,1137.97 37.106,1137.97L38.076,1137.97C38.202,1137.97 38.266,1138.04 38.266,1138.16L38.266,1147.4C38.266,1147.52 38.202,1147.59 38.076,1147.59L37.106,1147.59ZM44.886,1137.84C45.772,1137.84 46.469,1138.12 46.975,1138.69C47.495,1139.25 47.755,1140.02 47.755,1140.99L47.755,1147.4C47.755,1147.52 47.691,1147.59 47.565,1147.59L46.596,1147.59C46.469,1147.59 46.406,1147.52 46.406,1147.4L46.406,1141.18C46.406,1140.52 46.234,1140 45.893,1139.61C45.551,1139.21 45.082,1139.02 44.487,1139.02C43.891,1139.02 43.41,1139.22 43.042,1139.62C42.688,1140.02 42.511,1140.55 42.511,1141.22L42.511,1147.4C42.511,1147.52 42.447,1147.59 42.321,1147.59L41.352,1147.59C41.225,1147.59 41.161,1147.52 41.161,1147.4L41.161,1138.16C41.161,1138.04 41.225,1137.97 41.352,1137.97L42.321,1137.97C42.447,1137.97 42.511,1138.04 42.511,1138.16L42.511,1138.9C42.511,1138.93 42.517,1138.95 42.53,1138.96C42.555,1138.97 42.58,1138.97 42.606,1138.94C43.1,1138.21 43.859,1137.84 44.886,1137.84ZM53.464,1147.74C52.552,1147.74 51.799,1147.49 51.203,1147C50.608,1146.49 50.247,1145.81 50.12,1144.96C50.044,1144.32 50.006,1143.58 50.006,1142.76C50.006,1142.11 50.044,1141.39 50.12,1140.57C50.234,1139.75 50.595,1139.09 51.203,1138.58C51.811,1138.07 52.565,1137.82 53.464,1137.82C54.364,1137.82 55.117,1138.06 55.725,1138.54C56.346,1139.02 56.707,1139.62 56.808,1140.35L56.865,1140.75L56.865,1140.78C56.865,1140.83 56.846,1140.88 56.808,1140.92C56.783,1140.94 56.745,1140.95 56.694,1140.95L55.725,1141.01C55.611,1141.01 55.542,1140.95 55.516,1140.84C55.516,1140.73 55.51,1140.65 55.497,1140.61C55.434,1140.17 55.212,1139.79 54.832,1139.47C54.465,1139.16 54.009,1139 53.464,1139C52.907,1139 52.445,1139.17 52.077,1139.51C51.723,1139.85 51.514,1140.3 51.45,1140.84C51.387,1141.39 51.355,1142.03 51.355,1142.78C51.355,1143.54 51.387,1144.19 51.45,1144.74C51.514,1145.29 51.723,1145.74 52.077,1146.07C52.445,1146.4 52.907,1146.56 53.464,1146.56C54.022,1146.56 54.484,1146.4 54.851,1146.08C55.231,1145.77 55.447,1145.38 55.497,1144.93L55.516,1144.77C55.542,1144.63 55.611,1144.58 55.725,1144.6L56.675,1144.68C56.789,1144.7 56.846,1144.76 56.846,1144.85L56.846,1144.93C56.846,1144.98 56.834,1145.05 56.808,1145.15C56.72,1145.9 56.365,1146.52 55.744,1147.02C55.136,1147.5 54.376,1147.74 53.464,1147.74ZM62.242,1146.56C62.723,1146.56 63.135,1146.44 63.477,1146.2C63.831,1145.95 64.085,1145.61 64.237,1145.19C64.275,1145.08 64.351,1145.03 64.465,1145.06L65.339,1145.23C65.402,1145.24 65.44,1145.27 65.453,1145.32C65.478,1145.36 65.484,1145.41 65.472,1145.46C65.256,1146.17 64.864,1146.72 64.294,1147.13C63.724,1147.54 63.033,1147.74 62.223,1147.74C61.298,1147.74 60.544,1147.5 59.962,1147.02C59.379,1146.52 59.018,1145.86 58.879,1145.02C58.828,1144.7 58.796,1144.33 58.784,1143.9C58.771,1143.47 58.765,1143.11 58.765,1142.84L58.765,1142.23C58.765,1141.58 58.79,1141.06 58.841,1140.65C58.942,1139.8 59.29,1139.12 59.886,1138.6C60.494,1138.08 61.254,1137.82 62.166,1137.82C63.141,1137.82 63.933,1138.1 64.541,1138.66C65.149,1139.21 65.491,1139.95 65.567,1140.86C65.605,1141.28 65.624,1142.04 65.624,1143.16C65.624,1143.29 65.56,1143.35 65.434,1143.35L60.19,1143.35C60.139,1143.35 60.114,1143.37 60.114,1143.42C60.114,1143.82 60.126,1144.25 60.152,1144.74C60.215,1145.28 60.43,1145.72 60.798,1146.07C61.178,1146.4 61.659,1146.56 62.242,1146.56ZM62.185,1139C61.615,1139 61.146,1139.17 60.779,1139.51C60.424,1139.84 60.215,1140.28 60.152,1140.82C60.126,1141.35 60.114,1141.8 60.114,1142.15C60.114,1142.2 60.139,1142.23 60.19,1142.23L64.199,1142.23C64.249,1142.23 64.275,1142.2 64.275,1142.15C64.275,1141.78 64.249,1141.35 64.199,1140.84C64.135,1140.3 63.92,1139.85 63.553,1139.51C63.198,1139.17 62.742,1139 62.185,1139ZM71.682,1138.85C71.682,1138.97 71.618,1139.04 71.492,1139.04L69.687,1139.04C69.636,1139.04 69.611,1139.06 69.611,1139.11L69.611,1144.81C69.611,1145.41 69.725,1145.83 69.953,1146.07C70.193,1146.29 70.573,1146.41 71.093,1146.41L71.416,1146.41C71.542,1146.41 71.606,1146.47 71.606,1146.6L71.606,1147.4C71.606,1147.52 71.542,1147.59 71.416,1147.59L70.827,1147.6C70.003,1147.6 69.376,1147.44 68.946,1147.11C68.515,1146.77 68.3,1146.14 68.3,1145.23L68.3,1139.11C68.3,1139.06 68.274,1139.04 68.224,1139.04L67.274,1139.04C67.147,1139.04 67.084,1138.97 67.084,1138.85L67.084,1138.16C67.084,1138.04 67.147,1137.97 67.274,1137.97L68.224,1137.97C68.274,1137.97 68.3,1137.95 68.3,1137.9L68.3,1135.73C68.3,1135.6 68.363,1135.54 68.49,1135.54L69.421,1135.54C69.547,1135.54 69.611,1135.6 69.611,1135.73L69.611,1137.9C69.611,1137.95 69.636,1137.97 69.687,1137.97L71.492,1137.97C71.618,1137.97 71.682,1138.04 71.682,1138.16L71.682,1138.85ZM76.918,1147.74C75.993,1147.74 75.233,1147.49 74.638,1147C74.043,1146.49 73.682,1145.81 73.555,1144.96C73.479,1144.33 73.441,1143.6 73.441,1142.76C73.441,1141.92 73.479,1141.2 73.555,1140.59C73.669,1139.76 74.024,1139.09 74.619,1138.58C75.227,1138.07 75.993,1137.82 76.918,1137.82C77.843,1137.82 78.603,1138.07 79.198,1138.58C79.806,1139.09 80.167,1139.76 80.281,1140.59C80.357,1141.1 80.395,1141.82 80.395,1142.76C80.395,1143.72 80.357,1144.46 80.281,1144.96C80.167,1145.81 79.806,1146.49 79.198,1147C78.603,1147.49 77.843,1147.74 76.918,1147.74ZM76.918,1146.56C77.463,1146.56 77.919,1146.4 78.286,1146.07C78.666,1145.72 78.894,1145.27 78.97,1144.72C79.021,1144.25 79.046,1143.6 79.046,1142.78C79.046,1141.94 79.021,1141.3 78.97,1140.84C78.907,1140.28 78.685,1139.84 78.305,1139.51C77.938,1139.17 77.475,1139 76.918,1139C76.361,1139 75.898,1139.17 75.531,1139.51C75.164,1139.84 74.942,1140.28 74.866,1140.84C74.815,1141.3 74.79,1141.94 74.79,1142.78C74.79,1143.61 74.815,1144.26 74.866,1144.72C74.929,1145.27 75.145,1145.72 75.512,1146.07C75.892,1146.4 76.361,1146.56 76.918,1146.56ZM86.541,1137.84C87.428,1137.84 88.124,1138.12 88.631,1138.69C89.15,1139.25 89.41,1140.02 89.41,1140.99L89.41,1147.4C89.41,1147.52 89.347,1147.59 89.22,1147.59L88.251,1147.59C88.124,1147.59 88.061,1147.52 88.061,1147.4L88.061,1141.18C88.061,1140.52 87.89,1140 87.548,1139.61C87.206,1139.21 86.737,1139.02 86.142,1139.02C85.547,1139.02 85.065,1139.22 84.698,1139.62C84.343,1140.02 84.166,1140.55 84.166,1141.22L84.166,1147.4C84.166,1147.52 84.103,1147.59 83.976,1147.59L83.007,1147.59C82.88,1147.59 82.817,1147.52 82.817,1147.4L82.817,1138.16C82.817,1138.04 82.88,1137.97 83.007,1137.97L83.976,1137.97C84.103,1137.97 84.166,1138.04 84.166,1138.16L84.166,1138.9C84.166,1138.93 84.172,1138.95 84.185,1138.96C84.21,1138.97 84.236,1138.97 84.261,1138.94C84.755,1138.21 85.515,1137.84 86.541,1137.84Z"
      style="fill:currentColor;fill-opacity:0.9;fill-rule:nonzero;"/>
    <path
      d="M154.809,1167.37C153.497,1166.12 151.108,1163.67 149.205,1160.79C146.779,1157.11 145.218,1152.64 144.919,1151.78C144.892,1151.7 144.875,1151.65 144.869,1151.64L110,1151.42L110,1183.42L144.857,1183.41C144.864,1183.4 144.88,1183.35 144.907,1183.27C145.206,1182.41 146.767,1177.94 149.194,1174.26C151.097,1171.38 153.485,1168.93 154.798,1167.68L155.132,1167.68C155.079,1167.63 155.023,1167.58 154.964,1167.52C155.019,1167.47 155.071,1167.42 155.121,1167.37L154.809,1167.37Z"
      style="fill:#968587;"/>
    <path
      d="M359.809,1131.37C358.497,1130.12 356.108,1127.67 354.205,1124.79C351.779,1121.11 350.218,1116.64 349.919,1115.78C349.892,1115.7 349.875,1115.65 349.869,1115.64L110,1115.42L110,1147.42L349.857,1147.41C349.864,1147.4 349.88,1147.35 349.907,1147.27C350.206,1146.41 351.767,1141.94 354.194,1138.26C356.097,1135.38 358.485,1132.93 359.798,1131.68L360.132,1131.68C360.079,1131.63 360.023,1131.58 359.964,1131.52C360.019,1131.47 360.071,1131.42 360.121,1131.37L359.809,1131.37Z"
      style="fill:rgb(238,34,18);"/>
    <path
      d="M110,1080.09L111,1080.09L111,1079.09L110,1079.09L110,1080.09ZM0,1081.09L110,1081.09L110,1079.09L0,1079.09L0,1081.09ZM109,1080.09L109,1200.09L111,1200.09L111,1080.09L109,1080.09Z"
      style="fill:rgb(217,203,207);fill-opacity:0.8;fill-rule:nonzero;"/>
                    </g>
  <g class="bar mobile-bar" id="Penn">
                        <g class="mobile-bar-background" transform="matrix(1,0,0,1,0,1199.09)">
                            <rect x="0" y="0" width="390" height="120" style="fill:rgb(96,37,55);"/>
                        </g>
    <path
      d="M42.304,1254.27C43.318,1254.27 44.135,1254.61 44.755,1255.29C45.389,1255.96 45.705,1256.86 45.705,1257.97C45.705,1259.07 45.389,1259.96 44.755,1260.63C44.135,1261.29 43.318,1261.62 42.304,1261.62L39.473,1261.62C39.423,1261.62 39.397,1261.65 39.397,1261.7L39.397,1267.4C39.397,1267.52 39.334,1267.59 39.207,1267.59L38.238,1267.59C38.112,1267.59 38.048,1267.52 38.048,1267.4L38.048,1254.46C38.048,1254.33 38.112,1254.27 38.238,1254.27L42.304,1254.27ZM42.133,1260.5C42.805,1260.5 43.343,1260.27 43.748,1259.81C44.154,1259.36 44.356,1258.75 44.356,1257.99C44.356,1257.22 44.154,1256.6 43.748,1256.15C43.343,1255.68 42.805,1255.44 42.133,1255.44L39.473,1255.44C39.423,1255.44 39.397,1255.47 39.397,1255.52L39.397,1260.42C39.397,1260.47 39.423,1260.5 39.473,1260.5L42.133,1260.5ZM50.775,1266.56C51.256,1266.56 51.668,1266.44 52.01,1266.2C52.365,1265.95 52.618,1265.61 52.77,1265.19C52.808,1265.08 52.884,1265.03 52.998,1265.06L53.872,1265.23C53.935,1265.24 53.973,1265.27 53.986,1265.32C54.011,1265.36 54.018,1265.41 54.005,1265.46C53.789,1266.17 53.397,1266.72 52.827,1267.13C52.257,1267.54 51.567,1267.74 50.756,1267.74C49.831,1267.74 49.078,1267.5 48.495,1267.02C47.912,1266.52 47.551,1265.86 47.412,1265.02C47.361,1264.7 47.33,1264.33 47.317,1263.9C47.304,1263.47 47.298,1263.11 47.298,1262.84L47.298,1262.23C47.298,1261.58 47.323,1261.06 47.374,1260.65C47.475,1259.8 47.824,1259.12 48.419,1258.6C49.027,1258.08 49.787,1257.82 50.699,1257.82C51.674,1257.82 52.466,1258.1 53.074,1258.66C53.682,1259.21 54.024,1259.95 54.1,1260.86C54.138,1261.28 54.157,1262.04 54.157,1263.16C54.157,1263.29 54.094,1263.35 53.967,1263.35L48.723,1263.35C48.672,1263.35 48.647,1263.37 48.647,1263.42C48.647,1263.82 48.66,1264.25 48.685,1264.74C48.748,1265.28 48.964,1265.72 49.331,1266.07C49.711,1266.4 50.192,1266.56 50.775,1266.56ZM50.718,1259C50.148,1259 49.679,1259.17 49.312,1259.51C48.957,1259.84 48.748,1260.28 48.685,1260.82C48.66,1261.35 48.647,1261.8 48.647,1262.15C48.647,1262.2 48.672,1262.23 48.723,1262.23L52.732,1262.23C52.783,1262.23 52.808,1262.2 52.808,1262.15C52.808,1261.78 52.783,1261.35 52.732,1260.84C52.669,1260.3 52.453,1259.85 52.086,1259.51C51.731,1259.17 51.275,1259 50.718,1259ZM60.175,1257.84C61.061,1257.84 61.758,1258.12 62.265,1258.69C62.784,1259.25 63.044,1260.02 63.044,1260.99L63.044,1267.4C63.044,1267.52 62.98,1267.59 62.854,1267.59L61.885,1267.59C61.758,1267.59 61.695,1267.52 61.695,1267.4L61.695,1261.18C61.695,1260.52 61.524,1260 61.182,1259.61C60.84,1259.21 60.371,1259.02 59.776,1259.02C59.18,1259.02 58.699,1259.22 58.332,1259.62C57.977,1260.02 57.8,1260.55 57.8,1261.22L57.8,1267.4C57.8,1267.52 57.736,1267.59 57.61,1267.59L56.641,1267.59C56.514,1267.59 56.451,1267.52 56.451,1267.4L56.451,1258.16C56.451,1258.04 56.514,1257.97 56.641,1257.97L57.61,1257.97C57.736,1257.97 57.8,1258.04 57.8,1258.16L57.8,1258.9C57.8,1258.93 57.806,1258.95 57.819,1258.96C57.844,1258.97 57.869,1258.97 57.895,1258.94C58.389,1258.21 59.149,1257.84 60.175,1257.84ZM69.341,1257.84C70.227,1257.84 70.924,1258.12 71.431,1258.69C71.95,1259.25 72.21,1260.02 72.21,1260.99L72.21,1267.4C72.21,1267.52 72.146,1267.59 72.02,1267.59L71.051,1267.59C70.924,1267.59 70.861,1267.52 70.861,1267.4L70.861,1261.18C70.861,1260.52 70.69,1260 70.348,1259.61C70.006,1259.21 69.537,1259.02 68.942,1259.02C68.346,1259.02 67.865,1259.22 67.498,1259.62C67.143,1260.02 66.966,1260.55 66.966,1261.22L66.966,1267.4C66.966,1267.52 66.902,1267.59 66.776,1267.59L65.807,1267.59C65.68,1267.59 65.617,1267.52 65.617,1267.4L65.617,1258.16C65.617,1258.04 65.68,1257.97 65.807,1257.97L66.776,1257.97C66.902,1257.97 66.966,1258.04 66.966,1258.16L66.966,1258.9C66.966,1258.93 66.972,1258.95 66.985,1258.96C67.01,1258.97 67.035,1258.97 67.061,1258.94C67.555,1258.21 68.315,1257.84 69.341,1257.84Z"
      style="fill:currentColor;fill-opacity:0.9;fill-rule:nonzero;"/>
    <path
      d="M157.599,1287.37C156.287,1286.12 153.898,1283.67 151.995,1280.79C149.569,1277.11 148.008,1272.64 147.709,1271.78C147.682,1271.7 147.665,1271.65 147.659,1271.64L110,1271.42L110,1303.42L147.647,1303.41C147.654,1303.4 147.67,1303.35 147.697,1303.27C147.996,1302.41 149.557,1297.94 151.984,1294.26C153.887,1291.38 156.275,1288.93 157.588,1287.68L157.922,1287.68C157.869,1287.63 157.813,1287.58 157.754,1287.52C157.809,1287.47 157.861,1287.42 157.911,1287.37L157.599,1287.37Z"
      style="fill:#968587;"/>
    <path
      d="M352.809,1251.37C351.497,1250.12 349.108,1247.67 347.205,1244.79C344.779,1241.11 343.218,1236.64 342.919,1235.78C342.892,1235.7 342.875,1235.65 342.869,1235.64L110,1235.42L110,1267.42L342.857,1267.41C342.864,1267.4 342.88,1267.35 342.907,1267.27C343.206,1266.41 344.767,1261.94 347.194,1258.26C349.097,1255.38 351.485,1252.93 352.798,1251.68L353.132,1251.68C353.079,1251.63 353.023,1251.58 352.964,1251.52C353.019,1251.47 353.071,1251.42 353.121,1251.37L352.809,1251.37Z"
      style="fill:rgb(238,34,18);"/>
    <path
      d="M110,1200.09L111,1200.09L111,1199.09L110,1199.09L110,1200.09ZM0,1201.09L110,1201.09L110,1199.09L0,1199.09L0,1201.09ZM109,1200.09L109,1320.09L111,1319.09L111,1200.09L109,1200.09Z"
      style="fill:rgb(217,203,207);fill-opacity:0.8;fill-rule:nonzero;"/>
                    </g>
  <g class="bar mobile-bar" id="Yale">
                        <g class="mobile-bar-background" transform="matrix(1,0,0,1,0,1319.09)">
                            <rect x="0" y="0" width="390" height="120" style="fill:rgb(96,37,55);"/>
                        </g>
    <g transform="matrix(0.961072,0,0,1,5.50939,0)">
                            <path
                              d="M141.204,1407.37C139.892,1406.12 137.503,1403.67 135.6,1400.79C133.174,1397.11 131.613,1392.64 131.314,1391.78C131.287,1391.7 131.27,1391.65 131.264,1391.64L108.735,1391.64L108.735,1407.37L108.723,1407.37L108.723,1423.41L131.252,1423.41C131.259,1423.4 131.275,1423.35 131.302,1423.27C131.601,1422.41 133.162,1417.94 135.589,1414.26C137.492,1411.38 139.88,1408.93 141.193,1407.68L141.527,1407.68C141.474,1407.63 141.418,1407.58 141.359,1407.52C141.414,1407.47 141.466,1407.42 141.516,1407.37L141.204,1407.37Z"
                              style="fill:#968587;"/>
                        </g>
    <path
      d="M270.809,1371.37C269.497,1370.12 267.108,1367.67 265.205,1364.79C262.779,1361.11 261.218,1356.64 260.919,1355.78C260.892,1355.7 260.875,1355.65 260.869,1355.64L110,1355.42L110,1387.42L260.857,1387.41C260.864,1387.4 260.88,1387.35 260.907,1387.27C261.206,1386.41 262.767,1381.94 265.194,1378.26C267.097,1375.38 269.485,1372.93 270.798,1371.68L271.132,1371.68C271.079,1371.63 271.023,1371.58 270.964,1371.52C271.019,1371.47 271.071,1371.42 271.121,1371.37L270.809,1371.37Z"
      style="fill:rgb(238,34,18);"/>
    <rect x="0" y="1319.09" width="110" height="2"
          style="fill:rgb(217,203,207);fill-opacity:0.8;fill-rule:nonzero;"/>
    <path
      d="M43.91,1387.57C43.784,1387.57 43.72,1387.5 43.72,1387.38L43.72,1381.71C43.72,1381.66 43.714,1381.63 43.701,1381.62L40.414,1374.51L40.395,1374.44C40.395,1374.34 40.452,1374.29 40.566,1374.29L41.592,1374.29C41.694,1374.29 41.763,1374.34 41.801,1374.44L44.347,1380.12C44.36,1380.14 44.379,1380.16 44.404,1380.16C44.43,1380.16 44.449,1380.14 44.461,1380.12L47.007,1374.44C47.045,1374.34 47.115,1374.29 47.216,1374.29L48.242,1374.29C48.306,1374.29 48.35,1374.31 48.375,1374.36C48.413,1374.4 48.42,1374.45 48.394,1374.51L45.088,1381.62C45.076,1381.63 45.069,1381.66 45.069,1381.71L45.069,1387.38C45.069,1387.5 45.006,1387.57 44.879,1387.57L43.91,1387.57ZM53.099,1377.82C54.113,1377.82 54.904,1378.11 55.474,1378.69C56.057,1379.28 56.348,1380.05 56.348,1381.01L56.348,1387.4C56.348,1387.52 56.285,1387.59 56.158,1387.59L55.189,1387.59C55.063,1387.59 54.999,1387.52 54.999,1387.4L54.999,1386.71C54.999,1386.69 54.987,1386.67 54.961,1386.65C54.949,1386.64 54.93,1386.65 54.904,1386.67C54.626,1387.03 54.271,1387.29 53.84,1387.47C53.41,1387.65 52.928,1387.74 52.396,1387.74C51.598,1387.74 50.914,1387.52 50.344,1387.09C49.787,1386.66 49.508,1385.96 49.508,1384.98C49.508,1383.97 49.831,1383.2 50.477,1382.68C51.136,1382.15 52.029,1381.89 53.156,1381.89L54.923,1381.89C54.974,1381.89 54.999,1381.86 54.999,1381.81L54.999,1381.09C54.999,1380.44 54.835,1379.94 54.505,1379.57C54.189,1379.19 53.714,1379 53.08,1379C52.586,1379 52.175,1379.12 51.845,1379.38C51.516,1379.62 51.32,1379.94 51.256,1380.35C51.244,1380.46 51.174,1380.52 51.047,1380.52L50.002,1380.46C49.939,1380.46 49.888,1380.44 49.85,1380.4C49.825,1380.37 49.819,1380.32 49.831,1380.27C49.92,1379.54 50.262,1378.95 50.857,1378.5C51.465,1378.05 52.213,1377.82 53.099,1377.82ZM52.662,1386.56C53.296,1386.56 53.84,1386.39 54.296,1386.05C54.765,1385.69 54.999,1385.2 54.999,1384.58L54.999,1383.04C54.999,1382.99 54.974,1382.97 54.923,1382.97L53.251,1382.97C52.529,1382.97 51.953,1383.14 51.522,1383.48C51.092,1383.81 50.876,1384.29 50.876,1384.91C50.876,1385.46 51.041,1385.88 51.37,1386.16C51.7,1386.43 52.13,1386.56 52.662,1386.56ZM58.931,1387.59C58.804,1387.59 58.741,1387.52 58.741,1387.4L58.741,1374.48C58.741,1374.35 58.804,1374.29 58.931,1374.29L59.9,1374.29C60.026,1374.29 60.09,1374.35 60.09,1374.48L60.09,1387.4C60.09,1387.52 60.026,1387.59 59.9,1387.59L58.931,1387.59ZM65.962,1386.56C66.443,1386.56 66.855,1386.44 67.197,1386.2C67.552,1385.95 67.805,1385.61 67.957,1385.19C67.995,1385.08 68.071,1385.03 68.185,1385.06L69.059,1385.23C69.122,1385.24 69.16,1385.27 69.173,1385.32C69.198,1385.36 69.205,1385.41 69.192,1385.46C68.977,1386.17 68.584,1386.72 68.014,1387.13C67.444,1387.54 66.754,1387.74 65.943,1387.74C65.018,1387.74 64.265,1387.5 63.682,1387.02C63.099,1386.52 62.738,1385.86 62.599,1385.02C62.548,1384.7 62.517,1384.33 62.504,1383.9C62.491,1383.47 62.485,1383.11 62.485,1382.84L62.485,1382.23C62.485,1381.58 62.51,1381.06 62.561,1380.65C62.662,1379.8 63.011,1379.12 63.606,1378.6C64.214,1378.08 64.974,1377.82 65.886,1377.82C66.861,1377.82 67.653,1378.1 68.261,1378.66C68.869,1379.21 69.211,1379.95 69.287,1380.86C69.325,1381.28 69.344,1382.04 69.344,1383.16C69.344,1383.29 69.281,1383.35 69.154,1383.35L63.91,1383.35C63.859,1383.35 63.834,1383.37 63.834,1383.42C63.834,1383.82 63.847,1384.25 63.872,1384.74C63.935,1385.28 64.15,1385.72 64.518,1386.07C64.898,1386.4 65.379,1386.56 65.962,1386.56ZM65.905,1379C65.335,1379 64.866,1379.17 64.499,1379.51C64.144,1379.84 63.935,1380.28 63.872,1380.82C63.847,1381.35 63.834,1381.8 63.834,1382.15C63.834,1382.2 63.859,1382.23 63.91,1382.23L67.919,1382.23C67.97,1382.23 67.995,1382.2 67.995,1382.15C67.995,1381.78 67.97,1381.35 67.919,1380.84C67.856,1380.3 67.64,1379.85 67.273,1379.51C66.918,1379.17 66.462,1379 65.905,1379Z"
      style="fill:currentColor;fill-opacity:0.9;fill-rule:nonzero;"/>
    <g transform="matrix(1,0,0,1,0,119.996)">
                            <path
                              d="M110,1200.09L111,1200.09L111,1199.09L110,1199.09L110,1200.09ZM0,1201.09L110,1201.09L110,1199.09L0,1199.09L0,1201.09ZM109,1200.09L108.752,1319.09L110.631,1319.09L111,1200.09L109,1200.09Z"
                              style="fill:rgb(217,203,207);fill-opacity:0.8;fill-rule:nonzero;"/>
                        </g>
                    </g>
</svg>
