<svg width="1664" height="261" viewBox="0 0 1664 261" fill="none" xmlns="http://www.w3.org/2000/svg">
  <path fill-rule="evenodd" clip-rule="evenodd"
        d="M1538.7 84.5C1538.7 93.9593 1534.33 105.351 1526.69 117.719C1519.16 129.921 1508.99 142.215 1498.62 153.28C1488.28 164.314 1477.91 173.948 1470.11 180.831C1467 183.577 1464.31 185.877 1462.2 187.647C1460.1 185.877 1457.4 183.577 1454.3 180.831C1446.5 173.948 1436.13 164.314 1425.79 153.28C1415.42 142.215 1405.25 129.921 1397.71 117.719C1390.08 105.351 1385.7 93.9593 1385.7 84.5C1385.7 42.2502 1419.95 8 1462.2 8C1504.45 8 1538.7 42.2502 1538.7 84.5ZM1467.6 193.562C1486.23 177.893 1546.7 123.981 1546.7 84.5C1546.7 37.8319 1508.87 0 1462.2 0C1415.54 0 1377.7 37.8319 1377.7 84.5C1377.7 124.197 1438.84 178.485 1457.11 193.817C1438.35 209.422 1398.99 228.5 1349.14 228.5H0.498047V236.5H1349.14C1349.26 236.5 1349.38 236.5 1349.5 236.5C1401.23 236.409 1442.4 216.586 1462.51 199.733C1482.61 216.584 1523.76 236.403 1575.5 236.499V236.5H1662.5V228.5H1575.87V228.499C1525.74 228.499 1486.24 209.213 1467.6 193.562Z"
        fill="url(#paint0_linear_158_3390)"/>
  <rect x="1605.5" y="203" width="58" height="58" rx="29" fill="#EE2212"/>
  <path fill-rule="evenodd" clip-rule="evenodd"
        d="M1630.85 216.421H1633.75C1633.89 217.656 1634.14 218.912 1634.5 220.17C1635.64 224.162 1637.71 227.513 1640.23 229.845C1641.15 230.701 1642.13 231.419 1643.15 231.981C1642.13 232.543 1641.15 233.262 1640.23 234.118C1637.71 236.449 1635.64 239.8 1634.5 243.792C1634.14 245.064 1633.89 246.332 1633.75 247.58H1630.85V244.227H1630.93C1631.03 243.775 1631.15 243.323 1631.28 242.871C1632.51 238.545 1634.75 234.755 1637.61 231.981C1634.75 229.208 1632.51 225.417 1631.28 221.091C1631.15 220.652 1631.04 220.213 1630.94 219.774H1630.85V216.421Z"
        fill="white"/>
  <defs>
    <linearGradient id="paint0_linear_158_3390" x1="-2.70703" y1="115.029" x2="1665.7" y2="115.029"
                    gradientUnits="userSpaceOnUse">
      <stop stop-color="white"/>
      <stop offset="1" stop-color="#E62325"/>
    </linearGradient>
  </defs>
</svg>
