<svg width="214" height="66" viewBox="0 0 214 66" fill="none" xmlns="http://www.w3.org/2000/svg">
  <path
    d="M21.522 0.188393C14.5284 0.188393 10.7982 0.65519 9.16578 0.65519C6.44584 0.65519 4.03691 0.577065 1.62697 0.577065C0.306376 0.577065 0.0732422 0.655312 0.0732422 1.19911C0.0732422 2.13097 0.383704 2.20987 3.88179 2.20987C6.05674 2.20987 7.30158 2.90934 7.30158 9.04858V44.7977C7.30158 45.9633 7.14514 46.1189 3.64841 46.1189C1.93845 46.1189 1.47172 46.2734 1.47172 47.0515C1.47172 47.8284 2.01584 47.906 2.79394 47.906C5.28013 47.906 6.99007 47.5955 10.2537 47.5955C13.673 47.5955 16.9375 48.3718 20.2018 48.3718C31.0047 48.3718 38.2326 44.254 38.2326 35.5496C38.2326 28.7885 33.646 26.1456 29.9935 24.2794C28.4392 23.5025 26.9624 23.1141 26.9624 22.9592C26.9624 22.7267 28.6723 21.8712 30.1498 20.8606C32.6372 19.1513 35.9788 16.43 35.9788 10.9126C35.9788 5.3946 31.6266 0.188393 21.522 0.188393ZM154.681 0.277275C154.276 0.277275 151.707 1.42646 146.435 1.76451C145.286 1.83201 144.744 1.76377 144.744 2.575C144.744 3.31936 145.421 3.45488 146.638 3.45488C149.679 3.45488 150.085 3.45456 150.085 7.71252V44.9579C150.085 46.1748 148.935 46.1073 146.164 46.1073C144.541 46.1073 144.474 46.514 144.474 46.9872C144.474 47.5278 144.608 47.663 146.164 47.663C147.11 47.663 150.693 47.5282 152.991 47.5282C154.209 47.5282 155.696 47.663 156.71 47.663C159.143 47.663 159.616 47.6628 159.616 46.9872C159.616 46.4453 159.751 46.0399 156.371 46.0399C155.154 46.0399 154.681 45.2964 154.681 39.6866C154.681 37.7254 155.019 32.3861 155.019 6.63111C155.019 4.60366 155.357 2.16895 155.357 1.35772C155.357 0.613991 155.019 0.277275 154.681 0.277275ZM98.5615 0.344643C97.9527 0.344643 93.964 1.831 89.0978 1.831C88.3541 1.831 88.2189 2.10164 88.2189 2.77725C88.2189 3.25162 88.4893 3.45499 91.2599 3.45499C93.0848 3.45499 93.626 4.06346 93.626 8.86213C93.626 23.1255 93.4229 43.1338 93.4229 45.0938C93.4229 46.1075 92.8148 46.1074 90.5167 46.1074C88.8943 46.1074 88.5568 46.4454 88.5568 46.9873C88.5568 47.5954 88.9624 47.663 90.5167 47.663C91.463 47.663 93.9644 47.5283 96.2637 47.5283C98.4268 47.5283 101.535 47.663 102.549 47.663C104.036 47.663 104.374 47.6629 104.374 46.9873C104.374 46.4454 104.104 46.1074 102.549 46.1074C98.3582 46.1074 98.494 46.1079 98.494 42.9317V38.6731C98.494 38.0644 99.4401 37.5906 100.521 36.9144C101.67 36.1706 102.616 35.4954 102.887 35.4954C103.292 35.4954 106.133 39.7548 108.971 42.9991C111.81 46.2434 112.419 47.9335 113.636 47.9335C114.583 47.9335 116.61 47.8661 117.421 47.8661C118.029 47.8661 118.908 47.9335 119.719 47.9335C121.206 47.9335 121.679 47.7982 121.679 47.3251C121.679 46.7845 121.139 46.4453 119.517 46.4453C117.219 46.4453 115.056 43.1336 112.756 40.3624C108.025 34.6838 106.809 33.4001 106.809 32.7913C106.809 32.3182 111 29.3448 114.38 26.0317C116.475 24.0043 118.773 21.0982 118.773 20.4889C118.773 20.2857 118.503 20.2184 117.962 20.2184C117.152 20.2184 113.23 20.4205 112.351 20.4205C111.54 20.4205 110.256 20.2184 109.581 20.2184C108.702 20.2184 108.364 20.3533 108.364 20.8951C108.364 21.5039 108.702 21.6382 109.715 21.6382C112.689 21.6382 112.892 21.7738 112.892 22.855C112.892 24.2744 112.284 25.4237 109.648 27.9243C107.485 29.953 100.454 36.1712 98.7636 36.1712C98.5611 36.1712 98.494 35.9682 98.494 35.6976C98.494 24.6797 98.8983 17.1093 98.8983 6.83451C98.8983 4.67144 99.0341 1.83087 99.0341 0.952766C99.0341 0.54715 98.899 0.344643 98.5615 0.344643ZM19.1895 2.05362C26.2619 2.05362 29.5262 9.51482 29.5262 13.401C29.5262 19.5402 26.9616 21.0169 24.7079 22.7269C24.7079 22.7269 21.4431 22.2601 16.7032 22.2601C14.837 22.2601 13.8273 22.415 13.8273 21.1713V4.3079C13.8273 2.75356 14.061 2.05362 19.1895 2.05362ZM53.2713 19.542C47.1202 19.542 40.6978 25.2206 40.6978 34.7516C40.6978 46.0401 48.9451 48.745 54.4875 48.745C59.963 48.745 65.7088 44.485 65.7088 44.1475C65.7088 44.0119 65.506 43.6065 65.1679 43.6065C64.7629 43.6065 62.3294 45.2295 57.8683 45.2295C52.7303 45.2295 45.4966 42.7281 45.4966 33.3996C45.4966 31.8453 45.7002 31.5071 46.7827 31.4396C54.4875 30.9665 61.2473 29.4803 63.0048 29.0734C64.831 28.6678 65.7772 28.3978 65.7772 28.1272C65.7772 27.5866 64.6948 25.9639 63.5449 24.6126C61.1118 21.7733 56.7868 19.542 53.2713 19.542ZM132.091 19.542C125.94 19.542 119.517 25.2206 119.517 34.7516C119.517 46.0401 127.764 48.745 133.307 48.745C138.782 48.745 144.528 44.485 144.528 44.1475C144.528 44.0119 144.325 43.6065 143.987 43.6065C143.582 43.6065 141.148 45.2295 136.687 45.2295C131.549 45.2295 124.317 42.7281 124.317 33.3996C124.317 31.8453 124.52 31.5071 125.601 31.4396C133.307 30.9665 140.066 29.4803 141.824 29.0734C143.649 28.6678 144.596 28.3978 144.596 28.1272C144.596 27.5866 143.515 25.9639 142.365 24.6126C139.931 21.7733 135.606 19.542 132.091 19.542ZM171.08 19.542C164.928 19.542 158.506 25.2206 158.506 34.7516C158.506 46.0401 166.753 48.745 172.296 48.745C177.771 48.745 183.517 44.485 183.517 44.1475C183.517 44.0119 183.314 43.6065 182.976 43.6065C182.571 43.6065 180.138 45.2295 175.676 45.2295C170.539 45.2295 163.306 42.7281 163.306 33.3996C163.306 31.8453 163.509 31.5071 164.59 31.4396C172.296 30.9665 179.056 29.4803 180.814 29.0734C182.639 28.6678 183.585 28.3978 183.585 28.1272C183.585 27.5866 182.504 25.9639 181.355 24.6126C178.922 21.7733 174.594 19.542 171.08 19.542ZM76.7945 20.0146C75.712 20.0146 74.4275 20.3525 73.3463 20.3525C71.9945 20.3525 70.7099 20.2168 68.4118 20.2168C67.2618 20.2168 67.3298 20.4205 67.3298 21.2324C67.3298 21.9761 67.3294 21.9081 68.5475 21.9081C72.3324 21.9081 72.1968 22.0433 72.1968 26.6395V45.1616C72.1968 46.1078 71.9944 46.1752 69.2232 46.1752C67.6002 46.1752 67.5328 46.3099 67.5328 46.9867C67.5328 47.663 67.6676 47.6625 69.2232 47.6625C70.1695 47.6625 72.4681 47.3246 74.7661 47.3246C76.9298 47.3246 81.4584 47.6625 82.4046 47.6625C84.162 47.6625 84.2298 47.7305 84.2298 46.9867C84.2298 46.3774 84.162 46.1752 82.4046 46.1752C77.4028 46.1752 77.2006 46.1746 77.2006 42.8628V28.9369C77.2006 26.0982 78.6868 24.476 82.6067 24.476C85.9872 24.476 86.799 27.2474 87.7452 27.2474C88.1508 27.2474 89.2316 24.2734 89.2316 23.5971C89.2316 21.8403 86.1226 20.3521 84.9045 20.3521C81.7277 20.3521 78.5522 23.8676 77.5384 23.8676C77.2678 23.8676 77.2005 23.3947 77.2005 22.7866C77.2005 22.5835 77.3353 21.0964 77.3353 20.7583C77.3353 20.2164 77.0651 20.0146 76.7945 20.0146ZM211.766 20.082C210.82 20.082 208.995 20.3525 207.981 20.3525C206.155 20.3525 204.939 20.2177 203.114 20.2177C201.897 20.2177 201.694 20.2173 201.694 21.0966C201.694 21.7728 201.965 21.7734 204.061 21.7734C206.358 21.7734 206.357 22.1785 206.357 24.2059C206.357 25.1522 203.925 32.1832 202.303 37.0494C201.221 40.2274 200.816 41.1733 200.343 41.1733C200.072 41.1733 199.261 40.0243 198.719 38.605C194.664 28.194 192.906 25.8278 192.906 23.8678C192.906 22.3135 193.312 21.9079 194.934 21.9079C196.353 21.9079 196.624 21.8402 196.624 21.2321C196.624 20.4871 196.353 20.2175 194.934 20.2175C192.771 20.2175 190.404 20.4196 188.512 20.4196C186.89 20.4196 186.417 20.2849 184.525 20.2849C183.308 20.2849 183.106 20.6234 183.106 21.2321C183.106 21.8402 183.173 21.9079 184.525 21.9079C185.741 21.9079 186.215 22.2464 187.905 26.3013C191.623 35.0892 197.029 47.5945 197.029 48.3383C197.029 50.3657 191.218 58.3416 188.783 61.383C186.485 64.2904 183.308 64.696 183.308 65.1016C183.308 65.4397 183.984 65.7773 185.133 65.7773C186.62 65.7773 187.093 65.2368 189.12 64.9669C190.608 64.7637 191.42 64.6959 192.163 63.2091C194.326 58.7473 197.368 53.2716 201.627 42.9296C206.967 29.9524 209.942 21.8401 211.428 21.8401C212.24 21.8401 213.185 21.5019 213.185 20.8938C213.185 20.1495 212.848 20.082 211.766 20.082ZM52.595 20.9618C55.7049 20.9618 59.6925 25.9631 59.6925 27.6531C59.6925 28.0587 59.6257 28.1938 58.882 28.3288C53.8121 29.1401 50.1618 30.0202 46.6469 30.0202C45.835 30.0202 45.8353 29.9521 45.8353 29.6139C45.8353 28.6665 47.4583 20.9618 52.595 20.9618ZM131.413 20.9618C134.524 20.9618 138.512 25.9631 138.512 27.6531C138.512 28.0587 138.444 28.1938 137.7 28.3288C132.63 29.1401 128.98 30.0202 125.466 30.0202C124.655 30.0202 124.655 29.9521 124.655 29.6139C124.655 28.6665 126.276 20.9618 131.413 20.9618ZM170.402 20.9618C173.512 20.9618 177.501 25.9631 177.501 27.6531C177.501 28.0587 177.433 28.1938 176.689 28.3288C171.619 29.1401 167.97 30.0202 164.454 30.0202C163.643 30.0202 163.643 29.9521 163.643 29.6139C163.643 28.6665 165.264 20.9618 170.402 20.9618ZM16.6309 23.7353C25.1013 23.7353 30.8518 29.1757 30.8518 36.1705C30.8518 42.9316 26.5004 46.974 20.5943 46.974C18.1068 46.974 15.6209 46.4296 14.7653 45.4965C14.0665 44.719 13.8327 40.3675 13.8327 39.6675V25.7553C13.8327 24.046 14.4546 23.7353 16.6309 23.7353ZM55.1687 55.4608C53.5719 55.4608 52.24 56.4241 52.24 58.0204C52.24 61.0541 56.2371 60.5132 56.2371 62.2019C56.2371 62.8744 55.7223 63.4547 54.6805 63.4547C53.9811 63.4547 53.0976 63.1259 52.3583 62.6247L51.6991 63.7858C52.4379 64.2996 53.4399 64.7887 54.6805 64.7887C56.4086 64.7887 57.8465 63.6791 57.8465 62.1491C57.8465 59.0748 53.8495 59.9994 53.8495 57.954C53.8495 57.2815 54.2981 56.7938 55.1688 56.7938C55.9469 56.7938 56.5533 57.0578 57.2264 57.4003L57.7937 56.2655C57.0294 55.7912 56.1181 55.4608 55.1687 55.4608ZM87.0342 55.4608C84.3168 55.4608 83.1037 57.4005 83.1037 60.118C83.1037 62.7035 84.3037 64.7887 87.0342 64.7887C89.7647 64.7887 90.9658 62.7035 90.9658 60.118C90.9658 57.4005 89.7516 55.4608 87.0342 55.4608ZM108.217 55.4608C105.5 55.4608 104.167 57.4135 104.167 60.1316C104.167 62.9015 105.382 64.7887 108.165 64.7887C109.378 64.7887 110.513 64.2864 111.436 63.4421L110.632 62.4138C109.893 63.0869 109.049 63.4548 108.244 63.4548C106.568 63.4548 105.776 62.2554 105.776 60.118C105.776 57.9943 106.621 56.7938 108.217 56.7938C109.075 56.7938 109.708 57.0976 110.407 57.6776L111.225 56.622C110.275 55.8432 109.339 55.4608 108.217 55.4608ZM142.563 55.4608C139.845 55.4608 138.632 57.4005 138.632 60.118C138.632 62.7035 139.832 64.7887 142.563 64.7887C145.293 64.7887 146.494 62.7035 146.494 60.118C146.494 57.4005 145.28 55.4608 142.563 55.4608ZM16.3284 55.5926L14.8108 55.7518V64.6432H16.381V58.575H16.4074L20.2198 64.6432H21.6182V55.6063H20.048V61.5437H20.009L16.3284 55.5926ZM36.4679 55.5926V64.6432H41.956L42.0751 63.3102H38.0381V60.7516H41.4287V59.4187H38.0381V56.9256H41.8505V55.5926H36.4679ZM92.9853 55.5926V64.6432H94.5547V60.7516H97.8798V59.4187H94.5547V56.9256H98.2616V55.5926H92.9853ZM117.255 55.5926L115.422 55.7381L112.242 64.6432H113.707L114.458 62.4655H118.099L118.851 64.6432H120.462L117.255 55.5926ZM132.343 55.5926V64.6432H133.913V60.7516H137.238V59.4187H133.913V56.9256H137.62V55.5926H132.343ZM157.061 55.5926L155.544 55.7518V64.6432H157.113V58.575H157.14L160.952 64.6432H162.35V55.6063H160.781V61.5437H160.741L157.061 55.5926ZM172.188 55.5926L170.355 55.7381L167.175 64.6432H168.64L169.392 62.4655H173.032L173.784 64.6432H175.394L172.188 55.5926ZM5.94236 55.6063V61.5026C5.94236 63.5344 7.06333 64.7887 9.28014 64.7887C11.4826 64.7887 12.6043 63.5348 12.6043 61.4899V55.6063H11.0341V61.5954C11.0341 62.7172 10.5602 63.4547 9.2803 63.4547C7.9872 63.4547 7.51184 62.7167 7.51184 61.5817V55.6063H5.94236ZM23.8544 55.6063V64.6432H25.4238V55.6063H23.8544ZM26.9666 55.6063L30.0798 64.6432H31.8073L34.9342 55.6063H33.3902L31.6628 60.6589C31.6628 60.6589 31.4914 61.1727 31.0426 62.7165H30.9635C30.5279 61.1727 30.3571 60.6453 30.3571 60.6453L28.6286 55.6063H26.9666ZM44.1525 55.6063V64.6432H45.7218V61.028H46.4738C47.0412 61.028 47.3711 61.5567 47.6348 62.0973L48.8877 64.6431H50.6162L48.8877 61.3845C48.7827 61.1732 48.624 60.9353 48.334 60.7634V60.738C49.5209 60.2893 50.0361 59.3662 50.0361 58.285C50.0361 56.715 49.0462 55.6063 47.0538 55.6063H44.1525ZM59.7159 55.6063V64.6432H61.2852V55.6063H59.7159ZM63.0918 55.6063V56.952H65.4804V64.6432H67.0497V56.9382H69.3319L69.451 55.6063H63.0918ZM70.4784 55.6063L73.3279 60.777V64.6432H74.8972V60.777L77.7478 55.6063H76.0184L74.7391 58.1794C74.7391 58.1794 74.5808 58.5084 74.1327 59.5114H74.0937C73.6181 58.5083 73.4463 58.1794 73.4463 58.1794L72.2461 55.6063H70.4784ZM121.733 55.6063V64.6432H127.076L127.195 63.3102H123.304V55.6063H121.733ZM128.724 55.6063V64.6432H130.293V55.6063H128.724ZM147.848 55.6063V64.6432H149.418V61.028H150.17C150.737 61.028 151.068 61.5567 151.331 62.0973L152.584 64.6431H154.313L152.584 61.3845C152.479 61.1732 152.321 60.9353 152.031 60.7634V60.738C153.217 60.2893 153.733 59.3662 153.733 58.285C153.733 56.715 152.743 55.6063 150.75 55.6063H147.848ZM164.323 55.6063V64.6432H165.892V55.6063H164.323ZM87.032 56.7937C88.5888 56.7937 89.3405 58.1523 89.3405 60.1179C89.3405 62.0835 88.5763 63.4547 87.032 63.4547C85.4758 63.4547 84.7108 62.0828 84.7108 60.1041C84.7108 58.1386 85.4758 56.7937 87.032 56.7937ZM142.559 56.7937C144.116 56.7937 144.868 58.1523 144.868 60.1179C144.868 62.0835 144.103 63.4547 142.559 63.4547C141.003 63.4547 140.238 62.0828 140.238 60.1041C140.238 58.1386 141.003 56.7937 142.559 56.7937ZM45.7217 56.9519H47.0147C48.0834 56.9519 48.4268 57.4533 48.4268 58.2977C48.4268 59.1551 47.991 59.7088 47.041 59.7088H45.7217V56.9519ZM149.418 56.9519H150.711C151.78 56.9519 152.123 57.4533 152.123 58.2977C152.123 59.1551 151.687 59.7088 150.737 59.7088H149.418V56.9519ZM116.246 57.1892H116.273C116.893 59.0623 116.998 59.3523 116.998 59.3523L117.697 61.3445H114.834L115.533 59.3523C115.533 59.3523 115.639 59.0624 116.246 57.1892ZM171.18 57.1892H171.206C171.826 59.0623 171.933 59.3523 171.933 59.3523L172.631 61.3445H169.768L170.468 59.3523C170.468 59.3523 170.573 59.0624 171.18 57.1892Z"
    fill="#00326F"/>
</svg>
