<svg width="272" height="136" viewBox="0 0 272 136" fill="none" xmlns="http://www.w3.org/2000/svg">
  <path fill-rule="evenodd" clip-rule="evenodd"
        d="M106.529 53.5241C109.783 53.5241 111.638 54.0682 113.132 55.1136C114.668 56.1971 115.478 57.8224 115.478 60.0822C115.478 64.0619 111.724 66.0049 109.561 66.5481V66.6352C113.674 67.223 117.382 69.6664 117.382 74.234C117.382 77.4379 115.799 79.7038 113.181 81.1922C110.87 82.4597 107.979 82.9125 104.547 82.9125H94.1436V81.8685C97.9463 81.5988 98.3049 81.2793 98.3049 76.3577V60.0822C98.2597 55.1527 97.9872 54.8397 94.4128 54.5695V53.5241H106.529ZM102.099 66.3174H104.947C109.286 66.3174 111.456 64.2841 111.456 60.5788C111.456 57.8662 110.331 54.8397 104.99 54.8397C103.503 54.8397 102.869 54.9748 102.504 55.1136C102.238 55.2012 102.099 55.3796 102.099 56.2852V66.3174ZM102.099 67.633V77.4874C102.099 80.5172 102.689 81.5541 105.99 81.5113C109.783 81.5113 112.998 79.6116 112.998 74.8167C112.998 69.8919 109.379 67.633 104.722 67.633H102.099ZM133.112 76.3577C133.112 81.2793 133.473 81.5988 137.184 81.8685V82.9125H125.153V81.8685C128.953 81.5988 129.315 81.2793 129.315 76.3577V60.0832C129.315 55.1527 128.953 54.8397 125.334 54.5695V53.5241H136.822C139.71 53.5241 142.292 53.9331 143.961 55.0651C145.766 56.1971 146.948 58.2272 146.948 60.8485C146.948 64.6018 144.638 67.2711 140.975 68.7594C141.793 70.1192 143.646 73.2408 144.999 75.2267C146.625 77.6272 147.577 78.8406 148.801 80.1995C149.748 81.3287 150.559 82.0549 152.192 82.4597L152.099 83.3225H151.465C146.27 83.1827 144.684 81.5988 142.969 79.1174C141.567 77.0727 139.666 73.7331 138.398 71.6075C137.68 70.4369 136.957 69.9841 135.554 69.9841H133.112V76.3577ZM133.112 68.6718H135.735C137.59 68.6718 139.032 68.4431 140.258 67.4504C142.2 65.9126 142.876 63.7013 142.876 61.4802C142.876 56.738 139.438 54.8397 136.052 54.8397C134.514 54.8397 133.881 54.931 133.516 55.0651C133.248 55.1527 133.112 55.3795 133.112 56.2861V68.6718ZM186.911 67.8109C186.911 77.2172 180.357 83.5927 171.723 83.5927C163.178 83.5927 157.122 77.0727 157.122 68.5386C157.122 60.9408 162.455 52.8491 172.534 52.8491C180.357 52.8491 186.911 58.9074 186.911 67.8109ZM171.363 54.3436C166.026 54.3436 161.505 58.728 161.505 67.223C161.505 75.9496 166.071 82.0978 172.672 82.0978C178.095 82.0978 182.529 77.8973 182.529 69.4871C182.529 59.7207 177.824 54.3436 171.363 54.3436ZM202.364 54.5695L200.963 54.7484C198.929 55.0185 198.658 55.4233 199.285 57.4167L205.393 76.6726H205.481L212.711 53.9821H213.8L221.979 76.6298H222.076C223.924 70.9292 226.546 61.3926 227.32 58.1401C227.949 55.5189 227.715 54.9729 225.69 54.7484L224.378 54.5695V53.5241H233.959V54.5695C230.977 54.931 230.662 55.1136 229.171 59.2237C228.766 60.3562 225.461 70.7513 221.667 83.1827H220.441L212.309 61.074L212.218 61.1662L204.85 83.1827H203.585L195.765 58.9064C194.543 55.1527 193.866 54.8397 191.286 54.5695V53.5241H202.364V54.5695ZM266.873 83.2303H265.702L246.076 59.4082H245.981V70.9293C245.981 75.6795 246.165 78.1228 246.345 79.5208C246.576 81.1013 247.789 81.732 250.778 81.8685V82.9125H239.927V81.8685C242.417 81.7768 243.586 81.1013 243.818 79.5208C243.993 78.1228 244.179 75.6795 244.179 70.9293V61.1234C244.179 57.8662 244.134 57.138 243.317 56.1025C242.453 55.0185 241.24 54.7055 239.341 54.5695V53.5241H245.934L264.972 76.3116H265.061V65.5041C265.061 60.7572 264.885 58.3228 264.705 56.9159C264.477 55.3372 263.25 54.7055 260.272 54.5695V53.5241H271.117V54.5695C268.634 54.6617 267.457 55.3372 267.231 56.9159C267.047 58.3228 266.873 60.7572 266.873 65.5041V83.2303Z"
        fill="#1A1919"/>
  <path fill-rule="evenodd" clip-rule="evenodd"
        d="M27.29 17.9205C27.4382 18.1633 27.6308 18.4768 27.9038 18.9282C28.6178 20.1092 29.7234 24.561 31.151 26.0361C31.9126 25.5197 33.2306 24.8542 33.9789 24.5854C33.8057 24.2964 33.0046 22.9267 32.1145 21.7618C30.3998 19.486 29.1694 18.2711 29.0311 18.0744C28.5674 18.0678 27.7804 18.0918 27.29 17.9205ZM40.1539 23.8474C40.4938 21.5175 39.7181 17.6493 39.2606 16.6811C38.6802 16.5338 38.0805 16.3295 37.5873 16.0928C37.5232 16.3893 37.0855 17.9675 36.9401 20.2918C36.8624 21.5372 36.8949 23.4322 37.1241 23.8474C37.8617 23.774 39.0968 23.7485 40.1539 23.8474ZM46.3567 33.5563C45.6963 33.0122 44.8312 32.7735 44.5003 33.0122L44.512 33.1242C44.545 33.5086 44.4243 33.8903 44.1764 34.1859C43.9285 34.4816 43.5736 34.6669 43.1894 34.7015C42.9989 34.7182 42.807 34.6972 42.6247 34.6397C42.4423 34.5822 42.2731 34.4893 42.1267 34.3663C41.9803 34.2434 41.8595 34.0927 41.7714 33.923C41.6833 33.7533 41.6295 33.5679 41.6131 33.3774V33.3148C41.0906 33.1501 40.257 33.4382 40.1426 33.3934C40.0758 33.3619 39.7223 31.8806 40.1831 31.6943C41.438 31.1826 45.4812 30.9327 46.6556 33.2028C46.7935 33.4782 46.7078 33.8439 46.3567 33.5563ZM40.1742 37.6682C39.9191 38.4101 37.2917 38.6473 36.8087 37.6819C36.6181 37.2988 36.3536 36.3103 36.7099 36.5151C37.2945 36.8554 39.4084 36.6148 39.8084 36.5151C40.1615 36.4247 39.9308 35.9323 40.1492 35.9926C40.41 36.0651 40.41 36.9655 40.1742 37.6682ZM36.0034 33.3087C35.994 33.4998 35.9471 33.6871 35.8652 33.86C35.7833 34.0328 35.668 34.1878 35.5261 34.316C35.3841 34.4443 35.2182 34.5432 35.038 34.6072C34.8577 34.6711 34.6665 34.6989 34.4755 34.6888C33.673 34.6507 33.0578 33.9606 33.0978 33.1628L33.111 33.0028C32.9872 32.8121 32.3329 32.6003 31.361 33.1901C30.8729 33.4904 30.3255 33.2842 31.1732 32.549C32.0745 31.7667 32.9288 31.3135 33.6824 31.2193L33.7069 31.2137C34.9768 31.1257 36.6275 31.3855 37.399 31.6999C37.7195 31.8303 37.3867 33.4024 37.3133 33.384C37.0511 33.3252 36.4797 33.0842 36.0001 33.1939L36.0034 33.3087ZM51.2448 37.5732C51.2448 30.5646 45.7537 25.0707 38.7409 25.0707C31.835 25.0707 26.2361 30.6677 26.2361 37.5732C26.2361 37.9036 26.31 38.5729 26.4192 39.2498C30.0157 38.4157 34.7852 38.5484 36.9043 40.2283C40.3342 38.2721 45.2769 38.1493 48.897 40.258C49.6162 39.8984 50.366 39.6386 51.1219 39.4225C51.2123 38.7485 51.2448 38.0429 51.2448 37.5732ZM47.1173 17.7821C45.6473 19.0271 43.4012 22.0428 43.1141 24.4569C43.8041 24.7356 45.6266 25.6045 45.8756 25.8102C47.6835 24.0277 47.3159 22.063 48.0224 20.5436C48.2579 20.0431 48.516 19.5536 48.7958 19.0765C48.2093 18.7578 47.5767 18.3045 47.1173 17.7821ZM55.8872 22.5591C55.5615 22.738 54.7999 23.2049 54.5434 23.3974C52.807 24.705 49.0434 26.4621 48.1764 27.4246C48.8678 28.0375 49.8887 29.1365 50.3505 30.0572C50.7732 30.0765 51.988 29.0876 54.3965 26.2531C55.1689 25.3475 55.9908 24.8697 57.48 24.0413C56.889 23.616 56.3539 23.118 55.8872 22.5591ZM25.5673 33.0225C24.7544 32.2205 23.1376 31.5272 21.0326 31.6961C16.7258 32.0346 13.8894 31.7578 12.2623 31.5272C9.47531 31.1275 7.74412 31.5182 6.35182 31.5182C2.11467 31.5182 6.46949 31.8995 6.96654 32.0929C8.95991 32.8794 12.9815 33.8759 16.1445 33.6457C17.6898 33.5379 20.2767 34.4784 20.721 34.6323C21.8582 35.0385 23.9151 35.7003 25.0264 35.6796C25.0867 35.1717 25.3493 33.6589 25.5673 33.0225ZM29.0353 27.7334C26.8696 25.9867 24.8786 25.6139 21.7029 24.1227C20.9837 23.7843 19.7754 22.971 19.7142 22.9375C19.6281 22.8759 19.4695 22.7761 19.2741 22.6575C19.0882 23.2524 18.7093 24.0597 18.3615 24.5115C18.8533 25.1507 22.4028 29.201 26.9445 30.4629C27.442 29.5936 28.2441 28.591 29.0353 27.7334ZM74.5519 30.8663C74.3378 30.8324 73.5291 30.7246 73.0123 30.7275C72.3289 30.7312 67.8404 30.7524 66.6128 30.9402C64.1021 31.3337 59.2423 31.1304 56.5782 31.0292C54.5881 30.952 52.2954 31.7281 51.5959 32.1038C51.5959 32.1038 52.3627 34.0204 52.4126 35.3242C53.2589 35.4744 54.0736 34.405 56.4902 34.445C59.0074 34.4873 65.2026 34.1498 68.3369 32.9293C70.6786 32.0223 72.6452 31.5672 74.238 31.2443C74.7703 31.1337 75.6143 31.0292 74.5519 30.8663Z"
        fill="#FFFFFE"/>
  <path fill-rule="evenodd" clip-rule="evenodd"
        d="M17.0365 13.6635C17.439 11.5332 19.5218 8.43134 24.2795 9.63913C24.8636 9.78645 24.5191 11.2687 23.8916 11.0197C20.4179 9.65749 18.675 12.2924 18.1125 14.3705C18.0358 14.6529 16.8718 14.5461 17.0365 13.6635ZM15.3609 16.2646C13.4023 16.4797 12.829 17.4361 12.4802 18.5333C12.3372 18.9456 11.2381 18.65 11.4122 17.8381C11.9314 15.4253 14.5489 14.8351 15.4992 15.0412C15.8193 15.1024 15.7209 16.2307 15.3609 16.2646ZM9.9131 20.5742C8.57446 20.5742 7.49987 20.6024 6.55755 21.6267C5.55028 22.7172 5.79503 23.3169 5.6077 23.5141C5.33235 23.7843 4.64185 23.3075 4.65455 22.7671C4.71292 20.1995 7.81429 19.1979 9.65328 19.4031C10.3541 19.486 10.5354 20.5742 9.9131 20.5742ZM28.8089 7.81944C29.9598 5.99552 33.9084 3.18974 37.4084 6.27887C37.8015 6.6206 37.3331 7.89005 36.8949 7.59539C33.6942 5.39398 31.1765 7.16142 29.8421 8.75376C29.202 9.51016 28.5345 8.25907 28.8089 7.81944ZM39.3684 7.49184C40.6209 5.45376 47.1738 3.55688 50.5355 9.32141C50.8918 9.94884 50.4159 10.3141 50.0389 10.5725C49.7725 10.7627 49.6139 10.3301 49.4379 10.0463C46.585 5.5333 41.4229 6.72368 40.0354 8.81683C39.7539 9.24093 39.0031 8.0915 39.3684 7.49184ZM53.5743 10.7627C55.3125 10.1479 58.2732 9.87447 59.063 12.78C59.2889 13.592 58.2915 13.9789 58.0698 13.4098C57.2626 11.3068 55.7451 11.3901 53.932 11.9681C53.0961 12.242 53.2984 10.8582 53.5743 10.7627ZM61.6273 14.7042C63.5002 13.6343 67.3321 13.825 68.5238 17.2436C68.7281 17.8249 67.9567 18.8119 67.4775 17.9322C66.0372 15.2851 63.7101 15.2916 61.7662 16.033C61.3308 16.2043 60.9373 15.0977 61.6273 14.7042ZM69.8757 18.5502C71.8017 18.1045 74.1147 19.5123 73.4586 22.1006C73.347 22.544 72.2592 22.5718 72.2974 22.1195C72.4635 19.9519 71.3922 19.7773 69.9656 19.7919C69.4257 19.8046 69.4671 18.6397 69.8757 18.5502ZM18.4415 18.3365C18.643 18.1661 18.9193 18.1878 19.1716 18.2688C21.2953 18.9545 24.3411 18.4886 25.7612 16.2406C25.9599 15.9261 26.3533 15.8155 26.696 15.9544C28.1636 16.5489 31.1704 16.8242 34.8319 13.1072C35.1072 12.8281 35.552 12.8629 35.857 13.1105C39.0737 15.6917 42.4255 15.8522 45.8244 13.592C46.0352 13.4517 46.3035 13.27 46.537 13.3656C46.7719 13.4607 46.9446 13.6663 46.9978 13.9144C48.0832 18.9352 53.3234 18.49 54.9021 18.2353C55.0025 18.2186 55.1053 18.2221 55.2043 18.2458C55.3034 18.2695 55.3967 18.3127 55.4787 18.3731C55.5607 18.4334 55.6298 18.5096 55.6818 18.5971C55.7339 18.6846 55.7679 18.7817 55.7818 18.8825C55.9536 20.0569 57.2551 22.3346 59.5097 23.4972C61.4371 24.488 63.535 24.4113 65.7515 23.2698C65.8613 23.2128 65.9834 23.1835 66.1071 23.1842C66.2309 23.1849 66.3526 23.2158 66.4618 23.2741C69.3061 24.7939 71.8657 24.8829 73.4826 23.5216C74.6226 22.561 75.0853 20.9964 74.632 19.6267C74.1269 18.1012 72.6104 17.1527 70.472 17.0228C70.2977 17.0124 70.1323 16.9426 70.0032 16.825C69.8742 16.7074 69.7893 16.5491 69.7627 16.3766C69.5716 15.1594 68.8915 14.1634 67.7938 13.4945C66.1219 12.475 63.6621 12.3555 61.2131 13.1735C61.1066 13.2089 60.9936 13.2205 60.8821 13.2074C60.7706 13.1943 60.6634 13.1569 60.5679 13.0978C60.4725 13.0387 60.3912 12.9594 60.3297 12.8655C60.2683 12.7715 60.2283 12.6652 60.2124 12.5541C60.0778 11.6127 59.6702 10.339 58.4916 9.61842C57.2485 8.85873 55.3723 8.87708 53.0636 9.67161C52.8901 9.73127 52.701 9.7268 52.5305 9.65901C52.3601 9.59123 52.2196 9.46461 52.1344 9.30211C50.6508 6.45774 48.5647 4.60981 46.1044 3.95837C43.9021 3.37378 41.4545 3.79834 39.3891 5.12474C39.2572 5.20965 39.1026 5.25223 38.9459 5.24676C38.7891 5.24129 38.6378 5.18804 38.5122 5.09415C36.4336 3.53381 33.947 3.03582 31.6886 3.72727C29.4891 4.39894 27.8134 6.11602 26.9681 8.56172C26.9343 8.65969 26.8809 8.74974 26.8111 8.82638C26.7414 8.90302 26.6567 8.96464 26.5623 9.00746C26.4679 9.05081 26.3655 9.07442 26.2616 9.07685C26.1577 9.07928 26.0544 9.06047 25.958 9.02158C22.5883 7.66882 19.8371 7.70271 18.0014 9.12184C16.4241 10.3405 15.937 12.2599 16.0076 12.82C16.0584 13.2074 15.8254 13.5652 15.4456 13.6579L14.6398 13.8509C12.7721 14.2768 10.8399 14.7198 10.2576 17.6912C10.2257 17.8527 10.1427 17.9997 10.0208 18.1104C9.89891 18.2211 9.74464 18.2897 9.58079 18.3059C6.33445 18.6302 4.21352 19.8324 3.76495 21.6064C3.44912 22.8561 4.02901 24.2719 5.17702 25.0481C6.33209 25.8304 7.72298 25.749 8.99572 24.8245C9.09877 24.7495 9.21894 24.7015 9.3453 24.6848C9.47166 24.6681 9.60019 24.6833 9.71918 24.729C11.6255 25.4581 14.7184 25.3136 16.5936 23.8107C17.9525 22.7205 18.4858 21.1127 18.1784 19.0336C18.1588 18.9046 18.1728 18.7728 18.2188 18.6507C18.2649 18.5286 18.3416 18.4204 18.4415 18.3365ZM7.38785 39.8339C5.08476 39.7849 3.1667 40.4349 2.49032 41.6168C1.24488 43.7933 2.70872 45.6704 3.58421 46.1962C5.58652 47.4002 7.49517 46.6142 7.63637 45.8738C7.08943 45.2572 6.1457 43.863 5.61664 43.8507C4.84801 43.8305 4.91014 42.8331 5.46885 42.6514C6.80655 42.209 8.10706 44.7483 10.0284 46.1209C11.7408 47.3461 14.1418 46.4485 14.1418 45.9453C13.094 44.9973 11.8425 39.9341 7.38785 39.8339ZM53.2071 45.8215C54.7999 47.4355 56.9726 46.7436 57.0738 46.215C56.8955 45.8931 55.8905 44.4132 55.2994 44.0917C54.8174 43.8263 54.5044 43.3848 54.7651 43.0157C55.1986 42.4029 56.0685 42.8373 56.6253 43.509C57.1812 44.1887 58.7151 46.1868 59.2531 46.4927C60.6492 47.2656 63.7271 46.9879 63.4785 46.0898C62.6266 44.7418 62.0387 42.0179 59.5031 40.8266C56.8682 39.5844 53.4928 39.9082 50.3661 41.0233C50.9276 42.1426 52.3924 45.0016 53.2071 45.8215ZM34.7147 40.7362C32.0774 39.4931 28.3547 39.9082 25.2251 41.0195C26.0921 42.1751 27.5338 44.874 28.2775 45.7843C29.7169 47.5362 32.1791 46.6513 32.2803 46.1228C32.108 45.7999 30.7863 44.0898 30.2883 43.8046C29.8237 43.5382 29.554 43.1146 29.8148 42.7456C30.2511 42.1318 31.2777 42.7456 31.835 43.4172C32.3909 44.0931 33.9526 46.0503 34.4662 46.3976C36.0058 47.4407 38.941 46.897 38.6944 46.0013C37.6852 44.6683 37.2456 41.9256 34.7147 40.7362ZM14.9584 60.9071C13.086 60.9622 11.2536 61.7002 10.1781 61.5124V74.0525C10.1781 74.0525 10.8568 74.5689 12.7358 74.0346C15.1674 73.3427 16.2495 74.1029 16.2495 74.1029V61.4508C16.2495 61.4508 15.9666 60.876 14.9584 60.9071ZM21.6733 113.35C23.5518 113.887 24.2315 113.369 24.2315 113.369V100.828C23.1555 101.015 21.3231 100.277 19.4479 100.218C18.4425 100.185 18.1563 100.761 18.1563 100.761V113.412C18.1563 113.412 19.2417 112.655 21.6733 113.35ZM62.508 60.9071C61.5016 60.876 61.2131 61.4508 61.2131 61.4508V74.1029C61.2131 74.1029 62.2947 73.3427 64.7296 74.0346C66.6081 74.5689 67.2883 74.0525 67.2883 74.0525V61.5124C66.2128 61.7002 64.3799 60.9622 62.508 60.9071ZM19.4474 60.9071C18.4415 60.876 18.1553 61.4508 18.1553 61.4508V74.1029C18.1553 74.1029 19.2412 73.3427 21.6728 74.0346C23.5509 74.5689 24.2301 74.0525 24.2301 74.0525V61.5124C23.1545 61.7002 21.3221 60.9622 19.4474 60.9071ZM16.2533 113.412V100.761C16.2533 100.761 15.9671 100.185 14.9622 100.218C13.087 100.277 11.2546 101.015 10.1819 100.828V113.369C10.1819 113.369 10.8578 113.887 12.7363 113.35C15.1679 112.655 16.2533 113.412 16.2533 113.412ZM61.4503 100.761V113.412C61.4503 113.412 62.5324 112.655 64.964 113.35C66.8435 113.887 67.5194 113.369 67.5194 113.369V100.828C66.4425 101.015 64.6143 100.277 62.7419 100.218C61.7309 100.185 61.4503 100.761 61.4503 100.761ZM58.0185 60.9071C56.1466 60.9622 54.3114 61.7002 53.2349 61.5124V74.0525C53.2349 74.0525 53.9151 74.5689 55.7959 74.0346C58.2219 73.3427 59.3073 74.1029 59.3073 74.1029V61.4508C59.3073 61.4508 59.0267 60.876 58.0185 60.9071ZM53.4726 100.828V113.369C53.4726 113.369 54.1495 113.887 56.027 113.35C58.4596 112.655 59.5445 113.412 59.5445 113.412V100.761C59.5445 100.761 59.2578 100.185 58.2506 100.218C56.3777 100.277 54.5458 101.015 53.4726 100.828Z"
        fill="#FFFFFE"/>
  <path fill-rule="evenodd" clip-rule="evenodd"
        d="M70.9009 77.0411H62.284V78.1232H58.7105V77.0411H50.094V62.4784H51.9278V59.828C53.7979 60.2794 56.8475 59.2495 58.2087 59.2528C59.7286 59.2566 60.4967 59.9108 60.4967 59.9108C60.4967 59.9108 61.28 59.2528 62.7838 59.2528C64.1465 59.2528 67.1928 60.2704 69.0647 59.828V62.4784H70.9009V77.0411ZM45.3095 82.6089H75.3847V55.3362H45.3095V82.6089ZM27.6092 77.0411H18.9918V78.1232H15.4193V77.0411H6.79906V62.4784H8.63757V59.828C10.5062 60.2794 13.5568 59.2495 14.918 59.2528C16.4369 59.2566 17.2084 59.9108 17.2084 59.9108C17.2084 59.9108 17.9897 59.2528 19.4931 59.2528C20.8548 59.2528 23.9016 60.2704 25.7707 59.828V62.4784H27.6092V77.0411ZM2.09216 82.6089H32.1899V55.3362H2.09216V82.6089ZM45.3095 131.371C52.8932 129.177 60.4054 126.244 65.4922 121.592C67.2926 119.947 68.7875 118.228 70.039 116.353H62.284V117.437H58.7124V116.353H50.0903V101.787H51.933V99.1362C53.7984 99.5881 56.848 98.562 58.2106 98.562C59.7295 98.5648 60.4977 99.2228 60.4977 99.2228C60.4977 99.2228 61.2809 98.562 62.7824 98.562C64.1469 98.562 67.1937 99.5815 69.0633 99.1362V101.787H70.9051V114.96C73.6742 110.17 74.9902 104.306 75.4374 96.065L75.3847 94.8365H45.3095V131.371ZM6.79953 114.812V101.787H8.64134V99.1362C10.5076 99.5881 13.5577 98.562 14.9194 98.562C16.4378 98.5648 17.2098 99.2228 17.2098 99.2228C17.2098 99.2228 17.9902 98.562 19.494 98.562C20.8562 98.562 23.9025 99.5815 25.7711 99.1362V101.787H27.6097V116.353H18.9895V117.437H15.4202V116.353H7.74232C8.97035 118.214 10.4215 119.936 12.1296 121.537C16.9227 126.029 24.4433 129.078 32.1862 131.346V94.8365H2.09216L2.15524 95.992C2.45459 103.529 3.86996 109.677 6.79953 114.812Z"
        fill="#FFFFFE"/>
  <path fill-rule="evenodd" clip-rule="evenodd"
        d="M74.2381 31.2443C72.6453 31.5671 70.6787 32.0223 68.337 32.9293C65.2027 34.1498 59.0075 34.4873 56.4902 34.4449C54.0737 34.4049 53.259 35.4743 52.4127 35.3242C52.3628 34.0204 51.596 32.1037 51.596 32.1037C52.2955 31.7281 54.5882 30.952 56.5783 31.0291C59.2424 31.1303 64.1022 31.3337 66.6129 30.9402C67.8405 30.7524 72.329 30.7312 73.0124 30.7274C73.5292 30.7246 74.3379 30.8324 74.552 30.8663C75.6144 31.0292 74.7704 31.1336 74.2381 31.2443ZM59.5031 40.8266C62.0387 42.0179 62.6266 44.7418 63.4786 46.0898C63.7271 46.9879 60.6493 47.2656 59.2532 46.4927C58.7152 46.1868 57.1812 44.1887 56.6253 43.509C56.0685 42.8373 55.1987 42.4029 54.7652 43.0157C54.5044 43.3848 54.8174 43.8263 55.2994 44.0917C55.8906 44.4132 56.8955 45.8931 57.0739 46.215C56.9727 46.7436 54.8 47.4355 53.2072 45.8215C52.3924 45.0016 50.9276 42.1426 50.3661 41.0233C53.4929 39.9082 56.8682 39.5844 59.5031 40.8266ZM68.8275 39.9633C74.3181 40.4288 75.6243 44.0437 75.0778 45.2167C74.5972 46.247 71.2346 47.5838 66.137 46.1477C64.4553 45.3984 63.1209 41.5251 62.6299 41.0299C62.4299 40.8327 65.6014 39.6875 68.8275 39.9633ZM41.3632 46.3313C39.6857 45.5829 38.3499 41.7091 37.8538 41.2139C37.6547 41.0177 40.8318 39.872 44.0565 40.1478C49.5509 40.6129 49.5664 44.0258 50.9159 45.7241C51.411 46.3468 46.4646 47.7688 41.3632 46.3313ZM34.4662 46.3976C33.9527 46.0503 32.3909 44.0931 31.8351 43.4172C31.2778 42.7456 30.2512 42.1318 29.8149 42.7456C29.5541 43.1146 29.8238 43.5382 30.2884 43.8046C30.7864 44.0898 32.1081 45.7999 32.2803 46.1228C32.1791 46.6513 29.717 47.5362 28.2776 45.7843C27.5339 44.874 26.0922 42.1751 25.2252 41.0195C28.3548 39.9082 32.0775 39.4931 34.7147 40.7362C37.2456 41.9256 37.6853 44.6683 38.6944 46.0013C38.9411 46.897 36.0058 47.4407 34.4662 46.3976ZM16.4939 46.0522C14.8121 45.3061 13.481 41.4328 12.9863 40.9376C12.7891 40.7409 15.9625 39.5891 19.1867 39.8678C24.6773 40.3352 24.6928 43.7453 26.0456 45.4478C26.5379 46.0667 21.591 47.4859 16.4939 46.0522ZM10.0285 46.1209C8.10712 44.7483 6.8066 42.209 5.4689 42.6514C4.9102 42.8331 4.84806 43.8305 5.6167 43.8507C6.14576 43.863 7.08949 45.2572 7.63643 45.8738C7.49522 46.6142 5.58658 47.4002 3.58426 46.1962C2.70878 45.6704 1.24494 43.7933 2.49038 41.6168C3.16676 40.4349 5.08482 39.7849 7.38791 39.8339C11.8425 39.9341 13.0941 44.9973 14.1418 45.9453C14.1418 46.4485 11.7408 47.3461 10.0285 46.1209ZM20.7211 34.6323C20.2768 34.4784 17.6899 33.5379 16.1446 33.6457C12.9816 33.8759 8.96001 32.8794 6.96664 32.0929C6.46959 31.8995 2.11477 31.5182 6.35192 31.5182C7.74422 31.5182 9.47542 31.1275 12.2624 31.5271C13.8895 31.7578 16.7259 32.0345 21.0327 31.6961C23.1377 31.5271 24.7545 32.2205 25.5674 33.0225C25.3494 33.6589 25.0868 35.1717 25.0265 35.6796C23.9152 35.7003 21.8583 35.0385 20.7211 34.6323ZM18.3616 24.5115C18.7094 24.0596 19.0883 23.2524 19.2742 22.6575C19.4696 22.7761 19.6282 22.8759 19.7143 22.9375C19.7755 22.9709 20.9838 23.7843 21.703 24.1227C24.8787 25.6139 26.8698 25.9867 29.0354 27.7334C28.2442 28.591 27.4421 29.5935 26.9446 30.4629C22.4029 29.201 18.8534 25.1507 18.3616 24.5115ZM16.5937 23.8107C14.7184 25.3136 11.6255 25.4581 9.71923 24.729C9.60025 24.6833 9.47172 24.6681 9.34536 24.6848C9.219 24.7015 9.09883 24.7495 8.99578 24.8245C7.72304 25.749 6.33215 25.8304 5.17708 25.0481C4.02906 24.2719 3.44917 22.8561 3.76501 21.6064C4.21357 19.8324 6.3345 18.6302 9.58085 18.3059C9.7447 18.2897 9.89896 18.2211 10.0209 18.1104C10.1427 17.9997 10.2258 17.8527 10.2577 17.6912C10.8399 14.7198 12.7721 14.2768 14.6398 13.8509L15.4456 13.6579C15.8255 13.5651 16.0585 13.2074 16.0076 12.82C15.937 12.2599 16.4242 10.3405 18.0015 9.12184C19.8372 7.70271 22.5884 7.66882 25.958 9.02158C26.1534 9.09972 26.3713 9.09548 26.5624 9.00746C26.6568 8.96463 26.7414 8.90302 26.8112 8.82638C26.8809 8.74974 26.9343 8.65969 26.9681 8.56172C27.8135 6.11601 29.4891 4.39894 31.6887 3.72726C33.947 3.03582 36.4337 3.53381 38.5123 5.09415C38.7702 5.28666 39.1194 5.29843 39.3892 5.12474C41.4545 3.79834 43.9021 3.37378 46.1045 3.95837C48.5648 4.60981 50.6509 6.45774 52.1345 9.30211C52.2196 9.46461 52.3601 9.59123 52.5306 9.65901C52.7011 9.7268 52.8902 9.73127 53.0636 9.6716C55.3724 8.87708 57.2485 8.85872 58.4916 9.61842C59.6702 10.339 60.0778 11.6127 60.2125 12.5541C60.2283 12.6652 60.2684 12.7715 60.3298 12.8655C60.3912 12.9594 60.4725 13.0387 60.568 13.0978C60.6634 13.1569 60.7707 13.1943 60.8822 13.2074C60.9936 13.2205 61.1066 13.2089 61.2132 13.1735C63.6622 12.3555 66.122 12.475 67.7939 13.4945C68.8915 14.1634 69.5717 15.1594 69.7628 16.3766C69.7893 16.5491 69.8742 16.7074 70.0033 16.825C70.1324 16.9426 70.2978 17.0124 70.4721 17.0228C72.6104 17.1527 74.127 18.1012 74.632 19.6267C75.0853 20.9964 74.6226 22.561 73.4826 23.5216C71.8658 24.8829 69.3062 24.7939 66.4618 23.2741C66.3527 23.2158 66.2309 23.1849 66.1072 23.1842C65.9835 23.1835 65.8614 23.2128 65.7515 23.2698C63.5351 24.4113 61.4372 24.488 59.5097 23.4972C57.2551 22.3346 55.9537 20.0569 55.7819 18.8825C55.768 18.7817 55.734 18.6846 55.6819 18.5971C55.6298 18.5096 55.5607 18.4334 55.4787 18.3731C55.3967 18.3127 55.3034 18.2695 55.2044 18.2458C55.1054 18.2221 55.0026 18.2186 54.9021 18.2353C53.3234 18.49 48.0833 18.9352 46.9979 13.9144C46.9717 13.7923 46.916 13.6784 46.8357 13.5827C46.7553 13.4871 46.6528 13.4125 46.537 13.3656C46.3036 13.27 46.0353 13.4517 45.8244 13.592C42.4256 15.8522 39.0738 15.6917 35.8571 13.1105C35.5521 12.8629 35.1073 12.828 34.8319 13.1072C31.1704 16.8242 28.1637 16.5489 26.6961 15.9544C26.3534 15.8155 25.9599 15.9261 25.7613 16.2406C24.3412 18.4886 21.2954 18.9545 19.1716 18.2688C18.9193 18.1878 18.643 18.1661 18.4416 18.3365C18.3417 18.4204 18.265 18.5286 18.2189 18.6507C18.1728 18.7727 18.1589 18.9046 18.1785 19.0336C18.4858 21.1127 17.9525 22.7205 16.5937 23.8107ZM42.2462 21.8907C41.9017 22.7624 41.7671 23.2218 41.6381 23.7118C41.9064 21.8385 41.3981 19.0976 40.8525 16.7301C42.4877 16.7644 44.1427 16.3352 45.7854 15.4041C45.9124 15.7741 46.0819 16.097 46.2495 16.4199C45.3227 17.2652 43.1071 19.6973 42.2462 21.8907ZM49.9368 20.0583C49.9952 19.9571 50.063 19.8263 50.1336 19.6851C51.4798 20.1322 52.9573 20.2504 54.4065 20.0908C54.5534 20.5652 54.7802 21.0708 55.0725 21.5801C55.0659 21.5815 55.0518 21.5909 55.0485 21.5923C54.3317 21.934 52.1561 23.4219 48.9785 25.1921C48.1562 25.6473 47.6498 26.0855 47.3589 26.3853C47.7086 25.9146 48.1355 25.2929 48.4047 24.6052C48.9644 23.1729 48.8157 22.023 49.9368 20.0583ZM48.0225 20.5436C47.316 22.063 47.6836 24.0276 45.8757 25.8101C45.6267 25.6045 43.8042 24.7356 43.1142 24.4569C43.4013 22.0427 45.6474 19.027 47.1174 17.7821C47.5768 18.3045 48.2094 18.7578 48.7959 19.0765C48.5161 19.5536 48.258 20.0431 48.0225 20.5436ZM36.9402 20.2918C37.0856 17.9675 37.5233 16.3893 37.5874 16.0928C38.0806 16.3295 38.6803 16.5338 39.2607 16.6811C39.7182 17.6493 40.4939 21.5175 40.154 23.8474C39.0969 23.7485 37.8618 23.7739 37.1242 23.8474C36.895 23.4322 36.8625 21.5372 36.9402 20.2918ZM38.741 25.0707C45.7538 25.0707 51.2449 30.5646 51.2449 37.5731C51.2449 38.0429 51.2124 38.7485 51.122 39.4225C50.3661 39.6385 49.6163 39.8984 48.8971 40.258C45.277 38.1493 40.3343 38.2721 36.9044 40.2283C34.7853 38.5484 30.0158 38.4157 26.4193 39.2497C26.3101 38.5729 26.2362 37.9036 26.2362 37.5731C26.2362 30.6677 31.8351 25.0707 38.741 25.0707ZM32.1146 21.7617C33.0047 22.9267 33.8058 24.2964 33.979 24.5854C33.2307 24.8542 31.9127 25.5197 31.1511 26.0361C29.7235 24.5609 28.6179 20.1091 27.9039 18.9282C27.6309 18.4768 27.4383 18.1633 27.2901 17.9204C27.7805 18.0918 28.5675 18.0678 29.0312 18.0744C29.1695 18.2711 30.3999 19.486 32.1146 21.7617ZM35.3215 23.8554L35.3751 23.9702C35.3751 23.9702 34.2586 22.2946 34.124 22.0809C33.7418 21.4972 33.2443 20.9065 32.6879 20.2212C31.9668 19.3481 31.2218 18.495 30.4536 17.663C31.9165 17.3053 33.587 16.4707 35.3859 14.7744C35.578 14.9137 35.7714 15.0196 35.9649 15.142C35.8814 15.6344 35.7954 16.1265 35.7069 16.618C35.2918 18.8835 35.2626 20.6241 35.2334 21.3711C35.2019 22.079 35.2711 23.1973 35.3215 23.8554ZM19.6908 20.0997C21.7152 20.4193 24.072 19.9458 25.7862 18.4048C27.8902 21.765 27.9457 24.808 29.9763 26.905C27.412 24.424 25.1757 24.4715 21.5081 22.4927C20.875 22.1515 19.9294 21.5372 19.663 21.4017L19.6465 21.3927C19.688 21.0835 19.7143 20.7625 19.7143 20.417C19.7143 20.3181 19.6941 20.2028 19.6908 20.0997ZM54.3966 26.2531C51.9881 29.0876 50.7733 30.0765 50.3506 30.0572C49.8888 29.1365 48.8679 28.0374 48.1765 27.4246C49.0435 26.462 52.8071 24.705 54.5435 23.3974C54.8 23.2049 55.5616 22.738 55.8873 22.5591C56.3539 23.118 56.8891 23.616 57.4801 24.0413C55.9908 24.8697 55.169 25.3475 54.3966 26.2531ZM78.7294 30.0849C78.2771 29.7531 73.4817 29.1629 72.7342 29.1629C72.0051 29.1629 67.8635 29.2 66.2641 29.442C63.7784 29.8115 59.537 29.8115 56.3156 29.442C55.1497 29.306 53.86 29.5903 52.8038 29.9315C53.0114 29.7573 53.234 29.5549 53.5014 29.2796C54.4522 28.302 55.5169 26.4451 57.4062 25.5197C57.8646 25.291 58.317 25.0507 58.7632 24.7991C60.3494 25.5922 62.8493 26.1302 65.9568 24.6682C70.5926 26.9826 73.3579 25.4171 74.3355 24.5929C74.9168 24.1016 75.3845 23.4899 75.7062 22.8001C76.0279 22.1103 76.1961 21.3589 76.199 20.5977C76.199 20.0753 76.1185 19.5509 75.95 19.0459C75.283 17.0304 73.445 15.7741 70.9197 15.479C70.7752 14.941 70.546 14.443 70.2711 13.9709C70.517 13.6539 70.7679 13.3408 71.0237 13.0319C71.2436 12.7556 72.0051 11.4913 69.9656 12.5456C69.8602 12.5998 69.6658 12.7076 69.4159 12.8488C69.1266 12.5582 68.8043 12.3024 68.4557 12.0867C66.5545 10.9274 63.9836 10.7862 61.336 11.4932C60.9646 10.0825 60.2666 8.89073 59.1553 8.21105C57.9899 7.49796 56.5218 7.29227 54.792 7.5568C54.8998 7.30309 54.9986 7.07858 55.081 6.90207C55.8501 5.2909 55.4354 4.88752 54.6273 5.60155C53.7155 6.4102 53.1408 6.98632 52.7017 7.45089C51.0656 4.82444 48.9103 3.05088 46.3634 2.37591C44.1535 1.79085 41.7671 2.1015 39.6151 3.1422C39.4866 2.05961 39.3454 1.17001 39.1891 0.657897C38.7876 -0.648737 38.3094 0.377837 38.2341 0.780747C38.1451 1.32628 38.0213 2.07656 37.8782 2.94498C35.7281 1.7965 33.3399 1.47831 31.1045 2.16269C28.6499 2.91391 26.7784 4.74301 25.7001 7.28474C24.9004 7.0009 24.0779 6.7858 23.2417 6.64178C22.7917 6.052 22.1257 5.30266 21.1946 4.48837C20.5672 3.93201 20.0495 4.22102 20.426 5.31867C20.5733 5.74276 20.7009 6.11884 20.8195 6.47421C19.0685 6.57117 17.7897 7.14588 16.9293 7.81003C15.2287 9.12419 14.5353 11.006 14.3969 12.2001C14.3192 12.2195 14.2414 12.2386 14.1635 12.2576C12.7368 12.5847 10.8108 13.1213 9.60438 15.0238C9.39116 14.892 9.23536 14.7955 9.17088 14.7532C5.57387 12.3649 7.23211 15.4371 8.62347 16.7917C3.83985 17.4686 2.49038 19.7665 2.14442 21.1315C2.05711 21.4771 2.01316 21.8322 2.01357 22.1887C2.01357 23.7396 2.82269 25.2952 4.18251 26.2178C5.78144 27.2994 7.72115 27.2335 9.44576 26.1302C11.698 26.856 14.8794 26.7388 17.1622 25.0787C18.4788 26.4973 19.5416 27.5042 20.1182 28.0775C21.5524 29.5041 23.6554 30.5905 24.7314 30.9981C23.6676 30.5862 21.8969 30.1433 20.1257 30.3895C16.3018 30.9218 13.7639 30.2294 12.1268 30.0671C9.42882 29.7992 6.65598 30.2638 5.27545 30.2638C3.81208 30.2638 1.74622 30.952 0.739414 31.0998C-0.349291 31.2631 -0.278216 31.9823 1.23646 32.3843C2.73608 32.7905 5.5461 33.0399 6.30814 33.3657C8.74961 34.4261 12.8333 35.3115 15.7125 35.0804C17.7558 34.9241 19.8127 35.9206 20.3408 36.0768C21.3542 36.388 23.8658 37.0733 24.8976 37.0549C24.8976 36.9928 24.8976 38.5056 25.0039 39.2206C24.6128 39.35 24.2381 39.486 23.903 39.6399C22.7592 38.9452 17.7417 36.9104 11.6302 39.4432C10.3391 38.9965 7.60536 37.4884 3.86103 38.7212C-0.762556 40.2471 -0.0122769 44.4805 1.51229 46.4207C3.57485 49.0443 7.39073 48.5129 8.50062 47.1926C10.9844 48.8419 13.5177 48.2837 15.3562 47.1432C16.5645 47.8535 22.5102 49.0321 27.0293 47.1926C27.6473 47.6525 30.1283 48.9474 33.3135 47.3433C35.152 48.4343 38.1927 48.5186 39.753 47.1432C40.3192 47.6243 42.0161 48.3133 45.631 48.2715C49.9726 48.2197 50.9808 47.572 51.5894 47.043C52.5247 47.4765 54.9615 48.7511 57.9776 47.4642C59.6039 48.488 62.8601 48.4282 64.6064 47.2835C67.7972 48.7337 73.6502 48.0775 75.1145 47.0679C77.7339 45.251 76.4673 41.5477 73.5824 39.7906C67.9111 36.9321 62.6323 39.15 61.2306 39.8692C59.5606 38.7414 56.0657 38.0184 52.4367 38.6915C52.4932 38.2599 52.4291 37.7661 52.4291 37.2159C52.4291 37.1575 52.4207 37.1029 52.4193 37.0441C53.1385 36.8257 54.1608 36.0509 56.2427 35.9206C59.0753 35.7299 65.7581 35.8189 69.0991 34.1065C71.0059 33.1317 77.6393 31.8317 78.5242 31.3149C79.4373 30.7924 79.1963 30.405 78.7294 30.0849Z"
        fill="#1A1919"/>
  <path fill-rule="evenodd" clip-rule="evenodd"
        d="M9.91314 20.5743C8.5745 20.5743 7.49991 20.6026 6.55759 21.6268C5.55031 22.7174 5.79507 23.317 5.60774 23.5142C5.33238 23.7844 4.64188 23.3076 4.65459 22.7673C4.71296 20.1996 7.81433 19.198 9.65332 19.4032C10.3542 19.4861 10.5354 20.5743 9.91314 20.5743ZM15.3609 16.2647C13.4024 16.4798 12.8291 17.4362 12.4803 18.5334C12.3372 18.9457 11.2381 18.6501 11.4123 17.8382C11.9315 15.4254 14.549 14.8352 15.4993 15.0414C15.8194 15.1026 15.721 16.2308 15.3609 16.2647ZM23.8917 11.0198C20.418 9.65761 18.675 12.2925 18.1125 14.3706C18.0358 14.653 16.8718 14.5462 17.0366 13.6637C17.439 11.5333 19.5218 8.43147 24.2795 9.63926C24.8637 9.78658 24.5191 11.2688 23.8917 11.0198ZM36.8949 7.59552C33.6943 5.39411 31.1765 7.16155 29.8421 8.75389C29.202 9.51029 28.5346 8.25919 28.809 7.81957C29.9598 5.99565 33.9084 3.18987 37.4085 6.279C37.8015 6.62072 37.3332 7.89017 36.8949 7.59552ZM50.039 10.5726C49.7725 10.7628 49.6139 10.3302 49.4379 10.0464C46.585 5.53343 41.423 6.7238 40.0354 8.81696C39.7539 9.24105 39.0032 8.09163 39.3684 7.49197C40.6209 5.45388 47.1739 3.557 50.5355 9.32154C50.8918 9.94897 50.416 10.3142 50.039 10.5726ZM58.0699 13.41C57.2626 11.3069 55.7451 11.3902 53.932 11.9682C53.0961 12.2422 53.2985 10.8583 53.5743 10.7628C55.3126 10.1481 58.2732 9.8746 59.063 12.7802C59.2889 13.5921 58.2916 13.979 58.0699 13.41ZM67.4775 17.9323C66.0372 15.2852 63.7101 15.2918 61.7662 16.0331C61.3308 16.2044 60.9373 15.0978 61.6273 14.7043C63.5002 13.6345 67.3321 13.8251 68.5239 17.2437C68.7282 17.825 67.9567 18.8121 67.4775 17.9323ZM73.4586 22.1008C73.347 22.5442 72.2593 22.5719 72.2974 22.1196C72.4636 19.9521 71.3923 19.7774 69.9656 19.792C69.4257 19.8047 69.4671 18.6398 69.8757 18.5504C71.8018 18.1046 74.1147 19.5124 73.4586 22.1008ZM36.0035 33.3088C35.9941 33.4999 35.9472 33.6872 35.8652 33.8601C35.7833 34.0329 35.6681 34.1879 35.5261 34.3162C35.3842 34.4444 35.2183 34.5433 35.038 34.6073C34.8578 34.6712 34.6666 34.699 34.4756 34.6889C33.6731 34.6508 33.0579 33.9607 33.0979 33.1629L33.1111 33.0029C32.9873 32.8122 32.333 32.6004 31.361 33.1902C30.8729 33.4905 30.3255 33.2844 31.1732 32.5491C32.0746 31.7668 32.9289 31.3136 33.6825 31.2194L33.707 31.2138C34.9769 31.1258 36.6276 31.3856 37.3991 31.7C37.7196 31.8304 37.3868 33.4025 37.3134 33.3841C37.0512 33.3253 36.4798 33.0843 36.0002 33.194L36.0035 33.3088ZM40.1742 37.6684C39.9191 38.4102 37.2917 38.6474 36.8088 37.682C36.6182 37.2989 36.3537 36.3104 36.71 36.5152C37.2946 36.8555 39.4084 36.615 39.8085 36.5152C40.1615 36.4248 39.9309 35.9325 40.1493 35.9927C40.4101 36.0652 40.4101 36.9656 40.1742 37.6684Z"
        fill="#1A1919"/>
  <path fill-rule="evenodd" clip-rule="evenodd"
        d="M46.3568 33.5563C45.6964 33.0122 44.8313 32.7735 44.5004 33.0122L44.5122 33.1242C44.5451 33.5086 44.4244 33.8903 44.1765 34.1859C43.9286 34.4815 43.5738 34.6669 43.1895 34.7015C42.9991 34.7182 42.8071 34.6972 42.6248 34.6397C42.4424 34.5822 42.2732 34.4893 42.1268 34.3663C41.9804 34.2433 41.8597 34.0927 41.7715 33.923C41.6834 33.7533 41.6296 33.5679 41.6132 33.3774V33.3148C41.0907 33.1501 40.2571 33.4381 40.1427 33.3934C40.0759 33.3619 39.7224 31.8806 40.1832 31.6942C41.4381 31.1826 45.4813 30.9327 46.6557 33.2028C46.7936 33.4782 46.7079 33.8439 46.3568 33.5563ZM0.250854 53.498V93.8582C0.250854 107.198 3.58381 116.436 10.7105 122.926C17.7888 129.368 28.3887 132.64 38.7528 135.088C49.3979 132.573 59.6429 129.436 66.7908 122.926C73.9204 116.436 77.2331 107.198 77.2331 93.8582V53.498H0.250854ZM59.5446 100.761V113.412C59.5446 113.412 58.4596 112.655 56.0271 113.35C54.1495 113.887 53.4727 113.369 53.4727 113.369V100.828C54.5459 101.015 56.3778 100.277 58.2506 100.218C59.2579 100.185 59.5446 100.761 59.5446 100.761ZM67.5195 100.828V113.369C67.5195 113.369 66.8436 113.887 64.9641 113.35C62.5325 112.655 61.4504 113.412 61.4504 113.412V100.761C61.4504 100.761 61.7309 100.185 62.742 100.218C64.6144 100.277 66.4425 101.015 67.5195 100.828ZM70.9051 114.96V101.787H69.0633V99.1361C67.1937 99.5814 64.147 98.5618 62.7824 98.5618C61.2809 98.5618 60.4977 99.2227 60.4977 99.2227C60.4977 99.2227 59.7296 98.5647 58.2106 98.5618C56.848 98.5618 53.7984 99.5879 51.9331 99.1361V101.787H50.0903V116.353H58.7124V117.436H62.284V116.353H70.0391C68.7875 118.228 67.2926 119.947 65.4922 121.592C60.4055 126.244 52.8933 129.177 45.3095 131.371V94.8363H75.3847L75.4374 96.0648C74.9903 104.306 73.6742 110.17 70.9051 114.96ZM43.7374 131.846L38.7528 133.114L33.7574 131.826V93.1602H2.09219V84.2839H33.7574V55.336H43.7374V84.2839H75.3847V93.1602H43.7374V131.846ZM18.1564 113.412V100.761C18.1564 100.761 18.4425 100.185 19.4479 100.218C21.3232 100.277 23.1556 101.015 24.2316 100.828V113.369C24.2316 113.369 23.5519 113.887 21.6734 113.35C19.2418 112.655 18.1564 113.412 18.1564 113.412ZM10.1819 113.369V100.828C11.2546 101.015 13.087 100.277 14.9623 100.218C15.9672 100.185 16.2534 100.761 16.2534 100.761V113.412C16.2534 113.412 15.168 112.655 12.7364 113.35C10.8578 113.887 10.1819 113.369 10.1819 113.369ZM32.1862 131.346C24.4434 129.078 16.9227 126.029 12.1297 121.537C10.4215 119.936 8.97038 118.214 7.74235 116.353H15.4202V117.436H18.9895V116.353H27.6097V101.787H25.7712V99.1361C23.9025 99.5814 20.8562 98.5618 19.4941 98.5618C17.9902 98.5618 17.2098 99.2227 17.2098 99.2227C17.2098 99.2227 16.4379 98.5647 14.9194 98.5618C13.5577 98.5618 10.5077 99.5879 8.64137 99.1361V101.787H6.79956V114.812C3.86999 109.677 2.45462 103.529 2.15526 95.9919L2.09219 94.8363H32.1862V131.346ZM2.09219 82.6087H32.19V55.336H2.09219V82.6087ZM45.3095 82.6087H75.3847V55.336H45.3095V82.6087Z"
        fill="#1A1919"/>
  <path fill-rule="evenodd" clip-rule="evenodd"
        d="M24.2301 74.0526C24.2301 74.0526 23.5509 74.5689 21.6729 74.0347C19.2413 73.3428 18.1554 74.103 18.1554 74.103V61.4508C18.1554 61.4508 18.4416 60.8761 19.4474 60.9072C21.3222 60.9622 23.1546 61.7003 24.2301 61.5125V74.0526ZM16.2496 74.103C16.2496 74.103 15.1675 73.3428 12.7359 74.0347C10.8569 74.5689 10.1782 74.0526 10.1782 74.0526V61.5125C11.2537 61.7003 13.0861 60.9622 14.9585 60.9072C15.9667 60.8761 16.2496 61.4508 16.2496 61.4508V74.103ZM25.7707 62.4783V59.8279C23.9016 60.2703 20.8548 59.2527 19.4931 59.2527C17.9897 59.2527 17.2084 59.9107 17.2084 59.9107C17.2084 59.9107 16.4369 59.2565 14.918 59.2527C13.5568 59.2494 10.5062 60.2793 8.63759 59.8279V62.4783H6.79907V77.041H15.4193V78.1231H18.9918V77.041H27.6092V62.4783H25.7707ZM67.2883 74.0526C67.2883 74.0526 66.6082 74.5689 64.7297 74.0347C62.2948 73.3428 61.2131 74.103 61.2131 74.103V61.4508C61.2131 61.4508 61.5017 60.8761 62.508 60.9072C64.3799 60.9622 66.2128 61.7003 67.2883 61.5125V74.0526ZM59.3073 74.103C59.3073 74.103 58.2219 73.3428 55.796 74.0347C53.9151 74.5689 53.235 74.0526 53.235 74.0526V61.5125C54.3114 61.7003 56.1466 60.9622 58.0186 60.9072C59.0268 60.8761 59.3073 61.4508 59.3073 61.4508V74.103ZM69.0647 62.4783V59.8279C67.1928 60.2703 64.1465 59.2527 62.7838 59.2527C61.28 59.2527 60.4968 59.9107 60.4968 59.9107C60.4968 59.9107 59.7286 59.2565 58.2087 59.2527C56.8475 59.2494 53.7979 60.2793 51.9279 59.8279V62.4783H50.094V77.041H58.7105V78.1231H62.284V77.041H70.9009V62.4783H69.0647Z"
        fill="#1A1919"/>
  <path fill-rule="evenodd" clip-rule="evenodd"
        d="M33.7573 131.826L38.7528 133.114L43.7374 131.846V93.1604H75.3847V84.2841H43.7374V55.3362H33.7573V84.2841H2.09216V93.1604H33.7573V131.826ZM19.1867 39.8679C15.9624 39.5893 12.7891 40.7411 12.9863 40.9378C13.481 41.433 14.8121 45.3063 16.4939 46.0523C21.591 47.4861 26.5379 46.0669 26.0456 45.448C24.6928 43.7455 24.6773 40.3353 19.1867 39.8679ZM44.0565 40.148C40.8318 39.8722 37.6546 41.0178 37.8537 41.2141C38.3499 41.7093 39.6857 45.5831 41.3632 46.3315C46.4645 47.7689 51.411 46.347 50.9159 45.7243C49.5664 44.026 49.5509 40.613 44.0565 40.148ZM66.137 46.1479C71.2346 47.584 74.5972 46.2472 75.0778 45.2169C75.6242 44.0439 74.3181 40.429 68.8275 39.9635C65.6014 39.6877 62.4299 40.8329 62.6299 41.0301C63.1208 41.5252 64.4552 45.3985 66.137 46.1479Z"
        fill="#D8232A"/>
</svg>
