<svg width="337" height="210" viewBox="0 0 337 210" fill="none" xmlns="http://www.w3.org/2000/svg">
<path d="M0 12C0 5.37258 5.37258 0 12 0H325C331.627 0 337 5.37258 337 12V198C337 204.627 331.627 210 325 210H12C5.37258 210 0 204.627 0 198V12Z" fill="white"/>
<g clip-path="url(#clip0_353_2928)">
<path d="M46.8131 93.6185H46.3701C46.3474 94.1292 46.0733 94.3501 45.5592 94.3501C44.5268 94.3501 42.8568 93.1091 41.086 93.1091C36.0475 93.1091 33 98.0265 33 102.359C33 106.719 35.9012 111.027 40.765 111.027C43.7159 111.027 44.8221 109.641 45.6074 109.641C46.1243 109.641 46.4197 110.276 46.5177 110.639H46.887V104.672H46.5177L46.3702 105.5C46.0251 107.474 44.1832 110.589 41.0136 110.589C38.2104 110.589 37.1311 107.984 37.1311 102.066C37.1311 95.8598 38.6037 93.5453 41.086 93.5453C43.8878 93.5453 45.9768 96.8798 46.3702 99.366H46.8132L46.8131 93.6185Z" fill="#AB1727"/>
<path d="M60.2152 108.572H59.7792C59.7792 109.198 59.5122 109.918 58.93 109.918C58.4941 109.918 58.3748 109.462 58.3748 108.718V103.191C58.3748 100.453 55.779 99.7793 53.2824 99.7793C50.8583 99.7793 49.0875 100.958 49.0875 102.302C49.0875 103.145 49.5717 103.864 50.6624 103.864C51.5839 103.864 52.1421 103.264 52.1421 102.422C52.1421 101.271 50.9321 101.341 50.9052 100.933C50.8838 100.404 52.2884 100.214 53.1135 100.214C54.9296 100.214 55.174 101.099 55.174 102.543V104.559L52.7967 104.752C50.5927 104.92 48.1914 105.497 48.1914 107.995C48.1914 110.085 50.0814 110.928 51.9489 110.928C52.8933 110.928 54.5661 110.565 55.198 109.414C55.6341 110.422 56.5315 110.928 57.6207 110.928C59.197 110.928 60.2152 109.99 60.2152 108.572ZM55.174 107.781C55.1257 109.054 54.3956 110.205 53.2582 110.205C51.6095 110.205 51.5385 108.718 51.5385 107.468C51.5385 106.192 51.6819 105.352 53.2582 105.185L55.174 104.992V107.781Z" fill="#AB1727"/>
<path d="M60.3516 110.638H67.6024V110.205H65.3714V104.075C65.3714 102.226 65.9537 100.929 67.4817 100.255H67.5783C67.1664 100.687 66.9961 101.069 66.9961 101.67C66.9961 102.609 67.699 103.233 68.6448 103.233C69.8093 103.233 70.488 102.396 70.488 101.48C70.488 100.325 69.7112 99.6286 68.5724 99.6286C67.0203 99.6286 65.8317 100.687 65.3716 101.888H65.3233V99.4373C64.8134 100.061 63.0199 100.061 62.0259 100.061H60.3516V100.491H62.0259V110.205H60.3516V110.638Z" fill="#AB1727"/>
<path d="M70.8672 110.638H77.3144V110.205H75.8845V103.619C75.8845 102.396 77.0972 100.639 78.4534 100.639C79.1563 100.639 79.8863 100.929 79.8863 102.609V110.205H78.503V110.638H84.902V110.205H83.2292V103.499C83.2292 100.903 82.1143 99.7735 79.8109 99.7735C78.1892 99.7735 76.5874 100.613 75.9328 102.006H75.8843V99.4373C75.3746 100.061 73.5838 100.061 72.5884 100.061H70.8672V100.491H72.5401V110.205H70.8672V110.638Z" fill="#AB1727"/>
<path d="M88.4341 104.826H95.1269C95.1028 102.232 92.6773 99.7344 90.1311 99.7794C87.2724 99.7794 84.7959 102.232 84.7959 105.473C84.7959 108.597 87.0992 110.928 90.2048 110.928C93.1871 110.928 94.6668 109.101 95.1994 106.721H94.7634C94.2309 108.957 92.8236 110.35 90.932 110.35C88.677 110.35 88.4341 108.476 88.4341 106.844V104.826ZM88.4341 104.391V102.327C88.4341 100.716 89.1386 100.214 89.9622 100.214C91.1238 100.214 91.4901 101.005 91.4901 102.327V104.391H88.4341Z" fill="#AB1727"/>
<path d="M107.166 100.862C107.166 100.019 106.246 99.5889 105.518 99.5889C104.72 99.5889 104.113 100.118 103.65 100.645C102.946 100.142 101.979 99.7788 100.621 99.7788C98.5849 99.7788 96.4007 101.1 96.4007 103.288C96.4007 104.608 97.1292 105.64 98.4144 106.217V106.263C97.4686 106.383 95.9889 107.033 95.9889 109.027C95.9889 110.225 96.5469 111.14 97.5652 111.43V111.476C96.5952 111.738 95.4805 112.699 95.4805 113.853C95.4805 115.63 97.5908 117 100.282 117C103.65 117 105.858 114.742 105.858 111.812C105.858 109.481 104.694 108.426 102.318 108.474H98.2924C97.686 108.474 96.8623 108.45 96.8623 107.803C96.8623 107.2 97.906 106.553 98.8262 106.553C99.0932 106.553 99.3588 106.625 99.6272 106.695C99.9168 106.792 100.232 106.842 100.621 106.842C102.706 106.842 104.935 105.663 104.935 103.382C104.935 102.614 104.573 101.535 103.894 100.958C104.33 100.526 104.549 99.9953 105.495 99.8771V99.925C104.985 100.188 104.84 100.5 104.84 100.983C104.84 101.535 105.228 102.088 105.954 102.088C106.732 102.088 107.166 101.509 107.166 100.862ZM97.9543 111.5H101.76C104.184 111.5 104.985 111.715 104.985 113.182C104.985 114.935 102.804 116.567 100.354 116.567C98.1715 116.567 96.9858 115.102 96.9346 113.951C96.9346 112.893 97.2983 112.197 97.9543 111.5ZM102.173 103.288C102.148 106.241 101.517 106.408 100.645 106.408C99.6754 106.408 99.1656 106.096 99.1656 103.213C99.1656 101.27 99.3842 100.213 100.645 100.213C101.784 100.213 102.148 100.526 102.173 103.288Z" fill="#AB1727"/>
<path d="M107.545 110.638H114.242V110.205H112.568V99.4373C112.058 100.061 110.262 100.061 109.269 100.061H107.545V100.491H109.218V110.205H107.545V110.638Z" fill="#AB1727"/>
<path d="M109.162 96.3446C109.162 97.2971 109.93 98.0611 110.893 98.0611C111.856 98.0611 112.624 97.2971 112.624 96.3446C112.624 95.392 111.856 94.6309 110.893 94.6309C109.93 94.6309 109.162 95.392 109.162 96.3446Z" fill="#AB1727"/>
<path d="M117.879 104.826H124.569C124.548 102.232 122.121 99.7344 119.575 99.7794C116.714 99.7794 114.239 102.232 114.239 105.473C114.239 108.597 116.547 110.928 119.647 110.928C122.631 110.928 124.112 109.101 124.643 106.721H124.207C123.674 108.957 122.268 110.35 120.376 110.35C118.122 110.35 117.879 108.476 117.879 106.844V104.826ZM117.879 104.391V102.327C117.879 100.716 118.582 100.214 119.407 100.214C120.57 100.214 120.934 101.005 120.934 102.327V104.391H117.879Z" fill="#AB1727"/>
<path d="M128.815 110.638H133.516V110.206H133.177C131.868 110.206 131.359 109.87 131.359 107.924V94.3088H131.409L137.2 110.638H137.856L143.502 94.5972H143.551V110.206H141.465V110.638H149.149V110.206H147.331V94.1639H149.149V93.7319H143.308L139.211 105.333H139.163L135.139 93.7319H128.935V94.1639H130.776V108.142C130.776 109.175 130.534 110.206 128.911 110.206H128.814L128.815 110.638Z" fill="#AB1727"/>
<path d="M152.543 104.826H159.235C159.212 102.232 156.787 99.7344 154.24 99.7794C151.38 99.7794 148.905 102.232 148.905 105.473C148.905 108.597 151.21 110.928 154.316 110.928C157.295 110.928 158.778 109.101 159.309 106.721H158.873C158.342 108.957 156.934 110.35 155.041 110.35C152.785 110.35 152.543 108.476 152.543 106.844V104.826ZM152.543 104.391V102.327C152.543 100.716 153.246 100.214 154.072 100.214C155.236 100.214 155.599 101.005 155.599 102.327V104.391H152.543Z" fill="#AB1727"/>
<path d="M159.299 110.638H165.996V110.206H164.322V93.0002C163.884 93.7206 162.549 93.7206 160.827 93.7206H159.299V94.154H160.974V110.206H159.299V110.638Z" fill="#AB1727"/>
<path d="M166.421 110.638H173.118V110.206H171.445V93.0002C171.006 93.7206 169.673 93.7206 167.95 93.7206H166.421V94.154H168.094V110.206H166.421V110.638Z" fill="#AB1727"/>
<path d="M184.383 105.352C184.383 102.063 181.814 99.7793 178.613 99.7793C175.414 99.7793 172.842 102.063 172.842 105.352C172.842 108.645 175.414 110.928 178.613 110.928C181.814 110.928 184.383 108.645 184.383 105.352ZM180.6 107.947C180.6 109.751 179.85 110.493 178.613 110.493C177.377 110.493 176.625 109.751 176.625 107.947V102.758C176.625 100.958 177.377 100.214 178.613 100.214C179.85 100.214 180.6 100.958 180.6 102.758V107.947Z" fill="#AB1727"/>
<path d="M184.396 110.638H190.846V110.205H189.417V103.619C189.417 102.396 190.629 100.639 191.988 100.639C192.688 100.639 193.418 100.929 193.418 102.609V110.205H192.033V110.638H198.435V110.205H196.761V103.499C196.761 100.903 195.647 99.7735 193.344 99.7735C191.721 99.7735 190.121 100.613 189.464 102.006H189.417V99.4373C188.91 100.061 187.114 100.061 186.119 100.061H184.398V100.491H186.071V110.205H184.398L184.396 110.638Z" fill="#AB1727"/>
<path d="M201.813 94.1637H203.704V105.044C203.704 108.765 206.295 111.023 210.248 111.023C214.708 111.023 216.646 108.692 216.646 105.161V96.1813C216.646 94.7883 217.033 94.1637 217.907 94.1637H218.537V93.7317H213.739V94.1637H214.441C215.678 94.1637 216.066 94.7883 216.066 96.1813V105.308C216.066 108.571 214.077 110.157 211.725 110.157C208.186 110.157 207.485 107.804 207.485 104.731V94.1637H209.447V93.7317H201.813V94.1637Z" fill="#AB1727"/>
<path d="M217.594 110.638H224.042V110.205H222.613V103.619C222.613 102.396 223.821 100.639 225.179 100.639C225.884 100.639 226.611 100.929 226.611 102.609V110.205H225.23V110.638H231.63V110.205H229.958V103.499C229.958 100.903 228.841 99.7735 226.54 99.7735C224.917 99.7735 223.315 100.613 222.661 102.006H222.613V99.4373C222.102 100.061 220.31 100.061 219.312 100.061H217.594V100.491H219.264V110.205H217.594V110.638Z" fill="#AB1727"/>
<path d="M231.982 110.638H238.68V110.205H237.007V99.4373C236.496 100.061 234.703 100.061 233.705 100.061H231.982V100.491H233.66V110.205H231.982V110.638Z" fill="#AB1727"/>
<path d="M233.599 96.3446C233.599 97.2971 234.371 98.0611 235.334 98.0611C236.294 98.0611 237.061 97.2971 237.061 96.3446C237.061 95.392 236.294 94.6309 235.334 94.6309C234.371 94.6309 233.599 95.392 233.599 96.3446Z" fill="#AB1727"/>
<path d="M243.591 110.928H244.246L247.833 102.519C248.44 101.174 248.947 100.525 249.506 100.501H249.725V100.068H245.944V100.501H246.405C247.108 100.501 247.52 100.764 247.52 101.389C247.52 101.776 247.398 102.302 247.108 102.974L245.459 106.818L242.622 100.501H244.077V100.068H237.992V100.501H239.034L243.591 110.928Z" fill="#AB1727"/>
<path d="M252.386 104.826H259.078C259.055 102.232 256.63 99.7344 254.085 99.7794C251.222 99.7794 248.748 102.232 248.748 105.473C248.748 108.597 251.054 110.928 254.159 110.928C257.14 110.928 258.618 109.101 259.152 106.721H258.719C258.182 108.957 256.778 110.35 254.886 110.35C252.63 110.35 252.553 108.476 252.553 106.844L252.386 104.826ZM252.386 104.391V102.327C252.386 100.716 253.09 100.214 253.915 100.214C255.078 100.214 255.44 101.005 255.44 102.327V104.391H252.386Z" fill="#AB1727"/>
<path d="M259.135 110.638H266.384V110.205H264.155V104.075C264.155 102.226 264.736 100.929 266.264 100.255H266.361C265.949 100.687 265.78 101.069 265.78 101.67C265.78 102.609 266.481 103.233 267.428 103.233C268.593 103.233 269.271 102.396 269.271 101.48C269.271 100.325 268.496 99.6286 267.354 99.6286C265.804 99.6286 264.614 100.687 264.155 101.888H264.107V99.4373C263.596 100.061 261.802 100.061 260.809 100.061H259.135V100.491H260.809V110.205H259.135V110.638Z" fill="#AB1727"/>
<path d="M269.798 110.928H270.236C270.358 110.541 270.746 110.35 271.23 110.35C271.86 110.35 272.611 110.928 273.97 110.928C276.275 110.928 277.849 108.957 277.849 106.987C277.849 104.057 275.814 103.84 273.218 103.48C271.86 103.287 271.012 103.07 271.012 102.012C271.012 100.884 272.007 100.214 273.315 100.214C275.133 100.214 276.105 101.629 276.712 103.191H277.098L276.953 99.7793H276.588C276.588 100.068 276.3 100.308 275.837 100.308C275.061 100.308 274.431 99.7793 273.315 99.7793C270.891 99.7793 269.704 101.824 269.704 103.36C269.704 106.46 272.078 106.721 273.921 106.938C275.669 107.156 276.396 107.322 276.396 108.428C276.396 109.703 275.33 110.493 274.019 110.493C272.176 110.493 270.673 108.645 270.236 106.892H269.798V110.928Z" fill="#AB1727"/>
<path d="M278.277 110.638H284.972V110.205H283.301V99.4373C282.79 100.061 280.996 100.061 280.002 100.061H278.277V100.491H279.953V110.205H278.277V110.638Z" fill="#AB1727"/>
<path d="M279.897 96.3446C279.897 97.2971 280.664 98.0611 281.626 98.0611C282.591 98.0611 283.358 97.2971 283.358 96.3446C283.358 95.392 282.591 94.6309 281.626 94.6309C280.664 94.6309 279.897 95.392 279.897 96.3446Z" fill="#AB1727"/>
<path d="M285.933 100.502V108.188C285.933 110.47 287.921 110.928 288.599 110.928C290.08 110.928 291.073 110.327 291.826 109.077L291.512 108.909C291.22 109.34 290.83 109.919 290.224 109.919C289.596 109.919 289.279 109.462 289.279 108.671V100.502H291.512V100.071H289.279V94.9062H288.843C288.843 97.4529 287.096 100.071 284.646 100.071V100.502H285.933Z" fill="#AB1727"/>
<path d="M291.431 100.5H292.447L297.1 111.187L296.957 112.146C296.86 112.844 296.374 115.583 295.574 115.821V115.751C295.67 115.413 295.696 115.151 295.696 114.935C295.696 114.117 295.116 113.492 294.094 113.492C293.029 113.492 292.496 114.214 292.496 115.126C292.496 116.111 293.419 116.809 294.481 116.809C296.4 116.809 296.884 114.717 297.1 113.709L297.756 110.78L299.017 107.658L301.417 102.3C301.951 101.079 302.434 100.5 302.969 100.5H303.162V100.067H299.382V100.5H299.891C300.664 100.5 301.006 100.934 301.006 101.342C301.006 101.819 300.689 102.614 300.303 103.525L298.898 106.816L296.06 100.5H297.661V100.067H291.431V100.5Z" fill="#AB1727"/>
</g>
<defs>
<clipPath id="clip0_353_2928">
<rect width="271" height="24" fill="white" transform="translate(33 93)"/>
</clipPath>
</defs>
</svg>
