<svg width="8" height="18" viewBox="0 0 8 18" fill="none" xmlns="http://www.w3.org/2000/svg">
    <path fill-rule="evenodd" clip-rule="evenodd" d="M7.31749 17.2024H5.75055C5.67342 16.5511 5.53955 15.8888 5.34541 15.2251C4.73444 13.1365 3.62797 11.381 2.28258 10.1546C1.77835 9.69498 1.24056 9.30965 0.682721 9.00894C1.24054 8.70819 1.77831 8.32283 2.28251 7.86316C3.62774 6.63677 4.73407 4.88145 5.34498 2.79301C5.5409 2.12324 5.67543 1.45487 5.75222 0.797916L7.31749 0.797916V2.6062H7.26477C7.20963 2.83761 7.14824 3.06921 7.08053 3.30069C6.41757 5.56709 5.22432 7.55072 3.70509 9.00885C5.22453 10.467 6.41794 12.4508 7.08096 14.7174C7.14694 14.943 7.2069 15.1686 7.26094 15.3941H7.31749V17.2024Z" fill="currentColor"/>
</svg>
