<svg width="7" height="17" viewBox="0 0 7 17" fill="none" xmlns="http://www.w3.org/2000/svg">
    <path fill-rule="evenodd" clip-rule="evenodd" d="M0.365128 16.7022H1.93207C2.0092 16.051 2.14306 15.3887 2.33721 14.725C2.94817 12.6364 4.05465 10.8809 5.40004 9.65449C5.90427 9.19486 6.44206 8.80953 6.9999 8.50882C6.44208 8.20807 5.90431 7.82271 5.40011 7.36304C4.05488 6.13665 2.94855 4.38133 2.33764 2.29289C2.14172 1.62312 2.00719 0.954753 1.9304 0.297794L0.365128 0.297794V2.10608H0.417843C0.472988 2.33749 0.534372 2.56909 0.602085 2.80057C1.26505 5.06696 2.4583 7.0506 3.97753 8.50873C2.45809 9.96689 1.26468 11.9507 0.601654 14.2173C0.535682 14.4428 0.475716 14.6685 0.421676 14.8939H0.365128V16.7022Z" fill="currentColor"/>
</svg>
