<svg width="229" height="34" viewBox="0 0 229 34" fill="none" xmlns="http://www.w3.org/2000/svg">
  <g clip-path="url(#clip0_1073_639)">
    <path
      d="M30.6688 17.2806C29.0496 15.8592 28.6198 14.0089 28.6198 12.4059C28.6198 11.282 28.9668 9.33256 30.553 7.87838C31.7426 6.78769 33.3126 6.12671 35.7746 6.12671C36.7992 6.12671 37.4105 6.19269 38.1706 6.29226C38.7984 6.37469 39.3273 6.52324 39.8229 6.57303C40.0049 6.58949 40.0707 6.67206 40.0707 6.77122C40.0707 6.90331 40.0212 7.10165 39.9883 7.68019C39.9552 8.22553 39.9714 9.13409 39.9388 9.46465C39.9221 9.71236 39.8893 9.84472 39.7403 9.84472C39.6082 9.84472 39.575 9.71236 39.575 9.48111C39.5586 8.96868 39.3438 8.39054 38.9308 7.96096C38.3854 7.38255 37.0965 6.9365 35.5764 6.9365C34.1388 6.9365 33.1968 7.29984 32.4696 7.96096C31.2635 9.06798 30.9493 10.6379 30.9493 12.2408C30.9493 16.1729 33.9402 18.1232 36.1545 18.1232C37.6252 18.1232 38.5175 17.9578 39.1786 17.1974C39.4594 16.8842 39.6742 16.405 39.7403 16.1073C39.79 15.8429 39.8228 15.7766 39.9552 15.7766C40.0706 15.7766 40.1041 15.8927 40.1041 16.0245C40.1041 16.2227 39.9057 17.6601 39.7403 18.2225C39.6577 18.5031 39.5915 18.5857 39.3106 18.7014C38.6496 18.9659 37.394 19.0815 36.3364 19.0815C34.0727 19.0817 32.1723 18.5858 30.6688 17.2806Z"
      fill="#093552" stroke="#093552" stroke-width="0.12804"/>
    <path
      d="M42.1855 13.6163C42.1855 11.2521 43.7479 8.19678 47.8958 8.19678C51.3384 8.19678 53.4814 10.2014 53.4814 13.3673C53.4814 16.5334 51.2692 19.0359 47.7575 19.0359C43.7895 19.036 42.1855 16.0636 42.1855 13.6163ZM51.5459 13.8794C51.5459 10.7821 49.7624 8.86045 47.4949 8.86045C45.9049 8.86045 44.0937 9.74553 44.0937 13.188C44.0937 16.0636 45.684 18.345 48.3383 18.345C49.306 18.345 51.5459 17.8746 51.5459 13.8794Z"
      fill="#093552" stroke="#093552" stroke-width="0.12804"/>
    <path
      d="M58.4341 14.8332C58.4341 16.6032 58.4341 17.5569 58.7247 17.8055C58.9597 18.0132 59.319 18.11 60.3976 18.11C61.1303 18.11 61.6695 18.0964 62.0152 17.7228C62.1812 17.5431 62.3469 17.1564 62.3747 16.8932C62.3888 16.7691 62.416 16.6857 62.5268 16.6857C62.6236 16.6857 62.6373 16.7545 62.6373 16.9211C62.6373 17.0729 62.5405 18.11 62.4298 18.5112C62.3469 18.8151 62.278 18.8843 61.559 18.8843C59.5681 18.8843 58.6556 18.8014 57.5358 18.8014C57.2176 18.8014 56.3465 18.8431 55.7934 18.8431C55.6137 18.8431 55.517 18.8014 55.517 18.705C55.517 18.6356 55.5723 18.5945 55.7384 18.5945C55.9455 18.5945 56.1114 18.5665 56.2357 18.5387C56.5124 18.4835 56.5815 18.1795 56.637 17.7787C56.7059 17.1981 56.7059 16.1057 56.7059 14.8335V12.4002C56.7059 10.2984 56.7059 9.91118 56.6782 9.46918C56.6508 8.99858 56.5402 8.77771 56.0839 8.68084C55.9731 8.65318 55.8075 8.63928 55.6276 8.63928C55.4757 8.63928 55.3926 8.61163 55.3926 8.51502C55.3926 8.41828 55.4894 8.39062 55.697 8.39062C56.3465 8.39062 57.2176 8.43205 57.5908 8.43205C57.9227 8.43205 58.9321 8.39062 59.4712 8.39062C59.6647 8.39062 59.7616 8.41828 59.7616 8.51502C59.7616 8.61163 59.6787 8.63928 59.5128 8.63928C59.3607 8.63928 59.1393 8.65318 58.9738 8.68084C58.6003 8.74992 58.4897 8.98495 58.4622 9.46918C58.4342 9.91105 58.4342 10.2984 58.4342 12.4002V14.8332H58.4341Z"
      fill="#093552" stroke="#093552" stroke-width="0.12804"/>
    <path
      d="M65.3016 12.4003C65.3016 10.2985 65.3016 9.91132 65.2737 9.46932C65.2461 8.99871 65.1356 8.77785 64.6792 8.68097C64.5687 8.65332 64.3335 8.63942 64.1399 8.63942C63.988 8.63942 63.905 8.61176 63.905 8.51516C63.905 8.41842 64.0016 8.39076 64.2091 8.39076C64.9419 8.39076 65.8129 8.43218 66.2276 8.43218C66.5593 8.43218 67.4305 8.39076 67.9281 8.39076C68.1355 8.39076 68.2322 8.41842 68.2322 8.51516C68.2322 8.61176 68.1494 8.63942 68.0112 8.63942C67.859 8.63942 67.776 8.65332 67.6102 8.68097C67.2368 8.75005 67.1264 8.98509 67.0987 9.46932C67.0708 9.91118 67.0708 10.2985 67.0708 12.4003V14.3355C67.0708 16.3406 67.4717 17.1838 68.1492 17.7366C68.7713 18.2482 69.4075 18.3035 69.8776 18.3035C70.4859 18.3035 71.2324 18.11 71.7853 17.5569C72.5459 16.7971 72.5876 15.5521 72.5876 14.1285V12.4002C72.5876 10.2984 72.5876 9.91118 72.5599 9.46918C72.5323 8.99858 72.4215 8.77771 71.9653 8.68084C71.8546 8.65318 71.6197 8.63928 71.4675 8.63928C71.3155 8.63928 71.2324 8.61163 71.2324 8.51502C71.2324 8.41828 71.3294 8.39062 71.5227 8.39062C72.2279 8.39062 73.0991 8.43205 73.1128 8.43205C73.2786 8.43205 74.1498 8.39062 74.689 8.39062C74.8826 8.39062 74.9793 8.41828 74.9793 8.51502C74.9793 8.61163 74.8963 8.63928 74.7307 8.63928C74.5782 8.63928 74.4952 8.65318 74.3295 8.68084C73.9561 8.74992 73.8457 8.98495 73.8178 9.46918C73.7901 9.91105 73.7901 10.2984 73.7901 12.4002V13.8796C73.7901 15.4143 73.6381 17.0451 72.4769 18.0412C71.4953 18.8843 70.4997 19.0363 69.6011 19.0363C68.8684 19.0363 67.5411 18.9948 66.5318 18.0824C65.8268 17.4462 65.3015 16.4233 65.3015 14.4186V12.4003H65.3016Z"
      fill="#093552" stroke="#093552" stroke-width="0.12804"/>
    <path
      d="M78.2985 8.44612C78.3398 8.21109 78.4229 8.08643 78.5336 8.08643C78.644 8.08643 78.7273 8.15578 78.907 8.51534L82.6811 16.3132L86.442 8.4186C86.5386 8.19733 86.6217 8.08656 86.7463 8.08656C86.8705 8.08656 86.9534 8.22512 86.9948 8.51547L88.2533 17.0597C88.3777 17.9304 88.5157 18.3314 88.9308 18.4564C89.3315 18.5806 89.6082 18.5947 89.7878 18.5947C89.9124 18.5947 90.0092 18.6083 90.0092 18.6913C90.0092 18.8017 89.8434 18.8434 89.6496 18.8434C89.3041 18.8434 87.396 18.8017 86.843 18.7604C86.5251 18.7327 86.4422 18.6913 86.4422 18.6083C86.4422 18.5389 86.4975 18.4973 86.5942 18.4564C86.677 18.4284 86.7185 18.2486 86.6633 17.8614L85.8341 11.7779H85.7783L82.7645 18.0553C82.4465 18.7052 82.3774 18.8293 82.2529 18.8293C82.1286 18.8293 81.9902 18.5529 81.769 18.1383C81.4373 17.5021 80.3451 15.3866 80.179 14.9998C80.0547 14.7091 79.2251 12.9676 78.7412 11.9305H78.6857L77.967 17.4331C77.9393 17.6817 77.9256 17.8614 77.9256 18.0827C77.9256 18.3455 78.1053 18.4699 78.34 18.5252C78.5891 18.5804 78.7826 18.5947 78.9209 18.5947C79.0316 18.5947 79.1281 18.622 79.1281 18.6913C79.1281 18.8156 79.0037 18.8434 78.7966 18.8434C78.2158 18.8434 77.5937 18.8017 77.3449 18.8017C77.0823 18.8017 76.4185 18.8434 75.976 18.8434C75.8377 18.8434 75.7273 18.8156 75.7273 18.6913C75.7273 18.622 75.81 18.5947 75.9486 18.5947C76.0592 18.5947 76.1559 18.5947 76.3633 18.5529C76.7503 18.4699 76.8609 17.9302 76.9301 17.4607L78.2985 8.44612Z"
      fill="#093552" stroke="#093552" stroke-width="0.12804"/>
    <path
      d="M93.0507 12.4002C93.0507 10.2984 93.0507 9.91118 93.0231 9.46918C92.9954 8.99858 92.8848 8.77771 92.4286 8.68084C92.3184 8.65318 92.0829 8.63928 91.8893 8.63928C91.7375 8.63928 91.6543 8.61163 91.6543 8.51502C91.6543 8.41828 91.7509 8.39062 91.958 8.39062C92.6912 8.39062 93.5622 8.43205 93.8385 8.43205C94.516 8.43205 95.0551 8.39062 95.5256 8.39062C98.0277 8.39062 98.4702 9.7316 98.4702 10.4644C98.4702 11.5982 97.8203 12.2755 97.06 12.884C98.1939 13.271 99.576 14.2524 99.576 15.8698C99.576 17.3495 98.4285 18.8842 95.8847 18.8842C95.5531 18.8842 94.295 18.8012 93.8802 18.8012C93.5622 18.8012 92.6912 18.8429 92.138 18.8429C91.958 18.8429 91.8617 18.8012 91.8617 18.7049C91.8617 18.6354 91.9169 18.5944 92.0827 18.5944C92.2903 18.5944 92.456 18.5663 92.5804 18.5385C92.8568 18.4834 92.9261 18.1794 92.9814 17.7785C93.0505 17.198 93.0505 16.1055 93.0505 14.8334V12.4002H93.0507ZM94.71 12.6352C94.71 12.7455 94.7513 12.7733 94.8066 12.7871C94.9314 12.8144 95.1385 12.8286 95.4565 12.8286C95.9127 12.8286 96.2169 12.7733 96.4519 12.566C96.8112 12.2755 97.0187 11.7774 97.0187 11.1005C97.0187 10.1741 96.4795 8.95756 95.2907 8.95756C95.0971 8.95756 94.9725 8.95756 94.8342 8.98522C94.7374 9.01288 94.7098 9.06806 94.7098 9.22039V12.6352H94.71ZM96.5349 13.7413C96.2448 13.5334 95.9266 13.4368 95.3874 13.4094C95.1385 13.3952 95.0003 13.3952 94.7931 13.3952C94.7375 13.3952 94.71 13.4233 94.71 13.4925V16.7692C94.71 17.6814 94.7513 17.9164 95.1938 18.0967C95.5671 18.2483 95.8849 18.262 96.2029 18.262C96.8253 18.262 97.876 17.9301 97.876 16.4926C97.8762 15.6355 97.5858 14.4741 96.5349 13.7413Z"
      fill="#093552" stroke="#093552" stroke-width="0.12804"/>
    <path
      d="M102.645 12.4002C102.645 10.2984 102.645 9.91118 102.617 9.46918C102.59 8.99858 102.452 8.76368 102.147 8.6946C101.995 8.65318 101.816 8.63928 101.65 8.63928C101.511 8.63928 101.428 8.61163 101.428 8.50099C101.428 8.41828 101.539 8.39062 101.76 8.39062C102.285 8.39062 103.157 8.43205 103.557 8.43205C103.903 8.43205 104.719 8.39062 105.245 8.39062C105.424 8.39062 105.535 8.41828 105.535 8.50099C105.535 8.61163 105.452 8.63928 105.313 8.63928C105.175 8.63928 105.065 8.65318 104.899 8.68084C104.525 8.74992 104.415 8.98495 104.387 9.46918C104.359 9.91105 104.359 10.2984 104.359 12.4002V14.8332C104.359 16.1742 104.359 17.2668 104.415 17.8608C104.456 18.2346 104.553 18.4831 104.968 18.5383C105.161 18.5661 105.466 18.5941 105.673 18.5941C105.825 18.5941 105.894 18.6353 105.894 18.7046C105.894 18.8011 105.784 18.8427 105.631 18.8427C104.719 18.8427 103.848 18.801 103.474 18.801C103.157 18.801 102.285 18.8427 101.732 18.8427C101.553 18.8427 101.456 18.801 101.456 18.7046C101.456 18.6351 101.511 18.5941 101.677 18.5941C101.885 18.5941 102.05 18.5661 102.175 18.5383C102.451 18.4831 102.535 18.2481 102.576 17.8472C102.645 17.2666 102.645 16.1742 102.645 14.8331V12.4002H102.645Z"
      fill="#093552" stroke="#093552" stroke-width="0.12804"/>
    <path
      d="M111.059 15.2339C110.989 15.2339 110.961 15.2614 110.934 15.3444L110.187 17.3216C110.049 17.6672 109.979 17.999 109.979 18.1649C109.979 18.4137 110.104 18.5939 110.533 18.5939H110.741C110.906 18.5939 110.947 18.6211 110.947 18.7044C110.947 18.8146 110.865 18.8424 110.713 18.8424C110.27 18.8424 109.676 18.8007 109.247 18.8007C109.095 18.8007 108.335 18.8424 107.616 18.8424C107.436 18.8424 107.353 18.8146 107.353 18.7044C107.353 18.6211 107.408 18.5939 107.519 18.5939C107.644 18.5939 107.837 18.5797 107.947 18.5658C108.584 18.4828 108.846 18.0127 109.123 17.3216L112.593 8.63887C112.759 8.23802 112.842 8.08569 112.98 8.08569C113.105 8.08569 113.187 8.21036 113.326 8.52837C113.657 9.28878 115.87 14.9297 116.755 17.0311C117.28 18.2758 117.681 18.4691 117.972 18.538C118.179 18.5797 118.386 18.5939 118.552 18.5939C118.662 18.5939 118.732 18.6075 118.732 18.7044C118.732 18.8146 118.607 18.8424 118.096 18.8424C117.598 18.8424 116.589 18.8424 115.482 18.8146C115.233 18.8007 115.068 18.8007 115.068 18.7044C115.068 18.6211 115.124 18.5939 115.262 18.5796C115.359 18.552 115.455 18.4274 115.386 18.2613L114.28 15.3304C114.252 15.2613 114.21 15.2338 114.142 15.2338H111.059V15.2339ZM113.879 14.5429C113.948 14.5429 113.962 14.5009 113.948 14.4597L112.704 11.0446C112.69 10.9896 112.676 10.9202 112.635 10.9202C112.593 10.9202 112.565 10.9896 112.552 11.0446L111.28 14.4459C111.265 14.5009 111.28 14.5429 111.335 14.5429H113.879Z"
      fill="#093552" stroke="#093552" stroke-width="0.12804"/>
    <path
      d="M125.871 11.151C125.871 8.63894 125.871 8.17629 125.838 7.64781C125.805 7.08586 125.673 6.82142 125.128 6.70579C124.995 6.67274 124.715 6.65628 124.483 6.65628C124.301 6.65628 124.202 6.62322 124.202 6.50746C124.202 6.3921 124.318 6.35864 124.565 6.35864C125.441 6.35864 126.483 6.40843 126.979 6.40843C127.375 6.40843 128.416 6.35864 129.011 6.35864C129.258 6.35864 129.375 6.39197 129.375 6.50746C129.375 6.62322 129.275 6.65628 129.11 6.65628C128.928 6.65628 128.829 6.67274 128.631 6.70579C128.184 6.78836 128.052 7.06927 128.019 7.64781C127.986 8.17629 127.986 8.63907 127.986 11.151V13.4642C127.986 15.8599 128.465 16.868 129.275 17.5291C130.019 18.1407 130.779 18.2066 131.341 18.2066C132.068 18.2066 132.96 17.9757 133.621 17.3145C134.53 16.4056 134.579 14.9184 134.579 13.2164V11.151C134.579 8.63894 134.579 8.17629 134.546 7.64781C134.514 7.08586 134.381 6.82142 133.835 6.70579C133.703 6.67274 133.422 6.65628 133.241 6.65628C133.059 6.65628 132.96 6.62322 132.96 6.50746C132.96 6.3921 133.075 6.35864 133.307 6.35864C134.15 6.35864 135.191 6.40843 135.207 6.40843C135.406 6.40843 136.446 6.35864 137.091 6.35864C137.322 6.35864 137.437 6.39197 137.437 6.50746C137.437 6.62322 137.339 6.65628 137.14 6.65628C136.959 6.65628 136.859 6.67274 136.661 6.70579C136.215 6.78836 136.083 7.06927 136.05 7.64781C136.017 8.17629 136.017 8.63907 136.017 11.151V12.9192C136.017 14.7529 135.835 16.7026 134.447 17.8926C133.274 18.9005 132.084 19.0822 131.01 19.0822C130.134 19.0822 128.548 19.0324 127.342 17.9416C126.499 17.1818 125.871 15.9595 125.871 13.5631L125.871 11.151Z"
      fill="#093552" stroke="#093552" stroke-width="0.12804"/>
    <path
      d="M140.817 16.9624C140.845 18.0409 141.024 18.3995 141.301 18.4965C141.536 18.5798 141.798 18.5941 142.02 18.5941C142.172 18.5941 142.255 18.6213 142.255 18.7046C142.255 18.8148 142.131 18.8426 141.937 18.8426C141.038 18.8426 140.485 18.8009 140.223 18.8009C140.098 18.8009 139.448 18.8426 138.729 18.8426C138.55 18.8426 138.426 18.8286 138.426 18.7046C138.426 18.6213 138.508 18.5941 138.646 18.5941C138.826 18.5941 139.075 18.5799 139.269 18.5246C139.628 18.414 139.683 18.013 139.697 16.8099L139.822 8.62534C139.822 8.34888 139.863 8.15527 140.001 8.15527C140.154 8.15527 140.278 8.33512 140.513 8.58419C140.679 8.7635 142.78 11.0173 144.799 13.022C145.739 13.962 147.605 15.953 147.84 16.1741H147.909L147.772 9.96645C147.758 9.12333 147.633 8.8605 147.302 8.72221C147.094 8.63923 146.762 8.63923 146.569 8.63923C146.402 8.63923 146.347 8.59768 146.347 8.51497C146.347 8.4042 146.499 8.39057 146.706 8.39057C147.426 8.39057 148.089 8.432 148.38 8.432C148.532 8.432 149.057 8.39057 149.735 8.39057C149.914 8.39057 150.052 8.4042 150.052 8.51497C150.052 8.59768 149.969 8.63923 149.804 8.63923C149.665 8.63923 149.555 8.63923 149.389 8.68079C149.002 8.79129 148.891 9.08164 148.877 9.85595L148.725 18.5799C148.725 18.8842 148.67 19.0088 148.546 19.0088C148.394 19.0088 148.227 18.8564 148.075 18.7047C147.205 17.8748 145.435 16.0636 143.997 14.6397C142.49 13.1464 140.955 11.4183 140.706 11.1556H140.665L140.817 16.9624Z"
      fill="#093552" stroke="#093552" stroke-width="0.12804"/>
    <path
      d="M153.58 12.4002C153.58 10.2984 153.58 9.91118 153.553 9.46918C153.525 8.99858 153.386 8.76368 153.083 8.6946C152.931 8.65318 152.75 8.63928 152.585 8.63928C152.447 8.63928 152.363 8.61163 152.363 8.50099C152.363 8.41828 152.475 8.39062 152.696 8.39062C153.221 8.39062 154.092 8.43205 154.493 8.43205C154.839 8.43205 155.654 8.39062 156.18 8.39062C156.36 8.39062 156.47 8.41828 156.47 8.50099C156.47 8.61163 156.387 8.63928 156.249 8.63928C156.111 8.63928 156 8.65318 155.834 8.68084C155.461 8.74992 155.35 8.98495 155.322 9.46918C155.294 9.91105 155.294 10.2984 155.294 12.4002V14.8332C155.294 16.1742 155.294 17.2668 155.35 17.8608C155.391 18.2346 155.488 18.4831 155.903 18.5383C156.097 18.5661 156.401 18.5941 156.608 18.5941C156.76 18.5941 156.829 18.6353 156.829 18.7046C156.829 18.8011 156.719 18.8427 156.567 18.8427C155.654 18.8427 154.783 18.801 154.41 18.801C154.092 18.801 153.221 18.8427 152.668 18.8427C152.489 18.8427 152.391 18.801 152.391 18.7046C152.391 18.6351 152.447 18.5941 152.613 18.5941C152.82 18.5941 152.986 18.5661 153.111 18.5383C153.386 18.4831 153.469 18.2481 153.512 17.8472C153.58 17.2666 153.58 16.1742 153.58 14.8331V12.4002H153.58Z"
      fill="#093552" stroke="#093552" stroke-width="0.12804"/>
    <path
      d="M159.652 9.74577C159.334 8.98522 159.099 8.83303 158.601 8.69474C158.393 8.63942 158.172 8.63942 158.062 8.63942C157.937 8.63942 157.896 8.59786 157.896 8.51516C157.896 8.40439 158.048 8.39076 158.256 8.39076C158.988 8.39076 159.776 8.43218 160.26 8.43218C160.606 8.43218 161.269 8.39076 161.96 8.39076C162.127 8.39076 162.279 8.41842 162.279 8.51516C162.279 8.61176 162.196 8.63942 162.071 8.63942C161.85 8.63942 161.642 8.65332 161.532 8.73616C161.435 8.80551 161.394 8.90224 161.394 9.02664C161.394 9.20636 161.519 9.59344 161.712 10.0913L164.09 16.3679H164.145C164.739 14.8468 166.537 10.3954 166.869 9.48281C166.938 9.30309 166.993 9.09572 166.993 8.97132C166.993 8.86069 166.938 8.75005 166.814 8.70863C166.648 8.65318 166.44 8.63928 166.261 8.63928C166.135 8.63928 166.026 8.62552 166.026 8.52878C166.026 8.41828 166.15 8.39062 166.413 8.39062C167.104 8.39062 167.684 8.43205 167.864 8.43205C168.099 8.43205 168.749 8.39062 169.163 8.39062C169.343 8.39062 169.454 8.41828 169.454 8.51502C169.454 8.61163 169.371 8.63928 169.233 8.63928C169.095 8.63928 168.804 8.63928 168.555 8.80524C168.375 8.9295 168.168 9.1648 167.795 10.0495C167.256 11.3494 166.882 12.0953 166.135 13.7961C165.251 15.8149 164.601 17.3218 164.297 18.013C163.938 18.8149 163.855 19.036 163.661 19.036C163.481 19.036 163.398 18.8427 163.136 18.1926L159.652 9.74577Z"
      fill="#093552" stroke="#093552" stroke-width="0.12804"/>
    <path
      d="M171.646 12.4002C171.646 10.2984 171.646 9.91122 171.619 9.46922C171.591 8.99862 171.481 8.77775 171.024 8.68088C170.914 8.65322 170.678 8.63932 170.484 8.63932C170.333 8.63932 170.25 8.61166 170.25 8.51506C170.25 8.41832 170.347 8.39066 170.554 8.39066C171.286 8.39066 172.158 8.43209 172.545 8.43209C172.988 8.43209 175.739 8.43209 176.001 8.41832C176.264 8.39066 176.485 8.36287 176.596 8.33535C176.665 8.32131 176.748 8.28003 176.817 8.28003C176.886 8.28003 176.9 8.33535 176.9 8.40429C176.9 8.50103 176.831 8.66712 176.79 9.30327C176.775 9.44116 176.748 10.0498 176.72 10.2156C176.706 10.2847 176.679 10.3678 176.583 10.3678C176.485 10.3678 176.458 10.2986 176.458 10.174C176.458 10.0773 176.444 9.84214 176.375 9.67619C176.278 9.42766 176.139 9.26158 175.448 9.1786C175.213 9.15108 173.761 9.12355 173.485 9.12355C173.416 9.12355 173.388 9.16497 173.388 9.26171V12.7598C173.388 12.8567 173.402 12.9117 173.485 12.9117C173.789 12.9117 175.38 12.9117 175.697 12.8842C176.029 12.8567 176.236 12.8144 176.361 12.6767C176.458 12.5661 176.513 12.4967 176.583 12.4967C176.637 12.4967 176.679 12.5248 176.679 12.6075C176.679 12.6902 176.61 12.9116 176.569 13.6165C176.541 13.8933 176.513 14.4462 176.513 14.5432C176.513 14.6535 176.513 14.8053 176.389 14.8053C176.292 14.8053 176.264 14.7504 176.264 14.6812C176.25 14.5432 176.25 14.3635 176.209 14.1832C176.14 13.9072 175.947 13.6997 175.434 13.6443C175.173 13.6165 173.803 13.6032 173.471 13.6032C173.402 13.6032 173.388 13.6578 173.388 13.7412V14.8331C173.388 15.3031 173.375 16.5752 173.388 16.9761C173.416 17.9297 173.637 18.1377 175.047 18.1377C175.407 18.1377 175.988 18.1377 176.348 17.9714C176.706 17.8056 176.872 17.5156 176.97 16.9487C176.997 16.7969 177.025 16.7408 177.121 16.7408C177.232 16.7408 177.232 16.8517 177.232 16.99C177.232 17.3076 177.121 18.248 177.052 18.5247C176.956 18.8841 176.831 18.8841 176.306 18.8841C174.218 18.8841 173.292 18.8011 172.476 18.8011C172.158 18.8011 171.287 18.8428 170.734 18.8428C170.554 18.8428 170.458 18.8011 170.458 18.7048C170.458 18.6353 170.513 18.5943 170.679 18.5943C170.886 18.5943 171.052 18.5662 171.176 18.5385C171.453 18.4833 171.522 18.1793 171.577 17.7784C171.647 17.1979 171.647 16.1054 171.647 14.8333V12.4002H171.646Z"
      fill="#093552" stroke="#093552" stroke-width="0.12804"/>
    <path
      d="M181.144 12.4002C181.144 10.2984 181.144 9.91118 181.116 9.46918C181.089 8.99858 180.979 8.77771 180.522 8.68084C180.412 8.65318 180.177 8.63928 179.983 8.63928C179.831 8.63928 179.748 8.61163 179.748 8.51502C179.748 8.41828 179.845 8.39062 180.053 8.39062C180.785 8.39062 181.656 8.43205 181.947 8.43205C182.417 8.43205 183.467 8.39062 183.896 8.39062C184.767 8.39062 185.693 8.4736 186.44 8.98509C186.827 9.24764 187.38 9.95287 187.38 10.8791C187.38 11.9023 186.951 12.8422 185.555 13.9761C186.785 15.525 187.739 16.7546 188.555 17.6124C189.33 18.4143 189.896 18.5113 190.104 18.5527C190.256 18.5802 190.38 18.5945 190.491 18.5945C190.601 18.5945 190.657 18.6357 190.657 18.705C190.657 18.8153 190.56 18.8431 190.394 18.8431H189.081C188.306 18.8431 187.961 18.7737 187.601 18.5802C187.007 18.262 186.482 17.6125 185.707 16.5481C185.154 15.7872 184.518 14.847 184.339 14.64C184.269 14.557 184.186 14.5434 184.09 14.5434L182.887 14.5153C182.818 14.5153 182.776 14.5434 182.776 14.6264V14.8195C182.776 16.1055 182.776 17.1981 182.845 17.7787C182.887 18.1795 182.969 18.4835 183.384 18.5387C183.592 18.5665 183.896 18.5945 184.062 18.5945C184.172 18.5945 184.227 18.6357 184.227 18.705C184.227 18.8015 184.13 18.8431 183.951 18.8431C183.15 18.8431 182.126 18.8014 181.919 18.8014C181.656 18.8014 180.785 18.8431 180.232 18.8431C180.053 18.8431 179.956 18.8014 179.956 18.705C179.956 18.6356 180.011 18.5945 180.177 18.5945C180.384 18.5945 180.55 18.5665 180.675 18.5387C180.951 18.4835 181.02 18.1795 181.076 17.7787C181.145 17.1981 181.145 16.1057 181.145 14.8335V12.4002H181.144ZM182.776 13.4924C182.776 13.6443 182.804 13.6996 182.9 13.7413C183.191 13.8382 183.606 13.8796 183.951 13.8796C184.504 13.8796 184.684 13.824 184.933 13.6443C185.347 13.3398 185.748 12.7043 185.748 11.5703C185.748 9.60707 184.449 9.0404 183.634 9.0404C183.287 9.0404 183.039 9.05416 182.9 9.09586C182.803 9.12351 182.776 9.17856 182.776 9.28933L182.776 13.4924Z"
      fill="#093552" stroke="#093552" stroke-width="0.12804"/>
    <path
      d="M191.668 18.677C191.447 18.5802 191.406 18.5113 191.406 18.207C191.406 17.4463 191.461 16.617 191.475 16.3961C191.489 16.1881 191.531 16.0367 191.641 16.0367C191.766 16.0367 191.78 16.1606 191.78 16.2717C191.78 16.4514 191.835 16.7411 191.904 16.9764C192.208 17.9997 193.024 18.3727 193.88 18.3727C195.125 18.3727 195.733 17.5295 195.733 16.7972C195.733 16.1193 195.526 15.4698 194.378 14.5848L193.742 14.0871C192.222 12.8982 191.696 11.9302 191.696 10.8101C191.696 9.28945 192.968 8.19727 194.89 8.19727C195.788 8.19727 196.369 8.33542 196.729 8.43216C196.853 8.45982 196.922 8.50124 196.922 8.59798C196.922 8.77783 196.867 9.17868 196.867 10.2572C196.867 10.5612 196.826 10.6721 196.715 10.6721C196.618 10.6721 196.577 10.5893 196.577 10.4232C196.577 10.2987 196.508 9.87015 196.218 9.51058C196.01 9.24789 195.609 8.83315 194.71 8.83315C193.687 8.83315 193.065 9.42788 193.065 10.2572C193.065 10.893 193.383 11.3768 194.531 12.248L194.918 12.5386C196.577 13.8241 197.185 14.7506 197.185 16.0638C197.185 16.8661 196.881 17.8202 195.885 18.4696C195.194 18.9117 194.42 19.0362 193.687 19.0362C192.885 19.0364 192.263 18.9398 191.668 18.677Z"
      fill="#093552" stroke="#093552" stroke-width="0.12804"/>
    <path
      d="M201.086 12.4002C201.086 10.2984 201.086 9.91118 201.057 9.46918C201.03 8.99858 200.892 8.76368 200.587 8.6946C200.435 8.65318 200.256 8.63928 200.09 8.63928C199.951 8.63928 199.869 8.61163 199.869 8.50099C199.869 8.41828 199.979 8.39062 200.201 8.39062C200.726 8.39062 201.597 8.43205 201.997 8.43205C202.343 8.43205 203.159 8.39062 203.684 8.39062C203.864 8.39062 203.975 8.41828 203.975 8.50099C203.975 8.61163 203.892 8.63928 203.753 8.63928C203.615 8.63928 203.504 8.65318 203.339 8.68084C202.966 8.74992 202.855 8.98495 202.827 9.46918C202.799 9.91105 202.799 10.2984 202.799 12.4002V14.8332C202.799 16.1742 202.799 17.2668 202.855 17.8608C202.897 18.2346 202.993 18.4831 203.408 18.5383C203.601 18.5661 203.906 18.5941 204.114 18.5941C204.265 18.5941 204.334 18.6353 204.334 18.7046C204.334 18.8011 204.224 18.8427 204.072 18.8427C203.159 18.8427 202.288 18.801 201.915 18.801C201.597 18.801 200.726 18.8427 200.173 18.8427C199.993 18.8427 199.897 18.801 199.897 18.7046C199.897 18.6351 199.951 18.5941 200.118 18.5941C200.325 18.5941 200.491 18.5661 200.615 18.5383C200.892 18.4831 200.975 18.2481 201.017 17.8472C201.086 17.2666 201.086 16.1742 201.086 14.8331V12.4002H201.086Z"
      fill="#093552" stroke="#093552" stroke-width="0.12804"/>
    <path
      d="M210.53 9.16505L208.47 9.22037C207.668 9.24789 207.336 9.31684 207.129 9.62135C206.991 9.82873 206.922 9.99441 206.894 10.1052C206.866 10.2157 206.825 10.2711 206.741 10.2711C206.645 10.2711 206.618 10.2019 206.618 10.0499C206.618 9.82873 206.88 8.57059 206.908 8.45982C206.95 8.28011 206.991 8.19727 207.073 8.19727C207.184 8.19727 207.322 8.33542 207.668 8.36308C208.069 8.4045 208.595 8.43216 209.051 8.43216H214.526C215.41 8.43216 215.742 8.29387 215.853 8.29387C215.95 8.29387 215.963 8.37698 215.963 8.58462C215.963 8.87457 215.922 9.82873 215.922 10.1883C215.908 10.3263 215.881 10.4094 215.798 10.4094C215.688 10.4094 215.659 10.3403 215.645 10.133L215.632 9.98078C215.604 9.62149 215.231 9.23413 214 9.20647L212.258 9.16519V14.8336C212.258 16.1058 212.258 17.1982 212.327 17.7924C212.369 18.1796 212.452 18.4836 212.866 18.5388C213.06 18.5666 213.364 18.5947 213.572 18.5947C213.724 18.5947 213.793 18.6358 213.793 18.7052C213.793 18.8016 213.682 18.8432 213.531 18.8432C212.617 18.8432 211.747 18.8015 211.36 18.8015C211.041 18.8015 210.171 18.8432 209.618 18.8432C209.438 18.8432 209.341 18.8015 209.341 18.7052C209.341 18.6357 209.397 18.5947 209.562 18.5947C209.769 18.5947 209.936 18.5666 210.06 18.5388C210.336 18.4836 210.419 18.1796 210.461 17.7788C210.53 17.1982 210.53 16.1058 210.53 14.8336V9.16505Z"
      fill="#093552" stroke="#093552" stroke-width="0.12804"/>
    <path
      d="M221.998 15.2623C221.998 14.5157 221.86 14.2118 221.681 13.811C221.584 13.5896 219.731 10.5481 219.247 9.82907C218.902 9.31732 218.556 8.97192 218.293 8.82C218.114 8.72299 217.879 8.64002 217.713 8.64002C217.602 8.64002 217.505 8.61236 217.505 8.51575C217.505 8.43264 217.602 8.39136 217.768 8.39136C218.016 8.39136 219.054 8.43278 219.51 8.43278C219.8 8.43278 220.367 8.39136 220.99 8.39136C221.128 8.39136 221.197 8.43278 221.197 8.51575C221.197 8.59846 221.1 8.61236 220.893 8.66767C220.768 8.69533 220.699 8.80597 220.699 8.91647C220.699 9.02724 220.768 9.19319 220.865 9.38667C221.059 9.80155 222.994 13.1333 223.216 13.5208C223.354 13.1889 225.096 10.1472 225.289 9.71844C225.428 9.41419 225.483 9.17916 225.483 8.99931C225.483 8.86142 225.428 8.70937 225.193 8.65391C225.068 8.62625 224.944 8.59846 224.944 8.51575C224.944 8.41902 225.013 8.39136 225.179 8.39136C225.635 8.39136 226.078 8.43278 226.478 8.43278C226.783 8.43278 227.695 8.39136 227.958 8.39136C228.109 8.39136 228.207 8.41902 228.207 8.50172C228.207 8.59846 228.096 8.64002 227.945 8.64002C227.806 8.64002 227.543 8.69533 227.336 8.80597C227.045 8.94426 226.893 9.11008 226.59 9.48341C226.133 10.0364 224.197 13.2857 223.949 13.8802C223.741 14.3778 223.741 14.806 223.741 15.2625V16.3966C223.741 16.6175 223.741 17.1986 223.783 17.7791C223.81 18.18 223.935 18.484 224.35 18.5391C224.543 18.5669 224.848 18.595 225.041 18.595C225.193 18.595 225.262 18.6362 225.262 18.7055C225.262 18.802 225.152 18.8435 224.972 18.8435C224.101 18.8435 223.23 18.8018 222.856 18.8018C222.511 18.8018 221.639 18.8435 221.128 18.8435C220.934 18.8435 220.824 18.8157 220.824 18.7055C220.824 18.636 220.893 18.595 221.045 18.595C221.239 18.595 221.404 18.5669 221.529 18.5391C221.806 18.484 221.93 18.18 221.958 17.7791C221.999 17.1986 221.999 16.6175 221.999 16.3966V15.2623H221.998Z"
      fill="#093552" stroke="#093552" stroke-width="0.12804"/>
    <path
      d="M30.4799 29.5477C30.4799 28.1675 30.4799 27.9129 30.4617 27.6223C30.4436 27.3137 30.3527 27.1592 30.1531 27.1139C30.0532 27.0868 29.9351 27.0779 29.8262 27.0779C29.7354 27.0779 29.6809 27.0595 29.6809 26.9869C29.6809 26.9327 29.7536 26.9141 29.8988 26.9141C30.2441 26.9141 30.8157 26.9417 31.0792 26.9417C31.3064 26.9417 31.8421 26.9141 32.1868 26.9141C32.305 26.9141 32.3777 26.9327 32.3777 26.9869C32.3777 27.0595 32.3232 27.0779 32.2325 27.0779C32.1419 27.0779 32.069 27.0866 31.96 27.105C31.7148 27.1502 31.6422 27.3045 31.6242 27.6221C31.606 27.9126 31.606 28.1672 31.606 29.5476V31.1456C31.606 32.0258 31.606 32.7438 31.6422 33.1339C31.6694 33.3789 31.7329 33.5428 32.0053 33.5787C32.1324 33.5971 32.3322 33.6152 32.4682 33.6152C32.5681 33.6152 32.6137 33.6423 32.6137 33.6878C32.6137 33.7513 32.5408 33.7786 32.441 33.7786C31.8421 33.7786 31.2697 33.7513 31.0247 33.7513C30.8159 33.7513 30.2441 33.7786 29.8806 33.7786C29.7625 33.7786 29.6993 33.7513 29.6993 33.6878C29.6993 33.6423 29.7354 33.6152 29.8447 33.6152C29.9806 33.6152 30.0896 33.5971 30.1713 33.5787C30.3529 33.5428 30.4075 33.3881 30.4347 33.1243C30.4802 32.7438 30.4802 32.0258 30.4802 31.1456V29.5477H30.4799Z"
      fill="#093552" stroke="#093552" stroke-width="0.12804"/>
    <path
      d="M35.5556 32.5428C35.5737 33.2509 35.6919 33.487 35.8735 33.5509C36.0276 33.6052 36.2001 33.6145 36.3454 33.6145C36.4453 33.6145 36.4998 33.6324 36.4998 33.6871C36.4998 33.7593 36.4182 33.7779 36.2913 33.7779C35.7009 33.7779 35.3378 33.7506 35.1653 33.7506C35.0835 33.7506 34.6569 33.7779 34.1845 33.7779C34.0665 33.7779 33.9849 33.7691 33.9849 33.6871C33.9849 33.6324 34.0394 33.6145 34.13 33.6145C34.2482 33.6145 34.4119 33.6053 34.539 33.5693C34.775 33.4963 34.8113 33.2327 34.8203 32.443L34.9021 27.0676C34.9021 26.8863 34.9293 26.759 35.0201 26.759C35.1198 26.759 35.2016 26.8772 35.3559 27.0403C35.4649 27.1585 36.8452 28.6387 38.1705 29.9552C38.788 30.5727 40.0138 31.8802 40.1681 32.0253H40.2135L40.1227 27.9488C40.1138 27.3948 40.032 27.2225 39.8141 27.1317C39.6778 27.0773 39.4598 27.0773 39.333 27.0773C39.2237 27.0773 39.1875 27.0503 39.1875 26.9957C39.1875 26.923 39.2874 26.9137 39.4236 26.9137C39.8959 26.9137 40.3315 26.9413 40.5223 26.9413C40.6223 26.9413 40.9673 26.9137 41.4122 26.9137C41.5303 26.9137 41.621 26.923 41.621 26.9957C41.621 27.0503 41.5665 27.0773 41.4574 27.0773C41.3666 27.0773 41.2941 27.0773 41.1849 27.1044C40.9308 27.1769 40.8581 27.3678 40.8488 27.8764L40.7491 33.6053C40.7491 33.805 40.7128 33.8872 40.6311 33.8872C40.5311 33.8872 40.4225 33.7873 40.3225 33.6872C39.7504 33.1424 38.5882 31.9532 37.6439 31.0179C36.6544 30.0372 35.6463 28.9022 35.483 28.7297H35.4556L35.5556 32.5428Z"
      fill="#093552" stroke="#093552" stroke-width="0.12804"/>
    <path
      d="M48.5025 27.4227L47.1496 27.4587C46.6231 27.4767 46.4051 27.5222 46.2691 27.7221C46.1783 27.8582 46.1328 27.967 46.1147 28.0396C46.0966 28.1123 46.0693 28.1486 46.0147 28.1486C45.9513 28.1486 45.933 28.1031 45.933 28.0041C45.933 27.8584 46.1054 27.0319 46.1238 26.9593C46.1512 26.8409 46.1783 26.7871 46.2329 26.7871C46.3055 26.7871 46.3962 26.8775 46.6232 26.8959C46.8866 26.9231 47.2316 26.9415 47.5311 26.9415H51.1266C51.4171 26.9415 51.6169 26.9138 51.7531 26.8959C51.8896 26.8683 51.9619 26.8507 51.9982 26.8507C52.0619 26.8507 52.0709 26.905 52.0709 27.0406C52.0709 27.2318 52.0437 27.8585 52.0437 28.0946C52.0348 28.1846 52.0164 28.2399 51.962 28.2399C51.8896 28.2399 51.8714 28.1945 51.8622 28.0581L51.853 27.9586C51.8351 27.7224 51.5897 27.4676 50.7819 27.4494L49.6378 27.4231V31.1453C49.6378 31.9803 49.6378 32.6974 49.6831 33.0882C49.7105 33.3428 49.7647 33.5426 50.0373 33.5785C50.1644 33.5968 50.3642 33.6149 50.5 33.6149C50.6003 33.6149 50.6456 33.642 50.6456 33.6875C50.6456 33.751 50.5729 33.7783 50.4731 33.7783C49.8739 33.7783 49.3018 33.751 49.0476 33.751C48.8388 33.751 48.2667 33.7783 47.9036 33.7783C47.7854 33.7783 47.7219 33.751 47.7219 33.6875C47.7219 33.642 47.7582 33.6149 47.8672 33.6149C48.0033 33.6149 48.1124 33.5968 48.1941 33.5785C48.3757 33.5426 48.4304 33.3428 48.4575 33.0793C48.5028 32.6974 48.5028 31.9803 48.5028 31.1453V27.4227H48.5025Z"
      fill="#093552" stroke="#093552" stroke-width="0.12804"/>
    <path
      d="M58.8618 29.8014C58.8891 29.8014 58.9163 29.7833 58.9163 29.7378V29.5474C58.9163 28.1672 58.9163 27.9126 58.8982 27.622C58.8799 27.3134 58.8076 27.1688 58.5079 27.1048C58.4353 27.0865 58.281 27.0777 58.1539 27.0777C58.0539 27.0777 57.9995 27.0594 57.9995 26.9961C57.9995 26.9325 58.0629 26.9141 58.1902 26.9141C58.6806 26.9141 59.2524 26.9417 59.4976 26.9417C59.7156 26.9417 60.2877 26.9141 60.6416 26.9141C60.7686 26.9141 60.8322 26.9327 60.8322 26.9961C60.8322 27.0595 60.7777 27.0777 60.6689 27.0777C60.5962 27.0777 60.5143 27.0865 60.4057 27.1048C60.1604 27.15 60.0877 27.3044 60.0698 27.622C60.0515 27.9125 60.0515 28.1671 60.0515 29.5474V31.1454C60.0515 31.9805 60.0515 32.6976 60.0967 33.0883C60.1241 33.3429 60.1785 33.5427 60.4509 33.5786C60.5779 33.597 60.7777 33.615 60.914 33.615C61.0139 33.615 61.0593 33.6422 61.0593 33.6876C61.0593 33.7512 60.9865 33.7784 60.8777 33.7784C60.2877 33.7784 59.7156 33.7512 59.4613 33.7512C59.2524 33.7512 58.6806 33.7784 58.3262 33.7784C58.1991 33.7784 58.1357 33.7512 58.1357 33.6876C58.1357 33.6422 58.1718 33.615 58.2808 33.615C58.417 33.615 58.5259 33.597 58.6076 33.5786C58.7894 33.5427 58.8346 33.3429 58.871 33.0794C58.9162 32.6976 58.9162 31.9805 58.9162 31.1454V30.3463C58.9162 30.3097 58.8889 30.2918 58.8617 30.2918H55.3933C55.3662 30.2918 55.3389 30.301 55.3389 30.3463V31.1454C55.3389 31.9805 55.3389 32.6976 55.3844 33.0883C55.4115 33.3429 55.466 33.5427 55.7385 33.5786C55.8656 33.597 56.0652 33.615 56.2014 33.615C56.3013 33.615 56.3468 33.6422 56.3468 33.6876C56.3468 33.7512 56.2743 33.7784 56.165 33.7784C55.5749 33.7784 55.0029 33.7512 54.7486 33.7512C54.54 33.7512 53.9677 33.7784 53.6046 33.7784C53.4866 33.7784 53.4229 33.7512 53.4229 33.6876C53.4229 33.6422 53.4593 33.615 53.5682 33.615C53.7045 33.615 53.8135 33.597 53.8951 33.5786C54.0769 33.5427 54.1222 33.3429 54.1585 33.0794C54.2041 32.6976 54.2041 31.9805 54.2041 31.1454V29.5474C54.2041 28.1672 54.2041 27.9126 54.1857 27.622C54.1677 27.3134 54.0949 27.1688 53.795 27.1048C53.7227 27.0865 53.5681 27.0777 53.441 27.0777C53.3413 27.0777 53.2866 27.0594 53.2866 26.9961C53.2866 26.9325 53.3503 26.9141 53.4773 26.9141C53.9676 26.9141 54.5398 26.9417 54.7846 26.9417C55.0027 26.9417 55.5746 26.9141 55.9289 26.9141C56.056 26.9141 56.1196 26.9327 56.1196 26.9961C56.1196 27.0595 56.0649 27.0777 55.9563 27.0777C55.8836 27.0777 55.8018 27.0865 55.6927 27.1048C55.4476 27.15 55.3751 27.3044 55.3568 27.622C55.3388 27.9125 55.3388 28.1671 55.3388 29.5474V29.7378C55.3388 29.7833 55.3662 29.8014 55.3931 29.8014H58.8618Z"
      fill="#093552" stroke="#093552" stroke-width="0.12804"/>
    <path
      d="M63.4923 29.5477C63.4923 28.1674 63.4923 27.9128 63.474 27.6222C63.4558 27.3136 63.3831 27.169 63.0835 27.1051C63.0107 27.0867 62.8565 27.0779 62.7294 27.0779C62.6297 27.0779 62.5751 27.0596 62.5751 26.9963C62.5751 26.9328 62.639 26.9143 62.7748 26.9143C63.2559 26.9143 63.8284 26.9419 64.0824 26.9419C64.3728 26.9419 66.1796 26.9419 66.352 26.9329C66.5246 26.9143 66.6698 26.8963 66.7422 26.8781C66.7877 26.8689 66.8422 26.8416 66.8877 26.8416C66.9331 26.8416 66.9422 26.8781 66.9422 26.9236C66.9422 26.9871 66.8969 27.0956 66.8696 27.5136C66.8604 27.6048 66.8422 28.0047 66.8243 28.1129C66.8152 28.1584 66.797 28.2132 66.7336 28.2132C66.6699 28.2132 66.6518 28.1673 66.6518 28.0858C66.6518 28.022 66.6428 27.8676 66.5973 27.7587C66.5339 27.595 66.4428 27.4866 65.9891 27.4318C65.8348 27.4138 64.8814 27.3953 64.6998 27.3953C64.6545 27.3953 64.6363 27.4233 64.6363 27.4866V29.7834C64.6363 29.8468 64.6453 29.8831 64.6998 29.8831C64.8996 29.8831 65.9435 29.8831 66.1524 29.8653C66.3703 29.8466 66.5065 29.8198 66.588 29.7289C66.652 29.6567 66.688 29.6104 66.7337 29.6104C66.77 29.6104 66.7973 29.6294 66.7973 29.6834C66.7973 29.7378 66.7518 29.8829 66.7246 30.3463C66.7063 30.528 66.6881 30.8909 66.6881 30.9542C66.6881 31.0269 66.6881 31.127 66.6065 31.127C66.543 31.127 66.5249 31.0905 66.5249 31.0454C66.516 30.9542 66.516 30.8366 66.4884 30.7182C66.4431 30.5366 66.316 30.4006 65.9801 30.3646C65.8074 30.3463 64.9085 30.3371 64.6906 30.3371C64.6454 30.3371 64.6363 30.3736 64.6363 30.4279V31.1454C64.6363 31.4541 64.6272 32.2894 64.6363 32.5527C64.6543 33.1793 64.7996 33.315 65.7259 33.315C65.962 33.315 66.3433 33.315 66.5792 33.2058C66.8154 33.097 66.9242 32.9068 66.9879 32.5343C67.0057 32.4346 67.0242 32.3977 67.0879 32.3977C67.1604 32.3977 67.1604 32.4704 67.1604 32.5614C67.1604 32.7704 67.0879 33.3878 67.0423 33.5696C66.9786 33.8053 66.8971 33.8053 66.552 33.8053C65.1809 33.8053 64.5726 33.751 64.0368 33.751C63.8284 33.751 63.2559 33.7782 62.8928 33.7782C62.7748 33.7782 62.7113 33.751 62.7113 33.6874C62.7113 33.642 62.7474 33.6148 62.8565 33.6148C62.9927 33.6148 63.1015 33.5968 63.1833 33.5784C63.365 33.5425 63.4105 33.3427 63.4465 33.0792C63.4921 32.6974 63.4921 31.9803 63.4921 31.1453V29.5477H63.4923Z"
      fill="#093552" stroke="#093552" stroke-width="0.12804"/>
    <path
      d="M73.0163 32.9152C72.1265 32.134 71.8905 31.1174 71.8905 30.2367C71.8905 29.6195 72.0811 28.5481 72.9526 27.749C73.6064 27.1497 74.469 26.7869 75.8218 26.7869C76.385 26.7869 76.7208 26.8229 77.1386 26.8773C77.4835 26.9229 77.774 27.0042 78.0465 27.0317C78.1464 27.0404 78.1828 27.0861 78.1828 27.1413C78.1828 27.2135 78.1551 27.3228 78.1375 27.6401C78.1193 27.94 78.1283 28.4394 78.1102 28.6207C78.101 28.7572 78.0831 28.8298 78.0011 28.8298C77.9287 28.8298 77.9105 28.7572 77.9105 28.6302C77.9014 28.3483 77.7834 28.0308 77.5564 27.7945C77.257 27.4768 76.5485 27.2318 75.7132 27.2318C74.9234 27.2318 74.4058 27.4314 74.0062 27.7945C73.3433 28.4028 73.1709 29.2656 73.1709 30.1467C73.1709 32.3074 74.8145 33.3787 76.0311 33.3787C76.8394 33.3787 77.3294 33.2877 77.6928 32.8702C77.8471 32.6973 77.965 32.4345 78.0012 32.2709C78.0287 32.1258 78.0467 32.0895 78.1194 32.0895C78.1829 32.0895 78.201 32.1531 78.201 32.2257C78.201 32.3344 78.0917 33.124 78.0011 33.4335C77.9557 33.5873 77.9197 33.6327 77.7652 33.6964C77.4019 33.8413 76.7116 33.9053 76.1307 33.9053C74.8866 33.905 73.8424 33.6323 73.0163 32.9152Z"
      fill="#093552" stroke="#093552" stroke-width="0.12804"/>
    <path
      d="M80.607 29.5477C80.607 28.1675 80.607 27.9129 80.5888 27.6223C80.5707 27.3137 80.4795 27.1592 80.2799 27.1139C80.18 27.0868 80.0619 27.0779 79.9528 27.0779C79.8622 27.0779 79.8079 27.0595 79.8079 26.9869C79.8079 26.9327 79.8806 26.9141 80.0256 26.9141C80.3707 26.9141 80.9425 26.9417 81.2059 26.9417C81.4328 26.9417 81.9686 26.9141 82.3137 26.9141C82.4319 26.9141 82.5042 26.9327 82.5042 26.9869C82.5042 27.0595 82.4499 27.0779 82.3591 27.0779C82.2685 27.0779 82.1957 27.0866 82.0867 27.105C81.8414 27.1502 81.7689 27.3045 81.7507 27.6221C81.7326 27.9126 81.7326 28.1672 81.7326 29.5476V31.1456C81.7326 32.0258 81.7326 32.7438 81.7688 33.1339C81.7961 33.3789 81.8597 33.5428 82.1321 33.5787C82.2592 33.5971 82.4591 33.6152 82.5952 33.6152C82.695 33.6152 82.7404 33.6423 82.7404 33.6878C82.7404 33.7513 82.6678 33.7786 82.5681 33.7786C81.9686 33.7786 81.3967 33.7513 81.1515 33.7513C80.9425 33.7513 80.3707 33.7786 80.0075 33.7786C79.8895 33.7786 79.8258 33.7513 79.8258 33.6878C79.8258 33.6423 79.8622 33.6152 79.971 33.6152C80.1072 33.6152 80.2163 33.5971 80.298 33.5787C80.4795 33.5428 80.5341 33.3881 80.5613 33.1243C80.607 32.7438 80.607 32.0258 80.607 31.1456V29.5477Z"
      fill="#093552" stroke="#093552" stroke-width="0.12804"/>
    <path
      d="M86.3816 27.4227L85.0285 27.4587C84.502 27.4767 84.2842 27.5222 84.1478 27.7221C84.0572 27.8582 84.0116 27.967 83.9935 28.0396C83.975 28.1123 83.948 28.1486 83.8936 28.1486C83.8298 28.1486 83.812 28.1031 83.812 28.0041C83.812 27.8584 83.9843 27.0319 84.0025 26.9593C84.0299 26.8409 84.0572 26.7871 84.1114 26.7871C84.1841 26.7871 84.2751 26.8775 84.5021 26.8959C84.7654 26.9231 85.1102 26.9415 85.41 26.9415H89.0052C89.296 26.9415 89.4957 26.9138 89.6321 26.8959C89.7681 26.8683 89.8411 26.8507 89.8772 26.8507C89.9406 26.8507 89.95 26.905 89.95 27.0406C89.95 27.2318 89.9224 27.8585 89.9224 28.0946C89.9134 28.1846 89.895 28.2399 89.8411 28.2399C89.7681 28.2399 89.7501 28.1945 89.7411 28.0581L89.7319 27.9586C89.7138 27.7224 89.4687 27.4676 88.6607 27.4494L87.5167 27.4231V31.1453C87.5167 31.9803 87.5167 32.6974 87.5616 33.0882C87.5891 33.3428 87.6436 33.5426 87.9158 33.5785C88.043 33.5968 88.2428 33.6149 88.3791 33.6149C88.4789 33.6149 88.5242 33.642 88.5242 33.6875C88.5242 33.751 88.4514 33.7783 88.3518 33.7783C87.7526 33.7783 87.1804 33.751 86.9262 33.751C86.7177 33.751 86.1456 33.7783 85.7823 33.7783C85.6642 33.7783 85.6005 33.751 85.6005 33.6875C85.6005 33.642 85.6368 33.6149 85.7457 33.6149C85.8822 33.6149 85.991 33.5968 86.0727 33.5785C86.2545 33.5426 86.3087 33.3428 86.336 33.0793C86.3817 32.6974 86.3817 31.9803 86.3817 31.1453V27.4227H86.3816Z"
      fill="#093552" stroke="#093552" stroke-width="0.12804"/>
    <path
      d="M93.1437 31.4258C93.1437 30.9356 93.0532 30.7358 92.935 30.4722C92.8712 30.3274 91.6549 28.3296 91.3371 27.8578C91.1099 27.5217 90.8829 27.2948 90.7106 27.1947C90.5927 27.1313 90.4379 27.0769 90.3293 27.0769C90.2566 27.0769 90.1927 27.0585 90.1927 26.9953C90.1927 26.9409 90.2566 26.9132 90.3655 26.9132C90.5288 26.9132 91.2098 26.9409 91.5094 26.9409C91.7002 26.9409 92.0723 26.9132 92.4811 26.9132C92.5717 26.9132 92.6173 26.9409 92.6173 26.9953C92.6173 27.0499 92.5537 27.0587 92.4173 27.0946C92.3356 27.1129 92.2904 27.1858 92.2904 27.2583C92.2904 27.3309 92.3356 27.44 92.3994 27.5673C92.5265 27.8396 93.7973 30.0273 93.9429 30.2816C94.0338 30.064 95.1774 28.0664 95.3046 27.7851C95.3956 27.5853 95.4317 27.4308 95.4317 27.3126C95.4317 27.2221 95.3956 27.1221 95.2412 27.0856C95.1595 27.0672 95.0781 27.0498 95.0781 26.9951C95.0781 26.9316 95.1232 26.9131 95.2322 26.9131C95.5317 26.9131 95.8223 26.9407 96.0857 26.9407C96.2856 26.9407 96.8845 26.9131 97.057 26.9131C97.157 26.9131 97.2206 26.9317 97.2206 26.9859C97.2206 27.0499 97.1482 27.0769 97.0483 27.0769C96.9574 27.0769 96.785 27.1129 96.6484 27.1858C96.4582 27.276 96.3584 27.3856 96.158 27.6301C95.8585 27.9935 94.5878 30.1276 94.4244 30.5176C94.2883 30.8448 94.2883 31.1263 94.2883 31.4258V32.1703C94.2883 32.3157 94.2883 32.6966 94.3153 33.0784C94.3335 33.3419 94.4152 33.5419 94.6875 33.5776C94.8146 33.596 95.0145 33.6141 95.1414 33.6141C95.2413 33.6141 95.2867 33.6412 95.2867 33.6866C95.2867 33.7502 95.2144 33.7774 95.0962 33.7774C94.524 33.7774 93.9519 33.7502 93.7069 33.7502C93.48 33.7502 92.9079 33.7774 92.5718 33.7774C92.445 33.7774 92.3723 33.7588 92.3723 33.6866C92.3723 33.6412 92.4175 33.6141 92.5174 33.6141C92.6443 33.6141 92.7535 33.596 92.8352 33.5776C93.0169 33.5417 93.0988 33.3419 93.1167 33.0784C93.1439 32.6966 93.1439 32.3157 93.1439 32.1703V31.4258H93.1437Z"
      fill="#093552" stroke="#093552" stroke-width="0.12804"/>
    <path
      d="M100.871 30.3463C100.871 28.794 101.897 26.7874 104.621 26.7874C106.881 26.7874 108.289 28.1035 108.289 30.1828C108.289 32.262 106.836 33.9055 104.53 33.9055C101.924 33.9055 100.871 31.9536 100.871 30.3463ZM107.018 30.5184C107.018 28.4849 105.846 27.2229 104.357 27.2229C103.313 27.2229 102.124 27.8038 102.124 30.0647C102.124 31.9535 103.168 33.4515 104.912 33.4515C105.547 33.4516 107.018 33.1428 107.018 30.5184Z"
      fill="#093552" stroke="#093552" stroke-width="0.12804"/>
    <path
      d="M111.795 31.1451C111.795 32.0168 111.795 32.6972 111.841 33.079C111.868 33.3425 111.922 33.5425 112.195 33.5782C112.322 33.5966 112.521 33.6146 112.649 33.6146C112.767 33.6146 112.804 33.6418 112.804 33.6872C112.804 33.7508 112.74 33.778 112.603 33.778C112.032 33.778 111.46 33.7508 111.223 33.7508C110.987 33.7508 110.415 33.778 110.07 33.778C109.943 33.778 109.88 33.7594 109.88 33.6872C109.88 33.6418 109.916 33.6146 110.016 33.6146C110.152 33.6146 110.261 33.5966 110.343 33.5782C110.524 33.5423 110.57 33.3425 110.606 33.079C110.652 32.6972 110.652 32.0168 110.652 31.1451V29.5471C110.652 28.1668 110.652 27.9122 110.634 27.6216C110.615 27.313 110.542 27.1684 110.243 27.1045C110.17 27.0861 110.016 27.0773 109.889 27.0773C109.798 27.0773 109.734 27.059 109.734 27.0043C109.734 26.9322 109.807 26.9135 109.943 26.9135C110.415 26.9135 110.987 26.9412 111.25 26.9412C111.595 26.9412 113.439 26.9412 113.647 26.9322C113.82 26.923 113.929 26.923 114.02 26.8956C114.074 26.8772 114.119 26.8408 114.165 26.8408C114.201 26.8408 114.229 26.8774 114.229 26.9229C114.229 26.9864 114.183 27.0949 114.155 27.3313C114.147 27.4227 114.129 27.9582 114.11 28.0667C114.102 28.1389 114.083 28.1941 114.02 28.1941C113.956 28.1941 113.938 28.1483 113.929 28.0485C113.929 27.9759 113.929 27.8309 113.875 27.7034C113.811 27.5764 113.62 27.4401 113.275 27.431L111.877 27.4036C111.822 27.4036 111.795 27.431 111.795 27.5309V29.8006C111.795 29.8555 111.804 29.8822 111.859 29.8822L113.021 29.8732C113.175 29.8732 113.302 29.8732 113.429 29.8645C113.602 29.8556 113.729 29.8191 113.82 29.701C113.865 29.6462 113.884 29.6097 113.938 29.6097C113.974 29.6097 113.992 29.637 113.992 29.6914C113.992 29.7462 113.946 29.9733 113.92 30.2546C113.901 30.4363 113.883 30.854 113.883 30.9172C113.883 30.9993 113.883 31.0897 113.793 31.0897C113.738 31.0897 113.72 31.0261 113.72 30.9632C113.72 30.8994 113.702 30.7904 113.666 30.6815C113.62 30.5542 113.484 30.3911 113.202 30.3546C112.976 30.3274 112.013 30.3274 111.859 30.3274C111.814 30.3274 111.795 30.3455 111.795 30.4093V31.1451H111.795Z"
      fill="#093552" stroke="#093552" stroke-width="0.12804"/>
    <path
      d="M120.457 32.5428C120.475 33.2509 120.593 33.487 120.775 33.5509C120.929 33.6052 121.101 33.6145 121.247 33.6145C121.347 33.6145 121.401 33.6324 121.401 33.6871C121.401 33.7593 121.32 33.7779 121.193 33.7779C120.603 33.7779 120.24 33.7506 120.067 33.7506C119.985 33.7506 119.558 33.7779 119.086 33.7779C118.968 33.7779 118.886 33.7691 118.886 33.6871C118.886 33.6324 118.941 33.6145 119.032 33.6145C119.15 33.6145 119.313 33.6053 119.44 33.5693C119.676 33.4963 119.712 33.2327 119.722 32.443L119.804 27.0676C119.804 26.8863 119.83 26.759 119.922 26.759C120.021 26.759 120.103 26.8772 120.257 27.0403C120.367 27.1585 121.747 28.6387 123.072 29.9552C123.689 30.5727 124.915 31.8802 125.069 32.0253H125.114L125.025 27.9488C125.015 27.3948 124.933 27.2225 124.716 27.1317C124.579 27.0773 124.361 27.0773 124.235 27.0773C124.125 27.0773 124.089 27.0503 124.089 26.9957C124.089 26.923 124.189 26.9137 124.325 26.9137C124.797 26.9137 125.233 26.9413 125.423 26.9413C125.523 26.9413 125.868 26.9137 126.313 26.9137C126.431 26.9137 126.522 26.923 126.522 26.9957C126.522 27.0503 126.468 27.0773 126.359 27.0773C126.268 27.0773 126.195 27.0773 126.087 27.1044C125.832 27.1769 125.76 27.3678 125.751 27.8764L125.65 33.6053C125.65 33.805 125.614 33.8872 125.532 33.8872C125.433 33.8872 125.324 33.7873 125.224 33.6872C124.652 33.1424 123.49 31.9532 122.546 31.0179C121.556 30.0372 120.548 28.9022 120.385 28.7297H120.357L120.457 32.5428Z"
      fill="#093552" stroke="#093552" stroke-width="0.12804"/>
    <path
      d="M129.01 29.5477C129.01 28.1674 129.01 27.9128 128.991 27.6222C128.973 27.3136 128.901 27.169 128.601 27.1051C128.528 27.0867 128.374 27.0779 128.247 27.0779C128.147 27.0779 128.092 27.0596 128.092 26.9963C128.092 26.9328 128.156 26.9143 128.292 26.9143C128.773 26.9143 129.346 26.9419 129.599 26.9419C129.89 26.9419 131.697 26.9419 131.87 26.9329C132.042 26.9143 132.187 26.8963 132.26 26.8781C132.306 26.8689 132.36 26.8416 132.405 26.8416C132.451 26.8416 132.46 26.8781 132.46 26.9236C132.46 26.9871 132.415 27.0956 132.388 27.5136C132.378 27.6048 132.36 28.0047 132.341 28.1129C132.332 28.1584 132.314 28.2132 132.251 28.2132C132.187 28.2132 132.169 28.1673 132.169 28.0858C132.169 28.022 132.16 27.8676 132.115 27.7587C132.051 27.595 131.96 27.4866 131.506 27.4318C131.352 27.4138 130.399 27.3953 130.217 27.3953C130.172 27.3953 130.153 27.4233 130.153 27.4866V29.7834C130.153 29.8468 130.162 29.8831 130.217 29.8831C130.416 29.8831 131.461 29.8831 131.67 29.8653C131.887 29.8466 132.024 29.8198 132.106 29.7289C132.168 29.6567 132.205 29.6104 132.251 29.6104C132.287 29.6104 132.314 29.6294 132.314 29.6834C132.314 29.7378 132.268 29.8829 132.242 30.3463C132.224 30.528 132.205 30.8909 132.205 30.9542C132.205 31.0269 132.205 31.127 132.124 31.127C132.06 31.127 132.042 31.0905 132.042 31.0454C132.033 30.9542 132.033 30.8366 132.005 30.7182C131.96 30.5366 131.833 30.4006 131.497 30.3646C131.325 30.3463 130.426 30.3371 130.207 30.3371C130.162 30.3371 130.153 30.3736 130.153 30.4279V31.1454C130.153 31.4541 130.144 32.2894 130.153 32.5527C130.172 33.1793 130.317 33.315 131.243 33.315C131.478 33.315 131.86 33.315 132.096 33.2058C132.332 33.097 132.441 32.9068 132.505 32.5343C132.522 32.4346 132.541 32.3977 132.605 32.3977C132.677 32.3977 132.677 32.4704 132.677 32.5614C132.677 32.7704 132.605 33.3878 132.559 33.5696C132.496 33.8053 132.414 33.8053 132.069 33.8053C130.697 33.8053 130.089 33.751 129.554 33.751C129.345 33.751 128.773 33.7782 128.41 33.7782C128.292 33.7782 128.228 33.751 128.228 33.6874C128.228 33.642 128.264 33.6148 128.373 33.6148C128.509 33.6148 128.619 33.5968 128.7 33.5784C128.882 33.5425 128.927 33.3427 128.963 33.0792C129.009 32.6974 129.009 31.9803 129.009 31.1453V29.5477H129.01Z"
      fill="#093552" stroke="#093552" stroke-width="0.12804"/>
    <path
      d="M134.402 27.8031C134.294 27.4672 134.194 27.2496 134.066 27.1583C133.967 27.0947 133.785 27.077 133.703 27.077C133.612 27.077 133.558 27.0674 133.558 26.9954C133.558 26.9318 133.63 26.9133 133.758 26.9133C134.23 26.9133 134.729 26.941 134.811 26.941C134.893 26.941 135.292 26.9133 135.819 26.9133C135.946 26.9133 136.009 26.941 136.009 26.9954C136.009 27.0674 135.937 27.077 135.846 27.077C135.774 27.077 135.683 27.077 135.619 27.113C135.538 27.1494 135.519 27.2131 135.519 27.3127C135.519 27.4309 135.61 27.7397 135.719 28.1481C135.873 28.7477 136.718 31.4983 136.881 32.0071H136.908L138.67 27.2761C138.77 27.0223 138.825 26.9498 138.897 26.9498C138.997 26.9498 139.042 27.0859 139.16 27.3762L141.048 31.9433H141.076C141.24 31.3349 141.966 28.9379 142.284 27.8761C142.347 27.667 142.374 27.4764 142.374 27.3491C142.374 27.2045 142.293 27.077 141.939 27.077C141.848 27.077 141.784 27.05 141.784 26.9954C141.784 26.9318 141.856 26.9133 141.993 26.9133C142.474 26.9133 142.856 26.941 142.937 26.941C143.001 26.941 143.391 26.9133 143.691 26.9133C143.791 26.9133 143.854 26.9319 143.854 26.9862C143.854 27.0501 143.808 27.0771 143.727 27.0771C143.636 27.0771 143.51 27.0859 143.41 27.1223C143.191 27.2045 143.092 27.5676 142.901 28.085C142.483 29.229 141.53 32.1164 141.085 33.4779C140.985 33.7956 140.94 33.9049 140.822 33.9049C140.731 33.9049 140.677 33.7956 140.54 33.4602L138.652 28.9111H138.634C138.461 29.3739 137.253 32.5886 136.863 33.4235C136.691 33.7956 136.646 33.9048 136.536 33.9048C136.445 33.9048 136.4 33.8048 136.328 33.5691L134.402 27.8031Z"
      fill="#093552" stroke="#093552" stroke-width="0.12804"/>
    <path
      d="M149.735 31.4258C149.735 30.9356 149.643 30.7358 149.526 30.4722C149.462 30.3274 148.245 28.3296 147.927 27.8578C147.701 27.5217 147.474 27.2948 147.301 27.1947C147.183 27.1313 147.029 27.0769 146.92 27.0769C146.847 27.0769 146.783 27.0585 146.783 26.9953C146.783 26.9409 146.847 26.9132 146.956 26.9132C147.119 26.9132 147.801 26.9409 148.1 26.9409C148.291 26.9409 148.663 26.9132 149.072 26.9132C149.162 26.9132 149.208 26.9409 149.208 26.9953C149.208 27.0499 149.144 27.0587 149.008 27.0946C148.926 27.1129 148.881 27.1858 148.881 27.2583C148.881 27.3309 148.926 27.44 148.99 27.5673C149.117 27.8396 150.389 30.0273 150.533 30.2816C150.624 30.064 151.769 28.0664 151.895 27.7851C151.986 27.5853 152.023 27.4308 152.023 27.3126C152.023 27.2221 151.986 27.1221 151.832 27.0856C151.75 27.0672 151.668 27.0498 151.668 26.9951C151.668 26.9316 151.714 26.9131 151.823 26.9131C152.123 26.9131 152.413 26.9407 152.676 26.9407C152.876 26.9407 153.475 26.9131 153.648 26.9131C153.747 26.9131 153.811 26.9317 153.811 26.9859C153.811 27.0499 153.739 27.0769 153.639 27.0769C153.548 27.0769 153.376 27.1129 153.239 27.1858C153.048 27.276 152.949 27.3856 152.749 27.6301C152.449 27.9935 151.179 30.1276 151.015 30.5176C150.879 30.8448 150.879 31.1263 150.879 31.4258V32.1703C150.879 32.3157 150.879 32.6966 150.906 33.0784C150.924 33.3419 151.006 33.5419 151.278 33.5776C151.405 33.596 151.605 33.6141 151.732 33.6141C151.832 33.6141 151.877 33.6412 151.877 33.6866C151.877 33.7502 151.805 33.7774 151.687 33.7774C151.114 33.7774 150.543 33.7502 150.298 33.7502C150.07 33.7502 149.499 33.7774 149.163 33.7774C149.036 33.7774 148.963 33.7588 148.963 33.6866C148.963 33.6412 149.008 33.6141 149.108 33.6141C149.235 33.6141 149.344 33.596 149.426 33.5776C149.608 33.5417 149.689 33.3419 149.707 33.0784C149.735 32.6966 149.735 32.3157 149.735 32.1703V31.4258Z"
      fill="#093552" stroke="#093552" stroke-width="0.12804"/>
    <path
      d="M154.093 30.3463C154.093 28.794 155.119 26.7874 157.842 26.7874C160.104 26.7874 161.51 28.1035 161.51 30.1828C161.51 32.262 160.058 33.9055 157.752 33.9055C155.146 33.9055 154.093 31.9536 154.093 30.3463ZM160.24 30.5184C160.24 28.4849 159.069 27.2229 157.579 27.2229C156.535 27.2229 155.346 27.8038 155.346 30.0647C155.346 31.9535 156.39 33.4515 158.133 33.4515C158.769 33.4516 160.24 33.1428 160.24 30.5184Z"
      fill="#093552" stroke="#093552" stroke-width="0.12804"/>
    <path
      d="M163.875 29.5477C163.875 28.1675 163.875 27.9129 163.856 27.6222C163.838 27.3137 163.765 27.169 163.465 27.1051C163.393 27.0867 163.239 27.078 163.111 27.078C163.011 27.078 162.957 27.0596 162.957 26.9963C162.957 26.9328 163.02 26.9143 163.157 26.9143C163.638 26.9143 164.21 26.942 164.401 26.942C164.709 26.942 165.399 26.9143 165.681 26.9143C166.253 26.9143 166.861 26.9691 167.351 27.3048C167.606 27.4775 167.968 27.9408 167.968 28.5491C167.968 29.2209 167.687 29.8384 166.771 30.5827C167.578 31.5997 168.205 32.4075 168.741 32.9701C169.249 33.4971 169.621 33.5605 169.758 33.5878C169.857 33.6061 169.939 33.6153 170.012 33.6153C170.085 33.6153 170.121 33.6424 170.121 33.6879C170.121 33.76 170.057 33.7787 169.948 33.7787H169.085C168.577 33.7787 168.35 33.7331 168.114 33.6061C167.724 33.3975 167.379 32.9701 166.87 32.2713C166.507 31.7723 166.089 31.1547 165.972 31.0186C165.926 30.9644 165.872 30.9545 165.808 30.9545L165.018 30.9368C164.973 30.9368 164.946 30.9545 164.946 31.0096V31.1364C164.946 31.9807 164.946 32.6977 164.991 33.0795C165.018 33.343 165.072 33.543 165.345 33.5787C165.481 33.5971 165.681 33.6151 165.79 33.6151C165.863 33.6151 165.899 33.6423 165.899 33.6877C165.899 33.7513 165.834 33.7785 165.717 33.7785C165.19 33.7785 164.518 33.7513 164.383 33.7513C164.21 33.7513 163.638 33.7785 163.275 33.7785C163.157 33.7785 163.093 33.7513 163.093 33.6877C163.093 33.6423 163.13 33.6151 163.239 33.6151C163.374 33.6151 163.483 33.5971 163.566 33.5787C163.747 33.5428 163.792 33.343 163.828 33.0795C163.874 32.6977 163.874 31.9806 163.874 31.1456V29.5477H163.875ZM164.946 30.2648C164.946 30.3649 164.964 30.4009 165.027 30.4282C165.218 30.4917 165.491 30.5188 165.717 30.5188C166.081 30.5188 166.199 30.4826 166.362 30.3649C166.634 30.1647 166.897 29.7474 166.897 29.0029C166.897 27.7134 166.044 27.3412 165.508 27.3412C165.282 27.3412 165.118 27.3501 165.027 27.3774C164.964 27.3956 164.946 27.432 164.946 27.5047V30.2648Z"
      fill="#093552" stroke="#093552" stroke-width="0.12804"/>
    <path
      d="M172.294 29.947H172.339C172.648 29.6103 173.973 28.2576 174.237 27.9491C174.491 27.6499 174.691 27.4231 174.691 27.2681C174.691 27.1687 174.655 27.1047 174.564 27.0864C174.482 27.0679 174.445 27.0505 174.445 26.9959C174.445 26.9323 174.491 26.9138 174.591 26.9138C174.781 26.9138 175.281 26.9415 175.526 26.9415C175.808 26.9415 176.307 26.9138 176.588 26.9138C176.679 26.9138 176.743 26.9324 176.743 26.9959C176.743 27.0593 176.697 27.0775 176.606 27.0775C176.479 27.0775 176.252 27.1135 176.08 27.177C175.798 27.2863 175.49 27.4768 175.099 27.8584C174.818 28.1307 173.447 29.4922 173.138 29.8195C173.465 30.2458 175.245 32.1616 175.599 32.4976C175.998 32.8795 176.407 33.2876 176.897 33.4782C177.169 33.5873 177.351 33.6148 177.46 33.6148C177.523 33.6148 177.578 33.6327 177.578 33.6874C177.578 33.7509 177.532 33.7782 177.36 33.7782H176.57C176.298 33.7782 176.135 33.7782 175.944 33.7596C175.454 33.7148 175.208 33.5144 174.818 33.1697C174.419 32.8158 172.63 30.718 172.439 30.4552L172.339 30.3191H172.294V31.1452C172.294 31.9802 172.294 32.6973 172.321 33.0881C172.339 33.3427 172.421 33.5425 172.648 33.5784C172.775 33.5967 172.975 33.6148 173.093 33.6148C173.166 33.6148 173.21 33.6419 173.21 33.6874C173.21 33.7509 173.138 33.7782 173.038 33.7782C172.53 33.7782 171.958 33.7509 171.731 33.7509C171.522 33.7509 170.95 33.7782 170.587 33.7782C170.469 33.7782 170.405 33.7509 170.405 33.6874C170.405 33.6419 170.441 33.6148 170.55 33.6148C170.687 33.6148 170.796 33.5967 170.877 33.5784C171.059 33.5425 171.104 33.3427 171.14 33.0792C171.186 32.6973 171.186 31.9802 171.186 31.1452V29.5472C171.186 28.167 171.186 27.9124 171.168 27.6217C171.15 27.3132 171.077 27.1685 170.777 27.1046C170.705 27.0862 170.55 27.0775 170.423 27.0775C170.323 27.0775 170.269 27.0591 170.269 26.9959C170.269 26.9323 170.332 26.9138 170.468 26.9138C170.95 26.9138 171.522 26.9415 171.74 26.9415C171.957 26.9415 172.53 26.9138 172.839 26.9138C172.965 26.9138 173.029 26.9324 173.029 26.9959C173.029 27.0593 172.975 27.0775 172.902 27.0775C172.812 27.0775 172.757 27.0862 172.647 27.1046C172.403 27.1498 172.33 27.3041 172.312 27.6217C172.294 27.9122 172.294 28.1668 172.294 29.5472L172.294 29.947Z"
      fill="#093552" stroke="#093552" stroke-width="0.12804"/>
    <path
      d="M11.1437 16.6155C11.1437 16.6153 2.80425 16.6153 2.80425 16.6153C2.84661 15.8628 2.61144 14.9882 2.34403 14.3377C1.4966 12.2759 -0.248333 10.4093 0.169111 7.98074C0.40104 6.63154 1.49066 5.69195 2.82394 5.58509C5.20732 5.39337 7.26364 6.6681 9.57524 7.07637C9.76008 7.10889 10.009 6.71505 10.2335 6.49027C9.16144 5.68223 9.30729 4.09827 10.5483 3.41422C10.6338 3.316 10.6025 2.4038 10.5537 2.36278C10.4526 2.27846 9.66091 2.43011 9.54852 2.33242C9.4364 2.23461 9.4584 1.28463 9.53044 1.19356C9.60249 1.10276 10.4949 1.20017 10.545 1.13919C10.5952 1.0778 10.5198 0.22321 10.6041 0.155885C10.6885 0.0885596 11.1437 0.105425 11.1437 0.105425H10.9562C10.9562 0.105425 11.4106 0.0884247 11.495 0.155885C11.5791 0.223345 11.5039 1.0778 11.5545 1.13919C11.6048 1.20017 12.4971 1.10276 12.569 1.19356C12.6409 1.28477 12.6634 2.23474 12.551 2.33242C12.4388 2.42997 11.6471 2.27846 11.546 2.36278C11.4968 2.4038 11.4657 3.316 11.5511 3.41422C12.7926 4.09813 12.9383 5.68223 11.8659 6.49027C12.0904 6.71505 12.339 7.10875 12.5242 7.07637C14.8361 6.6681 16.8921 5.39323 19.2751 5.58509C20.6088 5.69195 21.6985 6.63154 21.9303 7.98074C22.3478 10.4093 20.603 12.2758 19.7559 14.3377C19.4883 14.9882 19.253 15.8628 19.2953 16.6153C19.2953 16.6153 10.9562 16.6153 10.9562 16.6155M15.578 11.5862C15.578 11.5862 16.5324 11.4431 16.602 11.5796C16.6719 11.7162 16.2797 12.5218 16.3466 12.659C16.4137 12.7965 17.6778 12.5386 17.6999 12.6808C17.7223 12.8232 17.6272 13.5326 17.5063 13.6374C17.385 13.7425 16.2051 13.7498 16.2051 13.7498C15.9593 13.9368 15.8953 14.317 15.8938 14.7064C15.8921 15.2001 16.2762 15.4552 16.8892 15.284C18.0318 14.9646 19.4478 12.4859 20.2882 10.7701C20.9061 9.50845 21.2788 7.4447 19.6573 6.8265C18.6685 6.44966 17.6312 6.66324 16.5679 6.97869C15.4536 7.30951 13.9836 7.75718 13.1174 8.29497C12.9049 8.42679 13.3704 8.32169 12.6018 10.0252C12.2446 10.8177 11.8859 12.5054 12.0357 13.3577C12.2496 14.5769 12.9269 15.3513 13.4906 15.3548C13.8603 15.3564 14.157 15.2168 14.4264 14.981C14.7975 14.6561 15.1005 14.1219 15.0032 13.8061C14.9209 13.7 13.9209 13.8524 13.8498 13.7529C13.779 13.6535 13.9714 12.875 14.085 12.7741C14.1976 12.6736 15.1004 12.8078 15.2213 12.7089C15.3421 12.6108 15.454 11.6453 15.578 11.5862ZM6.52158 11.5862C6.6453 11.6453 6.75715 12.6108 6.87831 12.709C6.9992 12.8078 7.90155 12.6737 8.01475 12.7742C8.12794 12.8751 8.32061 13.6538 8.24964 13.7531C8.1784 13.8524 7.17851 13.7002 7.09607 13.8062C6.99906 14.1221 7.30169 14.6563 7.67286 14.9811C7.94256 15.2169 8.23885 15.3566 8.6088 15.355C9.17236 15.3515 9.84967 14.5769 10.0639 13.3579C10.2134 12.5056 9.85493 10.8179 9.49739 10.0253C8.72915 8.32182 9.19449 8.42679 8.98213 8.29511C8.11567 7.75718 6.64598 7.30965 5.53167 6.97882C4.46822 6.66338 3.43095 6.4498 2.44239 6.82663C0.820643 7.44484 1.19356 9.50845 1.81096 10.7702C2.65165 12.4859 4.06791 14.9646 5.21056 15.2841C5.82336 15.4553 6.20748 15.2002 6.20559 14.7065C6.20438 14.3172 6.14016 13.9369 5.8946 13.7499C5.8946 13.7499 4.71445 13.7425 4.59329 13.6376C4.47227 13.5327 4.37742 12.8233 4.39941 12.681C4.42167 12.5388 5.68615 12.7966 5.7528 12.6591C5.81999 12.5218 5.42778 11.7163 5.49767 11.5798C5.56688 11.4432 6.52158 11.5862 6.52158 11.5862Z"
      fill="#093552"/>
    <path d="M11.1437 17.7434H2.6189V19.1749H11.1437" fill="#093552"/>
    <path d="M10.9562 17.7434H19.4811V19.1749H10.9562" fill="#093552"/>
  </g>
  <defs>
    <clipPath id="clip0_1073_639">
      <rect width="228.286" height="34" fill="white"/>
    </clipPath>
  </defs>
</svg>
