<svg width="152" height="20" viewBox="0 0 152 20" fill="none" xmlns="http://www.w3.org/2000/svg">
  <path
    d="M53.5114 0.457441C53.4677 0.457441 53.4032 0.476551 53.322 0.51405C53.3045 0.52405 53.2828 0.530687 53.2654 0.539436C52.7016 0.801931 51.7339 1.01942 50.3514 1.19566V1.73667C51.1289 1.73667 51.565 1.7593 51.66 1.80305C51.7288 1.82804 51.7804 1.87392 51.8104 1.9339C51.8567 2.0239 51.8915 2.44187 51.9178 3.19563C51.9553 4.3106 51.9725 5.39469 51.9725 6.43966V10.3458C51.94 12.062 51.9215 12.9625 51.9178 13.045C51.9028 13.365 51.8628 13.5892 51.7928 13.713C51.7153 13.8405 51.5865 13.9238 51.3065 13.9376L50.4081 13.9476V14.4749V14.4905C52.0468 14.4368 52.7042 14.4319 52.8455 14.4319C54.0355 14.4469 54.8627 14.4768 55.1052 14.4905V13.9476C54.4465 13.9363 54.0943 13.9246 54.0505 13.9183C53.9493 13.8946 53.874 13.8613 53.824 13.8226C53.6427 13.6738 53.6042 13.4229 53.5955 12.9867C53.5905 12.8566 53.5689 11.9746 53.5389 10.3421L53.5604 3.98674C53.5604 3.98674 53.6458 0.723188 53.6521 0.61569C53.6521 0.566942 53.6396 0.528563 53.615 0.498564C53.5912 0.469814 53.5539 0.457441 53.5114 0.457441ZM59.2203 0.457441C59.1128 0.476191 58.9354 0.560055 58.7066 0.64884C58.1241 0.863834 57.2452 1.04571 56.0602 1.1957V1.73671C56.8377 1.73671 57.275 1.75933 57.3688 1.80308C57.4388 1.82808 57.4879 1.87396 57.5192 1.93394C57.5642 2.02394 57.6003 2.44191 57.6266 3.19566C57.6641 4.31064 57.6832 5.39473 57.6832 6.4397V10.3459C57.6494 12.0621 57.6316 12.9626 57.6266 13.0451C57.6128 13.3651 57.5715 13.5893 57.5015 13.713C57.4253 13.8405 57.2933 13.9239 57.0133 13.9376L56.1168 13.9476V14.4671V14.4906C57.6355 14.4381 58.3205 14.432 58.5543 14.432C59.5692 14.4433 60.3715 14.4706 60.814 14.4906V13.9477C60.1565 13.9364 59.8031 13.9247 59.7593 13.9184C59.6568 13.8947 59.5828 13.8614 59.5328 13.8227C59.3503 13.6739 59.3142 13.423 59.3042 12.9868C59.298 12.8568 59.2801 11.9748 59.2476 10.3423L59.2691 3.98699C59.2691 3.98699 59.3534 0.723417 59.3609 0.615919C59.3609 0.567171 59.3496 0.528811 59.3237 0.498812C59.2987 0.470062 59.2653 0.457441 59.2203 0.457441ZM8.12024 0.832418C5.81529 0.876167 3.98594 1.52671 2.63597 2.79914C1.23975 4.1166 0.540283 5.77307 0.540283 7.77552C0.540283 9.35673 0.963852 10.6689 1.75508 11.7989C2.54382 12.9264 3.80254 13.8895 5.47375 14.377C6.30874 14.622 7.20534 14.7442 8.18657 14.7442C9.0153 14.7442 9.7809 14.6592 10.4834 14.4942C11.1871 14.3267 11.9046 14.0568 12.6396 13.6856L13.0068 12.8067L12.8466 12.6095C12.3504 12.9619 11.8518 13.2218 11.3505 13.3868C10.548 13.6518 9.65068 13.7633 8.72945 13.7383C6.93074 13.6933 5.47214 13.1205 4.35842 12.0119C3.19845 10.8519 2.61822 9.32455 2.61822 7.4221C2.62446 6.33712 2.77861 5.43514 3.0811 4.71516C3.38234 3.99767 3.77208 3.40468 4.24707 2.93595C5.16955 2.02722 6.31579 1.61899 8.02825 1.57274C8.07574 1.57024 8.11936 1.56898 8.16691 1.56898C10.5594 1.56898 11.7893 2.16247 11.9168 3.39118L11.9243 4.49858H12.0005H12.4946C12.5321 3.7961 12.6009 3.17763 12.6997 2.64514C12.7672 2.31265 12.8713 1.97256 13.0063 1.62757C12.8501 1.59632 12.4224 1.4864 11.7212 1.3014C11.0225 1.11641 10.4275 0.993927 9.93999 0.926428C9.38626 0.851431 8.76141 0.824919 8.12024 0.832418ZM65.0289 1.10976V1.13715V1.7094C65.7551 1.7194 66.1954 1.75527 66.3491 1.80902C66.5066 1.86026 66.619 1.94371 66.689 2.0512C66.7602 2.15995 66.8031 2.51479 66.8218 3.10978C66.8605 3.92601 66.8804 4.75799 66.8804 5.61172V9.76787C66.8804 10.9803 66.9677 11.8407 67.144 12.3557C67.2815 12.7457 67.5358 13.124 67.9058 13.5002C68.647 14.2452 70.1 14.7443 72.0424 14.7443C73.6999 14.7443 75.1136 14.3349 75.9798 13.635C76.5586 13.165 76.955 12.6211 77.1712 12.0061C77.3874 11.3924 77.4954 10.3108 77.4954 8.76207V5.61176C77.5154 3.9568 77.5427 3.06745 77.5814 2.93995C77.5989 2.45746 77.6463 2.1523 77.7201 2.0298C77.7826 1.93231 77.8888 1.86036 78.0463 1.80911C78.2038 1.75536 78.6444 1.71949 79.3744 1.70949V1.10991C77.9007 1.15741 76.9391 1.16841 76.6792 1.16454C76.2167 1.15829 75.5887 1.13991 74.7924 1.10991V1.13728V1.70953C75.5149 1.71953 75.9579 1.7554 76.1167 1.80915C76.2767 1.8604 76.3917 1.94134 76.4604 2.05134C76.5304 2.16009 76.5729 2.51296 76.5854 3.10795C76.6242 3.92293 76.6441 4.75866 76.6441 5.60989V8.50245C76.6441 10.1462 76.5306 11.1888 76.2632 11.8012C75.9932 12.4162 75.5134 12.9209 74.4233 13.2622C73.8784 13.4347 73.2555 13.522 72.5543 13.522C71.3455 13.522 70.3323 13.2431 69.7536 12.8169C69.3773 12.5357 69.1051 12.1786 68.9313 11.7486C68.7588 11.3186 68.6716 10.4309 68.6716 9.08464V5.61008C68.7003 3.95637 68.7195 3.06652 68.7282 2.94028C68.747 2.45904 68.7954 2.15318 68.8766 2.02818C68.9304 1.93319 69.0389 1.86068 69.1989 1.80943C69.3589 1.75569 69.8006 1.71982 70.5231 1.70982V1.11024C69.1444 1.15524 67.7208 1.16874 67.4021 1.16486C66.6596 1.16111 65.8714 1.14213 65.0289 1.10976ZM132.141 1.22301C131.844 1.22301 131.598 1.32727 131.393 1.53356C131.186 1.73981 131.083 1.98909 131.083 2.28159C131.083 2.56908 131.186 2.81555 131.393 3.02179C131.803 3.43178 132.464 3.43678 132.877 3.02179C133.085 2.81555 133.188 2.56908 133.188 2.28159C133.188 1.98909 133.087 1.73981 132.883 1.53356C132.681 1.32732 132.434 1.22301 132.141 1.22301ZM92.912 1.22551C92.6195 1.22551 92.3715 1.32789 92.164 1.53411C91.9577 1.74036 91.8554 1.98965 91.8554 2.28214C91.8554 2.56963 91.9578 2.8161 92.164 3.02235C92.3702 3.22859 92.6208 3.33289 92.912 3.33289C93.1995 3.33289 93.4453 3.22864 93.6503 3.02235C93.8565 2.8161 93.9608 2.56963 93.9608 2.28214C93.9608 1.98965 93.86 1.74036 93.6561 1.53411C93.4549 1.32787 93.2058 1.22551 92.912 1.22551ZM138.078 2.47749C137.677 2.73498 137.153 2.97654 136.508 3.20404V6.06534C136.149 6.24158 135.664 6.44119 135.055 6.66494V7.01844V7.05944C136.005 7.00819 136.508 7.00281 136.508 7.00281C136.508 7.00281 136.507 11.0664 136.495 11.2801C136.472 11.7913 136.457 12.2641 136.45 12.6941C136.482 13.1428 136.556 13.4716 136.668 13.6804C136.895 14.0991 137.228 14.3651 137.62 14.5163C137.817 14.5913 138.084 14.6315 138.411 14.6315C138.945 14.6315 139.31 14.5885 139.784 14.4148C140.057 14.1635 140.343 13.9227 140.635 13.6902L140.522 13.3249C140.321 13.3962 140.154 13.4401 140.008 13.4675C139.978 13.4738 139.94 13.4858 139.912 13.487C139.751 13.5108 139.542 13.5221 139.283 13.5221C139.245 13.5184 139.212 13.5095 139.176 13.5045C138.576 13.412 138.381 13.2601 138.213 13.0026C138.126 12.8651 138.066 12.7051 138.034 12.5202C138.002 12.3352 137.997 11.7704 138.016 10.8229L138.073 6.94603C139.629 6.93728 140.172 6.94228 140.551 6.94603L140.748 6.1238L140.682 6.06516C139.358 6.12391 138.922 6.13017 138.619 6.12767C138.474 6.12517 138.298 6.12267 138.073 6.12017C138.155 4.33896 138.231 3.18761 138.301 2.66513L138.078 2.47749ZM19.0537 5.35242C17.6575 5.35242 16.5139 5.7946 15.6202 6.6884C14.7289 7.57963 14.2823 8.72885 14.2823 10.1376C14.2823 10.92 14.4265 11.6532 14.714 12.3406C15.039 13.1206 15.6446 13.9126 16.6534 14.4051C17.1584 14.6513 17.7716 14.7742 18.4991 14.7742C19.4303 14.7742 20.2873 14.5578 21.0636 14.1278C21.8398 13.6965 22.4388 13.0994 22.8663 12.3407C23.2913 11.5757 23.5049 10.7347 23.5049 9.81723C23.5049 8.50101 23.091 7.42979 22.2647 6.59856C21.4385 5.76983 20.3674 5.35242 19.0537 5.35242ZM46.4106 5.35242C45.3881 5.35242 44.5489 5.67585 43.6627 6.28208C43.2789 6.54458 42.9975 6.77543 42.815 6.97543C42.5638 7.25292 42.34 7.68321 42.1412 8.26438C41.945 8.84687 41.8463 9.49959 41.8463 10.2233C41.8463 12.0745 42.6318 13.5059 43.9692 14.1959C44.6392 14.5421 45.3903 14.7173 46.2153 14.7173C47.0553 14.7173 47.8335 14.5095 48.4223 14.2408C48.6223 14.1533 48.9402 13.9703 49.3715 13.6978L49.6742 13.0221L49.5218 12.86C48.9631 13.2075 48.4931 13.4324 48.1156 13.5611C47.1707 13.8749 46.2152 13.7964 45.3364 13.3502C44.2877 12.8165 43.6642 11.7194 43.6392 9.9069H46.6568C47.3343 9.9069 48.0118 9.88075 48.688 9.83076C49.0467 9.80826 49.4496 9.74902 49.9008 9.6628C49.9383 9.41155 49.9575 9.19647 49.9575 9.02023C49.9575 7.62651 49.4524 6.4753 48.3149 5.83282C47.7486 5.51282 47.113 5.35242 46.4106 5.35242ZM109.804 5.35242C108.787 5.35242 107.945 5.67585 107.056 6.28208C106.674 6.54458 106.39 6.77543 106.209 6.97543C105.957 7.25292 105.733 7.68321 105.537 8.26438C105.338 8.84687 105.24 9.49959 105.24 10.2233C105.24 12.0745 106.025 13.5059 107.363 14.1959C108.034 14.5421 108.778 14.7173 109.609 14.7173C110.448 14.7173 111.228 14.5095 111.816 14.2408C112.016 14.1533 112.333 13.9703 112.765 13.6978L113.068 13.0221L112.915 12.86C112.354 13.2012 111.887 13.4324 111.509 13.5611C110.569 13.8724 109.616 13.7989 108.732 13.3502C107.684 12.8165 107.057 11.7194 107.031 9.9069H110.05C110.726 9.9069 111.405 9.88075 112.081 9.83076C112.439 9.80826 112.843 9.74902 113.294 9.6628C113.332 9.41155 113.351 9.19647 113.351 9.02023C113.351 7.62651 112.846 6.4753 111.708 5.83282C111.142 5.51282 110.508 5.35242 109.804 5.35242ZM125.161 5.36368C124.606 5.39618 124.085 5.51632 123.607 5.74256C122.492 6.26255 121.993 7.1333 121.993 8.11952C121.993 8.79701 122.257 9.39812 122.671 9.77186C122.877 9.9606 123.154 10.1211 123.505 10.2523C123.738 10.3336 124.251 10.4643 125.046 10.6468C125.84 10.8281 126.357 10.9757 126.599 11.0882C127.082 11.3132 127.345 11.7285 127.345 12.2523C127.345 12.841 127.138 13.3034 126.73 13.6409C126.32 13.9796 125.796 14.1467 125.157 14.1467C124.894 14.1442 124.577 14.1355 124.288 14.1096C123.904 14.0596 123.526 13.9077 123.212 13.6252C122.898 13.3415 122.768 12.9069 122.704 12.4807C122.673 12.267 122.654 11.9785 122.648 11.6135H122.109C122.097 12.4273 122.082 12.9634 122.064 13.2209C122.01 13.7396 121.944 14.0694 121.937 14.1681C121.937 14.2119 121.951 14.2406 121.976 14.2619C122.013 14.3006 122.276 14.3675 122.769 14.465C123.659 14.6337 124.375 14.7169 124.907 14.7169C126.074 14.7169 127.003 14.403 127.698 13.7756C128.393 13.1456 128.741 12.4096 128.741 11.5646C128.741 10.7159 128.344 10.0904 127.753 9.80289C127.457 9.66164 126.915 9.48976 126.13 9.28727L124.577 8.90447C123.991 8.72823 123.697 8.53238 123.505 8.17989C123.409 8.00614 123.36 7.79724 123.36 7.55099C123.36 7.11475 123.527 6.73593 123.86 6.40844C124.193 6.0847 124.641 5.92017 125.181 5.92017C126.336 5.92017 126.955 6.43618 127.161 6.77367C127.23 6.88492 127.283 7.01399 127.323 7.15649C127.364 7.30023 127.399 7.60061 127.431 8.05685H127.511H127.97C127.987 7.33187 128.016 6.62139 128.056 5.92015C127.732 5.75891 127.311 5.62389 126.792 5.5139C126.156 5.3814 125.638 5.34493 125.161 5.36368ZM37.1045 5.40854C36.6227 5.39979 36.1111 5.49042 35.5656 5.68979L33.8136 7.18975C33.8361 6.33227 33.8678 5.74078 33.8703 5.65078C33.8703 5.58829 33.8578 5.54217 33.8331 5.51212C33.8094 5.48212 33.7714 5.46724 33.7276 5.46724C33.6839 5.46724 33.6 5.49712 33.4737 5.55712C33.4662 5.56087 33.459 5.56587 33.4502 5.56837C32.8615 5.84086 31.9401 6.06438 30.6827 6.23438V6.77537H30.7549C31.4174 6.77162 31.7986 6.78413 31.8936 6.81638C31.9923 6.85137 32.0613 6.90387 32.1025 6.97262C32.1425 7.04137 32.1717 7.26136 32.1904 7.62885C32.2279 8.20259 32.249 8.74017 32.249 9.2402C32.249 9.2402 32.2092 12.0692 32.1904 13.0467C32.1717 13.3667 32.1275 13.5877 32.0576 13.7127C31.9826 13.8402 31.848 13.9255 31.583 13.9393L30.6826 13.9468V14.4741V14.4897C32.4763 14.4385 33.1068 14.4311 33.2743 14.4311C34.3581 14.4436 35.1013 14.4747 35.37 14.4897V13.9468C34.715 13.9355 34.3717 13.9238 34.333 13.9175C34.123 13.87 34.0341 13.7871 33.9853 13.6734C33.9203 13.5297 33.8825 13.2997 33.87 12.9859C33.85 11.9722 33.8134 9.19888 33.8134 9.19888C33.8134 8.50765 33.8972 8.01485 34.0634 7.72242C34.2297 7.43118 34.5074 7.17134 34.8974 6.9451C35.2861 6.7176 35.7191 6.60331 36.1904 6.60331C37.2603 6.60331 38.0703 7.16898 38.2841 8.01151C38.3591 8.32025 38.3954 8.96611 38.3954 9.95485V11.5427C38.3954 11.9514 38.3591 12.9279 38.2841 14.4704C38.2841 14.4766 38.2816 14.4836 38.2816 14.4899C39.434 14.4386 39.8569 14.4313 39.9944 14.4313C40.6706 14.4413 41.2258 14.4736 41.4982 14.4899V13.9469L40.5158 13.9177C40.2446 13.8814 40.1332 13.766 40.0745 13.3923C40.0357 13.096 40.0178 12.5399 40.0178 11.7224V10.0565C40.0178 8.76027 39.9958 7.97303 39.9533 7.68929C39.8021 6.73806 39.3777 6.13433 38.469 5.72059C38.0384 5.52372 37.5864 5.41697 37.1045 5.40854ZM85.2322 5.40854C84.7495 5.40104 84.2404 5.49354 83.703 5.68979L81.953 7.18975C81.9743 6.34727 82.0071 5.74078 82.0097 5.65078C82.0097 5.58829 81.9956 5.54217 81.9706 5.51212C81.9469 5.48212 81.9121 5.46724 81.8671 5.46724C81.8246 5.46724 81.7416 5.49511 81.6191 5.55511C81.6179 5.55511 81.6153 5.55761 81.6116 5.55761C81.0241 5.83511 80.0939 6.06407 78.8227 6.23532V6.77634H78.9047C79.5584 6.77259 79.9353 6.78508 80.0316 6.81733C80.1303 6.85233 80.2013 6.90483 80.2425 6.97358C80.2825 7.04232 80.311 7.26233 80.3285 7.62982C80.366 8.20356 80.3871 8.74111 80.3871 9.24115C80.3871 9.24115 80.3473 12.0702 80.3285 13.0477C80.311 13.3677 80.2677 13.5887 80.1977 13.7137C80.1227 13.8412 79.9893 13.9265 79.7231 13.9403L78.8227 13.9477V14.477V14.4907C80.6277 14.4394 81.2551 14.432 81.4164 14.432C82.5201 14.447 83.2656 14.4782 83.5081 14.4907V13.9477C82.8531 13.9365 82.506 13.9247 82.471 13.9185C82.2572 13.871 82.1734 13.7881 82.1234 13.6743C82.0596 13.5306 82.0226 13.3006 82.0101 12.9868C81.9914 11.9731 81.9535 9.1998 81.9535 9.1998C81.9535 8.50857 82.0352 8.01575 82.2015 7.72332C82.3678 7.43207 82.6475 7.17224 83.0375 6.946C83.4274 6.721 83.8522 6.60421 84.3284 6.60421C85.3971 6.60421 86.2071 7.16991 86.4221 8.01243C86.4959 8.32117 86.5354 8.96699 86.5354 9.95574V11.5436C86.5354 11.9523 86.4959 12.9283 86.4221 14.4733C86.4221 14.477 86.4233 14.4845 86.4221 14.4909C87.5908 14.4396 88.0087 14.4323 88.135 14.4323C88.8337 14.4448 89.3919 14.4746 89.6369 14.4909V13.9479L88.6545 13.9187C88.3845 13.8824 88.2756 13.7696 88.2131 13.3933C88.1756 13.0971 88.1565 12.5409 88.1565 11.7235V10.0575C88.1565 8.7613 88.1338 7.97406 88.0901 7.69032C87.9414 6.73909 87.5165 6.13534 86.6078 5.7216C86.1722 5.52286 85.7148 5.41572 85.2322 5.40854ZM93.6675 5.40854C92.8375 5.80228 91.8181 6.06595 90.6031 6.20344V6.7464C91.3493 6.7464 91.7699 6.77178 91.8687 6.81678C91.9674 6.86427 92.035 6.93389 92.0737 7.02771C92.1362 7.2027 92.1675 7.75926 92.1675 8.69168V10.3459C92.13 12.0646 92.1108 12.9619 92.1108 13.0469C92.0908 13.3669 92.0469 13.5892 91.9781 13.7129C91.9031 13.8404 91.769 13.9238 91.5015 13.9375L90.6031 13.9475V14.4729V14.4905C92.253 14.438 92.8773 14.4319 93.0835 14.4319C94.126 14.4444 95.0092 14.4743 95.3842 14.4905V13.9476C94.7205 13.9363 94.3683 13.9246 94.3295 13.9183C94.2283 13.8946 94.1555 13.8613 94.103 13.8226C93.9292 13.6813 93.8845 13.4292 93.8745 12.9867C93.8695 12.8567 93.8491 11.9747 93.8179 10.3422V8.6294C93.8179 7.91817 93.837 6.89545 93.8745 5.55923L93.6675 5.40854ZM132.895 5.40854C132.062 5.80853 131.044 6.06595 129.829 6.20344V6.7464C130.575 6.7464 130.998 6.77178 131.097 6.81678C131.194 6.86427 131.263 6.93389 131.302 7.02771C131.365 7.2027 131.395 7.75926 131.395 8.69168V10.3459C131.357 12.0646 131.339 12.9619 131.339 13.0469C131.319 13.3669 131.274 13.5892 131.206 13.7129C131.127 13.8404 130.998 13.9238 130.731 13.9375L129.829 13.9475V14.4749V14.4905C131.515 14.438 132.129 14.4319 132.311 14.4319C133.405 14.4444 134.298 14.4767 134.612 14.4905V13.9475C133.948 13.9363 133.595 13.9245 133.557 13.9183C133.456 13.8945 133.381 13.8613 133.331 13.8225C133.156 13.6813 133.114 13.4291 133.104 12.9866C133.099 12.8566 133.078 11.9746 133.046 10.3422V8.62934C133.046 7.91811 133.065 6.89538 133.104 5.55916L132.895 5.40854ZM29.3002 5.42418C28.711 5.36443 28.1274 5.57627 27.7045 5.94563C27.597 6.04063 27.4252 6.24743 27.1889 6.56867C26.9502 6.88867 26.6928 7.21437 26.4116 7.53936C26.4278 6.44563 26.4677 5.74328 26.4702 5.65078C26.4702 5.58829 26.4561 5.54215 26.4312 5.5121C26.4062 5.4821 26.3715 5.46723 26.3277 5.46723C26.284 5.46723 26.1968 5.4971 26.0718 5.5571C26.0368 5.5746 25.998 5.59098 25.9605 5.60598C25.3705 5.86347 24.4795 6.07363 23.2808 6.23488V6.77586H23.287C23.9908 6.76961 24.3947 6.78462 24.496 6.81687C24.5997 6.85187 24.6708 6.90437 24.7108 6.97312C24.7521 7.04187 24.7785 7.26185 24.791 7.62934C24.8285 8.20308 24.8457 8.74136 24.8457 9.24256C24.8457 9.24256 24.846 10.4323 24.791 12.971C24.771 13.4397 24.7057 13.7025 24.5507 13.8225C24.497 13.8613 24.4174 13.8929 24.3124 13.9104C24.2562 13.9242 23.8761 13.9363 23.1699 13.9475V14.4709V14.4905C24.5861 14.4367 25.3878 14.4343 25.5116 14.4318C26.9591 14.4468 28.0169 14.478 28.3494 14.4905V13.9475C27.5182 13.8925 27.0082 13.8357 26.8182 13.7795C26.6294 13.7183 26.5649 13.6444 26.5174 13.4319C26.4912 13.3244 26.4768 13.0765 26.4705 12.6878C26.4318 11.5903 26.4119 10.8333 26.4119 10.4183V9.44764C26.4119 8.6539 26.5796 8.05617 26.9158 7.65868C27.2496 7.25869 27.6565 7.05908 28.1365 7.05908C28.7065 7.05908 29.0586 7.32095 29.3474 7.91844H29.7712C29.7862 7.2847 29.8411 6.54697 29.9411 5.70949L29.8864 5.57863C29.6945 5.49401 29.4967 5.44408 29.3002 5.42418ZM120.579 5.42418C119.989 5.3653 119.407 5.58002 118.986 5.94563C118.879 6.04063 118.709 6.24743 118.47 6.56867C118.118 7.02616 117.848 7.35186 117.693 7.53936C117.715 6.26439 117.749 5.74328 117.751 5.65078C117.751 5.58829 117.737 5.54215 117.712 5.5121C117.686 5.4821 117.652 5.46723 117.609 5.46723C117.48 5.49722 117.247 5.60856 116.997 5.70356C116.415 5.91605 115.606 6.09355 114.562 6.2348V6.77581C115.271 6.76956 115.674 6.78455 115.777 6.8168C115.881 6.85179 115.952 6.90429 115.992 6.97304C116.032 7.04179 116.06 7.2618 116.072 7.62929C116.11 8.20302 116.126 8.74129 116.126 9.24249C116.126 9.24249 116.129 10.4322 116.072 12.9709C116.054 13.4396 115.988 13.7024 115.832 13.8224C115.779 13.8612 115.698 13.8928 115.593 13.9103C115.537 13.9241 115.154 13.9362 114.449 13.9474V14.4631V14.4904C115.812 14.4392 116.614 14.4343 116.792 14.4318C118.089 14.4418 119.121 14.4742 119.63 14.4904V13.9475C118.799 13.8925 118.288 13.8357 118.099 13.7795C117.912 13.7183 117.847 13.6444 117.798 13.4319C117.772 13.3244 117.756 13.0765 117.751 12.6877C117.714 11.5903 117.693 10.8333 117.693 10.4183V9.44762C117.693 8.65388 117.862 8.05615 118.197 7.65866C118.533 7.26117 118.939 7.05906 119.417 7.05906C119.989 7.05906 120.343 7.32093 120.63 7.91842H121.052C121.066 7.28468 121.121 6.54693 121.224 5.70945L121.167 5.57859C120.974 5.49334 120.776 5.4438 120.579 5.42418ZM95.3012 5.6644V5.69177V6.20348C95.6799 6.21848 95.9097 6.23586 95.9985 6.26211C96.2122 6.31086 96.3592 6.4393 96.6117 7.00428L99.3148 13.2854C99.4123 13.5054 99.5815 13.9344 99.8265 14.5744H100.793C101.726 12.3682 102.271 11.0938 102.43 10.7463L103.336 8.82061C103.926 7.61564 104.268 6.9419 104.356 6.78941C104.482 6.56316 104.611 6.41589 104.739 6.34214C104.867 6.26964 105.127 6.22352 105.52 6.20348V5.66444C104.226 5.70944 103.629 5.72343 103.336 5.71718C103.011 5.70718 102.537 5.69069 101.912 5.66444V5.69568V6.20348C102.567 6.22348 102.97 6.27461 103.121 6.35582C103.266 6.43332 103.263 6.61863 103.205 6.86362C103.104 7.25861 102.903 7.82954 102.602 8.57459C102.131 9.74831 101.852 10.4269 101.742 10.6819L100.805 12.8089C100.802 12.8064 100.8 12.8001 100.797 12.7976C100.355 11.7626 99.899 10.6824 99.899 10.6824L98.7508 7.83097C98.4996 7.21223 98.3739 6.80827 98.3739 6.62202C98.3739 6.50202 98.4336 6.40757 98.5536 6.33882C98.6723 6.27008 99.0708 6.22407 99.7508 6.20405V5.66501C98.4321 5.71001 97.4801 5.7235 97.2313 5.71975C96.7626 5.711 96.12 5.6944 95.3012 5.6644ZM141.445 5.6644V5.6859V6.20543C141.891 6.25668 142.18 6.3193 142.308 6.39683C142.437 6.47557 142.557 6.62386 142.67 6.85385C142.953 7.43259 143.318 8.27419 143.761 9.37916L145.258 13.0861C145.54 13.7886 145.782 14.4221 145.982 14.9845C145.718 15.6783 145.42 16.364 145.09 17.0352C144.868 17.4702 144.679 17.7764 144.517 17.9551C144.199 18.3114 143.821 18.4727 143.431 18.4727C143.301 18.4727 143.2 18.4615 143.111 18.4473C143.072 18.4398 143.031 18.4346 143 18.4258C142.806 18.3621 142.662 18.2487 142.424 18.045H142.195L141.715 19.4981C142.13 19.7256 142.421 19.8125 142.838 19.8125C143.693 19.8125 144.421 19.4439 144.945 18.7539C145.206 18.409 145.522 17.8329 145.892 17.0255L148.052 11.9396C149.009 9.8309 149.664 8.41543 150.019 7.6917C150.373 6.96796 150.639 6.54063 150.814 6.41435C150.99 6.28811 151.237 6.22037 151.558 6.20537L151.652 5.66438C150.997 5.70063 149.741 5.75313 148.027 5.66438V5.69175V6.20541C148.686 6.26916 149.065 6.33391 149.16 6.40266C149.32 6.51016 149.336 6.68703 149.271 6.94952C149.189 7.23952 148.903 7.9988 148.412 9.22873C147.923 10.455 147.581 11.2892 147.384 11.7267L146.886 12.836C146.426 11.7773 145.388 9.23648 145.388 9.23648C145.168 8.69149 144.938 8.03456 144.693 7.26577C144.587 6.95578 144.533 6.75571 144.533 6.65446C144.533 6.49572 144.615 6.38635 144.777 6.32635C144.872 6.28885 145.243 6.25022 145.89 6.20522V5.66423C144.819 5.70798 143.664 5.72397 143.486 5.71897C142.812 5.71522 142.133 5.69953 141.445 5.6644ZM18.6692 5.97884C19.7592 5.97884 20.6941 6.51634 21.2766 7.9788C21.5678 8.70878 21.714 9.57676 21.714 10.5842C21.714 11.7955 21.4672 12.6917 20.9797 13.2717C20.4934 13.8542 19.8837 14.1467 19.1575 14.1467C18.59 14.1467 18.0605 13.9595 17.5755 13.592C17.0893 13.2207 16.7197 12.6346 16.4623 11.8284C16.206 11.0247 16.0775 10.2354 16.0775 9.45546C16.0775 8.26548 16.3175 7.38775 16.7962 6.82277C17.275 6.26028 17.8993 5.97884 18.6692 5.97884ZM46.0123 5.97884C47.3536 5.97884 48.2233 6.87959 48.2233 8.87327C48.2233 8.95452 48.222 9.07288 48.2158 9.22288C47.9521 9.25538 47.4024 9.26976 46.5673 9.26976H46.4482C45.4782 9.24976 44.1492 9.205 43.6417 9.16625C43.6479 8.06253 43.8673 7.25567 44.2998 6.74443C44.7336 6.23444 45.3049 5.97884 46.0123 5.97884ZM109.403 5.97884C110.746 5.97884 111.618 6.87959 111.618 8.87327C111.618 8.95452 111.613 9.07288 111.608 9.22288C111.344 9.25538 110.794 9.26976 109.962 9.26976C109.854 9.26976 109.419 9.266 108.03 9.22288C107.541 9.20538 107.21 9.18375 107.032 9.16625C107.04 8.06253 107.26 7.25567 107.692 6.74443C108.125 6.23444 108.7 5.97884 109.403 5.97884Z"
    fill="#B31B1B"/>
</svg>
