<svg width="202" height="22" viewBox="0 0 202 22" fill="none" xmlns="http://www.w3.org/2000/svg">
  <path fill-rule="evenodd" clip-rule="evenodd"
        d="M8.073 18.8441H4.358V2.84811H8.335C13.658 2.84811 16.582 5.53311 16.582 11.0781C16.582 15.8951 13.922 18.8441 8.072 18.8441H8.073ZM8.863 0.630109H0V1.01011C0.79 1.47611 1.142 2.03011 1.142 4.24811V17.4421C1.142 19.6611 0.79 20.2151 0 20.6841V21.0641H8.306C16.026 21.0641 20.004 16.5091 20.004 10.2911C20.004 4.68711 16.145 0.630109 8.863 0.630109ZM27.374 12.9181L30.65 5.44611L33.925 12.9181H27.374ZM39.686 17.9091L31.76 0.395109H30.562L22.636 17.9101C21.846 19.6331 21.437 20.2761 20.56 20.6851V21.0651H25.824V20.6851C24.772 20.2751 24.42 19.6331 25.355 17.5031L26.438 15.0211H34.86L35.943 17.5031C36.878 19.6331 36.556 20.2761 35.621 20.6851V21.0651H41.616V20.6851C40.856 20.2751 40.476 19.6321 39.686 17.9091ZM50.476 20.6841C49.833 20.3621 49.336 19.6611 49.336 17.4421V2.76111H51.998C55.244 2.76111 56.881 4.01611 56.881 6.73111C56.881 9.21111 55.331 10.7591 52.378 10.7591H50.448V11.0511L51.354 12.8901H52.231C53.196 12.8901 53.488 13.2101 54.921 15.1371L58.577 20.0401C59.162 20.8291 59.571 21.0631 60.332 21.0631H63.93V20.6831C63.17 20.3921 62.584 19.9531 61.18 18.1431L58.665 14.9331C57.319 13.2401 56.589 12.3931 55.711 12.0431C58.724 11.2541 60.274 9.12311 60.274 6.55511C60.274 2.79111 57.758 0.630109 52.319 0.630109H44.949V1.01011C45.593 1.33011 46.089 2.03011 46.089 4.24811V17.4421C46.089 19.6611 45.593 20.3621 44.949 20.6841V21.0641H50.476V20.6841ZM76.066 20.6841C75.19 20.1871 74.78 19.6041 74.78 17.2971V2.84811H77.265C80.453 2.84811 81.067 3.31511 81.915 4.36511L82.295 4.24811L81.681 0.367109C80.483 0.513109 78.903 0.630109 76.915 0.630109H69.399C67.409 0.630109 65.831 0.513109 64.631 0.367109L64.018 4.24811L64.398 4.36511C65.246 3.31511 65.859 2.84811 69.048 2.84811H71.534V17.2981C71.534 19.6031 71.124 20.1881 70.247 20.6841V21.0641H76.067L76.066 20.6841ZM88.671 20.6841C87.764 20.3041 87.384 19.6041 87.676 17.3541L89.022 7.19711L95.69 20.8001H96.918L103.673 7.17011L104.931 17.4731C105.195 19.6621 104.902 20.3051 104.053 20.6851V21.0651H109.611V20.6851C108.851 20.2751 108.528 19.6621 108.236 17.5901L105.896 0.396109H104.406L96.771 16.1301L89.139 0.395109H87.648L85.22 17.4721C84.927 19.6031 84.488 20.2451 83.64 20.6841V21.0641H88.67L88.671 20.6841ZM123.209 19.2521C118.881 19.2521 115.547 15.4881 115.547 10.3501C115.547 5.44611 118.384 2.41011 122.654 2.41011C126.982 2.41011 130.316 6.17511 130.316 11.3131C130.316 16.2171 127.48 19.2521 123.209 19.2521ZM122.917 0.162109C116.367 0.162109 112.096 5.21211 112.096 10.9921C112.096 16.4791 116.015 21.5001 122.946 21.5001C129.497 21.5001 133.766 16.4501 133.766 10.6721C133.766 5.18411 129.849 0.162109 122.917 0.162109ZM151.372 1.00911C152.22 1.50611 152.658 2.08911 152.658 4.39611V13.1231C152.658 16.8581 150.641 18.9321 147.102 18.9321C143.417 18.9321 141.429 16.9181 141.429 13.3271V4.24811C141.429 2.03011 141.779 1.47611 142.569 1.00911V0.629109H137.042V1.00911C137.832 1.47611 138.183 2.03011 138.183 4.24911V13.5321C138.183 18.5521 141.312 21.5001 146.663 21.5001C151.986 21.5001 155.145 18.5231 155.145 13.1231V4.39611C155.145 2.08911 155.583 1.50611 156.431 1.00911V0.629109H151.372V1.00911ZM171.667 20.6841C170.79 20.1871 170.381 19.6041 170.381 17.2971V2.84811H172.866C176.054 2.84811 176.669 3.31511 177.516 4.36511L177.896 4.24811L177.282 0.367109C176.083 0.513109 174.504 0.630109 172.515 0.630109H165C163.011 0.630109 161.433 0.513109 160.233 0.367109L159.62 4.24811L160 4.36511C160.848 3.31511 161.462 2.84811 164.65 2.84811H167.136V17.2981C167.136 19.6031 166.726 20.1881 165.848 20.6841V21.0641H171.668L171.667 20.6841ZM186.875 1.00911V0.629109H181.347V1.00911C182.137 1.47611 182.487 2.03011 182.487 4.24911V17.4421C182.487 19.6611 182.137 20.2151 181.347 20.6841V21.0641H186.875V20.6841C186.085 20.2151 185.735 19.6611 185.735 17.4421V11.7501H197.461V17.4421C197.461 19.6611 197.111 20.2151 196.321 20.6841V21.0641H201.848V20.6841C201.058 20.2151 200.708 19.6611 200.708 17.4421V4.24811C200.708 2.03011 201.058 1.47611 201.848 1.00911V0.629109H196.321V1.00911C197.111 1.47611 197.461 2.03011 197.461 4.24911V9.50311H185.734V4.24811C185.734 2.03011 186.084 1.47611 186.874 1.00911H186.875Z"
        fill="#2A6433"/>
</svg>
