<svg width="350" height="75" viewBox="0 0 350 75" fill="none" xmlns="http://www.w3.org/2000/svg">
  <path fill-rule="evenodd" clip-rule="evenodd"
        d="M22.75 35.9833C22.4 37.4999 21.4667 40.1833 20.8833 41.4666C19.7167 43.9166 16.45 46.9499 12.95 46.9499C8.75 46.9499 7.11667 44.8499 7.11667 42.6333C7.11667 40.9999 7.93333 39.8333 9.56667 39.8333C11.2 39.8333 11.55 41.2333 11.55 41.6999C11.55 42.2833 11.3167 42.9833 11.0833 43.2166C10.85 43.4499 10.85 43.6833 10.85 44.0333C10.85 44.9666 11.9 45.4333 12.8333 45.4333C15.1667 45.4333 16.45 43.5666 17.2667 40.4166C17.85 38.3166 18.6667 34.6999 20.3 28.3999L20.0667 28.2833C19.4833 29.0999 16.8 32.8333 10.6167 32.8333C4.31667 32.8333 0 28.3999 0 20.4666C0 14.6333 2.68333 9.6166 6.06667 6.1166C8.63333 3.54993 12.6 0.749935 18.9 0.749935C23.6833 0.749935 26.0167 2.2666 26.95 3.08327C27.7667 3.54993 28.1167 3.6666 28.35 3.6666C28.9333 3.6666 29.1667 3.19993 29.4 2.14994C29.4 1.9166 29.6333 1.9166 29.8667 1.9166L30.5667 2.14994C30.8 2.14994 30.9167 2.2666 30.8 2.49993L28.2333 11.7166C28.1167 11.9499 28 12.0666 27.7667 11.9499L27.0667 11.8333C26.8333 11.8333 26.7167 11.5999 26.7167 11.3666C27.5333 7.39993 25.2 2.6166 19.3667 2.6166C16.45 2.6166 13.1833 3.6666 9.91667 7.8666C7.23333 11.2499 5.71667 16.1499 5.71667 21.6333C5.71667 29.0999 10.3833 30.2666 12.3667 30.2666C17.85 30.2666 20.5333 25.5999 20.65 22.9166C20.7667 21.1666 20.3 20.8166 19.0167 20.8166H17.3833C17.0333 20.8166 16.9167 20.6999 17.0333 20.3499L17.2667 19.2999C17.2667 19.0666 17.3833 18.9499 17.7333 18.9499C18.4333 18.9499 20.0667 19.0666 24.0333 19.0666C27.1833 19.0666 28.2333 18.9499 28.8167 18.9499C29.1667 18.9499 29.2833 19.0666 29.2833 19.2999V20.4666C29.2833 20.6999 29.1667 20.8166 28.8167 20.8166H27.8833C27.0667 20.8166 26.3667 21.1666 25.7833 23.6166L22.75 35.9833ZM57.8667 23.8499C57.6333 23.6166 57.4 23.7333 57.2833 23.9666C56.5833 24.7833 54.1333 27.9333 53.0833 28.7499C51.9167 29.7999 50.6333 30.4999 49.1167 30.4999H38.85L43.2833 16.6166H45.6167C48.8833 16.6166 50.6333 17.0833 50.6333 20.3499C50.6333 20.5833 50.6333 20.6999 50.8667 20.8166H51.6833C51.9167 20.8166 51.9167 20.8166 52.0333 20.5833C52.2667 18.8333 53.6667 13.2333 54.3667 11.4833C54.4833 11.3666 54.3667 11.2499 54.1333 11.2499L53.3167 11.0166C53.0833 11.0166 53.0833 11.1333 52.9667 11.2499C51.3333 14.8666 49.5833 15.0999 47.6 15.0999H43.6333L47.4833 3.3166H54.6C54.8333 3.3166 55.1833 3.43327 55.4167 3.6666L60.0833 9.03327C60.3167 9.2666 60.4333 9.38327 60.6667 9.2666L61.25 9.03327C61.4833 8.79993 61.4833 8.79993 61.4833 8.5666L60.0833 2.49993C59.9667 1.5666 59.9667 1.33327 59.15 1.33327C58.6833 1.33327 57.5167 1.33327 55.7667 1.44993C53.9 1.44993 51.45 1.44993 48.1833 1.44993H44.9167C43.8667 1.44993 42.35 1.44993 40.95 1.33327C39.6667 1.33327 38.6167 1.33327 38.2667 1.33327C37.9167 1.33327 37.8 1.44993 37.6833 1.68327L37.45 2.73327C37.3333 2.9666 37.45 3.19993 37.6833 3.19993H39.2C40.6 3.19993 42.2333 3.78327 41.4167 6.34993L34.4167 28.0499C33.95 29.5666 33.0167 30.4999 31.2667 30.4999H29.75C29.5167 30.4999 29.5167 30.6166 29.4 30.7333L29.1667 31.8999C29.1667 32.1333 29.1667 32.2499 29.4 32.2499C29.6333 32.2499 30.45 32.2499 31.3833 32.1333C32.4333 32.1333 33.7167 32.1333 35.1167 32.1333H41.0667C44.2167 32.1333 47.4833 32.1333 50.05 32.1333C52.6167 32.1333 54.4833 32.2499 54.8333 32.2499C55.4167 32.2499 55.65 32.1333 55.8833 31.4333L58.2167 24.7833C58.3333 24.4333 58.2167 24.3166 58.1 24.3166L57.8667 23.8499ZM93.3333 14.1666C93.3333 5.7666 88.2 0.866602 80.9667 0.866602C71.1667 0.866602 64.2833 9.73327 64.2833 19.2999C64.2833 23.3833 65.45 27.1166 68.25 29.7999C71.05 32.4833 74.6667 32.8333 76.4167 32.8333C86.8 32.8333 93.3333 23.2666 93.3333 14.1666ZM75.3667 6.34993C77 4.48327 79.2167 2.9666 81.9 2.9666C85.9833 2.9666 88.3167 5.99993 88.3167 10.5499C88.2 20.4666 82.25 30.6166 75.6 30.6166C71.8667 30.6166 68.8333 27.9333 68.8333 22.3333C68.95 17.3166 71.6333 10.5499 75.3667 6.34993ZM105.583 17.3166C106.867 17.3166 108.85 17.0833 109.9 19.5333C110.483 20.5833 114.45 29.5666 115.15 30.6166C115.733 31.6666 115.967 32.1333 116.433 32.1333C117.133 32.1333 117.95 32.0166 120.633 32.0166C123.083 32.0166 123.783 32.1333 124.25 32.1333C124.483 32.1333 124.6 31.8999 124.717 31.6666L124.833 30.7333C124.95 30.4999 124.833 30.2666 124.6 30.2666H123.433C121.8 30.2666 120.75 29.5666 119.467 27.5833C118.65 26.2999 115.617 19.8833 115.267 19.4166C114.8 18.4833 114.1 17.0833 112.583 16.7333V16.4999C118.533 15.9166 123.317 12.1833 123.317 7.74993C123.317 1.44993 116.433 1.09993 112.583 1.09993C111.3 1.09993 106.517 1.2166 101.85 1.2166C101.383 1.2166 101.267 1.33327 101.267 1.5666L101.033 2.49993C100.917 2.73327 101.033 2.84993 101.383 2.84993H102.9C104.417 2.84993 104.767 3.6666 104.3 5.18327L96.95 28.2833C96.6 29.4499 95.7833 30.3833 94.6167 30.3833H93.45C93.1 30.3833 92.9833 30.4999 92.9833 30.7333L92.75 31.7833C92.6333 32.0166 92.75 32.2499 92.9833 32.2499C93.5667 32.2499 95.3167 32.1333 98.4667 32.1333C102.433 32.1333 104.417 32.2499 105 32.2499C105.233 32.2499 105.467 32.1333 105.583 31.8999L105.7 30.8499C105.817 30.6166 105.7 30.4999 105.467 30.4999H103.6C102.317 30.4999 101.85 29.6833 102.55 27.2333L105.583 17.3166ZM110.017 3.08327C110.6 2.9666 111.067 2.9666 111.883 2.9666C116.317 2.9666 117.717 5.88327 117.717 7.8666C117.717 11.1333 115.617 13.6999 113.283 14.7499C110.133 16.0333 107.8 15.7999 105.933 15.7999L110.017 3.08327ZM145.833 28.0499C145.6 28.7499 145.367 29.4499 144.9 29.6833C144.317 30.1499 142.683 30.7333 140.467 30.7333C136.967 30.7333 132.767 27.8166 132.767 20.8166C132.767 11.1333 138.833 2.6166 145.833 2.6166C151.667 2.6166 153.65 7.39993 153.067 11.3666C152.95 11.7166 153.067 11.9499 153.3 11.9499H154.233C154.467 12.0666 154.583 11.9499 154.7 11.7166L157.383 2.6166C157.383 2.38327 157.267 2.2666 157.15 2.2666L156.45 2.03327C156.217 1.9166 155.983 2.03327 155.983 2.2666C155.517 3.19993 155.283 3.6666 154.7 3.6666C154.467 3.6666 154.117 3.54993 153.65 3.08327C152.717 2.38327 150.15 0.749935 146.3 0.749935C136.033 0.749935 127.167 9.2666 127.167 20.3499C127.167 26.9999 132.3 32.7166 140.817 32.7166C144.783 32.7166 148.633 31.1999 149.917 30.6166C150.5 30.3833 150.733 30.1499 150.85 29.5666L152.367 22.5666C152.6 21.3999 153.417 21.0499 154.583 21.0499H155.283C155.517 21.0499 155.75 20.9333 155.75 20.6999L155.867 19.7666C155.867 19.4166 155.75 19.1833 155.517 19.1833C154.933 19.1833 153.767 19.2999 150.15 19.2999C146.417 19.2999 144.9 19.1833 144.083 19.1833C143.85 19.1833 143.617 19.2999 143.617 19.5333L143.383 20.4666C143.383 20.6999 143.383 20.9333 143.85 20.9333H145.367C146.65 20.9333 147.35 21.2833 147 23.1499L145.833 28.0499ZM183.983 23.8499C183.75 23.6166 183.517 23.7333 183.4 23.9666C182.7 24.7833 180.25 27.9333 179.2 28.7499C178.033 29.7999 176.75 30.4999 175.233 30.4999H164.967L169.4 16.6166H171.733C175 16.6166 176.75 17.0833 176.75 20.3499C176.75 20.5833 176.75 20.6999 176.983 20.8166H177.8C178.033 20.8166 178.033 20.8166 178.15 20.5833C178.383 18.8333 179.783 13.2333 180.483 11.4833C180.6 11.3666 180.483 11.2499 180.25 11.2499L179.433 11.0166C179.2 11.0166 179.2 11.1333 179.083 11.2499C177.45 14.8666 175.7 15.0999 173.717 15.0999H169.75L173.6 3.3166H180.717C180.95 3.3166 181.3 3.43327 181.533 3.6666L186.2 9.03327C186.433 9.2666 186.55 9.38327 186.783 9.2666L187.367 9.03327C187.6 8.79993 187.6 8.79993 187.6 8.5666L186.2 2.49993C185.967 1.79993 185.967 1.5666 185.15 1.5666C184.683 1.5666 183.517 1.5666 181.767 1.68327C179.9 1.68327 177.45 1.68327 174.183 1.68327H170.917C169.867 1.68327 168.35 1.68327 166.95 1.5666C165.667 1.5666 164.617 1.5666 164.267 1.5666C163.917 1.5666 163.8 1.68327 163.683 1.9166L163.45 2.9666C163.333 3.19993 163.45 3.43327 163.683 3.43327H165.2C166.6 3.43327 168.233 4.0166 167.417 6.58327L160.417 28.2833C159.95 29.7999 159.017 30.7333 157.267 30.7333H155.75C155.517 30.7333 155.517 30.8499 155.4 30.9666L155.167 32.1333C155.167 32.3666 155.167 32.4833 155.4 32.4833C155.633 32.4833 156.45 32.4833 157.383 32.3666C158.433 32.3666 159.717 32.3666 161.117 32.3666H167.067C170.217 32.3666 173.483 32.3666 176.05 32.3666C178.617 32.3666 180.483 32.4833 180.833 32.4833C181.417 32.4833 181.65 32.3666 181.883 31.6666L184.217 25.0166C184.333 24.6666 184.217 24.5499 184.1 24.5499L183.983 23.8499ZM202.067 1.5666C197.283 1.5666 195.067 1.2166 194.25 0.983268C193.9 0.749935 193.667 0.633268 193.55 0.633268C193.317 0.633268 193.2 0.866602 193.083 1.09993C192.967 1.33327 190.167 7.74993 189.583 8.79993C189.467 9.03327 189.467 9.14993 189.7 9.2666L190.4 9.73327C190.633 9.73327 190.75 9.73327 190.983 9.49993C192.033 8.2166 194.483 5.53327 196 4.3666C197.05 3.54993 199.033 3.3166 203.233 3.3166H204.4L197.4 25.8333C196.35 29.2166 195.533 30.4999 192.967 30.4999H191.8C191.45 30.4999 191.333 30.6166 191.217 30.8499L191.1 31.8999C191.1 32.1333 191.217 32.3666 191.567 32.3666C192.033 32.3666 194.483 32.2499 198.917 32.2499C203.233 32.2499 204.983 32.3666 205.683 32.3666C206.033 32.3666 206.15 32.2499 206.267 31.8999L206.5 30.9666C206.5 30.7333 206.5 30.4999 206.267 30.4999H204.283C201.95 30.4999 201.483 29.4499 202.417 26.6499L209.65 3.3166H210.583C212.683 3.3166 215.95 3.78327 217 4.48327C217.583 5.64993 218.517 8.44993 218.867 9.9666C219.1 10.5499 219.217 10.6666 219.45 10.6666L220.15 10.5499C220.383 10.5499 220.5 10.4333 220.5 10.0833C220.383 8.2166 220.85 1.5666 220.967 0.866602C220.967 0.633268 220.733 0.516602 220.617 0.516602C220.383 0.516602 220.383 0.633268 220.15 0.749935C219.333 1.2166 217.7 1.5666 213.617 1.5666H202.067ZM250.017 14.1666C250.017 5.7666 244.883 0.866602 237.65 0.866602C227.967 0.866602 221.083 9.84993 221.083 19.2999C221.083 23.3833 222.25 27.1166 225.05 29.7999C227.85 32.4833 231.467 32.8333 233.217 32.8333C243.6 32.8333 250.017 23.2666 250.017 14.1666ZM232.167 6.34993C233.8 4.48327 236.017 2.9666 238.7 2.9666C242.783 2.9666 245.117 5.99993 245.117 10.5499C245 20.4666 239.05 30.6166 232.4 30.6166C228.667 30.6166 225.633 27.9333 225.633 22.3333C225.633 17.3166 228.433 10.5499 232.167 6.34993ZM262.733 5.64993C263.083 3.78327 263.667 3.19993 265.183 3.19993H265.883C266.233 3.19993 266.35 2.9666 266.35 2.84993L266.583 1.79993C266.7 1.44993 266.583 1.33327 266.117 1.33327C265.533 1.33327 263.783 1.44993 260.983 1.44993C257.95 1.5666 256.083 1.33327 255.617 1.33327C255.267 1.33327 255.15 1.44993 255.033 1.68327L254.917 2.73327C254.917 3.08327 254.917 3.19993 255.383 3.19993H256.433C257.483 3.19993 257.6 4.0166 257.483 5.53327L254.217 31.0833C253.983 32.3666 254.217 32.9499 254.8 32.9499C255.5 32.9499 255.967 32.3666 256.55 31.7833C258.183 29.7999 270.55 12.6499 271.017 12.0666C271.367 11.5999 271.717 11.5999 271.6 12.1833L270.317 31.3166C270.2 32.3666 270.433 32.9499 271.133 32.9499C271.833 32.9499 272.417 32.2499 273 31.4333C274.983 28.9833 280.933 20.2333 282.217 18.1333C283.267 16.2666 290.15 4.94993 290.617 4.3666C291.317 3.43327 292.133 3.08327 292.95 3.08327H293.767C294 3.08327 294 2.9666 294.117 2.73327L294.35 1.5666C294.35 1.33327 294.233 1.2166 293.883 1.2166C293.3 1.2166 292.017 1.33327 289.333 1.33327C287 1.33327 285.833 1.2166 285.25 1.2166C285.017 1.2166 284.783 1.33327 284.783 1.68327L284.55 2.6166C284.433 2.9666 284.667 3.08327 284.9 3.08327H285.6C287 3.08327 287.117 4.24993 286.65 5.4166C286.183 6.69993 284.2 10.8999 281.983 14.6333C281.05 16.1499 276.617 23.6166 275.683 24.5499C275.217 25.1333 274.983 25.0166 275.1 24.1999L277.433 5.18327C277.667 3.54993 278.017 3.08327 278.95 3.08327H279.65C280 3.08327 280.117 2.9666 280.233 2.73327L280.35 1.68327C280.35 1.44993 280.35 1.33327 279.883 1.33327C279.3 1.33327 278.133 1.44993 275.45 1.44993C272.65 1.44993 271.483 1.33327 271.017 1.33327C270.667 1.33327 270.55 1.44993 270.433 1.5666L270.2 2.84993C270.2 3.08327 270.317 3.19993 270.55 3.19993H271.133C271.95 3.19993 272.3 3.78327 272.3 4.7166C272.3 5.64993 271.717 7.5166 270.667 9.14993C270.433 9.38327 260.4 24.0833 260.05 24.3166C259.583 24.8999 259.233 24.6666 259.35 24.0833L262.733 5.64993ZM285.133 27.5833C285.133 31.3166 288.283 33.2999 291.55 33.2999C298.2 33.2999 302.283 28.1666 304.733 23.9666C307.067 19.9999 309.05 14.0499 310.1 8.2166C310.217 7.5166 310.45 7.5166 310.567 7.98327C312.783 16.9666 316.983 27.1166 322.117 33.8833C324.8 37.4999 330.75 44.8499 340.083 44.8499C345.333 44.8499 347.783 42.2833 348.483 41.4666C349.3 40.6499 349.883 39.2499 349.883 38.6666C349.883 37.9666 349.533 37.1499 348.6 37.1499C347.667 37.1499 347.083 38.0833 346.617 40.0666C346.267 41.5833 344.633 42.6333 342.3 42.6333C334.367 42.6333 327.717 34.2333 325.383 30.2666C324.917 29.4499 324.1 28.5166 324.917 25.2499C327.833 12.1833 331.45 7.28327 334.6 5.0666C336.117 4.0166 336.933 3.78327 337.867 3.78327C338.45 3.78327 339.267 4.24993 339.5 4.83327C339.85 5.4166 340.55 6.1166 341.483 6.1166C342.65 6.1166 343.7 5.0666 343.7 3.78327C343.7 2.2666 342.417 0.633268 339.733 0.633268C337.867 0.633268 335.65 1.09993 333.317 2.9666C328.3 6.8166 325.267 15.6833 323.283 24.6666C323.05 25.4833 322.817 25.9499 322.583 25.3666C320.133 21.3999 315.817 9.73327 314.3 2.73327C314.067 2.03327 313.833 1.68327 313.017 1.68327C304.85 1.68327 300.183 1.33327 296.917 3.6666C294.817 5.18327 293.767 7.63327 293.767 9.9666C293.767 12.1833 295.167 13.9333 296.683 13.9333C298.083 13.9333 299.017 12.9999 299.017 11.9499C299.017 10.8999 298.433 10.0833 296.917 9.84993C295.983 9.6166 295.633 8.5666 295.633 7.98327C295.633 6.93327 297.383 5.64993 299.25 5.0666C301.817 4.24993 304.5 4.24993 307.3 4.24993C308.35 4.24993 308.817 4.59993 308.817 5.64993C308.817 10.1999 305.2 20.1166 301.933 24.6666C299.95 27.3499 296.217 30.8499 291.9 30.8499C289.333 30.8499 288.633 29.7999 288.867 28.9833C289.1 27.9333 290.383 27.3499 290.383 26.0666C290.383 24.5499 289.333 23.8499 288.167 23.8499C286.65 23.8499 285.133 25.1333 285.133 27.5833ZM63.1167 48.3499C63.8167 46.0166 64.75 44.7333 66.2667 44.7333H66.9667C67.3167 44.7333 67.4333 44.4999 67.4333 44.3833L67.6667 43.4499C67.7833 43.0999 67.6667 42.8666 67.2 42.8666C66.7333 42.8666 65.6833 42.9833 63.1167 42.9833C60.2 42.9833 58.45 42.8666 57.8667 42.8666C57.4 42.8666 57.2833 43.0999 57.2833 43.3333L57.1667 44.3833C57.1667 44.6166 57.1667 44.7333 57.6333 44.7333H59.15C60.6667 44.7333 61.1333 45.7833 60.2 48.9333L56.9333 60.5999C55.4167 65.6166 53.9 68.0666 51.8 69.8166C50.2833 71.0999 47.95 71.7999 45.85 71.7999C44.45 71.7999 39.6667 71.2166 39.6667 65.7333C39.6667 63.7499 40.7167 60.3666 41.0667 59.4333L44.8 47.1833C45.5 44.9666 46.6667 44.7333 47.4833 44.7333H48.7667C49 44.7333 49.2333 44.4999 49.2333 44.3833L49.4667 43.4499C49.4667 43.0999 49.35 42.8666 49 42.8666C48.5333 42.8666 47.0167 42.9833 43.2833 42.9833C39.0833 42.9833 37.5667 42.8666 36.9833 42.8666C36.5167 42.8666 36.4 42.9833 36.4 43.2166L36.1667 44.2666C36.05 44.4999 36.2833 44.6166 36.4 44.6166H38.0333C39.3167 44.6166 39.9 45.3166 39.3167 47.4166L35.35 60.0166C35.1167 61.0666 34.4167 63.8666 34.4167 65.7333C34.4167 71.3333 38.85 74.1333 44.6833 74.1333C53.0833 74.1333 56.7 68.7666 59.15 60.7166L63.1167 48.3499ZM86.6833 72.7333C86.9167 73.3166 87.3833 73.6666 87.85 73.6666C88.0833 73.5499 88.4333 73.1999 88.7833 72.4999L97.1833 48.4666C98.1167 45.8999 99.05 44.7333 100.1 44.7333H101.267C101.5 44.7333 101.617 44.6166 101.617 44.3833L101.85 43.5666C101.967 43.2166 101.85 42.9833 101.383 42.9833C100.8 42.9833 99.8667 43.0999 97.4167 43.0999C94.2667 43.0999 92.75 42.9833 92.1667 42.9833C91.9333 42.9833 91.8167 43.2166 91.7 43.3333L91.5833 44.3833C91.4667 44.7333 91.5833 44.8499 92.05 44.8499H93.45C94.9667 44.8499 95.3167 46.3666 94.15 49.9833L89.3667 64.7999C89.0167 65.8499 88.7833 65.9666 88.4333 65.3833L78.2833 44.2666C78.05 43.6833 77.7 43.0999 76.8833 43.0999C71.5167 43.0999 69.65 42.9833 69.0667 42.9833C68.7167 42.9833 68.6 43.2166 68.4833 43.4499L68.25 44.2666C68.1333 44.6166 68.25 44.8499 68.6 44.8499H70.35C72.2167 44.8499 73.2667 46.1333 72.3333 48.8166L66.7333 66.4333C65.3333 70.5166 64.2833 72.0333 62.1833 72.0333H61.1333C60.9 72.0333 60.7833 72.2666 60.6667 72.3833L60.55 73.3166C60.55 73.6666 60.55 73.7833 60.9 73.7833C61.4833 73.7833 62.8833 73.6666 66.15 73.6666C69.3 73.6666 71.1667 73.7833 71.6333 73.7833C72.1 73.7833 72.1 73.6666 72.2167 73.3166L72.45 72.3833C72.45 72.1499 72.3333 71.9166 71.9833 71.9166H70.2333C68.3667 71.9166 68.1333 69.8166 69.65 64.5666L74.2 49.2833C74.3167 48.6999 74.6667 48.6999 74.9 49.1666L86.6833 72.7333ZM101.617 68.6499C101.033 70.9833 100.683 71.9166 98 71.9166H96.25C96.0167 71.9166 95.9 72.0333 95.9 72.2666L95.6667 73.3166C95.6667 73.5499 95.7833 73.7833 96.0167 73.7833C96.6 73.7833 98.9333 73.6666 102.783 73.6666C107.45 73.6666 109.55 73.7833 110.133 73.7833C110.6 73.7833 110.6 73.6666 110.717 73.3166L110.833 72.3833C110.95 72.1499 110.833 71.9166 110.6 71.9166H108.967C107.1 71.9166 106.4 70.9833 106.983 68.7666L112.7 47.7666C113.4 45.1999 114.45 44.7333 116.317 44.7333H117.483C117.833 44.7333 117.95 44.4999 117.95 44.3833L118.183 43.4499C118.3 43.0999 118.067 42.8666 117.6 42.8666C117.017 42.8666 115.033 42.9833 111.067 42.9833C107.45 42.9833 105 42.8666 104.417 42.8666C104.067 42.8666 103.833 42.9833 103.833 43.0999L103.6 44.2666C103.6 44.4999 103.717 44.6166 104.067 44.6166H106.167C107.333 44.6166 108.033 45.3166 107.45 47.6499L101.617 68.6499ZM125.533 65.2666C124.95 66.0833 124.367 65.9666 124.483 64.7999L127.633 46.4833C127.867 45.1999 128.683 44.6166 130.2 44.6166H131.483C131.833 44.6166 131.95 44.4999 131.95 44.2666L132.067 43.2166C132.183 42.8666 132.067 42.7499 131.6 42.7499C131.017 42.7499 129.15 42.8666 125.883 42.8666C121.917 42.8666 120.05 42.7499 119.35 42.7499C119 42.7499 119 42.8666 118.883 43.2166L118.65 44.1499C118.533 44.4999 118.767 44.6166 119.117 44.6166H120.633C122.15 44.6166 122.5 45.6666 122.383 47.0666L118.767 72.7333C118.533 73.7833 118.65 74.4833 119.35 74.4833C119.933 74.4833 120.517 74.0166 120.867 73.6666L140.35 49.1666C142.1 46.9499 144.433 44.6166 146.067 44.6166H147.117C147.35 44.6166 147.467 44.3833 147.583 44.1499L147.7 43.2166C147.7 42.9833 147.7 42.7499 147.233 42.7499C146.65 42.7499 145.483 42.8666 142.8 42.8666C140.35 42.8666 138.833 42.7499 138.133 42.7499C137.667 42.7499 137.55 42.8666 137.55 43.0999L137.317 44.1499C137.317 44.3833 137.317 44.6166 137.783 44.6166H138.717C140 44.6166 139.767 46.2499 138.133 48.3499L125.533 65.2666ZM168.583 65.3833C168.35 65.1499 168.117 65.2666 168 65.4999C167.3 66.3166 164.85 69.4666 163.8 70.2833C162.633 71.3333 161.35 72.0333 159.833 72.0333H149.567L154 58.1499H156.333C159.6 58.1499 161.35 58.6166 161.35 61.8833C161.35 62.1166 161.35 62.2333 161.583 62.3499H162.4C162.633 62.3499 162.633 62.3499 162.75 62.1166C162.983 60.3666 164.383 54.7666 165.083 53.0166C165.2 52.8999 165.083 52.7833 164.85 52.7833L164.033 52.5499C163.8 52.5499 163.8 52.6666 163.683 52.7833C162.05 56.3999 160.3 56.6333 158.317 56.6333H154.35L158.2 44.8499H165.317C165.55 44.8499 165.9 44.9666 166.133 45.1999L170.8 50.5666C171.033 50.7999 171.15 50.9166 171.383 50.7999L171.967 50.5666C172.2 50.3333 172.2 50.3333 172.2 50.0999L170.8 44.0333C170.567 43.3333 170.567 43.0999 169.75 43.0999C169.283 43.0999 168.117 43.0999 166.367 43.2166C164.5 43.2166 162.05 43.2166 158.783 43.2166H155.517C154.467 43.2166 152.95 43.2166 151.55 43.0999C150.267 43.0999 149.217 43.0999 148.867 43.0999C148.517 43.0999 148.4 43.2166 148.283 43.4499L148.05 44.4999C147.933 44.7333 148.05 44.9666 148.283 44.9666H149.8C151.2 44.9666 152.833 45.5499 152.017 48.1166L145.017 69.8166C144.55 71.3333 143.617 72.2666 141.867 72.2666H140.35C140.117 72.2666 140.117 72.3833 140 72.4999L139.767 73.6666C139.767 73.8999 139.767 74.0166 140 74.0166C140.233 74.0166 141.05 74.0166 141.983 73.8999C143.033 73.8999 144.317 73.8999 145.717 73.8999H151.667C154.817 73.8999 158.083 73.8999 160.65 73.8999C163.217 73.8999 165.083 74.0166 165.433 74.0166C166.017 74.0166 166.25 73.8999 166.483 73.1999L168.817 66.5499C168.933 66.1999 168.817 66.0833 168.7 66.0833L168.583 65.3833ZM182.933 58.8499C184.217 58.8499 186.2 58.6166 187.25 61.0666C187.833 62.1166 191.8 71.0999 192.5 72.1499C193.083 73.1999 193.317 73.6666 193.783 73.6666C194.483 73.6666 195.3 73.5499 197.983 73.5499C200.433 73.5499 201.133 73.6666 201.6 73.6666C201.833 73.6666 201.95 73.4333 202.067 73.1999L202.183 72.2666C202.3 72.0333 202.183 71.7999 201.95 71.7999H200.783C199.15 71.7999 198.1 71.0999 196.817 69.1166C196 67.8333 192.967 61.4166 192.617 60.9499C192.15 60.0166 191.45 58.6166 189.933 58.2666V58.0333C195.883 57.4499 200.667 53.7166 200.667 49.2833C200.667 42.9833 193.783 42.6333 189.933 42.6333C188.65 42.6333 183.867 42.7499 179.2 42.7499C178.733 42.7499 178.617 42.8666 178.617 43.0999L178.383 44.0333C178.267 44.2666 178.383 44.3833 178.733 44.3833H180.25C181.767 44.3833 182.117 45.1999 181.65 46.7166L174.3 69.4666C173.95 70.6333 173.133 71.5666 171.967 71.5666H170.8C170.45 71.5666 170.333 71.6833 170.333 71.9166L170.1 72.9666C169.983 73.1999 170.1 73.4333 170.333 73.4333C170.917 73.4333 172.667 73.3166 175.817 73.3166C179.783 73.3166 181.767 73.4333 182.35 73.4333C182.583 73.4333 182.817 73.3166 182.933 73.0833L183.05 72.0333C183.167 71.7999 183.05 71.6833 182.817 71.6833H180.95C179.667 71.6833 179.2 70.8666 179.9 68.4166L182.933 58.8499ZM187.367 44.4999C187.95 44.3833 188.417 44.3833 189.233 44.3833C193.667 44.3833 195.067 47.2999 195.067 49.2833C195.067 52.5499 192.967 55.1166 190.633 56.1666C187.483 57.4499 185.15 57.2166 183.283 57.2166L187.367 44.4999ZM226.217 43.2166C226.217 42.9833 226.1 42.9833 225.867 42.9833L225.283 42.8666C224.933 42.8666 224.817 42.8666 224.817 43.0999C224.583 44.0333 224.35 44.6166 224.117 44.6166C223.883 44.6166 223.65 44.4999 223.533 44.3833C222.833 43.7999 220.617 42.2833 218.167 42.2833C212.217 42.2833 209.65 47.0666 209.65 50.3333C209.65 54.9999 211.983 57.4499 214.9 60.4833C216.883 62.6999 219.217 64.4499 219.217 67.3666C219.217 69.9333 217.233 72.1499 214.317 72.1499C211.517 72.1499 207.9 68.9999 209.183 62.4666C209.183 62.2333 209.067 62.1166 208.95 61.9999L208.25 61.7666C208.017 61.7666 207.9 61.7666 207.783 61.9999L204.4 71.9166C204.283 72.2666 204.283 72.2666 204.633 72.3833L205.217 72.6166C205.45 72.7333 205.567 72.6166 205.683 72.3833C206.033 71.7999 206.5 70.9833 206.733 70.6333C206.967 70.3999 207.433 70.2833 207.9 70.7499C209.417 72.3833 211.517 74.1333 214.433 74.1333C219.217 74.1333 223.417 70.9833 223.417 65.1499C223.417 60.1333 220.383 57.5666 218.283 55.4666C216.183 53.3666 214.2 51.8499 214.2 48.6999C214.2 46.7166 215.717 44.2666 218.283 44.2666C222.95 44.2666 223.533 49.7499 223.183 51.6166C223.183 51.8499 223.3 52.0833 223.65 52.0833H224.467C224.7 52.0833 224.7 51.9666 224.817 51.8499L226.217 43.2166ZM229.95 68.6499C229.367 70.9833 229.017 71.9166 226.333 71.9166H224.583C224.35 71.9166 224.233 72.0333 224.233 72.2666L224 73.3166C224 73.5499 224.117 73.7833 224.35 73.7833C224.933 73.7833 227.267 73.6666 231.117 73.6666C235.783 73.6666 237.883 73.7833 238.467 73.7833C238.933 73.7833 238.933 73.6666 239.05 73.3166L239.167 72.3833C239.283 72.1499 239.167 71.9166 238.933 71.9166H237.3C235.433 71.9166 234.733 70.9833 235.317 68.7666L241.033 47.7666C241.733 45.1999 242.783 44.7333 244.65 44.7333H245.817C246.167 44.7333 246.283 44.4999 246.283 44.3833L246.517 43.4499C246.633 43.0999 246.4 42.8666 245.933 42.8666C245.35 42.8666 243.367 42.9833 239.4 42.9833C235.783 42.9833 233.333 42.8666 232.75 42.8666C232.4 42.8666 232.167 42.9833 232.167 43.0999L231.933 44.2666C231.933 44.4999 232.05 44.6166 232.4 44.6166H234.5C235.667 44.6166 236.367 45.3166 235.783 47.6499L229.95 68.6499ZM258.3 42.9833C253.517 42.9833 251.417 42.6333 250.483 42.3999C250.133 42.1666 249.9 42.0499 249.783 42.0499C249.55 42.0499 249.433 42.2833 249.317 42.5166C249.2 42.7499 246.4 49.1666 245.817 50.2166C245.7 50.4499 245.7 50.5666 245.933 50.6833L246.633 51.1499C246.867 51.1499 246.983 51.1499 247.217 50.9166C248.267 49.6333 250.717 46.9499 252.233 45.7833C253.283 44.9666 255.267 44.7333 259.467 44.7333H260.633L253.633 67.2499C252.583 70.6333 251.767 71.9166 249.2 71.9166H248.033C247.683 71.9166 247.567 72.0333 247.45 72.2666L247.333 73.3166C247.333 73.5499 247.45 73.7833 247.8 73.7833C248.267 73.7833 250.717 73.6666 255.15 73.6666C259.467 73.6666 261.217 73.7833 261.917 73.7833C262.267 73.7833 262.383 73.6666 262.5 73.3166L262.733 72.3833C262.733 72.1499 262.733 71.9166 262.5 71.9166H260.633C258.3 71.9166 257.833 70.8666 258.767 68.0666L266 44.7333H266.933C269.033 44.7333 272.3 45.1999 273.35 45.8999C273.933 47.0666 274.867 49.8666 275.217 51.3833C275.45 51.9666 275.567 52.0833 275.8 52.0833L276.5 51.9666C276.733 51.9666 276.85 51.8499 276.85 51.4999C276.733 49.6333 277.2 42.9833 277.317 42.2833C277.317 42.0499 277.083 41.9333 276.967 41.9333C276.733 41.9333 276.733 42.0499 276.5 42.1666C275.683 42.6333 274.05 42.9833 269.967 42.9833H258.3ZM291.667 64.3333C292.133 62.3499 292.6 61.4166 293.183 60.3666C293.767 59.3166 302.167 47.6499 302.867 46.7166C303.8 45.4333 304.733 44.7333 306.25 44.7333H307.067C307.3 44.7333 307.417 44.6166 307.417 44.2666L307.65 43.3333C307.65 43.0999 307.533 42.8666 307.183 42.8666C306.6 42.8666 305.2 42.9833 302.283 42.9833C299.717 42.9833 297.967 42.8666 297.383 42.8666C296.917 42.8666 296.8 42.9833 296.8 43.2166L296.683 44.2666C296.567 44.4999 296.683 44.7333 296.917 44.7333H297.967C299.483 44.7333 300.067 45.4333 299.483 47.1833C299.017 48.5833 292.6 58.1499 291.9 59.1999C291.55 59.7833 291.2 59.7833 290.967 59.0833L287.35 46.8333C287.117 45.8999 287.117 44.8499 288.517 44.8499H289.683C289.917 44.8499 290.033 44.7333 290.15 44.4999L290.267 43.4499C290.267 43.2166 290.15 43.0999 289.8 43.0999C289.217 43.0999 287.7 43.2166 283.733 43.2166C280.117 43.2166 278.833 43.0999 278.25 43.0999C278.017 43.0999 277.9 43.2166 277.783 43.4499L277.55 44.4999C277.55 44.7333 277.667 44.8499 277.9 44.8499H278.95C280.467 44.8499 281.4 45.4333 281.75 46.5999L286.533 60.5999C286.767 61.1833 286.767 62.3499 286.65 62.9333L285.133 69.6999C284.9 70.9833 284.2 72.0333 282.1 72.0333H281.05C280.7 72.0333 280.583 72.2666 280.583 72.3833L280.35 73.4333C280.35 73.7833 280.467 73.8999 280.7 73.8999C281.283 73.8999 282.567 73.7833 286.767 73.7833C290.383 73.7833 291.9 73.8999 292.6 73.8999C292.95 73.8999 293.067 73.6666 293.067 73.4333L293.3 72.3833C293.3 72.1499 293.183 72.0333 292.95 72.0333H291.9C290.383 72.0333 289.8 71.7999 290.267 69.4666L291.667 64.3333Z"
        fill="#041E42"/>
</svg>
