<svg width="600" height="165" viewBox="0 0 600 165" fill="none" xmlns="http://www.w3.org/2000/svg">
  <path
    d="M244.32 110.24C244.32 108.998 243.492 108.17 241.836 107.756V106.928C242.664 106.928 245.769 107.135 246.597 107.135C247.218 107.135 250.323 106.928 251.151 106.928V107.756C249.702 108.17 248.874 108.998 248.874 110.24V125.765C248.874 130.733 251.565 133.424 257.154 133.424C262.122 133.424 265.847 131.147 265.847 125.972V110.033C265.847 108.791 265.019 107.963 263.364 107.549V106.928C263.985 106.928 266.468 107.135 267.296 107.135C268.124 107.135 270.608 106.928 271.229 106.928V107.756C269.366 108.17 268.745 108.998 268.745 110.24V125.351C268.745 132.182 264.813 136.115 256.325 136.115C248.46 136.115 244.319 132.596 244.319 126.179L244.32 110.24ZM278.267 134.872C280.13 134.458 280.751 133.63 280.751 132.388V110.861C280.751 108.998 279.716 108.17 278.06 107.756V106.928H284.063L302.693 128.869V110.239C302.693 108.997 301.865 108.169 300.209 107.755V106.927C300.83 106.927 303.314 107.134 304.142 107.134C304.97 107.134 307.454 106.927 308.075 106.927V107.755C306.212 108.169 305.384 108.997 305.384 110.239V136.113H304.349C303.728 135.906 302.279 135.285 300.209 133.008L283.442 113.55V132.594C283.442 133.836 284.063 134.664 285.926 135.078V135.906C285.305 135.906 282.821 135.699 281.993 135.699C281.165 135.699 278.681 135.906 278.06 135.906L278.267 134.872ZM425.647 129.076H426.475C426.889 130.732 427.717 132.181 429.166 133.009C430.408 134.044 432.685 134.458 434.341 134.458C438.067 134.458 440.551 132.595 440.551 129.697C440.551 126.592 437.446 125.143 433.927 123.28C431.236 121.831 425.854 119.761 425.854 114.587C425.854 109.826 429.58 106.721 435.376 106.721C439.309 106.721 440.965 107.756 443.656 107.549V113.345H442.828C441.793 109.826 438.688 108.791 435.169 108.791C431.236 108.791 429.994 111.068 429.994 113.138C429.994 116.243 433.099 117.899 436.618 119.554C440.551 121.21 444.898 123.487 444.898 128.455C444.898 133.216 441.172 136.528 434.548 136.528C430.615 136.528 428.131 135.286 426.061 135.079L425.647 129.076ZM505.754 123.694L498.095 111.481C496.853 109.411 495.818 108.169 494.369 107.755V106.927C495.404 106.927 498.302 107.134 498.923 107.134C499.751 107.134 502.649 106.927 503.891 106.927V107.755C502.856 107.962 502.442 108.376 502.442 109.204C502.442 109.825 502.856 110.653 503.27 111.481C503.684 112.102 508.859 120.796 508.859 120.796L514.241 111.481C514.862 110.446 515.069 109.618 515.069 108.997C515.069 108.377 514.655 107.962 513.827 107.962V106.927C514.655 106.927 516.725 107.134 517.346 107.134C517.967 107.134 520.244 106.927 521.072 106.927V107.755C519.002 108.583 517.76 110.446 516.518 112.516L509.687 124.108M510.101 122.659V132.388C510.101 133.423 510.929 134.665 512.585 134.872V135.7C511.757 135.7 508.652 135.493 507.824 135.493C506.996 135.493 504.098 135.7 503.063 135.7V134.872C504.719 134.458 505.547 133.423 505.547 132.388V123.073M364.587 106.927H382.389C383.01 106.927 383.838 106.927 384.459 106.513H385.287L385.08 112.309H384.252C383.631 110.446 382.803 108.997 379.491 108.997H371.832V119.347H377.835C378.663 119.347 379.698 119.347 380.112 119.14C381.354 118.933 381.975 118.105 382.389 116.863H383.217V124.108H382.389C381.975 122.866 381.561 122.038 380.112 121.831C379.698 121.624 378.663 121.624 377.835 121.624H371.832V133.423H380.319C384.045 133.423 385.08 131.974 385.908 129.697H386.736L385.908 135.7C383.217 135.493 381.561 135.493 378.456 135.493H369.556C368.728 135.493 365.623 135.7 364.588 135.7V134.872C366.244 134.458 367.072 133.837 367.072 132.181V110.24C367.072 108.791 366.244 107.963 364.588 107.756L364.587 106.927ZM319.048 110.446C319.048 108.997 318.22 108.169 316.564 107.755V106.927C317.599 106.927 320.497 107.134 321.532 107.134C322.36 107.134 325.465 106.927 326.5 106.927V107.755C324.844 108.169 323.809 108.79 323.809 110.446V132.18C323.809 133.629 324.637 134.457 326.5 134.871V135.699C325.465 135.699 322.567 135.492 321.532 135.492C320.704 135.492 317.599 135.699 316.564 135.699V134.871C318.427 134.457 319.255 133.836 319.255 132.18L319.048 110.446ZM454.218 110.446C454.218 108.997 453.39 108.169 451.734 107.755V106.927C452.769 106.927 455.874 107.134 456.702 107.134C457.53 107.134 460.635 106.927 461.67 106.927V107.755C460.014 108.169 459.186 108.79 459.186 110.446V132.18C459.186 133.629 460.014 134.457 461.67 134.871V135.699C460.635 135.699 457.737 135.492 456.702 135.492C455.874 135.492 452.769 135.699 451.734 135.699V134.871C453.597 134.457 454.218 133.836 454.218 132.18V110.446ZM479.057 107.134C469.328 107.134 467.672 106.927 465.809 106.72V112.516H466.637C467.465 109.825 468.914 109.204 470.777 109.204H476.987V131.973C476.987 133.422 476.159 134.25 474.296 134.664V135.492C475.331 135.492 478.436 135.285 479.264 135.285C480.092 135.285 483.197 135.492 484.232 135.492V134.664C482.576 134.25 481.541 133.422 481.541 131.973V109.204H487.544C489.407 109.204 490.855 109.825 491.683 112.516H492.511V106.72C490.234 106.927 488.786 107.134 479.057 107.134ZM401.02 132.18C401.02 133.629 401.848 134.457 403.711 134.871V135.699C402.676 135.699 399.571 135.492 398.743 135.492C397.915 135.492 395.017 135.699 393.982 135.699V134.871C395.638 134.457 396.466 133.836 396.466 132.18V110.239C396.466 108.79 395.638 107.962 393.982 107.755V106.927C395.017 106.927 397.915 107.134 398.743 107.134C400.192 107.134 404.125 106.927 405.781 106.927C412.612 106.927 416.338 109.825 416.338 114.586C416.338 118.312 413.44 121.003 409.093 122.038C409.093 122.038 410.128 122.659 411.163 123.694C412.405 125.143 415.717 129.697 416.959 131.353C418.201 133.009 420.064 134.872 421.927 134.872V135.493C421.099 135.7 419.65 135.907 418.615 135.907C416.338 135.907 414.475 135.079 412.612 133.009C410.956 131.146 408.472 127.213 406.816 125.143C405.781 123.901 404.539 122.866 402.469 122.452C402.055 122.452 401.641 122.245 401.227 122.245L401.02 132.18ZM401.02 120.588C401.848 120.795 403.297 120.795 404.539 120.795C409.921 120.795 411.577 117.69 411.577 114.999C411.577 111.067 409.093 108.79 404.332 108.79C403.297 108.79 402.055 108.997 401.02 109.204V120.588ZM333.126 110.445C332.505 108.996 331.47 107.961 329.814 107.754V106.926C330.849 106.926 334.368 107.133 335.196 107.133C335.817 107.133 338.922 106.926 339.957 106.926V107.754C339.129 107.961 337.887 108.375 337.887 109.41C337.887 110.031 338.301 111.066 339.129 112.722L346.581 129.489L353.619 112.722C354.24 111.273 354.654 110.238 354.654 109.617C354.654 108.789 353.826 108.168 352.584 107.961V106.926C353.412 106.926 355.688 107.133 356.516 107.133C357.137 107.133 359.828 106.926 360.863 106.926V107.754C359.207 108.168 357.965 109.203 357.137 111.48L346.787 135.698H344.511L333.126 110.445ZM359.621 34.0644C358.379 31.3735 356.516 29.5105 353.618 28.8895V27.4405C355.481 27.4405 361.898 27.6475 363.347 27.6475C364.589 27.6475 370.799 27.4405 372.869 27.4405V28.8895C371.213 29.3035 369.143 30.1315 369.143 31.9944C369.143 33.2364 369.971 35.0993 371.42 38.2042L385.496 70.0812L398.744 38.2042C399.779 35.7203 400.607 33.6503 400.607 32.2013C400.607 30.5453 398.951 29.3034 396.881 28.8894V27.4404C398.744 27.4404 402.884 27.6474 404.333 27.6474C405.575 27.6474 410.543 27.4404 412.613 27.4404V28.8894C409.301 29.7174 407.231 31.7873 405.368 35.9272L385.91 81.8802H381.563L359.621 34.0644ZM171.251 80.0174C173.735 79.3964 175.598 78.3614 175.598 75.4635V33.4435C175.598 30.7526 173.942 29.5106 171.251 28.8896V27.2336C172.493 27.2336 178.289 27.4406 179.738 27.4406C181.394 27.4406 187.397 27.2336 188.639 27.2336V28.6826C186.155 29.3035 184.292 30.3386 184.292 33.2365V51.0385H215.755V33.4435C215.755 30.5456 214.099 29.3036 211.408 28.8896V27.2336C212.65 27.2336 218.653 27.4406 220.309 27.4406C221.758 27.4406 227.554 27.2336 229.003 27.2336V28.6826C226.519 29.3035 224.656 30.3386 224.656 33.2365V75.2565C224.656 77.9474 226.312 79.1894 229.003 79.8104V81.2594C227.761 81.2594 221.758 81.0524 220.309 81.0524C218.653 81.0524 212.857 81.2594 211.408 81.2594V80.0174C213.892 79.3964 215.755 78.3614 215.755 75.4635V55.5915H184.292V75.4635C184.292 78.3614 185.948 79.3964 188.639 80.0174V81.4664C187.397 81.4664 181.187 81.2594 179.738 81.2594C178.289 81.2594 172.7 81.4664 171.251 81.4664V80.0174ZM533.911 80.0174C537.223 79.3964 538.879 78.1544 538.879 75.2565V33.4435C538.879 30.5456 537.016 29.3036 533.911 28.8896V27.2336C535.774 27.2336 541.57 27.4406 543.226 27.4406C545.917 27.4406 553.162 26.8196 558.958 26.8196C578.209 26.8196 590.007 37.5836 590.007 53.9356C590.007 69.8746 577.794 81.6726 557.923 81.6726C552.127 81.6726 545.503 81.2586 542.812 81.2586C541.156 81.2586 535.774 81.4656 533.911 81.4656V80.0174ZM547.573 77.3265C549.643 77.7405 553.162 77.9475 556.06 77.9475C572.206 77.9475 580.692 68.2187 580.692 54.5575C580.692 40.4815 571.791 30.5465 556.681 30.5465C553.576 30.5465 549.643 30.7535 547.573 31.1674V77.3265ZM315.533 75.0496C315.533 77.7405 317.396 79.3965 320.501 80.0175V81.4665C318.638 81.4665 312.842 81.2595 310.979 81.2595C309.53 81.2595 303.734 81.4665 301.871 81.4665V80.0175C304.976 79.3965 306.632 77.9475 306.632 75.0496V33.6506C306.632 31.1667 305.183 29.5107 301.871 28.8897V27.2337C303.734 27.2337 309.323 27.4407 310.979 27.4407C313.67 27.4407 321.122 27.0267 324.227 27.0267C337.268 27.0267 344.513 32.4086 344.513 41.5167C344.513 48.7615 339.131 53.5227 330.851 55.5927C330.851 55.5927 332.714 56.6277 334.577 58.9046C336.854 61.5955 343.271 70.7036 345.755 73.8086C348.239 76.9135 351.551 80.4324 355.07 80.4324V81.6744C353.414 82.0884 350.723 82.2954 348.653 82.2954C344.306 82.2954 340.787 80.6394 337.268 76.4995C334.37 72.9806 329.195 65.3215 326.297 61.5955C324.434 59.1116 322.157 57.2486 318.017 56.6276C317.189 56.4206 316.361 56.4206 315.533 56.2136L315.533 75.0496ZM315.533 53.1086C317.189 53.3156 319.88 53.5226 322.364 53.5226C332.507 53.5226 335.612 47.7267 335.612 42.5516C335.612 35.3068 330.644 30.7526 321.95 30.7526C320.087 30.7526 317.396 30.9595 315.533 31.3735V53.1086ZM486.513 75.0496C486.513 77.7405 488.376 79.3965 491.481 80.0175V81.4665C489.618 81.4665 483.822 81.2595 482.166 81.2595C480.717 81.2595 474.921 81.4665 473.058 81.4665V80.0175C476.163 79.3965 477.819 77.9475 477.819 75.0496V33.6506C477.819 31.1667 476.37 29.5107 473.058 28.8897V27.2337C474.921 27.2337 480.51 27.4407 482.166 27.4407C484.857 27.4407 492.309 27.0267 495.207 27.0267C508.248 27.0267 515.493 32.4086 515.493 41.5167C515.493 48.7615 510.111 53.5227 501.831 55.5927C501.831 55.5927 503.694 56.6277 505.557 58.9046C507.834 61.5955 514.251 70.7036 516.735 73.8086C519.219 76.9135 522.531 80.4324 526.05 80.4324V81.6744C524.394 82.0884 521.703 82.2954 519.633 82.2954C515.286 82.2954 511.767 80.6394 508.248 76.4995C505.35 72.9806 500.175 65.3215 497.277 61.5955C495.414 59.1116 493.137 57.2486 488.997 56.6276C488.169 56.4206 487.341 56.4206 486.513 56.2136L486.513 75.0496ZM486.513 53.1086C488.169 53.3156 490.86 53.5226 493.344 53.5226C503.487 53.5226 506.592 47.7267 506.592 42.5516C506.592 35.3068 501.624 30.7526 492.93 30.7526C491.067 30.7526 488.376 30.9595 486.513 31.3735V53.1086ZM236.873 80.0176C240.392 79.1896 242.255 76.9127 243.497 74.0147L260.885 32.2017C261.713 30.5457 262.541 27.0268 262.541 27.0268H267.509C267.509 27.0268 268.337 30.5457 269.165 32.4087L287.588 74.2217C288.83 77.1196 290.279 79.1896 294.005 80.0176V81.4666C291.935 81.4666 285.932 81.2596 284.483 81.2596C283.034 81.2596 277.238 81.4666 275.168 81.4666V80.0176C277.859 79.3966 278.687 77.9476 278.687 76.7057C278.687 75.6707 278.273 74.2218 277.652 72.9798L273.719 64.079H253.433L249.914 73.1868C249.5 74.2218 249.086 75.6707 249.086 76.7057C249.086 78.1547 249.914 79.3966 252.812 80.2246V81.6736C250.949 81.6736 246.188 81.4666 245.153 81.4666L237.287 81.6736L236.873 80.0176ZM271.441 59.7316L262.747 39.6526L254.674 59.7316H271.441ZM409.091 80.0176C412.61 79.1896 414.473 76.9127 415.715 74.0147L433.103 32.2017C433.931 30.5457 434.759 27.0268 434.759 27.0268H439.727C439.727 27.0268 440.555 30.5457 441.383 32.4087L459.806 74.2217C461.048 77.1196 462.497 79.1896 466.223 80.0176V81.4666C464.153 81.4666 458.15 81.2596 456.701 81.2596C455.252 81.2596 449.456 81.4666 447.386 81.4666V80.0176C450.077 79.3966 450.905 77.9476 450.905 76.7057C450.905 75.6707 450.491 74.2218 449.87 72.9798L445.937 64.079H425.651L422.132 73.1868C421.718 74.2218 421.304 75.6707 421.304 76.7057C421.304 78.1547 422.132 79.3966 425.03 80.2246V81.6736C423.167 81.6736 418.406 81.4666 417.371 81.4666L409.505 81.6736V80.0176H409.091ZM443.452 59.7316L434.758 39.6526L426.686 59.7316H443.452Z"
    fill="#1E1E1E"/>
  <path
    d="M10.828 10.47H131.918V56.216C131.918 77.122 124.052 121.626 71.889 154.746C71.889 154.746 15.172 131.149 10.825 56.216L10.828 10.47Z"
    fill="#A51C30"/>
  <path
    d="M50.6449 82.6401C50.341 82.6277 50.0772 82.7794 49.8647 82.9635C49.4505 83.3224 49.2025 83.8185 49.1895 83.8449C48.7276 84.4916 47.7555 84.6544 46.8729 84.6292C45.9904 84.604 45.2315 84.4028 45.2315 84.4028L45.183 84.3904L45.1345 84.407C43.8657 84.8299 43.3009 85.3695 43.0686 85.8341C42.9524 86.0664 42.923 86.2764 42.923 86.4284C42.923 86.5476 42.9381 86.6002 42.9473 86.6345V91.3768C42.9011 91.6383 42.78 91.7983 42.6117 91.9105C42.4411 92.0244 42.2136 92.0846 41.9851 92.1086C41.528 92.1566 41.0835 92.0602 41.0835 92.0602H41.0794C39.4878 91.7419 38.3964 92.1148 37.7157 92.5777C37.0462 93.033 36.7788 93.5625 36.7697 93.5803C36.0888 94.5018 36.5393 95.7958 36.5393 95.7958V95.8038C36.5833 95.9214 36.6345 96.0328 36.6929 96.1353C36.6936 96.1373 36.701 96.1595 36.701 96.1595C37.322 97.8155 39.5997 97.813 39.5997 97.813C40.4277 98.434 41.8758 98.0192 41.8758 98.0192C42.3012 98.0192 42.5486 98.1959 42.7005 98.4194C42.776 98.7245 42.741 99.0299 42.741 99.0299L42.7369 99.0663L42.745 99.0986C42.7588 99.1537 42.7875 99.4409 42.8016 99.8344C42.8156 100.228 42.821 100.746 42.8258 101.346C42.8355 102.548 42.8306 104.075 42.8177 105.575C42.7918 108.576 42.7409 111.474 42.7409 111.474C42.7409 112.486 42.5428 113.079 42.5428 113.079L42.5347 113.103V113.131C42.5347 113.182 42.5181 113.207 42.4619 113.252C42.4058 113.297 42.3068 113.347 42.1749 113.382C41.911 113.452 41.5326 113.479 41.1521 113.479C40.3909 113.479 39.6199 113.378 39.6199 113.378L39.5996 113.374L39.5793 113.378C37.4238 113.593 36.7564 115.528 36.7493 115.549V115.553C36.5785 115.955 36.5934 116.362 36.7089 116.729C36.7668 116.914 36.851 117.09 36.9474 117.255C37.3322 118.195 38.3584 118.929 38.3584 118.929C38.3584 119.343 42.2921 119.547 42.2921 119.547C42.5305 119.607 42.6928 119.774 42.8136 119.976C42.8256 120.013 42.8401 120.048 42.85 120.085C42.9468 120.448 42.947 120.788 42.947 120.788C42.9176 120.899 42.9063 121.022 42.8985 121.201C42.8898 121.402 42.8855 121.65 42.8904 121.928C42.9001 122.486 42.9324 123.167 42.9713 123.829C43.049 125.151 43.1532 126.392 43.1532 126.392L43.1573 126.4V126.408C43.1793 126.54 43.2436 126.654 43.3231 126.755C43.3231 126.756 43.3272 126.792 43.3272 126.792C43.5342 128.034 47.4671 127.621 47.4671 127.621C47.4671 127.621 61.2521 127.302 64.9771 127.362C65.5091 127.37 65.835 127.389 65.8867 127.414C66.3007 127.414 67.3381 127.208 67.3381 127.208L68.7854 128.243C69.3676 128.696 69.9707 128.825 70.5238 128.789C70.6344 128.783 70.7452 128.768 70.8513 128.749C71.9126 128.557 72.7191 127.827 72.7191 127.827L74.7891 127.415C75.2031 127.415 91.9711 127.208 91.9711 127.208C93.4201 127.622 94.0411 126.998 94.0411 126.998L96.7296 126.792C96.8331 126.792 96.9297 126.784 97.0207 126.768C97.6783 126.647 98.0166 126.121 98.1931 125.608C98.2457 125.505 98.301 125.404 98.3386 125.3C98.558 124.697 98.5529 124.104 98.5529 124.104V120.602C98.5875 120.326 98.6515 120.109 98.7227 119.915C99.0999 119.25 99.6283 119.135 99.6283 119.135L102.111 118.718L103.356 118.1C103.833 117.98 104.085 117.646 104.229 117.243C104.266 117.185 104.305 117.131 104.334 117.069C104.506 116.704 104.557 116.28 104.557 115.876C104.557 115.07 104.342 114.328 104.342 114.328L104.338 114.311L104.334 114.295C103.881 113.388 102.836 113.019 101.933 112.86C101.03 112.7 100.235 112.755 100.235 112.755H100.231C99.2342 112.854 98.8582 112.569 98.6863 112.29C98.5145 112.01 98.5529 111.707 98.5529 111.707V111.695L98.7632 98.867C98.8449 98.3862 98.9846 98.0032 99.123 97.6905C99.2849 97.3809 99.4221 97.1932 99.4221 97.1932C100.043 97.4002 102.111 96.7768 102.111 96.7768C103.3 96.6578 103.796 95.9285 104.011 95.3254C104.03 95.2902 104.059 95.2552 104.076 95.2203C104.348 94.6474 104.346 94.1199 104.346 94.1045C104.457 93.2927 103.892 92.622 103.332 92.168C102.769 91.7121 102.179 91.4483 102.179 91.4483L102.147 91.4317H99.2402C99.1596 91.4151 99.0942 91.3725 99.0259 91.2821C98.9561 91.1898 98.8896 91.0527 98.84 90.8859C98.7408 90.5522 98.695 90.1016 98.6823 89.6569C98.6569 88.7673 98.7591 87.8983 98.7591 87.8983L98.7631 87.8859V86.2214C98.7631 85.4161 98.1881 84.8507 97.6473 84.4991C97.1065 84.1475 96.5719 83.9897 96.5719 83.9897L96.5476 83.9817H92.8565C92.773 83.8434 92.68 83.7077 92.5412 83.6178C92.3577 83.499 92.1455 83.4104 91.9428 83.3429C91.5375 83.2077 91.1626 83.157 91.1626 83.157C90.4878 82.945 89.4847 82.9468 89.4847 82.9468H89.4322L89.3876 82.9752C88.099 83.8674 85.8379 84.2414 83.9095 84.37C81.9811 84.4985 80.3883 84.3984 80.3883 84.3984L73.8953 83.9779L73.8388 84.0305C73.8578 84.0119 73.8167 84.045 73.7498 84.0669C73.6829 84.0893 73.5869 84.1162 73.4789 84.1398C73.263 84.1868 72.9883 84.2307 72.7189 84.2692C72.18 84.3462 71.6637 84.3986 71.6637 84.3986L71.5586 84.4066L71.5222 84.5117C71.3438 85.0468 70.8026 85.2314 70.8026 85.2314L70.2325 85.4253C69.8542 85.1039 69.2642 84.8599 68.7043 84.6895C68.1134 84.5097 67.6229 84.411 67.6006 84.4065C67.5965 84.4045 67.5923 84.4005 67.5884 84.3985C67.5687 84.3905 67.5489 84.3861 67.5318 84.3819C67.4975 84.3739 67.465 84.3695 67.4227 84.3653C67.338 84.3573 67.2292 84.355 67.0952 84.3529C66.8272 84.3509 66.461 84.3589 66.0279 84.3736C65.1617 84.4028 64.029 84.4585 62.9028 84.5233C60.6524 84.6527 58.4313 84.81 58.4273 84.8103C55.861 84.913 54.1277 84.5012 53.0382 84.0705C51.9486 83.6397 51.5181 83.2053 51.5181 83.2053C51.2448 82.832 50.943 82.652 50.6449 82.6401ZM50.6327 82.9797C50.8139 82.9877 51.0236 83.0886 51.2634 83.4244L51.2675 83.4324L51.2756 83.4448C51.2756 83.4448 51.7773 83.9378 52.913 84.3868C54.0486 84.8358 55.831 85.2552 58.4396 85.1509H58.4518C58.4518 85.1509 60.6735 84.9932 62.9232 84.8639C64.048 84.7993 65.1793 84.7434 66.0403 84.7142C66.4708 84.6997 66.8371 84.6916 67.0955 84.6935C67.2247 84.6945 67.3262 84.6995 67.3947 84.7059C67.4233 84.7079 67.4419 84.7119 67.4553 84.7139L67.4634 84.7219L67.512 84.7343C67.512 84.7343 68.0255 84.8349 68.6117 85.0133C69.1978 85.1917 69.8625 85.4636 70.1197 85.7208L70.1924 85.7937L70.9121 85.5551C70.9121 85.5551 71.3537 85.2962 71.6519 84.8476C71.4214 85.4078 70.8555 85.5996 70.8555 85.5996L70.2369 86.016C69.6159 85.395 67.5443 84.981 67.5443 84.981C67.3373 84.774 58.4357 85.3934 58.4357 85.3934C53.2608 85.6004 51.3971 83.7399 51.3971 83.7399C50.3621 82.2909 49.3271 84.3585 49.3271 84.3585C48.2921 85.8075 45.1872 84.9811 45.1872 84.9811C44.0416 85.3629 43.5288 85.8307 43.2911 86.2263C43.3073 86.1541 43.3321 86.0756 43.376 85.9877C43.5556 85.6285 44.0392 85.1449 45.2236 84.7425C45.29 84.7591 45.9819 84.9435 46.869 84.9689C47.7977 84.9954 48.8955 84.8453 49.4686 84.0431L49.4767 84.0351L49.4848 84.0227C49.4848 84.0227 49.736 83.5226 50.0872 83.2182C50.2628 83.0661 50.4516 82.9724 50.6327 82.9797ZM89.5337 83.291C89.6072 83.2918 90.5445 83.3034 91.0902 83.4849L91.1063 83.4889L91.1185 83.4929C91.1185 83.4929 91.4713 83.5432 91.8422 83.6668C92.0277 83.7287 92.2173 83.8065 92.3637 83.9013C92.3872 83.9158 92.3995 83.934 92.4203 83.9497C91.9233 83.6437 91.1428 83.5293 91.1428 83.5293C90.5218 83.3223 89.4852 83.3231 89.4852 83.3231C86.7943 85.1861 80.3766 84.7745 80.3766 84.7745L73.9606 84.3581C73.756 84.5626 71.7553 84.7658 71.7087 84.7705C71.7174 84.756 71.7288 84.745 71.737 84.7301C71.7672 84.7281 72.2408 84.6806 72.772 84.6046C73.0459 84.5655 73.326 84.5212 73.5564 84.4713C73.6715 84.4463 73.7736 84.4191 73.8596 84.3904C73.9078 84.3738 73.9446 84.3463 73.9849 84.3258L80.3686 84.7342C80.3686 84.7342 81.9857 84.8401 83.9385 84.71C85.8684 84.5812 88.1275 84.236 89.5337 83.291ZM92.7761 84.3219H96.4955C96.5075 84.3259 96.8032 84.4392 97.1464 84.617C96.7994 84.4438 96.5238 84.3583 96.5238 84.3583H92.7963C92.7923 84.3459 92.7815 84.3345 92.7761 84.3219ZM97.2152 84.6534C97.304 84.7014 97.3771 84.7265 97.4699 84.7867C97.4954 84.8033 97.5174 84.826 97.5427 84.8432C97.431 84.7714 97.3213 84.7087 97.2152 84.6534ZM98.6908 91.3686C98.7139 91.4077 98.7328 91.4504 98.7595 91.4858C98.8653 91.6255 99.0083 91.7336 99.184 91.7688L99.2001 91.7728H102.071C102.095 91.7831 102.61 92.0216 103.122 92.4358C103.48 92.7261 103.796 93.0896 103.938 93.491C103.568 92.8954 102.884 92.439 102.467 92.2013C102.256 92.0816 102.111 92.0193 102.111 92.0193H99.2162C98.9628 91.9686 98.7978 91.7162 98.6908 91.3686ZM43.0168 91.9993C42.4963 92.9841 41.0479 92.6381 41.0479 92.6381C37.943 92.0171 36.908 94.0895 36.908 94.0895C36.8797 94.1272 36.8634 94.1675 36.8393 94.2066C36.8864 94.0545 36.95 93.9067 37.0495 93.774L37.0657 93.7492C37.0657 93.7492 37.3017 93.2727 37.9147 92.8558C38.527 92.4394 39.5055 92.0902 41.0156 92.3908C41.0156 92.3908 41.5002 92.4989 42.0263 92.4434C42.2894 92.4157 42.5697 92.3507 42.8066 92.1928C42.8848 92.1406 42.9525 92.073 43.0168 91.9993ZM98.4248 112.492C98.6751 112.873 99.2198 113.198 100.264 113.095C100.264 113.095 101.025 113.045 101.882 113.196C102.736 113.347 103.652 113.699 104.028 114.445C104.029 114.449 104.052 114.553 104.061 114.587C103.09 113.152 100.252 113.337 100.252 113.337C98.8989 113.473 98.5258 112.905 98.4248 112.492ZM42.7258 113.467C42.7229 113.477 42.7055 113.543 42.7055 113.543C42.7055 113.647 42.657 113.734 42.5721 113.802C42.4872 113.87 42.3659 113.921 42.2204 113.96C41.3471 114.193 39.6006 113.96 39.6006 113.96C38.1022 114.11 37.3678 115.119 37.0738 115.67C37.0738 115.67 37.6495 113.918 39.6168 113.717C39.6518 113.721 40.3841 113.818 41.1571 113.818C41.5528 113.818 41.9465 113.794 42.2648 113.709C42.424 113.667 42.5676 113.61 42.6812 113.519C42.699 113.505 42.71 113.483 42.7258 113.467ZM57.1468 25.1826L57.0862 25.2352C53.8559 27.8598 49.1622 26.6502 49.1622 26.6502L49.1419 26.6462H49.1216C44.5626 26.6462 43.0937 26.8524 43.0937 26.8524L43.029 26.8648L42.9886 26.9132C42.5174 27.4786 41.9399 27.4706 41.4321 27.3256C40.9364 27.1838 40.5605 26.9063 40.5427 26.893C40.4494 26.7568 40.3003 26.6792 40.1384 26.6221C39.955 26.5573 39.745 26.5194 39.5441 26.4927C39.1422 26.4391 38.7719 26.4362 38.7719 26.4362H38.7638L38.7597 26.4402C34.217 26.7499 31.3844 26.4899 29.6956 26.1572C28.8512 25.991 28.2934 25.8049 27.9491 25.664C27.6047 25.523 27.4841 25.4335 27.4841 25.4335L27.5044 25.4542C27.4385 25.3884 27.3753 25.3644 27.2982 25.341C27.2212 25.3176 27.1325 25.2998 27.0355 25.2845C26.8414 25.2539 26.6116 25.2369 26.3886 25.2238C25.9425 25.1969 25.5234 25.1954 25.5234 25.1954H25.4183L25.3698 25.2883C25.1898 25.6483 24.6317 26.4038 24.5895 26.4607C24.5644 26.4687 24.5088 26.4855 24.4076 26.4971C24.2909 26.5095 24.1386 26.5207 23.9669 26.5255C23.6236 26.5358 23.1985 26.5295 22.7864 26.5175C21.9622 26.4918 21.1895 26.4407 21.1895 26.4407L21.1814 26.4367H21.1773C20.314 26.4367 19.7943 26.716 19.5036 27.0068C19.2129 27.2975 19.1479 27.6091 19.1479 27.6091L19.1438 27.6215L18.9376 31.5795V31.5919C19.04 32.8206 18.916 33.3179 18.8325 33.4516C18.7907 33.5185 18.7897 33.5042 18.788 33.5042L18.6465 33.4113L18.5495 33.5529C18.4955 33.6338 18.2892 33.7434 17.9956 33.8076C17.702 33.8718 17.3372 33.9041 16.9808 33.9167C16.2681 33.9422 15.6022 33.8925 15.6022 33.8925L15.5861 33.8885L15.5699 33.8925C15.0075 33.9488 14.5867 34.224 14.2924 34.5919C13.9981 34.9598 13.8215 35.415 13.7143 35.8573C13.4998 36.7419 13.5566 37.5917 13.5566 37.5917V37.6121C13.669 38.1739 13.9893 38.5682 14.3894 38.8209C14.7896 39.0736 15.2678 39.1958 15.7235 39.2494C16.61 39.3538 17.3888 39.2051 17.4336 39.1968H17.4377C18.5396 39.2983 18.9398 39.6388 19.0872 39.9124C19.2349 40.1867 19.1519 40.4259 19.1519 40.4259L19.1438 40.4501V40.4785C19.1438 40.9066 19.1972 44.3103 19.2489 47.6223C19.3005 50.922 19.3496 54.0955 19.35 54.1192C19.3008 54.5623 19.182 54.8407 19.0428 55.0127C18.9036 55.1847 18.7446 55.2591 18.5819 55.2916C18.2563 55.3568 17.931 55.227 17.931 55.227L17.8986 55.2104H17.8663C15.5508 55.2104 14.4861 56.0186 14.0417 56.8518C13.5994 57.6811 13.7652 58.5016 13.7667 58.5094C13.8803 60.0122 14.8275 60.7053 15.7194 60.9755C16.6145 61.2467 17.47 61.1372 17.47 61.1372L17.4498 61.1412C18.5574 61.1412 19.0114 61.4336 19.2044 61.691C19.3974 61.9484 19.354 62.1842 19.354 62.1842L19.3459 62.2368L19.3701 62.2894C19.3631 62.2749 19.3943 62.395 19.4025 62.5522C19.4106 62.7093 19.4153 62.9184 19.4106 63.1587C19.4011 63.6391 19.3684 64.2468 19.3297 64.8405C19.2523 66.028 19.1478 67.1652 19.1478 67.1652V67.1859L19.1519 67.2101C19.3683 68.4002 20.0565 68.8886 20.6761 69.0294C21.2502 69.1598 21.7233 69.0254 21.796 69.0052H21.8041L38.3271 69.4216C40.686 71.14 42.2093 71.1895 43.1219 70.7194C43.9954 70.2694 44.2248 69.466 44.2539 69.3731L44.5409 69.4176C44.7256 69.4484 45.0871 69.464 45.6163 69.4783C46.1455 69.4928 46.8317 69.5017 47.6216 69.5066C49.2013 69.517 51.1935 69.5106 53.1603 69.4986C55.1271 69.4862 57.0704 69.4663 58.5454 69.4502C60.0135 69.4336 61.0191 69.422 61.1167 69.4218H61.1289C61.8075 69.5727 62.3375 69.5385 62.746 69.3814C63.1622 69.2214 63.444 68.9378 63.6274 68.6415C63.992 68.0525 63.9913 67.4041 63.9912 67.3963V67.3883L64.1974 62.456C64.2816 62.1319 64.6335 61.8943 64.9979 61.7485C65.3506 61.6074 65.6689 61.562 65.6933 61.5585C67.9912 61.8622 69.1177 61.0517 69.6108 60.1475C70.1044 59.2426 69.9958 58.2756 69.9949 58.2676V58.2636C69.8855 56.7573 68.9929 56.014 68.1514 55.6883C67.3089 55.3622 66.5019 55.4215 66.5019 55.4215L66.5141 55.4175C65.4168 55.4175 64.9131 55.036 64.6584 54.6655C64.4049 54.2969 64.4037 53.9413 64.4037 53.9378V53.9338C64.461 53.574 64.4961 52.6819 64.5249 51.4717C64.5541 50.2476 64.5727 48.7343 64.5856 47.259C64.6115 44.3084 64.6139 41.5141 64.6139 41.5141C64.6139 41.2601 64.7579 40.8509 64.909 40.5236C65.0412 40.2372 65.1409 40.0708 65.1718 40.0182C66.4467 40.148 67.4206 40.0718 68.1029 39.8282C68.8153 39.5738 69.2539 39.1583 69.5058 38.7245C70.0039 37.8667 69.7816 36.9624 69.7767 36.9416C69.8711 36.164 69.7543 35.5759 69.4816 35.1668C69.2025 34.7483 68.7878 34.5147 68.3739 34.3905C67.5713 34.1498 66.7705 34.2961 66.7204 34.3056C65.3038 34.3056 64.818 33.913 64.6464 33.5698C64.4749 33.2252 64.602 32.877 64.602 32.877L64.6061 32.8605L64.6102 32.8439C64.9234 30.8599 64.8203 29.4915 64.6344 28.6151C64.4485 27.7387 64.1655 27.3375 64.1655 27.3375L64.1493 27.3133L64.121 27.2926C63.9096 27.1516 63.6047 27.098 63.2356 27.0581C62.8665 27.0181 62.4396 27.0055 62.0349 27.0055C61.2255 27.0055 60.4986 27.0581 60.4986 27.0581L60.4461 27.0621L60.4097 27.0904C60.2615 27.2016 60.1012 27.1891 59.8801 27.078C59.6589 26.9675 59.4102 26.7541 59.1847 26.5161C58.7337 26.04 58.3761 25.4811 58.3761 25.4811L58.3357 25.4204L57.1468 25.1826ZM115.728 25.1826L115.667 25.2352C112.437 27.8598 107.743 26.6502 107.743 26.6502L107.723 26.6462H107.699C103.346 26.6462 101.881 26.8524 101.881 26.8524L101.816 26.8648L101.776 26.9132C101.305 27.4786 100.727 27.4706 100.219 27.3256C99.7308 27.186 99.3626 26.918 99.3339 26.897C99.2409 26.7577 99.0894 26.6799 98.9256 26.6221C98.7423 26.5573 98.5322 26.5194 98.3313 26.4927C97.9295 26.4391 97.5591 26.4362 97.5591 26.4362H97.5511L97.5471 26.4402C93.0044 26.7499 90.1718 26.4899 88.483 26.1572C87.6386 25.991 87.0808 25.8049 86.7365 25.664C86.3922 25.523 86.2716 25.4335 86.2716 25.4335L86.2919 25.4542C86.226 25.3884 86.1587 25.3644 86.0816 25.341C86.0046 25.3176 85.9199 25.2998 85.8229 25.2845C85.6289 25.2539 85.3951 25.2369 85.172 25.2238C84.7259 25.1975 84.3109 25.1954 84.3109 25.1954H84.2058L84.1572 25.2883C83.9768 25.6492 83.4125 26.4113 83.3729 26.4648C83.346 26.4728 83.2899 26.4859 83.191 26.4971C83.0743 26.5095 82.9261 26.5207 82.7544 26.5255C82.411 26.5358 81.986 26.5295 81.5739 26.5175C80.7496 26.4918 79.9729 26.4407 79.9729 26.4407L79.9688 26.4367H79.9647C79.0018 26.4367 78.4358 26.7089 78.1171 26.9987C77.7983 27.2884 77.7249 27.6091 77.7249 27.6091V31.7978C77.8271 32.922 77.6981 33.3676 77.6238 33.4715C77.5867 33.5235 77.5901 33.5042 77.5834 33.5038C77.5768 33.5034 77.5712 33.5038 77.5712 33.5038L77.4337 33.4109L77.3367 33.5525C77.2827 33.6334 77.0764 33.743 76.7828 33.8072C76.4892 33.8714 76.1204 33.9037 75.764 33.9163C75.0514 33.9418 74.3854 33.8921 74.3854 33.8921L74.3732 33.8881L74.3571 33.8921C73.747 33.9476 73.2874 34.2164 72.9623 34.5834C72.6372 34.9505 72.4404 35.4095 72.3195 35.8529C72.0776 36.7398 72.1335 37.5913 72.1335 37.5913V37.5993L72.1376 37.6117C72.25 38.1735 72.5703 38.5678 72.9704 38.8205C73.3706 39.0732 73.8447 39.1954 74.3005 39.2491C75.187 39.3534 75.9699 39.2048 76.0147 39.1965H76.0188C77.1207 39.2979 77.5169 39.6384 77.6642 39.912C77.8119 40.1863 77.7329 40.4255 77.7329 40.4255L77.7289 40.4295V40.4375C77.6897 40.5942 77.6784 40.8618 77.6642 41.2946C77.6499 41.7273 77.6407 42.2997 77.6359 42.9603C77.6262 44.2815 77.6311 45.9653 77.644 47.6217C77.6697 50.9222 77.7244 54.0949 77.7248 54.1186C77.6756 54.5617 77.5527 54.8401 77.4135 55.0121C77.2743 55.1841 77.1154 55.2585 76.9526 55.291C76.6271 55.3562 76.3058 55.2264 76.3058 55.2264L76.2734 55.2098H76.237C73.9215 55.2098 72.8568 56.018 72.4124 56.8512C71.9701 57.6805 72.1359 58.501 72.1375 58.5088C72.2511 60.0116 73.1983 60.7047 74.0902 60.9749C74.9852 61.2461 75.8448 61.1366 75.8448 61.1366L75.8245 61.1406C76.8255 61.1406 77.2792 61.4308 77.5023 61.6985C77.7254 61.9662 77.7247 62.2119 77.7247 62.2119V62.2523L77.7408 62.2887C77.7338 62.2742 77.765 62.3943 77.7732 62.5515C77.7813 62.7086 77.7821 62.9177 77.7773 63.158C77.7678 63.6384 77.7351 64.2461 77.6964 64.8398C77.619 66.0273 77.5185 67.1645 77.5185 67.1645L77.5144 67.1852L77.5185 67.2094C77.7349 68.3995 78.4272 68.8879 79.0467 69.0287C79.6203 69.1591 80.0932 69.0297 80.1666 69.008H80.1747L96.6977 69.4244C99.0566 71.1428 100.576 71.1923 101.489 70.7222C102.369 70.2689 102.652 69.4092 102.677 69.3274L102.681 69.3234C102.756 69.1808 102.914 69.1132 102.992 69.1132C103.032 69.1132 103.029 69.1212 103.021 69.1092C103.013 69.0968 103.029 69.1052 102.992 69.1779L102.891 69.384L103.118 69.4204C103.302 69.4512 103.664 69.4668 104.193 69.4811C104.722 69.4956 105.409 69.5045 106.198 69.5095C107.778 69.5199 109.77 69.5135 111.737 69.5015C113.704 69.4891 115.643 69.4692 117.118 69.4531C118.593 69.4365 119.616 69.4247 119.706 69.4247C120.433 69.5752 120.989 69.5376 121.408 69.3802C121.834 69.2204 122.114 68.9357 122.285 68.6364C122.627 68.0376 122.564 67.371 122.564 67.371L122.568 67.3952L122.774 62.4548C122.858 62.1306 123.206 61.893 123.571 61.7473C123.926 61.6048 124.251 61.5641 124.27 61.5614C126.568 61.8652 127.694 61.0506 128.188 60.1464C128.681 59.2414 128.569 58.2785 128.568 58.2705V58.2625C128.458 56.7562 127.57 56.0129 126.728 55.6872C125.886 55.3611 125.075 55.4203 125.075 55.4203L125.091 55.4163C123.886 55.4163 123.393 55.0306 123.166 54.6684C122.94 54.3062 122.984 53.9528 122.984 53.9528V53.9324C122.984 52.7093 123.191 41.5164 123.191 41.5164V41.5124C123.191 41.2585 123.335 40.8493 123.486 40.5219C123.618 40.2354 123.722 40.069 123.753 40.0165C125.027 40.1463 126.001 40.0701 126.684 39.8265C127.396 39.5721 127.835 39.1566 128.087 38.7228C128.585 37.865 128.362 36.9607 128.357 36.9399C128.452 36.1624 128.331 35.5742 128.058 35.1651C127.779 34.7466 127.364 34.5131 126.95 34.3889C126.145 34.1472 125.341 34.2958 125.297 34.304C123.88 34.304 123.398 33.9113 123.227 33.5682C123.055 33.2251 123.182 32.8769 123.182 32.8769L123.19 32.8437C123.504 30.8597 123.401 29.4913 123.215 28.6149C123.029 27.7385 122.746 27.3373 122.746 27.3373L122.725 27.3131L122.701 27.2924C122.49 27.1514 122.185 27.0978 121.816 27.0579C121.447 27.0179 121.02 27.0053 120.615 27.0053C119.806 27.0053 119.075 27.0579 119.075 27.0579L119.026 27.0619L118.986 27.0903C118.838 27.2014 118.681 27.189 118.46 27.0779C118.239 26.9674 117.986 26.7539 117.761 26.5159C117.31 26.0399 116.956 25.4809 116.956 25.4809L116.916 25.4202L115.728 25.1826Z"
    fill="black"/>
  <path
    d="M71.685 155.36L71.271 155.153C70.857 154.946 14.347 130.521 10 56.209V9.63501H132.54V56.002C132.54 74.218 126.744 120.584 72.097 154.946L71.685 155.36ZM11.449 11.08V55.998C15.5889 126.376 66.924 151.63 71.685 153.7C125.297 119.546 131.093 74.007 131.093 55.998V11.08H11.449Z"
    fill="black"/>
  <path
    d="M28.2151 27.03C28.2151 27.03 26.9731 27.0308 27.1801 27.8587L26.7677 59.3207C26.7677 59.3207 26.7669 60.7713 29.0438 60.9783C29.0438 60.9783 31.9401 61.1853 32.5611 60.9783H39.1874C39.1874 60.9783 40.4286 62.2171 40.4286 60.7681C40.4286 60.7681 41.2549 35.3111 40.841 29.9291C40.841 29.9291 40.8401 27.6489 38.9772 27.6489C38.9772 27.6489 31.5286 28.2699 30.9076 27.6489L28.2151 27.03ZM56.9481 27.0784C56.6752 27.0542 56.2357 27.1318 55.5371 27.4422C55.5371 27.4422 55.7473 28.2726 46.4326 27.8586C46.2255 27.8586 42.7059 27.8566 42.4988 29.306C42.4988 29.306 42.2927 44.21 42.2927 44.624L42.0824 57.044L41.8762 61.3901C41.8762 61.3901 42.4972 62.2173 42.9112 61.5963C42.9112 61.5963 46.0161 60.7699 48.0861 61.1839C48.0861 61.1839 54.2984 61.8025 55.7473 60.7675C55.7473 60.7675 56.7815 61.1815 56.9885 59.7325C56.9885 59.7325 57.4017 32.2025 57.1947 31.7885C57.1947 31.7885 57.6079 27.8564 57.4009 27.4424C57.4009 27.4424 57.4029 27.1188 56.9481 27.0784ZM22.8221 27.8506C22.4157 27.863 21.8243 28.1174 20.9705 28.8936L20.7643 33.0335C20.7643 33.0335 20.7643 35.3104 18.6943 35.1035C18.6943 35.1035 16.4149 35.1035 15.173 36.1385C15.173 36.1385 14.5536 38.2052 16.8306 37.9982C16.8306 37.9982 20.3511 38.0002 20.5581 39.4496L20.3478 54.3516C20.3478 54.3516 21.179 56.838 18.4881 56.838C18.4881 56.838 15.1729 56.6277 15.1729 58.6977C15.1729 58.6977 15.7963 60.3569 18.6942 59.9429C18.6942 59.9429 20.765 60.356 20.558 62.219V65.9425C20.558 65.9425 20.3478 67.3931 22.4177 67.6001H37.7357C37.7357 67.6001 38.5645 67.5993 38.5645 66.7713C38.5645 66.7713 38.5653 65.9425 37.3233 65.9425L24.6973 65.5302C24.6973 65.5302 22.6241 66.1528 22.4171 63.0479C22.4171 63.0479 22.6175 36.4679 22.6233 35.2979C22.6234 35.2984 22.6274 35.3103 22.6274 35.3103C22.6274 35.3103 22.6239 35.2126 22.6233 35.2012C22.6234 35.1908 22.6274 34.8985 22.6274 34.8939C22.6235 34.8859 22.6231 34.8859 22.6193 34.8773C22.5973 33.86 22.5934 30.259 23.6624 28.4774C23.6624 28.4774 23.4992 27.8303 22.8221 27.8506ZM62.0181 27.9274C61.1298 28.0042 61.1286 29.0998 61.1286 29.0998C61.5426 29.5138 61.7472 30.9636 61.7472 30.9636C61.9542 34.2755 61.7472 38.0006 61.7472 41.5196C61.5402 53.3186 61.1286 64.0826 61.1286 64.0826C61.1286 66.3595 59.8874 65.7361 59.8874 65.7361H46.2224C44.7734 65.7361 44.7751 66.5649 44.7751 66.5649C44.9821 67.8069 46.2224 67.3936 46.2224 67.3936C47.4644 67.6006 61.1284 67.3936 61.1284 67.3936C63.1983 67.6006 62.9922 64.9072 62.9922 64.9072C63.1992 60.1463 63.6108 59.7323 63.6108 59.7323C64.0248 59.5254 66.3034 59.5262 66.3034 59.5262C70.0293 59.7332 68.3734 57.2501 68.3734 57.2501C67.9594 56.6291 65.4747 56.6275 65.4747 56.6275C63.1978 56.8345 63.4047 54.3514 63.4047 54.3514L63.6109 40.0684C63.1969 38.8264 64.2335 38.2087 64.2335 38.2087H66.5096C69.6145 38.4157 68.7857 36.3449 68.7857 36.3449C68.7857 35.3099 66.0972 34.8935 66.0972 34.8935C63.6133 35.3075 63.817 33.8585 63.817 33.8585V30.3413C64.231 28.0643 62.782 28.0652 62.782 28.0652C62.4715 27.9489 62.223 27.9096 62.0181 27.9274ZM59.0951 28.3883C58.831 28.4237 58.5404 28.6341 58.2299 29.0998V60.1488C58.2299 60.1488 59.0579 62.8381 60.2999 62.6311C60.2999 62.6311 60.5061 62.0125 60.5061 60.9776L60.9225 31.3756C60.9225 31.3756 60.2395 28.2346 59.0951 28.3883ZM25.7331 28.6834C23.8701 28.6834 23.6631 32.2047 23.6631 32.2047L23.4528 61.5967C23.6598 63.0457 24.0754 62.8379 24.0754 62.8379C25.9384 61.5959 25.733 59.5268 25.733 59.5268C25.733 59.5268 25.9392 31.5838 25.9392 31.1698C25.9392 30.7558 25.7331 28.6834 25.7331 28.6834ZM26.5942 61.7904C26.5058 61.7944 26.4066 61.809 26.3031 61.8388C25.8891 61.957 25.3787 62.3131 24.9487 63.1729L24.9406 63.1895L24.9365 63.2061C24.9365 63.2061 24.8136 63.5919 24.9082 63.9702C24.9555 64.1594 25.0765 64.36 25.2963 64.4634C25.5087 64.5634 25.7901 64.5669 26.1574 64.4674H36.2644L38.9772 65.0941L39.0136 65.0861C39.0136 65.0861 39.2075 65.0414 39.4462 64.9526C39.6849 64.864 39.976 64.7341 40.1901 64.52C40.2972 64.413 40.3867 64.281 40.4246 64.1238C40.4625 63.9665 40.442 63.7862 40.3599 63.6104C40.1958 63.2588 39.806 62.9011 39.0662 62.4784L39.0258 62.4542H29.2704C29.2553 62.4502 28.8144 62.3544 28.3082 62.2278C27.7934 62.099 27.2047 61.9287 27.0509 61.8518L27.0428 61.8478H27.0387C27.0387 61.8478 26.8593 61.7761 26.5942 61.7904ZM57.3482 62.3362C56.766 62.307 55.9534 62.4252 55.9534 62.4252C54.2974 63.4602 44.5684 62.6314 44.5684 62.6314C43.9474 62.6314 43.117 63.6664 43.117 63.6664C42.91 65.5294 46.0165 64.7014 45.8096 64.7014H57.4006C59.2636 65.1153 59.2644 64.289 59.2644 64.289C59.2644 63.668 57.8171 62.4252 57.8171 62.4252C57.7136 62.3735 57.5422 62.3459 57.3482 62.3362ZM42.0342 64.6568C41.9811 64.6608 41.9283 64.6754 41.8765 64.7013C41.8765 64.7013 40.0127 64.7033 40.0127 67.1877C40.0127 67.1877 40.2197 69.0474 42.0827 69.0474C42.0827 69.0474 43.7403 68.6342 43.7403 66.7713C43.7403 66.7713 42.8301 64.5886 42.0342 64.6568ZM86.5862 27.0298C86.5862 27.0298 85.3442 27.0306 85.5512 27.8586L85.1388 59.3206C85.1388 59.3206 85.138 60.7712 87.4149 60.9782C87.4149 60.9782 90.3153 61.1852 90.9362 60.9782H97.5584C97.5584 60.9782 98.7996 62.2178 98.7996 60.5618C98.7996 60.5618 99.63 35.1008 99.216 29.7188C99.216 29.7188 99.2152 27.4427 97.3522 27.4427C97.3522 27.4427 89.8996 28.0637 89.2786 27.4427L86.5862 27.0298ZM115.238 27.2845C114.994 27.2948 114.636 27.3897 114.118 27.6484C114.118 27.6484 114.324 28.4788 105.01 28.0648C104.803 28.0648 101.076 27.8562 101.076 29.5122C101.076 29.5122 100.87 44.4162 100.87 44.8302L100.664 57.2502L100.251 61.5963C100.251 61.5963 100.872 62.4234 101.286 61.8024C101.286 61.8024 104.391 60.9761 106.461 61.3901C106.461 61.3901 112.669 62.0127 114.118 60.9777C114.118 60.9777 115.153 61.3917 115.36 59.9427C115.36 59.9427 115.773 32.4127 115.566 31.9987C115.566 31.9987 115.983 28.0626 115.776 27.6486C115.776 27.6486 115.776 27.26 115.238 27.2845ZM80.9872 27.8505C80.5809 27.8629 79.9894 28.1173 79.1356 28.8935V32.8232C79.1356 32.8232 79.1356 35.1002 77.0656 34.8932C77.0656 34.8932 74.7903 34.8932 73.5483 35.9282C73.5483 35.9282 72.9249 37.999 75.2018 37.792C75.2018 37.792 78.7223 37.794 78.9293 39.2434L78.7231 54.1454C78.7231 54.1454 79.5511 56.6277 76.6531 56.6277C76.6531 56.6277 73.342 56.4215 73.342 58.4915C73.342 58.4915 73.9614 60.1467 76.8593 59.7327C76.8593 59.7327 78.9293 60.1499 78.9293 62.0129V65.7364C78.9293 65.7364 78.7239 67.187 80.5869 67.394H95.9009C95.9009 67.394 96.7297 67.3932 96.7297 66.5652C96.7297 66.5652 96.7305 65.7364 95.4885 65.7364L83.0685 65.5303C83.0685 65.5303 80.9994 66.1529 80.7924 63.048C80.7924 63.048 80.9994 35.307 80.7924 34.893V35.3094C80.7924 35.3094 80.5854 30.5469 81.8274 28.477C81.8274 28.477 81.6644 27.8303 80.9872 27.8505ZM120.389 27.9273C119.501 28.0041 119.5 29.0997 119.5 29.0997C119.707 29.5137 120.122 30.9635 120.122 30.9635C120.329 34.2754 120.122 38.0005 120.122 41.5195C119.915 53.3185 119.5 64.0825 119.5 64.0825C119.5 66.3594 118.259 65.736 118.259 65.736H104.598C103.149 65.736 103.146 66.5648 103.146 66.5648C103.353 67.8068 104.804 67.3944 104.804 67.1874C106.046 67.3944 119.706 67.1874 119.706 67.1874C121.776 67.3944 121.57 64.701 121.57 64.701C121.777 59.9401 122.192 59.5261 122.192 59.5261C122.606 59.3191 124.881 59.3199 124.881 59.3199C128.4 59.5269 126.744 57.0438 126.744 57.0438C126.33 56.4229 123.846 56.4212 123.846 56.4212C121.569 56.6282 121.776 54.1451 121.776 54.1451L121.986 39.8621C121.572 38.6201 122.605 37.9983 122.605 37.9983H124.881C127.986 38.2053 127.161 36.1386 127.161 36.1386C127.161 35.1036 124.468 34.6872 124.468 34.6872C121.984 35.1012 122.192 33.6522 122.192 33.6522V30.3412C122.606 28.0642 121.157 28.0651 121.157 28.0651C120.847 27.9488 120.594 27.9095 120.389 27.9273ZM117.466 28.465C117.202 28.4867 116.912 28.6728 116.601 29.0997V60.1487C116.601 60.1487 117.429 62.838 118.671 62.631C118.671 62.631 118.881 62.0125 118.881 60.9775L119.294 31.3755C119.294 31.3755 118.611 28.3711 117.466 28.465ZM84.1042 28.6833C82.2412 28.6833 82.0342 32.2046 82.0342 32.2046L81.828 61.5966C82.035 63.0456 82.4466 62.8378 82.4466 62.8378C84.3096 61.5958 84.1042 59.5267 84.1042 59.5267C84.1042 59.5267 84.3103 31.5837 84.3103 31.1697C84.3103 30.7557 84.1042 28.6833 84.1042 28.6833ZM85.2888 61.7583C84.9275 61.748 84.2611 61.9094 83.6919 63.048C83.6919 63.048 83.2779 64.497 84.7269 64.083H94.8669L97.5595 64.7016C97.5595 64.7016 100.457 64.0814 97.5595 62.4255H87.8324C87.8324 62.4255 85.9662 62.0099 85.5522 61.8029C85.5522 61.8029 85.453 61.7635 85.2888 61.7583ZM115.833 62.1263C115.307 62.1366 114.741 62.2192 114.741 62.2192C113.085 63.2542 103.356 62.4254 103.356 62.4254C102.735 62.4254 101.905 63.4604 101.905 63.4604C101.491 65.3234 104.597 64.4954 104.597 64.4954H116.188C118.051 64.9094 118.052 64.083 118.052 64.083C118.052 63.462 116.601 62.2192 116.601 62.2192C116.446 62.1416 116.148 62.1203 115.833 62.1263ZM100.616 64.4509C100.561 64.4549 100.51 64.4695 100.458 64.4954C100.458 64.4954 98.5935 64.4934 98.8005 66.9777C98.8005 66.9777 99.0075 68.8415 100.871 68.8415C100.871 68.8415 102.528 68.6354 102.528 66.5654C102.528 66.5654 101.434 64.3827 100.616 64.4509ZM69.8228 104.653C69.8228 104.653 69.8228 106.93 69.6158 109.207C69.4088 110.449 70.0298 116.245 69.6158 119.143C69.6158 119.143 69.6158 120.178 67.5458 119.35C67.5458 119.35 54.9188 119.557 54.7118 119.143C54.7118 119.143 51.1929 119.35 50.9859 117.487C50.9859 117.487 51.3999 104.032 51.1929 103.618C51.1929 103.618 50.9859 96.3728 51.1929 95.5448C51.1929 95.5448 51.3999 88.714 51.1929 87.886C51.1929 87.886 51.1929 86.23 50.9859 85.6091C50.9859 85.6091 50.9859 84.5741 52.6419 85.1951C52.6419 85.1951 53.2629 86.2301 56.3678 85.8161C56.3678 85.8161 58.6447 86.2301 60.9217 85.8161C60.9217 85.8161 65.8896 85.4021 67.1315 85.8161C67.1315 85.8161 69.2015 85.4021 69.6154 87.6791V93.6819L70.2364 95.7519L70.8573 95.3379L71.0643 93.8889V87.4721C71.0643 87.4721 71.4783 86.2301 73.1343 86.0231C73.1343 86.0231 75.6182 85.8161 76.0322 86.0231C76.4462 86.2301 81.8281 86.4371 83.277 86.2301C84.726 86.0231 84.933 87.2651 89.4869 84.9881C89.4869 84.9881 90.7289 84.9881 90.7289 85.8161C90.7289 85.8161 90.315 94.0959 90.7289 95.7519C90.7289 95.7519 90.7289 111.07 90.315 112.105L90.5219 117.073C90.5219 117.073 90.729 119.143 87.2101 119.35C87.2101 119.35 89.2801 119.557 75.8251 119.143C75.8251 119.143 73.7551 118.936 71.2712 120.178C71.2712 120.178 70.8572 119.971 70.8572 118.729C70.8572 118.729 71.2712 114.175 70.8572 109.621L70.6502 104.653L69.8228 104.653ZM91.5568 118.108C91.5568 118.108 92.7988 120.385 93.2128 120.592C93.2128 120.592 94.2478 121.834 94.0408 119.557L94.2478 91.1988C94.2478 91.1988 94.0408 90.1638 94.2478 88.7149L93.0058 86.6449C93.0058 86.6449 91.7638 85.6099 91.7638 87.2659V117.28L91.5568 118.108ZM50.3648 119.35C50.3648 119.35 51.8138 120.799 54.0907 120.799L67.3387 121.006C67.3387 121.006 68.7877 121.213 68.7877 121.834C68.7877 121.834 68.5807 123.076 66.7177 122.662L50.5717 122.455L48.7087 122.662C48.7087 122.662 47.4667 122.455 49.3297 120.178L50.3648 119.35ZM47.4669 86.8519C47.4669 86.8519 46.2249 88.9219 46.4319 89.5428V122.248C46.4319 122.248 46.2249 124.525 48.0879 123.904C48.0879 123.904 65.2689 123.49 66.5109 123.904C66.5109 123.904 68.1669 124.111 67.5459 124.939C67.5459 124.939 67.5459 125.56 66.5109 125.353C66.5109 125.353 58.4381 126.181 50.9859 125.767C50.9859 125.767 46.018 125.974 45.811 125.56C45.811 125.56 44.983 125.353 44.983 122.662C44.983 122.662 44.983 119.971 44.776 119.557C44.776 119.557 44.983 118.108 42.4991 117.901C42.4991 117.901 38.9802 118.522 38.9802 116.452C38.9802 116.452 39.3942 115.003 42.9131 115.21C42.9131 115.21 45.397 115.624 44.7761 113.554L44.9831 99.064C44.9831 99.064 45.3971 96.5801 43.5341 96.3731H41.4641C41.4641 96.3731 38.5662 96.3731 38.7732 94.7171C38.7732 94.7171 39.8082 93.0611 42.7061 93.2681C42.7061 93.2681 44.7761 93.6821 44.983 91.1981C44.983 91.1981 44.983 86.2302 46.018 86.0232C45.811 86.0232 48.2948 86.231 47.4669 86.8519ZM49.123 86.6442C49.123 86.6442 49.744 86.6442 49.744 87.8862L49.537 117.486C49.537 117.486 49.744 119.349 48.088 120.798C48.088 120.798 47.26 121.833 47.26 120.177L47.674 89.9561C47.674 89.9561 47.674 87.6791 49.123 86.6442ZM72.306 121.419C72.306 121.419 73.962 120.177 74.7899 120.384C74.7899 120.384 83.6907 121.005 86.3819 120.591C89.0728 120.177 87.4169 120.384 87.4169 120.384C87.4169 120.384 89.6939 120.384 90.5218 119.556C90.5218 119.556 91.1428 119.349 91.5568 119.97L93.0058 121.626C93.0058 121.626 93.0058 122.661 91.3498 122.454C91.3498 122.454 75.4108 122.454 74.7898 122.661C74.9968 122.661 72.099 123.075 72.306 121.419ZM73.3409 124.11C73.3409 124.11 74.5829 123.489 75.4109 123.696C76.2389 123.903 87.6239 123.489 87.6239 123.489C87.6239 123.489 92.5918 123.903 93.4198 123.075L94.6618 122.661C94.6618 122.661 95.0758 122.04 95.0758 121.212V117.693L95.2828 116.658V89.5423C95.2828 89.5423 95.6968 87.4723 94.4548 86.2304C94.4548 86.2304 94.4548 85.4024 94.8688 85.6094C95.2828 85.8164 95.0758 85.6094 95.0758 85.6094C95.0758 85.6094 96.7318 85.1954 97.1458 85.8164C97.1458 85.8164 97.9738 88.0934 97.1458 89.5423C97.1458 89.5423 96.9388 92.4402 98.3878 92.4402C98.3878 92.4402 99.0088 93.0612 100.044 92.6472C100.044 92.6472 102.528 92.8541 102.528 93.6822C102.528 93.6822 102.528 95.5452 100.872 95.1312L98.5947 95.3382C98.5947 95.3382 96.9387 95.7521 97.1457 97.4082C97.3527 99.2712 97.1457 112.726 97.1457 112.726C97.1457 112.726 97.1457 114.382 99.6296 114.175C99.6296 114.175 102.734 113.968 102.734 115.003C102.734 115.003 103.562 116.866 101.285 117.073C101.285 117.073 97.1456 116.866 97.5596 118.108C97.5596 118.108 97.3526 120.799 97.1456 121.42C97.1456 121.42 97.5596 123.697 97.1456 124.111C97.1456 124.111 96.9386 125.353 94.2477 125.146C94.2477 125.146 77.4807 125.146 74.7897 125.353C74.5827 125.767 72.9269 125.559 73.3409 124.11ZM70.4428 122.248C70.4428 122.248 72.0988 122.455 72.0988 124.111C72.0988 125.767 72.0988 126.595 71.2708 126.802C70.2358 127.009 69.2008 126.595 68.9939 125.353C68.5799 124.111 68.9938 122.662 70.4428 122.248Z"
    fill="white"/>
  <path
    d="M39.6 38.4101L38.772 40.2731C38.772 40.2731 36.7021 49.7949 35.4602 51.6581C35.4602 51.6581 35.2531 53.7281 33.5971 52.072C33.5971 52.072 29.6643 40.066 29.4573 39.652L28.2153 38.8241C28.2153 38.8241 27.3873 37.7891 28.8362 37.5821H32.5621C32.5621 37.5821 33.8041 38.6171 32.1481 39.6521C32.1481 39.6521 32.3551 41.3081 34.425 47.3109C34.425 47.3109 35.046 49.5878 35.667 47.9318L37.737 40.894L37.1161 38.824C37.1161 38.824 36.4951 37.789 37.3231 37.789C37.3231 37.789 39.3931 37.5821 39.6 38.4101ZM45.1889 40.066V50.416L44.9819 51.244C44.9819 51.244 43.9469 52.486 44.7749 52.693C44.7749 52.693 43.9469 53.314 50.9847 53.314C50.9847 53.314 53.6756 53.728 53.0547 50.2091C53.0547 50.2091 52.8477 48.9671 51.8127 50.8301C51.8127 50.8301 51.6057 52.4861 47.8798 51.8651C47.8798 51.8651 47.0518 51.2441 47.0518 50.4161V46.0692C47.0518 46.0692 47.0518 45.0342 48.7078 45.0342C48.7078 45.0342 50.5708 46.2762 50.7778 45.6552C50.7778 45.6552 51.3988 43.9992 50.7778 43.1713C50.7778 43.1713 49.9498 43.1713 49.7428 43.3783C49.7428 43.3783 49.1218 44.6203 47.4659 43.7923C47.4659 43.7923 46.6379 42.1363 47.2589 40.8944C47.2589 40.8944 47.0519 38.4105 48.7079 38.6174C48.7079 38.6174 50.7779 39.0314 50.7779 39.6524C50.7779 39.6524 51.1919 40.8944 51.8129 39.4454L51.3989 37.9964C51.3989 37.9964 51.1919 37.3754 50.5709 37.5824C50.5709 37.5824 47.259 37.9964 46.845 37.5824L44.1541 37.7894C44.1541 37.7894 43.7401 38.8244 44.9821 39.2384C44.9821 39.4454 45.1889 39.652 45.1889 40.066ZM104.597 38.4104C104.39 37.5824 106.253 37.5824 106.253 37.5824L107.288 37.7894C107.909 37.7894 108.737 37.9964 108.737 37.9964C109.358 39.0314 108.323 39.6524 108.323 39.6524L107.909 40.8944V51.2444C108.116 51.6584 108.944 52.6934 108.944 52.6934C108.944 53.5213 107.909 53.3143 107.909 53.3143H105.011C104.183 53.3143 104.39 52.2793 104.39 52.2793C105.425 51.8654 105.632 50.0023 105.632 50.0023V40.2735L104.597 38.4104ZM91.3491 47.5182L91.1421 50.6231L91.9701 52.0721C92.5911 52.9 91.5561 53.5211 91.5561 53.5211L88.4512 53.1071C87.8302 52.9001 88.4512 51.8651 88.4512 51.8651C89.2792 51.4511 89.2792 50.2091 89.2792 50.2091V40.2733C89.2792 39.8593 88.4512 38.8243 88.4512 38.8243C87.8302 38.8243 88.0372 37.7893 88.0372 37.7893C88.2442 37.3753 89.9002 37.5823 89.9002 37.5823H94.0401C97.973 38.8243 97.352 41.7222 97.352 41.7222C97.559 44.6201 94.6611 45.6551 94.6611 45.6551L94.4541 47.3111L97.352 51.865C97.766 52.279 97.766 52.6929 97.766 52.6929C97.352 53.7279 95.696 52.6929 95.696 52.6929L92.1771 47.104C91.7631 46.6901 91.3491 47.5182 91.3491 47.5182ZM91.3491 39.6522V44.8271C93.2121 46.2761 94.247 44.2061 94.247 44.2061C96.7309 41.9292 94.247 39.6522 93.833 39.0312C93.419 38.4102 91.556 39.0312 91.556 39.0312L91.3491 39.6522ZM61.1281 97.6112C61.1281 97.6112 61.3351 104.856 61.1281 105.891V107.547C61.1281 107.547 61.5421 108.582 62.1631 108.996C62.1631 108.996 62.5771 110.445 61.5421 110.238C61.5421 110.238 59.0582 110.031 58.4372 110.238C58.4372 110.238 56.9882 110.238 58.4372 108.582C58.4372 108.582 58.8512 107.961 58.8512 106.098C58.8512 106.098 58.8512 97.8183 59.0582 97.4043C59.0582 97.4043 59.2652 96.3693 58.6442 95.9553H57.4022L55.9532 97.4043C55.9532 97.4043 55.5392 98.8533 54.9182 97.4043V96.5763L55.7462 94.2993H56.3672C56.3672 94.2993 57.1952 94.9203 58.0232 95.1273H62.5771L64.2331 94.2993C64.2331 94.2993 64.8541 94.2993 64.6471 95.3343C64.6471 95.3343 64.8541 97.6112 63.6121 97.8182C63.6121 97.8182 62.7841 97.6112 62.3701 96.3692C62.3701 96.1622 61.1281 95.3342 61.1281 97.6112ZM82.6551 94.9203C82.6551 94.9203 78.9292 94.5064 78.9292 98.6462C78.9292 98.6462 78.5152 101.337 82.6551 103.2C82.6551 103.2 85.76 104.649 85.553 106.512C85.553 106.512 85.139 109.824 81.8271 108.168C81.8271 108.168 80.1711 107.34 80.3781 106.512C80.3781 106.512 79.9641 105.477 79.3431 105.684C79.3431 105.684 78.7221 105.891 78.9291 109.203C78.9291 109.203 78.9291 110.445 80.3781 109.203L81.2061 109.41C81.2061 109.41 83.897 111.48 86.174 108.996C86.174 108.996 88.6579 106.719 86.7949 104.028C86.7949 104.028 85.5529 101.958 83.276 101.13C83.276 101.13 81.206 100.095 80.5851 98.4393C80.5851 98.4393 81.2061 95.5414 83.897 96.9903C83.897 96.9903 84.932 98.2323 85.553 98.4393C85.553 98.4393 86.381 98.4393 86.174 96.5763L85.967 95.1273C85.967 95.1273 85.76 94.0923 84.311 95.1273C84.311 94.9203 83.0691 95.5413 82.6551 94.9203ZM70.856 92.8503C71.477 93.2643 71.684 94.2993 71.684 94.2993C73.754 99.4742 75.4099 107.133 75.4099 107.133C75.8239 108.168 76.8589 108.789 76.8589 108.789C78.5149 109.41 76.8589 109.824 76.8589 109.824C76.2379 110.031 73.961 109.824 73.961 109.824C72.719 109.617 73.34 109.203 73.34 109.203C73.754 108.789 73.34 106.719 73.34 106.719C73.34 105.891 72.305 104.649 72.305 104.649C71.891 104.442 71.27 105.27 71.27 105.27C71.27 105.27 70.235 105.684 70.028 105.27C69.821 104.856 69.2 104.442 69.2 104.442C67.958 104.442 67.544 107.34 67.544 107.34C68.165 109.824 67.544 109.41 67.544 109.41C66.9231 110.238 65.0601 109.617 65.0601 109.617C64.2322 109.41 64.8531 108.789 64.8531 108.789C65.8881 108.582 66.3021 107.34 66.3021 107.34C66.7161 106.719 70.028 93.8853 70.028 93.8853C69.821 93.6783 70.028 92.4363 70.856 92.8503ZM69.2 99.4741C69.2 99.8881 68.372 102.786 68.372 102.786L68.993 103.821H71.063C71.477 103.821 71.684 103.407 71.684 102.786C71.684 102.372 70.649 99.2671 70.649 99.2671L70.235 98.6461L69.2 99.4741Z"
    fill="black"/>
</svg>
