<svg
  viewBox="0 0 22 18"
  fill="currentColor"
  aria-hidden="true"
  data-slot="icon"
>
  <path
    d="M18.98 10.5175C19.3544 10.5173 19.7259 10.4512 20.0775 10.3225V17.3225C20.0775 17.4551 20.0248 17.5823 19.9311 17.676C19.8373 17.7698 19.7101 17.8225 19.5775 17.8225H2.4225C2.2899 17.8225 2.16272 17.7698 2.06895 17.676C1.97518 17.5823 1.9225 17.4551 1.9225 17.3225V10.3225C2.2741 10.4512 2.64558 10.5173 3.02 10.5175H5.5525V11.8875C5.5525 12.0201 5.60518 12.1473 5.69895 12.241C5.79272 12.3348 5.9199 12.3875 6.0525 12.3875C6.18511 12.3875 6.31229 12.3348 6.40606 12.241C6.49983 12.1473 6.5525 12.0201 6.5525 11.8875V10.5175H15.4475V11.8875C15.4475 12.0201 15.5002 12.1473 15.594 12.241C15.6877 12.3348 15.8149 12.3875 15.9475 12.3875C16.0801 12.3875 16.2073 12.3348 16.3011 12.241C16.3948 12.1473 16.4475 12.0201 16.4475 11.8875V10.5175H18.98ZM7.25 1.67749C7.25 1.54488 7.30268 1.4177 7.39645 1.32394C7.49022 1.23017 7.6174 1.17749 7.75 1.17749H14.25C14.3826 1.17749 14.5098 1.23017 14.6036 1.32394C14.6973 1.4177 14.75 1.54488 14.75 1.67749V2.42749H15.75V1.67749C15.75 1.27967 15.592 0.898135 15.3107 0.61683C15.0294 0.335526 14.6478 0.17749 14.25 0.17749H7.75C7.35218 0.17749 6.97065 0.335526 6.68934 0.61683C6.40804 0.898135 6.25 1.27967 6.25 1.67749V2.42749H7.25V1.67749ZM20.72 3.42749H1.27C1.1374 3.42749 1.01022 3.48017 0.916451 3.57394C0.822683 3.6677 0.770004 3.79488 0.770004 3.92749V7.26749C0.770004 7.86423 1.00706 8.43652 1.42901 8.85848C1.85097 9.28044 2.42327 9.51749 3.02 9.51749H5.5525V8.42499C5.5525 8.29238 5.60518 8.16521 5.69895 8.07144C5.79272 7.97767 5.9199 7.92499 6.0525 7.92499C6.18511 7.92499 6.31229 7.97767 6.40606 8.07144C6.49983 8.16521 6.5525 8.29238 6.5525 8.42499V9.51749H15.4475V8.42499C15.4475 8.29238 15.5002 8.16521 15.594 8.07144C15.6877 7.97767 15.8149 7.92499 15.9475 7.92499C16.0801 7.92499 16.2073 7.97767 16.3011 8.07144C16.3948 8.16521 16.4475 8.29238 16.4475 8.42499V9.51749H18.98C19.5767 9.51749 20.149 9.28044 20.571 8.85848C20.993 8.43652 21.23 7.86423 21.23 7.26749V3.92749C21.23 3.79488 21.1773 3.6677 21.0836 3.57394C20.9898 3.48017 20.8626 3.42749 20.73 3.42749H20.72Z"
    fill="#968587"
  />
</svg>
