<svg width="26" height="26" viewBox="0 0 26 26" fill="none" xmlns="http://www.w3.org/2000/svg">
  <path
    d="M17.6307 19.0362L19.036 17.6308L14 12.5948V6.3335H12V13.4052L17.6307 19.0362ZM13.0024 25.6668C11.2504 25.6668 9.6036 25.3344 8.06204 24.6695C6.52049 24.0046 5.1796 23.1023 4.03937 21.9625C2.89915 20.8227 1.99637 19.4824 1.33104 17.9415C0.665929 16.4006 0.333374 14.7543 0.333374 13.0025C0.333374 11.2505 0.665818 9.60372 1.33071 8.06216C1.9956 6.52061 2.89793 5.17972 4.03771 4.0395C5.17749 2.89927 6.51782 1.9965 8.05871 1.33116C9.5996 0.666051 11.2459 0.333496 12.9977 0.333496C14.7497 0.333496 16.3965 0.66594 17.938 1.33083C19.4796 1.99572 20.8205 2.89805 21.9607 4.03783C23.1009 5.17761 24.0037 6.51794 24.669 8.05883C25.3342 9.59972 25.6667 11.2461 25.6667 12.9978C25.6667 14.7498 25.3343 16.3966 24.6694 17.9382C24.0045 19.4797 23.1022 20.8206 21.9624 21.9608C20.8226 23.1011 19.4823 24.0038 17.9414 24.6692C16.4005 25.3343 14.7542 25.6668 13.0024 25.6668ZM13 23.6668C15.9556 23.6668 18.4723 22.6279 20.55 20.5502C22.6278 18.4724 23.6667 15.9557 23.6667 13.0002C23.6667 10.0446 22.6278 7.52794 20.55 5.45016C18.4723 3.37239 15.9556 2.3335 13 2.3335C10.0445 2.3335 7.52782 3.37239 5.45004 5.45016C3.37226 7.52794 2.33337 10.0446 2.33337 13.0002C2.33337 15.9557 3.37226 18.4724 5.45004 20.5502C7.52782 22.6279 10.0445 23.6668 13 23.6668Z"
    fill="currentColor"/>
</svg>
