<svg
  width="24"
  height="26"
  viewBox="0 0 24 26"
  fill="none"
  xmlns="http://www.w3.org/2000/svg"
>
  <path
    d="M3.07696 25.6667C2.4034 25.6667 1.83329 25.4334 1.36663 24.9667C0.899959 24.5 0.666626 23.9299 0.666626 23.2564V5.41035C0.666626 4.7368 0.899959 4.16669 1.36663 3.70002C1.83329 3.23335 2.4034 3.00002 3.07696 3.00002H4.92296V0.179688H6.97429V3.00002H17.077V0.179688H19.077V3.00002H20.923C21.5965 3.00002 22.1666 3.23335 22.6333 3.70002C23.1 4.16669 23.3333 4.7368 23.3333 5.41035V23.2564C23.3333 23.9299 23.1 24.5 22.6333 24.9667C22.1666 25.4334 21.5965 25.6667 20.923 25.6667H3.07696ZM3.07696 23.6667H20.923C21.0256 23.6667 21.1196 23.6239 21.205 23.5384C21.2905 23.453 21.3333 23.359 21.3333 23.2564V10.7437H2.66663V23.2564C2.66663 23.359 2.7094 23.453 2.79496 23.5384C2.88029 23.6239 2.97429 23.6667 3.07696 23.6667ZM2.66663 8.74369H21.3333V5.41035C21.3333 5.30769 21.2905 5.21369 21.205 5.12835C21.1196 5.0428 21.0256 5.00002 20.923 5.00002H3.07696C2.97429 5.00002 2.88029 5.0428 2.79496 5.12835C2.7094 5.21369 2.66663 5.30769 2.66663 5.41035V8.74369ZM12 15.7694C11.6735 15.7694 11.3953 15.6544 11.1653 15.4244C10.9355 15.1946 10.8206 14.9164 10.8206 14.5897C10.8206 14.2632 10.9355 13.985 11.1653 13.755C11.3953 13.5252 11.6735 13.4104 12 13.4104C12.3264 13.4104 12.6046 13.5252 12.8346 13.755C13.0644 13.985 13.1793 14.2632 13.1793 14.5897C13.1793 14.9164 13.0644 15.1946 12.8346 15.4244C12.6046 15.6544 12.3264 15.7694 12 15.7694ZM6.66663 15.7694C6.34018 15.7694 6.06196 15.6544 5.83196 15.4244C5.60218 15.1946 5.48729 14.9164 5.48729 14.5897C5.48729 14.2632 5.60218 13.985 5.83196 13.755C6.06196 13.5252 6.34018 13.4104 6.66663 13.4104C6.99307 13.4104 7.27129 13.5252 7.50129 13.755C7.73107 13.985 7.84596 14.2632 7.84596 14.5897C7.84596 14.9164 7.73107 15.1946 7.50129 15.4244C7.27129 15.6544 6.99307 15.7694 6.66663 15.7694ZM17.3333 15.7694C17.0068 15.7694 16.7286 15.6544 16.4986 15.4244C16.2688 15.1946 16.154 14.9164 16.154 14.5897C16.154 14.2632 16.2688 13.985 16.4986 13.755C16.7286 13.5252 17.0068 13.4104 17.3333 13.4104C17.6597 13.4104 17.938 13.5252 18.168 13.755C18.3977 13.985 18.5126 14.2632 18.5126 14.5897C18.5126 14.9164 18.3977 15.1946 18.168 15.4244C17.938 15.6544 17.6597 15.7694 17.3333 15.7694ZM12 21C11.6735 21 11.3953 20.885 11.1653 20.655C10.9355 20.4252 10.8206 20.1471 10.8206 19.8207C10.8206 19.494 10.9355 19.2158 11.1653 18.986C11.3953 18.756 11.6735 18.641 12 18.641C12.3264 18.641 12.6046 18.756 12.8346 18.986C13.0644 19.2158 13.1793 19.494 13.1793 19.8207C13.1793 20.1471 13.0644 20.4252 12.8346 20.655C12.6046 20.885 12.3264 21 12 21ZM6.66663 21C6.34018 21 6.06196 20.885 5.83196 20.655C5.60218 20.4252 5.48729 20.1471 5.48729 19.8207C5.48729 19.494 5.60218 19.2158 5.83196 18.986C6.06196 18.756 6.34018 18.641 6.66663 18.641C6.99307 18.641 7.27129 18.756 7.50129 18.986C7.73107 19.2158 7.84596 19.494 7.84596 19.8207C7.84596 20.1471 7.73107 20.4252 7.50129 20.655C7.27129 20.885 6.99307 21 6.66663 21ZM17.3333 21C17.0068 21 16.7286 20.885 16.4986 20.655C16.2688 20.4252 16.154 20.1471 16.154 19.8207C16.154 19.494 16.2688 19.2158 16.4986 18.986C16.7286 18.756 17.0068 18.641 17.3333 18.641C17.6597 18.641 17.938 18.756 18.168 18.986C18.3977 19.2158 18.5126 19.494 18.5126 19.8207C18.5126 20.1471 18.3977 20.4252 18.168 20.655C17.938 20.885 17.6597 21 17.3333 21Z"
    fill="currentColor"
  />
</svg>
