<svg width="1664" height="206" viewbox="0 0 1664 206" fill="none" xmlns="http://www.w3.org/2000/svg">
    <path
        d="M635.177 6.87033L691.936 178.584C696.987 193.254 702.278 196.381 717.911 196.381V202.153H644.797V196.381C668.126 196.381 668.367 192.533 664.038 178.344L652.493 141.307H588.038L576.253 178.584C571.684 192.533 571.924 196.381 594.772 196.381V202.153H540.418V196.381C555.57 196.381 560.861 193.254 565.671 178.584L621.949 6.87033H635.177ZM620.025 41.5017L591.165 131.928H649.367L620.987 41.5017H620.025Z"
        fill="currentColor"></path>
    <path
        d="M825.129 187.001L827.294 192.533L791.699 206L786.649 201.912V182.191H785.686C779.433 196.381 768.611 206 752.978 206C729.889 206 715.699 180.267 715.699 142.269C715.699 100.183 733.016 70.3611 759.471 70.3611C771.497 70.3611 781.357 75.4115 786.649 83.8288V38.8562C786.649 23.224 786.889 20.3381 772.459 27.3124L770.054 22.262L806.851 3.98438L809.978 7.35131V173.534C809.978 189.647 810.218 192.773 825.129 187.001ZM763.079 189.166C773.661 189.166 780.636 181.229 786.649 170.167V125.675C786.649 102.106 779.433 82.8669 764.522 82.8669C747.687 82.8669 740.471 106.435 740.471 136.497C740.471 167.04 747.206 189.166 763.079 189.166Z"
        fill="currentColor"></path>
    <path
        d="M999.451 104.992V177.382C999.451 192.773 1001.62 196.381 1015.56 196.381V202.153H962.413V196.381C974.438 196.381 976.362 192.773 976.362 177.382V106.195C976.362 93.2082 971.552 87.1958 962.894 87.1958C954.236 87.1958 946.539 93.2082 938.122 104.511V177.382C938.122 192.773 940.046 196.381 952.071 196.381V202.153H900.843V196.381C913.109 196.381 915.033 192.773 915.033 177.382V106.195C915.033 93.2082 910.223 87.1958 901.565 87.1958C892.666 87.1958 884.73 93.4487 876.071 105.473V177.382C876.071 192.773 877.995 196.381 890.261 196.381V202.153H836.629V196.381C850.818 196.381 852.983 192.773 852.983 177.382V103.309C852.983 87.1958 852.983 84.0693 838.793 89.8412L836.388 84.5503L871.502 69.8801L876.071 73.4875V95.6131H876.793C885.932 81.9049 896.274 70.3611 912.628 70.3611C926.818 70.3611 935.236 79.2594 937.641 95.6131H938.362C947.261 81.9049 957.603 70.3611 973.957 70.3611C990.792 70.3611 999.451 82.8669 999.451 104.992Z"
        fill="currentColor"></path>
    <path
        d="M1053.33 46.7926C1044.19 46.7926 1037.7 40.5397 1037.7 32.1223C1037.7 23.4645 1044.19 17.2116 1053.33 17.2116C1062.23 17.2116 1068.73 23.4645 1068.73 32.1223C1068.73 40.5397 1062.23 46.7926 1053.33 46.7926ZM1066.8 73.4875V177.382C1066.8 192.773 1069.21 196.381 1083.88 196.381V202.153H1026.64V196.381C1041.31 196.381 1043.71 192.773 1043.71 177.382V103.309C1043.71 87.1958 1043.47 83.8288 1029.52 89.6007L1027.36 84.0693L1062.71 69.8801L1066.8 73.4875Z"
        fill="currentColor"></path>
    <path
        d="M1136.61 206C1124.35 206 1115.45 200.95 1110.4 197.343C1107.27 194.938 1105.35 195.659 1103.91 198.545L1101.98 203.355H1096.69L1095.01 151.408H1100.3C1103.91 180.027 1117.61 195.9 1134.21 195.9C1145.51 195.9 1151.53 188.204 1151.53 175.939C1151.53 165.116 1146.47 160.547 1124.11 142.51C1103.66 126.397 1096.69 117.017 1096.69 103.309C1096.69 83.3479 1111.12 70.3611 1130.12 70.3611C1140.94 70.3611 1148.4 74.9305 1152.73 78.5379C1155.85 81.4239 1158.26 80.2214 1158.98 77.3355L1160.42 72.0446H1165.96L1166.92 114.131H1161.63C1158.74 95.3726 1148.16 80.4619 1132.04 80.4619C1122.42 80.4619 1116.17 86.9553 1116.17 96.5751C1116.17 106.676 1122.42 111.967 1139.26 125.194C1160.9 142.269 1171.25 152.611 1171.25 170.888C1171.25 194.697 1155.13 206 1136.61 206Z"
        fill="currentColor"></path>
    <path
        d="M1226.57 206C1214.3 206 1205.4 200.95 1200.35 197.343C1197.23 194.938 1195.3 195.659 1193.86 198.545L1191.94 203.355H1186.64L1184.96 151.408H1190.25C1193.86 180.027 1207.57 195.9 1224.16 195.9C1235.47 195.9 1241.48 188.204 1241.48 175.939C1241.48 165.116 1236.43 160.547 1214.06 142.51C1193.62 126.397 1186.64 117.017 1186.64 103.309C1186.64 83.3479 1201.07 70.3611 1220.07 70.3611C1230.9 70.3611 1238.35 74.9305 1242.68 78.5379C1245.81 81.4239 1248.21 80.2214 1248.94 77.3355L1250.38 72.0446H1255.91L1256.87 114.131H1251.58C1248.7 95.3726 1238.11 80.4619 1222 80.4619C1212.38 80.4619 1206.13 86.9553 1206.13 96.5751C1206.13 106.676 1212.38 111.967 1229.21 125.194C1250.86 142.269 1261.2 152.611 1261.2 170.888C1261.2 194.697 1245.09 206 1226.57 206Z"
        fill="currentColor"></path>
    <path
        d="M1299.71 46.7926C1290.57 46.7926 1284.08 40.5397 1284.08 32.1223C1284.08 23.4645 1290.57 17.2116 1299.71 17.2116C1308.61 17.2116 1315.1 23.4645 1315.1 32.1223C1315.1 40.5397 1308.61 46.7926 1299.71 46.7926ZM1313.18 73.4875V177.382C1313.18 192.773 1315.58 196.381 1330.25 196.381V202.153H1273.01V196.381C1287.69 196.381 1290.09 192.773 1290.09 177.382V103.309C1290.09 87.1958 1289.85 83.8288 1275.9 89.6007L1273.74 84.0693L1309.09 69.8801L1313.18 73.4875Z"
        fill="currentColor"></path>
    <path
        d="M1392.39 206C1361.13 206 1340.68 178.344 1340.68 138.902C1340.68 100.183 1359.68 70.3611 1392.39 70.3611C1423.42 70.3611 1444.1 98.0181 1444.1 137.459C1444.1 176.179 1424.86 206 1392.39 206ZM1396 195.419C1413.08 195.419 1419.81 172.812 1419.81 151.649C1419.81 118.941 1409.95 80.9429 1388.79 80.9429C1371.71 80.9429 1364.74 103.549 1364.74 124.713C1364.74 157.42 1374.84 195.419 1396 195.419Z"
        fill="currentColor"></path>
    <path
        d="M1455.04 202.153V196.381C1468.99 196.381 1471.4 192.773 1471.4 177.382V103.309C1471.4 87.1958 1471.4 83.8288 1456.97 89.8412L1454.56 84.3098L1473.8 76.614L1490.16 69.8801L1494.73 73.4875V95.6131H1495.45C1506.27 80.7024 1517.09 70.3611 1533.45 70.3611C1550.52 70.3611 1559.9 82.6264 1559.9 105.233V177.382C1559.9 192.773 1562.07 196.381 1575.78 196.381V202.153H1521.9V196.381C1534.65 196.381 1536.57 192.773 1536.57 177.382V106.676C1536.57 93.4487 1531.52 87.1958 1522.38 87.1958C1512.52 87.1958 1503.87 93.9296 1494.73 105.714V177.382C1494.73 192.773 1496.65 196.381 1509.4 196.381V202.153H1455.04Z"
        fill="currentColor"></path>
    <path
        d="M1629.37 206C1617.1 206 1608.2 200.95 1603.15 197.343C1600.03 194.938 1598.1 195.659 1596.66 198.545L1594.74 203.355H1589.44L1587.76 151.408H1593.05C1596.66 180.027 1610.37 195.9 1626.96 195.9C1638.27 195.9 1644.28 188.204 1644.28 175.939C1644.28 165.116 1639.23 160.547 1616.86 142.51C1596.42 126.397 1589.44 117.017 1589.44 103.309C1589.44 83.3479 1603.87 70.3611 1622.87 70.3611C1633.7 70.3611 1641.15 74.9305 1645.48 78.5379C1648.61 81.4239 1651.01 80.2214 1651.74 77.3355L1653.18 72.0446H1658.71L1659.67 114.131H1654.38C1651.49 95.3726 1640.91 80.4619 1624.8 80.4619C1615.18 80.4619 1608.93 86.9553 1608.93 96.5751C1608.93 106.676 1615.18 111.967 1632.01 125.194C1653.66 142.269 1664 152.611 1664 170.888C1664 194.697 1647.89 206 1629.37 206Z"
        fill="currentColor"></path>
    <path
        d="M236.748 66.5086C245.165 66.5086 249.735 71.3185 249.735 79.2548C249.735 88.6341 244.203 94.6465 237.95 94.6465C233.621 94.6465 231.697 92.9631 228.57 89.5961C225.444 86.4697 224.241 85.5077 221.355 85.5077C215.824 85.5077 209.33 93.444 204.279 108.114V172.086C204.279 188.44 207.887 192.288 229.773 192.288V198.3H164.836V192.528C178.786 192.528 181.191 188.921 181.191 173.529V99.4564C181.191 83.3432 181.191 79.9763 166.761 85.9887L164.355 80.4573L183.596 72.7614L199.95 66.0276L204.279 69.635V92.7226H205.001C211.735 79.9763 223.52 66.5086 236.748 66.5086Z"
        fill="currentColor"></path>
    <path
        d="M284.3 42.94C275.161 42.94 268.667 36.6871 268.667 28.2698C268.667 19.612 275.161 13.3591 284.3 13.3591C293.199 13.3591 299.692 19.612 299.692 28.2698C299.692 36.6871 293.199 42.94 284.3 42.94ZM297.768 69.635V173.529C297.768 188.921 300.173 192.528 314.844 192.528V198.3H257.604V192.528C272.275 192.528 274.68 188.921 274.68 173.529V99.4564C274.68 83.3432 274.439 79.9763 260.49 85.7482L258.325 80.2168L293.68 66.0276L297.768 69.635Z"
        fill="currentColor"></path>
    <path
        d="M407.768 146.834H413.54C408.489 185.554 392.135 202.148 369.527 202.148C342.35 202.148 325.274 176.415 325.274 136.733C325.274 98.7349 342.11 66.5086 370.73 66.5086C398.869 66.5086 412.097 92.9631 412.097 128.075H348.603V128.556C348.603 161.264 358.705 184.351 378.666 184.351C389.489 184.351 401.995 175.934 407.768 146.834ZM370.73 76.6094C356.299 76.6094 350.287 94.1655 348.844 118.215H389.008C389.008 95.1275 384.92 76.6094 370.73 76.6094Z"
        fill="currentColor"></path>
    <path
        d="M462.612 3.49877V173.529C462.612 188.921 464.777 192.528 479.448 192.528V198.3H422.207V192.528C436.878 192.528 439.283 188.921 439.283 173.529V34.5227C439.283 19.131 439.283 16.0045 424.853 23.2194L422.448 17.9285L459.005 0.131836L462.612 3.49877Z"
        fill="currentColor"></path>
    <path fill-rule="evenodd" clip-rule="evenodd"
          d="M0 102.106C0 158.142 29.8227 202.152 75.2782 202.152C120.253 202.152 149.835 158.623 149.835 102.347C149.835 46.5519 120.012 2.30078 74.5567 2.30078C29.8227 2.30078 0 46.0709 0 102.106ZM107.403 38.7492C92.4197 34.3668 80.7232 25.097 74.9697 14.42C69.2162 25.097 57.5197 34.3668 42.5367 38.7492C39.0427 39.7711 35.5561 40.4729 32.1289 40.8735V161.819C35.2364 162.234 38.3885 162.896 41.5465 163.82C57.4003 168.457 69.5744 178.566 74.9219 190.024C80.2693 178.566 92.4435 168.457 108.297 163.82C111.454 162.896 114.605 162.234 117.711 161.82V40.8618C114.316 40.4593 110.863 39.7612 107.403 38.7492Z"
          fill="currentColor"></path>
</svg>
