<svg width="259" height="32" viewBox="0 0 259 32" fill="none" xmlns="http://www.w3.org/2000/svg">
    <path
        d="M98.7324 1.04743L107.555 27.7384C108.34 30.0188 109.163 30.5047 111.593 30.5047V31.4019H100.228V30.5047C103.854 30.5047 103.891 29.9066 103.219 27.7011L101.424 21.9442H91.4051L89.5733 27.7384C88.863 29.9066 88.9004 30.5047 92.4519 30.5047V31.4019H84.0031V30.5047C86.3583 30.5047 87.1807 30.0188 87.9284 27.7384L96.6763 1.04743H98.7324ZM96.3772 6.43049L91.8911 20.4863H100.938L96.5268 6.43049H96.3772Z"
        fill="currentColor"/>
    <path
        d="M128.259 29.0468L128.595 29.9066L123.062 32L122.277 31.3645V28.2992H122.128C121.156 30.5047 119.473 32 117.043 32C113.455 32 111.249 28.0001 111.249 22.0937C111.249 15.5518 113.941 10.9164 118.053 10.9164C119.922 10.9164 121.455 11.7014 122.277 13.0098V6.01928C122.277 3.58943 122.315 3.14084 120.072 4.22493L119.698 3.4399L125.417 0.598839L125.903 1.12219V26.9534C125.903 29.458 125.941 29.944 128.259 29.0468ZM118.614 29.3833C120.258 29.3833 121.343 28.1496 122.277 26.43V19.5143C122.277 15.8508 121.156 12.8603 118.838 12.8603C116.221 12.8603 115.099 16.5237 115.099 21.1965C115.099 25.9441 116.146 29.3833 118.614 29.3833Z"
        fill="currentColor"/>
    <path
        d="M155.355 16.2994V27.5515C155.355 29.944 155.692 30.5047 157.86 30.5047V31.4019H149.598V30.5047C151.467 30.5047 151.766 29.944 151.766 27.5515V16.4863C151.766 14.4677 151.019 13.5331 149.673 13.5331C148.327 13.5331 147.131 14.4677 145.822 16.2247V27.5515C145.822 29.944 146.121 30.5047 147.991 30.5047V31.4019H140.028V30.5047C141.934 30.5047 142.233 29.944 142.233 27.5515V16.4863C142.233 14.4677 141.486 13.5331 140.14 13.5331C138.757 13.5331 137.523 14.5051 136.177 16.3742V27.5515C136.177 29.944 136.476 30.5047 138.383 30.5047V31.4019H130.046V30.5047C132.252 30.5047 132.588 29.944 132.588 27.5515V16.0378C132.588 13.5331 132.588 13.0472 130.383 13.9443L130.009 13.1219L135.467 10.8416L136.177 11.4023V14.8415H136.289C137.71 12.7107 139.317 10.9164 141.86 10.9164C144.065 10.9164 145.374 12.2995 145.747 14.8415H145.86C147.243 12.7107 148.85 10.9164 151.392 10.9164C154.009 10.9164 155.355 12.8603 155.355 16.2994Z"
        fill="currentColor"/>
    <path
        d="M163.731 7.2529C162.31 7.2529 161.301 6.28096 161.301 4.97258C161.301 3.62681 162.31 2.65487 163.731 2.65487C165.114 2.65487 166.123 3.62681 166.123 4.97258C166.123 6.28096 165.114 7.2529 163.731 7.2529ZM165.824 11.4023V27.5515C165.824 29.944 166.198 30.5047 168.479 30.5047V31.4019H159.581V30.5047C161.862 30.5047 162.235 29.944 162.235 27.5515V16.0378C162.235 13.5331 162.198 13.0098 160.03 13.907L159.693 13.0472L165.189 10.8416L165.824 11.4023Z"
        fill="currentColor"/>
    <path
        d="M176.676 32C174.769 32 173.386 31.215 172.601 30.6543C172.115 30.2804 171.816 30.3926 171.592 30.8412L171.293 31.5888H170.47L170.208 23.5142H171.031C171.592 27.9627 173.723 30.43 176.302 30.43C178.059 30.43 178.994 29.2337 178.994 27.3272C178.994 25.645 178.209 24.9348 174.732 22.1311C171.554 19.6265 170.47 18.1686 170.47 16.0378C170.47 12.935 172.713 10.9164 175.667 10.9164C177.349 10.9164 178.508 11.6266 179.181 12.1874C179.667 12.636 180.04 12.449 180.153 12.0005L180.377 11.178H181.237L181.386 17.72H180.564C180.115 14.8041 178.47 12.4864 175.966 12.4864C174.47 12.4864 173.498 13.4958 173.498 14.991C173.498 16.5611 174.47 17.3835 177.087 19.4395C180.452 22.0937 182.059 23.7011 182.059 26.5422C182.059 30.243 179.554 32 176.676 32Z"
        fill="currentColor"/>
    <path
        d="M190.658 32C188.752 32 187.369 31.215 186.584 30.6543C186.098 30.2804 185.799 30.3926 185.574 30.8412L185.275 31.5888H184.453L184.191 23.5142H185.013C185.574 27.9627 187.705 30.43 190.285 30.43C192.042 30.43 192.976 29.2337 192.976 27.3272C192.976 25.645 192.191 24.9348 188.714 22.1311C185.537 19.6265 184.453 18.1686 184.453 16.0378C184.453 12.935 186.696 10.9164 189.649 10.9164C191.331 10.9164 192.49 11.6266 193.163 12.1874C193.649 12.636 194.023 12.449 194.135 12.0005L194.36 11.178H195.219L195.369 17.72H194.546C194.098 14.8041 192.453 12.4864 189.948 12.4864C188.453 12.4864 187.481 13.4958 187.481 14.991C187.481 16.5611 188.453 17.3835 191.07 19.4395C194.434 22.0937 196.042 23.7011 196.042 26.5422C196.042 30.243 193.537 32 190.658 32Z"
        fill="currentColor"/>
    <path
        d="M202.028 7.2529C200.607 7.2529 199.598 6.28096 199.598 4.97258C199.598 3.62681 200.607 2.65487 202.028 2.65487C203.411 2.65487 204.42 3.62681 204.42 4.97258C204.42 6.28096 203.411 7.2529 202.028 7.2529ZM204.121 11.4023V27.5515C204.121 29.944 204.495 30.5047 206.775 30.5047V31.4019H197.878V30.5047C200.158 30.5047 200.532 29.944 200.532 27.5515V16.0378C200.532 13.5331 200.495 13.0098 198.327 13.907L197.99 13.0472L203.486 10.8416L204.121 11.4023Z"
        fill="currentColor"/>
    <path
        d="M216.434 32C211.574 32 208.397 27.701 208.397 21.5703C208.397 15.5518 211.35 10.9164 216.434 10.9164C221.257 10.9164 224.472 15.2153 224.472 21.346C224.472 27.3646 221.481 32 216.434 32ZM216.995 30.3552C219.649 30.3552 220.696 26.8413 220.696 23.5516C220.696 18.4676 219.163 12.5612 215.874 12.5612C213.219 12.5612 212.135 16.0751 212.135 19.3648C212.135 24.4488 213.705 30.3552 216.995 30.3552Z"
        fill="currentColor"/>
    <path
        d="M226.173 31.4019V30.5047C228.341 30.5047 228.715 29.944 228.715 27.5515V16.0378C228.715 13.5331 228.715 13.0098 226.472 13.9443L226.098 13.0845L229.089 11.8883L231.631 10.8416L232.341 11.4023V14.8415H232.453C234.135 12.5238 235.818 10.9164 238.36 10.9164C241.014 10.9164 242.472 12.8229 242.472 16.3368V27.5515C242.472 29.944 242.809 30.5047 244.939 30.5047V31.4019H236.565V30.5047C238.547 30.5047 238.846 29.944 238.846 27.5515V16.5611C238.846 14.5051 238.061 13.5331 236.64 13.5331C235.107 13.5331 233.762 14.5798 232.341 16.4116V27.5515C232.341 29.944 232.64 30.5047 234.621 30.5047V31.4019H226.173Z"
        fill="currentColor"/>
    <path
        d="M253.27 32C251.363 32 249.98 31.215 249.195 30.6543C248.709 30.2804 248.41 30.3926 248.185 30.8412L247.886 31.5888H247.064L246.802 23.5142H247.625C248.185 27.9627 250.316 30.43 252.896 30.43C254.653 30.43 255.588 29.2337 255.588 27.3272C255.588 25.645 254.802 24.9348 251.326 22.1311C248.148 19.6265 247.064 18.1686 247.064 16.0378C247.064 12.935 249.307 10.9164 252.26 10.9164C253.943 10.9164 255.102 11.6266 255.774 12.1874C256.26 12.636 256.634 12.449 256.746 12.0005L256.971 11.178H257.831L257.98 17.72H257.158C256.709 14.8041 255.064 12.4864 252.559 12.4864C251.064 12.4864 250.092 13.4958 250.092 14.991C250.092 16.5611 251.064 17.3835 253.681 19.4395C257.046 22.0937 258.653 23.7011 258.653 26.5422C258.653 30.243 256.148 32 253.27 32Z"
        fill="currentColor"/>
    <path
        d="M36.805 10.3175C38.1134 10.3175 38.8237 11.0652 38.8237 12.2988C38.8237 13.7567 37.9639 14.6912 36.9919 14.6912C36.319 14.6912 36.0199 14.4296 35.5339 13.9062C35.0479 13.4202 34.861 13.2707 34.4124 13.2707C33.5525 13.2707 32.5432 14.5043 31.7581 16.7847V26.7284C31.7581 29.2704 32.3189 29.8685 35.7208 29.8685V30.803H25.6271V29.9059C27.7954 29.9059 28.1692 29.3451 28.1692 26.9527V15.4389C28.1692 12.9343 28.1692 12.4109 25.9261 13.3455L25.5523 12.4857L28.543 11.2895L31.0852 10.2427L31.7581 10.8035V14.3922H31.8702C32.917 12.4109 34.7488 10.3175 36.805 10.3175Z"
        fill="currentColor"/>
    <path
        d="M44.1965 6.65404C42.7759 6.65404 41.7665 5.6821 41.7665 4.37371C41.7665 3.02795 42.7759 2.05601 44.1965 2.05601C45.5797 2.05601 46.5891 3.02795 46.5891 4.37371C46.5891 5.6821 45.5797 6.65404 44.1965 6.65404ZM46.29 10.8035V26.9527C46.29 29.3451 46.6639 29.9059 48.9443 29.9059V30.803H40.0469V29.9059C42.3273 29.9059 42.7011 29.3451 42.7011 26.9527V15.4389C42.7011 12.9343 42.6638 12.4109 40.4955 13.3081L40.159 12.4483L45.6545 10.2427L46.29 10.8035Z"
        fill="currentColor"/>
    <path
        d="M63.3884 22.8032H64.2856C63.5005 28.8218 60.9584 31.4012 57.4443 31.4012C53.2198 31.4012 50.5656 27.4012 50.5656 21.2332C50.5656 15.3267 53.1825 10.3175 57.6312 10.3175C62.0051 10.3175 64.0613 14.4296 64.0613 19.8874H54.1918V19.9622C54.1918 25.0462 55.762 28.6349 58.8649 28.6349C60.5471 28.6349 62.4911 27.3265 63.3884 22.8032ZM57.6312 11.8876C55.3881 11.8876 54.4535 14.6165 54.2292 18.3547H60.4724C60.4724 14.766 59.8368 11.8876 57.6312 11.8876Z"
        fill="currentColor"/>
    <path
        d="M71.9134 0.52333V26.9527C71.9134 29.3451 72.2499 29.9059 74.5303 29.9059V30.803H65.6329V29.9059C67.9133 29.9059 68.2871 29.3451 68.2871 26.9527V5.34565C68.2871 2.95318 68.2871 2.46721 66.0441 3.58868L65.6702 2.76627L71.3526 -2.28882e-05L71.9134 0.52333Z"
        fill="currentColor"/>
    <path fill-rule="evenodd" clip-rule="evenodd"
          d="M0 15.8511C0 24.5612 4.63564 31.4021 11.7013 31.4021C18.6921 31.4021 23.2904 24.6359 23.2904 15.8885C23.2904 7.21575 18.6547 0.337395 11.5891 0.337395C4.63564 0.337395 0 7.14098 0 15.8511ZM16.6925 6.00276C14.3646 5.32186 12.5471 3.88196 11.6523 2.22325C10.7576 3.88196 8.94007 5.32186 6.61214 6.00276C6.0683 6.16182 5.5256 6.27099 4.99219 6.33321V25.1327C5.47517 25.1972 5.96506 25.3001 6.45589 25.4436C8.92087 26.1646 10.8136 27.7366 11.6444 29.5183C12.4753 27.7366 14.368 26.1646 16.833 25.4436C17.3233 25.3002 17.8126 25.1974 18.2951 25.1329V6.33116C17.7673 6.2686 17.2305 6.16009 16.6925 6.00276Z"
          fill="currentColor"/>
</svg>
