<svg width="194" height="67" viewBox="0 0 194 67" fill="none" xmlns="http://www.w3.org/2000/svg">
  <path
    d="M83.2026 13.976H90.818L108.396 37.0852V13.976H116.545V51.5063H109.524L91.3485 27.6478V51.5063H83.2026V13.976Z"
    fill="#4F2987"/>
  <path
    d="M135.089 36.7077L120.67 13.976H130.322L139.276 29.0433L148.388 13.976H157.765L143.348 36.5488V51.5063H135.089V36.7077Z"
    fill="#4F2987"/>
  <path
    d="M161.304 35.422V13.9761H169.563V35.2089C169.563 41.3186 172.61 44.4827 177.654 44.4827C182.689 44.4827 185.75 41.4238 185.75 35.4783V13.9761H194.002V35.1534C194.002 46.5168 187.622 52.0942 177.542 52.0942C167.469 52.0942 161.304 46.467 161.304 35.422Z"
    fill="#4F2987"/>
  <path d="M7.19385 61.6865H56.5616V4.58769H7.19385V61.6865Z" fill="white"/>
  <path
    d="M29.1139 34.4597C22.3425 30.4191 23.0202 24.6486 25.8266 20.4074C25.8868 20.3186 25.9059 20.1705 25.8868 19.9985C25.7694 18.9898 24.6689 16.4378 24.2093 15.7439C24.0917 15.5679 23.9913 15.5824 23.9799 15.7074C23.9426 16.8612 22.6292 19.7528 20.619 23.083C18.4827 26.6272 18.4779 34.3192 29.0841 34.6195C29.1856 34.6222 29.2143 34.5179 29.1139 34.4597ZM30.9252 34.1614C26.8771 25.5129 34.9743 19.9268 36.2933 18.7155C36.4797 18.5455 36.433 18.3886 36.4367 18.1945C36.4367 15.4715 34.8767 11.0659 34.3655 10.4358C34.2938 10.3384 34.2326 10.3805 34.2028 10.4788C33.5117 13.163 29.827 17.1634 29.0841 18.0389C22.8328 25.4718 24.2638 29.9978 30.7904 34.2666C30.8736 34.3192 30.9739 34.259 30.9252 34.1614ZM32.2444 33.7936C34.157 24.6199 41.6234 24.3963 42.2914 22.6557C43.3334 19.941 41.4264 15.1235 40.9389 14.5539C40.892 14.4927 40.8242 14.5318 40.8002 14.5825C39.7881 16.8049 38.1469 18.9211 36.9491 19.8933C35.2543 21.2582 28.7687 26.0654 32.0856 33.8002C32.1238 33.8959 32.2214 33.8719 32.2444 33.7936ZM33.5719 34.5896C45.661 35.0276 46.5164 24.0111 46.5642 19.8884C46.5698 19.6495 46.4494 19.6285 46.3921 19.7956C46.0336 20.656 44.4622 23.7282 40.1035 25.5961C36.211 27.2659 33.8702 31.0549 33.4621 34.4597C33.444 34.5438 33.5157 34.5896 33.5719 34.5896ZM36.3221 38.719V35.9453H26.7873V38.719H36.3221ZM30.7473 58.3459C30.8249 58.8095 31.8274 59.037 32.0521 58.3459L34.3616 40.044H28.7515L30.7473 58.3459ZM66.0657 66.0693H0V-0.000289917H66.0657V66.0693Z"
    fill="#4F2987"/>
</svg>
