<svg
  width="106"
  height="140"
  viewBox="0 0 106 140"
  fill="none"
  xmlns="http://www.w3.org/2000/svg"
>
  <path
    fill-rule="evenodd"
    clip-rule="evenodd"
    d="M0.519043 69.9158C0.519043 109.17 21.4104 140 53.2529 140C84.7584 140 105.481 109.507 105.481 70.0842C105.481 30.9988 84.5899 0 52.7475 0C21.4104 0 0.519043 30.6619 0.519043 69.9158ZM75.7568 25.5328C65.2609 22.4628 57.0673 15.9692 53.0368 8.48975C49.0064 15.9692 40.8128 22.4628 30.3169 25.5328C27.8693 26.2487 25.4268 26.7403 23.026 27.0209V111.746C25.2029 112.036 27.411 112.5 29.6232 113.147C40.7291 116.395 49.2573 123.477 53.0033 131.504C56.7493 123.477 65.2775 116.395 76.3834 113.147C78.5947 112.5 80.8018 112.036 82.9778 111.746V27.0127C80.5995 26.7308 78.1806 26.2418 75.7568 25.5328Z"
    fill="currentColor"
  />
</svg>
