<svg width="583" height="170" viewBox="0 0 583 170" fill="none" xmlns="http://www.w3.org/2000/svg">
  <path
    d="M45.0886 5.33295C56.5932 0.689153 69.328 -0.797484 81.6018 0.963689C98.6852 3.34645 114.707 12.3207 125.763 25.5476C131.619 32.4939 136.126 40.5771 138.925 49.2224C142.396 59.8672 143.222 71.3407 141.44 82.3894C139.858 92.2779 136.12 101.819 130.539 110.136C126.271 116.517 120.941 122.182 114.865 126.872C114.341 127.279 113.88 127.755 113.419 128.229C106.111 135.655 96.4941 140.695 86.2819 142.684C84.9739 142.95 83.6557 143.16 82.3374 143.352C82.7699 145.196 83.3967 146.988 84.1141 148.742C83.6375 149.213 83.161 149.69 82.6844 150.166C81.3972 149.446 79.592 149.85 78.9212 151.212C78.0536 152.715 79.1103 154.818 80.8222 155.04C82.2079 155.302 83.4148 154.383 84.2824 153.411C84.8367 155.683 84.658 158.154 83.5184 160.22C81.2781 164.413 77.1497 167.291 72.8011 168.987C72.1769 169.189 71.5165 169.619 70.8561 169.306C66.2796 167.713 61.9052 164.859 59.4188 160.601C58.1238 158.459 57.8415 155.838 58.4502 153.429C59.3178 154.509 60.7138 155.38 62.1408 154.986C63.6482 154.623 64.5417 152.792 63.8735 151.386C63.3089 149.995 61.5141 149.399 60.2062 150.107C59.6908 149.64 59.2012 149.146 58.7117 148.651C59.8254 146.737 60.8666 144.771 61.6125 142.681C58.9112 142.153 56.2746 141.35 53.6328 140.609C50.1623 141.868 46.2981 142.085 42.7602 140.972C37.342 139.363 32.9779 134.805 31.5172 129.356C20.6186 121.951 11.8645 111.436 6.57844 99.3666C1.91133 88.797 -0.0699914 77.0697 0.815775 65.5521C1.73262 53.211 6.01641 41.1469 13.0585 30.9736C20.9216 19.5389 32.2035 10.4922 45.0886 5.33295ZM62.8997 2.7663C50.2996 4.3151 38.1837 9.49761 28.3263 17.4876C17.2154 26.4204 8.97674 38.8755 5.19022 52.6256C1.82845 64.7181 1.88284 77.7327 5.34044 89.7967C9.48178 104.443 18.6969 117.571 31.0173 126.502C30.7091 123.083 31.5379 119.61 33.2654 116.655C32.4288 115.862 31.6259 115.036 30.8645 114.171C31.0484 114.036 31.2323 113.901 31.4187 113.769C32.2061 114.456 33.0608 115.062 33.9232 115.657C35.687 113.15 38.1216 111.135 40.9213 109.89C35.371 105.541 30.7557 99.9986 27.5183 93.7309C23.2319 85.6114 21.3153 76.259 22.056 67.1061C22.7812 57.4119 26.5056 47.9766 32.5557 40.3699C38.94 32.2763 47.8961 26.2391 57.8156 23.4212C66.0102 21.0773 74.8083 20.8831 83.0936 22.8773C91.4955 24.8872 99.3353 29.1554 105.595 35.1097C110.91 40.1394 115.103 46.3553 117.742 53.1851C120.547 60.3981 121.588 68.2793 120.803 75.9741C119.894 85.1633 116.294 94.0494 110.599 101.314C104.518 109.115 96.0667 115.054 86.6341 118.053C85.6007 118.333 84.689 118.965 84.0675 119.835C82.4669 122.049 81.8427 124.813 81.5837 127.491C91.9409 129.827 103 129.384 112.992 125.712C123.797 117.66 132.101 106.29 136.491 93.5496C140.158 82.9489 141.158 71.4443 139.438 60.3644C137.928 50.5873 134.24 41.1599 128.747 32.9367C121.042 21.3544 109.762 12.1808 96.8204 7.06305C86.1187 2.7922 74.3266 1.33405 62.8997 2.7663ZM63.4151 24.1905C54.1715 25.7496 45.4511 30.1836 38.6913 36.6689C31.5457 43.4649 26.5911 52.5376 24.8092 62.2421C23.2759 70.385 23.9286 78.9293 26.7154 86.7354C29.7534 95.3781 35.3607 103.083 42.6255 108.665C42.8923 108.843 43.172 109.17 43.532 109.006C46.3162 108.302 49.2765 108.305 52.0452 109.084C56.5077 110.294 60.4133 113.438 62.5034 117.569C72.0889 119.439 82.2493 118.242 91.1277 114.171C99.5399 110.351 106.774 104.008 111.687 96.1862C117.496 87.0358 119.967 75.8472 118.599 65.0989C117.651 57.3316 114.712 49.8233 110.161 43.4623C105.155 36.4332 98.2164 30.7923 90.2885 27.3813C81.8971 23.7294 72.4282 22.6235 63.4151 24.1905ZM35.6481 116.784C36.5287 117.312 37.4145 117.833 38.3106 118.338C40.5147 115.326 44.1847 113.422 47.9349 113.526C49.7453 113.521 51.5065 114.034 53.1485 114.769C55.3034 115.663 57.5178 116.409 59.7788 116.978C57.1293 112.99 52.4414 110.436 47.6423 110.47C42.9208 110.423 38.3054 112.897 35.6481 116.784ZM40.1547 119.338C42.7964 120.659 45.4719 121.915 48.1965 123.06C48.9839 123.409 49.9266 123.712 50.3151 124.562C50.9833 125.808 50.227 127.532 48.8362 127.846C47.8106 128.162 46.8886 127.478 46.0598 126.981C43.5579 125.354 41.1881 123.534 38.9063 121.612C37.8367 124.085 37.9843 127.038 39.1834 129.439C40.3075 131.695 42.3639 133.318 44.5524 134.476C50.8564 137.921 57.8104 140.104 64.8836 141.267C70.4702 142.205 76.181 142.122 81.7883 141.425C87.6805 140.676 93.482 139.04 98.794 136.359C102.78 134.373 106.452 131.793 109.773 128.833C100.796 131.309 91.2416 131.542 82.1353 129.63C72.5939 127.688 63.6327 123.557 55.3811 118.47C53.48 117.419 51.6955 115.994 49.4889 115.663C46.0054 114.997 42.2577 116.489 40.1547 119.338ZM34.7986 118.118C33.3327 120.9 32.7267 124.14 33.2214 127.255C33.887 132.016 37.0959 136.305 41.4497 138.325C44.2468 139.674 47.4506 139.988 50.4938 139.472C47.2978 138.099 44.0577 136.742 41.1803 134.758C39.256 133.375 37.6528 131.485 36.824 129.247C35.7181 126.346 35.9071 123.023 37.2021 120.216C36.4044 119.511 35.6145 118.799 34.7986 118.118ZM60.0844 118.991C61.8741 119.978 63.7026 120.887 65.5363 121.785C65.9507 121.213 66.4195 120.685 66.9426 120.213C64.6298 119.975 62.3584 119.462 60.0844 118.991ZM71.7392 120.418C70.035 120.405 68.3334 121.213 67.3596 122.63C71.2756 124.43 75.3471 125.896 79.5169 126.994C79.7888 124.287 80.514 121.57 82.0343 119.283C78.6518 120.006 75.1968 120.392 71.7392 120.418ZM61.5685 147.721C62.7676 147.858 63.9875 148.25 64.8448 149.138C66.7044 150.915 66.65 154.248 64.7205 155.949C63.5394 157.027 61.8352 157.283 60.3046 157.011C60.7967 159.342 62.2496 161.339 63.9745 162.929C66.0569 164.843 68.5588 166.307 71.242 167.203C72.9203 166.877 74.4691 165.957 75.9453 165.097C78.8849 163.225 81.6847 160.549 82.4099 157.006C80.7575 157.338 78.9134 156.918 77.748 155.654C75.9712 153.823 76.1059 150.5 78.0872 148.869C79.0274 148.045 80.2991 147.739 81.5241 147.737C81.0424 146.377 80.5632 145.012 80.2473 143.603C74.7358 144.16 69.1519 144.067 63.6896 143.088C63.1173 144.688 62.4024 146.237 61.5685 147.721Z"
    fill="#002147"/>
  <path
    d="M57.9373 6.94405C58.634 6.71872 59.3411 6.52447 60.0507 6.32764C59.5146 9.07558 58.8982 11.8106 58.4061 14.5637C58.7609 16.1617 59.3048 17.7105 59.7296 19.293C59.1132 19.4743 58.4942 19.6582 57.8829 19.855C57.4064 18.459 57.0671 17.019 56.6397 15.6049C56.5284 15.1102 56.1269 14.7735 55.8006 14.4187C54.301 12.8932 52.8506 11.3211 51.3459 9.80077C51.1309 9.5625 50.8693 9.33976 50.7683 9.02379C51.3925 8.81918 52.027 8.65342 52.6538 8.45658C54.0912 9.90178 55.4794 11.3962 56.9013 12.8569C57.238 10.886 57.6291 8.92278 57.9373 6.94405Z"
    fill="#002147"/>
  <path
    d="M87.4189 8.00301C89.7939 7.51092 92.4408 8.75151 93.4354 10.9918C94.6915 13.8408 93.7384 17.4356 91.3971 19.4377C89.8742 20.7612 87.5924 21.0176 85.7587 20.225C83.8007 19.4351 82.5109 17.4123 82.4513 15.3248C82.2597 12.1962 84.1426 8.63237 87.4189 8.00301ZM87.6546 9.77196C85.8468 10.3417 84.8367 12.2169 84.5259 13.9806C84.2255 15.5631 84.6165 17.4615 86.0514 18.3784C87.4163 19.3263 89.408 18.9767 90.4414 17.6972C91.7363 16.1277 92.4045 13.877 91.7467 11.9009C91.2183 10.2589 89.3044 9.24619 87.6546 9.77196Z"
    fill="#002147"/>
  <path
    d="M70.8224 10.3003C71.9982 9.81598 73.3813 11.0022 73.0601 12.2402C72.8659 13.4704 71.185 14.0454 70.2837 13.1777C69.3099 12.4034 69.631 10.6707 70.8224 10.3003Z"
    fill="#002147"/>
  <path
    d="M37.9999 14.8331C40.6727 13.4475 43.343 12.0593 46.0132 10.6685C46.2696 11.1735 46.526 11.6785 46.7798 12.1836C45.7387 12.7145 44.7079 13.2584 43.6745 13.8023C45.3243 16.9413 46.9326 20.1037 48.6058 23.2298C48.0282 23.5587 47.4429 23.8721 46.855 24.1777C45.2026 21.0231 43.5579 17.8634 41.9133 14.7036C40.8721 15.2527 39.831 15.8018 38.782 16.3353C38.5205 15.8354 38.2589 15.333 37.9999 14.8331Z"
    fill="#002147"/>
  <path
    d="M95.7197 23.8201C97.7995 20.2563 99.9051 16.7107 102 13.1572C103.971 14.3123 105.94 15.4778 107.911 16.6355C107.623 17.1225 107.333 17.6094 107.046 18.0963C105.644 17.2571 104.233 16.4387 102.824 15.6099C102.246 16.5837 101.684 17.5705 101.084 18.534C102.397 19.3524 103.759 20.0905 105.067 20.9219C104.779 21.3829 104.502 21.8491 104.228 22.3153C102.899 21.5435 101.576 20.7639 100.255 19.9792C99.3042 21.5875 98.3563 23.1985 97.4084 24.8069C96.849 24.4702 96.2869 24.1387 95.7197 23.8201Z"
    fill="#002147"/>
  <path
    d="M31.2167 19.6215C31.7528 19.2382 32.2786 18.842 32.8121 18.4561C35.27 21.7583 37.8055 24.9983 40.2893 28.2824C39.7661 28.6812 39.2456 29.0801 38.7276 29.4841C36.2179 26.2 33.6823 22.9367 31.2167 19.6215Z"
    fill="#002147"/>
  <path
    d="M349.528 21.4657C353.304 20.6913 357.51 21.5641 360.388 24.2188C359.841 24.9595 359.23 25.6484 358.668 26.3788C357.016 25.1797 355.081 24.3068 353.027 24.1696C351.25 24.0349 349.31 24.3172 347.912 25.5008C346.56 26.6197 346.094 28.6191 346.708 30.2456C347.075 31.1599 347.824 31.8618 348.632 32.3953C351.336 34.1357 354.54 34.9438 357.161 36.8267C358.886 38.0544 360.263 39.8932 360.579 42.0248C360.942 44.4671 360.323 47.114 358.671 48.9892C357.474 50.3774 355.78 51.2606 354.009 51.6594C349.922 52.584 345.462 51.4703 342.232 48.8156C342.773 48.0231 343.32 47.2306 343.838 46.4199C345.91 47.6994 348.197 48.7975 350.665 48.9581C352.291 49.0151 354.042 48.7587 355.363 47.7304C356.839 46.5831 357.368 44.5422 357.07 42.7525C356.793 41.2607 355.656 40.1108 354.436 39.3001C351.512 37.3732 347.93 36.5599 345.278 34.2057C342.587 31.8644 342.39 27.4536 344.426 24.6332C345.625 22.9549 347.534 21.893 349.528 21.4657Z"
    fill="#002147"/>
  <path
    d="M461.549 21.313C464.662 20.9297 467.954 21.5823 470.531 23.416C474.126 25.9024 476.066 30.2173 476.431 34.4829C476.871 39.3029 475.763 44.5501 472.323 48.1243C468.49 52.1983 461.87 53.1047 456.991 50.4604C453.152 48.4376 450.738 44.374 450.031 40.1757C449.244 35.449 449.961 30.2587 452.857 26.3349C454.893 23.5429 458.122 21.7015 461.549 21.313ZM460.601 24.5375C458.835 24.9985 457.247 26.0656 456.123 27.4978C454.538 29.4765 453.776 31.9914 453.523 34.4829C453.251 37.249 453.497 40.1187 454.585 42.6983C455.356 44.5553 456.602 46.2465 458.275 47.3835C461.518 49.6549 466.353 49.3623 469.226 46.6039C471.08 44.8557 472.075 42.3823 472.525 39.9141C473.015 37.0107 472.978 33.9624 472.038 31.1522C471.347 29.088 470.098 27.1663 468.311 25.892C466.12 24.2992 463.199 23.8641 460.601 24.5375Z"
    fill="#002147"/>
  <path
    d="M179.471 21.7535C180.645 21.7509 181.82 21.7664 182.996 21.7354C183.066 28.49 182.983 35.2446 183.038 41.9992C183.045 43.7422 183.436 45.6096 184.713 46.8839C186.493 48.6735 189.225 49.1423 191.644 48.7927C193.638 48.5155 195.555 47.3293 196.436 45.4775C197.091 44.0738 197.137 42.4861 197.187 40.9632C197.238 34.5557 197.168 28.1481 197.225 21.7405C198.386 21.7613 199.543 21.7535 200.706 21.7535C200.706 26.1745 200.704 30.593 200.706 35.0141C200.66 37.9511 200.833 40.9062 200.45 43.8277C200.194 45.8453 199.393 47.8577 197.868 49.2511C195.679 51.3334 192.535 52.056 189.588 51.9446C186.423 51.8592 183.11 50.6108 181.196 47.9846C179.772 46.0525 179.51 43.5661 179.487 41.2377C179.453 34.7421 179.479 28.2491 179.471 21.7535Z"
    fill="#002147"/>
  <path
    d="M212.11 21.7533C213.322 21.7533 214.537 21.7507 215.751 21.7585C220.527 29.8651 225.241 38.0131 230.069 46.0886C230.089 37.9768 230.014 29.8651 230.001 21.7533C231.092 21.7559 232.187 21.7404 233.283 21.7741C233.239 31.6522 233.301 41.5329 233.249 51.411C232.011 51.3851 230.773 51.4161 229.538 51.3825C224.814 43.2863 220.064 35.2056 215.285 27.143C215.298 35.2315 215.368 43.3225 215.355 51.411C214.272 51.3928 213.19 51.398 212.11 51.4006C212.107 41.5173 212.107 31.6366 212.11 21.7533Z"
    fill="#002147"/>
  <path
    d="M245.658 51.4189C245.619 41.5279 245.619 31.6342 245.66 21.7432C246.839 21.7691 248.022 21.7561 249.203 21.7587C249.206 31.6394 249.206 41.5227 249.203 51.4034C248.022 51.4034 246.839 51.3904 245.658 51.4189Z"
    fill="#002147"/>
  <path
    d="M257.082 21.7532C258.32 21.7532 259.561 21.7532 260.799 21.7532C263.689 30.4788 266.561 39.2096 269.459 47.9325C272.415 39.1992 275.388 30.471 278.372 21.748C279.516 21.7558 280.666 21.7506 281.814 21.7532C278.343 31.6339 274.862 41.512 271.399 51.3953C270.034 51.4031 268.667 51.4005 267.302 51.3979C263.901 41.5146 260.485 31.6365 257.082 21.7532Z"
    fill="#002147"/>
  <path
    d="M289.881 21.7639C295.25 21.7406 300.619 21.7846 305.991 21.7432C306.027 22.7351 306.019 23.7297 306.001 24.7216C301.798 24.7035 297.592 24.7216 293.388 24.7113C293.38 27.9746 293.385 31.2354 293.385 34.4961C297.343 34.5091 301.3 34.4676 305.26 34.5168C305.232 35.457 305.232 36.3972 305.263 37.3373C301.306 37.4357 297.346 37.3554 293.385 37.3788C293.375 41.0332 293.401 44.6876 293.375 48.3395C297.706 48.3835 302.036 48.3421 306.369 48.3602C306.364 49.3754 306.364 50.3881 306.366 51.4008C300.87 51.3982 295.375 51.4137 289.879 51.393C289.894 41.5175 289.889 31.642 289.881 21.7639Z"
    fill="#002147"/>
  <path
    d="M315.791 51.3797C315.851 41.499 315.76 31.6157 315.838 21.7324C319.078 21.7946 322.321 21.6936 325.561 21.8231C327.594 21.9293 329.749 22.4006 331.266 23.8588C333.719 26.0784 334.372 29.8312 333.31 32.89C332.416 35.4048 329.909 37.0365 327.342 37.4172C329.117 37.6633 330.336 39.1395 331.041 40.678C332.719 44.221 334.26 47.8237 335.866 51.4004C334.638 51.403 333.413 51.3849 332.188 51.416C330.769 48.3987 329.521 45.3011 328.073 42.2941C327.366 40.8774 326.47 39.3079 324.838 38.8443C323.038 38.3677 321.15 38.5439 319.311 38.5024C319.308 42.8017 319.308 47.1011 319.308 51.3978C318.135 51.3952 316.962 51.4134 315.791 51.3797ZM319.311 24.6021C319.308 28.2902 319.308 31.9809 319.311 35.669C321.562 35.6353 323.856 35.8218 326.063 35.2598C327.467 34.9075 328.788 34.0555 329.515 32.776C330.575 30.9656 330.51 28.5544 329.376 26.7932C328.417 25.3791 326.679 24.7368 325.03 24.6513C323.126 24.5451 321.215 24.628 319.311 24.6021Z"
    fill="#002147"/>
  <path
    d="M370.517 21.7583C371.706 21.7583 372.895 21.7583 374.086 21.7583C374.089 31.639 374.089 41.5197 374.086 51.403C372.895 51.403 371.706 51.403 370.517 51.4004C370.517 41.5197 370.517 31.639 370.517 21.7583Z"
    fill="#002147"/>
  <path
    d="M382.063 21.7611C389.123 21.7559 396.181 21.7585 403.241 21.7585C403.239 22.7426 403.239 23.7294 403.241 24.7136C400.312 24.711 397.383 24.7188 394.456 24.711C394.446 33.6075 394.453 42.5066 394.451 51.4031C393.272 51.4057 392.094 51.385 390.921 51.4265C390.83 42.5196 390.934 33.6075 390.869 24.7007C387.935 24.7317 384.998 24.7058 382.063 24.7136C382.063 23.7294 382.063 22.7452 382.063 21.7611Z"
    fill="#002147"/>
  <path
    d="M407.388 21.7561C408.753 21.7587 410.118 21.7353 411.485 21.7742C413.863 26.4025 416.328 30.9841 418.724 35.6046C421.205 31.0463 423.471 26.3688 425.859 21.7561C427.147 21.7509 428.436 21.7535 429.729 21.7561C426.654 27.6146 423.578 33.4705 420.503 39.3264C420.291 39.6734 420.304 40.0826 420.306 40.4737C420.319 44.1152 420.309 47.7567 420.314 51.3982C419.133 51.3982 417.952 51.4137 416.776 51.3826C416.781 47.4847 416.838 43.5791 416.748 39.6838C413.699 33.6751 410.475 27.7492 407.388 21.7561Z"
    fill="#002147"/>
  <path
    d="M486.286 21.7583C491.538 21.7583 496.788 21.7583 502.04 21.7583C502.038 22.7425 502.038 23.7293 502.04 24.7134C497.969 24.716 493.898 24.7134 489.826 24.7134C489.826 27.9742 489.831 31.2324 489.824 34.4931C493.651 34.5139 497.482 34.4672 501.313 34.5139C501.287 35.4618 501.287 36.4097 501.31 37.355C497.482 37.412 493.652 37.3628 489.826 37.3809C489.829 42.0558 489.826 46.7281 489.826 51.403C488.645 51.403 487.464 51.403 486.286 51.403C486.286 41.5197 486.286 31.639 486.286 21.7583Z"
    fill="#002147"/>
  <path
    d="M21.9577 29.3313C22.2866 27.091 24.3301 25.3376 26.5315 25.0449C26.661 25.5966 26.7672 26.1534 26.8682 26.7103C25.4904 26.946 24.0633 27.8602 23.7836 29.3132C23.5945 30.2248 24.5295 31.0692 25.4204 30.8335C27.0806 30.4838 28.5439 29.3546 30.2973 29.4142C32.3978 29.4297 34.0994 31.6674 33.5529 33.698C32.9754 35.8839 30.8827 37.4094 28.7071 37.7513C28.575 37.1996 28.4378 36.6479 28.2953 36.0989C29.6188 35.7311 31.1391 35.1302 31.626 33.7161C32.0663 32.6879 31.1909 31.3722 30.0487 31.4965C28.3212 31.6415 26.8708 32.864 25.1174 32.908C23.2811 32.9857 21.6572 31.1469 21.9577 29.3313Z"
    fill="#002147"/>
  <path
    d="M111.148 26.2236C112.21 25.6435 113.655 26.5422 113.598 27.7569C113.653 29.0415 112.026 29.9247 110.98 29.1762C109.882 28.5365 109.985 26.7339 111.148 26.2236Z"
    fill="#002147"/>
  <path
    d="M120.547 33.6104C121.767 33.2814 123.106 33.2737 124.287 33.7632C126.841 34.7733 128.415 37.889 127.483 40.5204C126.592 43.056 124.103 44.8197 121.511 45.2626C119.521 45.62 117.382 44.7524 116.227 43.0896C115.204 41.7247 114.839 39.8625 115.398 38.236C116.165 35.9336 118.263 34.2656 120.547 33.6104ZM121.329 35.4311C119.42 36.0087 117.517 37.3917 117.053 39.43C116.579 41.4243 118.33 43.6076 120.41 43.4341C122.438 43.2657 124.448 42.1132 125.481 40.3365C126.377 38.8162 125.82 36.708 124.354 35.7574C123.469 35.1695 122.324 35.154 121.329 35.4311Z"
    fill="#002147"/>
  <path
    d="M55.8084 34.361C55.9508 34.3454 56.2383 34.3144 56.3834 34.2988C57.769 36.174 59.1417 38.0672 60.4133 40.0226C59.7658 40.178 59.1106 40.3024 58.4605 40.4474C59.1857 41.7424 60.0948 42.9234 60.9132 44.1614C62.1434 43.2679 63.3037 42.2733 64.4045 41.227C63.9046 40.9654 63.3866 40.7401 62.9023 40.4526C62.9567 40.0977 63.3089 39.9423 63.5601 39.7429C64.7774 38.9038 65.9895 38.0543 67.1939 37.1944C67.528 36.9509 67.8931 36.723 68.3257 36.7204C67.3907 39.8543 66.3055 42.9389 65.311 46.0547C62.2237 45.0031 58.9137 44.9203 55.6841 44.8918C52.7652 44.9824 49.7608 45.0627 46.9844 46.065C45.9406 42.97 44.9228 39.8672 43.9386 36.7515C44.7441 36.7023 45.2957 37.3835 45.9406 37.7512C47.1657 38.6655 48.5928 39.3389 49.6676 40.4422C49.147 40.6857 48.6083 40.9006 48.1369 41.2347C49.09 42.3173 50.2452 43.2031 51.3096 44.1743C52.1773 42.9545 53.1174 41.7631 53.7856 40.4163C53.1433 40.2972 52.501 40.191 51.8691 40.0252C53.0915 38.0776 54.5108 36.2594 55.8084 34.361Z"
    fill="#002147"/>
  <path
    d="M83.7152 38.1892C84.6347 36.8864 85.5645 35.5915 86.4761 34.2835C87.3438 34.2628 87.6027 35.2289 88.0845 35.7754C89.0169 37.2309 90.2212 38.5207 90.9749 40.0825C90.3455 40.1938 89.7187 40.2974 89.0946 40.4243C89.7628 41.7504 90.7211 42.8977 91.511 44.1513C92.7697 43.2966 93.8989 42.258 95.0204 41.235C94.5076 40.9553 93.9792 40.704 93.4509 40.458C93.974 39.7406 94.8028 39.3573 95.4944 38.8315C96.4915 38.1633 97.4239 37.3967 98.4599 36.788C98.5868 36.7854 98.8354 36.7751 98.9597 36.7699C97.9652 39.8701 96.9292 42.9573 95.9269 46.0523C92.9018 45.0215 89.6592 44.9309 86.4942 44.8894C83.5002 44.9593 80.4363 45.0655 77.5796 46.0549C76.5695 42.9573 75.5413 39.8675 74.5468 36.7673C75.4584 36.7155 76.0878 37.5313 76.8311 37.9406C77.9577 38.7978 79.3252 39.378 80.255 40.4632C79.7241 40.6911 79.1983 40.9346 78.6881 41.2091C79.7189 42.1751 80.729 43.1749 81.8245 44.0658L82.0162 44.0503C82.889 42.9366 83.609 41.7167 84.43 40.5668C83.8603 40.2249 83.1817 40.2068 82.5446 40.0928C82.7828 39.3728 83.2905 38.8004 83.7152 38.1892Z"
    fill="#002147"/>
  <path
    d="M14.7497 38.8909C15.3221 37.9922 16.2156 37.1919 17.3293 37.1479C19.3676 36.9122 21.5976 38.7977 21.0304 40.9474C21.9964 40.4682 23.0868 40.6884 24.115 40.7583C25.296 40.8671 26.4796 40.95 27.6607 41.0717C27.2851 41.657 26.9458 42.2631 26.6273 42.8821C24.9956 42.7992 23.3691 42.4884 21.7322 42.5531C20.6911 42.6179 20.2948 43.716 19.8519 44.4878C21.3696 45.2933 22.8692 46.1299 24.3792 46.9535C24.0684 47.5259 23.7524 48.0957 23.4235 48.6577C19.8105 46.6712 16.1845 44.7054 12.5457 42.7629C13.2631 41.4628 13.9494 40.1419 14.7497 38.8909ZM16.5627 39.3804C15.8194 40.0435 15.4361 40.9966 14.9129 41.8228C16.0732 42.4599 17.2387 43.0867 18.4067 43.7109C18.8626 42.8406 19.4557 41.9756 19.4971 40.9603C19.5256 39.5799 17.6919 38.505 16.5627 39.3804Z"
    fill="#002147"/>
  <path
    d="M131.979 45.9746C132.238 46.6687 132.471 47.3706 132.71 48.0699C131.658 49.4011 130.412 50.5744 129.431 51.96C131.08 52.3071 132.728 52.6722 134.367 53.0815C134.559 53.7445 134.776 54.4023 134.991 55.0602C132.725 54.4982 130.454 53.9543 128.182 53.4182C126.584 55.3477 124.947 57.2461 123.378 59.2015C123.093 58.5074 122.857 57.7952 122.663 57.0752C123.901 55.6947 125.095 54.278 126.286 52.8587C124.507 52.4055 122.692 52.0895 120.923 51.6026C120.526 51.0173 120.438 50.248 120.179 49.5902C122.648 50.1419 125.09 50.8204 127.568 51.3229C128.988 49.4995 130.544 47.785 131.979 45.9746Z"
    fill="#002147"/>
  <path
    d="M50.9781 47.2669C54.0291 46.8525 57.1267 46.8421 60.188 47.1296C61.54 47.298 62.9334 47.4404 64.1818 48.0206C64.5703 48.1371 64.9199 48.6888 64.4433 48.9452C63.6249 49.4891 62.6148 49.6263 61.6669 49.8102C58.5667 50.2764 55.4044 50.2997 52.2835 50.0226C50.916 49.875 49.52 49.7196 48.2431 49.1861C47.8961 49.0695 47.6967 48.7509 47.4688 48.4919C48.4167 47.6139 49.7635 47.4845 50.9781 47.2669Z"
    fill="#002147"/>
  <path
    d="M78.6104 48.0749C79.9391 47.4119 81.4568 47.285 82.9098 47.1062C86.2612 46.8291 89.6696 46.8369 92.9873 47.4533C93.8549 47.6786 94.9531 47.7874 95.4141 48.6783C94.3678 49.5356 92.9795 49.6936 91.6923 49.8982C88.2477 50.3204 84.7409 50.3178 81.304 49.8231C80.3017 49.6185 79.1906 49.5123 78.3566 48.8622C78.007 48.6214 78.3307 48.194 78.6104 48.0749Z"
    fill="#002147"/>
  <path
    d="M7.77246 56.7178C8.45103 54.4334 9.14255 52.1517 9.80299 49.8647C10.3521 50.002 10.9011 50.1471 11.4476 50.2973C10.9478 51.9548 10.4427 53.6098 9.94026 55.2648C11.0488 55.5471 12.1469 55.8605 13.2502 56.1661C13.6957 54.6614 14.0376 53.1255 14.5763 51.6544C15.0865 51.815 15.5967 51.9704 16.1095 52.1258C15.6874 53.6202 15.2626 55.112 14.8431 56.6064C16.0914 56.9302 17.3346 57.2876 18.5804 57.6269C19.0284 56.0004 19.5076 54.3842 19.9479 52.7551C20.5047 52.895 21.059 53.0452 21.6158 53.1928C21.0097 55.4694 20.3674 57.733 19.7458 60.0044C15.7599 58.8882 11.761 57.8237 7.77246 56.7178Z"
    fill="#002147"/>
  <path
    d="M48.1809 55.1455C52.8454 55.1455 57.5099 55.1481 62.1745 55.1455C64.047 55.1792 66.0594 55.1429 67.7196 56.1401C69.6232 57.2667 70.4338 59.5666 70.4442 61.6826C70.4727 70.2346 70.4416 78.7867 70.4597 87.3361C70.4649 87.8748 70.439 88.4135 70.3639 88.9471C69.8356 88.1597 70.0091 87.0849 69.359 86.3468C68.2479 84.8524 66.2044 84.7151 64.4977 84.6633C59.0613 84.6477 53.625 84.6503 48.1913 84.6607C48.1706 74.824 48.1887 64.9848 48.1809 55.1455ZM49.9783 59.8307C50.1078 59.9732 50.3642 60.2607 50.4912 60.4031C50.574 61.3536 50.5507 62.3145 50.5145 63.2702C50.5714 63.6691 50.1078 63.8012 49.9006 64.0498C51.0894 64.0109 52.4103 64.2622 53.4748 63.594C54.7076 62.8636 54.7646 60.7087 53.3893 60.0975C52.3119 59.6598 51.1102 59.8722 49.9783 59.8307ZM56.2642 59.9318C54.6869 60.5792 54.5315 63.1355 56.0855 63.9022C57.484 64.7025 59.455 63.5991 59.3488 61.9493C59.5068 60.3513 57.655 59.2247 56.2642 59.9318ZM59.7399 59.8359C59.9497 60.0846 60.4444 60.2115 60.3693 60.6233C60.3744 61.4909 60.3175 62.3585 60.219 63.221C60.2346 63.6147 59.8539 63.8037 59.6259 64.0602C60.2268 64.0653 60.8355 64.0835 61.4286 63.9566C61.2654 63.8633 60.9365 63.6768 60.7707 63.5836C60.6749 62.7626 60.7396 61.9338 60.7681 61.1102C61.2861 62.0244 61.5451 63.0552 62.0035 63.998C62.0812 63.9876 62.2366 63.9695 62.3143 63.9617C62.7961 62.9361 63.0758 61.8276 63.6067 60.8253C63.63 61.7473 63.6248 62.6719 63.6119 63.5965C63.4565 63.7079 63.1483 63.9255 62.9929 64.0343C63.7466 64.0602 64.4977 64.0576 65.2513 64.055C65.1167 63.9099 64.8447 63.6199 64.7074 63.4748C64.6142 62.4518 64.5857 61.4184 64.6168 60.3902C64.7592 60.2477 65.0441 59.9654 65.1892 59.823C64.6297 59.8256 64.0729 59.8282 63.5161 59.8256C63.1871 60.6803 62.8556 61.5349 62.5345 62.3922C62.133 61.5427 61.7549 60.6828 61.3819 59.823C60.8329 59.8256 60.2864 59.8282 59.7399 59.8359ZM65.5129 59.8359C66.3339 60.2451 66.0698 61.1931 66.1164 61.9312C66.0698 62.6771 66.3339 63.6147 65.5259 64.0524C66.2821 64.055 67.0384 64.055 67.7947 64.0602C67.66 63.9151 67.3906 63.6276 67.2534 63.4852C67.1757 62.457 67.186 61.4184 67.2482 60.3902C67.3855 60.2659 67.6626 60.0146 67.8024 59.8877C67.041 59.8048 66.2744 59.81 65.5129 59.8359ZM52.602 67.6317C52.8325 67.8907 53.3038 68.0202 53.3246 68.4165C53.4152 69.4007 53.3531 70.39 53.3013 71.3742C53.1562 71.4908 52.861 71.7213 52.7159 71.8378C53.3272 71.8766 53.941 71.8741 54.5496 71.7886C53.2443 71.4364 53.9125 69.8513 53.7519 68.8852C54.6092 69.8306 55.3447 70.8795 56.145 71.8741C56.2797 71.9 56.5465 71.9518 56.6786 71.9751C56.8366 70.6594 56.5776 69.31 56.8676 68.015L57.4452 67.8363C56.8676 67.5022 56.1865 67.6472 55.5545 67.6421C56.7148 68.0461 56.2512 69.3722 56.3471 70.302C55.5778 69.4421 54.8837 68.5201 54.1559 67.6291C53.638 67.6317 53.12 67.6291 52.602 67.6317ZM57.5799 67.9218C58.6728 68.9811 58.5822 70.851 59.5612 71.9466L59.8487 71.8792C60.6179 70.4962 60.7034 68.6651 62.0009 67.6317C61.413 67.6317 60.8225 67.6317 60.2346 67.6291C60.3744 67.7534 60.6516 68.0021 60.7914 68.1264C60.5842 68.8956 60.3019 69.6415 60.0274 70.39C59.6234 69.6415 59.354 68.8309 59.0665 68.0357C59.2193 67.9399 59.5301 67.7483 59.6829 67.6498C58.9267 67.6317 58.1704 67.6317 57.4167 67.6032C57.4556 67.6809 57.5384 67.8415 57.5799 67.9218ZM62.7624 67.7793C62.1382 68.1368 61.9517 69.1209 62.4982 69.626C62.9359 69.9963 63.4902 70.1932 63.9279 70.5635C64.2283 70.9598 63.9978 71.6254 63.4643 71.6332C62.7753 71.5736 62.5474 70.807 62.032 70.4574C62.0786 70.8873 62.1563 71.312 62.2366 71.7368C62.8763 71.9129 63.5912 72.089 64.2205 71.7731C64.9172 71.4856 65.2151 70.5532 64.824 69.9161C64.4096 69.31 63.5679 69.2219 63.1198 68.6625C62.8582 68.1834 63.4876 67.6654 63.9279 67.9373C64.2568 68.2067 64.5002 68.5641 64.7851 68.8775C64.7515 68.476 64.7152 68.0746 64.6764 67.6731C64.0444 67.5721 63.3399 67.4064 62.7624 67.7793ZM52.0736 75.4819C52.2316 75.5829 52.5476 75.7849 52.7056 75.8859C52.747 76.9866 52.7418 78.09 52.7133 79.1907C52.4984 79.3306 52.286 79.4704 52.0736 79.6103C52.8532 79.6776 53.6328 79.6698 54.4149 79.6673C54.2362 79.4575 53.9902 79.2969 53.8711 79.0457C53.7908 78.0019 53.8477 76.9556 53.8581 75.9118C54.0627 75.7538 54.2673 75.5958 54.4719 75.4327C53.6716 75.4249 52.8713 75.4223 52.0736 75.4819ZM54.6584 75.4612C54.8604 75.5932 55.0598 75.7253 55.2645 75.8574C55.3085 76.9607 55.3732 78.0744 55.2541 79.1726C55.1013 79.2813 54.7957 79.4963 54.6429 79.6025C55.7488 79.7191 56.8599 79.6388 57.9684 79.6828C58.0694 79.2554 58.1548 78.8281 58.2274 78.3956C57.7767 78.9913 57.2639 79.5222 56.4429 79.2969C56.4196 78.2557 56.3704 77.2094 56.4403 76.1682C56.4299 75.7953 56.8391 75.6476 57.0489 75.4119C56.2512 75.4353 55.4535 75.4275 54.6584 75.4612ZM58.3025 75.4534C58.5071 75.6036 58.7117 75.7564 58.9163 75.9092C58.9292 76.9607 58.9836 78.0149 58.9085 79.0664C58.7583 79.2114 58.4553 79.5067 58.3051 79.6543C59.4136 79.6672 60.5221 79.6673 61.6332 79.6621C61.7109 79.2425 61.7834 78.8203 61.8455 78.4008C61.4001 78.9887 60.895 79.5093 60.0844 79.3228C60.0507 78.2764 60.0041 77.2275 60.0714 76.1838C60.0533 75.8056 60.4625 75.6502 60.6749 75.4119C59.8823 75.4353 59.0924 75.4327 58.3025 75.4534ZM61.0815 75.4197C61.3431 75.6735 61.6824 75.8833 61.817 76.2459C62.2936 77.3725 62.695 78.5329 63.1353 79.6776C63.2571 79.6957 63.5057 79.7372 63.6274 79.7553C64.1195 78.5821 64.5184 77.3674 65.0571 76.2148C65.2099 75.8678 65.5518 75.6684 65.8185 75.4197C65.2047 75.4353 64.5909 75.4327 63.9771 75.4301C64.1377 75.5466 64.4536 75.7745 64.6142 75.8911C64.3423 76.6862 64.0755 77.4839 63.8061 78.279C63.4643 77.4917 63.1664 76.6862 62.8556 75.8859C63.0007 75.7719 63.2907 75.5414 63.4358 75.4275C62.6484 75.4327 61.8637 75.4404 61.0815 75.4197Z"
    fill="#002147"/>
  <path
    d="M74.6452 56.5622C76.1344 55.3061 78.1831 55.1947 80.0427 55.1533C84.9869 55.1378 89.9312 55.1507 94.8754 55.1481C94.8857 64.977 94.8573 74.8059 94.8883 84.6322C90.1099 84.684 85.3314 84.64 80.5503 84.6555C78.714 84.6814 76.7897 84.5209 75.0467 85.2227C73.9511 85.6553 73.1404 86.6938 72.985 87.8619C72.8478 88.1779 72.9825 88.7011 72.5862 88.8487C72.5214 88.5172 72.4904 88.1857 72.4929 87.849C72.5085 79.2166 72.4904 70.5843 72.5007 61.9519C72.4904 59.9836 73.055 57.8443 74.6452 56.5622ZM75.2823 59.8308C75.5025 60.0017 75.7071 60.1882 75.8962 60.3928C75.9324 61.3329 75.8547 62.2731 75.7563 63.2081C75.7744 63.5992 75.4015 63.796 75.1762 64.0576C75.7304 64.055 76.2821 64.055 76.8363 64.0602L76.8493 63.8737C76.712 63.7986 76.4375 63.6432 76.3002 63.5681C76.2147 62.7471 76.2743 61.9209 76.3131 61.1024C76.8156 62.0193 77.0798 63.0371 77.5304 63.9773C77.6081 63.9773 77.7661 63.9721 77.8438 63.9695C78.3229 62.9413 78.6156 61.8328 79.1414 60.8253C79.1621 61.7499 79.1621 62.6745 79.144 63.5992C78.9912 63.7079 78.6881 63.9281 78.5353 64.0369C79.289 64.0576 80.0427 64.0576 80.7964 64.055C80.6591 63.91 80.382 63.6199 80.2447 63.4748C80.1489 62.444 80.1282 61.4055 80.1463 60.3721C80.2991 60.2374 80.6047 59.9654 80.7575 59.8308C80.1877 59.8282 79.6205 59.8282 79.0507 59.8256C78.7296 60.657 78.4136 61.4909 78.0976 62.3249C77.6263 61.5376 77.2896 60.6829 76.9399 59.8385C76.3857 59.8256 75.834 59.8282 75.2823 59.8308ZM81.0864 59.8282C81.2159 59.9784 81.4775 60.2788 81.607 60.4316C81.6718 61.4417 81.6744 62.4648 81.6044 63.4774C81.4646 63.6199 81.1823 63.9074 81.0424 64.0524C81.8142 64.055 82.586 64.0524 83.3604 64.0576C83.218 63.9151 82.9331 63.6328 82.7906 63.4904C82.7129 62.4673 82.7181 61.434 82.7855 60.4109C82.9279 60.2633 83.2102 59.9732 83.3501 59.8256C82.5964 59.8256 81.8401 59.8256 81.0864 59.8282ZM83.4614 59.8437C83.7127 60.0172 83.9458 60.2141 84.1581 60.4342C84.2721 61.2786 84.2281 62.1358 84.2022 62.9853C84.2695 63.4619 83.995 63.7986 83.5728 63.9877C84.2047 64.0964 84.8522 64.0913 85.4764 63.941C85.2822 63.8711 84.8937 63.7313 84.6968 63.6587C84.601 62.8118 84.5907 61.9571 84.6295 61.105C85.2278 61.7577 85.7561 62.4725 86.2974 63.177C86.6445 63.6043 86.9475 64.1871 87.5847 64.1715C87.6131 62.9853 87.5406 61.7965 87.6339 60.6129C87.6002 60.2089 88.0508 60.0768 88.2736 59.8282C87.6468 59.8256 87.0226 59.8282 86.401 59.8411C86.6419 60.0069 86.8776 60.1804 87.1107 60.3617C87.2298 61.0714 87.1858 61.7991 87.2065 62.5166C86.4451 61.6334 85.7406 60.701 84.9869 59.8101C84.4767 59.823 83.9691 59.8308 83.4614 59.8437ZM87.9654 64.055C88.5533 64.0576 89.1412 64.0498 89.7291 64.0317C89.5737 63.9333 89.2629 63.7313 89.105 63.6302C89.1956 63.3479 89.2862 63.0656 89.3743 62.7833C89.7265 62.7756 90.0788 62.7704 90.431 62.7626C90.532 63.0605 90.6278 63.3583 90.7289 63.6587C90.5942 63.752 90.3222 63.9384 90.185 64.0317C90.9438 64.0628 91.7053 64.0576 92.4667 64.0498C92.2077 63.7908 91.8633 63.5914 91.7415 63.2288C91.2598 62.0866 90.9386 60.8849 90.4388 59.7505L90.1306 59.7764C89.2189 61.0947 89.2552 62.9905 87.9654 64.055ZM78.1935 67.4893C78.1805 67.971 78.1701 68.4527 78.1676 68.9345C78.4576 68.4139 78.8047 67.9244 79.4574 67.9011C79.4884 69.064 79.4884 70.2295 79.4496 71.3923C79.2786 71.4985 78.9368 71.7135 78.7658 71.8223C79.6231 71.8793 80.483 71.8793 81.3403 71.8171C81.159 71.7109 80.7938 71.5037 80.6099 71.4001C80.571 70.232 80.5684 69.064 80.6073 67.8985C81.247 67.9114 81.5837 68.432 81.9075 68.906C81.91 68.4502 81.8919 67.9943 81.8557 67.5385C80.641 67.6395 79.3978 67.7431 78.1935 67.4893ZM82.2519 67.6473C82.4591 67.8104 82.6689 67.9736 82.8813 68.1342C82.8606 69.1909 82.946 70.2502 82.8398 71.3043C82.7052 71.4416 82.4358 71.7135 82.3011 71.8508C83.0703 71.8637 83.8396 71.8689 84.6114 71.8301C84.4612 71.7187 84.1607 71.4908 84.0105 71.3768C83.995 70.3823 83.9535 69.3851 84.0105 68.3932C83.9665 68.0099 84.3964 67.8726 84.5958 67.6266C83.8137 67.6291 83.0315 67.624 82.2519 67.6473ZM86.1135 67.8337C84.974 68.4838 84.6839 70.1958 85.5179 71.2007C86.2741 72.1357 87.8203 72.2004 88.7009 71.4053C89.6229 70.5532 89.6463 68.8879 88.6957 68.0487C88.0016 67.4297 86.9087 67.396 86.1135 67.8337ZM77.1367 75.4249C77.4708 75.6943 77.9189 75.9507 77.7765 76.4609C77.6573 77.5383 77.9345 78.8074 77.1471 79.6802C77.7091 79.6673 78.2867 79.7191 78.8332 79.5507C77.6159 79.2788 78.2789 77.7403 78.2064 76.8753C78.7917 77.7688 78.986 78.8489 79.5143 79.7735C80.2214 78.7323 80.4752 77.471 80.9984 76.3392C80.8533 77.4321 81.506 78.8773 80.483 79.6673C81.2211 79.6673 81.9567 79.6621 82.6922 79.6517C82.5575 79.5352 82.2856 79.3073 82.1509 79.1933C81.9696 78.1107 82.0447 76.9996 82.0007 75.9041C82.2234 75.7461 82.4462 75.5881 82.6715 75.4327C82.081 75.4327 81.4931 75.4353 80.9051 75.4482C80.5918 76.2977 80.2628 77.1421 79.9494 77.989C79.5195 77.1498 79.1699 76.2744 78.7684 75.4223C78.2245 75.4327 77.6806 75.4327 77.1367 75.4249ZM82.8968 75.4301C83.0444 75.5544 83.3397 75.7979 83.4899 75.9222C83.5029 76.9711 83.5598 78.0226 83.477 79.0716C83.3112 79.214 82.9823 79.4989 82.8165 79.6414C83.9768 79.675 85.1397 79.6725 86.3026 79.6543C86.3725 79.2244 86.4373 78.7945 86.4917 78.3671C86.2172 78.652 85.9789 78.968 85.7043 79.2503C85.3547 79.2969 85.0025 79.3202 84.6528 79.3176C84.6243 78.7401 84.614 78.1599 84.614 77.5798C85.1786 77.5668 85.5645 77.9191 85.8546 78.3568C85.8701 77.787 85.8779 77.2172 85.8675 76.65C85.5463 77.0385 85.1501 77.313 84.6269 77.3311C84.614 76.8131 84.6114 76.2977 84.6062 75.7849C85.3262 75.6166 85.7924 76.0724 86.1524 76.6292C86.1472 76.2356 86.142 75.8445 86.1394 75.456C85.0568 75.4223 83.9768 75.4353 82.8968 75.4301ZM86.4684 79.6595C87.02 79.6647 87.5717 79.6647 88.1234 79.6569C87.9472 79.4989 87.7711 79.3461 87.5924 79.1959C87.6805 78.9214 87.7659 78.652 87.8566 78.3801C88.214 78.3827 88.5766 78.3852 88.9366 78.3878C89.149 78.8385 89.1775 79.2969 88.8278 79.688C89.5349 79.6673 90.2445 79.6595 90.9542 79.631C90.6563 79.3772 90.2912 79.1571 90.1798 78.7556C89.7084 77.5875 89.3484 76.3754 88.8511 75.2177C87.5924 76.3987 87.8307 78.5277 86.4684 79.6595Z"
    fill="#002147"/>
  <path
    d="M37.8496 57.0908C38.523 56.1144 40.178 56.0833 40.8022 57.1245C41.2192 57.9947 42.2836 57.974 43.0736 58.2719C43.071 58.0388 43.0684 57.5752 43.0658 57.3421C43.7444 57.3395 44.4255 57.3395 45.1067 57.3395C45.1145 67.733 45.1041 78.1291 45.1119 88.5252C52.6279 88.5174 60.144 88.5252 67.6601 88.5226C68.0045 89.4006 68.45 90.3718 69.4186 90.6982C70.7369 91.1462 72.2287 91.1462 73.5496 90.7085C74.5338 90.3951 75 89.4135 75.3445 88.5226C82.8838 88.5096 90.4258 88.5459 97.9652 88.5045C97.9393 78.1161 97.96 67.7278 97.9548 57.3395C98.6334 57.3395 99.312 57.3395 99.9905 57.3369C99.9983 68.4115 99.9931 79.4862 99.9931 90.5609C92.1947 90.5661 84.3964 90.5505 76.598 90.5661C75.3367 92.796 72.5111 93.3503 70.162 92.967C68.6158 92.7934 67.2042 91.8947 66.3987 90.5635C58.6263 90.5609 50.8564 90.5479 43.0839 90.5713C43.0658 89.8305 43.0684 89.0924 43.0684 88.3517C42.4442 88.6055 41.8226 88.8696 41.2166 89.1623C40.9265 90.0688 40.0848 90.8613 39.0721 90.6723C37.79 90.5376 37.0286 88.9137 37.7667 87.8492C38.3055 86.9324 39.5227 86.7977 40.4111 87.2561C41.302 86.8857 42.193 86.5076 43.0736 86.1113C43.0684 85.3007 43.0684 84.4926 43.0684 83.6871C42.4649 83.8684 41.8641 84.0523 41.2684 84.2517C40.898 85.0753 40.0614 85.7746 39.1058 85.5545C37.7693 85.3758 37.0959 83.5887 37.9869 82.5735C38.6111 81.7291 39.8387 81.7162 40.6597 82.2782C41.4652 82.0477 42.2629 81.8016 43.0658 81.5608C43.071 80.7242 43.0684 79.8877 43.071 79.0511C42.4572 79.1521 41.8433 79.2531 41.2321 79.3619C40.7763 80.056 40.0019 80.6621 39.1187 80.4445C37.7797 80.2503 37.1348 78.4528 38.0361 77.4479C38.7302 76.5414 40.0822 76.6295 40.8825 77.3391C41.6128 77.2252 42.3406 77.0983 43.0684 76.9714C43.0684 76.1193 43.0684 75.2646 43.071 74.4125C42.4287 74.4332 41.7889 74.4565 41.1492 74.4876C40.4681 75.4277 38.984 75.7204 38.163 74.7984C37.1503 73.8323 37.746 71.9261 39.1265 71.706C39.9009 71.4858 40.5406 72.0245 41.1415 72.4182C41.7838 72.4467 42.4261 72.3897 43.0684 72.369C43.0684 71.4444 43.0684 70.5224 43.0736 69.6003C42.3898 69.5615 41.7061 69.5304 41.0223 69.5123C40.5095 69.9966 39.8361 70.4265 39.0954 70.2297C37.8936 70.0277 37.2073 68.5074 37.8703 67.4792C38.4039 66.4794 39.906 66.2386 40.6986 67.0699C41.2994 67.7382 42.2759 67.4377 43.0684 67.5491C43.0684 66.697 43.0684 65.8475 43.071 65.0006C42.3199 64.8607 41.574 64.7183 40.8203 64.6043C40.2609 65.0057 39.5564 65.3373 38.8649 65.0705C37.7382 64.7493 37.2047 63.2627 37.8781 62.3044C38.4686 61.3099 40.0537 61.1389 40.7789 62.0713C41.2735 62.8587 42.2785 62.7266 43.071 62.9157C43.0684 62.0791 43.0684 61.2425 43.0658 60.4034C42.2577 60.1781 41.4704 59.8802 40.652 59.6989C40.0226 59.8362 39.3881 60.248 38.7302 59.9553C37.5751 59.6005 37.0882 58.0336 37.8496 57.0908Z"
    fill="#002147"/>
  <path
    d="M51.6541 60.1415C53.3557 59.9809 53.6302 62.3818 52.7496 63.3996C52.5165 63.7001 51.7758 63.9306 51.6904 63.4022C51.5764 62.3196 51.6567 61.2267 51.6541 60.1415Z"
    fill="#002147"/>
  <path
    d="M56.7822 60.1651C57.4374 59.7922 57.9606 60.608 58.0409 61.17C58.16 61.991 58.2973 63.0426 57.6731 63.6952C56.992 64.1329 56.3911 63.3093 56.2979 62.7033C56.1502 61.8693 56.0466 60.7582 56.7822 60.1651Z"
    fill="#002147"/>
  <path
    d="M89.4597 62.3663C89.6099 61.9649 89.7653 61.5686 89.9259 61.1724C90.0554 61.5842 90.1875 61.9986 90.3196 62.413C90.0321 62.3974 89.7446 62.3819 89.4597 62.3663Z"
    fill="#002147"/>
  <path
    d="M123.968 63.5136C128.086 63.1924 132.199 62.8117 136.322 62.519C136.457 64.793 136.685 67.0618 136.856 69.3332C136.291 69.3799 135.729 69.4239 135.167 69.4705C135.035 67.8466 134.898 66.2227 134.776 64.5962C133.647 64.6765 132.52 64.793 131.389 64.8371C131.446 66.3833 131.624 67.9217 131.733 69.4627C131.179 69.5042 130.627 69.5508 130.078 69.5896C129.964 68.059 129.832 66.5309 129.708 65.0028C127.846 65.1712 125.983 65.3136 124.119 65.4509C124.069 64.8034 124.02 64.1585 123.968 63.5136Z"
    fill="#002147"/>
  <path
    d="M6.54476 62.7422C10.6214 64.3713 14.6824 66.0418 18.7538 67.6864C18.7305 68.3676 18.702 69.0487 18.671 69.7325C14.4959 70.9912 10.3157 72.2344 6.13296 73.4698C6.13555 72.7912 6.13814 72.1127 6.13037 71.4367C9.48178 70.4706 12.8487 69.5616 16.2001 68.5981C13.0274 67.1866 9.72265 66.0781 6.49815 64.7805C6.51369 64.1019 6.52923 63.4208 6.54476 62.7422Z"
    fill="#002147"/>
  <path
    d="M86.8439 67.9528C87.235 67.73 87.6856 68.0046 87.8669 68.3672C88.2425 69.0949 88.2347 69.9626 88.1078 70.7551C88.056 71.1902 87.7607 71.6512 87.2686 71.6357C86.5435 71.4648 86.3285 70.6386 86.2637 69.9962C86.2197 69.2944 86.2197 68.4138 86.8439 67.9528Z"
    fill="#002147"/>
  <path
    d="M127.535 74.7773C130.552 73.9926 134.32 75.1088 135.745 78.051C136.822 80.3457 136.118 83.3838 134.012 84.8471C131.22 86.717 127.107 86.1239 124.795 83.7412C123.349 82.2002 123.072 79.7941 123.873 77.8801C124.512 76.3417 125.929 75.1814 127.535 74.7773ZM128.348 76.6317C126.657 76.8519 125.157 78.2971 125.183 80.0557C125.051 81.7029 126.452 82.9849 127.897 83.4796C129.514 84.0727 131.459 84.1996 132.969 83.2594C134.585 82.2804 135.048 79.8226 133.818 78.3618C132.518 76.8053 130.278 76.3546 128.348 76.6317Z"
    fill="#002147"/>
  <path
    d="M87.942 78.0174C88.0845 77.5901 88.2347 77.1679 88.3849 76.7432C88.5196 77.1576 88.6568 77.572 88.7993 77.9863C88.5843 77.9941 88.157 78.0097 87.942 78.0174Z"
    fill="#002147"/>
  <path
    d="M202.949 77.6783C212.048 76.7303 221.597 79.3747 228.543 85.4223C232.529 88.8436 235.619 93.3009 237.429 98.2348C240.838 107.561 239.82 118.442 234.609 126.913C230.954 132.912 225.205 137.558 218.626 139.998C208.217 143.872 195.873 142.5 186.798 135.999C180.603 131.622 176.128 124.901 174.483 117.496C172.32 107.885 174.473 97.2532 180.709 89.5455C186.091 82.7624 194.358 78.4967 202.949 77.6783ZM203.713 80.7992C200.274 81.2136 196.943 82.5448 194.213 84.6841C190.787 87.3414 188.339 91.0865 186.752 95.0828C184.576 100.584 183.861 106.582 184.169 112.467C184.428 117.413 185.42 122.386 187.604 126.862C189.443 130.651 192.242 134.049 195.892 136.211C199.875 138.617 204.7 139.4 209.287 138.853C212.861 138.436 216.332 137.035 219.126 134.756C222.503 132.039 224.897 128.265 226.44 124.251C228.629 118.537 229.268 112.316 228.838 106.243C228.478 101.265 227.349 96.2716 224.985 91.8479C223.003 88.1417 220.04 84.881 216.285 82.9281C212.46 80.895 207.987 80.2864 203.713 80.7992Z"
    fill="#002147"/>
  <path
    d="M403.428 77.704C412.72 76.6706 422.513 79.403 429.537 85.6707C433.303 88.9833 436.237 93.2231 438.019 97.9109C441.731 107.714 440.493 119.304 434.616 128.011C430.381 134.341 423.761 138.975 416.419 140.935C406.258 143.696 394.759 141.736 386.422 135.191C379.913 130.171 375.593 122.469 374.638 114.311C373.454 104.943 376.262 95.0075 382.721 88.0302C388.023 82.1665 395.585 78.5121 403.428 77.704ZM404.443 80.7964C401.547 81.1487 398.722 82.1277 396.277 83.7257C392.708 86.0178 390.032 89.4987 388.24 93.3059C385.927 98.2269 384.922 103.686 384.827 109.1C384.754 114.722 385.523 120.438 387.756 125.634C389.468 129.628 392.159 133.29 395.808 135.709C399.279 138.045 403.505 139.107 407.667 139.014C411.669 138.967 415.694 137.783 418.954 135.426C422.643 132.798 425.277 128.913 426.96 124.751C429.281 118.985 429.98 112.661 429.573 106.486C429.234 101.42 428.102 96.331 425.688 91.8322C423.733 88.1778 420.827 84.9637 417.144 83.0031C413.29 80.9182 408.763 80.2784 404.443 80.7964Z"
    fill="#002147"/>
  <path
    d="M6.86328 79.5326C10.9476 78.9551 15.0242 78.3205 19.106 77.7378C19.1993 78.3853 19.2925 79.0328 19.3857 79.6803C15.3091 80.2941 11.2325 80.9079 7.15077 81.4907C7.05494 80.838 6.95911 80.1827 6.86328 79.5326Z"
    fill="#002147"/>
  <path
    d="M242.366 78.5251C251.527 78.5277 260.687 78.5225 269.85 78.5277C269.845 79.2865 269.845 80.0454 269.843 80.8042C267.872 81.2109 265.901 81.6227 263.927 82.0112C263.43 82.1381 262.839 82.2158 262.529 82.6716C262.407 83.2621 262.832 83.7568 263.124 84.2204C267.869 90.988 272.585 97.7737 277.335 104.539C277.514 105.015 277.947 104.756 278.107 104.425C282.979 97.6157 287.864 90.817 292.725 84.0028C293.137 83.5444 293.357 82.7027 292.585 82.4825C290.508 81.7625 288.327 81.3611 286.201 80.8017C286.196 80.0428 286.196 79.2839 286.196 78.5251C293.559 78.5225 300.922 78.5251 308.288 78.5251C308.285 79.2865 308.285 80.048 308.28 80.812C305.809 81.4958 303.256 81.9024 300.847 82.7933C298.744 83.5729 297.428 85.4584 296.113 87.1548C290.661 94.0208 285.206 100.884 279.762 107.755C286.253 116.292 292.728 124.839 299.213 133.38C300.259 134.901 301.536 136.364 303.321 137.012C305.447 137.789 307.682 138.211 309.852 138.845C309.852 139.596 309.852 140.35 309.865 141.104C300.702 141.135 291.536 141.106 282.376 141.117C282.373 140.363 282.373 139.609 282.368 138.858C284.675 138.317 287.045 138.016 289.319 137.346C290.13 137.081 289.705 136.165 289.337 135.698C284.836 129.335 280.314 122.987 275.802 116.631C275.036 115.585 274.341 114.484 273.502 113.495C268.651 119.983 263.987 126.618 259.208 133.163C258.499 134.217 257.628 135.17 257.048 136.302C256.802 136.975 257.665 137.227 258.139 137.39C260.063 137.913 262.013 138.33 263.94 138.848C263.943 139.607 263.943 140.368 263.912 141.127C256.559 141.106 249.209 141.114 241.858 141.122C241.848 140.363 241.848 139.604 241.853 138.845C243.933 138.335 246.015 137.835 248.082 137.273C249.734 136.822 251.273 135.913 252.363 134.577C258.727 126.641 265.036 118.657 271.412 110.731C265.574 102.902 259.662 95.1293 253.793 87.3206C252.49 85.6345 251.335 83.6454 249.271 82.7933C247.048 81.8946 244.671 81.4569 242.371 80.8017C242.363 80.0428 242.363 79.2839 242.366 78.5251Z"
    fill="#002147"/>
  <path
    d="M318.371 78.5306C334.141 78.5176 349.911 78.528 365.684 78.5254C365.682 83.7468 365.682 88.9655 365.684 94.1843C364.809 94.1869 363.939 94.1869 363.068 94.1843C362.076 91.0116 361.077 87.8415 360.082 84.6714C359.771 83.7053 359.365 82.6849 358.51 82.0737C357.743 81.5272 356.762 81.4857 355.855 81.4909C349.445 81.5116 343.032 81.4702 336.622 81.5116C336.648 90.4859 336.625 99.4575 336.633 108.429C341.144 108.432 345.656 108.429 350.17 108.432C351.476 108.406 352.916 108.592 354.079 107.852C355.089 107.209 355.552 106.039 355.873 104.938C356.36 103.265 356.842 101.589 357.337 99.9159C358.197 99.9211 359.059 99.9211 359.924 99.903C359.976 106.86 359.929 113.816 359.947 120.773C359.077 120.775 358.21 120.775 357.345 120.783C356.801 118.703 356.298 116.613 355.767 114.531C355.537 113.622 355.141 112.695 354.361 112.125C353.54 111.49 352.462 111.389 351.463 111.384C346.519 111.382 341.577 111.384 336.633 111.384C336.638 119.069 336.622 126.753 336.64 134.437C336.552 135.624 337.288 136.815 338.482 137.084C341.098 137.722 343.745 138.237 346.368 138.846C346.368 139.592 346.371 140.34 346.397 141.091C337.057 141.151 327.715 141.099 318.376 141.117C318.373 140.358 318.373 139.602 318.373 138.848C320.342 138.382 322.305 137.9 324.271 137.426C325.18 137.178 326.187 136.96 326.853 136.235C327.402 135.619 327.415 134.738 327.425 133.956C327.415 117.73 327.433 101.501 327.418 85.2723C327.521 84.0835 326.773 82.9517 325.62 82.6305C323.237 81.9001 320.785 81.4158 318.373 80.7916C318.373 80.038 318.373 79.2843 318.371 78.5306Z"
    fill="#002147"/>
  <path
    d="M447.25 78.525C455.38 78.525 463.512 78.525 471.642 78.525C476.586 78.5276 481.642 78.4499 486.428 79.877C491.163 81.2496 495.149 84.8911 497.003 89.4495C498.73 93.539 498.609 98.403 496.472 102.319C494.299 106.414 490.298 109.257 486.006 110.801C484.931 111.228 483.773 111.405 482.725 111.891C484.949 113.08 486.462 115.147 488.018 117.064C492.587 122.881 496.99 128.825 501.463 134.717C502.489 136.077 503.988 137.074 505.664 137.421C507.821 137.879 509.971 138.371 512.126 138.843C512.123 139.594 512.126 140.347 512.141 141.101C507.008 141.124 501.875 141.13 496.744 141.098C495.063 141.093 493.898 139.718 492.991 138.477C488.13 131.687 483.276 124.893 478.423 118.097C476.962 116.136 475.346 113.93 472.81 113.381C470.412 112.904 467.949 113.22 465.525 113.119C465.506 120.241 465.509 127.364 465.522 134.486C465.444 135.685 466.226 136.853 467.428 137.102C470.026 137.726 472.65 138.247 475.255 138.845C475.253 139.604 475.252 140.363 475.247 141.122C465.921 141.114 456.594 141.109 447.268 141.124C447.245 140.363 447.245 139.604 447.252 138.845C449.669 138.224 452.132 137.763 454.515 137.011C455.623 136.696 456.361 135.618 456.286 134.471C456.304 118.069 456.297 101.661 456.291 85.2589C456.377 84.0857 455.662 82.9512 454.51 82.6327C452.124 81.9049 449.669 81.4154 447.252 80.7964C447.247 80.0375 447.247 79.2813 447.25 78.525ZM465.514 81.4957C465.527 91.0604 465.486 100.625 465.535 110.19C468.257 110.146 470.979 110.2 473.701 110.161C476.402 110.117 479.171 109.695 481.58 108.408C483.447 107.421 485.014 105.872 485.988 103.992C487.353 101.431 487.765 98.4781 487.778 95.6058C487.793 92.4927 486.944 89.3148 485.053 86.8103C482.875 83.8862 479.396 82.0681 475.794 81.6977C472.378 81.3403 468.938 81.5527 465.514 81.4957Z"
    fill="#002147"/>
  <path
    d="M517.168 78.525C525.122 78.525 533.078 78.525 541.035 78.525C546.93 78.5328 552.899 78.3696 558.696 79.649C563.464 80.628 568.017 82.7414 571.721 85.9193C578.032 91.2443 581.552 99.3612 582.117 107.509C582.648 115.409 581.011 123.772 576.08 130.133C573.197 133.859 569.247 136.701 564.891 138.459C560.268 140.259 555.274 140.816 550.351 141.044C539.297 141.21 528.238 141.06 517.184 141.127C517.161 140.363 517.158 139.604 517.171 138.843C519.517 138.26 521.89 137.752 524.218 137.089C525.407 136.804 526.303 135.716 526.205 134.471C526.228 118.234 526.205 101.998 526.218 85.7588C526.213 84.9351 526.205 83.995 525.601 83.3605C524.967 82.713 524.052 82.4902 523.211 82.2649C521.193 81.7858 519.186 81.2755 517.168 80.8016C517.163 80.0427 517.163 79.2839 517.168 78.525ZM535.435 81.4931C535.435 99.413 535.438 117.333 535.435 135.253C535.461 136.017 535.412 136.882 535.907 137.524C536.469 138.167 537.404 138.13 538.191 138.164C541.299 138.151 544.407 138.187 547.518 138.138C551.485 138.024 555.541 137.643 559.24 136.092C563.06 134.51 566.077 131.376 568.043 127.789C570.384 123.492 571.363 118.589 571.677 113.743C571.964 108.758 571.674 103.697 570.408 98.8536C569.309 94.7019 567.383 90.6849 564.37 87.5821C561.796 84.8963 558.413 83.003 554.751 82.3141C548.39 81.0606 541.871 81.6304 535.435 81.4931Z"
    fill="#002147"/>
  <path
    d="M8.61414 88.8308C12.5172 87.4944 16.4021 86.1062 20.2974 84.749C20.5202 85.3344 20.7351 85.9249 20.9475 86.518C18.6839 89.2504 16.4695 92.0242 14.1851 94.7385C17.0211 93.5834 19.8753 92.449 22.7372 91.3482C22.9288 91.9232 23.1335 92.4904 23.3406 93.0602C19.5127 94.5702 15.6459 95.9817 11.8257 97.5149C11.5667 96.9244 11.3414 96.321 11.1419 95.7097C13.39 93.011 15.607 90.2838 17.8448 87.5747C14.9673 88.5459 12.1132 89.5871 9.23832 90.5661C9.02853 89.9885 8.81874 89.4084 8.61414 88.8308Z"
    fill="#002147"/>
  <path
    d="M121.467 88.7476C125.222 90.4181 128.964 92.1223 132.712 93.8135C131.93 95.4711 131.399 97.2815 130.27 98.75C128.814 100.542 125.603 99.9025 124.696 97.8642C124.489 97.4032 124.479 96.893 124.432 96.4009C122.326 97.0406 120.081 96.6392 117.913 96.7583C118.185 96.1341 118.46 95.5125 118.713 94.8832C120.33 94.7589 121.959 94.9531 123.57 94.7589C124.647 94.6371 124.984 93.4613 125.351 92.6196C123.782 91.941 122.238 91.2132 120.677 90.5243C120.941 89.9338 121.202 89.3407 121.467 88.7476ZM126.007 96.1341C126.09 97.5094 127.957 98.3822 129.032 97.5016C129.731 96.8023 130.008 95.8156 130.448 94.9531C129.275 94.3548 128.055 93.8601 126.861 93.3111C126.496 94.2176 125.952 95.1214 126.007 96.1341Z"
    fill="#002147"/>
  <path
    d="M69.1233 98.9833C69.833 98.0405 70.4313 97.0097 71.2057 96.1188C71.8661 95.9142 72.0992 96.6238 72.4307 97.0279C73.4719 98.5793 74.6399 100.045 75.6293 101.628C75.3315 102.234 74.3292 101.959 73.7671 102.275C74.6089 103.508 75.3625 104.808 76.3364 105.945C77.4656 104.979 78.6259 104.049 79.724 103.05C79.2294 102.721 78.6855 102.475 78.1493 102.226C79.1957 101.104 80.6176 100.421 81.8141 99.4754C82.3917 99.1491 82.8786 98.4705 83.596 98.5275C82.788 101.664 81.581 104.699 80.6642 107.81C77.7013 106.867 74.5648 106.701 71.4802 106.668C68.3826 106.701 65.2384 106.862 62.2677 107.81C61.3509 104.907 60.3744 102.019 59.4343 99.1232C59.24 98.8434 59.3929 98.2374 59.8047 98.5689C61.5632 99.724 63.3348 100.871 65.0208 102.133C64.4847 102.443 63.9382 102.734 63.4073 103.052C64.464 104.031 65.5388 104.989 66.6085 105.953C67.546 104.79 68.336 103.518 69.1518 102.275C68.5276 102.073 67.8776 101.962 67.2327 101.861C67.6989 100.801 68.4914 99.9416 69.1233 98.9833Z"
    fill="#002147"/>
  <path
    d="M21.9603 99.706C23.0739 98.9627 24.4647 98.3748 25.8012 98.8746C27.9146 99.6516 29.3649 101.952 29.2096 104.192C29.1189 105.51 28.0518 106.45 27.0599 107.183C24.8973 108.742 22.7295 110.291 20.5461 111.819C20.1784 111.273 19.8054 110.731 19.4299 110.193C21.463 108.761 23.4806 107.308 25.5111 105.87C26.2207 105.329 27.1169 104.813 27.3344 103.878C27.5675 102.306 26.2544 100.537 24.5917 100.615C23.9571 100.685 23.421 101.066 22.8952 101.395C20.7248 102.871 18.5519 104.345 16.3789 105.813C16.0085 105.282 15.6382 104.749 15.2704 104.218C17.5029 102.721 19.7122 101.182 21.9603 99.706Z"
    fill="#002147"/>
  <path
    d="M113.122 103.627C114 102.384 114.976 101.216 115.927 100.03C119.141 102.607 122.368 105.171 125.585 107.748C124.248 109.338 123.103 111.133 121.443 112.412C119.843 113.674 117.527 113.661 115.756 112.77C113.849 111.806 112.249 109.999 111.961 107.831C111.728 106.334 112.275 104.839 113.122 103.627ZM114.007 105.482C113.388 106.769 113.779 108.333 114.686 109.382C115.818 110.726 117.558 111.853 119.389 111.444C121.075 111.068 121.997 109.468 123.067 108.266C120.728 106.38 118.397 104.482 116.02 102.651C115.222 103.49 114.515 104.438 114.007 105.482Z"
    fill="#002147"/>
  <path
    d="M67.6315 108.885C70.9078 108.61 74.2333 108.623 77.4786 109.19C78.2944 109.374 79.1879 109.501 79.8561 110.043C80.2524 110.348 79.8043 110.773 79.4935 110.9C78.126 111.521 76.6031 111.659 75.1269 111.819C71.8868 112.081 68.6002 112.058 65.3912 111.493C64.565 111.299 63.643 111.169 62.9929 110.576C62.7391 110.149 63.2441 109.872 63.5653 109.727C64.8525 109.193 66.2563 109.038 67.6315 108.885Z"
    fill="#002147"/>
  <path
    d="M63.0629 130.506C64.0885 129.874 65.5544 130.677 65.5907 131.873C65.728 133.127 64.2387 134.126 63.1354 133.507C61.9337 132.979 61.8897 131.091 63.0629 130.506Z"
    fill="#002147"/>
  <path
    d="M80.382 133.305C81.5138 132.663 83.0393 133.72 82.845 135.002C82.7621 136.255 81.1279 136.978 80.1489 136.185C79.1336 135.509 79.276 133.808 80.382 133.305Z"
    fill="#002147"/>
</svg>
