<svg width="337" height="210" viewBox="0 0 337 210" fill="none" xmlns="http://www.w3.org/2000/svg">
  <g clip-path="url(#clip0_472_679)">
    <path d="M0 12C0 5.37258 5.37258 0 12 0H325C331.627 0 337 5.37258 337 12V198C337 204.627 331.627 210 325 210H12C5.37258 210 0 204.627 0 198V12Z" fill="white"/>
    <g clip-path="url(#clip1_472_679)">
      <path d="M76.7052 74.9761C80.9676 73.2552 85.6858 72.7043 90.2333 73.3569C96.5626 74.24 102.499 77.5657 106.595 82.4674C108.765 85.0417 110.434 88.0372 111.471 91.241C112.757 95.1859 113.063 99.4378 112.403 103.532C111.817 107.197 110.432 110.733 108.364 113.815C106.783 116.18 104.808 118.279 102.557 120.017C102.363 120.168 102.192 120.344 102.021 120.52C99.3139 123.272 95.7508 125.14 91.9672 125.877C91.4826 125.975 90.9942 126.053 90.5058 126.124C90.666 126.808 90.8983 127.472 91.1641 128.122C90.9875 128.296 90.8109 128.473 90.6344 128.65C90.1575 128.383 89.4886 128.532 89.2401 129.037C88.9187 129.594 89.3102 130.374 89.9444 130.456C90.4578 130.553 90.905 130.212 91.2264 129.852C91.4318 130.694 91.3656 131.61 90.9434 132.375C90.1133 133.929 88.5838 134.996 86.9726 135.624C86.7414 135.699 86.4967 135.859 86.252 135.743C84.5564 135.152 82.9357 134.095 82.0145 132.517C81.5347 131.723 81.4301 130.752 81.6556 129.859C81.9771 130.259 82.4943 130.582 83.023 130.436C83.5815 130.301 83.9125 129.623 83.665 129.102C83.4558 128.586 82.7908 128.365 82.3062 128.628C82.1153 128.455 81.9339 128.272 81.7525 128.088C82.1652 127.379 82.5509 126.65 82.8273 125.876C81.8264 125.68 80.8496 125.382 79.8708 125.108C78.585 125.574 77.1533 125.655 75.8425 125.242C73.8351 124.646 72.2182 122.957 71.677 120.938C67.6391 118.193 64.3958 114.297 62.4373 109.824C60.7081 105.907 59.9741 101.561 60.3022 97.2926C60.6419 92.7192 62.2291 88.2484 64.8381 84.4783C67.7514 80.2407 71.9313 76.8881 76.7052 74.9761ZM83.3042 74.025C78.6359 74.5989 74.147 76.5195 70.4948 79.4805C66.3783 82.7909 63.3259 87.4066 61.923 92.5022C60.6774 96.9836 60.6976 101.807 61.9786 106.277C63.513 111.705 66.9272 116.57 71.4918 119.88C71.3776 118.613 71.6847 117.326 72.3247 116.231C72.0148 115.937 71.7173 115.631 71.4352 115.31C71.5034 115.26 71.5715 115.21 71.6405 115.161C71.9323 115.416 72.2489 115.64 72.5685 115.861C73.2219 114.932 74.124 114.185 75.1612 113.724C73.1049 112.112 71.3949 110.058 70.1955 107.735C68.6074 104.726 67.8973 101.26 68.1717 97.8685C68.4404 94.276 69.8203 90.7794 72.0618 87.9604C74.4272 84.961 77.7454 82.7237 81.4205 81.6794C84.4566 80.8108 87.7163 80.7388 90.786 81.4779C93.8988 82.2227 96.8035 83.8045 99.1227 86.011C101.092 87.875 102.645 90.1785 103.623 92.7096C104.662 95.3826 105.048 98.3033 104.757 101.155C104.42 104.56 103.087 107.853 100.977 110.546C98.7237 113.437 95.5925 115.637 92.0977 116.749C91.7148 116.853 91.3771 117.087 91.1468 117.409C90.5538 118.23 90.3225 119.254 90.2266 120.246C94.0639 121.112 98.1612 120.948 101.863 119.587C105.866 116.603 108.943 112.39 110.57 107.668C111.928 103.74 112.299 99.4762 111.661 95.3701C111.102 91.7469 109.736 88.2532 107.7 85.2058C104.846 80.9135 100.667 77.5139 95.8717 75.6173C91.9068 74.0346 87.5378 73.4942 83.3042 74.025ZM83.4951 81.9645C80.0704 82.5423 76.8395 84.1855 74.335 86.5889C71.6876 89.1074 69.8519 92.4696 69.1917 96.066C68.6237 99.0837 68.8655 102.25 69.898 105.143C71.0236 108.346 73.101 111.201 75.7926 113.27C75.8915 113.336 75.9951 113.457 76.1285 113.396C77.16 113.135 78.2568 113.136 79.2826 113.425C80.936 113.873 82.383 115.039 83.1574 116.569C86.7088 117.262 90.4732 116.819 93.7626 115.31C96.8793 113.895 99.5595 111.544 101.38 108.645C103.532 105.254 104.447 101.108 103.941 97.1247C103.589 94.2462 102.501 91.4637 100.814 89.1064C98.9597 86.5015 96.3889 84.4111 93.4517 83.147C90.3427 81.7936 86.8345 81.3838 83.4951 81.9645ZM73.2075 116.279C73.5338 116.474 73.862 116.667 74.194 116.854C75.0106 115.738 76.3703 115.033 77.7598 115.071C78.4305 115.069 79.083 115.259 79.6914 115.532C80.4898 115.863 81.3102 116.14 82.1479 116.35C81.1663 114.873 79.4294 113.926 77.6514 113.939C75.902 113.921 74.1921 114.838 73.2075 116.279ZM74.8772 117.225C75.856 117.715 76.8472 118.18 77.8567 118.604C78.1484 118.734 78.4977 118.846 78.6416 119.161C78.8892 119.623 78.609 120.262 78.0937 120.378C77.7137 120.495 77.3721 120.242 77.065 120.057C76.1381 119.455 75.2601 118.78 74.4147 118.068C74.0184 118.984 74.0731 120.079 74.5173 120.968C74.9338 121.804 75.6957 122.406 76.5066 122.835C78.8422 124.112 81.4186 124.921 84.0392 125.352C86.109 125.699 88.2249 125.669 90.3024 125.41C92.4854 125.133 94.6348 124.526 96.6029 123.533C98.0797 122.797 99.4402 121.841 100.671 120.744C97.3447 121.661 93.8048 121.748 90.4309 121.039C86.8959 120.319 83.5758 118.789 80.5186 116.903C79.8142 116.514 79.1531 115.986 78.3355 115.863C77.0449 115.616 75.6564 116.169 74.8772 117.225ZM72.8928 116.773C72.3497 117.804 72.1252 119.005 72.3084 120.159C72.555 121.923 73.7439 123.513 75.357 124.261C76.3933 124.761 77.5803 124.878 78.7078 124.686C77.5237 124.178 76.3233 123.675 75.2572 122.94C74.5442 122.427 73.9503 121.727 73.6432 120.897C73.2335 119.822 73.3035 118.591 73.7833 117.55C73.4877 117.289 73.1951 117.025 72.8928 116.773ZM82.2611 117.096C82.9242 117.462 83.6017 117.799 84.281 118.132C84.4346 117.92 84.6083 117.724 84.8021 117.549C83.9452 117.461 83.1036 117.271 82.2611 117.096ZM86.5792 117.625C85.9478 117.62 85.3173 117.92 84.9566 118.445C86.4074 119.112 87.9159 119.655 89.4608 120.062C89.5615 119.059 89.8302 118.052 90.3935 117.205C89.1403 117.473 87.8602 117.616 86.5792 117.625ZM82.811 127.743C83.2552 127.794 83.7072 127.94 84.0248 128.269C84.7138 128.927 84.6937 130.162 83.9788 130.793C83.5412 131.192 82.9098 131.287 82.3427 131.186C82.525 132.05 83.0633 132.79 83.7024 133.379C84.4739 134.089 85.4009 134.631 86.395 134.963C87.0168 134.842 87.5906 134.502 88.1375 134.183C89.2267 133.489 90.264 132.497 90.5327 131.184C89.9204 131.307 89.2372 131.152 88.8054 130.683C88.1471 130.005 88.197 128.773 88.9311 128.169C89.2794 127.864 89.7506 127.75 90.2045 127.749C90.026 127.245 89.8485 126.74 89.7314 126.217C87.6894 126.424 85.6206 126.389 83.5968 126.027C83.3848 126.619 83.1199 127.194 82.811 127.743Z" fill="#002147"/>
      <path d="M81.4656 75.5732C81.7237 75.4897 81.9857 75.4177 82.2486 75.3447C82.05 76.3631 81.8216 77.3766 81.6393 78.3969C81.7707 78.9891 81.9723 79.5631 82.1296 80.1495C81.9013 80.2167 81.6719 80.2849 81.4455 80.3578C81.2689 79.8405 81.1432 79.3068 80.9848 78.7828C80.9436 78.5994 80.7949 78.4747 80.674 78.3432C80.1184 77.7778 79.581 77.1952 79.0235 76.6318C78.9439 76.5435 78.8469 76.461 78.8095 76.3439C79.0408 76.2681 79.2759 76.2066 79.5081 76.1337C80.0406 76.6693 80.555 77.2231 81.0818 77.7644C81.2065 77.034 81.3514 76.3065 81.4656 75.5732Z" fill="#002147"/>
      <path d="M92.3885 75.9659C93.2684 75.7836 94.2491 76.2433 94.6176 77.0735C95.083 78.1293 94.7298 79.4615 93.8624 80.2035C93.2982 80.694 92.4528 80.789 91.7734 80.4953C91.048 80.2025 90.5701 79.4529 90.548 78.6793C90.477 77.5199 91.1746 76.1992 92.3885 75.9659ZM92.4758 76.6215C91.806 76.8326 91.4318 77.5275 91.3166 78.1812C91.2053 78.7676 91.3502 79.4711 91.8818 79.8109C92.3875 80.1622 93.1254 80.0326 93.5083 79.5585C93.9881 78.9768 94.2356 78.1428 93.9919 77.4104C93.7962 76.8019 93.0871 76.4266 92.4758 76.6215Z" fill="#002147"/>
      <path d="M86.2395 76.817C86.6751 76.6375 87.1876 77.0771 87.0686 77.5359C86.9966 77.9918 86.3738 78.2048 86.0399 77.8833C85.6791 77.5963 85.7981 76.9542 86.2395 76.817Z" fill="#002147"/>
      <path d="M74.0789 78.497C75.0691 77.9835 76.0585 77.469 77.0478 76.9536C77.1428 77.1408 77.2378 77.3279 77.3318 77.5151C76.9461 77.7118 76.5642 77.9134 76.1813 78.115C76.7925 79.2782 77.3884 80.4502 78.0083 81.6087C77.7943 81.7306 77.5775 81.8467 77.3596 81.96C76.7474 80.7909 76.1381 79.62 75.5288 78.449C75.143 78.6525 74.7573 78.856 74.3686 79.0537C74.2717 78.8684 74.1748 78.6822 74.0789 78.497Z" fill="#002147"/>
      <path d="M95.4639 81.8275C96.2345 80.5068 97.0146 79.1929 97.7907 77.876C98.521 78.304 99.2505 78.736 99.9807 79.165C99.874 79.3455 99.7666 79.5259 99.6603 79.7063C99.1408 79.3954 98.6181 79.0921 98.096 78.7849C97.8819 79.1458 97.6737 79.5115 97.4514 79.8686C97.9378 80.1718 98.4424 80.4454 98.927 80.7535C98.8203 80.9243 98.7177 81.0971 98.6162 81.2699C98.1238 80.9838 97.6336 80.6949 97.1442 80.4041C96.7919 81.0001 96.4408 81.5972 96.0896 82.1932C95.8823 82.0684 95.674 81.9456 95.4639 81.8275Z" fill="#002147"/>
      <path d="M71.5657 80.2717C71.7643 80.1297 71.9591 79.9829 72.1568 79.8398C73.0674 81.0636 74.0068 82.2643 74.9271 83.4814C74.7332 83.6291 74.5404 83.777 74.3485 83.9267C73.4186 82.7096 72.4792 81.5003 71.5657 80.2717Z" fill="#002147"/>
      <path d="M189.499 80.955C190.898 80.6681 192.457 80.9915 193.523 81.9753C193.32 82.2498 193.094 82.5051 192.886 82.7758C192.274 82.3314 191.557 82.0079 190.796 81.9571C190.137 81.9072 189.418 82.0118 188.901 82.4504C188.4 82.8651 188.227 83.606 188.454 84.2088C188.59 84.5476 188.868 84.8077 189.167 85.0054C190.169 85.6504 191.356 85.9499 192.327 86.6476C192.966 87.1026 193.477 87.7841 193.594 88.574C193.728 89.4791 193.499 90.46 192.887 91.1549C192.443 91.6694 191.816 91.9967 191.159 92.1445C189.645 92.4871 187.993 92.0744 186.796 91.0906C186.997 90.7969 187.199 90.5032 187.391 90.2028C188.159 90.6769 189.006 91.0839 189.92 91.1434C190.523 91.1645 191.172 91.0695 191.661 90.6884C192.208 90.2633 192.404 89.5069 192.294 88.8437C192.191 88.2908 191.77 87.8647 191.318 87.5643C190.234 86.8502 188.907 86.5488 187.925 85.6763C186.928 84.8087 186.855 83.1741 187.609 82.1289C188.053 81.5069 188.76 81.1134 189.499 80.955Z" fill="#002147"/>
      <path d="M231.003 80.8985C232.156 80.7564 233.376 80.9983 234.331 81.6778C235.662 82.5992 236.381 84.1983 236.516 85.7791C236.679 87.5653 236.269 89.5099 234.994 90.8344C233.574 92.3442 231.122 92.6801 229.314 91.7001C227.892 90.9505 226.997 89.4446 226.735 87.8888C226.444 86.1371 226.709 84.2136 227.782 82.7595C228.537 81.7248 229.733 81.0424 231.003 80.8985ZM230.651 82.0934C229.997 82.2643 229.409 82.6597 228.992 83.1905C228.405 83.9238 228.123 84.8557 228.029 85.7791C227.928 86.8042 228.019 87.8676 228.423 88.8236C228.708 89.5118 229.17 90.1385 229.79 90.5599C230.991 91.4016 232.783 91.2932 233.847 90.271C234.534 89.6231 234.903 88.7065 235.069 87.7918C235.251 86.7158 235.237 85.5862 234.889 84.5448C234.633 83.7798 234.17 83.0676 233.508 82.5954C232.696 82.0051 231.614 81.8439 230.651 82.0934Z" fill="#002147"/>
      <path d="M126.494 81.0614C126.929 81.0604 127.364 81.0662 127.8 81.0547C127.825 83.5579 127.795 86.061 127.815 88.5642C127.818 89.2101 127.963 89.9022 128.436 90.3744C129.095 91.0376 130.107 91.2114 131.004 91.0818C131.742 90.9791 132.453 90.5395 132.779 89.8532C133.022 89.333 133.039 88.7447 133.057 88.1803C133.076 85.8057 133.05 83.4312 133.071 81.0566C133.502 81.0643 133.93 81.0614 134.361 81.0614C134.361 82.6998 134.36 84.3372 134.361 85.9756C134.344 87.064 134.408 88.1592 134.266 89.2418C134.171 89.9895 133.875 90.7353 133.31 91.2517C132.499 92.0234 131.334 92.2911 130.242 92.2499C129.069 92.2182 127.842 91.7556 127.133 90.7823C126.605 90.0663 126.508 89.1449 126.499 88.282C126.487 85.8748 126.497 83.4686 126.494 81.0614Z" fill="#002147"/>
      <path d="M138.586 81.0615C139.035 81.0615 139.485 81.0606 139.935 81.0635C141.705 84.0677 143.451 87.0872 145.24 90.0799C145.247 87.0738 145.22 84.0677 145.215 81.0615C145.619 81.0625 146.025 81.0568 146.431 81.0692C146.414 84.73 146.437 88.3916 146.418 92.0523C145.959 92.0427 145.501 92.0542 145.043 92.0418C143.293 89.0414 141.533 86.0468 139.763 83.0589C139.767 86.0564 139.793 89.0548 139.788 92.0523C139.387 92.0456 138.986 92.0475 138.586 92.0485C138.585 88.3858 138.585 84.7242 138.586 81.0615Z" fill="#002147"/>
      <path d="M151.016 92.0551C151.001 88.3896 151.001 84.7231 151.016 81.0576C151.453 81.0672 151.892 81.0624 152.329 81.0634C152.33 84.725 152.33 88.3877 152.329 92.0493C151.892 92.0493 151.453 92.0445 151.016 92.0551Z" fill="#002147"/>
      <path d="M155.248 81.0615C155.707 81.0615 156.167 81.0615 156.625 81.0615C157.696 84.2951 158.76 87.5306 159.834 90.7632C160.929 87.5268 162.031 84.2922 163.136 81.0596C163.56 81.0625 163.986 81.0605 164.411 81.0615C163.125 84.7232 161.836 88.3839 160.553 92.0465C160.047 92.0494 159.54 92.0484 159.035 92.0475C157.775 88.3848 156.509 84.7241 155.248 81.0615Z" fill="#002147"/>
      <path d="M167.4 81.0653C169.389 81.0567 171.379 81.073 173.369 81.0576C173.382 81.4252 173.379 81.7938 173.373 82.1614C171.815 82.1547 170.257 82.1614 168.699 82.1576C168.697 83.3669 168.698 84.5753 168.698 85.7837C170.165 85.7885 171.631 85.7731 173.098 85.7914C173.088 86.1398 173.088 86.4882 173.099 86.8366C171.633 86.8731 170.166 86.8433 168.698 86.852C168.695 88.2063 168.704 89.5605 168.695 90.9139C170.299 90.9302 171.904 90.9149 173.509 90.9216C173.507 91.2978 173.507 91.6731 173.508 92.0484C171.472 92.0474 169.436 92.0532 167.399 92.0455C167.405 88.3857 167.403 84.726 167.4 81.0653Z" fill="#002147"/>
      <path d="M177 92.0407C177.022 88.379 176.988 84.7163 177.017 81.0537C178.218 81.0768 179.419 81.0393 180.62 81.0873C181.373 81.1267 182.171 81.3013 182.733 81.8417C183.642 82.6643 183.884 84.055 183.491 85.1886C183.159 86.1205 182.23 86.7252 181.279 86.8663C181.937 86.9575 182.389 87.5046 182.65 88.0747C183.272 89.3877 183.842 90.7228 184.437 92.0483C183.983 92.0493 183.529 92.0426 183.075 92.0541C182.549 90.9359 182.087 89.788 181.55 88.6736C181.288 88.1486 180.956 87.567 180.352 87.3952C179.685 87.2186 178.985 87.2839 178.304 87.2685C178.303 88.8617 178.303 90.4551 178.303 92.0474C177.868 92.0464 177.434 92.0531 177 92.0407ZM178.304 82.1172C178.303 83.484 178.303 84.8517 178.304 86.2185C179.138 86.206 179.988 86.2751 180.806 86.0668C181.326 85.9362 181.815 85.6205 182.084 85.1463C182.477 84.4754 182.453 83.5819 182.033 82.9292C181.678 82.4051 181.034 82.1671 180.423 82.1354C179.717 82.0961 179.009 82.1268 178.304 82.1172Z" fill="#002147"/>
      <path d="M197.276 81.0635C197.716 81.0635 198.157 81.0635 198.598 81.0635C198.599 84.7251 198.599 88.3868 198.598 92.0495C198.157 92.0495 197.716 92.0495 197.276 92.0485C197.276 88.3868 197.276 84.7251 197.276 81.0635Z" fill="#002147"/>
      <path d="M201.553 81.0642C204.169 81.0623 206.784 81.0632 209.4 81.0632C209.399 81.4279 209.399 81.7936 209.4 82.1584C208.315 82.1574 207.229 82.1603 206.145 82.1574C206.141 85.4543 206.144 88.7522 206.143 92.0492C205.706 92.0501 205.27 92.0425 204.835 92.0578C204.802 88.757 204.84 85.4543 204.816 82.1536C203.729 82.1651 202.641 82.1555 201.553 82.1584C201.553 81.7936 201.553 81.4289 201.553 81.0642Z" fill="#002147"/>
      <path d="M210.936 81.0628C211.442 81.0637 211.948 81.055 212.454 81.0695C213.335 82.7847 214.248 84.4825 215.136 86.1948C216.055 84.5056 216.895 82.7722 217.78 81.0628C218.257 81.0608 218.734 81.0618 219.213 81.0628C218.074 83.2338 216.935 85.404 215.795 87.5741C215.717 87.7027 215.722 87.8543 215.722 87.9993C215.727 89.3488 215.723 90.6983 215.725 92.0478C215.288 92.0478 214.85 92.0535 214.414 92.042C214.416 90.5975 214.437 89.1501 214.404 87.7065C213.274 85.4798 212.08 83.2837 210.936 81.0628Z" fill="#002147"/>
      <path d="M240.168 81.0635C242.114 81.0635 244.059 81.0635 246.005 81.0635C246.004 81.4282 246.004 81.7939 246.005 82.1586C244.496 82.1596 242.988 82.1586 241.479 82.1586C241.479 83.367 241.481 84.5745 241.479 85.7828C242.896 85.7906 244.316 85.7732 245.735 85.7906C245.726 86.1418 245.726 86.4931 245.734 86.8434C244.316 86.8646 242.897 86.8463 241.479 86.853C241.48 88.5855 241.479 90.317 241.479 92.0495C241.042 92.0495 240.604 92.0495 240.168 92.0495C240.168 88.3868 240.168 84.7251 240.168 81.0635Z" fill="#002147"/>
      <path d="M68.1353 83.8697C68.2571 83.0395 69.0142 82.3897 69.8299 82.2812C69.8778 82.4857 69.9172 82.692 69.9546 82.8984C69.4441 82.9858 68.9154 83.3246 68.8118 83.863C68.7417 84.2009 69.0881 84.5138 69.4182 84.4264C70.0333 84.2968 70.5754 83.8784 71.2251 83.9005C72.0033 83.9062 72.6337 84.7355 72.4313 85.488C72.2173 86.2981 71.442 86.8634 70.6359 86.9901C70.587 86.7856 70.5361 86.5812 70.4833 86.3777C70.9737 86.2414 71.537 86.0187 71.7174 85.4947C71.8805 85.1137 71.5562 84.6261 71.133 84.6721C70.4929 84.7259 69.9556 85.1789 69.3059 85.1952C68.6256 85.224 68.0239 84.5426 68.1353 83.8697Z" fill="#002147"/>
      <path d="M101.18 82.7183C101.574 82.5033 102.109 82.8364 102.088 83.2865C102.108 83.7626 101.505 84.0899 101.118 83.8125C100.711 83.5754 100.749 82.9074 101.18 82.7183Z" fill="#002147"/>
      <path d="M104.662 85.4555C105.114 85.3336 105.61 85.3307 106.048 85.5121C106.994 85.8864 107.577 87.0411 107.232 88.0162C106.902 88.9559 105.98 89.6095 105.02 89.7736C104.282 89.9061 103.49 89.5846 103.062 88.9684C102.683 88.4625 102.548 87.7724 102.755 87.1697C103.039 86.3164 103.816 85.6983 104.662 85.4555ZM104.952 86.1302C104.245 86.3443 103.54 86.8568 103.368 87.6121C103.192 88.3512 103.841 89.1603 104.612 89.096C105.363 89.0336 106.108 88.6065 106.49 87.9481C106.822 87.3847 106.616 86.6034 106.073 86.2511C105.745 86.0333 105.321 86.0275 104.952 86.1302Z" fill="#002147"/>
      <path d="M80.6769 85.734C80.7296 85.7282 80.8362 85.7167 80.8899 85.7109C81.4033 86.4059 81.9119 87.1075 82.383 87.8321C82.1431 87.8897 81.9003 87.9358 81.6595 87.9895C81.9282 88.4694 82.265 88.9071 82.5682 89.3659C83.024 89.0348 83.4539 88.6662 83.8617 88.2784C83.6765 88.1815 83.4846 88.098 83.3051 87.9915C83.3253 87.8599 83.4558 87.8024 83.5489 87.7285C83.9999 87.4175 84.4489 87.1027 84.8952 86.784C85.019 86.6938 85.1542 86.6093 85.3145 86.6084C84.9681 87.7697 84.566 88.9129 84.1976 90.0675C83.0537 89.6778 81.8274 89.6471 80.6308 89.6366C79.5494 89.6702 78.4363 89.6999 77.4076 90.0714C77.0209 88.9244 76.6438 87.7745 76.2791 86.6199C76.5776 86.6016 76.7819 86.8541 77.0209 86.9904C77.4748 87.3292 78.0035 87.5787 78.4017 87.9876C78.2088 88.0778 78.0093 88.1575 77.8346 88.2813C78.1877 88.6825 78.6157 89.0108 79.0101 89.3707C79.3316 88.9186 79.6799 88.4771 79.9274 87.978C79.6895 87.9339 79.4515 87.8945 79.2174 87.8331C79.6703 87.1113 80.1961 86.4375 80.6769 85.734Z" fill="#002147"/>
      <path d="M91.0163 87.1526C91.3569 86.6698 91.7014 86.1899 92.0392 85.7052C92.3606 85.6975 92.4566 86.0556 92.6351 86.2581C92.9805 86.7975 93.4267 87.2755 93.706 87.8542C93.4728 87.8955 93.2405 87.9339 93.0093 87.9809C93.2569 88.4723 93.6119 88.8975 93.9046 89.3621C94.3709 89.0453 94.7893 88.6605 95.2048 88.2813C95.0148 88.1777 94.819 88.0846 94.6233 87.9934C94.8171 87.7275 95.1242 87.5855 95.3804 87.3906C95.7498 87.143 96.0953 86.8589 96.4791 86.6333C96.5261 86.6324 96.6182 86.6286 96.6643 86.6266C96.2958 87.7755 95.912 88.9196 95.5407 90.0666C94.4199 89.6846 93.2185 89.651 92.0459 89.6356C90.9366 89.6615 89.8014 89.7009 88.743 90.0675C88.3688 88.9196 87.9878 87.7746 87.6194 86.6257C87.9571 86.6065 88.1903 86.9088 88.4657 87.0605C88.8831 87.3781 89.3898 87.5932 89.7343 87.9953C89.5376 88.0798 89.3428 88.17 89.1537 88.2717C89.5356 88.6297 89.9099 89.0002 90.3158 89.3304L90.3868 89.3247C90.7101 88.9119 90.9769 88.4599 91.2811 88.0337C91.07 87.907 90.8186 87.9003 90.5825 87.8581C90.6708 87.5912 90.8589 87.3791 91.0163 87.1526Z" fill="#002147"/>
      <path d="M65.4647 87.4126C65.6768 87.0796 66.0079 86.783 66.4205 86.7667C67.1757 86.6793 68.0019 87.3781 67.7917 88.1747C68.1496 87.9971 68.5536 88.0787 68.9346 88.1047C69.3721 88.145 69.8106 88.1757 70.2482 88.2208C70.1091 88.4377 69.9834 88.6623 69.8654 88.8917C69.2608 88.861 68.6582 88.7458 68.0517 88.7698C67.666 88.7938 67.5192 89.2007 67.3551 89.4868C67.9174 89.7853 68.473 90.0953 69.0324 90.4005C68.9173 90.6126 68.8002 90.8238 68.6784 91.0321C67.3398 90.2959 65.9963 89.5674 64.6482 88.8475C64.914 88.3657 65.1682 87.8762 65.4647 87.4126ZM66.1365 87.594C65.8611 87.8398 65.719 88.193 65.5252 88.4991C65.9551 88.7352 66.3869 88.9675 66.8196 89.1988C66.9886 88.8763 67.2083 88.5558 67.2236 88.1795C67.2342 87.668 66.5548 87.2696 66.1365 87.594Z" fill="#002147"/>
      <path d="M108.898 90.0376C108.994 90.2948 109.08 90.5549 109.169 90.8141C108.779 91.3074 108.317 91.7422 107.954 92.2557C108.565 92.3843 109.175 92.5196 109.783 92.6713C109.854 92.917 109.934 93.1608 110.014 93.4046C109.174 93.1963 108.333 92.9948 107.491 92.7961C106.899 93.5112 106.293 94.2147 105.711 94.9393C105.606 94.6821 105.518 94.4182 105.446 94.1513C105.905 93.6398 106.347 93.1147 106.789 92.5888C106.13 92.4208 105.457 92.3037 104.802 92.1233C104.655 91.9064 104.622 91.6213 104.526 91.3775C105.441 91.5819 106.346 91.8334 107.264 92.0196C107.79 91.3439 108.366 90.7085 108.898 90.0376Z" fill="#002147"/>
      <path d="M78.8873 90.5166C80.0176 90.3631 81.1653 90.3592 82.2995 90.4658C82.8004 90.5282 83.3167 90.5809 83.7792 90.796C83.9231 90.8391 84.0527 91.0436 83.8761 91.1386C83.5729 91.3402 83.1986 91.391 82.8474 91.4592C81.6988 91.6319 80.5272 91.6406 79.3709 91.5379C78.8642 91.4832 78.347 91.4256 77.8739 91.2279C77.7454 91.1847 77.6715 91.0666 77.5871 90.9706C77.9383 90.6452 78.4372 90.5973 78.8873 90.5166Z" fill="#002147"/>
      <path d="M89.1249 90.816C89.6172 90.5703 90.1795 90.5232 90.7179 90.457C91.9595 90.3543 93.2224 90.3572 94.4516 90.5856C94.773 90.6691 95.1799 90.7094 95.3507 91.0396C94.963 91.3573 94.4487 91.4158 93.9718 91.4916C92.6955 91.6481 91.3963 91.6471 90.1229 91.4638C89.7516 91.388 89.3399 91.3486 89.0309 91.1077C88.9014 91.0185 89.0213 90.8601 89.1249 90.816Z" fill="#002147"/>
      <path d="M62.8797 94.0192C63.1311 93.1726 63.3873 92.327 63.632 91.4795C63.8354 91.5304 64.0388 91.5841 64.2413 91.6398C64.0561 92.2541 63.869 92.8674 63.6828 93.4807C64.0935 93.5853 64.5004 93.7015 64.9092 93.8147C65.0742 93.2571 65.2009 92.6879 65.4005 92.1427C65.5895 92.2023 65.7785 92.2598 65.9685 92.3174C65.8121 92.8712 65.6547 93.4241 65.4993 93.9779C65.9618 94.0979 66.4224 94.2303 66.884 94.3561C67.05 93.7533 67.2275 93.1544 67.3906 92.5506C67.5969 92.6025 67.8023 92.6581 68.0086 92.7128C67.784 93.5565 67.5461 94.3954 67.3158 95.2371C65.839 94.8235 64.3574 94.429 62.8797 94.0192Z" fill="#002147"/>
      <path d="M77.8509 93.436C79.5791 93.436 81.3073 93.437 83.0355 93.436C83.7292 93.4485 84.4748 93.4351 85.0899 93.8046C85.7952 94.2221 86.0955 95.0744 86.0994 95.8586C86.1099 99.0279 86.0984 102.197 86.1051 105.365C86.1071 105.565 86.0975 105.765 86.0696 105.963C85.8739 105.671 85.9382 105.272 85.6973 104.999C85.2857 104.445 84.5286 104.394 83.8962 104.375C81.8821 104.369 79.8679 104.37 77.8547 104.374C77.8471 100.729 77.8538 97.0824 77.8509 93.436ZM78.5168 95.1723C78.5648 95.2251 78.6598 95.3317 78.7069 95.3844C78.7375 95.7367 78.7289 96.0928 78.7155 96.447C78.7366 96.5948 78.5648 96.6437 78.488 96.7359C78.9285 96.7214 79.4179 96.8146 79.8123 96.567C80.269 96.2963 80.2901 95.4977 79.7806 95.2712C79.3814 95.109 78.9362 95.1877 78.5168 95.1723ZM80.8457 95.2098C80.2613 95.4497 80.2038 96.397 80.7795 96.6812C81.2977 96.9777 82.0279 96.5688 81.9886 95.9574C82.0471 95.3652 81.361 94.9477 80.8457 95.2098ZM82.1335 95.1742C82.2112 95.2664 82.3945 95.3134 82.3667 95.466C82.3686 95.7876 82.3475 96.1091 82.311 96.4287C82.3168 96.5746 82.1757 96.6447 82.0912 96.7397C82.3139 96.7416 82.5394 96.7484 82.7591 96.7013C82.6987 96.6667 82.5768 96.5976 82.5154 96.5631C82.4799 96.2588 82.5039 95.9517 82.5144 95.6465C82.7063 95.9853 82.8023 96.3673 82.9721 96.7167C83.0009 96.7128 83.0585 96.7061 83.0873 96.7032C83.2658 96.3231 83.3694 95.9123 83.5661 95.5409C83.5747 95.8826 83.5728 96.2252 83.568 96.5679C83.5105 96.6092 83.3963 96.6898 83.3387 96.7301C83.6179 96.7397 83.8962 96.7388 84.1754 96.7378C84.1256 96.684 84.0248 96.5765 83.9739 96.5228C83.9394 96.1437 83.9288 95.7607 83.9403 95.3797C83.9931 95.3269 84.0987 95.2222 84.1524 95.1695C83.9451 95.1704 83.7388 95.1714 83.5325 95.1704C83.4107 95.4872 83.2878 95.8039 83.1689 96.1216C83.0201 95.8068 82.88 95.4881 82.7418 95.1695C82.5384 95.1704 82.3359 95.1714 82.1335 95.1742ZM84.2724 95.1742C84.5765 95.3259 84.4787 95.6772 84.4959 95.9507C84.4787 96.2272 84.5765 96.5746 84.2772 96.7368C84.5573 96.7378 84.8375 96.7378 85.1178 96.7397C85.0678 96.6859 84.968 96.5794 84.9172 96.5266C84.8884 96.1456 84.8922 95.7607 84.9153 95.3797C84.9661 95.3336 85.0688 95.2405 85.1206 95.1934C84.8385 95.1627 84.5545 95.1646 84.2724 95.1742ZM79.4889 98.0633C79.5743 98.1593 79.7489 98.2072 79.7566 98.3541C79.7902 98.7188 79.7672 99.0855 79.748 99.4502C79.6942 99.4934 79.5849 99.5788 79.5311 99.622C79.7576 99.6364 79.985 99.6355 80.2105 99.6038C79.7269 99.4733 79.9744 98.8858 79.9149 98.5278C80.2326 98.8782 80.5051 99.2669 80.8016 99.6355C80.8515 99.6451 80.9503 99.6643 80.9993 99.6729C81.0578 99.1853 80.9618 98.6852 81.0693 98.2053L81.2833 98.1391C81.0693 98.0153 80.8169 98.069 80.5828 98.0671C81.0127 98.2168 80.8409 98.7083 80.8764 99.0529C80.5914 98.7342 80.3343 98.3925 80.0646 98.0623C79.8727 98.0633 79.6808 98.0623 79.4889 98.0633ZM81.3332 98.1708C81.7381 98.5633 81.7045 99.2563 82.0673 99.6623L82.1738 99.6373C82.4588 99.1248 82.4904 98.4462 82.9712 98.0633C82.7534 98.0633 82.5346 98.0633 82.3168 98.0623C82.3686 98.1084 82.4713 98.2005 82.523 98.2466C82.4463 98.5317 82.3417 98.8081 82.24 99.0855C82.0903 98.8081 81.9905 98.5077 81.884 98.213C81.9406 98.1775 82.0557 98.1065 82.1124 98.07C81.8322 98.0633 81.552 98.0633 81.2727 98.0527C81.2871 98.0815 81.3178 98.141 81.3332 98.1708ZM83.2533 98.118C83.022 98.2505 82.9529 98.6152 83.1554 98.8023C83.3176 98.9396 83.5229 99.0125 83.6851 99.1498C83.7964 99.2966 83.711 99.5433 83.5134 99.5462C83.2581 99.5241 83.1736 99.24 82.9827 99.1104C83 99.2698 83.0287 99.4272 83.0585 99.5846C83.2955 99.6498 83.5604 99.7151 83.7935 99.598C84.0516 99.4915 84.162 99.1459 84.0171 98.9098C83.8636 98.6852 83.5517 98.6526 83.3857 98.4453C83.2888 98.2677 83.522 98.0758 83.6851 98.1765C83.807 98.2764 83.8972 98.4088 84.0027 98.525C83.9903 98.3762 83.9768 98.2274 83.9624 98.0786C83.7283 98.0412 83.4673 97.9798 83.2533 98.118ZM79.2931 100.972C79.3517 101.01 79.4687 101.085 79.5273 101.122C79.5426 101.53 79.5407 101.939 79.5301 102.347C79.4505 102.399 79.3718 102.451 79.2931 102.502C79.582 102.527 79.8708 102.524 80.1606 102.524C80.0944 102.446 80.0032 102.386 79.9591 102.293C79.9293 101.906 79.9504 101.519 79.9543 101.132C80.0301 101.073 80.1059 101.015 80.1817 100.954C79.8852 100.951 79.5887 100.95 79.2931 100.972ZM80.2508 100.965C80.3256 101.014 80.3995 101.063 80.4753 101.112C80.4916 101.52 80.5156 101.933 80.4715 102.34C80.4149 102.38 80.3017 102.46 80.245 102.5C80.6548 102.543 81.0664 102.513 81.4771 102.529C81.5146 102.371 81.5462 102.213 81.5731 102.052C81.4061 102.273 81.2161 102.47 80.9119 102.386C80.9033 102 80.8851 101.613 80.911 101.227C80.9071 101.089 81.0587 101.034 81.1365 100.947C80.8409 100.955 80.5454 100.952 80.2508 100.965ZM81.6009 100.962C81.6767 101.018 81.7525 101.074 81.8283 101.131C81.8331 101.52 81.8533 101.911 81.8254 102.301C81.7698 102.355 81.6575 102.464 81.6019 102.519C82.0126 102.523 82.4233 102.524 82.8349 102.522C82.8637 102.366 82.8906 102.21 82.9136 102.054C82.7486 102.272 82.5614 102.465 82.2611 102.396C82.2486 102.008 82.2314 101.619 82.2563 101.233C82.2496 101.092 82.4012 101.035 82.4799 100.947C82.1862 100.955 81.8936 100.954 81.6009 100.962ZM82.6305 100.949C82.7275 101.043 82.8532 101.121 82.903 101.256C83.0796 101.673 83.2283 102.103 83.3915 102.527C83.4366 102.534 83.5287 102.549 83.5738 102.556C83.7561 102.121 83.9039 101.671 84.1035 101.244C84.1601 101.115 84.2868 101.042 84.3856 100.949C84.1582 100.955 83.9308 100.954 83.7033 100.953C83.7628 100.996 83.8799 101.081 83.9394 101.124C83.8386 101.419 83.7398 101.714 83.64 102.009C83.5134 101.717 83.403 101.419 83.2878 101.122C83.3416 101.08 83.449 100.995 83.5028 100.952C83.2111 100.954 82.9203 100.957 82.6305 100.949Z" fill="#002147"/>
      <path d="M87.6558 93.9615C88.2076 93.496 88.9666 93.4547 89.6556 93.4394C91.4874 93.4337 93.3193 93.4384 95.1511 93.4375C95.1549 97.08 95.1444 100.722 95.1559 104.364C93.3855 104.383 91.6151 104.367 89.8437 104.373C89.1633 104.382 88.4504 104.323 87.8046 104.583C87.3987 104.743 87.0983 105.128 87.0407 105.561C86.9899 105.678 87.0398 105.872 86.893 105.927C86.869 105.804 86.8575 105.681 86.8584 105.556C86.8642 102.357 86.8575 99.158 86.8613 95.9589C86.8575 95.2295 87.0667 94.4367 87.6558 93.9615ZM87.8919 95.1728C87.9735 95.2362 88.0493 95.3053 88.1193 95.3811C88.1327 95.7295 88.104 96.0779 88.0675 96.4244C88.0742 96.5694 87.9361 96.6423 87.8526 96.7392C88.0579 96.7383 88.2623 96.7383 88.4676 96.7402L88.4725 96.6711C88.4216 96.6433 88.3199 96.5857 88.269 96.5578C88.2373 96.2536 88.2594 95.9474 88.2738 95.6441C88.46 95.9839 88.5579 96.361 88.7248 96.7095C88.7536 96.7095 88.8121 96.7076 88.8409 96.7066C89.0184 96.3255 89.1269 95.9147 89.3217 95.5414C89.3293 95.884 89.3293 96.2267 89.3226 96.5694C89.266 96.6096 89.1537 96.6912 89.0971 96.7316C89.3764 96.7392 89.6556 96.7392 89.9348 96.7383C89.884 96.6845 89.7813 96.577 89.7304 96.5233C89.6949 96.1413 89.6873 95.7564 89.694 95.3734C89.7506 95.3235 89.8638 95.2227 89.9204 95.1728C89.7093 95.1719 89.4992 95.1719 89.2881 95.1709C89.1691 95.479 89.052 95.788 88.9349 96.0971C88.7603 95.8054 88.6356 95.4886 88.506 95.1757C88.3007 95.1709 88.0963 95.1719 87.8919 95.1728ZM90.0423 95.1719C90.0903 95.2275 90.1872 95.3389 90.2352 95.3955C90.2592 95.7698 90.2601 96.149 90.2342 96.5242C90.1824 96.577 90.0778 96.6836 90.026 96.7373C90.3119 96.7383 90.5979 96.7373 90.8848 96.7392C90.832 96.6864 90.7265 96.5818 90.6737 96.529C90.6449 96.1499 90.6468 95.767 90.6718 95.3878C90.7246 95.3331 90.8292 95.2256 90.881 95.1709C90.6017 95.1709 90.3215 95.1709 90.0423 95.1719ZM90.9222 95.1776C91.0153 95.2419 91.1017 95.3149 91.1803 95.3964C91.2226 95.7094 91.2063 96.027 91.1967 96.3419C91.2216 96.5185 91.1199 96.6433 90.9635 96.7133C91.1976 96.7536 91.4375 96.7517 91.6688 96.696C91.5968 96.6701 91.4529 96.6183 91.3799 96.5914C91.3444 96.2776 91.3406 95.9608 91.355 95.645C91.5767 95.8869 91.7724 96.1518 91.973 96.4129C92.1016 96.5712 92.2138 96.7872 92.4499 96.7814C92.4604 96.3419 92.4336 95.9013 92.4681 95.4627C92.4556 95.313 92.6226 95.264 92.7051 95.1719C92.4729 95.1709 92.2416 95.1719 92.0113 95.1766C92.1006 95.2381 92.1879 95.3024 92.2743 95.3696C92.3184 95.6326 92.3021 95.9023 92.3098 96.1682C92.0277 95.8409 91.7667 95.4953 91.4874 95.1652C91.2984 95.1699 91.1103 95.1728 90.9222 95.1776ZM92.5909 96.7383C92.8088 96.7392 93.0266 96.7363 93.2444 96.7296C93.1868 96.6932 93.0717 96.6183 93.0132 96.5808C93.0467 96.4762 93.0803 96.3716 93.1129 96.267C93.2434 96.2641 93.374 96.2622 93.5044 96.2593C93.5419 96.3697 93.5774 96.4801 93.6148 96.5914C93.5649 96.626 93.4641 96.6951 93.4133 96.7296C93.6944 96.7412 93.9766 96.7392 94.2587 96.7363C94.1627 96.6404 94.0351 96.5665 93.99 96.4321C93.8115 96.0088 93.6925 95.5635 93.5073 95.1431L93.3931 95.1527C93.0554 95.6412 93.0688 96.3438 92.5909 96.7383ZM88.9705 98.011C88.9657 98.1895 88.9618 98.368 88.9609 98.5466C89.0683 98.3536 89.1969 98.1722 89.4387 98.1636C89.4502 98.5945 89.4502 99.0265 89.4359 99.4574C89.3725 99.4967 89.2459 99.5764 89.1825 99.6167C89.5001 99.6379 89.8187 99.6379 90.1364 99.6148C90.0692 99.5755 89.9339 99.4987 89.8657 99.4603C89.8513 99.0274 89.8504 98.5945 89.8648 98.1626C90.1018 98.1674 90.2265 98.3603 90.3465 98.536C90.3474 98.3671 90.3407 98.1981 90.3273 98.0292C89.8773 98.0666 89.4167 98.105 88.9705 98.011ZM90.4741 98.0695C90.5509 98.13 90.6286 98.1905 90.7073 98.25C90.6996 98.6416 90.7313 99.0341 90.6919 99.4248C90.6421 99.4757 90.5422 99.5764 90.4923 99.6273C90.7773 99.6321 91.0623 99.634 91.3483 99.6196C91.2926 99.5783 91.1813 99.4939 91.1257 99.4516C91.1199 99.0831 91.1045 98.7135 91.1257 98.346C91.1094 98.2039 91.2686 98.153 91.3425 98.0619C91.0527 98.0628 90.7629 98.0609 90.4741 98.0695ZM91.9048 98.1386C91.4826 98.3795 91.3752 99.014 91.6841 99.3864C91.9643 99.7329 92.5372 99.7569 92.8634 99.4622C93.205 99.1464 93.2137 98.5293 92.8615 98.2183C92.6044 97.9889 92.1994 97.9764 91.9048 98.1386ZM88.5789 100.952C88.7027 101.052 88.8687 101.147 88.816 101.336C88.7718 101.735 88.8745 102.205 88.5828 102.529C88.791 102.524 89.005 102.543 89.2075 102.481C88.7565 102.38 89.0021 101.81 88.9753 101.489C89.1921 101.82 89.2641 102.221 89.4598 102.563C89.7218 102.178 89.8158 101.71 90.0097 101.291C89.9559 101.696 90.1978 102.231 89.8187 102.524C90.0922 102.524 90.3647 102.522 90.6372 102.518C90.5873 102.475 90.4866 102.391 90.4367 102.348C90.3695 101.947 90.3973 101.535 90.381 101.129C90.4635 101.071 90.5461 101.012 90.6296 100.955C90.4108 100.955 90.193 100.956 89.9751 100.96C89.859 101.275 89.7371 101.588 89.621 101.902C89.4618 101.591 89.3322 101.267 89.1835 100.951C88.982 100.955 88.7805 100.955 88.5789 100.952ZM90.713 100.954C90.7677 101 90.8771 101.09 90.9328 101.136C90.9376 101.525 90.9587 101.915 90.928 102.303C90.8666 102.356 90.7447 102.462 90.6833 102.514C91.1132 102.527 91.544 102.526 91.9749 102.519C92.0008 102.36 92.0248 102.201 92.0449 102.042C91.9432 102.148 91.8549 102.265 91.7532 102.369C91.6237 102.387 91.4932 102.395 91.3636 102.394C91.3531 102.18 91.3493 101.965 91.3493 101.75C91.5584 101.746 91.7014 101.876 91.8089 102.038C91.8146 101.827 91.8175 101.616 91.8137 101.406C91.6947 101.55 91.5479 101.652 91.354 101.658C91.3493 101.466 91.3483 101.275 91.3464 101.085C91.6131 101.023 91.7859 101.192 91.9192 101.398C91.9173 101.252 91.9154 101.107 91.9144 100.963C91.5133 100.951 91.1132 100.956 90.713 100.954ZM92.0363 102.521C92.2407 102.523 92.4451 102.523 92.6495 102.52C92.5842 102.462 92.519 102.405 92.4527 102.349C92.4854 102.248 92.517 102.148 92.5506 102.047C92.683 102.048 92.8174 102.049 92.9508 102.05C93.0295 102.217 93.04 102.387 92.9105 102.532C93.1724 102.524 93.4353 102.521 93.6983 102.511C93.5879 102.416 93.4526 102.335 93.4114 102.186C93.2367 101.753 93.1033 101.304 92.9191 100.875C92.4527 101.313 92.541 102.102 92.0363 102.521Z" fill="#002147"/>
      <path d="M74.0232 94.157C74.2727 93.7951 74.8858 93.7836 75.1171 94.1694C75.2716 94.4919 75.666 94.4843 75.9587 94.5947C75.9577 94.5083 75.9567 94.3365 75.9558 94.2501C76.2072 94.2491 76.4595 94.2491 76.7119 94.2491C76.7148 98.1008 76.7109 101.954 76.7138 105.806C79.4985 105.803 82.2832 105.806 85.0679 105.805C85.1955 106.131 85.3605 106.49 85.7194 106.611C86.2078 106.777 86.7605 106.777 87.2499 106.615C87.6146 106.499 87.7873 106.135 87.9149 105.805C90.7082 105.8 93.5025 105.814 96.2958 105.799C96.2863 101.949 96.2939 98.0989 96.292 94.2491C96.5434 94.2491 96.7948 94.2491 97.0462 94.2482C97.0491 98.3523 97.0472 102.456 97.0472 106.561C94.1579 106.563 91.2686 106.557 88.3794 106.563C87.912 107.389 86.8652 107.594 85.9948 107.452C85.422 107.388 84.899 107.055 84.6005 106.562C81.7209 106.561 78.8422 106.556 75.9625 106.564C75.9558 106.29 75.9567 106.016 75.9567 105.742C75.7255 105.836 75.4952 105.934 75.2706 106.042C75.1632 106.378 74.8513 106.672 74.4761 106.602C74.0011 106.552 73.719 105.95 73.9925 105.556C74.1921 105.216 74.6431 105.166 74.9722 105.336C75.3023 105.199 75.6324 105.058 75.9587 104.912C75.9567 104.611 75.9567 104.312 75.9567 104.013C75.7331 104.08 75.5105 104.149 75.2898 104.222C75.1526 104.528 74.8426 104.787 74.4886 104.705C73.9934 104.639 73.7439 103.977 74.074 103.601C74.3053 103.288 74.7601 103.283 75.0643 103.491C75.3627 103.406 75.6583 103.314 75.9558 103.225C75.9577 102.915 75.9567 102.605 75.9577 102.295C75.7303 102.333 75.5028 102.37 75.2764 102.41C75.1075 102.668 74.8206 102.892 74.4934 102.812C73.9973 102.74 73.7583 102.073 74.0923 101.701C74.3494 101.365 74.8503 101.398 75.1469 101.661C75.4174 101.619 75.6871 101.571 75.9567 101.524C75.9567 101.209 75.9567 100.892 75.9577 100.576C75.7197 100.584 75.4827 100.592 75.2457 100.604C74.9933 100.952 74.4435 101.061 74.1393 100.719C73.7641 100.361 73.9848 99.6547 74.4963 99.5732C74.7832 99.4916 75.0202 99.6912 75.2428 99.8371C75.4808 99.8477 75.7188 99.8265 75.9567 99.8189C75.9567 99.4762 75.9567 99.1345 75.9587 98.7928C75.7053 98.7785 75.452 98.7669 75.1986 98.7602C75.0087 98.9397 74.7592 99.099 74.4847 99.0261C74.0395 98.9512 73.7852 98.3878 74.0308 98.0068C74.2285 97.6363 74.7851 97.547 75.0787 97.8551C75.3013 98.1028 75.6631 97.9914 75.9567 98.0327C75.9567 97.7169 75.9567 97.4021 75.9577 97.0882C75.6794 97.0364 75.4031 96.9836 75.1238 96.9414C74.9166 97.0901 74.6555 97.213 74.3993 97.1141C73.9819 96.9951 73.7842 96.4442 74.0337 96.0891C74.2525 95.7205 74.8398 95.6571 75.1085 96.0027C75.2917 96.2945 75.6641 96.2455 75.9577 96.3156C75.9567 96.0056 75.9567 95.6955 75.9558 95.3846C75.6564 95.3011 75.3647 95.1907 75.0615 95.1235C74.8283 95.1744 74.5932 95.327 74.3494 95.2185C73.9215 95.087 73.7411 94.5063 74.0232 94.157Z" fill="#002147"/>
      <path d="M79.1377 95.2875C79.7681 95.228 79.8698 96.1177 79.5436 96.4949C79.4572 96.6063 79.1828 96.6917 79.1511 96.4959C79.1089 96.0947 79.1387 95.6897 79.1377 95.2875Z" fill="#002147"/>
      <path d="M81.0377 95.2967C81.2804 95.1585 81.4743 95.4608 81.504 95.6691C81.5481 95.9733 81.599 96.363 81.3677 96.6049C81.1154 96.7671 80.8928 96.4619 80.8582 96.2373C80.8035 95.9282 80.7651 95.5165 81.0377 95.2967Z" fill="#002147"/>
      <path d="M93.1446 96.1124C93.2002 95.9636 93.2578 95.8167 93.3173 95.6699C93.3653 95.8225 93.4142 95.9761 93.4632 96.1297C93.3567 96.1239 93.2501 96.1181 93.1446 96.1124Z" fill="#002147"/>
      <path d="M105.93 96.5375C107.456 96.4185 108.979 96.2774 110.507 96.1689C110.557 97.0117 110.641 97.8525 110.705 98.6942C110.495 98.7115 110.287 98.7278 110.079 98.7451C110.03 98.1433 109.979 97.5415 109.934 96.9387C109.516 96.9685 109.098 97.0117 108.679 97.028C108.7 97.601 108.766 98.1711 108.807 98.7422C108.601 98.7576 108.397 98.7748 108.194 98.7892C108.151 98.222 108.102 97.6557 108.056 97.0894C107.367 97.1518 106.676 97.2046 105.986 97.2555C105.967 97.0155 105.949 96.7765 105.93 96.5375Z" fill="#002147"/>
      <path d="M62.4248 96.2515C63.9352 96.8552 65.4398 97.4743 66.9482 98.0837C66.9396 98.3362 66.9291 98.5886 66.9176 98.842C65.3707 99.3084 63.822 99.7692 62.2723 100.227C62.2732 99.9755 62.2742 99.7241 62.2713 99.4735C63.513 99.1155 64.7604 98.7787 66.0021 98.4216C64.8266 97.8985 63.6022 97.4877 62.4076 97.0068C62.4133 96.7554 62.4191 96.5029 62.4248 96.2515Z" fill="#002147"/>
      <path d="M92.1754 98.1826C92.3203 98.1 92.4873 98.2018 92.5544 98.3361C92.6936 98.6058 92.6907 98.9274 92.6437 99.2211C92.6245 99.3823 92.5151 99.5531 92.3328 99.5474C92.0641 99.4841 91.9845 99.1779 91.9605 98.9398C91.9442 98.6797 91.9442 98.3534 92.1754 98.1826Z" fill="#002147"/>
      <path d="M107.251 100.711C108.369 100.421 109.765 100.834 110.293 101.925C110.692 102.775 110.431 103.901 109.651 104.443C108.617 105.136 107.093 104.916 106.236 104.033C105.7 103.462 105.598 102.571 105.895 101.861C106.131 101.291 106.656 100.861 107.251 100.711ZM107.553 101.399C106.926 101.48 106.37 102.016 106.38 102.667C106.331 103.278 106.85 103.753 107.386 103.936C107.985 104.156 108.705 104.203 109.265 103.855C109.863 103.492 110.035 102.581 109.579 102.04C109.098 101.463 108.268 101.296 107.553 101.399Z" fill="#002147"/>
      <path d="M92.5823 101.912C92.6351 101.754 92.6907 101.597 92.7464 101.44C92.7963 101.594 92.8471 101.747 92.8999 101.901C92.8202 101.904 92.6619 101.909 92.5823 101.912Z" fill="#002147"/>
      <path d="M135.192 101.786C138.563 101.435 142.101 102.415 144.675 104.656C146.151 105.924 147.296 107.576 147.967 109.404C149.23 112.861 148.853 116.893 146.922 120.032C145.568 122.255 143.438 123.977 141 124.881C137.144 126.317 132.57 125.809 129.208 123.399C126.913 121.777 125.255 119.287 124.645 116.542C123.844 112.981 124.642 109.041 126.952 106.184C128.946 103.671 132.009 102.09 135.192 101.786ZM135.475 102.943C134.201 103.097 132.967 103.59 131.955 104.383C130.686 105.368 129.779 106.755 129.191 108.236C128.385 110.275 128.12 112.498 128.234 114.679C128.33 116.512 128.698 118.355 129.507 120.013C130.188 121.418 131.225 122.677 132.577 123.478C134.053 124.37 135.841 124.66 137.54 124.457C138.864 124.303 140.15 123.783 141.186 122.939C142.437 121.932 143.324 120.533 143.895 119.046C144.706 116.928 144.943 114.623 144.784 112.372C144.651 110.527 144.232 108.677 143.356 107.038C142.622 105.664 141.524 104.456 140.133 103.732C138.716 102.979 137.059 102.753 135.475 102.943Z" fill="#002147"/>
      <path d="M209.469 101.796C212.912 101.413 216.54 102.426 219.142 104.749C220.538 105.976 221.625 107.548 222.285 109.285C223.66 112.918 223.202 117.213 221.024 120.44C219.455 122.785 217.002 124.503 214.282 125.229C210.518 126.252 206.257 125.526 203.168 123.1C200.757 121.24 199.156 118.386 198.802 115.362C198.364 111.891 199.404 108.209 201.797 105.623C203.762 103.45 206.563 102.096 209.469 101.796ZM209.845 102.942C208.772 103.073 207.725 103.436 206.82 104.028C205.497 104.877 204.506 106.167 203.842 107.578C202.985 109.402 202.613 111.425 202.577 113.431C202.55 115.515 202.835 117.633 203.663 119.559C204.297 121.039 205.294 122.396 206.646 123.292C207.932 124.158 209.498 124.552 211.04 124.517C212.522 124.5 214.014 124.061 215.221 123.187C216.588 122.214 217.564 120.774 218.188 119.231C219.048 117.095 219.306 114.751 219.156 112.463C219.03 110.585 218.611 108.699 217.716 107.032C216.992 105.678 215.915 104.487 214.551 103.76C213.123 102.987 211.446 102.75 209.845 102.942Z" fill="#002147"/>
      <path d="M62.5428 102.474C64.056 102.26 65.5664 102.025 67.0787 101.809C67.1133 102.049 67.1478 102.289 67.1823 102.528C65.672 102.756 64.1616 102.983 62.6493 103.199C62.6138 102.957 62.5783 102.715 62.5428 102.474Z" fill="#002147"/>
      <path d="M149.796 102.101C153.19 102.101 156.584 102.1 159.979 102.101C159.977 102.383 159.977 102.664 159.976 102.945C159.246 103.096 158.516 103.248 157.784 103.392C157.6 103.439 157.381 103.468 157.266 103.637C157.221 103.856 157.379 104.039 157.487 104.211C159.245 106.719 160.992 109.234 162.752 111.741C162.818 111.917 162.979 111.821 163.038 111.699C164.843 109.175 166.653 106.656 168.454 104.13C168.607 103.961 168.688 103.649 168.402 103.567C167.632 103.3 166.824 103.152 166.037 102.944C166.035 102.663 166.035 102.382 166.035 102.101C168.763 102.1 171.491 102.101 174.22 102.101C174.219 102.383 174.219 102.665 174.217 102.948C173.301 103.201 172.356 103.352 171.463 103.682C170.684 103.971 170.196 104.67 169.709 105.299C167.689 107.843 165.668 110.386 163.651 112.933C166.056 116.096 168.455 119.264 170.858 122.429C171.245 122.993 171.718 123.535 172.38 123.775C173.167 124.063 173.995 124.219 174.799 124.454C174.799 124.733 174.799 125.012 174.804 125.292C171.409 125.303 168.013 125.292 164.62 125.296C164.618 125.017 164.618 124.738 164.617 124.459C165.471 124.259 166.349 124.147 167.192 123.899C167.492 123.801 167.335 123.461 167.199 123.288C165.531 120.93 163.856 118.578 162.184 116.222C161.9 115.834 161.643 115.426 161.332 115.06C159.535 117.464 157.807 119.923 156.036 122.349C155.773 122.739 155.451 123.092 155.236 123.512C155.144 123.761 155.464 123.855 155.64 123.915C156.353 124.109 157.075 124.264 157.789 124.455C157.79 124.737 157.79 125.019 157.779 125.3C155.054 125.292 152.331 125.295 149.608 125.298C149.604 125.017 149.604 124.736 149.606 124.454C150.377 124.265 151.148 124.08 151.914 123.872C152.526 123.705 153.096 123.368 153.5 122.873C155.858 119.932 158.195 116.973 160.557 114.036C158.394 111.134 156.204 108.254 154.03 105.36C153.547 104.735 153.119 103.998 152.354 103.682C151.531 103.349 150.65 103.187 149.798 102.944C149.795 102.663 149.795 102.382 149.796 102.101Z" fill="#002147"/>
      <path d="M177.956 102.103C183.798 102.098 189.641 102.102 195.485 102.101C195.484 104.036 195.484 105.97 195.485 107.904C195.161 107.905 194.838 107.905 194.516 107.904C194.148 106.728 193.778 105.553 193.409 104.378C193.294 104.02 193.144 103.642 192.827 103.416C192.543 103.213 192.179 103.198 191.843 103.2C189.468 103.207 187.092 103.192 184.718 103.207C184.727 106.533 184.719 109.858 184.722 113.183C186.393 113.184 188.065 113.183 189.737 113.184C190.221 113.174 190.754 113.243 191.185 112.969C191.56 112.73 191.731 112.297 191.85 111.889C192.03 111.269 192.209 110.648 192.392 110.028C192.711 110.03 193.03 110.03 193.351 110.023C193.37 112.601 193.353 115.179 193.359 117.757C193.037 117.758 192.716 117.758 192.395 117.761C192.194 116.99 192.007 116.215 191.811 115.444C191.726 115.107 191.579 114.764 191.29 114.552C190.986 114.317 190.586 114.28 190.216 114.278C188.384 114.277 186.553 114.278 184.722 114.278C184.724 117.126 184.718 119.973 184.724 122.821C184.692 123.261 184.964 123.702 185.407 123.802C186.376 124.038 187.357 124.229 188.328 124.455C188.328 124.731 188.33 125.008 188.339 125.287C184.879 125.309 181.418 125.29 177.957 125.296C177.956 125.015 177.956 124.735 177.956 124.456C178.686 124.283 179.413 124.104 180.142 123.929C180.478 123.837 180.851 123.756 181.098 123.487C181.302 123.259 181.306 122.932 181.31 122.643C181.306 116.629 181.313 110.615 181.308 104.601C181.346 104.16 181.069 103.741 180.641 103.622C179.758 103.351 178.85 103.172 177.956 102.94C177.956 102.661 177.956 102.382 177.956 102.103Z" fill="#002147"/>
      <path d="M225.705 102.101C228.717 102.101 231.73 102.101 234.742 102.101C236.574 102.102 238.447 102.073 240.22 102.602C241.975 103.11 243.451 104.46 244.138 106.149C244.778 107.665 244.733 109.467 243.942 110.918C243.137 112.436 241.654 113.49 240.064 114.062C239.666 114.22 239.237 114.286 238.848 114.466C239.672 114.906 240.233 115.672 240.809 116.383C242.502 118.538 244.134 120.741 245.791 122.925C246.171 123.429 246.726 123.798 247.347 123.927C248.146 124.097 248.943 124.279 249.741 124.454C249.74 124.732 249.741 125.011 249.747 125.291C247.845 125.299 245.943 125.301 244.042 125.289C243.42 125.288 242.988 124.778 242.652 124.318C240.851 121.802 239.053 119.284 237.254 116.766C236.713 116.039 236.114 115.221 235.175 115.018C234.286 114.841 233.374 114.958 232.476 114.921C232.469 117.56 232.47 120.2 232.475 122.839C232.446 123.283 232.736 123.716 233.181 123.809C234.143 124.04 235.116 124.233 236.081 124.455C236.08 124.736 236.08 125.017 236.078 125.298C232.623 125.295 229.167 125.294 225.712 125.299C225.703 125.017 225.703 124.736 225.706 124.455C226.601 124.224 227.514 124.054 228.397 123.775C228.807 123.658 229.081 123.259 229.053 122.834C229.059 116.755 229.057 110.675 229.055 104.596C229.087 104.161 228.822 103.741 228.395 103.623C227.511 103.353 226.601 103.172 225.706 102.942C225.704 102.661 225.704 102.381 225.705 102.101ZM232.472 103.202C232.477 106.746 232.461 110.291 232.48 113.835C233.488 113.819 234.497 113.839 235.505 113.825C236.506 113.808 237.532 113.652 238.424 113.175C239.116 112.809 239.696 112.235 240.057 111.538C240.563 110.589 240.716 109.495 240.721 108.431C240.726 107.277 240.412 106.099 239.711 105.171C238.904 104.087 237.615 103.414 236.28 103.276C235.015 103.144 233.74 103.223 232.472 103.202Z" fill="#002147"/>
      <path d="M251.609 102.1C254.556 102.1 257.504 102.1 260.452 102.1C262.636 102.103 264.848 102.043 266.995 102.517C268.762 102.88 270.449 103.663 271.821 104.84C274.159 106.814 275.464 109.822 275.673 112.841C275.87 115.769 275.263 118.868 273.436 121.226C272.368 122.606 270.905 123.66 269.291 124.311C267.578 124.978 265.728 125.185 263.904 125.269C259.808 125.331 255.711 125.275 251.615 125.3C251.607 125.017 251.606 124.735 251.611 124.453C252.48 124.237 253.359 124.049 254.221 123.803C254.662 123.698 254.994 123.295 254.958 122.833C254.966 116.816 254.958 110.799 254.962 104.781C254.961 104.476 254.958 104.127 254.734 103.892C254.499 103.652 254.16 103.57 253.848 103.486C253.101 103.309 252.357 103.12 251.609 102.944C251.608 102.663 251.608 102.381 251.609 102.1ZM258.377 103.2C258.377 109.841 258.378 116.482 258.377 123.123C258.387 123.406 258.369 123.727 258.552 123.965C258.76 124.203 259.107 124.189 259.398 124.202C260.55 124.197 261.701 124.21 262.854 124.192C264.324 124.15 265.826 124.009 267.197 123.434C268.612 122.848 269.73 121.686 270.458 120.357C271.326 118.764 271.689 116.947 271.805 115.152C271.911 113.304 271.804 111.429 271.335 109.634C270.928 108.095 270.214 106.607 269.098 105.457C268.144 104.461 266.891 103.76 265.534 103.504C263.177 103.04 260.762 103.251 258.377 103.2Z" fill="#002147"/>
      <path d="M63.1915 105.92C64.6376 105.425 66.0769 104.91 67.5201 104.407C67.6027 104.624 67.6823 104.843 67.761 105.063C66.9223 106.075 66.1019 107.103 65.2556 108.109C66.3063 107.681 67.3638 107.261 68.4241 106.853C68.4951 107.066 68.5709 107.276 68.6476 107.487C67.2294 108.047 65.7968 108.57 64.3814 109.138C64.2854 108.919 64.202 108.696 64.1281 108.469C64.961 107.469 65.7824 106.458 66.6115 105.454C65.5454 105.814 64.4879 106.2 63.4228 106.563C63.3451 106.349 63.2673 106.134 63.1915 105.92Z" fill="#002147"/>
      <path d="M105.003 105.889C106.394 106.508 107.781 107.139 109.169 107.766C108.88 108.38 108.683 109.051 108.265 109.595C107.725 110.26 106.536 110.023 106.2 109.267C106.123 109.096 106.119 108.907 106.102 108.725C105.321 108.962 104.49 108.813 103.686 108.857C103.787 108.626 103.889 108.396 103.983 108.162C104.582 108.116 105.185 108.188 105.782 108.116C106.181 108.071 106.306 107.636 106.442 107.324C105.861 107.072 105.289 106.802 104.711 106.547C104.808 106.328 104.905 106.108 105.003 105.889ZM106.685 108.626C106.716 109.136 107.408 109.459 107.806 109.133C108.065 108.874 108.168 108.508 108.331 108.188C107.896 107.967 107.444 107.783 107.002 107.58C106.866 107.916 106.665 108.251 106.685 108.626Z" fill="#002147"/>
      <path d="M85.61 109.682C85.873 109.333 86.0946 108.951 86.3815 108.62C86.6262 108.545 86.7126 108.808 86.8354 108.957C87.2212 109.532 87.6539 110.075 88.0205 110.662C87.9101 110.887 87.5388 110.785 87.3305 110.902C87.6424 111.359 87.9216 111.84 88.2824 112.262C88.7008 111.904 89.1307 111.559 89.5375 111.189C89.3543 111.067 89.1528 110.976 88.9541 110.884C89.3418 110.468 89.8686 110.215 90.3119 109.864C90.5259 109.743 90.7063 109.492 90.9721 109.513C90.6727 110.675 90.2256 111.8 89.8859 112.953C88.7881 112.604 87.6261 112.542 86.4832 112.53C85.3356 112.542 84.1707 112.602 83.07 112.953C82.7304 111.877 82.3686 110.807 82.0203 109.734C81.9483 109.63 82.0049 109.406 82.1575 109.528C82.809 109.956 83.4654 110.381 84.09 110.849C83.8914 110.964 83.6889 111.072 83.4922 111.19C83.8838 111.553 84.282 111.908 84.6783 112.265C85.0256 111.834 85.3183 111.362 85.6206 110.902C85.3893 110.827 85.1485 110.786 84.9095 110.748C85.0823 110.356 85.3759 110.037 85.61 109.682Z" fill="#002147"/>
      <path d="M68.1362 109.95C68.5488 109.674 69.0641 109.456 69.5593 109.642C70.3423 109.93 70.8796 110.782 70.8221 111.612C70.7885 112.101 70.3931 112.449 70.0256 112.721C69.2244 113.298 68.4212 113.872 67.6123 114.439C67.4761 114.236 67.3379 114.035 67.1987 113.836C67.952 113.305 68.6995 112.767 69.4518 112.234C69.7147 112.033 70.0468 111.842 70.1273 111.496C70.2137 110.913 69.7272 110.258 69.1112 110.287C68.8761 110.312 68.6774 110.454 68.4826 110.576C67.6785 111.123 66.8734 111.669 66.0684 112.213C65.9311 112.016 65.7939 111.819 65.6577 111.622C66.4848 111.067 67.3033 110.497 68.1362 109.95Z" fill="#002147"/>
      <path d="M101.911 111.403C102.237 110.942 102.598 110.509 102.951 110.07C104.141 111.025 105.337 111.975 106.529 112.93C106.034 113.519 105.609 114.184 104.994 114.658C104.402 115.126 103.543 115.121 102.887 114.791C102.181 114.434 101.588 113.764 101.481 112.961C101.395 112.406 101.598 111.852 101.911 111.403ZM102.239 112.09C102.01 112.567 102.155 113.147 102.491 113.536C102.91 114.034 103.555 114.451 104.233 114.3C104.858 114.16 105.2 113.567 105.596 113.122C104.729 112.423 103.866 111.72 102.985 111.041C102.689 111.352 102.428 111.703 102.239 112.09Z" fill="#002147"/>
      <path d="M85.0573 113.351C86.2712 113.249 87.5033 113.254 88.7056 113.464C89.0079 113.533 89.3389 113.58 89.5865 113.781C89.7333 113.894 89.5673 114.051 89.4521 114.098C88.9455 114.328 88.3813 114.379 87.8343 114.439C86.6339 114.536 85.4162 114.527 84.2273 114.318C83.9212 114.246 83.5796 114.198 83.3387 113.978C83.2447 113.82 83.4318 113.717 83.5508 113.663C84.0277 113.466 84.5478 113.408 85.0573 113.351Z" fill="#002147"/>
      <path d="M83.3646 121.364C83.7446 121.13 84.2877 121.427 84.3012 121.87C84.3521 122.335 83.8003 122.705 83.3915 122.476C82.9463 122.28 82.93 121.581 83.3646 121.364Z" fill="#002147"/>
      <path d="M89.7813 122.401C90.2006 122.163 90.7658 122.555 90.6938 123.03C90.6631 123.494 90.0577 123.762 89.6949 123.469C89.3188 123.218 89.3715 122.588 89.7813 122.401Z" fill="#002147"/>
    </g>
  </g>
  <defs>
    <clipPath id="clip0_472_679">
      <rect width="337" height="210" fill="white"/>
    </clipPath>
    <clipPath id="clip1_472_679">
      <rect width="216" height="63" fill="white" transform="translate(60 73)"/>
    </clipPath>
  </defs>
</svg>
