<svg width="329" height="69" viewBox="0 0 329 69" fill="none" xmlns="http://www.w3.org/2000/svg">
  <path
    d="M179.547 7.14566C182.209 2.53613 187.57 0.106018 192.763 0.0598392C197.503 -0.246226 202.864 0.542121 206.184 4.28912C204.496 6.51502 202.882 8.78736 201.194 11.0132C199.311 8.85221 197.762 5.80993 194.72 5.1978C191.725 4.27034 187.959 5.8285 187.18 9.03754C185.919 14.1293 186.679 19.4528 186.494 24.6469H196.223V30.4438H186.484C186.484 39.1808 186.484 47.9172 186.475 56.6542C186.438 59.1305 186.837 61.5791 187.301 64.0089C189.526 65.0383 191.929 65.567 194.386 65.6134C194.377 66.2162 194.368 67.4313 194.359 68.0434C186.401 67.524 178.434 67.3663 170.485 68.0341C170.485 67.524 170.504 66.5038 170.504 65.9937C173.017 65.5485 176.134 64.3799 176.236 61.3563C177.209 51.0893 176.551 40.7479 176.746 30.444C174.807 30.444 172.869 30.444 170.93 30.4347C170.94 29.5629 170.958 28.6818 170.967 27.81C172.934 26.901 174.854 25.8901 176.745 24.8513C176.745 18.8969 176.393 12.4601 179.546 7.14598L179.547 7.14566Z"
    fill="#8C1515"/>
  <path
    d="M322.998 0.0507812C317.85 1.23793 312.638 2.23928 307.352 2.47115C307.296 2.95343 307.193 3.91776 307.147 4.40007C309.113 4.99367 312.323 4.83674 312.462 7.58207C313.25 13.1471 312.694 18.7942 312.851 24.3962C305.274 23.0977 296.806 23.1812 290.36 27.902C283.302 32.8454 280.882 42.0649 281.587 50.2826C281.985 56.6542 285.176 63.1931 290.954 66.2999C297.835 70.084 306.637 69.3049 313.083 64.9458C313.13 66.235 313.157 67.524 313.167 68.8132C318.156 67.5426 323.258 66.8284 328.387 66.5316V64.3052C321.118 63.0673 323.128 59.7033 322.618 53.9833C322.627 36.0091 322.349 18.0252 322.998 0.0520124L322.998 0.0507812ZM304.141 29.0365C307.21 29.004 310.332 29.9846 312.851 31.6957C312.861 41.3691 312.833 51.0424 312.87 60.7158C307.472 63.1921 300.173 63.0158 295.943 58.4341C292.317 54.5573 291.705 48.8813 292.029 43.8171C292.391 39.2076 293.356 33.9395 297.382 31.0826C299.398 29.699 301.753 29.0611 304.141 29.0359L304.141 29.0365Z"
    fill="#8C1515"/>
  <path
    d="M17.0432 5.95869C23.1552 5.5877 29.2856 5.98652 35.333 6.83978C34.9712 11.1432 35.0083 15.4746 35.3422 19.7779C34.7579 19.7779 33.5893 19.7872 33.005 19.7872C32.5413 17.0976 32.059 13.8328 29.1931 12.6362C24.9453 10.8462 19.9738 10.67 15.5684 11.9499C9.80891 13.6565 8.86277 22.1333 13.1477 25.8342C18.5085 30.5272 25.0751 33.5973 30.5657 38.1511C39.1631 44.9957 38.041 60.9298 27.8389 65.7247C19.2508 69.6943 9.16898 68.6926 0.302207 66.1977C0.357622 61.9339 0.200103 57.6701 0.00512695 53.4114C0.645057 53.4021 1.93426 53.3743 2.58347 53.365C3.03794 56.0454 3.45527 59.338 6.17277 60.7197C11.0327 63.4465 17.3023 63.6691 22.348 61.3226C28.6458 57.8445 27.4862 47.7907 21.5968 44.4053C16.4864 40.4699 10.6155 37.5607 5.89457 33.1173C0.663579 28.2573 0.0145164 19.743 3.38144 13.668C6.13572 8.8264 11.6915 6.40614 17.0431 5.96078L17.0432 5.95869Z"
    fill="#8C1515"/>
  <path
    d="M53.3158 15.0757C53.7981 15.1035 54.7719 15.1499 55.2543 15.1777C55.245 18.4146 55.245 21.6422 55.245 24.8793H70.0847V30.4443H55.245C55.3006 38.2351 55.1244 46.0352 55.3284 53.8352C55.5325 56.8031 55.616 60.5039 58.3891 62.3218C61.8857 64.3993 66.0686 63.1009 69.5653 61.7375C70.6412 64.3715 67.9051 65.8462 66.0038 66.9408C61.5427 69.1017 56.0985 69.3336 51.4889 67.5343C47.5472 66.0597 45.6458 61.7472 45.4416 57.7958C44.9686 48.6879 45.4416 39.562 45.5158 30.4449H39.7188C39.7096 29.8327 39.7003 29.2299 39.691 28.627C45.9888 26.2527 50.2361 20.827 53.3157 15.0767L53.3158 15.0757Z"
    fill="#8C1515"/>
  <path
    d="M93.0294 23.4078C86.3427 23.3391 79.5991 26.6603 77.4508 33.3746C78.0351 33.7085 79.2223 34.3667 79.8159 34.7007C82.3849 30.1653 88.3856 27.8375 93.1153 30.4532C96.8251 32.1412 97.1411 36.676 97.0669 40.2287C91.233 42.1022 85.1949 43.5771 79.6858 46.3227C73.0823 49.81 72.2291 59.6965 76.9592 65.0481C82.5335 70.1584 91.8359 69.3326 97.3449 64.5005C99.0237 67.8208 102.993 69.0916 106.452 68.1178C109.467 67.5335 111.461 65.0201 113.436 62.896C113.093 62.5065 112.398 61.7179 112.055 61.3191C110.812 61.6344 109.411 62.6175 108.196 61.6622C106.619 60.5771 106.814 58.3976 106.703 56.7189C106.814 49.5217 107.213 42.3066 106.832 35.1002C106.647 31.3717 104.978 27.5592 101.676 25.6023C99.0963 24.1705 96.0689 23.439 93.0294 23.4078ZM96.9642 45.849C97.0013 50.6996 96.9646 55.55 97.0018 60.4008C93.8948 61.7827 90.2033 63.0627 86.9293 61.4767C82.9226 59.3435 83.0899 52.963 86.401 50.2826C89.5822 48.0937 93.3561 47.0639 96.9642 45.849Z"
    fill="#8C1515"/>
  <path
    d="M220.856 23.5899C215.969 23.6456 210.923 24.8606 207.101 28.0418C201.416 32.6421 198.949 40.2473 199.2 47.3885C199.172 53.5005 201.073 60.0209 205.887 64.0836C211.572 69.0363 219.836 69.5275 226.912 68.0528C234.378 66.4112 239.99 59.8726 241.576 52.5456C243.282 44.9405 242.568 36.102 237.337 29.9623C233.312 25.2508 226.866 23.4693 220.856 23.5899ZM220.921 28.7809C223.548 28.832 226.147 29.9107 227.831 32.0021C230.882 35.7398 231.698 40.7668 231.921 45.4596C231.958 50.5699 231.309 56.0878 228.09 60.2613C224.928 64.3514 218.111 64.806 214.466 61.1239C211.674 58.5363 210.635 54.6877 210.005 51.0703C209.346 46.266 209.513 41.2667 211.025 36.6386C212.083 33.5408 214.141 30.406 217.406 29.3485C218.528 28.9457 219.728 28.7569 220.922 28.7801L220.921 28.7809Z"
    fill="#8C1515"/>
  <path
    d="M116.924 26.539C122.109 26.4555 127.368 25.9176 132.153 23.7751C132.32 25.0087 132.45 26.2422 132.552 27.4943C138.052 23.8957 145.156 22.4952 151.454 24.7212C155.961 26.233 159.115 30.6479 159.514 35.3222C160.441 44.2167 159.096 53.2317 160.283 62.1078C160.413 64.8994 163.418 65.5301 165.598 65.9846C165.607 66.504 165.607 67.5427 165.616 68.0621C158.253 67.4778 143.506 68.0343 143.506 68.0343L143.478 65.9313C143.478 65.9313 148.797 64.4357 149.135 62.9054C150.35 56.3018 150.063 49.4756 149.998 42.77C149.757 38.7634 149.859 33.755 146.028 31.3157C141.92 28.9507 136.883 30.0451 132.682 31.5754C132.71 40.2564 132.682 48.9467 132.682 57.6283C132.803 59.9469 132.636 62.5902 134.148 64.5191C135.418 65.4002 137.013 65.5579 138.47 65.966C138.479 66.4854 138.488 67.5334 138.488 68.0621C131.226 67.5891 123.945 67.283 116.692 68.0528C116.692 67.5334 116.711 66.5039 116.711 65.9938C118.918 65.4837 121.831 64.7881 122.248 62.117C123.259 55.7176 122.48 49.1788 122.721 42.7235C122.628 39.0415 123.036 35.3129 122.387 31.6772C121.877 29.1915 118.844 29.3307 116.933 28.8391C116.933 28.2641 116.924 27.1141 116.924 26.539Z"
    fill="#8C1515"/>
  <path
    d="M246.526 26.344C251.72 26.2698 256.914 25.565 261.848 23.9048L261.987 27.7259C266.977 23.71 274.499 22.6898 279.813 26.6686L274.272 35.1265C271.684 31.1383 266.435 30.1738 262.289 32.2049C262.289 32.2049 262.261 49.7619 262.317 58.5358C262.53 60.4928 262.224 63.0341 264.061 64.3138C265.832 65.3525 267.984 65.2969 269.959 65.6122C269.959 66.2151 269.95 67.4394 269.95 68.0422C261.983 67.5043 253.997 67.393 246.03 68.0236L246.029 65.6123C248.597 65.1743 251.271 64.2859 251.66 62.7556C252.764 58.9808 252.226 54.9832 252.337 51.0971C252.226 44.9107 252.56 38.7151 252.189 32.5385C252.161 29.5335 248.757 29.2645 246.55 28.8286C246.554 27.9768 246.535 27.1021 246.532 26.343L246.526 26.344Z"
    fill="#8C1515"/>
</svg>
