<svg width="249" height="80" viewBox="0 0 249 80" fill="none" xmlns="http://www.w3.org/2000/svg">
  <path
    d="M1.07429 56.591C0.768593 53.987 0.915803 50.193 0.915803 48.291L4.8902 3.50896H19.4972L15.5223 48.687C14.6731 58.4929 18.5003 65.434 28.2833 65.434C38.2137 65.434 43.4903 58.4138 44.3283 49.718L48.5404 3.50796H63.2154L59.1618 49.095C57.4868 66.702 45.8688 79.814 27.0608 79.814C12.3858 79.814 2.90729 70.348 1.07429 56.591ZM69.1708 41.429C71.0848 19.949 85.6128 2.09296 110.601 2.09296C117.247 2.09296 123.589 3.59896 129.873 7.70916L128.185 25.4752C122.456 17.8095 115.571 16.6318 109.23 16.6318C93.6384 16.6318 85.0784 27.4568 83.8554 41.1238C82.7004 54.5418 89.5849 65.3658 104.724 65.3658C111.303 65.3658 118.255 63.4636 125.593 56.1261L123.986 74.3671C116.875 78.2396 110.228 79.9721 103.58 79.9721C78.7265 79.9721 67.3475 61.5611 69.1685 41.4281M141.639 3.50706H156.234L150.878 64.3241H171.826C173.354 64.3241 178.325 64.2561 179.695 64.2561C179.627 64.9695 178.325 78.2291 178.325 78.2291H134.98L141.639 3.50706ZM221.591 0.121629H220.527L180.477 78.2396H196.069L201.64 66.3846H229.925L233.446 78.2396H248.879L221.616 0.119629M217.88 31.3946C218.344 30.3642 218.718 29.028 218.944 28.3147H219.182C219.25 29.2659 219.408 30.3754 219.714 31.4739C220.473 34.8708 226.213 53.7569 226.213 53.7569H207.7C207.7 53.7569 217.642 31.9479 217.879 31.3929L217.88 31.3946Z"
    fill="#2774AE"/>
</svg>
