<svg width="273" height="88" viewBox="0 0 273 88" fill="none" xmlns="http://www.w3.org/2000/svg">
  <path
    d="M99.7899 34.58C102.423 35.5063 105.213 35.9006 108 35.74C117.86 35.74 124.12 30.41 124.12 21.36C124.12 14.29 120.18 4.77995 108 4.77995H99.7899V34.58ZM99.7899 56.15C99.7899 64.39 101.79 66.7 107.33 66.7V68.7H83.4399V66.7C88.0799 66.7 90.9799 65.2 90.9799 56.38V14.75C90.9999 6.63995 88.9999 4.19995 83.4399 4.19995V2.19995H107.68C126 2.19995 133.42 11.94 133.42 21.1C133.42 32.1 125.07 38.2599 110 38.2599C106.585 38.2575 103.174 38.027 99.7899 37.57V56.15Z"
    fill="#011F5B"/>
  <path
    d="M157.31 41.66C157.66 32.66 151.51 28.9 146.31 28.9C139.47 28.9 135.41 34 134.95 41.66H157.31ZM134.93 43.66C134.7 62.1 145.71 66.73 151.28 66.73C156.85 66.73 159.86 64.73 165.77 58.15V61.15C160.77 67.53 156.03 69.96 148.84 69.96C136 70 126.7 61 126.7 48.61C126.7 36.22 135.7 26.47 147.34 26.47C156.85 26.47 165.66 34.12 165.08 43.63L134.93 43.66Z"
    fill="#011F5B"/>
  <path
    d="M209.61 59.75C209.61 65.08 210.77 66.75 216.56 66.75V68.75H194.65V66.75C200.21 66.75 201.72 65.48 201.72 61.65V40.15C201.72 33.54 196.97 30.76 192.56 30.76C188.5 30.76 184.91 33.31 180.85 38.76V58.82C180.85 65.08 181.66 66.7 187.85 66.7V68.7H166.12V66.7C171.57 66.7 172.96 66.24 172.96 58.82V35.74C172.96 30.74 171.69 29.74 166.12 29.74V27.74L178.88 26.47H180.88V34.7C185.75 29.13 190.5 26.47 195.72 26.47C202.56 26.47 209.64 31.34 209.64 41.19V59.75H209.61Z"
    fill="#011F5B"/>
  <path
    d="M259.82 59.75C259.82 65.08 260.98 66.75 266.82 66.75V68.75H244.86V66.75C250.42 66.75 251.93 65.48 251.93 61.65V40.15C251.93 33.54 247.18 30.76 242.77 30.76C238.71 30.76 235.12 33.31 231.06 38.76V58.82C231.06 65.08 231.87 66.7 238.06 66.7V68.7H216.33V66.7C221.78 66.7 223.17 66.24 223.17 58.82V35.74C223.17 30.74 221.9 29.74 216.33 29.74V27.74L229.09 26.47H231.09V34.7C235.96 29.13 240.71 26.47 245.93 26.47C252.77 26.47 259.85 31.34 259.85 41.19V59.75H259.82Z"
    fill="#011F5B"/>
  <path
    d="M85.8 80.47C85.8 82.31 86.3 83.72 88.26 83.72C90.06 83.72 91.01 82.51 91.01 80.4V76.75C90.9966 76.5087 90.9699 76.2683 90.93 76.03C90.86 75.56 90.41 75.38 89.8 75.31V75H92.9V75.34C92.27 75.41 91.84 75.59 91.77 76.06C91.7252 76.2976 91.6985 76.5383 91.69 76.78V80.48C91.69 83.31 89.89 84.37 88.19 84.37C85.39 84.37 84.52 82.94 84.52 80.56V76.61C84.52 75.39 84.52 75.46 83.39 75.31V75H86.93V75.34C85.74 75.49 85.8 75.42 85.8 76.64V80.5V80.47Z"
    fill="#011F5B"/>
  <path
    d="M100.35 84.18L95.41 78.32V82.81C95.4173 82.9912 95.4374 83.1717 95.47 83.35C95.47 83.72 95.86 83.86 96.53 83.91V84.18H94.05V83.91C94.53 83.91 94.87 83.72 94.92 83.35C94.9527 83.1717 94.9728 82.9912 94.98 82.81V78C94.858 77.7944 94.6857 77.6232 94.4792 77.5025C94.2728 77.3818 94.0391 77.3156 93.8 77.31V77.04H95.65C97.16 78.88 98.74 80.75 100.25 82.58V78.44C100.242 78.2556 100.222 78.0719 100.19 77.89C100.19 77.53 99.79 77.39 99.12 77.34V77.07H101.61V77.34C101.13 77.34 100.79 77.53 100.74 77.89C100.699 78.0708 100.676 78.2549 100.67 78.44V84.18H100.35Z"
    fill="#011F5B"/>
  <path
    d="M105.56 82.9101C105.56 83.8501 105.56 83.8001 106.43 83.9101V84.1801H103.7V83.9101C104.61 83.8001 104.57 83.8501 104.57 82.9101V78.3401C104.57 77.4001 104.57 77.4501 103.7 77.3401V77.0701H106.43V77.3401C105.52 77.4501 105.56 77.4001 105.56 78.3401V82.9101Z"
    fill="#011F5B"/>
  <path
    d="M110.75 77.34C110.2 77.34 109.75 77.5 110.12 78.47C110.52 79.67 111.12 81.47 111.64 82.96C112.29 81.41 112.91 79.84 113.54 78.29C113.79 77.65 113.54 77.29 112.83 77.29V77.02H115V77.29C114.811 77.2841 114.625 77.3406 114.472 77.4509C114.318 77.5612 114.205 77.719 114.15 77.9C113.3 79.98 112.44 82.05 111.59 84.13H111.07C110.45 82.37 109.76 80.41 109.14 78.69C108.76 77.6 108.45 77.29 107.96 77.29V77.02H110.72V77.29L110.75 77.34Z"
    fill="#011F5B"/>
  <path
    d="M116.59 83.9101C117.5 83.8001 117.46 83.8501 117.46 82.9101V78.3401C117.46 77.4001 117.46 77.4501 116.59 77.3401V77.0701H121.13V78.7101H120.86C120.76 77.9601 120.56 77.4001 119.86 77.4001H118.48V80.3001H119.33C119.97 80.3001 120.24 80.0501 120.26 79.4201H120.53V81.5801H120.26C120.26 80.9801 120.01 80.5801 119.33 80.5801H118.48V82.8801C118.48 83.7401 118.87 83.8101 119.79 83.8101C121.26 83.8101 121.19 83.4001 121.66 82.3101H121.92L121.61 84.1401H116.61V83.8701L116.59 83.9101Z"
    fill="#011F5B"/>
  <path
    d="M125.3 80.7099H126.14C127.03 80.7099 127.43 80.0399 127.43 78.8899C127.43 77.7399 126.82 77.3999 126.08 77.3999H125.3V80.7099ZM123.44 77.0699H126.44C126.686 77.0452 126.935 77.0709 127.171 77.1456C127.407 77.2203 127.625 77.3424 127.812 77.5043C128 77.6662 128.152 77.8647 128.26 78.0874C128.368 78.3102 128.429 78.5526 128.44 78.7999C128.444 79.2516 128.308 79.6934 128.05 80.0642C127.792 80.435 127.425 80.7166 127 80.8699L128 82.3799C128.389 83.0059 128.871 83.5691 129.43 84.0499V84.1799H128.43C127.83 84.1799 127.5 83.0699 126.27 81.0299H125.27V82.9099C125.27 83.8499 125.27 83.7999 126.14 83.9099V84.1799H123.41V83.9099C124.33 83.7999 124.28 83.8499 124.28 82.9099V78.3399C124.28 77.3999 124.28 77.4499 123.41 77.3399V77.0699H123.44Z"
    fill="#011F5B"/>
  <path
    d="M134.48 78.58C134.48 78.4124 134.447 78.2464 134.382 78.0917C134.318 77.9369 134.224 77.7965 134.105 77.6784C133.986 77.5604 133.844 77.467 133.689 77.4038C133.534 77.3406 133.368 77.3087 133.2 77.31C133.059 77.293 132.916 77.3061 132.78 77.3487C132.645 77.3913 132.52 77.4622 132.414 77.5568C132.308 77.6515 132.223 77.7676 132.166 77.8974C132.108 78.0273 132.079 78.1679 132.08 78.31C132.08 79.02 132.79 79.45 133.81 80.21C134.83 80.97 135.23 81.53 135.23 82.37C135.23 83.58 133.99 84.25 132.77 84.25C132.169 84.2802 131.569 84.1953 131 84C130.973 83.986 130.951 83.9642 130.937 83.9374C130.922 83.9106 130.917 83.8802 130.92 83.85V82.37H131.19C131.19 82.5813 131.232 82.7905 131.315 82.985C131.398 83.1795 131.519 83.3553 131.671 83.5019C131.823 83.6485 132.003 83.7629 132.201 83.8382C132.398 83.9134 132.609 83.9481 132.82 83.94C132.991 83.944 133.16 83.9139 133.319 83.8513C133.478 83.7888 133.623 83.6951 133.745 83.5759C133.867 83.4566 133.964 83.3142 134.03 83.1569C134.096 82.9996 134.13 82.8307 134.13 82.66C134.13 82 133.78 81.46 132.25 80.45C131.889 80.2875 131.582 80.025 131.366 79.6936C131.15 79.3622 131.033 78.9757 131.03 78.58C131.03 77.67 132.03 76.95 133.21 76.95C133.69 76.9428 134.169 77.0069 134.63 77.14C134.653 77.1469 134.673 77.1618 134.685 77.182C134.698 77.2022 134.703 77.2263 134.7 77.25V78.58H134.48Z"
    fill="#011F5B"/>
  <path
    d="M138.91 82.9101C138.91 83.8501 138.91 83.8001 139.78 83.9101V84.1801H137.05V83.9101C137.97 83.8001 137.93 83.8501 137.93 82.9101V78.3401C137.93 77.4001 137.93 77.4501 137.05 77.3401V77.0701H139.78V77.3401C138.87 77.4501 138.91 77.4001 138.91 78.3401V82.9101Z"
    fill="#011F5B"/>
  <path
    d="M144.8 82.9101C144.8 83.8501 144.8 83.8001 145.67 83.9101V84.1801H142.94V83.9101C143.86 83.8001 143.81 83.8501 143.81 82.9101V77.4001H142.9C142.02 77.4001 141.81 77.9601 141.48 78.6301H141.23L141.5 77.0701H147.11L147.39 78.6301H147.13C146.8 77.9601 146.6 77.4001 145.71 77.4001H144.8V82.9101Z"
    fill="#011F5B"/>
  <path
    d="M150.34 83.9101C151.25 83.8001 151.22 83.8501 151.22 82.9101V81.3501L149.65 78.2501C149.32 77.5901 149.03 77.3401 148.57 77.3401V77.0701H151.15V77.3401C150.38 77.3401 150.45 77.7201 150.71 78.2501L151.94 80.8001L153.34 78.2501C153.68 77.6301 153.34 77.3401 152.76 77.3401V77.0701H154.85V77.3401C154.56 77.3401 154.29 77.4701 154.02 77.9601L152.32 81.0001C152.228 81.2353 152.187 81.4877 152.2 81.7401V82.8801C152.2 83.8201 152.2 83.7701 153.07 83.8801V84.1501H150.34V83.8801V83.9101Z"
    fill="#011F5B"/>
  <path
    d="M164.07 79.1799C164.07 77.8099 163.25 77.7599 163.07 77.7599C161.64 77.7599 160.71 80.3099 160.71 82.0199C160.71 82.6999 160.83 83.9399 161.8 83.9399C163.3 83.9399 164.1 81.4699 164.1 79.1799H164.07ZM159.47 81.7499C159.47 80.0199 160.96 77.4399 163.15 77.4399C164.9 77.4399 165.28 78.6299 165.28 79.8099C165.28 81.2599 164.13 84.3399 161.61 84.3399C159.93 84.3399 159.47 82.9799 159.47 81.7499Z"
    fill="#011F5B"/>
  <path
    d="M171.9 77.88L171.59 78.15H169.86C169.239 81.2973 168.424 84.4032 167.42 87.45H166.82L168.71 78.15H167.46L167.57 77.6H168.81C168.964 76.7554 169.402 75.9888 170.051 75.4269C170.701 74.865 171.522 74.5416 172.38 74.51C172.771 74.4874 173.162 74.5703 173.51 74.75L173.35 75.61L173.02 75.77C172.912 75.5515 172.747 75.366 172.543 75.2324C172.339 75.0988 172.104 75.022 171.86 75.01C171.07 75.01 170.48 75.55 170.16 77.01L170.02 77.64H172L171.94 77.92L171.9 77.88Z"
    fill="#011F5B"/>
  <path
    d="M179.93 82.53C179.93 83.76 179.87 83.69 181.06 83.84V84.18H177.52V83.84C178.7 83.69 178.65 83.76 178.65 82.53V76.61C178.65 75.39 178.65 75.46 177.52 75.31V75H181C183.18 75 184.26 75.87 184.26 77.45C184.26 79.34 182.55 80.37 180.54 80.25V80C180.865 80.0389 181.195 80.0032 181.505 79.8957C181.815 79.7882 182.096 79.6117 182.327 79.3794C182.558 79.1472 182.734 78.8654 182.84 78.5554C182.946 78.2454 182.98 77.9152 182.94 77.59C182.985 77.2943 182.959 76.9922 182.865 76.7083C182.771 76.4244 182.611 76.1668 182.399 75.9563C182.186 75.7458 181.927 75.5884 181.642 75.497C181.358 75.4055 181.055 75.3826 180.76 75.43H179.96V82.57L179.93 82.53Z"
    fill="#011F5B"/>
  <path
    d="M186 83.9101C186.92 83.8001 186.88 83.8501 186.88 82.9101V78.3401C186.88 77.4001 186.88 77.4501 186 77.3401V77.0701H190.54V78.7101H190.28C190.17 77.9601 189.97 77.4001 189.28 77.4001H187.9V80.3001H188.75C189.39 80.3001 189.67 80.0501 189.69 79.4201H190V81.5801H189.74C189.74 80.9801 189.48 80.5801 188.8 80.5801H187.95V82.8801C187.95 83.7401 188.35 83.8101 189.26 83.8101C190.73 83.8101 190.66 83.4001 191.13 82.3101H191.39L191.09 84.1401H186.09V83.8701L186 83.9101Z"
    fill="#011F5B"/>
  <path
    d="M199.4 84.18L194.46 78.32V82.81C194.467 82.9912 194.487 83.1717 194.52 83.35C194.52 83.72 194.91 83.86 195.58 83.91V84.18H193.1V83.91C193.58 83.91 193.92 83.72 193.97 83.35C194.003 83.1717 194.023 82.9912 194.03 82.81V78C193.908 77.7944 193.736 77.6232 193.529 77.5025C193.323 77.3818 193.089 77.3156 192.85 77.31V77.04H194.7C196.21 78.88 197.79 80.75 199.3 82.58V78.44C199.292 78.2556 199.272 78.0719 199.24 77.89C199.24 77.53 198.84 77.39 198.17 77.34V77.07H200.66V77.34C200.18 77.34 199.84 77.53 199.79 77.89C199.754 78.0716 199.731 78.2553 199.72 78.44V84.18H199.4Z"
    fill="#011F5B"/>
  <path
    d="M208.5 84.18C206.88 82.27 205.21 80.27 203.55 78.32V82.81C203.557 82.9912 203.577 83.1717 203.61 83.35C203.61 83.72 204.01 83.86 204.68 83.91V84.18H202.19V83.91C202.68 83.91 203.01 83.72 203.06 83.35C203.101 83.1728 203.125 82.9919 203.13 82.81V78C203.007 77.795 202.835 77.6243 202.628 77.5037C202.422 77.3831 202.189 77.3165 201.95 77.31V77.04H203.8C205.31 78.88 206.88 80.75 208.39 82.58V78.44C208.379 78.2553 208.356 78.0716 208.32 77.89C208.32 77.53 207.93 77.39 207.26 77.34V77.07H209.74V77.34C209.27 77.34 208.92 77.53 208.87 77.89C208.838 78.0719 208.818 78.2556 208.81 78.44V84.18H208.5Z"
    fill="#011F5B"/>
  <path
    d="M215.1 78.5801C215.101 78.4121 215.069 78.2455 215.005 78.0902C214.941 77.9348 214.847 77.7938 214.728 77.6755C214.608 77.5572 214.467 77.4639 214.311 77.4011C214.155 77.3384 213.988 77.3074 213.82 77.3101C213.68 77.2946 213.538 77.3089 213.403 77.3522C213.269 77.3954 213.146 77.4666 213.041 77.5611C212.936 77.6555 212.852 77.7711 212.795 77.9002C212.738 78.0293 212.709 78.169 212.71 78.3101C212.71 79.0201 213.42 79.4501 214.43 80.2101C215.44 80.9701 215.86 81.5301 215.86 82.3701C215.86 83.5801 214.62 84.2501 213.4 84.2501C212.805 84.2519 212.215 84.1434 211.66 83.9301C211.637 83.9131 211.618 83.8904 211.606 83.8642C211.593 83.8379 211.588 83.809 211.59 83.7801V82.3701H211.86C211.86 82.5814 211.902 82.7906 211.985 82.9851C212.068 83.1796 212.189 83.3554 212.341 83.502C212.493 83.6486 212.673 83.763 212.871 83.8383C213.068 83.9135 213.279 83.9482 213.49 83.9401C213.661 83.9441 213.83 83.9139 213.989 83.8514C214.148 83.7889 214.293 83.6952 214.415 83.576C214.537 83.4567 214.634 83.3142 214.7 83.157C214.766 82.9997 214.8 82.8307 214.8 82.6601C214.8 82.0001 214.45 81.4601 212.92 80.4501C212.557 80.2901 212.247 80.0285 212.029 79.6967C211.811 79.3649 211.693 78.9772 211.69 78.5801C211.69 77.6701 212.69 76.9501 213.87 76.9501C214.353 76.9424 214.835 77.0064 215.3 77.1401C215.323 77.147 215.343 77.1619 215.355 77.1821C215.368 77.2023 215.373 77.2264 215.37 77.2501V78.5801H215.1Z"
    fill="#011F5B"/>
  <path
    d="M219.19 83.9101C220.11 83.8001 220.07 83.8501 220.07 82.9101V81.3501L218.5 78.2501C218.17 77.5901 217.89 77.3401 217.42 77.3401V77.0701H220V77.3401C219.23 77.3401 219.3 77.7201 219.55 78.2501L220.78 80.8001L222.18 78.2501C222.52 77.6301 222.18 77.3401 221.6 77.3401V77.0701H223.69V77.3401C223.41 77.3401 223.13 77.4701 222.86 77.9601L221.17 81.0001C221.078 81.2353 221.037 81.4877 221.05 81.7401V82.8801C221.05 83.8201 221.05 83.7701 221.92 83.8801V84.1501H219.19V83.8801V83.9101Z"
    fill="#011F5B"/>
  <path
    d="M225.36 83.9101C226.28 83.8001 226.24 83.8501 226.24 82.9101V78.3401C226.24 77.4001 226.24 77.4501 225.36 77.3401V77.0701H228.1V77.3401C227.18 77.4501 227.22 77.4001 227.22 78.3401V83.0701C227.22 83.7801 227.62 83.8501 228.52 83.8501C229.99 83.8501 229.93 83.4401 230.4 82.3501H230.66L230.35 84.1801H225.35V83.9101H225.36Z"
    fill="#011F5B"/>
  <path
    d="M234.2 77.34C233.64 77.34 233.2 77.5 233.57 78.47C233.96 79.67 234.57 81.47 235.08 82.96C235.73 81.41 236.35 79.84 236.98 78.29C237.23 77.65 236.98 77.29 236.28 77.29V77.02H238.47V77.29C238.282 77.2846 238.098 77.3415 237.946 77.4519C237.794 77.5622 237.683 77.7198 237.63 77.9C236.77 79.98 235.91 82.05 235.06 84.13H234.54C233.92 82.37 233.23 80.41 232.61 78.69C232.24 77.6 231.92 77.29 231.44 77.29V77.02H234.2V77.29V77.34Z"
    fill="#011F5B"/>
  <path
    d="M242.61 81.44L241.54 78.14L240.33 81.44H242.61ZM240.16 81.82L239.69 83.18C239.65 83.2616 239.633 83.3524 239.64 83.4428C239.648 83.5333 239.679 83.6202 239.731 83.6946C239.783 83.769 239.854 83.8282 239.936 83.866C240.019 83.9039 240.11 83.9191 240.2 83.91V84.18H238.35V83.91C238.506 83.9028 238.657 83.8522 238.786 83.7639C238.915 83.6755 239.017 83.553 239.08 83.41C239.52 82.51 240.7 79.19 241.55 76.95H242.12C242.81 78.95 243.84 82.12 244.19 83.02C244.41 83.59 244.57 83.91 245.01 83.91V84.18H242.64V83.91C243.28 83.91 243.34 83.58 243.18 83.13L242.74 81.82H240.16Z"
    fill="#011F5B"/>
  <path
    d="M252.82 84.18L247.88 78.32V82.81C247.887 82.9912 247.907 83.1717 247.94 83.35C247.99 83.72 248.34 83.86 249.01 83.91V84.18H246.52V83.91C247.01 83.91 247.34 83.72 247.39 83.35C247.423 83.1717 247.443 82.9912 247.45 82.81V78C247.33 77.7945 247.16 77.6232 246.955 77.5024C246.75 77.3816 246.518 77.3154 246.28 77.31V77.04H248.12C249.64 78.88 251.21 80.75 252.72 82.58V78.44C252.712 78.2556 252.692 78.0719 252.66 77.89C252.61 77.53 252.27 77.39 251.6 77.34V77.07H254.08V77.34C253.61 77.34 253.26 77.53 253.21 77.89C253.178 78.0719 253.158 78.2556 253.15 78.44V84.18H252.82Z"
    fill="#011F5B"/>
  <path
    d="M257.62 82.9101C257.62 83.8501 257.62 83.8001 258.5 83.9101V84.1801H255.77V83.9101C256.68 83.8001 256.64 83.8501 256.64 82.9101V78.3401C256.64 77.4001 256.64 77.4501 255.77 77.3401V77.0701H258.5V77.3401C257.59 77.4501 257.62 77.4001 257.62 78.3401V82.9101Z"
    fill="#011F5B"/>
  <path
    d="M264.32 81.44L263.25 78.14L262 81.44H264.32ZM261.87 81.82L261.4 83.18C261.36 83.2616 261.343 83.3524 261.351 83.4428C261.358 83.5333 261.389 83.6202 261.441 83.6946C261.493 83.769 261.564 83.8282 261.646 83.866C261.729 83.9039 261.82 83.9191 261.91 83.91V84.18H260.06V83.91C260.216 83.9028 260.367 83.8522 260.496 83.7639C260.625 83.6755 260.727 83.553 260.79 83.41C261.23 82.51 262.42 79.19 263.26 76.95H263.83C264.52 78.95 265.55 82.12 265.9 83.02C266.12 83.59 266.28 83.91 266.72 83.91V84.18H264.36V83.91C264.99 83.91 265.05 83.58 264.89 83.13L264.46 81.82H261.87Z"
    fill="#011F5B"/>
  <path
    d="M75.38 0H0V37.57C0 53.93 9 65.78 16.63 72.84C25 80.6 34.23 85.07 37.31 85.75L37.69 85.83L38.07 85.74C41.15 85.07 50.38 80.6 58.75 72.84C66.36 65.78 75.43 53.93 75.38 37.57V0Z"
    fill="white"/>
  <path
    d="M70.74 15.73C70.8545 15.8144 70.9556 15.9155 71.04 16.03C71.1243 16.1576 71.1693 16.3071 71.1693 16.46C71.1693 16.6129 71.1243 16.7624 71.04 16.89C70.9556 17.0045 70.8545 17.1056 70.74 17.19C70.57 17.32 70.41 17.45 70.41 17.67V19H54.6V17.67C54.6 17.45 54.44 17.32 54.27 17.19C54.1525 17.1058 54.048 17.0047 53.96 16.89C53.8814 16.7532 53.8434 16.5968 53.8505 16.4392C53.8576 16.2815 53.9095 16.1292 54 16C54.0881 15.8853 54.1925 15.7842 54.31 15.7C54.48 15.57 54.64 15.44 54.64 15.22V10.88C54.64 10.66 54.48 10.54 54.31 10.4C54.1905 10.3222 54.0856 10.224 54 10.11C53.9153 9.97935 53.8734 9.82557 53.88 9.67C53.8748 9.51773 53.9167 9.36756 54 9.24C54.0776 9.14704 54.1686 9.06616 54.27 9C54.44 8.87 54.6 8.74 54.6 8.52V7.09H54.8C55.5761 7.14362 56.3555 7.05552 57.1 6.83C57.3337 6.7225 57.5578 6.59538 57.77 6.45C58.3075 6.0539 58.9527 5.83068 59.62 5.81C60.2506 5.84535 60.8684 6.00151 61.44 6.27C61.7552 6.42275 62.0928 6.52403 62.44 6.57H62.55C62.897 6.52288 63.2344 6.42165 63.55 6.27C64.1177 6.00038 64.7325 5.84412 65.36 5.81C66.032 5.83093 66.6813 6.05784 67.22 6.46C67.4321 6.60265 67.6563 6.72645 67.89 6.83C68.631 7.05629 69.4072 7.14442 70.18 7.09H70.39V8.47C70.39 8.69 70.55 8.82 70.72 8.95C70.8343 9.03078 70.9354 9.12858 71.02 9.24C71.1077 9.36977 71.1531 9.52344 71.15 9.68C71.1516 9.83325 71.1063 9.98332 71.02 10.11C70.938 10.2237 70.8365 10.3219 70.72 10.4C70.55 10.54 70.39 10.66 70.39 10.88V15.25C70.39 15.47 70.55 15.6 70.72 15.73H70.74ZM51.36 18C50.4843 19.2495 49.1707 20.124 47.68 20.45C47.2109 20.5301 46.7359 20.5702 46.26 20.57C43.8 20.57 41.52 19.5 39.26 18.31L38.4 17.84C36.93 17.04 34.87 15.91 33.13 15.91C32.6376 15.8985 32.1499 16.0084 31.71 16.23H31.64V16.31C31.632 16.5281 31.5916 16.7438 31.52 16.95C31.1345 17.6896 30.5751 18.3244 29.89 18.8C28.796 19.7225 27.4293 20.26 26 20.33C25.7825 20.335 25.5657 20.3011 25.36 20.23C25.0854 20.1407 24.8423 19.9741 24.66 19.75C24.5784 19.6337 24.508 19.5098 24.45 19.38C24.4083 19.2667 24.3782 19.1494 24.36 19.03V18.94H24.27C24.0089 18.9046 23.7675 18.7814 23.5858 18.5905C23.404 18.3996 23.2926 18.1526 23.27 17.89C23.3233 17.5046 23.511 17.1504 23.8 16.89C24.2 16.41 24.54 16 23.98 15.47L23.8 15.33C23.7165 15.2717 23.6394 15.2047 23.57 15.13C23.08 14.6 23.37 13.5 23.57 12.84V12.76C23.7892 11.9705 24.0908 11.2063 24.47 10.48C24.976 9.30118 25.7101 8.23404 26.63 7.34H26.7C26.7 7.34 26.75 7.34 26.76 7.34L27.03 7.77L27.19 8.04L27.28 7.75C27.3645 7.41607 27.5248 7.10611 27.7485 6.84422C27.9723 6.58233 28.2534 6.37557 28.57 6.24C28.828 6.16571 29.1002 6.15511 29.3632 6.2091C29.6262 6.26309 29.8722 6.38007 30.08 6.55L30.2 6.64L30.29 6.51C30.3987 6.3073 30.5581 6.13626 30.7527 6.01357C30.9472 5.89088 31.1703 5.82074 31.4 5.81C31.6697 5.82011 31.9345 5.88468 32.1785 5.99983C32.4226 6.11497 32.6408 6.27831 32.82 6.48L32.91 6.57L33.01 6.49C33.4928 6.03999 34.1301 5.79292 34.79 5.8C35.0444 5.84664 35.2798 5.96587 35.4679 6.14331C35.6559 6.32075 35.7887 6.54882 35.85 6.8V6.96L36 6.88C36.2445 6.74337 36.52 6.67164 36.8 6.67164C37.0801 6.67164 37.3555 6.74337 37.6 6.88C37.757 6.98989 37.8791 7.14256 37.9518 7.31984C38.0245 7.49712 38.0447 7.69155 38.01 7.88V8.07H38.19C38.5007 7.99098 38.8254 7.98415 39.1391 8.05002C39.4529 8.11588 39.7474 8.25271 40 8.45C40.1563 8.62236 40.271 8.8283 40.3351 9.05196C40.3993 9.27561 40.4112 9.511 40.37 9.74V9.92H40.55C40.7757 9.86796 41.0115 9.88176 41.2295 9.95975C41.4475 10.0377 41.6386 10.1767 41.78 10.36C41.8568 10.5141 41.9016 10.6821 41.9119 10.8539C41.9222 11.0257 41.8978 11.1978 41.84 11.36V11.5H41.98C42.1428 11.52 42.2982 11.5797 42.4325 11.6738C42.5668 11.768 42.6758 11.8937 42.75 12.04C42.8348 12.4197 42.807 12.8159 42.67 13.18V13.31L42.78 13.36C43.1143 13.4838 43.3918 13.7257 43.56 14.04C43.6639 14.2641 43.7177 14.508 43.7177 14.755C43.7177 15.002 43.6639 15.2459 43.56 15.47V15.56L43.63 15.63C44.16 16.09 44.69 16.52 45.21 16.9C46.21 17.66 47.9 18.07 49.01 17.15C49.2263 16.9577 49.3848 16.709 49.4678 16.4317C49.5508 16.1544 49.555 15.8595 49.48 15.58C49.4385 15.338 49.326 15.1138 49.1569 14.9357C48.9878 14.7577 48.7696 14.6339 48.53 14.58C47.68 14.39 47.02 15.19 46.47 16C46.4576 16.0062 46.4439 16.0094 46.43 16.0094C46.4162 16.0094 46.4025 16.0062 46.39 16C46.3602 15.9892 46.3353 15.9679 46.32 15.94C46.0647 15.4966 45.9179 14.999 45.8919 14.488C45.8658 13.977 45.9611 13.4671 46.17 13C46.3939 12.661 46.6887 12.3746 47.034 12.1606C47.3793 11.9465 47.7668 11.8098 48.17 11.76H48.29V11.64C48.2357 11.0885 48.2965 10.5317 48.4686 10.005C48.6407 9.4782 48.9205 8.99296 49.29 8.58C49.6263 8.29701 50.0225 8.09414 50.4486 7.98673C50.8748 7.87932 51.3198 7.87018 51.75 7.96C51.7693 7.95222 51.7908 7.95222 51.81 7.96C51.8201 7.98572 51.8201 8.01428 51.81 8.04C51.4204 8.81065 51.2017 9.65633 51.169 10.5192C51.1362 11.3822 51.29 12.242 51.62 13.04C51.62 13.2 51.71 13.38 51.76 13.56C52.0063 14.2871 52.098 15.0577 52.0291 15.8223C51.9602 16.5869 51.7323 17.3286 51.36 18ZM21.11 15.73C21.2276 15.8142 21.332 15.9153 21.42 16.03C21.4986 16.1597 21.5401 16.3084 21.5401 16.46C21.5401 16.6116 21.4986 16.7603 21.42 16.89C21.332 17.0047 21.2276 17.1058 21.11 17.19C20.94 17.32 20.78 17.45 20.78 17.67V19H5.00003V17.67C5.00003 17.45 4.84003 17.32 4.67003 17.19C4.55558 17.1056 4.45445 17.0045 4.37003 16.89C4.28574 16.7624 4.2408 16.6129 4.2408 16.46C4.2408 16.3071 4.28574 16.1576 4.37003 16.03C4.45445 15.9155 4.55558 15.8144 4.67003 15.73C4.84003 15.6 5.00003 15.47 5.00003 15.25V10.88C5.00003 10.66 4.84003 10.54 4.67003 10.4C4.5536 10.3219 4.45201 10.2237 4.37003 10.11C4.28241 9.98023 4.23701 9.82656 4.24003 9.67C4.23842 9.51675 4.28378 9.36668 4.37003 9.24C4.44905 9.14843 4.53984 9.06773 4.64003 9C4.81003 8.87 4.97003 8.74 4.97003 8.52V7.09H5.18003C5.95285 7.14442 6.72909 7.05629 7.47003 6.83C7.70591 6.72686 7.93045 6.59951 8.14003 6.45C8.68202 6.05535 9.32996 5.8324 10 5.81C10.6275 5.84412 11.2424 6.00038 11.81 6.27C12.1256 6.42165 12.4631 6.52288 12.81 6.57H12.92C13.2668 6.52208 13.6041 6.42089 13.92 6.27C14.4877 6.00038 15.1025 5.84412 15.73 5.81C16.3993 5.82907 17.0459 6.05627 17.58 6.46C17.7946 6.59852 18.0185 6.72215 18.25 6.83C18.9946 7.05552 19.7739 7.14362 20.55 7.09H20.75V8.47C20.75 8.69 20.91 8.82 21.08 8.95C21.1995 9.02781 21.3044 9.12596 21.39 9.24C21.4747 9.37065 21.5167 9.52443 21.51 9.68C21.5153 9.83227 21.4733 9.98244 21.39 10.11C21.3044 10.224 21.1995 10.3222 21.08 10.4C20.91 10.54 20.75 10.66 20.75 10.88V15.25C20.75 15.47 20.91 15.6 21.08 15.73H21.11ZM1.91003 2C1.91003 2 2.01003 23.84 1.91003 23.74H73.48V2H1.91003Z"
    fill="#990000"/>
  <path
    d="M26.56 14.79C26.8264 14.7879 27.085 14.88 27.29 15.05C27.3644 15.1083 27.4346 15.1718 27.5 15.24C27.5388 15.2756 27.5698 15.3189 27.591 15.3671C27.6122 15.4153 27.6231 15.4674 27.6231 15.52C27.6231 15.5727 27.6122 15.6248 27.591 15.673C27.5698 15.7212 27.5388 15.7644 27.5 15.8C27.32 15.95 27.12 16.09 26.99 16.18C26.7 16.38 26.2 16.74 25.86 16.46C25.68 16.31 26.03 16.07 25.86 15.46C25.69 14.85 26.2 14.78 26.56 14.78V14.79Z"
    fill="#011F5B"/>
  <path
    d="M26.68 7.74991C25.8926 8.58931 25.2535 9.5564 24.79 10.6099C24.4205 11.3162 24.1287 12.0606 23.92 12.8299V12.9099C23.78 13.4199 23.49 14.4999 23.92 14.9099C23.9791 14.9681 24.0427 15.0216 24.11 15.0699C24.181 15.1177 24.2479 15.1712 24.31 15.2299C25.09 15.9699 24.55 16.6099 24.15 17.0799C23.9227 17.2869 23.7654 17.5595 23.7 17.8599C23.7 18.4099 24.37 18.5999 24.57 18.6499C24.6179 18.6586 24.6616 18.683 24.6942 18.7192C24.7267 18.7554 24.7464 18.8014 24.75 18.8499C24.7544 18.99 24.7814 19.1284 24.83 19.2599C24.8724 19.3643 24.9297 19.4619 25 19.5499C25.1427 19.7294 25.3335 19.8646 25.55 19.9399C25.6969 19.9788 25.8481 19.999 26 19.9999C27.3302 19.9243 28.6016 19.4269 29.63 18.5799C30.2668 18.1476 30.7858 17.5633 31.14 16.8799C31.1978 16.7289 31.2348 16.5708 31.25 16.4099L30.25 16.2399C30.1868 16.2356 30.1272 16.2092 30.0814 16.1653C30.0357 16.1214 30.0069 16.0629 30 15.9999C30 15.7899 30.15 15.6699 30.51 15.4199L30.84 15.1899C31.37 14.7999 31.84 14.4799 32.06 14.3099C31.7922 13.9952 31.5482 13.6609 31.33 13.3099C31.2095 13.1112 31.0759 12.9208 30.93 12.7399C30.6763 12.4373 30.3266 12.2306 29.9391 12.1542C29.5516 12.0778 29.1497 12.1363 28.8 12.3199C28.515 12.524 28.2474 12.7514 28 12.9999C27.7803 13.206 27.5464 13.3965 27.3 13.5699C27.2529 13.598 27.1973 13.6083 27.1432 13.599C27.0891 13.5897 27.0402 13.5613 27.0052 13.5191C26.9701 13.4768 26.9514 13.4235 26.9523 13.3686C26.9532 13.3137 26.9737 13.261 27.01 13.2199L27.13 13.1199C27.46 12.7999 28.23 12.0699 28.23 11.5599C27.9902 10.1879 27.4619 8.88249 26.68 7.72991V7.74991ZM33.1 15.6099C34.88 15.6099 36.91 16.7199 38.5 17.6099L39.35 18.0699C42.07 19.4699 44.74 20.6899 47.62 20.1799C49.0255 19.8661 50.2651 19.0433 51.1 17.8699C51.4544 17.2303 51.6721 16.524 51.7392 15.7959C51.8063 15.0677 51.7215 14.3336 51.49 13.6399L51.34 13.1199C51.0326 12.3387 50.8832 11.5043 50.9003 10.6649C50.9175 9.82553 51.1009 8.99791 51.44 8.22991C51.0996 8.18945 50.7545 8.21915 50.426 8.31718C50.0975 8.41522 49.7926 8.5795 49.53 8.79991C49.1721 9.20517 48.9062 9.68324 48.7509 10.2012C48.5955 10.7191 48.5543 11.2645 48.63 11.7999C48.6308 11.8572 48.6111 11.9129 48.5744 11.9569C48.5378 12.0009 48.4865 12.0304 48.43 12.0399C48.0333 12.0564 47.6458 12.1654 47.2986 12.3581C46.9514 12.5508 46.6539 12.8219 46.43 13.1499C46.2538 13.5006 46.1571 13.8859 46.1467 14.2782C46.1363 14.6706 46.2126 15.0604 46.37 15.4199C46.81 14.8199 47.55 14.0099 48.5 14.2199C48.7961 14.2878 49.0661 14.4402 49.2774 14.6585C49.4886 14.8768 49.6319 15.1517 49.69 15.4499C49.7773 15.7869 49.7703 16.1414 49.6698 16.4747C49.5692 16.808 49.3791 17.1073 49.12 17.3399C47.88 18.3399 46.12 17.9299 44.93 17.0899C43.4311 15.9701 42.0566 14.6928 40.83 13.2799C40.59 12.9999 40.34 12.7199 40.11 12.4399C39.2438 11.3687 38.2723 10.3871 37.21 9.50991C35.7261 8.42855 33.9132 7.89493 32.08 7.99991C30.6345 8.04835 29.2189 8.42448 27.94 9.09991C28.3555 9.86723 28.6106 10.711 28.69 11.5799C28.6853 11.7093 28.6617 11.8373 28.62 11.9599C29.0577 11.733 29.5596 11.6618 30.043 11.7581C30.5265 11.8545 30.9628 12.1125 31.28 12.4899C31.4439 12.6861 31.5943 12.8933 31.73 13.1099C31.9698 13.5083 32.255 13.8774 32.58 14.2099C32.6256 14.2587 32.6507 14.3231 32.65 14.3899C32.647 14.4239 32.6365 14.4568 32.6192 14.4862C32.6019 14.5156 32.5783 14.5408 32.55 14.5599C32.55 14.5599 31.96 14.9799 31.13 15.5599L30.79 15.7999H30.73L31.46 15.9199C31.9639 15.6505 32.5289 15.5162 33.1 15.5299V15.6099ZM46.26 20.7299C43.79 20.7299 41.48 19.6599 39.15 18.4499L38.28 17.9999C36.4 16.9999 33.57 15.4199 31.73 16.3899C31.7154 16.622 31.6682 16.8509 31.59 17.0699C31.2017 17.8446 30.6238 18.5085 29.91 18.9999C28.7984 19.8972 27.4274 20.4126 26 20.4699C25.7661 20.474 25.5331 20.4402 25.31 20.3699C25.0103 20.2662 24.7466 20.0788 24.55 19.8299C24.4559 19.7074 24.3786 19.5729 24.32 19.4299C24.2728 19.3073 24.2392 19.1799 24.22 19.0499C23.9363 18.9973 23.6782 18.8518 23.4863 18.6364C23.2944 18.4209 23.1796 18.1478 23.16 17.8599C23.2121 17.4476 23.4109 17.0677 23.72 16.7899C24.16 16.2599 24.36 15.9899 23.91 15.5599L23.75 15.4299C23.6595 15.3689 23.5757 15.2985 23.5 15.2199C22.95 14.6299 23.25 13.4799 23.44 12.7899V12.7199C23.6541 11.9159 23.9559 11.1379 24.34 10.3999C24.8611 9.20774 25.6082 8.12783 26.54 7.21991C26.5978 7.19655 26.6623 7.19655 26.72 7.21991C26.7844 7.23106 26.8418 7.26695 26.88 7.31991C26.88 7.36991 27.3 7.95991 27.7 8.73991C29.0437 8.05332 30.522 7.67094 32.03 7.61991C33.9766 7.46987 35.9138 8.0117 37.5 9.14991C38.6013 10.0432 39.6067 11.0486 40.5 12.1499L41.22 12.9699C42.4136 14.3611 43.7548 15.6185 45.22 16.7199C46.22 17.4599 47.8 17.8499 48.85 16.9799C49.0447 16.8032 49.187 16.5762 49.2611 16.3239C49.3352 16.0717 49.3383 15.8038 49.27 15.5499C49.2303 15.3366 49.1299 15.1392 48.9809 14.9813C48.832 14.8235 48.6407 14.7119 48.43 14.6599C47.67 14.4999 47.04 15.2599 46.52 16.0299C46.4964 16.063 46.4647 16.0896 46.428 16.107C46.3912 16.1245 46.3506 16.1324 46.31 16.1299C46.2693 16.124 46.2306 16.1082 46.1975 16.0837C46.1643 16.0593 46.1377 16.0271 46.12 15.9899C45.866 15.52 45.728 14.9962 45.7176 14.4622C45.7071 13.9281 45.8246 13.3993 46.06 12.9199C46.2989 12.5624 46.6118 12.2604 46.9776 12.0344C47.3433 11.8083 47.7534 11.6636 48.18 11.6099C48.1097 11.0407 48.1626 10.4631 48.3352 9.91611C48.5077 9.36917 48.7958 8.86572 49.18 8.43991C49.5341 8.1456 49.9497 7.93444 50.3962 7.82195C50.8427 7.70946 51.3088 7.69851 51.76 7.78991C51.8066 7.77802 51.8558 7.78246 51.8995 7.80248C51.9432 7.82249 51.9786 7.85688 52 7.89991C52.0144 7.93128 52.0219 7.96539 52.0219 7.99991C52.0219 8.03442 52.0144 8.06853 52 8.09991C51.6183 8.85129 51.4029 9.67605 51.3684 10.5181C51.3339 11.3602 51.4811 12.1998 51.8 12.9799C51.8 13.1499 51.9 13.3199 51.94 13.4999C52.1967 14.2524 52.2902 15.0509 52.2144 15.8423C52.1385 16.6337 51.895 17.3999 51.5 18.0899C50.6028 19.3765 49.2527 20.2766 47.72 20.6099C47.2442 20.6895 46.7625 20.7297 46.28 20.7299H46.26Z"
    fill="#011F5B"/>
  <path
    d="M25.14 19.16C24.9236 19.1746 24.7064 19.1746 24.49 19.16C24.4601 19.1575 24.431 19.149 24.4046 19.135C24.3781 19.1209 24.3548 19.1015 24.336 19.0781C24.3173 19.0547 24.3036 19.0277 24.2957 18.9988C24.2877 18.9699 24.2858 18.9397 24.29 18.91C24.2975 18.8507 24.3278 18.7967 24.3745 18.7593C24.4211 18.722 24.4805 18.7043 24.54 18.71C25.2493 18.8017 25.9703 18.7214 26.6421 18.476C27.3139 18.2306 27.9168 17.8273 28.4 17.3C28.4456 17.2599 28.5043 17.2378 28.565 17.2378C28.6257 17.2378 28.6844 17.2599 28.73 17.3C28.7722 17.3445 28.7957 17.4036 28.7957 17.465C28.7957 17.5264 28.7722 17.5854 28.73 17.63C28.2685 18.1182 27.7118 18.5067 27.0944 18.7715C26.477 19.0364 25.8118 19.172 25.14 19.17V19.16Z"
    fill="#011F5B"/>
  <path
    d="M43.39 15.7499H43.3C43.2511 15.7242 43.2131 15.6818 43.1929 15.6304C43.1727 15.579 43.1717 15.522 43.19 15.4699C43.3042 15.2676 43.3723 15.0427 43.3896 14.8111C43.4069 14.5794 43.3729 14.3469 43.29 14.1299C43.2063 13.9813 43.093 13.8514 42.9571 13.7482C42.8212 13.645 42.6657 13.5707 42.5 13.5299C42.4419 13.5108 42.3923 13.4719 42.36 13.4199C42.3402 13.365 42.3402 13.3048 42.36 13.2499C42.5088 12.886 42.5604 12.4897 42.51 12.0999C42.41 11.8299 41.9 11.7199 41.74 11.6999C41.7072 11.6944 41.676 11.6818 41.6485 11.6631C41.6211 11.6444 41.598 11.6199 41.5809 11.5914C41.5637 11.5629 41.553 11.531 41.5494 11.4979C41.5458 11.4649 41.5494 11.4314 41.56 11.3999C41.699 11.1087 41.717 10.7743 41.61 10.4699C41.27 9.93989 40.39 10.1999 40.38 10.1999C40.343 10.2113 40.3034 10.2117 40.2661 10.2011C40.2288 10.1904 40.1954 10.1692 40.17 10.1399C40.1494 10.1088 40.1384 10.0722 40.1384 10.0349C40.1384 9.99754 40.1494 9.96102 40.17 9.92989C40.2384 9.70835 40.2524 9.47355 40.2106 9.24548C40.1688 9.01741 40.0725 8.80279 39.93 8.61989C39.28 7.99989 38 8.34989 38 8.35989C37.963 8.37133 37.9234 8.37174 37.8861 8.36109C37.8488 8.35044 37.8154 8.32917 37.79 8.29989C37.7694 8.26876 37.7584 8.23224 37.7584 8.19489C37.7584 8.15754 37.7694 8.12102 37.79 8.08989C37.79 8.08989 38 7.39989 37.56 7.08989C37.3111 6.96776 37.0329 6.91801 36.7571 6.94629C36.4813 6.97458 36.219 7.07978 36 7.24989C35.9678 7.2674 35.9317 7.27657 35.895 7.27657C35.8583 7.27657 35.8223 7.2674 35.79 7.24989C35.7557 7.2363 35.726 7.21298 35.7047 7.18278C35.6834 7.15259 35.6713 7.11683 35.67 7.07989C35.67 7.07989 35.55 6.17989 34.78 6.07989C34.1401 6.10255 33.5326 6.367 33.08 6.81989C33.0599 6.84169 33.0349 6.85848 33.0072 6.8689C32.9794 6.87931 32.9495 6.88308 32.92 6.87989C32.8891 6.87916 32.8587 6.87161 32.8311 6.85778C32.8034 6.84395 32.7792 6.82419 32.76 6.79989C32.6065 6.59256 32.4099 6.42087 32.1838 6.2966C31.9577 6.17233 31.7074 6.0984 31.45 6.07989C31.2302 6.09985 31.0202 6.18057 30.8436 6.31302C30.667 6.44547 30.5307 6.62443 30.45 6.82989C30.4405 6.86388 30.4212 6.89432 30.3946 6.91744C30.3679 6.94055 30.335 6.95531 30.3 6.95989C30.2652 6.96946 30.2285 6.96988 30.1935 6.96112C30.1584 6.95236 30.1262 6.93472 30.1 6.90989C29.9172 6.72718 29.6911 6.59375 29.4428 6.52205C29.1945 6.45036 28.9321 6.44273 28.68 6.49989C27.78 6.82989 27.53 7.92989 27.44 8.28989C27.4259 8.3424 27.3919 8.38737 27.3453 8.41535C27.2987 8.44332 27.243 8.45212 27.19 8.43989C27.1624 8.43529 27.1361 8.42495 27.1128 8.40954C27.0894 8.39413 27.0696 8.37399 27.0545 8.35043C27.0394 8.32687 27.0294 8.30041 27.0252 8.27276C27.021 8.24511 27.0227 8.21687 27.03 8.18989C27.091 7.74314 27.2606 7.31814 27.5238 6.95206C27.787 6.58597 28.1359 6.28996 28.54 6.08989C28.8194 6.00542 29.1153 5.99134 29.4015 6.04892C29.6876 6.10649 29.9551 6.23393 30.18 6.41989C30.3057 6.19714 30.4849 6.00919 30.7013 5.87301C30.9178 5.73683 31.1648 5.65671 31.42 5.63989C31.7217 5.64468 32.0188 5.7141 32.2914 5.84348C32.564 5.97286 32.8056 6.15919 33 6.38989C33.5129 5.91409 34.1905 5.65596 34.89 5.66989C35.1567 5.72984 35.4016 5.86248 35.5976 6.05312C35.7935 6.24375 35.9328 6.48492 36 6.74989C36.263 6.59805 36.5613 6.51812 36.865 6.51812C37.1687 6.51812 37.467 6.59805 37.73 6.74989C37.9087 6.8712 38.0489 7.04116 38.1339 7.23965C38.219 7.43814 38.2454 7.65686 38.21 7.86989C38.5422 7.78463 38.8897 7.7782 39.2248 7.85112C39.5599 7.92405 39.8733 8.0743 40.14 8.28989C40.3113 8.47814 40.4373 8.70304 40.5083 8.94741C40.5794 9.19178 40.5936 9.44916 40.55 9.69989C40.8032 9.64439 41.0671 9.66297 41.31 9.75341C41.553 9.84385 41.7647 10.0023 41.92 10.2099C42.0092 10.3758 42.0624 10.5586 42.0762 10.7464C42.09 10.9342 42.064 11.1228 42 11.2999C42.1843 11.3293 42.359 11.4017 42.5102 11.5111C42.6613 11.6206 42.7846 11.764 42.87 11.9299C42.9556 12.3429 42.928 12.7713 42.79 13.1699C43.1519 13.3084 43.453 13.5706 43.64 13.9099C43.7526 14.1838 43.8029 14.4793 43.7873 14.775C43.7717 15.0707 43.6907 15.3593 43.55 15.6199C43.5345 15.6577 43.5082 15.6902 43.4744 15.7132C43.4407 15.7363 43.4009 15.7491 43.36 15.7499H43.39Z"
    fill="#011F5B"/>
  <path
    d="M42.33 18.6799C42.3027 18.6775 42.2762 18.6695 42.2522 18.6565C42.2281 18.6434 42.207 18.6255 42.1901 18.604C42.1732 18.5824 42.161 18.5576 42.1541 18.5311C42.1472 18.5046 42.1458 18.477 42.15 18.4499C42.24 17.6299 41.77 17.4499 41.34 17.3499C41.2416 17.3276 41.1472 17.2905 41.06 17.2399C40.83 17.1099 40.83 16.8399 40.82 16.5599C40.8479 16.2365 40.7593 15.9137 40.57 15.6499C40.17 15.2099 39.39 15.4999 39.38 15.4999C39.3475 15.5166 39.3115 15.5253 39.275 15.5253C39.2385 15.5253 39.2025 15.5166 39.17 15.4999C39.1408 15.4765 39.1187 15.4453 39.1063 15.41C39.0939 15.3746 39.0917 15.3365 39.1 15.2999C39.1322 15.0672 39.1131 14.8302 39.044 14.6056C38.9749 14.381 38.8575 14.1743 38.7 13.9999C38.2496 13.7386 37.7151 13.6633 37.21 13.7899C37.1821 13.804 37.1512 13.8113 37.12 13.8113C37.0887 13.8113 37.0579 13.804 37.03 13.7899C37.0036 13.7682 36.9826 13.7406 36.9687 13.7094C36.9548 13.6781 36.9484 13.6441 36.95 13.6099C36.979 13.3683 36.9401 13.1233 36.8376 12.9025C36.7352 12.6817 36.5732 12.4938 36.37 12.3599C36.2132 12.2478 36.0285 12.181 35.8362 12.1669C35.6439 12.1528 35.4515 12.1919 35.28 12.2799C34.9644 12.5337 34.5647 12.6592 34.1606 12.6314C33.7566 12.6036 33.3779 12.4245 33.1 12.1299C32.9804 12.0315 32.8395 11.9622 32.6885 11.9275C32.5376 11.8928 32.3806 11.8936 32.23 11.9299C32.023 12.0059 31.8343 12.1243 31.6758 12.2776C31.5174 12.4309 31.3928 12.6156 31.31 12.8199C31.2842 12.8711 31.2394 12.9101 31.1853 12.9288C31.1311 12.9475 31.0718 12.9443 31.02 12.9199C30.9713 12.8942 30.934 12.8512 30.9155 12.7994C30.897 12.7475 30.8986 12.6906 30.92 12.6399C31.0293 12.3761 31.1939 12.1388 31.4026 11.9438C31.6113 11.7489 31.8593 11.601 32.13 11.5099C32.3407 11.4626 32.5592 11.4622 32.7701 11.5088C32.981 11.5555 33.1789 11.6481 33.35 11.7799C34.13 12.3399 34.35 12.3199 35.08 11.8999C35.3195 11.7804 35.5864 11.7266 35.8535 11.7442C36.1206 11.7618 36.3782 11.85 36.6 11.9999C36.8289 12.1529 37.0187 12.3575 37.1541 12.5971C37.2896 12.8368 37.367 13.1049 37.38 13.3799C37.6543 13.3292 37.936 13.3331 38.2089 13.3914C38.4817 13.4498 38.7404 13.5614 38.97 13.7199C39.1421 13.8855 39.2788 14.0843 39.3716 14.3044C39.4645 14.5244 39.5115 14.7611 39.51 14.9999C39.7445 14.9371 39.9914 14.9363 40.2263 14.9976C40.4612 15.059 40.6762 15.1804 40.85 15.3499C41.1129 15.6808 41.2414 16.0985 41.21 16.5199C41.1906 16.6324 41.1906 16.7474 41.21 16.8599L41.4 16.9299C41.576 16.9551 41.7451 17.0158 41.8969 17.1084C42.0487 17.201 42.1801 17.3236 42.283 17.4686C42.3859 17.6136 42.4582 17.7781 42.4955 17.9519C42.5328 18.1258 42.5344 18.3055 42.5 18.4799C42.4909 18.5294 42.465 18.5743 42.4268 18.6071C42.3886 18.6398 42.3403 18.6585 42.29 18.6599L42.33 18.6799Z"
    fill="#011F5B"/>
  <path
    d="M21.24 16.4699C21.2476 16.559 21.2228 16.6478 21.17 16.7199C21.1026 16.8087 21.0216 16.8863 20.93 16.9499C20.8021 17.0243 20.6943 17.1288 20.6159 17.2542C20.5375 17.3797 20.4908 17.5224 20.48 17.6699V18.6699H5.28001V17.6699C5.26159 17.5311 5.2114 17.3985 5.13335 17.2823C5.0553 17.1661 4.9515 17.0695 4.83001 16.9999C4.73612 16.9392 4.65467 16.8611 4.59001 16.7699C4.53449 16.6987 4.50613 16.6101 4.51001 16.5199C4.50709 16.4268 4.53524 16.3353 4.59001 16.2599C4.65112 16.1575 4.73285 16.069 4.83001 15.9999C4.9579 15.9255 5.06572 15.8211 5.14413 15.6956C5.22254 15.5702 5.26918 15.4275 5.28001 15.2799V10.8799C5.2693 10.7337 5.22262 10.5923 5.14411 10.4684C5.06561 10.3446 4.95771 10.242 4.83001 10.1699C4.73841 10.1063 4.65742 10.0287 4.59001 9.93991C4.53379 9.86525 4.50548 9.77326 4.51001 9.67991C4.50709 9.58677 4.53524 9.4953 4.59001 9.41991C4.65527 9.33197 4.73673 9.2573 4.83001 9.19991C4.9579 9.12552 5.06572 9.02107 5.14413 8.89561C5.22254 8.77015 5.26918 8.62746 5.28001 8.47991V7.47991C5.67001 7.47991 6.06001 7.47991 6.42001 7.47991V17.4799H12C12.0515 17.6767 12.1668 17.8509 12.3279 17.9752C12.4889 18.0995 12.6866 18.1669 12.89 18.1669C13.0934 18.1669 13.2911 18.0995 13.4522 17.9752C13.6132 17.8509 13.7285 17.6767 13.78 17.4799H19.32V7.47991C19.68 7.47991 20.06 7.47991 20.46 7.47991V8.47991C20.4708 8.62746 20.5175 8.77015 20.5959 8.89561C20.6743 9.02107 20.7821 9.12552 20.91 9.19991C21.0015 9.25964 21.0826 9.33396 21.15 9.41991C21.2019 9.49623 21.2266 9.58784 21.22 9.67991C21.2283 9.77214 21.2035 9.8643 21.15 9.93991C21.0799 10.0263 20.9993 10.1036 20.91 10.1699C20.7823 10.242 20.6744 10.3446 20.5959 10.4684C20.5174 10.5923 20.4707 10.7337 20.46 10.8799V15.2499C20.4708 15.3975 20.5175 15.5402 20.5959 15.6656C20.6743 15.7911 20.7821 15.8955 20.91 15.9699C21.0015 16.0296 21.0826 16.104 21.15 16.1899C21.2019 16.2662 21.2266 16.3578 21.22 16.4499L21.24 16.4699ZM7.62001 7.15991C7.87156 7.04852 8.11254 6.91465 8.34001 6.75991C8.81909 6.39645 9.39901 6.19034 10 6.16991C10.5799 6.20713 11.1471 6.35656 11.67 6.60991C11.9906 6.75048 12.3261 6.85447 12.67 6.91991V15.6999H12.62C12.034 15.7963 11.4582 15.947 10.9 16.1499L10.23 16.3599C9.5762 16.5217 8.90317 16.5924 8.23001 16.5699C7.81882 16.5616 7.4076 16.585 7.00001 16.6399V7.35991C7.23061 7.32061 7.45559 7.25345 7.67001 7.15991H7.62001ZM14.08 6.60991C14.6065 6.35651 15.1769 6.20711 15.76 6.16991C16.3599 6.19601 16.9382 6.40155 17.42 6.75991C17.6475 6.91465 17.8885 7.04852 18.14 7.15991C18.3544 7.25345 18.5794 7.32061 18.81 7.35991V16.6399C18.4022 16.5883 17.9909 16.5683 17.58 16.5799C16.9069 16.6019 16.2339 16.5312 15.58 16.3699L14.91 16.1599C14.3518 15.957 13.776 15.8063 13.19 15.7099V6.90991C13.5108 6.84698 13.8229 6.74628 14.12 6.60991H14.08ZM21.2 15.6099C21.03 15.4699 20.93 15.3799 20.93 15.2399V10.8799C20.93 10.7399 21.03 10.6599 21.2 10.5199C21.3322 10.4311 21.4473 10.3194 21.54 10.1899C21.6278 10.0379 21.674 9.86545 21.674 9.68991C21.674 9.51438 21.6278 9.34193 21.54 9.18991C21.4473 9.06045 21.3322 8.94867 21.2 8.85991C21.03 8.72991 20.93 8.63991 20.93 8.49991V6.99991H20.58C19.8244 7.05017 19.0659 6.96552 18.34 6.74991C18.115 6.64184 17.8978 6.5182 17.69 6.37991C17.1294 5.96629 16.4563 5.73265 15.76 5.70991C15.1125 5.74625 14.4778 5.90577 13.89 6.17991C13.5752 6.33173 13.2372 6.42975 12.89 6.46991H12.78C12.4328 6.42975 12.0948 6.33173 11.78 6.17991C11.2243 5.8971 10.6206 5.72074 10 5.65991C9.30332 5.68075 8.62975 5.91458 8.07001 6.32991C7.8622 6.4682 7.64501 6.59184 7.42001 6.69991C6.697 6.93179 5.93855 7.03337 5.18001 6.99991H4.83001V8.46991C4.83001 8.60991 4.73001 8.69991 4.55001 8.82991C4.42314 8.92164 4.31173 9.03304 4.22001 9.15991C4.11112 9.31056 4.05808 9.49442 4.07001 9.67991C4.05959 9.86214 4.1126 10.0423 4.22001 10.1899C4.31173 10.3168 4.42314 10.4282 4.55001 10.5199C4.73001 10.6599 4.83001 10.7399 4.83001 10.8799V15.2499C4.83001 15.3899 4.73001 15.4799 4.55001 15.6199C4.4257 15.7108 4.31464 15.8185 4.22001 15.9399C4.11187 16.0909 4.05891 16.2745 4.07001 16.4599C4.05959 16.6421 4.1126 16.8223 4.22001 16.9699C4.31173 17.0968 4.42314 17.2082 4.55001 17.2999C4.73001 17.4399 4.83001 17.5199 4.83001 17.6699V19.1499H20.94V17.6699C20.94 17.5199 21.04 17.4399 21.21 17.2999C21.3422 17.2111 21.4573 17.0994 21.55 16.9699C21.6491 16.8184 21.7013 16.641 21.7 16.4599C21.6988 16.2761 21.6469 16.0962 21.55 15.9399C21.4544 15.8158 21.3397 15.7078 21.21 15.6199L21.2 15.6099Z"
    fill="#011F5B"/>
  <path
    d="M70.87 16.4699C70.8738 16.5601 70.8455 16.6487 70.79 16.7199C70.7253 16.8111 70.6439 16.8892 70.55 16.9499C70.4221 17.0243 70.3143 17.1288 70.2358 17.2542C70.1574 17.3797 70.1108 17.5224 70.1 17.6699V18.6699H54.9V17.6699C54.8891 17.5224 54.8425 17.3797 54.7641 17.2542C54.6857 17.1288 54.5779 17.0243 54.45 16.9499C54.3584 16.8863 54.2774 16.8087 54.21 16.7199C54.1572 16.6478 54.1323 16.559 54.14 16.4699C54.1334 16.3778 54.158 16.2862 54.21 16.2099C54.2774 16.124 54.3585 16.0496 54.45 15.9899C54.5779 15.9155 54.6857 15.8111 54.7641 15.6856C54.8425 15.5602 54.8891 15.4175 54.9 15.2699V10.8799C54.8893 10.7337 54.8426 10.5923 54.7641 10.4684C54.6856 10.3446 54.5777 10.242 54.45 10.1699C54.3607 10.1036 54.28 10.0263 54.21 9.93991C54.1565 9.8643 54.1317 9.77214 54.14 9.67991C54.1334 9.58784 54.158 9.49623 54.21 9.41991C54.2774 9.33396 54.3585 9.25964 54.45 9.19991C54.5779 9.12552 54.6857 9.02107 54.7641 8.89561C54.8425 8.77015 54.8891 8.62746 54.9 8.47991V7.47991C55.3 7.47991 55.68 7.47991 56.05 7.47991V17.4799H61.58C61.635 17.6749 61.7522 17.8465 61.9138 17.9688C62.0753 18.091 62.2724 18.1572 62.475 18.1572C62.6776 18.1572 62.8746 18.091 63.0362 17.9688C63.1977 17.8465 63.3149 17.6749 63.37 17.4799H68.9V7.47991C69.26 7.47991 69.65 7.47991 70.04 7.47991V8.47991C70.0508 8.62746 70.0974 8.77015 70.1758 8.89561C70.2543 9.02107 70.3621 9.12552 70.49 9.19991C70.5832 9.2573 70.6647 9.33197 70.73 9.41991C70.7847 9.4953 70.8129 9.58677 70.81 9.67991C70.8145 9.77326 70.7862 9.86525 70.73 9.93991C70.6626 10.0287 70.5816 10.1063 70.49 10.1699C70.3623 10.242 70.2544 10.3446 70.1759 10.4684C70.0974 10.5923 70.0507 10.7337 70.04 10.8799V15.2499C70.0508 15.3975 70.0974 15.5402 70.1758 15.6656C70.2543 15.7911 70.3621 15.8955 70.49 15.9699C70.5832 16.0273 70.6647 16.102 70.73 16.1899C70.7847 16.2653 70.8129 16.3568 70.81 16.4499L70.87 16.4699ZM57.24 7.15991C57.4915 7.04852 57.7325 6.91465 57.96 6.75991C58.4418 6.40155 59.0201 6.19601 59.62 6.16991C60.2031 6.20711 60.7735 6.35651 61.3 6.60991C61.6198 6.7525 61.9555 6.85656 62.3 6.91991V15.6999C61.7175 15.7978 61.1451 15.9484 60.59 16.1499L59.91 16.3599C59.2562 16.5222 58.5831 16.5929 57.91 16.5699C57.499 16.5587 57.0879 16.5788 56.68 16.6299V7.35991C56.9106 7.32061 57.1355 7.25345 57.35 7.15991H57.24ZM63.71 6.60991C64.2329 6.35656 64.8001 6.20713 65.38 6.16991C65.9672 6.19842 66.532 6.40412 67 6.75991C67.2287 6.91255 67.4695 7.04633 67.72 7.15991C67.9379 7.25322 68.1662 7.32035 68.4 7.35991V16.6399C67.9921 16.5888 67.5809 16.5687 67.17 16.5799C66.4968 16.6029 65.8237 16.5322 65.17 16.3699L64.49 16.1599C63.9348 15.9584 63.3624 15.8078 62.78 15.7099V6.90991C63.1036 6.84564 63.4189 6.745 63.72 6.60991H63.71ZM70.83 15.6099C70.65 15.4699 70.55 15.3799 70.55 15.2399V10.8799C70.55 10.7399 70.65 10.6599 70.83 10.5199C70.9568 10.4282 71.0682 10.3168 71.16 10.1899C71.2674 10.0423 71.3204 9.86214 71.31 9.67991C71.3219 9.49442 71.2689 9.31056 71.16 9.15991C71.0682 9.03304 70.9568 8.92164 70.83 8.82991C70.65 8.69991 70.55 8.60991 70.55 8.46991V6.99991H70.2C69.4548 7.02865 68.7103 6.92713 68 6.69991C67.775 6.59184 67.5578 6.4682 67.35 6.32991C66.7893 5.91629 66.1163 5.68265 65.42 5.65991C64.7754 5.69505 64.1438 5.85465 63.56 6.12991C63.2452 6.28173 62.9072 6.37975 62.56 6.41991H62.45C62.1028 6.37975 61.7648 6.28173 61.45 6.12991C60.8622 5.85577 60.2275 5.69625 59.58 5.65991C58.8836 5.68265 58.2106 5.91629 57.65 6.32991C57.4422 6.4682 57.225 6.59184 57 6.69991C56.2898 6.92773 55.5452 7.02927 54.8 6.99991H54.45V8.46991C54.45 8.60991 54.35 8.69991 54.18 8.82991C54.0478 8.91868 53.9326 9.03045 53.84 9.15991C53.7522 9.31193 53.706 9.48438 53.706 9.65991C53.706 9.83545 53.7522 10.0079 53.84 10.1599C53.9326 10.2894 54.0478 10.4011 54.18 10.4899C54.35 10.6299 54.45 10.7099 54.45 10.8499V15.2199C54.45 15.3599 54.35 15.4499 54.18 15.5899C54.0503 15.6778 53.9355 15.7858 53.84 15.9099C53.7431 16.0662 53.6912 16.2461 53.69 16.4299C53.6887 16.611 53.7409 16.7884 53.84 16.9399C53.9326 17.0694 54.0478 17.1811 54.18 17.2699C54.35 17.4099 54.45 17.4899 54.45 17.6399V19.1199H70.56V17.6699C70.56 17.5199 70.66 17.4399 70.84 17.2999C70.9668 17.2082 71.0782 17.0968 71.17 16.9699C71.2774 16.8223 71.3304 16.6421 71.32 16.4599C71.3311 16.2745 71.2781 16.0909 71.17 15.9399C71.0753 15.8185 70.9643 15.7108 70.84 15.6199L70.83 15.6099Z"
    fill="#011F5B"/>
  <path
    d="M68.92 55.3099L37.69 25.1799L6.46002 55.3099C3.80295 49.7785 2.4353 43.7164 2.46002 37.5799V24.2199H72.96V37.5799C72.9847 43.7164 71.6171 49.7785 68.96 55.3099H68.92ZM59 58.4499C58.1317 59.3187 57.0252 59.9105 55.8204 60.1504C54.6157 60.3902 53.3669 60.2675 52.232 59.7975C51.0971 59.3276 50.1271 58.5317 49.4446 57.5104C48.762 56.4891 48.3978 55.2883 48.3978 54.0599C48.3978 52.8316 48.762 51.6308 49.4446 50.6095C50.1271 49.5882 51.0971 48.7923 52.232 48.3223C53.3669 47.8524 54.6157 47.7296 55.8204 47.9695C57.0252 48.2094 58.1317 48.8011 59 49.6699C59.5775 50.2459 60.0357 50.9301 60.3484 51.6834C60.661 52.4367 60.8219 53.2443 60.8219 54.0599C60.8219 54.8755 60.661 55.6831 60.3484 56.4365C60.0357 57.1898 59.5775 57.874 59 58.4499ZM31.48 38.6499C31.48 37.4217 31.8442 36.2211 32.5266 35.1998C33.209 34.1786 34.1788 33.3827 35.3136 32.9126C36.4483 32.4426 37.6969 32.3196 38.9015 32.5593C40.1062 32.7989 41.2127 33.3903 42.0812 34.2588C42.9496 35.1273 43.5411 36.2338 43.7807 37.4384C44.0203 38.643 43.8973 39.8917 43.4273 41.0264C42.9573 42.1611 42.1613 43.131 41.1401 43.8134C40.1189 44.4957 38.9182 44.8599 37.69 44.8599C36.043 44.8599 34.4635 44.2057 33.2989 43.0411C32.1343 41.8765 31.48 40.2969 31.48 38.6499ZM57.09 71.0499C48.71 78.8199 40 82.7399 37.69 83.3299C35.36 82.7399 26.69 78.8199 18.29 71.0499L17.67 70.4699L37.67 49.2199L57.67 70.4699L57.05 71.0499H57.09ZM16.43 58.4499C15.5612 57.5816 14.9695 56.4751 14.7296 55.2704C14.4897 54.0656 14.6125 52.8169 15.0824 51.6819C15.5523 50.547 16.3483 49.577 17.3696 48.8945C18.3909 48.212 19.5917 47.8477 20.82 47.8477C22.0484 47.8477 23.2491 48.212 24.2704 48.8945C25.2917 49.577 26.0877 50.547 26.5576 51.6819C27.0275 52.8169 27.1503 54.0656 26.9105 55.2704C26.6706 56.4751 26.0788 57.5816 25.21 58.4499C24.6341 59.0274 23.9499 59.4856 23.1965 59.7983C22.4432 60.1109 21.6356 60.2718 20.82 60.2718C20.0044 60.2718 19.1968 60.1109 18.4435 59.7983C17.6902 59.4856 17.006 59.0274 16.43 58.4499ZM72.94 2.44993V23.2099H2.44002V2.43993L72.94 2.44993ZM73.94 1.44993H1.43002V37.5799C1.38002 53.4199 10.2 64.9199 17.6 71.7899C25.67 79.2699 34.76 83.7299 37.6 84.3499H37.74C40.6 83.7299 49.74 79.2699 57.74 71.7899C65.18 64.9199 74 53.4199 74 37.5799V1.42993L73.94 1.44993Z"
    fill="#011F5B"/>
</svg>
