<svg width="337" height="210" viewBox="0 0 337 210" fill="none" xmlns="http://www.w3.org/2000/svg">
<path d="M0 12C0 5.37258 5.37258 0 12 0H325C331.627 0 337 5.37258 337 12V198C337 204.627 331.627 210 325 210H12C5.37258 210 0 204.627 0 198V12Z" fill="white"/>
<path d="M131.789 95.58C134.423 96.5063 137.213 96.9006 140 96.74C149.86 96.74 156.12 91.41 156.12 82.36C156.12 75.29 152.18 65.78 140 65.78H131.789V95.58ZM131.789 117.15C131.789 125.39 133.79 127.7 139.33 127.7V129.7H115.439V127.7C120.079 127.7 122.979 126.2 122.979 117.38V75.75C122.999 67.64 120.999 65.2 115.439 65.2V63.2H139.68C158 63.2 165.42 72.94 165.42 82.1C165.42 93.1 157.07 99.2599 142 99.2599C138.585 99.2575 135.174 99.027 131.789 98.57V117.15Z" fill="#011F5B"/>
<path d="M189.31 102.66C189.66 93.66 183.51 89.9 178.31 89.9C171.47 89.9 167.41 95 166.95 102.66H189.31ZM166.93 104.66C166.7 123.1 177.71 127.73 183.28 127.73C188.85 127.73 191.86 125.73 197.77 119.15V122.15C192.77 128.53 188.03 130.96 180.84 130.96C168 131 158.7 122 158.7 109.61C158.7 97.22 167.7 87.47 179.34 87.47C188.85 87.47 197.66 95.12 197.08 104.63L166.93 104.66Z" fill="#011F5B"/>
<path d="M241.61 120.75C241.61 126.08 242.77 127.75 248.56 127.75V129.75H226.65V127.75C232.21 127.75 233.72 126.48 233.72 122.65V101.15C233.72 94.54 228.97 91.76 224.56 91.76C220.5 91.76 216.91 94.31 212.85 99.76V119.82C212.85 126.08 213.66 127.7 219.85 127.7V129.7H198.12V127.7C203.57 127.7 204.96 127.24 204.96 119.82V96.74C204.96 91.74 203.69 90.74 198.12 90.74V88.74L210.88 87.47H212.88V95.7C217.75 90.13 222.5 87.47 227.72 87.47C234.56 87.47 241.64 92.34 241.64 102.19V120.75H241.61Z" fill="#011F5B"/>
<path d="M291.82 120.75C291.82 126.08 292.98 127.75 298.82 127.75V129.75H276.86V127.75C282.42 127.75 283.93 126.48 283.93 122.65V101.15C283.93 94.54 279.18 91.76 274.77 91.76C270.71 91.76 267.12 94.31 263.06 99.76V119.82C263.06 126.08 263.87 127.7 270.06 127.7V129.7H248.33V127.7C253.78 127.7 255.17 127.24 255.17 119.82V96.74C255.17 91.74 253.9 90.74 248.33 90.74V88.74L261.09 87.47H263.09V95.7C267.96 90.13 272.71 87.47 277.93 87.47C284.77 87.47 291.85 92.34 291.85 102.19V120.75H291.82Z" fill="#011F5B"/>
<path d="M117.8 141.47C117.8 143.31 118.3 144.72 120.26 144.72C122.06 144.72 123.01 143.51 123.01 141.4V137.75C122.996 137.509 122.97 137.268 122.93 137.03C122.86 136.56 122.41 136.38 121.8 136.31V136H124.9V136.34C124.27 136.41 123.84 136.59 123.77 137.06C123.725 137.298 123.698 137.538 123.69 137.78V141.48C123.69 144.31 121.89 145.37 120.19 145.37C117.39 145.37 116.52 143.94 116.52 141.56V137.61C116.52 136.39 116.52 136.46 115.39 136.31V136H118.93V136.34C117.74 136.49 117.8 136.42 117.8 137.64V141.5V141.47Z" fill="#011F5B"/>
<path d="M132.35 145.18L127.41 139.32V143.81C127.417 143.991 127.437 144.172 127.47 144.35C127.47 144.72 127.86 144.86 128.53 144.91V145.18H126.05V144.91C126.53 144.91 126.87 144.72 126.92 144.35C126.952 144.172 126.973 143.991 126.98 143.81V139C126.858 138.794 126.686 138.623 126.479 138.503C126.273 138.382 126.039 138.316 125.8 138.31V138.04H127.65C129.16 139.88 130.74 141.75 132.25 143.58V139.44C132.242 139.256 132.222 139.072 132.19 138.89C132.19 138.53 131.79 138.39 131.12 138.34V138.07H133.61V138.34C133.13 138.34 132.79 138.53 132.74 138.89C132.699 139.071 132.676 139.255 132.67 139.44V145.18H132.35Z" fill="#011F5B"/>
<path d="M137.56 143.91C137.56 144.85 137.56 144.8 138.43 144.91V145.18H135.7V144.91C136.61 144.8 136.57 144.85 136.57 143.91V139.34C136.57 138.4 136.57 138.45 135.7 138.34V138.07H138.43V138.34C137.52 138.45 137.56 138.4 137.56 139.34V143.91Z" fill="#011F5B"/>
<path d="M142.75 138.34C142.2 138.34 141.75 138.5 142.12 139.47C142.52 140.67 143.12 142.47 143.64 143.96C144.29 142.41 144.91 140.84 145.54 139.29C145.79 138.65 145.54 138.29 144.83 138.29V138.02H147V138.29C146.811 138.284 146.625 138.341 146.472 138.451C146.318 138.561 146.205 138.719 146.15 138.9C145.3 140.98 144.44 143.05 143.59 145.13H143.07C142.45 143.37 141.76 141.41 141.14 139.69C140.76 138.6 140.45 138.29 139.96 138.29V138.02H142.72V138.29L142.75 138.34Z" fill="#011F5B"/>
<path d="M148.59 144.91C149.5 144.8 149.46 144.85 149.46 143.91V139.34C149.46 138.4 149.46 138.45 148.59 138.34V138.07H153.13V139.71H152.86C152.76 138.96 152.56 138.4 151.86 138.4H150.48V141.3H151.33C151.97 141.3 152.24 141.05 152.26 140.42H152.53V142.58H152.26C152.26 141.98 152.01 141.58 151.33 141.58H150.48V143.88C150.48 144.74 150.87 144.81 151.79 144.81C153.26 144.81 153.19 144.4 153.66 143.31H153.92L153.61 145.14H148.61V144.87L148.59 144.91Z" fill="#011F5B"/>
<path d="M157.3 141.71H158.14C159.03 141.71 159.43 141.04 159.43 139.89C159.43 138.74 158.82 138.4 158.08 138.4H157.3V141.71ZM155.44 138.07H158.44C158.686 138.045 158.935 138.071 159.171 138.146C159.407 138.22 159.625 138.342 159.812 138.504C160 138.666 160.152 138.865 160.26 139.087C160.368 139.31 160.429 139.553 160.44 139.8C160.444 140.252 160.308 140.693 160.05 141.064C159.792 141.435 159.425 141.717 159 141.87L160 143.38C160.389 144.006 160.871 144.569 161.43 145.05V145.18H160.43C159.83 145.18 159.5 144.07 158.27 142.03H157.27V143.91C157.27 144.85 157.27 144.8 158.14 144.91V145.18H155.41V144.91C156.33 144.8 156.28 144.85 156.28 143.91V139.34C156.28 138.4 156.28 138.45 155.41 138.34V138.07H155.44Z" fill="#011F5B"/>
<path d="M166.48 139.58C166.48 139.412 166.447 139.246 166.382 139.092C166.318 138.937 166.224 138.797 166.105 138.678C165.986 138.56 165.844 138.467 165.689 138.404C165.534 138.341 165.368 138.309 165.2 138.31C165.059 138.293 164.916 138.306 164.78 138.349C164.645 138.391 164.52 138.462 164.414 138.557C164.308 138.652 164.223 138.768 164.166 138.897C164.108 139.027 164.079 139.168 164.08 139.31C164.08 140.02 164.79 140.45 165.81 141.21C166.83 141.97 167.23 142.53 167.23 143.37C167.23 144.58 165.99 145.25 164.77 145.25C164.169 145.28 163.569 145.195 163 145C162.973 144.986 162.951 144.964 162.937 144.937C162.922 144.911 162.917 144.88 162.92 144.85V143.37H163.19C163.19 143.581 163.232 143.791 163.315 143.985C163.398 144.18 163.519 144.355 163.671 144.502C163.823 144.649 164.003 144.763 164.201 144.838C164.398 144.913 164.609 144.948 164.82 144.94C164.991 144.944 165.16 144.914 165.319 144.851C165.478 144.789 165.623 144.695 165.745 144.576C165.867 144.457 165.964 144.314 166.03 144.157C166.096 144 166.13 143.831 166.13 143.66C166.13 143 165.78 142.46 164.25 141.45C163.889 141.288 163.582 141.025 163.366 140.694C163.15 140.362 163.033 139.976 163.03 139.58C163.03 138.67 164.03 137.95 165.21 137.95C165.69 137.943 166.169 138.007 166.63 138.14C166.653 138.147 166.673 138.162 166.685 138.182C166.698 138.202 166.703 138.226 166.7 138.25V139.58H166.48Z" fill="#011F5B"/>
<path d="M170.91 143.91C170.91 144.85 170.91 144.8 171.78 144.91V145.18H169.05V144.91C169.97 144.8 169.93 144.85 169.93 143.91V139.34C169.93 138.4 169.93 138.45 169.05 138.34V138.07H171.78V138.34C170.87 138.45 170.91 138.4 170.91 139.34V143.91Z" fill="#011F5B"/>
<path d="M176.8 143.91C176.8 144.85 176.8 144.8 177.67 144.91V145.18H174.94V144.91C175.86 144.8 175.81 144.85 175.81 143.91V138.4H174.9C174.02 138.4 173.81 138.96 173.48 139.63H173.23L173.5 138.07H179.11L179.39 139.63H179.13C178.8 138.96 178.6 138.4 177.71 138.4H176.8V143.91Z" fill="#011F5B"/>
<path d="M182.34 144.91C183.25 144.8 183.22 144.85 183.22 143.91V142.35L181.65 139.25C181.32 138.59 181.03 138.34 180.57 138.34V138.07H183.15V138.34C182.38 138.34 182.45 138.72 182.71 139.25L183.94 141.8L185.34 139.25C185.68 138.63 185.34 138.34 184.76 138.34V138.07H186.85V138.34C186.56 138.34 186.29 138.47 186.02 138.96L184.32 142C184.228 142.235 184.187 142.488 184.2 142.74V143.88C184.2 144.82 184.2 144.77 185.07 144.88V145.15H182.34V144.88V144.91Z" fill="#011F5B"/>
<path d="M196.07 140.18C196.07 138.81 195.25 138.76 195.07 138.76C193.64 138.76 192.71 141.31 192.71 143.02C192.71 143.7 192.83 144.94 193.8 144.94C195.3 144.94 196.1 142.47 196.1 140.18H196.07ZM191.47 142.75C191.47 141.02 192.96 138.44 195.15 138.44C196.9 138.44 197.28 139.63 197.28 140.81C197.28 142.26 196.13 145.34 193.61 145.34C191.93 145.34 191.47 143.98 191.47 142.75Z" fill="#011F5B"/>
<path d="M203.9 138.88L203.59 139.15H201.86C201.239 142.297 200.424 145.403 199.42 148.45H198.82L200.71 139.15H199.46L199.57 138.6H200.81C200.964 137.755 201.402 136.989 202.051 136.427C202.701 135.865 203.522 135.542 204.38 135.51C204.771 135.487 205.162 135.57 205.51 135.75L205.35 136.61L205.02 136.77C204.912 136.551 204.747 136.366 204.543 136.232C204.339 136.099 204.104 136.022 203.86 136.01C203.07 136.01 202.48 136.55 202.16 138.01L202.02 138.64H204L203.94 138.92L203.9 138.88Z" fill="#011F5B"/>
<path d="M211.93 143.53C211.93 144.76 211.87 144.69 213.06 144.84V145.18H209.52V144.84C210.7 144.69 210.65 144.76 210.65 143.53V137.61C210.65 136.39 210.65 136.46 209.52 136.31V136H213C215.18 136 216.26 136.87 216.26 138.45C216.26 140.34 214.55 141.37 212.54 141.25V141C212.865 141.039 213.195 141.003 213.505 140.896C213.815 140.788 214.096 140.612 214.327 140.379C214.558 140.147 214.734 139.865 214.84 139.555C214.946 139.245 214.98 138.915 214.94 138.59C214.985 138.294 214.959 137.992 214.865 137.708C214.771 137.424 214.611 137.167 214.399 136.956C214.186 136.746 213.927 136.588 213.642 136.497C213.358 136.406 213.055 136.383 212.76 136.43H211.96V143.57L211.93 143.53Z" fill="#011F5B"/>
<path d="M218 144.91C218.92 144.8 218.88 144.85 218.88 143.91V139.34C218.88 138.4 218.88 138.45 218 138.34V138.07H222.54V139.71H222.28C222.17 138.96 221.97 138.4 221.28 138.4H219.9V141.3H220.75C221.39 141.3 221.67 141.05 221.69 140.42H222V142.58H221.74C221.74 141.98 221.48 141.58 220.8 141.58H219.95V143.88C219.95 144.74 220.35 144.81 221.26 144.81C222.73 144.81 222.66 144.4 223.13 143.31H223.39L223.09 145.14H218.09V144.87L218 144.91Z" fill="#011F5B"/>
<path d="M231.4 145.18L226.46 139.32V143.81C226.467 143.991 226.487 144.172 226.52 144.35C226.52 144.72 226.91 144.86 227.58 144.91V145.18H225.1V144.91C225.58 144.91 225.92 144.72 225.97 144.35C226.003 144.172 226.023 143.991 226.03 143.81V139C225.908 138.794 225.736 138.623 225.529 138.503C225.323 138.382 225.089 138.316 224.85 138.31V138.04H226.7C228.21 139.88 229.79 141.75 231.3 143.58V139.44C231.292 139.256 231.272 139.072 231.24 138.89C231.24 138.53 230.84 138.39 230.17 138.34V138.07H232.66V138.34C232.18 138.34 231.84 138.53 231.79 138.89C231.754 139.072 231.731 139.255 231.72 139.44V145.18H231.4Z" fill="#011F5B"/>
<path d="M240.5 145.18C238.88 143.27 237.21 141.27 235.55 139.32V143.81C235.557 143.991 235.577 144.172 235.61 144.35C235.61 144.72 236.01 144.86 236.68 144.91V145.18H234.19V144.91C234.68 144.91 235.01 144.72 235.06 144.35C235.101 144.173 235.125 143.992 235.13 143.81V139C235.007 138.795 234.835 138.624 234.628 138.504C234.422 138.383 234.189 138.317 233.95 138.31V138.04H235.8C237.31 139.88 238.88 141.75 240.39 143.58V139.44C240.379 139.255 240.356 139.072 240.32 138.89C240.32 138.53 239.93 138.39 239.26 138.34V138.07H241.74V138.34C241.27 138.34 240.92 138.53 240.87 138.89C240.838 139.072 240.818 139.256 240.81 139.44V145.18H240.5Z" fill="#011F5B"/>
<path d="M247.1 139.58C247.101 139.412 247.069 139.245 247.005 139.09C246.941 138.935 246.847 138.794 246.728 138.675C246.608 138.557 246.467 138.464 246.311 138.401C246.155 138.338 245.988 138.307 245.82 138.31C245.68 138.295 245.538 138.309 245.403 138.352C245.269 138.395 245.146 138.467 245.041 138.561C244.936 138.655 244.852 138.771 244.795 138.9C244.738 139.029 244.709 139.169 244.71 139.31C244.71 140.02 245.42 140.45 246.43 141.21C247.44 141.97 247.86 142.53 247.86 143.37C247.86 144.58 246.62 145.25 245.4 145.25C244.805 145.252 244.215 145.143 243.66 144.93C243.637 144.913 243.618 144.89 243.606 144.864C243.593 144.838 243.588 144.809 243.59 144.78V143.37H243.86C243.86 143.581 243.902 143.791 243.985 143.985C244.068 144.18 244.189 144.355 244.341 144.502C244.493 144.649 244.673 144.763 244.871 144.838C245.068 144.913 245.279 144.948 245.49 144.94C245.661 144.944 245.83 144.914 245.989 144.851C246.148 144.789 246.293 144.695 246.415 144.576C246.537 144.457 246.634 144.314 246.7 144.157C246.766 144 246.8 143.831 246.8 143.66C246.8 143 246.45 142.46 244.92 141.45C244.557 141.29 244.247 141.028 244.029 140.697C243.811 140.365 243.693 139.977 243.69 139.58C243.69 138.67 244.69 137.95 245.87 137.95C246.353 137.942 246.835 138.006 247.3 138.14C247.323 138.147 247.343 138.162 247.355 138.182C247.368 138.202 247.373 138.226 247.37 138.25V139.58H247.1Z" fill="#011F5B"/>
<path d="M251.19 144.91C252.11 144.8 252.07 144.85 252.07 143.91V142.35L250.5 139.25C250.17 138.59 249.89 138.34 249.42 138.34V138.07H252V138.34C251.23 138.34 251.3 138.72 251.55 139.25L252.78 141.8L254.18 139.25C254.52 138.63 254.18 138.34 253.6 138.34V138.07H255.69V138.34C255.41 138.34 255.13 138.47 254.86 138.96L253.17 142C253.078 142.235 253.037 142.488 253.05 142.74V143.88C253.05 144.82 253.05 144.77 253.92 144.88V145.15H251.19V144.88V144.91Z" fill="#011F5B"/>
<path d="M257.36 144.91C258.28 144.8 258.24 144.85 258.24 143.91V139.34C258.24 138.4 258.24 138.45 257.36 138.34V138.07H260.1V138.34C259.18 138.45 259.22 138.4 259.22 139.34V144.07C259.22 144.78 259.62 144.85 260.52 144.85C261.99 144.85 261.93 144.44 262.4 143.35H262.66L262.35 145.18H257.35V144.91H257.36Z" fill="#011F5B"/>
<path d="M266.2 138.34C265.64 138.34 265.2 138.5 265.57 139.47C265.96 140.67 266.57 142.47 267.08 143.96C267.73 142.41 268.35 140.84 268.98 139.29C269.23 138.65 268.98 138.29 268.28 138.29V138.02H270.47V138.29C270.282 138.285 270.098 138.342 269.946 138.452C269.794 138.562 269.683 138.72 269.63 138.9C268.77 140.98 267.91 143.05 267.06 145.13H266.54C265.92 143.37 265.23 141.41 264.61 139.69C264.24 138.6 263.92 138.29 263.44 138.29V138.02H266.2V138.29V138.34Z" fill="#011F5B"/>
<path d="M274.61 142.44L273.54 139.14L272.33 142.44H274.61ZM272.16 142.82L271.69 144.18C271.65 144.262 271.633 144.352 271.64 144.443C271.648 144.533 271.679 144.62 271.731 144.695C271.783 144.769 271.854 144.828 271.936 144.866C272.019 144.904 272.11 144.919 272.2 144.91V145.18H270.35V144.91C270.506 144.903 270.657 144.852 270.786 144.764C270.915 144.675 271.017 144.553 271.08 144.41C271.52 143.51 272.7 140.19 273.55 137.95H274.12C274.81 139.95 275.84 143.12 276.19 144.02C276.41 144.59 276.57 144.91 277.01 144.91V145.18H274.64V144.91C275.28 144.91 275.34 144.58 275.18 144.13L274.74 142.82H272.16Z" fill="#011F5B"/>
<path d="M284.82 145.18L279.88 139.32V143.81C279.887 143.991 279.907 144.172 279.94 144.35C279.99 144.72 280.34 144.86 281.01 144.91V145.18H278.52V144.91C279.01 144.91 279.34 144.72 279.39 144.35C279.423 144.172 279.443 143.991 279.45 143.81V139C279.33 138.795 279.16 138.623 278.955 138.502C278.75 138.382 278.518 138.315 278.28 138.31V138.04H280.12C281.64 139.88 283.21 141.75 284.72 143.58V139.44C284.712 139.256 284.692 139.072 284.66 138.89C284.61 138.53 284.27 138.39 283.6 138.34V138.07H286.08V138.34C285.61 138.34 285.26 138.53 285.21 138.89C285.178 139.072 285.158 139.256 285.15 139.44V145.18H284.82Z" fill="#011F5B"/>
<path d="M289.62 143.91C289.62 144.85 289.62 144.8 290.5 144.91V145.18H287.77V144.91C288.68 144.8 288.64 144.85 288.64 143.91V139.34C288.64 138.4 288.64 138.45 287.77 138.34V138.07H290.5V138.34C289.59 138.45 289.62 138.4 289.62 139.34V143.91Z" fill="#011F5B"/>
<path d="M296.32 142.44L295.25 139.14L294 142.44H296.32ZM293.87 142.82L293.4 144.18C293.36 144.262 293.343 144.352 293.351 144.443C293.358 144.533 293.389 144.62 293.441 144.695C293.493 144.769 293.564 144.828 293.646 144.866C293.729 144.904 293.82 144.919 293.91 144.91V145.18H292.06V144.91C292.216 144.903 292.367 144.852 292.496 144.764C292.625 144.675 292.727 144.553 292.79 144.41C293.23 143.51 294.42 140.19 295.26 137.95H295.83C296.52 139.95 297.55 143.12 297.9 144.02C298.12 144.59 298.28 144.91 298.72 144.91V145.18H296.36V144.91C296.99 144.91 297.05 144.58 296.89 144.13L296.46 142.82H293.87Z" fill="#011F5B"/>
<path d="M107.38 61H32V98.57C32 114.93 41 126.78 48.63 133.84C57 141.6 66.23 146.07 69.31 146.75L69.69 146.83L70.07 146.74C73.15 146.07 82.38 141.6 90.75 133.84C98.36 126.78 107.43 114.93 107.38 98.57V61Z" fill="white"/>
<path d="M102.74 76.73C102.855 76.8144 102.956 76.9155 103.04 77.03C103.124 77.1576 103.169 77.3071 103.169 77.46C103.169 77.6129 103.124 77.7624 103.04 77.89C102.956 78.0045 102.855 78.1056 102.74 78.19C102.57 78.32 102.41 78.45 102.41 78.67V80H86.6001V78.67C86.6001 78.45 86.4401 78.32 86.2701 78.19C86.1526 78.1058 86.0481 78.0047 85.9601 77.89C85.8815 77.7532 85.8435 77.5968 85.8506 77.4392C85.8577 77.2815 85.9096 77.1292 86.0001 77C86.0882 76.8853 86.1926 76.7842 86.3101 76.7C86.4801 76.57 86.6401 76.44 86.6401 76.22V71.88C86.6401 71.66 86.4801 71.54 86.3101 71.4C86.1906 71.3222 86.0857 71.224 86.0001 71.11C85.9154 70.9793 85.8735 70.8256 85.8801 70.67C85.8749 70.5177 85.9168 70.3676 86.0001 70.24C86.0777 70.147 86.1687 70.0662 86.2701 70C86.4401 69.87 86.6001 69.74 86.6001 69.52V68.09H86.8001C87.5762 68.1436 88.3556 68.0555 89.1001 67.83C89.3338 67.7225 89.5579 67.5954 89.7701 67.45C90.3076 67.0539 90.9528 66.8307 91.6201 66.81C92.2507 66.8453 92.8685 67.0015 93.4401 67.27C93.7553 67.4227 94.0929 67.524 94.4401 67.57H94.5501C94.8971 67.5229 95.2345 67.4216 95.5501 67.27C96.1178 67.0004 96.7326 66.8441 97.3601 66.81C98.0321 66.8309 98.6814 67.0578 99.2201 67.46C99.4322 67.6027 99.6564 67.7264 99.8901 67.83C100.631 68.0563 101.407 68.1444 102.18 68.09H102.39V69.47C102.39 69.69 102.55 69.82 102.72 69.95C102.834 70.0308 102.936 70.1286 103.02 70.24C103.108 70.3698 103.153 70.5234 103.15 70.68C103.152 70.8333 103.106 70.9833 103.02 71.11C102.938 71.2237 102.837 71.3219 102.72 71.4C102.55 71.54 102.39 71.66 102.39 71.88V76.25C102.39 76.47 102.55 76.6 102.72 76.73H102.74ZM83.3601 79C82.4844 80.2495 81.1708 81.124 79.6801 81.45C79.211 81.5301 78.736 81.5702 78.2601 81.57C75.8001 81.57 73.5201 80.5 71.2601 79.31L70.4001 78.84C68.9301 78.04 66.8701 76.91 65.1301 76.91C64.6377 76.8985 64.15 77.0084 63.7101 77.23H63.6401V77.31C63.6321 77.5281 63.5917 77.7438 63.5201 77.95C63.1346 78.6896 62.5752 79.3244 61.8901 79.8C60.7961 80.7225 59.4294 81.26 58.0001 81.33C57.7826 81.335 57.5658 81.3011 57.3601 81.23C57.0855 81.1407 56.8424 80.9741 56.6601 80.75C56.5785 80.6337 56.5081 80.5098 56.4501 80.38C56.4084 80.2667 56.3783 80.1494 56.3601 80.03V79.94H56.2701C56.009 79.9046 55.7676 79.7814 55.5859 79.5905C55.4041 79.3996 55.2927 79.1526 55.2701 78.89C55.3234 78.5046 55.5111 78.1504 55.8001 77.89C56.2001 77.41 56.5401 77 55.9801 76.47L55.8001 76.33C55.7166 76.2717 55.6395 76.2047 55.5701 76.13C55.0801 75.6 55.3701 74.5 55.5701 73.84V73.76C55.7893 72.9705 56.0909 72.2063 56.4701 71.48C56.9761 70.3012 57.7102 69.234 58.6301 68.34H58.7001C58.7001 68.34 58.7501 68.34 58.7601 68.34L59.0301 68.77L59.1901 69.04L59.2801 68.75C59.3646 68.4161 59.5249 68.1061 59.7486 67.8442C59.9724 67.5823 60.2535 67.3756 60.5701 67.24C60.8281 67.1657 61.1003 67.1551 61.3633 67.2091C61.6263 67.2631 61.8723 67.3801 62.0801 67.55L62.2001 67.64L62.2901 67.51C62.3988 67.3073 62.5582 67.1363 62.7528 67.0136C62.9473 66.8909 63.1704 66.8207 63.4001 66.81C63.6698 66.8201 63.9346 66.8847 64.1786 66.9998C64.4227 67.115 64.6409 67.2783 64.8201 67.48L64.9101 67.57L65.0101 67.49C65.4929 67.04 66.1302 66.7929 66.7901 66.8C67.0445 66.8466 67.2799 66.9659 67.468 67.1433C67.656 67.3208 67.7888 67.5488 67.8501 67.8V67.96L68.0001 67.88C68.2446 67.7434 68.5201 67.6716 68.8001 67.6716C69.0802 67.6716 69.3556 67.7434 69.6001 67.88C69.7571 67.9899 69.8792 68.1426 69.9519 68.3198C70.0246 68.4971 70.0448 68.6916 70.0101 68.88V69.07H70.1901C70.5008 68.991 70.8255 68.9842 71.1392 69.05C71.453 69.1159 71.7475 69.2527 72.0001 69.45C72.1564 69.6224 72.2711 69.8283 72.3352 70.052C72.3994 70.2756 72.4113 70.511 72.3701 70.74V70.92H72.5501C72.7758 70.868 73.0116 70.8818 73.2296 70.9598C73.4476 71.0377 73.6387 71.1767 73.7801 71.36C73.8569 71.5141 73.9017 71.6821 73.912 71.8539C73.9223 72.0257 73.8979 72.1978 73.8401 72.36V72.5H73.9801C74.1429 72.52 74.2983 72.5797 74.4326 72.6738C74.5669 72.768 74.6759 72.8937 74.7501 73.04C74.8349 73.4197 74.8071 73.8159 74.6701 74.18V74.31L74.7801 74.36C75.1144 74.4838 75.3919 74.7257 75.5601 75.04C75.664 75.2641 75.7178 75.508 75.7178 75.755C75.7178 76.002 75.664 76.2459 75.5601 76.47V76.56L75.6301 76.63C76.1601 77.09 76.6901 77.52 77.2101 77.9C78.2101 78.66 79.9001 79.07 81.0101 78.15C81.2264 77.9577 81.3849 77.709 81.4679 77.4317C81.5509 77.1544 81.5551 76.8595 81.4801 76.58C81.4386 76.338 81.3261 76.1138 81.157 75.9357C80.9879 75.7577 80.7697 75.6339 80.5301 75.58C79.6801 75.39 79.0201 76.19 78.4701 77C78.4577 77.0062 78.444 77.0094 78.4301 77.0094C78.4163 77.0094 78.4026 77.0062 78.3901 77C78.3603 76.9892 78.3354 76.9679 78.3201 76.94C78.0648 76.4966 77.918 75.999 77.892 75.488C77.8659 74.977 77.9612 74.4671 78.1701 74C78.394 73.661 78.6888 73.3746 79.0341 73.1606C79.3794 72.9465 79.7669 72.8098 80.1701 72.76H80.2901V72.64C80.2358 72.0885 80.2966 71.5317 80.4687 71.005C80.6408 70.4782 80.9206 69.993 81.2901 69.58C81.6264 69.297 82.0226 69.0941 82.4487 68.9867C82.8749 68.8793 83.3199 68.8702 83.7501 68.96C83.7694 68.9522 83.7909 68.9522 83.8101 68.96C83.8202 68.9857 83.8202 69.0143 83.8101 69.04C83.4205 69.8106 83.2018 70.6563 83.1691 71.5192C83.1363 72.3822 83.2901 73.242 83.6201 74.04C83.6201 74.2 83.7101 74.38 83.7601 74.56C84.0064 75.2871 84.0981 76.0577 84.0292 76.8223C83.9603 77.5869 83.7324 78.3286 83.3601 79ZM53.1101 76.73C53.2277 76.8142 53.3321 76.9153 53.4201 77.03C53.4987 77.1597 53.5402 77.3084 53.5402 77.46C53.5402 77.6116 53.4987 77.7603 53.4201 77.89C53.3321 78.0047 53.2277 78.1058 53.1101 78.19C52.9401 78.32 52.7801 78.45 52.7801 78.67V80H37.0002V78.67C37.0002 78.45 36.8402 78.32 36.6702 78.19C36.5557 78.1056 36.4546 78.0045 36.3702 77.89C36.2859 77.7624 36.2409 77.6129 36.2409 77.46C36.2409 77.3071 36.2859 77.1576 36.3702 77.03C36.4546 76.9155 36.5557 76.8144 36.6702 76.73C36.8402 76.6 37.0002 76.47 37.0002 76.25V71.88C37.0002 71.66 36.8402 71.54 36.6702 71.4C36.5537 71.3219 36.4521 71.2237 36.3702 71.11C36.2825 70.9802 36.2371 70.8266 36.2402 70.67C36.2385 70.5168 36.2839 70.3667 36.3702 70.24C36.4492 70.1484 36.54 70.0677 36.6402 70C36.8102 69.87 36.9702 69.74 36.9702 69.52V68.09H37.1802C37.953 68.1444 38.7292 68.0563 39.4702 67.83C39.706 67.7269 39.9306 67.5995 40.1402 67.45C40.6821 67.0553 41.3301 66.8324 42.0001 66.81C42.6276 66.8441 43.2425 67.0004 43.8101 67.27C44.1257 67.4216 44.4632 67.5229 44.8101 67.57H44.9201C45.2669 67.5221 45.6042 67.4209 45.9201 67.27C46.4878 67.0004 47.1026 66.8441 47.7301 66.81C48.3994 66.8291 49.046 67.0563 49.5801 67.46C49.7947 67.5985 50.0186 67.7221 50.2501 67.83C50.9947 68.0555 51.774 68.1436 52.5501 68.09H52.7501V69.47C52.7501 69.69 52.9101 69.82 53.0801 69.95C53.1996 70.0278 53.3045 70.126 53.3901 70.24C53.4748 70.3706 53.5168 70.5244 53.5101 70.68C53.5154 70.8323 53.4734 70.9824 53.3901 71.11C53.3045 71.224 53.1996 71.3222 53.0801 71.4C52.9101 71.54 52.7501 71.66 52.7501 71.88V76.25C52.7501 76.47 52.9101 76.6 53.0801 76.73H53.1101ZM33.9102 63C33.9102 63 34.0102 84.84 33.9102 84.74H105.48V63H33.9102Z" fill="#990000"/>
<path d="M58.5597 75.79C58.8261 75.7879 59.0847 75.88 59.2897 76.05C59.3641 76.1083 59.4343 76.1718 59.4997 76.24C59.5385 76.2756 59.5695 76.3189 59.5907 76.3671C59.6119 76.4153 59.6228 76.4674 59.6228 76.52C59.6228 76.5727 59.6119 76.6248 59.5907 76.673C59.5695 76.7212 59.5385 76.7644 59.4997 76.8C59.3197 76.95 59.1197 77.09 58.9897 77.18C58.6997 77.38 58.1997 77.74 57.8597 77.46C57.6797 77.31 58.0297 77.07 57.8597 76.46C57.6897 75.85 58.1997 75.78 58.5597 75.78V75.79Z" fill="#011F5B"/>
<path d="M58.6802 68.7499C57.8928 69.5893 57.2537 70.5564 56.7902 71.6099C56.4207 72.3162 56.1289 73.0606 55.9202 73.8299V73.9099C55.7802 74.4199 55.4902 75.4999 55.9202 75.9099C55.9793 75.9681 56.0429 76.0216 56.1102 76.0699C56.1812 76.1177 56.2481 76.1712 56.3102 76.2299C57.0902 76.9699 56.5502 77.6099 56.1502 78.0799C55.9229 78.2869 55.7656 78.5595 55.7002 78.8599C55.7002 79.4099 56.3702 79.5999 56.5702 79.6499C56.6181 79.6586 56.6618 79.683 56.6944 79.7192C56.7269 79.7554 56.7466 79.8014 56.7502 79.8499C56.7546 79.99 56.7816 80.1284 56.8302 80.2599C56.8726 80.3643 56.9299 80.4619 57.0002 80.5499C57.1429 80.7294 57.3337 80.8646 57.5502 80.9399C57.6971 80.9788 57.8483 80.999 58.0002 80.9999C59.3304 80.9243 60.6018 80.4269 61.6302 79.5799C62.267 79.1476 62.786 78.5633 63.1402 77.8799C63.198 77.7289 63.235 77.5708 63.2502 77.4099L62.2502 77.2399C62.187 77.2356 62.1274 77.2092 62.0816 77.1653C62.0359 77.1214 62.0071 77.0629 62.0002 76.9999C62.0002 76.7899 62.1502 76.6699 62.5102 76.4199L62.8402 76.1899C63.3702 75.7999 63.8402 75.4799 64.0602 75.3099C63.7924 74.9952 63.5484 74.6609 63.3302 74.3099C63.2097 74.1112 63.0761 73.9208 62.9302 73.7399C62.6765 73.4373 62.3268 73.2306 61.9393 73.1542C61.5518 73.0778 61.1499 73.1363 60.8002 73.3199C60.5152 73.524 60.2476 73.7514 60.0002 73.9999C59.7805 74.206 59.5466 74.3965 59.3002 74.5699C59.2531 74.598 59.1975 74.6083 59.1434 74.599C59.0893 74.5897 59.0404 74.5613 59.0054 74.5191C58.9703 74.4768 58.9516 74.4235 58.9525 74.3686C58.9534 74.3137 58.9739 74.261 59.0102 74.2199L59.1302 74.1199C59.4602 73.7999 60.2302 73.0699 60.2302 72.5599C59.9904 71.1879 59.4621 69.8825 58.6802 68.7299V68.7499ZM65.1002 76.6099C66.8802 76.6099 68.9102 77.7199 70.5002 78.6099L71.3502 79.0699C74.0702 80.4699 76.7402 81.6899 79.6202 81.1799C81.0257 80.8661 82.2653 80.0433 83.1002 78.8699C83.4546 78.2303 83.6723 77.524 83.7394 76.7959C83.8065 76.0677 83.7217 75.3336 83.4902 74.6399L83.3402 74.1199C83.0328 73.3387 82.8834 72.5043 82.9005 71.6649C82.9177 70.8255 83.1011 69.9979 83.4402 69.2299C83.0998 69.1895 82.7547 69.2192 82.4262 69.3172C82.0977 69.4152 81.7928 69.5795 81.5302 69.7999C81.1723 70.2052 80.9064 70.6832 80.7511 71.2012C80.5957 71.7191 80.5545 72.2645 80.6302 72.7999C80.631 72.8572 80.6113 72.9129 80.5746 72.9569C80.538 73.0009 80.4867 73.0304 80.4302 73.0399C80.0335 73.0564 79.646 73.1654 79.2988 73.3581C78.9516 73.5508 78.6541 73.8219 78.4302 74.1499C78.254 74.5006 78.1573 74.8859 78.1469 75.2782C78.1365 75.6706 78.2128 76.0604 78.3702 76.4199C78.8102 75.8199 79.5502 75.0099 80.5002 75.2199C80.7963 75.2878 81.0663 75.4402 81.2776 75.6585C81.4888 75.8768 81.6321 76.1517 81.6902 76.4499C81.7775 76.7869 81.7705 77.1414 81.67 77.4747C81.5694 77.808 81.3793 78.1073 81.1202 78.3399C79.8802 79.3399 78.1202 78.9299 76.9302 78.0899C75.4313 76.9701 74.0568 75.6928 72.8302 74.2799C72.5902 73.9999 72.3402 73.7199 72.1102 73.4399C71.244 72.3687 70.2725 71.3871 69.2102 70.5099C67.7263 69.4286 65.9134 68.8949 64.0802 68.9999C62.6347 69.0484 61.2191 69.4245 59.9402 70.0999C60.3557 70.8672 60.6108 71.711 60.6902 72.5799C60.6855 72.7093 60.6619 72.8373 60.6202 72.9599C61.0579 72.733 61.5598 72.6618 62.0432 72.7581C62.5267 72.8545 62.963 73.1125 63.2802 73.4899C63.4441 73.6861 63.5945 73.8933 63.7302 74.1099C63.97 74.5083 64.2552 74.8774 64.5802 75.2099C64.6258 75.2587 64.6509 75.3231 64.6502 75.3899C64.6472 75.4239 64.6367 75.4568 64.6194 75.4862C64.6021 75.5156 64.5785 75.5408 64.5502 75.5599C64.5502 75.5599 63.9602 75.9799 63.1302 76.5599L62.7902 76.7999H62.7302L63.4602 76.9199C63.9641 76.6505 64.5291 76.5162 65.1002 76.5299V76.6099ZM78.2602 81.7299C75.7902 81.7299 73.4802 80.6599 71.1502 79.4499L70.2802 78.9999C68.4002 77.9999 65.5702 76.4199 63.7302 77.3899C63.7156 77.622 63.6684 77.8509 63.5902 78.0699C63.2019 78.8446 62.624 79.5085 61.9102 79.9999C60.7986 80.8972 59.4276 81.4126 58.0002 81.4699C57.7663 81.474 57.5333 81.4402 57.3102 81.3699C57.0105 81.2662 56.7468 81.0788 56.5502 80.8299C56.4561 80.7074 56.3788 80.5729 56.3202 80.4299C56.273 80.3073 56.2394 80.1799 56.2202 80.0499C55.9365 79.9973 55.6784 79.8518 55.4865 79.6364C55.2946 79.4209 55.1798 79.1478 55.1602 78.8599C55.2123 78.4476 55.4111 78.0677 55.7202 77.7899C56.1602 77.2599 56.3602 76.9899 55.9102 76.5599L55.7502 76.4299C55.6597 76.3689 55.5759 76.2985 55.5002 76.2199C54.9502 75.6299 55.2502 74.4799 55.4402 73.7899V73.7199C55.6543 72.9159 55.9561 72.1379 56.3402 71.3999C56.8613 70.2077 57.6084 69.1278 58.5402 68.2199C58.598 68.1966 58.6625 68.1966 58.7202 68.2199C58.7846 68.2311 58.842 68.267 58.8802 68.3199C58.8802 68.3699 59.3002 68.9599 59.7002 69.7399C61.0439 69.0533 62.5222 68.6709 64.0302 68.6199C65.9768 68.4699 67.914 69.0117 69.5002 70.1499C70.6015 71.0432 71.6069 72.0486 72.5002 73.1499L73.2202 73.9699C74.4138 75.3611 75.755 76.6185 77.2202 77.7199C78.2202 78.4599 79.8002 78.8499 80.8502 77.9799C81.0449 77.8032 81.1872 77.5762 81.2613 77.3239C81.3354 77.0717 81.3385 76.8038 81.2702 76.5499C81.2305 76.3366 81.1301 76.1392 80.9811 75.9813C80.8322 75.8235 80.6409 75.7119 80.4302 75.6599C79.6702 75.4999 79.0402 76.2599 78.5202 77.0299C78.4966 77.063 78.4649 77.0896 78.4282 77.107C78.3914 77.1245 78.3508 77.1324 78.3102 77.1299C78.2695 77.124 78.2308 77.1082 78.1977 77.0837C78.1645 77.0593 78.1379 77.0271 78.1202 76.9899C77.8662 76.52 77.7282 75.9962 77.7178 75.4622C77.7073 74.9281 77.8248 74.3993 78.0602 73.9199C78.2991 73.5624 78.612 73.2604 78.9778 73.0344C79.3435 72.8083 79.7536 72.6636 80.1802 72.6099C80.1099 72.0407 80.1628 71.4631 80.3354 70.9161C80.5079 70.3692 80.796 69.8657 81.1802 69.4399C81.5343 69.1456 81.9499 68.9344 82.3964 68.822C82.8429 68.7095 83.309 68.6985 83.7602 68.7899C83.8068 68.778 83.856 68.7825 83.8997 68.8025C83.9434 68.8225 83.9788 68.8569 84.0002 68.8999C84.0146 68.9313 84.0221 68.9654 84.0221 68.9999C84.0221 69.0344 84.0146 69.0685 84.0002 69.0999C83.6185 69.8513 83.4031 70.6761 83.3686 71.5181C83.3341 72.3602 83.4813 73.1998 83.8002 73.9799C83.8002 74.1499 83.9002 74.3199 83.9402 74.4999C84.1969 75.2524 84.2904 76.0509 84.2146 76.8423C84.1387 77.6337 83.8952 78.3999 83.5002 79.0899C82.603 80.3765 81.2529 81.2766 79.7202 81.6099C79.2444 81.6895 78.7627 81.7297 78.2802 81.7299H78.2602Z" fill="#011F5B"/>
<path d="M57.1403 80.16C56.9239 80.1746 56.7067 80.1746 56.4903 80.16C56.4604 80.1575 56.4313 80.149 56.4049 80.135C56.3784 80.1209 56.3551 80.1015 56.3363 80.0781C56.3176 80.0547 56.3039 80.0277 56.296 79.9988C56.288 79.9699 56.2861 79.9397 56.2903 79.91C56.2978 79.8507 56.3281 79.7967 56.3748 79.7593C56.4214 79.722 56.4808 79.7043 56.5403 79.71C57.2496 79.8017 57.9706 79.7214 58.6424 79.476C59.3142 79.2306 59.9171 78.8273 60.4003 78.3C60.4459 78.2599 60.5046 78.2378 60.5653 78.2378C60.626 78.2378 60.6847 78.2599 60.7303 78.3C60.7725 78.3445 60.796 78.4036 60.796 78.465C60.796 78.5264 60.7725 78.5854 60.7303 78.63C60.2688 79.1182 59.7121 79.5067 59.0947 79.7715C58.4773 80.0364 57.8121 80.172 57.1403 80.17V80.16Z" fill="#011F5B"/>
<path d="M75.3895 76.7499H75.2995C75.2506 76.7242 75.2126 76.6818 75.1924 76.6304C75.1722 76.579 75.1712 76.522 75.1895 76.4699C75.3037 76.2676 75.3718 76.0427 75.3891 75.8111C75.4064 75.5794 75.3724 75.3469 75.2895 75.1299C75.2058 74.9813 75.0925 74.8514 74.9566 74.7482C74.8207 74.645 74.6652 74.5707 74.4995 74.5299C74.4414 74.5108 74.3918 74.4719 74.3595 74.4199C74.3397 74.365 74.3397 74.3048 74.3595 74.2499C74.5083 73.886 74.5599 73.4897 74.5095 73.0999C74.4095 72.8299 73.8995 72.7199 73.7395 72.6999C73.7067 72.6944 73.6755 72.6818 73.648 72.6631C73.6206 72.6444 73.5975 72.6199 73.5804 72.5914C73.5632 72.5629 73.5525 72.531 73.5489 72.4979C73.5453 72.4649 73.5489 72.4314 73.5595 72.3999C73.6985 72.1087 73.7165 71.7743 73.6095 71.4699C73.2695 70.9399 72.3895 71.1999 72.3795 71.1999C72.3425 71.2113 72.3029 71.2117 72.2656 71.2011C72.2283 71.1904 72.1949 71.1692 72.1695 71.1399C72.1489 71.1088 72.1379 71.0722 72.1379 71.0349C72.1379 70.9975 72.1489 70.961 72.1695 70.9299C72.2379 70.7084 72.2519 70.4736 72.2101 70.2455C72.1683 70.0174 72.072 69.8028 71.9295 69.6199C71.2795 68.9999 69.9995 69.3499 69.9995 69.3599C69.9625 69.3713 69.9229 69.3717 69.8856 69.3611C69.8483 69.3504 69.8149 69.3292 69.7895 69.2999C69.7689 69.2688 69.7579 69.2322 69.7579 69.1949C69.7579 69.1575 69.7689 69.121 69.7895 69.0899C69.7895 69.0899 69.9995 68.3999 69.5595 68.0899C69.3106 67.9678 69.0324 67.918 68.7566 67.9463C68.4808 67.9746 68.2185 68.0798 67.9995 68.2499C67.9673 68.2674 67.9312 68.2766 67.8945 68.2766C67.8578 68.2766 67.8218 68.2674 67.7895 68.2499C67.7552 68.2363 67.7255 68.213 67.7042 68.1828C67.6829 68.1526 67.6708 68.1168 67.6695 68.0799C67.6695 68.0799 67.5495 67.1799 66.7795 67.0799C66.1396 67.1026 65.5321 67.367 65.0795 67.8199C65.0594 67.8417 65.0344 67.8585 65.0067 67.8689C64.9789 67.8793 64.949 67.8831 64.9195 67.8799C64.8886 67.8792 64.8582 67.8716 64.8306 67.8578C64.8029 67.844 64.7787 67.8242 64.7595 67.7999C64.606 67.5926 64.4094 67.4209 64.1833 67.2966C63.9572 67.1723 63.7069 67.0984 63.4495 67.0799C63.2297 67.0999 63.0197 67.1806 62.8431 67.313C62.6665 67.4455 62.5302 67.6244 62.4495 67.8299C62.44 67.8639 62.4207 67.8943 62.3941 67.9174C62.3674 67.9406 62.3345 67.9553 62.2995 67.9599C62.2647 67.9695 62.228 67.9699 62.193 67.9611C62.1579 67.9524 62.1257 67.9347 62.0995 67.9099C61.9167 67.7272 61.6906 67.5938 61.4423 67.5221C61.194 67.4504 60.9316 67.4427 60.6795 67.4999C59.7795 67.8299 59.5295 68.9299 59.4395 69.2899C59.4254 69.3424 59.3914 69.3874 59.3448 69.4154C59.2982 69.4433 59.2425 69.4521 59.1895 69.4399C59.1619 69.4353 59.1356 69.425 59.1123 69.4095C59.0889 69.3941 59.0691 69.374 59.054 69.3504C59.0389 69.3269 59.0289 69.3004 59.0247 69.2728C59.0205 69.2451 59.0222 69.2169 59.0295 69.1899C59.0905 68.7431 59.2601 68.3181 59.5233 67.9521C59.7865 67.586 60.1354 67.29 60.5395 67.0899C60.8189 67.0054 61.1148 66.9913 61.401 67.0489C61.6871 67.1065 61.9546 67.2339 62.1795 67.4199C62.3052 67.1971 62.4844 67.0092 62.7008 66.873C62.9173 66.7368 63.1643 66.6567 63.4195 66.6399C63.7212 66.6447 64.0183 66.7141 64.2909 66.8435C64.5635 66.9729 64.8051 67.1592 64.9995 67.3899C65.5124 66.9141 66.19 66.656 66.8895 66.6699C67.1562 66.7298 67.4011 66.8625 67.5971 67.0531C67.793 67.2438 67.9323 67.4849 67.9995 67.7499C68.2625 67.5981 68.5608 67.5181 68.8645 67.5181C69.1682 67.5181 69.4665 67.5981 69.7295 67.7499C69.9082 67.8712 70.0484 68.0412 70.1334 68.2397C70.2185 68.4381 70.2449 68.6569 70.2095 68.8699C70.5417 68.7846 70.8892 68.7782 71.2243 68.8511C71.5594 68.9241 71.8728 69.0743 72.1395 69.2899C72.3108 69.4781 72.4368 69.703 72.5078 69.9474C72.5789 70.1918 72.5931 70.4492 72.5495 70.6999C72.8027 70.6444 73.0666 70.663 73.3095 70.7534C73.5525 70.8439 73.7642 71.0023 73.9195 71.2099C74.0087 71.3758 74.0619 71.5586 74.0757 71.7464C74.0895 71.9342 74.0635 72.1228 73.9995 72.2999C74.1838 72.3293 74.3585 72.4017 74.5097 72.5111C74.6608 72.6206 74.7841 72.764 74.8695 72.9299C74.9551 73.3429 74.9275 73.7713 74.7895 74.1699C75.1514 74.3084 75.4525 74.5706 75.6395 74.9099C75.7521 75.1838 75.8024 75.4793 75.7868 75.775C75.7712 76.0707 75.6902 76.3593 75.5495 76.6199C75.534 76.6577 75.5077 76.6902 75.4739 76.7132C75.4402 76.7363 75.4004 76.7491 75.3595 76.7499H75.3895Z" fill="#011F5B"/>
<path d="M74.3296 79.6799C74.3023 79.6775 74.2758 79.6695 74.2518 79.6565C74.2277 79.6434 74.2066 79.6255 74.1897 79.604C74.1728 79.5824 74.1606 79.5576 74.1537 79.5311C74.1468 79.5046 74.1454 79.477 74.1496 79.4499C74.2396 78.6299 73.7696 78.4499 73.3396 78.3499C73.2412 78.3276 73.1468 78.2905 73.0596 78.2399C72.8296 78.1099 72.8296 77.8399 72.8196 77.5599C72.8475 77.2365 72.7589 76.9137 72.5696 76.6499C72.1696 76.2099 71.3896 76.4999 71.3796 76.4999C71.3471 76.5166 71.3111 76.5253 71.2746 76.5253C71.2381 76.5253 71.2021 76.5166 71.1696 76.4999C71.1404 76.4765 71.1183 76.4453 71.1059 76.41C71.0935 76.3746 71.0913 76.3365 71.0996 76.2999C71.1318 76.0672 71.1127 75.8302 71.0436 75.6056C70.9745 75.381 70.8571 75.1743 70.6996 74.9999C70.2492 74.7386 69.7147 74.6633 69.2096 74.7899C69.1817 74.804 69.1508 74.8113 69.1196 74.8113C69.0883 74.8113 69.0575 74.804 69.0296 74.7899C69.0032 74.7682 68.9822 74.7406 68.9683 74.7094C68.9544 74.6781 68.948 74.6441 68.9496 74.6099C68.9786 74.3683 68.9397 74.1233 68.8372 73.9025C68.7348 73.6817 68.5728 73.4938 68.3696 73.3599C68.2128 73.2478 68.0281 73.181 67.8358 73.1669C67.6435 73.1528 67.4511 73.1919 67.2796 73.2799C66.964 73.5337 66.5643 73.6592 66.1602 73.6314C65.7562 73.6036 65.3775 73.4245 65.0996 73.1299C64.98 73.0315 64.8391 72.9622 64.6881 72.9275C64.5372 72.8928 64.3802 72.8936 64.2296 72.9299C64.0226 73.0059 63.8339 73.1243 63.6754 73.2776C63.517 73.4309 63.3924 73.6156 63.3096 73.8199C63.2838 73.8711 63.239 73.9101 63.1849 73.9288C63.1307 73.9475 63.0714 73.9443 63.0196 73.9199C62.9709 73.8942 62.9336 73.8512 62.9151 73.7994C62.8966 73.7475 62.8982 73.6906 62.9196 73.6399C63.0289 73.3761 63.1935 73.1388 63.4022 72.9438C63.6109 72.7489 63.8589 72.601 64.1296 72.5099C64.3403 72.4626 64.5588 72.4622 64.7697 72.5088C64.9806 72.5555 65.1785 72.6481 65.3496 72.7799C66.1296 73.3399 66.3496 73.3199 67.0796 72.8999C67.3191 72.7804 67.586 72.7266 67.8531 72.7442C68.1202 72.7618 68.3778 72.85 68.5996 72.9999C68.8285 73.1529 69.0183 73.3575 69.1537 73.5971C69.2892 73.8368 69.3666 74.1049 69.3796 74.3799C69.6539 74.3292 69.9356 74.3331 70.2085 74.3914C70.4813 74.4498 70.74 74.5614 70.9696 74.7199C71.1417 74.8855 71.2784 75.0843 71.3712 75.3044C71.4641 75.5244 71.5111 75.7611 71.5096 75.9999C71.7441 75.9371 71.991 75.9363 72.2259 75.9976C72.4608 76.059 72.6758 76.1804 72.8496 76.3499C73.1125 76.6808 73.241 77.0985 73.2096 77.5199C73.1902 77.6324 73.1902 77.7474 73.2096 77.8599L73.3996 77.9299C73.5756 77.9551 73.7447 78.0158 73.8965 78.1084C74.0483 78.201 74.1797 78.3236 74.2826 78.4686C74.3855 78.6136 74.4578 78.7781 74.4951 78.9519C74.5324 79.1258 74.534 79.3055 74.4996 79.4799C74.4905 79.5294 74.4646 79.5743 74.4264 79.6071C74.3882 79.6398 74.3399 79.6585 74.2896 79.6599L74.3296 79.6799Z" fill="#011F5B"/>
<path d="M53.24 77.4699C53.2476 77.559 53.2228 77.6478 53.17 77.7199C53.1026 77.8087 53.0216 77.8863 52.93 77.9499C52.8021 78.0243 52.6943 78.1288 52.6159 78.2542C52.5375 78.3797 52.4908 78.5224 52.48 78.6699V79.6699H37.28V78.6699C37.2616 78.5311 37.2114 78.3985 37.1333 78.2823C37.0553 78.1661 36.9515 78.0695 36.83 77.9999C36.7361 77.9392 36.6547 77.8611 36.59 77.7699C36.5345 77.6987 36.5061 77.6101 36.51 77.5199C36.5071 77.4268 36.5352 77.3353 36.59 77.2599C36.6511 77.1575 36.7328 77.069 36.83 76.9999C36.9579 76.9255 37.0657 76.8211 37.1441 76.6956C37.2225 76.5702 37.2692 76.4275 37.28 76.2799V71.8799C37.2693 71.7337 37.2226 71.5923 37.1441 71.4684C37.0656 71.3446 36.9577 71.242 36.83 71.1699C36.7384 71.1063 36.6574 71.0287 36.59 70.9399C36.5338 70.8653 36.5055 70.7733 36.51 70.6799C36.5071 70.5868 36.5352 70.4953 36.59 70.4199C36.6553 70.332 36.7367 70.2573 36.83 70.1999C36.9579 70.1255 37.0657 70.0211 37.1441 69.8956C37.2225 69.7702 37.2692 69.6275 37.28 69.4799V68.4799C37.67 68.4799 38.06 68.4799 38.42 68.4799V78.4799H44C44.0515 78.6767 44.1668 78.8509 44.3279 78.9752C44.4889 79.0995 44.6866 79.1669 44.89 79.1669C45.0934 79.1669 45.2911 79.0995 45.4522 78.9752C45.6132 78.8509 45.7285 78.6767 45.78 78.4799H51.32V68.4799C51.68 68.4799 52.06 68.4799 52.46 68.4799V69.4799C52.4708 69.6275 52.5175 69.7702 52.5959 69.8956C52.6743 70.0211 52.7821 70.1255 52.91 70.1999C53.0015 70.2596 53.0826 70.334 53.15 70.4199C53.2019 70.4962 53.2266 70.5878 53.22 70.6799C53.2283 70.7721 53.2035 70.8643 53.15 70.9399C53.0799 71.0263 52.9993 71.1036 52.91 71.1699C52.7823 71.242 52.6744 71.3446 52.5959 71.4684C52.5174 71.5923 52.4707 71.7337 52.46 71.8799V76.2499C52.4708 76.3975 52.5175 76.5402 52.5959 76.6656C52.6743 76.7911 52.7821 76.8955 52.91 76.9699C53.0015 77.0296 53.0826 77.104 53.15 77.1899C53.2019 77.2662 53.2266 77.3578 53.22 77.4499L53.24 77.4699ZM39.62 68.1599C39.8716 68.0485 40.1125 67.9147 40.34 67.7599C40.8191 67.3965 41.399 67.1903 42 67.1699C42.5799 67.2071 43.1471 67.3566 43.67 67.6099C43.9906 67.7505 44.3261 67.8545 44.67 67.9199V76.6999H44.62C44.034 76.7963 43.4582 76.947 42.9 77.1499L42.23 77.3599C41.5762 77.5217 40.9032 77.5924 40.23 77.5699C39.8188 77.5616 39.4076 77.585 39 77.6399V68.3599C39.2306 68.3206 39.4556 68.2535 39.67 68.1599H39.62ZM46.08 67.6099C46.6065 67.3565 47.1769 67.2071 47.76 67.1699C48.3599 67.196 48.9382 67.4016 49.42 67.7599C49.6475 67.9147 49.8885 68.0485 50.14 68.1599C50.3544 68.2535 50.5794 68.3206 50.81 68.3599V77.6399C50.4022 77.5883 49.9909 77.5683 49.58 77.5799C48.9069 77.6019 48.2339 77.5312 47.58 77.3699L46.91 77.1599C46.3518 76.957 45.776 76.8063 45.19 76.7099V67.9099C45.5108 67.847 45.8229 67.7463 46.12 67.6099H46.08ZM53.2 76.6099C53.03 76.4699 52.93 76.3799 52.93 76.2399V71.8799C52.93 71.7399 53.03 71.6599 53.2 71.5199C53.3322 71.4311 53.4473 71.3194 53.54 71.1899C53.6278 71.0379 53.674 70.8655 53.674 70.6899C53.674 70.5144 53.6278 70.3419 53.54 70.1899C53.4473 70.0605 53.3322 69.9487 53.2 69.8599C53.03 69.7299 52.93 69.6399 52.93 69.4999V67.9999H52.58C51.8244 68.0502 51.0659 67.9655 50.34 67.7499C50.115 67.6418 49.8978 67.5182 49.69 67.3799C49.1294 66.9663 48.4563 66.7327 47.76 66.7099C47.1125 66.7463 46.4778 66.9058 45.89 67.1799C45.5752 67.3317 45.2372 67.4298 44.89 67.4699H44.78C44.4328 67.4298 44.0948 67.3317 43.78 67.1799C43.2243 66.8971 42.6206 66.7207 42 66.6599C41.3033 66.6808 40.6297 66.9146 40.07 67.3299C39.8622 67.4682 39.645 67.5918 39.42 67.6999C38.697 67.9318 37.9385 68.0334 37.18 67.9999H36.83V69.4699C36.83 69.6099 36.73 69.6999 36.55 69.8299C36.4231 69.9216 36.3117 70.033 36.22 70.1599C36.1111 70.3106 36.0581 70.4944 36.07 70.6799C36.0596 70.8621 36.1126 71.0423 36.22 71.1899C36.3117 71.3168 36.4231 71.4282 36.55 71.5199C36.73 71.6599 36.83 71.7399 36.83 71.8799V76.2499C36.83 76.3899 36.73 76.4799 36.55 76.6199C36.4257 76.7108 36.3146 76.8185 36.22 76.9399C36.1119 77.0909 36.0589 77.2745 36.07 77.4599C36.0596 77.6421 36.1126 77.8223 36.22 77.9699C36.3117 78.0968 36.4231 78.2082 36.55 78.2999C36.73 78.4399 36.83 78.5199 36.83 78.6699V80.1499H52.94V78.6699C52.94 78.5199 53.04 78.4399 53.21 78.2999C53.3422 78.2111 53.4573 78.0994 53.55 77.9699C53.6491 77.8184 53.7013 77.641 53.7 77.4599C53.6988 77.2761 53.6469 77.0962 53.55 76.9399C53.4544 76.8158 53.3397 76.7078 53.21 76.6199L53.2 76.6099Z" fill="#011F5B"/>
<path d="M102.87 77.4699C102.874 77.5601 102.846 77.6487 102.79 77.7199C102.726 77.8111 102.644 77.8892 102.55 77.9499C102.423 78.0243 102.315 78.1288 102.236 78.2542C102.158 78.3797 102.111 78.5224 102.1 78.6699V79.6699H86.9005V78.6699C86.8896 78.5224 86.843 78.3797 86.7646 78.2542C86.6862 78.1288 86.5784 78.0243 86.4505 77.9499C86.3589 77.8863 86.2779 77.8087 86.2105 77.7199C86.1577 77.6478 86.1328 77.559 86.1405 77.4699C86.1339 77.3778 86.1585 77.2862 86.2105 77.2099C86.2779 77.124 86.359 77.0496 86.4505 76.9899C86.5784 76.9155 86.6862 76.8111 86.7646 76.6856C86.843 76.5602 86.8896 76.4175 86.9005 76.2699V71.8799C86.8898 71.7337 86.8431 71.5923 86.7646 71.4684C86.6861 71.3446 86.5782 71.242 86.4505 71.1699C86.3612 71.1036 86.2805 71.0263 86.2105 70.9399C86.157 70.8643 86.1322 70.7721 86.1405 70.6799C86.1339 70.5878 86.1585 70.4962 86.2105 70.4199C86.2779 70.334 86.359 70.2596 86.4505 70.1999C86.5784 70.1255 86.6862 70.0211 86.7646 69.8956C86.843 69.7702 86.8896 69.6275 86.9005 69.4799V68.4799C87.3005 68.4799 87.6805 68.4799 88.0505 68.4799V78.4799H93.5805C93.6355 78.6749 93.7527 78.8465 93.9143 78.9688C94.0758 79.091 94.2729 79.1572 94.4755 79.1572C94.6781 79.1572 94.8751 79.091 95.0367 78.9688C95.1982 78.8465 95.3154 78.6749 95.3705 78.4799H100.9V68.4799C101.26 68.4799 101.65 68.4799 102.04 68.4799V69.4799C102.051 69.6275 102.098 69.7702 102.176 69.8956C102.255 70.0211 102.363 70.1255 102.49 70.1999C102.584 70.2573 102.665 70.332 102.73 70.4199C102.785 70.4953 102.813 70.5868 102.81 70.6799C102.815 70.7733 102.787 70.8653 102.73 70.9399C102.663 71.0287 102.582 71.1063 102.49 71.1699C102.363 71.242 102.255 71.3446 102.176 71.4684C102.098 71.5923 102.051 71.7337 102.04 71.8799V76.2499C102.051 76.3975 102.098 76.5402 102.176 76.6656C102.255 76.7911 102.363 76.8955 102.49 76.9699C102.584 77.0273 102.665 77.102 102.73 77.1899C102.785 77.2653 102.813 77.3568 102.81 77.4499L102.87 77.4699ZM89.2405 68.1599C89.492 68.0485 89.733 67.9147 89.9605 67.7599C90.4423 67.4016 91.0206 67.196 91.6205 67.1699C92.2036 67.2071 92.774 67.3565 93.3005 67.6099C93.6203 67.7525 93.956 67.8566 94.3005 67.9199V76.6999C93.718 76.7978 93.1456 76.9484 92.5905 77.1499L91.9105 77.3599C91.2567 77.5222 90.5836 77.5929 89.9105 77.5699C89.4995 77.5587 89.0884 77.5788 88.6805 77.6299V68.3599C88.9111 68.3206 89.136 68.2535 89.3505 68.1599H89.2405ZM95.7105 67.6099C96.2334 67.3566 96.8006 67.2071 97.3805 67.1699C97.9677 67.1984 98.5325 67.4041 99.0005 67.7599C99.2292 67.9126 99.47 68.0463 99.7205 68.1599C99.9384 68.2532 100.167 68.3204 100.4 68.3599V77.6399C99.9926 77.5888 99.5814 77.5687 99.1705 77.5799C98.4973 77.6029 97.8242 77.5322 97.1705 77.3699L96.4905 77.1599C95.9353 76.9584 95.3629 76.8078 94.7805 76.7099V67.9099C95.1041 67.8456 95.4194 67.745 95.7205 67.6099H95.7105ZM102.83 76.6099C102.65 76.4699 102.55 76.3799 102.55 76.2399V71.8799C102.55 71.7399 102.65 71.6599 102.83 71.5199C102.957 71.4282 103.069 71.3168 103.16 71.1899C103.268 71.0423 103.321 70.8621 103.31 70.6799C103.322 70.4944 103.269 70.3106 103.16 70.1599C103.069 70.033 102.957 69.9216 102.83 69.8299C102.65 69.6999 102.55 69.6099 102.55 69.4699V67.9999H102.2C101.455 68.0287 100.711 67.9271 100 67.6999C99.7755 67.5918 99.5583 67.4682 99.3505 67.3299C98.7898 66.9163 98.1168 66.6827 97.4205 66.6599C96.7759 66.6951 96.1443 66.8547 95.5605 67.1299C95.2457 67.2817 94.9077 67.3798 94.5605 67.4199H94.4505C94.1033 67.3798 93.7653 67.2817 93.4505 67.1299C92.8627 66.8558 92.228 66.6963 91.5805 66.6599C90.8841 66.6827 90.2111 66.9163 89.6505 67.3299C89.4427 67.4682 89.2255 67.5918 89.0005 67.6999C88.2903 67.9277 87.5457 68.0293 86.8005 67.9999H86.4505V69.4699C86.4505 69.6099 86.3505 69.6999 86.1805 69.8299C86.0483 69.9187 85.9331 70.0305 85.8405 70.1599C85.7527 70.3119 85.7065 70.4844 85.7065 70.6599C85.7065 70.8355 85.7527 71.0079 85.8405 71.1599C85.9331 71.2894 86.0483 71.4011 86.1805 71.4899C86.3505 71.6299 86.4505 71.7099 86.4505 71.8499V76.2199C86.4505 76.3599 86.3505 76.4499 86.1805 76.5899C86.0508 76.6778 85.936 76.7858 85.8405 76.9099C85.7436 77.0662 85.6917 77.2461 85.6905 77.4299C85.6892 77.611 85.7414 77.7884 85.8405 77.9399C85.9331 78.0694 86.0483 78.1811 86.1805 78.2699C86.3505 78.4099 86.4505 78.4899 86.4505 78.6399V80.1199H102.56V78.6699C102.56 78.5199 102.66 78.4399 102.84 78.2999C102.967 78.2082 103.079 78.0968 103.17 77.9699C103.278 77.8223 103.331 77.6421 103.32 77.4599C103.332 77.2745 103.279 77.0909 103.17 76.9399C103.076 76.8185 102.965 76.7108 102.84 76.6199L102.83 76.6099Z" fill="#011F5B"/>
<path d="M100.92 116.31L69.6899 86.1799L38.4599 116.31C35.8028 110.778 34.4352 104.716 34.4599 98.5799V85.2199H104.96V98.5799C104.985 104.716 103.617 110.778 100.96 116.31H100.92ZM90.9999 119.45C90.1316 120.319 89.0251 120.91 87.8203 121.15C86.6156 121.39 85.3668 121.268 84.2319 120.798C83.097 120.328 82.127 119.532 81.4445 118.51C80.7619 117.489 80.3977 116.288 80.3977 115.06C80.3977 113.832 80.7619 112.631 81.4445 111.61C82.127 110.588 83.097 109.792 84.2319 109.322C85.3668 108.852 86.6156 108.73 87.8203 108.97C89.0251 109.209 90.1316 109.801 90.9999 110.67C91.5774 111.246 92.0356 111.93 92.3483 112.683C92.6609 113.437 92.8218 114.244 92.8218 115.06C92.8218 115.875 92.6609 116.683 92.3483 117.437C92.0356 118.19 91.5774 118.874 90.9999 119.45ZM63.4799 99.6499C63.4799 98.4217 63.8441 97.2211 64.5265 96.1998C65.2089 95.1786 66.1787 94.3827 67.3135 93.9126C68.4482 93.4426 69.6968 93.3196 70.9014 93.5593C72.1061 93.7989 73.2126 94.3903 74.0811 95.2588C74.9495 96.1273 75.541 97.2338 75.7806 98.4384C76.0202 99.643 75.8972 100.892 75.4272 102.026C74.9572 103.161 74.1612 104.131 73.14 104.813C72.1188 105.496 70.9181 105.86 69.6899 105.86C68.0429 105.86 66.4634 105.206 65.2988 104.041C64.1342 102.876 63.4799 101.297 63.4799 99.6499ZM89.0899 132.05C80.7099 139.82 71.9999 143.74 69.6899 144.33C67.3599 143.74 58.6899 139.82 50.2899 132.05L49.6699 131.47L69.6699 110.22L89.6699 131.47L89.0499 132.05H89.0899ZM48.4299 119.45C47.5611 118.582 46.9694 117.475 46.7295 116.27C46.4896 115.066 46.6124 113.817 47.0823 112.682C47.5522 111.547 48.3482 110.577 49.3695 109.895C50.3908 109.212 51.5916 108.848 52.8199 108.848C54.0483 108.848 55.249 109.212 56.2703 109.895C57.2916 110.577 58.0876 111.547 58.5575 112.682C59.0274 113.817 59.1502 115.066 58.9104 116.27C58.6705 117.475 58.0787 118.582 57.2099 119.45C56.634 120.027 55.9498 120.486 55.1964 120.798C54.4431 121.111 53.6355 121.272 52.8199 121.272C52.0043 121.272 51.1967 121.111 50.4434 120.798C49.6901 120.486 49.0059 120.027 48.4299 119.45ZM104.94 63.4499V84.2099H34.4399V63.4399L104.94 63.4499ZM105.94 62.4499H33.4299V98.5799C33.3799 114.42 42.1999 125.92 49.5999 132.79C57.6699 140.27 66.7599 144.73 69.5999 145.35H69.7399C72.5999 144.73 81.7399 140.27 89.7399 132.79C97.1799 125.92 106 114.42 106 98.5799V62.4299L105.94 62.4499Z" fill="#011F5B"/>
</svg>
