<svg width="622" height="268" viewBox="0 0 622 268" fill="none" xmlns="http://www.w3.org/2000/svg">
  <path
    d="M310.994 268C352.84 190.662 437.628 123.551 546.182 91.792C571.369 84.4232 596.503 79.3473 621.214 76.4288V-801.728C598.587 -804.737 575.633 -809.553 552.636 -816.281C437.806 -849.877 349.57 -923.029 310.625 -1006C271.682 -923.027 183.444 -849.872 68.6119 -816.276C45.6032 -809.544 22.6384 -804.726 0 -801.718V76.338C24.9604 79.2414 50.3569 84.3462 75.807 91.792C184.361 123.551 269.149 190.662 310.994 268Z"
    fill="currentColor"/>
  <path
    d="M75.9374 91.3464C184.239 123.032 268.939 189.881 310.994 267.027C353.05 189.881 437.75 123.032 546.052 91.3464C571.124 84.0111 596.145 78.9454 620.75 76.0163V-801.322C598.229 -804.337 575.389 -809.141 552.505 -815.836C437.983 -849.341 349.848 -922.167 310.625 -1004.91C271.403 -922.165 183.267 -849.336 68.7423 -815.83C45.8476 -809.132 22.9956 -804.326 0.464286 -801.312V75.9248C25.3186 78.8393 50.6018 83.9342 75.9374 91.3464Z"
    stroke="white" stroke-opacity="0.4" stroke-width="0.928571"/>
</svg>
