<svg width="141" height="62" viewBox="0 0 141 62" fill="none" xmlns="http://www.w3.org/2000/svg">
  <path
    d="M46.9514 13.3604L32.6143 37.5171V53.767C34.2647 57.677 38.436 58.1979 42.4336 58.3721V60.6312H14.366V58.3721C18.3633 58.1979 23.2295 57.5903 24.5327 54.9838V38.2122L9.93433 13.5339C7.41483 9.36286 4.98177 7.97318 0.115356 7.6252V5.36612H24.533V7.6252C19.9273 7.88562 18.4503 8.7553 17.1471 9.7984L30.7027 33.2591L43.9975 9.88455C42.6073 8.84201 40.7826 7.88562 36.1772 7.62548V5.3664H57.0317V7.62548C52.3393 7.79947 49.3848 9.36286 46.9514 13.3604ZM75.4528 61.4133C70.761 61.4133 68.5013 58.1979 68.3276 55.9394C65.3729 59.0673 61.5501 61.4133 57.9005 61.4133C53.2081 61.4133 49.2105 58.5456 49.2105 53.5936C49.2105 51.1597 49.8189 48.6396 51.0357 46.6415L68.3276 40.3849V33.9545C68.3276 30.0445 66.5027 26.3079 62.5924 26.3079C60.2463 26.3079 57.9869 29.1748 57.8135 33.6071L49.9923 34.9098V34.0418C52.5991 26.2203 61.2021 23.1797 65.3726 23.1797C73.2802 23.1797 76.1477 27.3501 76.0609 33.7805L75.8005 52.0282C75.7135 55.5911 77.6249 56.4599 79.3631 56.4599C80.7531 56.4599 82.1433 55.5911 83.7948 53.9404V56.4599C81.8835 58.7198 78.4949 61.4133 75.4528 61.4133ZM58.0742 47.2496C57.7265 48.6396 57.4661 49.8561 57.4661 51.7681C57.4661 54.3746 58.9433 56.9811 61.8105 56.9811C64.4173 56.9811 65.8945 56.1131 68.2409 54.2878L68.3276 42.5564C66.0685 43.5992 60.5076 46.0331 58.0742 47.2496ZM84.5772 60.6312V58.6323C88.4873 58.3719 89.6162 57.503 90.3125 56.0249V11.0135C90.3125 8.05905 89.8775 6.84308 83.8818 6.32139V4.58372L99.784 0.586426L100.305 2.06451L97.7854 5.19241V56.0252C98.6542 57.7637 100.305 58.3721 103.868 58.6326V60.6315H84.5772V60.6312ZM124.722 61.3263C115.598 61.3263 108.56 54.1141 108.56 44.0342C108.56 31.6949 116.12 23.2658 126.808 23.2658C135.41 23.2658 140.19 28.1331 140.19 35.8661V37.4301L116.728 37.2567C116.555 38.2122 116.467 39.777 116.467 41.6881C116.467 50.5513 122.028 56.3732 129.415 56.3732C133.846 56.3732 136.106 54.809 139.581 51.8548L140.885 53.8529C135.932 58.3721 131.848 61.3263 124.722 61.3263ZM125.505 25.9605C121.159 25.9605 118.119 29.4358 117.076 34.9098L132.37 34.7363C132.37 30.1309 129.502 25.9605 125.505 25.9605Z"
    fill="#00356B"/>
</svg>
